<?xml version="1.0" encoding="UTF-8" standalone="no"?>
<!DOCTYPE svg PUBLIC "-//W3C//DTD SVG 1.1//EN"
 "http://www.w3.org/Graphics/SVG/1.1/DTD/svg11.dtd">
<!-- Generated by graphviz version 2.43.0 (0)
 -->
<!-- Title: include/ccf/actors.h Pages: 1 -->
<!--zoomable 576 -->
<svg id="main" version="1.1" xmlns="http://www.w3.org/2000/svg" xmlns:xlink="http://www.w3.org/1999/xlink" xml:space="preserve" onload="init(evt)">
<style type="text/css"><![CDATA[
.edge:hover path { stroke: red; }
.edge:hover polygon { stroke: red; fill: red; }
]]></style>
<script type="text/javascript"><![CDATA[
var edges = document.getElementsByTagName('g');
if (edges && edges.length) {
  for (var i=0;i<edges.length;i++) {
    if (edges[i].id.substr(0,4)=='edge') {
      edges[i].setAttribute('class','edge');
    }
  }
}
]]></script>
        <defs>
                <circle id="rim" cx="0" cy="0" r="7"/>
                <circle id="rim2" cx="0" cy="0" r="3.5"/>
                <g id="zoomPlus">
                        <use xlink:href="#rim" fill="#404040">
                                <set attributeName="fill" to="#808080" begin="zoomplus.mouseover" end="zoomplus.mouseout"/>
                        </use>
                        <path d="M-4,0h8M0,-4v8" fill="none" stroke="white" stroke-width="1.5" pointer-events="none"/>
                </g>
                <g id="zoomMin">
                        <use xlink:href="#rim" fill="#404040">
                                <set attributeName="fill" to="#808080" begin="zoomminus.mouseover" end="zoomminus.mouseout"/>
                        </use>
                        <path d="M-4,0h8" fill="none" stroke="white" stroke-width="1.5" pointer-events="none"/>
                </g>
                <g id="dirArrow">
                        <path fill="none" stroke="white" stroke-width="1.5" d="M0,-3.0v7 M-2.5,-0.5L0,-3.0L2.5,-0.5"/>
                </g>
               <g id="resetDef">
                       <use xlink:href="#rim2" fill="#404040">
                               <set attributeName="fill" to="#808080" begin="reset.mouseover" end="reset.mouseout"/>
                       </use>
               </g>
        </defs>

<script type="text/javascript">
var viewWidth = 2681;
var viewHeight = 576;
var sectionId = 'dynsection-1';
</script>
<script xlink:href="svgpan.js"/>
<svg id="graph" class="graph">
<g id="viewport">
<title>include/ccf/actors.h</title>
<polygon fill="white" stroke="transparent" points="-4,4 -4,-572 2677.14,-572 2677.14,4 -4,4"/>
<!-- Node1 -->
<g id="node1" class="node">
<title>Node1</title>
<g id="a_node1"><a xlink:title=" ">
<polygon fill="#bfbfbf" stroke="black" points="2190.83,-548.5 2190.83,-567.5 2301.83,-567.5 2301.83,-548.5 2190.83,-548.5"/>
<text text-anchor="middle" x="2246.33" y="-555.5" font-family="Helvetica,sans-Serif" font-size="10.00">include/ccf/actors.h</text>
</a>
</g>
</g>
<!-- Node2 -->
<g id="node2" class="node">
<title>Node2</title>
<g id="a_node2"><a xlink:href="app__interface_8h.html" target="_top" xlink:title=" ">
<polygon fill="white" stroke="black" points="688.33,-375 688.33,-394 836.33,-394 836.33,-375 688.33,-375"/>
<text text-anchor="middle" x="762.33" y="-382" font-family="Helvetica,sans-Serif" font-size="10.00">include/ccf/app_interface.h</text>
</a>
</g>
</g>
<!-- Node1&#45;&gt;Node2 -->
<g id="edge1" class="edge">
<title>Node1&#45;&gt;Node2</title>
<path fill="none" stroke="midnightblue" d="M2180.31,-549.37C1937.08,-521.26 1091.84,-423.58 836.16,-394.03"/>
<polygon fill="midnightblue" stroke="midnightblue" points="2180.08,-552.87 2190.42,-550.54 2180.89,-545.91 2180.08,-552.87"/>
</g>
<!-- Node19 -->
<g id="node19" class="node">
<title>Node19</title>
<g id="a_node19"><a xlink:href="rpc__map_8h.html" target="_top" xlink:title=" ">
<polygon fill="white" stroke="black" points="2062.33,-492.5 2062.33,-511.5 2188.33,-511.5 2188.33,-492.5 2062.33,-492.5"/>
<text text-anchor="middle" x="2125.33" y="-499.5" font-family="Helvetica,sans-Serif" font-size="10.00">src/enclave/rpc_map.h</text>
</a>
</g>
</g>
<!-- Node1&#45;&gt;Node19 -->
<g id="edge22" class="edge">
<title>Node1&#45;&gt;Node19</title>
<path fill="none" stroke="midnightblue" d="M2218.03,-544.37C2195.37,-534.26 2164.21,-520.35 2144.42,-511.52"/>
<polygon fill="midnightblue" stroke="midnightblue" points="2216.6,-547.56 2227.16,-548.44 2219.45,-541.17 2216.6,-547.56"/>
</g>
<!-- Node37 -->
<g id="node37" class="node">
<title>Node37</title>
<g id="a_node37"><a xlink:href="acme__challenge__frontend_8h.html" target="_top" xlink:title=" ">
<polygon fill="white" stroke="black" points="2513.33,-302.5 2513.33,-332.5 2653.33,-332.5 2653.33,-302.5 2513.33,-302.5"/>
<text text-anchor="start" x="2521.33" y="-320.5" font-family="Helvetica,sans-Serif" font-size="10.00">src/node/acme_challenge</text>
<text text-anchor="middle" x="2583.33" y="-309.5" font-family="Helvetica,sans-Serif" font-size="10.00">_frontend.h</text>
</a>
</g>
</g>
<!-- Node1&#45;&gt;Node37 -->
<g id="edge70" class="edge">
<title>Node1&#45;&gt;Node37</title>
<path fill="none" stroke="midnightblue" d="M2311.85,-549.75C2375.37,-539.41 2470.5,-514.64 2529.33,-456 2564.57,-420.88 2577.41,-360.02 2581.57,-332.61"/>
<polygon fill="midnightblue" stroke="midnightblue" points="2311.28,-546.3 2301.94,-551.29 2312.36,-553.22 2311.28,-546.3"/>
</g>
<!-- Node39 -->
<g id="node39" class="node">
<title>Node39</title>
<g id="a_node39"><a xlink:href="http__rpc__context_8h.html" target="_top" xlink:title=" ">
<polygon fill="white" stroke="black" points="2228.83,-492.5 2228.83,-511.5 2375.83,-511.5 2375.83,-492.5 2228.83,-492.5"/>
<text text-anchor="middle" x="2302.33" y="-499.5" font-family="Helvetica,sans-Serif" font-size="10.00">src/http/http_rpc_context.h</text>
</a>
</g>
</g>
<!-- Node1&#45;&gt;Node39 -->
<g id="edge63" class="edge">
<title>Node1&#45;&gt;Node39</title>
<path fill="none" stroke="midnightblue" d="M2262.66,-541.25C2272.6,-531.67 2284.92,-519.79 2293.17,-511.83"/>
<polygon fill="midnightblue" stroke="midnightblue" points="2260.1,-538.86 2255.33,-548.32 2264.96,-543.9 2260.1,-538.86"/>
</g>
<!-- Node3 -->
<g id="node3" class="node">
<title>Node3</title>
<g id="a_node3"><a xlink:href="logging_8cpp.html" target="_top" xlink:title=" ">
<polygon fill="white" stroke="black" points="166.83,-302.5 166.83,-332.5 289.83,-332.5 289.83,-302.5 166.83,-302.5"/>
<text text-anchor="start" x="174.83" y="-320.5" font-family="Helvetica,sans-Serif" font-size="10.00">samples/apps/logging</text>
<text text-anchor="middle" x="228.33" y="-309.5" font-family="Helvetica,sans-Serif" font-size="10.00">/logging.cpp</text>
</a>
</g>
</g>
<!-- Node2&#45;&gt;Node3 -->
<g id="edge2" class="edge">
<title>Node2&#45;&gt;Node3</title>
<path fill="none" stroke="midnightblue" d="M678.08,-376.68C585.05,-368.59 431.01,-353.58 299.33,-333 296.22,-332.51 293.05,-331.99 289.84,-331.43"/>
<polygon fill="midnightblue" stroke="midnightblue" points="678.02,-380.18 688.28,-377.56 678.62,-373.21 678.02,-380.18"/>
</g>
<!-- Node4 -->
<g id="node4" class="node">
<title>Node4</title>
<g id="a_node4"><a xlink:href="nobuiltins_8cpp.html" target="_top" xlink:title=" ">
<polygon fill="white" stroke="black" points="307.83,-302.5 307.83,-332.5 442.83,-332.5 442.83,-302.5 307.83,-302.5"/>
<text text-anchor="start" x="315.83" y="-320.5" font-family="Helvetica,sans-Serif" font-size="10.00">samples/apps/nobuiltins</text>
<text text-anchor="middle" x="375.33" y="-309.5" font-family="Helvetica,sans-Serif" font-size="10.00">/nobuiltins.cpp</text>
</a>
</g>
</g>
<!-- Node2&#45;&gt;Node4 -->
<g id="edge3" class="edge">
<title>Node2&#45;&gt;Node4</title>
<path fill="none" stroke="midnightblue" d="M697.23,-373.37C634.45,-363.49 536.78,-347.83 452.33,-333 449.25,-332.46 446.1,-331.9 442.92,-331.33"/>
<polygon fill="midnightblue" stroke="midnightblue" points="696.96,-376.87 707.39,-374.97 698.05,-369.96 696.96,-376.87"/>
</g>
<!-- Node5 -->
<g id="node5" class="node">
<title>Node5</title>
<g id="a_node5"><a xlink:href="executor__auth__policy_8h.html" target="_top" xlink:title=" ">
<polygon fill="white" stroke="black" points="461.33,-302.5 461.33,-332.5 609.33,-332.5 609.33,-302.5 461.33,-302.5"/>
<text text-anchor="start" x="469.33" y="-320.5" font-family="Helvetica,sans-Serif" font-size="10.00">src/apps/external_executor</text>
<text text-anchor="middle" x="535.33" y="-309.5" font-family="Helvetica,sans-Serif" font-size="10.00">/executor_auth_policy.h</text>
</a>
</g>
</g>
<!-- Node2&#45;&gt;Node5 -->
<g id="edge4" class="edge">
<title>Node2&#45;&gt;Node5</title>
<path fill="none" stroke="midnightblue" d="M722.37,-372.06C683.88,-361.04 625.59,-344.34 584.32,-332.53"/>
<polygon fill="midnightblue" stroke="midnightblue" points="721.61,-375.48 732.19,-374.87 723.54,-368.75 721.61,-375.48"/>
</g>
<!-- Node6 -->
<g id="node6" class="node">
<title>Node6</title>
<g id="a_node6"><a xlink:href="external__executor_8cpp.html" target="_top" xlink:title=" ">
<polygon fill="white" stroke="black" points="512.33,-235.5 512.33,-265.5 660.33,-265.5 660.33,-235.5 512.33,-235.5"/>
<text text-anchor="start" x="520.33" y="-253.5" font-family="Helvetica,sans-Serif" font-size="10.00">src/apps/external_executor</text>
<text text-anchor="middle" x="586.33" y="-242.5" font-family="Helvetica,sans-Serif" font-size="10.00">/external_executor.cpp</text>
</a>
</g>
</g>
<!-- Node2&#45;&gt;Node6 -->
<g id="edge6" class="edge">
<title>Node2&#45;&gt;Node6</title>
<path fill="none" stroke="midnightblue" d="M739.3,-369.6C723.51,-359.82 702.26,-346.18 684.33,-333 654.21,-310.84 621.15,-282.42 602.16,-265.66"/>
<polygon fill="midnightblue" stroke="midnightblue" points="737.55,-372.63 747.9,-374.87 741.21,-366.66 737.55,-372.63"/>
</g>
<!-- Node7 -->
<g id="node7" class="node">
<title>Node7</title>
<g id="a_node7"><a xlink:href="js__generic_8cpp.html" target="_top" xlink:title=" ">
<polygon fill="white" stroke="black" points="797.33,-235.5 797.33,-265.5 907.33,-265.5 907.33,-235.5 797.33,-235.5"/>
<text text-anchor="start" x="805.33" y="-253.5" font-family="Helvetica,sans-Serif" font-size="10.00">src/apps/js_generic</text>
<text text-anchor="middle" x="852.33" y="-242.5" font-family="Helvetica,sans-Serif" font-size="10.00">/js_generic.cpp</text>
</a>
</g>
</g>
<!-- Node2&#45;&gt;Node7 -->
<g id="edge7" class="edge">
<title>Node2&#45;&gt;Node7</title>
<path fill="none" stroke="midnightblue" d="M733.23,-370.03C718.7,-361.62 702.52,-349.27 694.33,-333 688.14,-320.69 686.21,-313.13 694.33,-302 717.68,-270.02 761.53,-257.83 797.12,-253.39"/>
<polygon fill="midnightblue" stroke="midnightblue" points="731.97,-373.33 742.43,-374.99 735.29,-367.17 731.97,-373.33"/>
</g>
<!-- Node8 -->
<g id="node8" class="node">
<title>Node8</title>
<g id="a_node8"><a xlink:href="js__generic__base_8cpp.html" target="_top" xlink:title=" ">
<polygon fill="white" stroke="black" points="703.33,-302.5 703.33,-332.5 821.33,-332.5 821.33,-302.5 703.33,-302.5"/>
<text text-anchor="start" x="711.33" y="-320.5" font-family="Helvetica,sans-Serif" font-size="10.00">src/apps/js_generic</text>
<text text-anchor="middle" x="762.33" y="-309.5" font-family="Helvetica,sans-Serif" font-size="10.00">/js_generic_base.cpp</text>
</a>
</g>
</g>
<!-- Node2&#45;&gt;Node8 -->
<g id="edge8" class="edge">
<title>Node2&#45;&gt;Node8</title>
<path fill="none" stroke="midnightblue" d="M762.33,-364.41C762.33,-354.22 762.33,-341.9 762.33,-332.59"/>
<polygon fill="midnightblue" stroke="midnightblue" points="758.83,-364.73 762.33,-374.73 765.83,-364.73 758.83,-364.73"/>
</g>
<!-- Node9 -->
<g id="node9" class="node">
<title>Node9</title>
<g id="a_node9"><a xlink:href="js__generic__base_8h.html" target="_top" xlink:title=" ">
<polygon fill="white" stroke="black" points="839.33,-302.5 839.33,-332.5 949.33,-332.5 949.33,-302.5 839.33,-302.5"/>
<text text-anchor="start" x="847.33" y="-320.5" font-family="Helvetica,sans-Serif" font-size="10.00">src/apps/js_generic</text>
<text text-anchor="middle" x="894.33" y="-309.5" font-family="Helvetica,sans-Serif" font-size="10.00">/js_generic_base.h</text>
</a>
</g>
</g>
<!-- Node2&#45;&gt;Node9 -->
<g id="edge9" class="edge">
<title>Node2&#45;&gt;Node9</title>
<path fill="none" stroke="midnightblue" d="M789.05,-370.34C811.27,-359.4 842.83,-343.86 865.59,-332.65"/>
<polygon fill="midnightblue" stroke="midnightblue" points="787.29,-367.31 779.86,-374.87 790.38,-373.59 787.29,-367.31"/>
</g>
<!-- Node10 -->
<g id="node10" class="node">
<title>Node10</title>
<g id="a_node10"><a xlink:href="js__v8_8cpp.html" target="_top" xlink:title=" ">
<polygon fill="white" stroke="black" points="951.33,-241 951.33,-260 1085.33,-260 1085.33,-241 951.33,-241"/>
<text text-anchor="middle" x="1018.33" y="-248" font-family="Helvetica,sans-Serif" font-size="10.00">src/apps/js_v8/js_v8.cpp</text>
</a>
</g>
</g>
<!-- Node2&#45;&gt;Node10 -->
<g id="edge11" class="edge">
<title>Node2&#45;&gt;Node10</title>
<path fill="none" stroke="midnightblue" d="M846.79,-374.62C883.47,-367.65 925.46,-355.21 958.33,-333 986.58,-313.92 1006.47,-276.95 1014.45,-260.17"/>
<polygon fill="midnightblue" stroke="midnightblue" points="845.83,-371.24 836.6,-376.44 847.06,-378.13 845.83,-371.24"/>
</g>
<!-- Node11 -->
<g id="node11" class="node">
<title>Node11</title>
<g id="a_node11"><a xlink:href="js__v8__base_8cpp.html" target="_top" xlink:title=" ">
<polygon fill="white" stroke="black" points="1005.33,-302.5 1005.33,-332.5 1119.33,-332.5 1119.33,-302.5 1005.33,-302.5"/>
<text text-anchor="start" x="1013.33" y="-320.5" font-family="Helvetica,sans-Serif" font-size="10.00">src/apps/js_v8/js_v8</text>
<text text-anchor="middle" x="1062.33" y="-309.5" font-family="Helvetica,sans-Serif" font-size="10.00">_base.cpp</text>
</a>
</g>
</g>
<!-- Node2&#45;&gt;Node11 -->
<g id="edge12" class="edge">
<title>Node2&#45;&gt;Node11</title>
<path fill="none" stroke="midnightblue" d="M811.73,-372.8C864.89,-361.28 949.31,-342.99 1005.27,-330.86"/>
<polygon fill="midnightblue" stroke="midnightblue" points="810.89,-369.4 801.86,-374.94 812.37,-376.24 810.89,-369.4"/>
</g>
<!-- Node12 -->
<g id="node12" class="node">
<title>Node12</title>
<g id="a_node12"><a xlink:href="js__v8__base_8h.html" target="_top" xlink:title=" ">
<polygon fill="white" stroke="black" points="1137.33,-302.5 1137.33,-332.5 1251.33,-332.5 1251.33,-302.5 1137.33,-302.5"/>
<text text-anchor="start" x="1145.33" y="-320.5" font-family="Helvetica,sans-Serif" font-size="10.00">src/apps/js_v8/js_v8</text>
<text text-anchor="middle" x="1194.33" y="-309.5" font-family="Helvetica,sans-Serif" font-size="10.00">_base.h</text>
</a>
</g>
</g>
<!-- Node2&#45;&gt;Node12 -->
<g id="edge13" class="edge">
<title>Node2&#45;&gt;Node12</title>
<path fill="none" stroke="midnightblue" d="M846.8,-373.77C921.18,-364.75 1032.29,-350.15 1128.33,-333 1131.22,-332.48 1134.17,-331.93 1137.15,-331.35"/>
<polygon fill="midnightblue" stroke="midnightblue" points="846.07,-370.33 836.56,-375.01 846.91,-377.28 846.07,-370.33"/>
</g>
<!-- Node13 -->
<g id="node13" class="node">
<title>Node13</title>
<g id="a_node13"><a xlink:href="tpcc_8cpp.html" target="_top" xlink:title=" ">
<polygon fill="white" stroke="black" points="1269.83,-308 1269.83,-327 1414.83,-327 1414.83,-308 1269.83,-308"/>
<text text-anchor="middle" x="1342.33" y="-315" font-family="Helvetica,sans-Serif" font-size="10.00">src/apps/tpcc/app/tpcc.cpp</text>
</a>
</g>
</g>
<!-- Node2&#45;&gt;Node13 -->
<g id="edge15" class="edge">
<title>Node2&#45;&gt;Node13</title>
<path fill="none" stroke="midnightblue" d="M846.63,-376.87C945.85,-368.61 1115.47,-353.12 1260.33,-333 1272.5,-331.31 1285.63,-329.14 1297.74,-327"/>
<polygon fill="midnightblue" stroke="midnightblue" points="846.04,-373.4 836.36,-377.71 846.62,-380.38 846.04,-373.4"/>
</g>
<!-- Node14 -->
<g id="node14" class="node">
<title>Node14</title>
<g id="a_node14"><a xlink:href="src_2enclave_2enclave_8h.html" target="_top" xlink:title=" ">
<polygon fill="white" stroke="black" points="1748.33,-56.5 1748.33,-75.5 1870.33,-75.5 1870.33,-56.5 1748.33,-56.5"/>
<text text-anchor="middle" x="1809.33" y="-63.5" font-family="Helvetica,sans-Serif" font-size="10.00">src/enclave/enclave.h</text>
</a>
</g>
</g>
<!-- Node2&#45;&gt;Node14 -->
<g id="edge16" class="edge">
<title>Node2&#45;&gt;Node14</title>
<path fill="none" stroke="midnightblue" d="M678.1,-383.3C494.44,-382.09 70.4,-374.74 21.33,-333 -7,-308.9 2.33,-288.69 2.33,-251.5 2.33,-251.5 2.33,-251.5 2.33,-182.5 2.33,-93.01 1432.53,-71.33 1748.17,-67.64"/>
<polygon fill="midnightblue" stroke="midnightblue" points="678.23,-386.8 688.25,-383.36 678.28,-379.8 678.23,-386.8"/>
</g>
<!-- Node16 -->
<g id="node16" class="node">
<title>Node16</title>
<g id="a_node16"><a xlink:href="no__plugins_8cpp.html" target="_top" xlink:title=" ">
<polygon fill="white" stroke="black" points="30.33,-308 30.33,-327 148.33,-327 148.33,-308 30.33,-308"/>
<text text-anchor="middle" x="89.33" y="-315" font-family="Helvetica,sans-Serif" font-size="10.00">src/js/no_plugins.cpp</text>
</a>
</g>
</g>
<!-- Node2&#45;&gt;Node16 -->
<g id="edge18" class="edge">
<title>Node2&#45;&gt;Node16</title>
<path fill="none" stroke="midnightblue" d="M677.75,-379.73C560.59,-373.77 342.53,-359.95 158.33,-333 147.67,-331.44 136.19,-329.24 125.71,-327.02"/>
<polygon fill="midnightblue" stroke="midnightblue" points="677.91,-383.25 688.08,-380.25 678.26,-376.26 677.91,-383.25"/>
</g>
<!-- Node18 -->
<g id="node18" class="node">
<title>Node18</title>
<g id="a_node18"><a xlink:href="user__frontend_8h.html" target="_top" xlink:title=" ">
<polygon fill="white" stroke="black" points="1471.83,-308 1471.83,-327 1626.83,-327 1626.83,-308 1471.83,-308"/>
<text text-anchor="middle" x="1549.33" y="-315" font-family="Helvetica,sans-Serif" font-size="10.00">src/node/rpc/user_frontend.h</text>
</a>
</g>
</g>
<!-- Node2&#45;&gt;Node18 -->
<g id="edge20" class="edge">
<title>Node2&#45;&gt;Node18</title>
<path fill="none" stroke="midnightblue" d="M846.71,-378.13C972.61,-369.88 1217.04,-352.92 1424.33,-333 1442.49,-331.25 1462.1,-329.11 1480.29,-327"/>
<polygon fill="midnightblue" stroke="midnightblue" points="846.13,-374.66 836.38,-378.81 846.59,-381.65 846.13,-374.66"/>
</g>
<!-- Node5&#45;&gt;Node6 -->
<g id="edge5" class="edge">
<title>Node5&#45;&gt;Node6</title>
<path fill="none" stroke="midnightblue" d="M552.64,-294.45C560.13,-284.9 568.68,-274 575.29,-265.58"/>
<polygon fill="midnightblue" stroke="midnightblue" points="549.82,-292.37 546.4,-302.4 555.33,-296.69 549.82,-292.37"/>
</g>
<!-- Node9&#45;&gt;Node7 -->
<g id="edge10" class="edge">
<title>Node9&#45;&gt;Node7</title>
<path fill="none" stroke="midnightblue" d="M879.71,-293.87C873.63,-284.46 866.76,-273.83 861.43,-265.58"/>
<polygon fill="midnightblue" stroke="midnightblue" points="876.85,-295.9 885.22,-302.4 882.73,-292.1 876.85,-295.9"/>
</g>
<!-- Node12&#45;&gt;Node10 -->
<g id="edge14" class="edge">
<title>Node12&#45;&gt;Node10</title>
<path fill="none" stroke="midnightblue" d="M1146.36,-298.78C1112.24,-286.18 1067.91,-269.81 1041.37,-260.01"/>
<polygon fill="midnightblue" stroke="midnightblue" points="1145.55,-302.21 1156.14,-302.4 1147.97,-295.65 1145.55,-302.21"/>
</g>
<!-- Node15 -->
<g id="node15" class="node">
<title>Node15</title>
<g id="a_node15"><a xlink:href="enclave_2main_8cpp.html" target="_top" xlink:title=" ">
<polygon fill="white" stroke="black" points="1749.33,-0.5 1749.33,-19.5 1869.33,-19.5 1869.33,-0.5 1749.33,-0.5"/>
<text text-anchor="middle" x="1809.33" y="-7.5" font-family="Helvetica,sans-Serif" font-size="10.00">src/enclave/main.cpp</text>
</a>
</g>
</g>
<!-- Node14&#45;&gt;Node15 -->
<g id="edge17" class="edge">
<title>Node14&#45;&gt;Node15</title>
<path fill="none" stroke="midnightblue" d="M1809.33,-45.8C1809.33,-36.91 1809.33,-26.78 1809.33,-19.75"/>
<polygon fill="midnightblue" stroke="midnightblue" points="1805.83,-46.08 1809.33,-56.08 1812.83,-46.08 1805.83,-46.08"/>
</g>
<!-- Node17 -->
<g id="node17" class="node">
<title>Node17</title>
<g id="a_node17"><a xlink:href="wrap_8cpp.html" target="_top" xlink:title=" ">
<polygon fill="white" stroke="black" points="44.83,-241 44.83,-260 133.83,-260 133.83,-241 44.83,-241"/>
<text text-anchor="middle" x="89.33" y="-248" font-family="Helvetica,sans-Serif" font-size="10.00">src/js/wrap.cpp</text>
</a>
</g>
</g>
<!-- Node16&#45;&gt;Node17 -->
<g id="edge19" class="edge">
<title>Node16&#45;&gt;Node17</title>
<path fill="none" stroke="midnightblue" d="M89.33,-297.54C89.33,-285.17 89.33,-269.62 89.33,-260.13"/>
<polygon fill="midnightblue" stroke="midnightblue" points="85.83,-297.73 89.33,-307.73 92.83,-297.73 85.83,-297.73"/>
</g>
<!-- Node18&#45;&gt;Node14 -->
<g id="edge21" class="edge">
<title>Node18&#45;&gt;Node14</title>
<path fill="none" stroke="midnightblue" d="M1552.23,-297.97C1559.5,-257.77 1582.37,-162.16 1641.33,-112 1671,-86.76 1713.43,-75.53 1748.22,-70.6"/>
<polygon fill="midnightblue" stroke="midnightblue" points="1548.75,-297.51 1550.54,-307.95 1555.66,-298.68 1548.75,-297.51"/>
</g>
<!-- Node19&#45;&gt;Node14 -->
<g id="edge23" class="edge">
<title>Node19&#45;&gt;Node14</title>
<path fill="none" stroke="midnightblue" d="M2051.87,-496.19C1875.62,-483.66 1443.33,-446.69 1443.33,-385.5 1443.33,-385.5 1443.33,-385.5 1443.33,-182.5 1443.33,-119.37 1643.88,-86.41 1748.07,-73.55"/>
<polygon fill="midnightblue" stroke="midnightblue" points="2051.87,-499.69 2062.09,-496.91 2052.36,-492.71 2051.87,-499.69"/>
</g>
<!-- Node20 -->
<g id="node20" class="node">
<title>Node20</title>
<g id="a_node20"><a xlink:href="http2__endpoint_8h.html" target="_top" xlink:title=" ">
<polygon fill="white" stroke="black" points="2352.83,-375 2352.83,-394 2491.83,-394 2491.83,-375 2352.83,-375"/>
<text text-anchor="middle" x="2422.33" y="-382" font-family="Helvetica,sans-Serif" font-size="10.00">src/http/http2_endpoint.h</text>
</a>
</g>
</g>
<!-- Node19&#45;&gt;Node20 -->
<g id="edge24" class="edge">
<title>Node19&#45;&gt;Node20</title>
<path fill="none" stroke="midnightblue" d="M2186.5,-490.42C2222.02,-483.12 2267.16,-471.86 2305.33,-456 2346.51,-438.9 2390.31,-408.89 2410.67,-394.16"/>
<polygon fill="midnightblue" stroke="midnightblue" points="2185.39,-487.07 2176.28,-492.46 2186.77,-493.93 2185.39,-487.07"/>
</g>
<!-- Node27 -->
<g id="node27" class="node">
<title>Node27</title>
<g id="a_node27"><a xlink:href="http__endpoint_8h.html" target="_top" xlink:title=" ">
<polygon fill="white" stroke="black" points="2162.83,-436.5 2162.83,-455.5 2295.83,-455.5 2295.83,-436.5 2162.83,-436.5"/>
<text text-anchor="middle" x="2229.33" y="-443.5" font-family="Helvetica,sans-Serif" font-size="10.00">src/http/http_endpoint.h</text>
</a>
</g>
</g>
<!-- Node19&#45;&gt;Node27 -->
<g id="edge37" class="edge">
<title>Node19&#45;&gt;Node27</title>
<path fill="none" stroke="midnightblue" d="M2151.16,-487.59C2170.39,-477.61 2196.08,-464.27 2212.66,-455.65"/>
<polygon fill="midnightblue" stroke="midnightblue" points="2149.3,-484.61 2142.04,-492.32 2152.53,-490.82 2149.3,-484.61"/>
</g>
<!-- Node28 -->
<g id="node28" class="node">
<title>Node28</title>
<g id="a_node28"><a xlink:href="node__client_8h.html" target="_top" xlink:title=" ">
<polygon fill="white" stroke="black" points="2018.33,-436.5 2018.33,-455.5 2144.33,-455.5 2144.33,-436.5 2018.33,-436.5"/>
<text text-anchor="middle" x="2081.33" y="-443.5" font-family="Helvetica,sans-Serif" font-size="10.00">src/node/node_client.h</text>
</a>
</g>
</g>
<!-- Node19&#45;&gt;Node28 -->
<g id="edge39" class="edge">
<title>Node19&#45;&gt;Node28</title>
<path fill="none" stroke="midnightblue" d="M2111.6,-484.14C2103.93,-474.74 2094.7,-463.4 2088.46,-455.75"/>
<polygon fill="midnightblue" stroke="midnightblue" points="2109.04,-486.54 2118.07,-492.08 2114.46,-482.12 2109.04,-486.54"/>
</g>
<!-- Node35 -->
<g id="node35" class="node">
<title>Node35</title>
<g id="a_node35"><a xlink:href="forwarder_8h.html" target="_top" xlink:title=" ">
<polygon fill="white" stroke="black" points="1771.33,-436.5 1771.33,-455.5 1905.33,-455.5 1905.33,-436.5 1771.33,-436.5"/>
<text text-anchor="middle" x="1838.33" y="-443.5" font-family="Helvetica,sans-Serif" font-size="10.00">src/node/rpc/forwarder.h</text>
</a>
</g>
</g>
<!-- Node19&#45;&gt;Node35 -->
<g id="edge52" class="edge">
<title>Node19&#45;&gt;Node35</title>
<path fill="none" stroke="midnightblue" d="M2069.72,-490.54C2015.48,-480.33 1933.99,-465 1883.6,-455.52"/>
<polygon fill="midnightblue" stroke="midnightblue" points="2069.38,-494.03 2079.86,-492.44 2070.68,-487.15 2069.38,-494.03"/>
</g>
<!-- Node21 -->
<g id="node21" class="node">
<title>Node21</title>
<g id="a_node21"><a xlink:href="rpc__sessions_8h.html" target="_top" xlink:title=" ">
<polygon fill="white" stroke="black" points="2349.33,-308 2349.33,-327 2495.33,-327 2495.33,-308 2349.33,-308"/>
<text text-anchor="middle" x="2422.33" y="-315" font-family="Helvetica,sans-Serif" font-size="10.00">src/enclave/rpc_sessions.h</text>
</a>
</g>
</g>
<!-- Node20&#45;&gt;Node21 -->
<g id="edge25" class="edge">
<title>Node20&#45;&gt;Node21</title>
<path fill="none" stroke="midnightblue" d="M2422.33,-364.54C2422.33,-352.17 2422.33,-336.62 2422.33,-327.13"/>
<polygon fill="midnightblue" stroke="midnightblue" points="2418.83,-364.73 2422.33,-374.73 2425.83,-364.73 2418.83,-364.73"/>
</g>
<!-- Node21&#45;&gt;Node14 -->
<g id="edge26" class="edge">
<title>Node21&#45;&gt;Node14</title>
<path fill="none" stroke="midnightblue" d="M2439.91,-300.73C2456.9,-283.55 2477.96,-255.74 2462.33,-235 2390.55,-139.68 2018.95,-89.63 1870.6,-73.2"/>
<polygon fill="midnightblue" stroke="midnightblue" points="2437.32,-298.36 2432.53,-307.81 2442.17,-303.41 2437.32,-298.36"/>
</g>
<!-- Node22 -->
<g id="node22" class="node">
<title>Node22</title>
<g id="a_node22"><a xlink:href="ccf__acme__client_8h.html" target="_top" xlink:title=" ">
<polygon fill="white" stroke="black" points="2508.83,-241 2508.83,-260 2657.83,-260 2657.83,-241 2508.83,-241"/>
<text text-anchor="middle" x="2583.33" y="-248" font-family="Helvetica,sans-Serif" font-size="10.00">src/node/ccf_acme_client.h</text>
</a>
</g>
</g>
<!-- Node21&#45;&gt;Node22 -->
<g id="edge27" class="edge">
<title>Node21&#45;&gt;Node22</title>
<path fill="none" stroke="midnightblue" d="M2453.04,-304.1C2485,-291.2 2534.22,-271.33 2562.12,-260.06"/>
<polygon fill="midnightblue" stroke="midnightblue" points="2451.67,-300.88 2443.71,-307.87 2454.3,-307.37 2451.67,-300.88"/>
</g>
<!-- Node23 -->
<g id="node23" class="node">
<title>Node23</title>
<g id="a_node23"><a xlink:href="node__state_8h.html" target="_top" xlink:title=" ">
<polygon fill="white" stroke="black" points="1973.33,-174 1973.33,-193 2097.33,-193 2097.33,-174 1973.33,-174"/>
<text text-anchor="middle" x="2035.33" y="-181" font-family="Helvetica,sans-Serif" font-size="10.00">src/node/node_state.h</text>
</a>
</g>
</g>
<!-- Node21&#45;&gt;Node23 -->
<g id="edge32" class="edge">
<title>Node21&#45;&gt;Node23</title>
<path fill="none" stroke="midnightblue" d="M2361.93,-306.23C2283.69,-292.82 2156.09,-270.51 2146.33,-266 2126.54,-256.86 2125.75,-248.1 2108.33,-235 2087.89,-219.63 2063.26,-202.96 2048.47,-193.14"/>
<polygon fill="midnightblue" stroke="midnightblue" points="2361.71,-309.75 2372.16,-307.98 2362.89,-302.85 2361.71,-309.75"/>
</g>
<!-- Node25 -->
<g id="node25" class="node">
<title>Node25</title>
<g id="a_node25"><a xlink:href="quote__endorsements__client_8h.html" target="_top" xlink:title=" ">
<polygon fill="white" stroke="black" points="2155.33,-235.5 2155.33,-265.5 2319.33,-265.5 2319.33,-235.5 2155.33,-235.5"/>
<text text-anchor="start" x="2163.33" y="-253.5" font-family="Helvetica,sans-Serif" font-size="10.00">src/node/quote_endorsements</text>
<text text-anchor="middle" x="2237.33" y="-242.5" font-family="Helvetica,sans-Serif" font-size="10.00">_client.h</text>
</a>
</g>
</g>
<!-- Node21&#45;&gt;Node25 -->
<g id="edge33" class="edge">
<title>Node21&#45;&gt;Node25</title>
<path fill="none" stroke="midnightblue" d="M2388.15,-304.49C2356.79,-293.47 2310.32,-277.14 2277.26,-265.53"/>
<polygon fill="midnightblue" stroke="midnightblue" points="2387.17,-307.86 2397.77,-307.87 2389.49,-301.25 2387.17,-307.86"/>
</g>
<!-- Node26 -->
<g id="node26" class="node">
<title>Node26</title>
<g id="a_node26"><a xlink:href="resharing_8h.html" target="_top" xlink:title=" ">
<polygon fill="white" stroke="black" points="2337.33,-241 2337.33,-260 2453.33,-260 2453.33,-241 2337.33,-241"/>
<text text-anchor="middle" x="2395.33" y="-248" font-family="Helvetica,sans-Serif" font-size="10.00">src/node/resharing.h</text>
</a>
</g>
</g>
<!-- Node21&#45;&gt;Node26 -->
<g id="edge35" class="edge">
<title>Node21&#45;&gt;Node26</title>
<path fill="none" stroke="midnightblue" d="M2414.77,-298.29C2409.58,-285.81 2402.94,-269.81 2398.92,-260.13"/>
<polygon fill="midnightblue" stroke="midnightblue" points="2411.62,-299.84 2418.69,-307.73 2418.09,-297.16 2411.62,-299.84"/>
</g>
<!-- Node22&#45;&gt;Node23 -->
<g id="edge28" class="edge">
<title>Node22&#45;&gt;Node23</title>
<path fill="none" stroke="midnightblue" d="M2502.21,-239.76C2488.89,-238.17 2475.22,-236.53 2462.33,-235 2332.61,-219.56 2180.71,-201.63 2097.57,-191.83"/>
<polygon fill="midnightblue" stroke="midnightblue" points="2501.97,-243.26 2512.31,-240.97 2502.8,-236.31 2501.97,-243.26"/>
</g>
<!-- Node23&#45;&gt;Node14 -->
<g id="edge29" class="edge">
<title>Node23&#45;&gt;Node14</title>
<path fill="none" stroke="midnightblue" d="M2034.77,-163.36C2033.25,-147.38 2028.49,-125.15 2014.33,-112 1993.68,-92.81 1923.09,-80.38 1870.48,-73.54"/>
<polygon fill="midnightblue" stroke="midnightblue" points="2031.3,-163.91 2035.4,-173.68 2038.28,-163.49 2031.3,-163.91"/>
</g>
<!-- Node24 -->
<g id="node24" class="node">
<title>Node24</title>
<g id="a_node24"><a xlink:href="gov__effects_8h.html" target="_top" xlink:title=" ">
<polygon fill="white" stroke="black" points="1861.33,-112.5 1861.33,-131.5 2005.33,-131.5 2005.33,-112.5 1861.33,-112.5"/>
<text text-anchor="middle" x="1933.33" y="-119.5" font-family="Helvetica,sans-Serif" font-size="10.00">src/node/rpc/gov_effects.h</text>
</a>
</g>
</g>
<!-- Node23&#45;&gt;Node24 -->
<g id="edge30" class="edge">
<title>Node23&#45;&gt;Node24</title>
<path fill="none" stroke="midnightblue" d="M2012.02,-168.9C1992.3,-157.4 1964.65,-141.27 1947.92,-131.51"/>
<polygon fill="midnightblue" stroke="midnightblue" points="2010.32,-171.96 2020.72,-173.98 2013.84,-165.91 2010.32,-171.96"/>
</g>
<!-- Node24&#45;&gt;Node14 -->
<g id="edge31" class="edge">
<title>Node24&#45;&gt;Node14</title>
<path fill="none" stroke="midnightblue" d="M1904.32,-108.37C1881.1,-98.26 1849.17,-84.35 1828.89,-75.52"/>
<polygon fill="midnightblue" stroke="midnightblue" points="1903.12,-111.66 1913.68,-112.44 1905.91,-105.24 1903.12,-111.66"/>
</g>
<!-- Node25&#45;&gt;Node23 -->
<g id="edge34" class="edge">
<title>Node25&#45;&gt;Node23</title>
<path fill="none" stroke="midnightblue" d="M2183.78,-232.27C2144.42,-219.6 2092.62,-202.93 2061.77,-193.01"/>
<polygon fill="midnightblue" stroke="midnightblue" points="2182.91,-235.66 2193.5,-235.4 2185.05,-229 2182.91,-235.66"/>
</g>
<!-- Node26&#45;&gt;Node23 -->
<g id="edge36" class="edge">
<title>Node26&#45;&gt;Node23</title>
<path fill="none" stroke="midnightblue" d="M2347.26,-238.84C2340.9,-237.5 2334.47,-236.19 2328.33,-235 2244.98,-218.8 2147.77,-202.57 2088.92,-193.04"/>
<polygon fill="midnightblue" stroke="midnightblue" points="2346.62,-242.28 2357.12,-240.94 2348.07,-235.43 2346.62,-242.28"/>
</g>
<!-- Node27&#45;&gt;Node21 -->
<g id="edge38" class="edge">
<title>Node27&#45;&gt;Node21</title>
<path fill="none" stroke="midnightblue" d="M2250.78,-430.74C2273.84,-415.42 2311.62,-390.4 2344.33,-369 2367.01,-354.16 2393.52,-337.05 2409.06,-327.04"/>
<polygon fill="midnightblue" stroke="midnightblue" points="2248.81,-427.85 2242.41,-436.3 2252.68,-433.68 2248.81,-427.85"/>
</g>
<!-- Node29 -->
<g id="node29" class="node">
<title>Node29</title>
<g id="a_node29"><a xlink:href="orc__requests_8h.html" target="_top" xlink:title=" ">
<polygon fill="white" stroke="black" points="1954.83,-369.5 1954.83,-399.5 2073.83,-399.5 2073.83,-369.5 1954.83,-369.5"/>
<text text-anchor="start" x="1962.83" y="-387.5" font-family="Helvetica,sans-Serif" font-size="10.00">src/consensus/aft/orc</text>
<text text-anchor="middle" x="2014.33" y="-376.5" font-family="Helvetica,sans-Serif" font-size="10.00">_requests.h</text>
</a>
</g>
</g>
<!-- Node28&#45;&gt;Node29 -->
<g id="edge40" class="edge">
<title>Node28&#45;&gt;Node29</title>
<path fill="none" stroke="midnightblue" d="M2064.04,-429.65C2053.57,-420.35 2040.31,-408.57 2030.12,-399.52"/>
<polygon fill="midnightblue" stroke="midnightblue" points="2061.93,-432.45 2071.73,-436.48 2066.58,-427.22 2061.93,-432.45"/>
</g>
<!-- Node30 -->
<g id="node30" class="node">
<title>Node30</title>
<g id="a_node30"><a xlink:href="raft_8h.html" target="_top" xlink:title=" ">
<polygon fill="white" stroke="black" points="2021.83,-308 2021.83,-327 2150.83,-327 2150.83,-308 2021.83,-308"/>
<text text-anchor="middle" x="2086.33" y="-315" font-family="Helvetica,sans-Serif" font-size="10.00">src/consensus/aft/raft.h</text>
</a>
</g>
</g>
<!-- Node28&#45;&gt;Node30 -->
<g id="edge47" class="edge">
<title>Node28&#45;&gt;Node30</title>
<path fill="none" stroke="midnightblue" d="M2082.2,-426.2C2082.56,-418.13 2082.98,-408.6 2083.33,-400 2084.41,-373.4 2085.52,-341.92 2086.04,-327.07"/>
<polygon fill="midnightblue" stroke="midnightblue" points="2078.7,-426.22 2081.74,-436.37 2085.69,-426.54 2078.7,-426.22"/>
</g>
<!-- Node33 -->
<g id="node33" class="node">
<title>Node33</title>
<g id="a_node33"><a xlink:href="http__node__client_8h.html" target="_top" xlink:title=" ">
<polygon fill="white" stroke="black" points="1826.33,-369.5 1826.33,-399.5 1936.33,-399.5 1936.33,-369.5 1826.33,-369.5"/>
<text text-anchor="start" x="1834.33" y="-387.5" font-family="Helvetica,sans-Serif" font-size="10.00">src/node/http_node</text>
<text text-anchor="middle" x="1881.33" y="-376.5" font-family="Helvetica,sans-Serif" font-size="10.00">_client.h</text>
</a>
</g>
</g>
<!-- Node28&#45;&gt;Node33 -->
<g id="edge48" class="edge">
<title>Node28&#45;&gt;Node33</title>
<path fill="none" stroke="midnightblue" d="M2043.04,-433.61C2010.42,-423.9 1963.4,-409.92 1928.47,-399.52"/>
<polygon fill="midnightblue" stroke="midnightblue" points="2042.09,-436.98 2052.68,-436.48 2044.09,-430.27 2042.09,-436.98"/>
</g>
<!-- Node34 -->
<g id="node34" class="node">
<title>Node34</title>
<g id="a_node34"><a xlink:href="retired__nodes__cleanup_8h.html" target="_top" xlink:title=" ">
<polygon fill="white" stroke="black" points="2130.33,-369.5 2130.33,-399.5 2258.33,-399.5 2258.33,-369.5 2130.33,-369.5"/>
<text text-anchor="start" x="2138.33" y="-387.5" font-family="Helvetica,sans-Serif" font-size="10.00">src/node/retired_nodes</text>
<text text-anchor="middle" x="2194.33" y="-376.5" font-family="Helvetica,sans-Serif" font-size="10.00">_cleanup.h</text>
</a>
</g>
</g>
<!-- Node28&#45;&gt;Node34 -->
<g id="edge50" class="edge">
<title>Node28&#45;&gt;Node34</title>
<path fill="none" stroke="midnightblue" d="M2106.39,-431.81C2124.58,-422.23 2149.15,-409.29 2167.7,-399.52"/>
<polygon fill="midnightblue" stroke="midnightblue" points="2104.74,-428.72 2097.52,-436.48 2108,-434.91 2104.74,-428.72"/>
</g>
<!-- Node29&#45;&gt;Node30 -->
<g id="edge41" class="edge">
<title>Node29&#45;&gt;Node30</title>
<path fill="none" stroke="midnightblue" d="M2037.4,-362.67C2050.7,-350.67 2066.7,-336.22 2076.7,-327.19"/>
<polygon fill="midnightblue" stroke="midnightblue" points="2035.03,-360.1 2029.96,-369.4 2039.72,-365.29 2035.03,-360.1"/>
</g>
<!-- Node31 -->
<g id="node31" class="node">
<title>Node31</title>
<g id="a_node31"><a xlink:href="node__frontend_8h.html" target="_top" xlink:title=" ">
<polygon fill="white" stroke="black" points="1790.33,-308 1790.33,-327 1948.33,-327 1948.33,-308 1790.33,-308"/>
<text text-anchor="middle" x="1869.33" y="-315" font-family="Helvetica,sans-Serif" font-size="10.00">src/node/rpc/node_frontend.h</text>
</a>
</g>
</g>
<!-- Node29&#45;&gt;Node31 -->
<g id="edge43" class="edge">
<title>Node29&#45;&gt;Node31</title>
<path fill="none" stroke="midnightblue" d="M1973.72,-365.3C1945.76,-352.76 1909.89,-336.68 1888.31,-327.01"/>
<polygon fill="midnightblue" stroke="midnightblue" points="1972.31,-368.5 1982.87,-369.4 1975.18,-362.11 1972.31,-368.5"/>
</g>
<!-- Node30&#45;&gt;Node23 -->
<g id="edge42" class="edge">
<title>Node30&#45;&gt;Node23</title>
<path fill="none" stroke="midnightblue" d="M2022.68,-305C2000.74,-297.65 1978.42,-285.64 1965.33,-266 1957.69,-254.53 1959.06,-247.27 1965.33,-235 1975.57,-214.99 1997.84,-201.09 2014.53,-193.01"/>
<polygon fill="midnightblue" stroke="midnightblue" points="2021.78,-308.38 2032.37,-307.96 2023.83,-301.69 2021.78,-308.38"/>
</g>
<!-- Node31&#45;&gt;Node14 -->
<g id="edge44" class="edge">
<title>Node31&#45;&gt;Node14</title>
<path fill="none" stroke="midnightblue" d="M1864.92,-298.16C1852.91,-248.21 1819.96,-111.17 1811.39,-75.55"/>
<polygon fill="midnightblue" stroke="midnightblue" points="1861.53,-299.01 1867.27,-307.91 1868.33,-297.37 1861.53,-299.01"/>
</g>
<!-- Node32 -->
<g id="node32" class="node">
<title>Node32</title>
<g id="a_node32"><a xlink:href="jwt__key__auto__refresh_8h.html" target="_top" xlink:title=" ">
<polygon fill="white" stroke="black" points="1973.83,-235.5 1973.83,-265.5 2098.83,-265.5 2098.83,-235.5 1973.83,-235.5"/>
<text text-anchor="start" x="1981.83" y="-253.5" font-family="Helvetica,sans-Serif" font-size="10.00">src/node/jwt_key_auto</text>
<text text-anchor="middle" x="2036.33" y="-242.5" font-family="Helvetica,sans-Serif" font-size="10.00">_refresh.h</text>
</a>
</g>
</g>
<!-- Node31&#45;&gt;Node32 -->
<g id="edge45" class="edge">
<title>Node31&#45;&gt;Node32</title>
<path fill="none" stroke="midnightblue" d="M1900.93,-304.2C1929.23,-293.19 1970.71,-277.04 2000.29,-265.53"/>
<polygon fill="midnightblue" stroke="midnightblue" points="1899.56,-300.98 1891.51,-307.87 1902.1,-307.5 1899.56,-300.98"/>
</g>
<!-- Node32&#45;&gt;Node23 -->
<g id="edge46" class="edge">
<title>Node32&#45;&gt;Node23</title>
<path fill="none" stroke="midnightblue" d="M2035.96,-225.25C2035.79,-214.02 2035.59,-201.38 2035.47,-193.19"/>
<polygon fill="midnightblue" stroke="midnightblue" points="2032.46,-225.45 2036.12,-235.4 2039.46,-225.34 2032.46,-225.45"/>
</g>
<!-- Node33&#45;&gt;Node23 -->
<g id="edge49" class="edge">
<title>Node33&#45;&gt;Node23</title>
<path fill="none" stroke="midnightblue" d="M1925.24,-364.46C1937.91,-356.65 1950.22,-346.27 1957.33,-333 1977.92,-294.61 1934.3,-273.15 1955.33,-235 1966.75,-214.29 1990.64,-200.9 2009.35,-193.15"/>
<polygon fill="midnightblue" stroke="midnightblue" points="1923.43,-361.46 1916.47,-369.45 1926.89,-367.54 1923.43,-361.46"/>
</g>
<!-- Node34&#45;&gt;Node30 -->
<g id="edge51" class="edge">
<title>Node34&#45;&gt;Node30</title>
<path fill="none" stroke="midnightblue" d="M2162.17,-364.14C2141.64,-351.79 2116.05,-336.39 2100.47,-327.01"/>
<polygon fill="midnightblue" stroke="midnightblue" points="2160.53,-367.24 2170.9,-369.4 2164.13,-361.24 2160.53,-367.24"/>
</g>
<!-- Node35&#45;&gt;Node14 -->
<g id="edge53" class="edge">
<title>Node35&#45;&gt;Node14</title>
<path fill="none" stroke="midnightblue" d="M1769.54,-434.65C1729.14,-427.09 1683.48,-415.46 1670.33,-400 1627.35,-349.47 1655.33,-317.84 1655.33,-251.5 1655.33,-251.5 1655.33,-251.5 1655.33,-182.5 1655.33,-122.34 1731.47,-89.68 1776.67,-75.59"/>
<polygon fill="midnightblue" stroke="midnightblue" points="1768.94,-438.1 1779.41,-436.44 1770.19,-431.21 1768.94,-438.1"/>
</g>
<!-- Node36 -->
<g id="node36" class="node">
<title>Node36</title>
<g id="a_node36"><a xlink:href="frontend_8h.html" target="_top" xlink:title=" ">
<polygon fill="white" stroke="black" points="1678.83,-375 1678.83,-394 1807.83,-394 1807.83,-375 1678.83,-375"/>
<text text-anchor="middle" x="1743.33" y="-382" font-family="Helvetica,sans-Serif" font-size="10.00">src/node/rpc/frontend.h</text>
</a>
</g>
</g>
<!-- Node35&#45;&gt;Node36 -->
<g id="edge54" class="edge">
<title>Node35&#45;&gt;Node36</title>
<path fill="none" stroke="midnightblue" d="M1816.12,-431.09C1797.78,-419.6 1772.36,-403.68 1756.92,-394.01"/>
<polygon fill="midnightblue" stroke="midnightblue" points="1814.39,-434.13 1824.72,-436.48 1818.1,-428.2 1814.39,-434.13"/>
</g>
<!-- Node36&#45;&gt;Node18 -->
<g id="edge62" class="edge">
<title>Node36&#45;&gt;Node18</title>
<path fill="none" stroke="midnightblue" d="M1707.82,-371.6C1669.35,-358.71 1608.94,-338.47 1574.89,-327.06"/>
<polygon fill="midnightblue" stroke="midnightblue" points="1706.98,-375.01 1717.57,-374.87 1709.2,-368.37 1706.98,-375.01"/>
</g>
<!-- Node36&#45;&gt;Node23 -->
<g id="edge58" class="edge">
<title>Node36&#45;&gt;Node23</title>
<path fill="none" stroke="midnightblue" d="M1747.92,-365.07C1753.25,-346.98 1763.67,-319.61 1781.33,-302 1843.27,-240.25 1943.68,-207.25 1997.84,-193.09"/>
<polygon fill="midnightblue" stroke="midnightblue" points="1744.54,-364.17 1745.29,-374.73 1751.29,-366 1744.54,-364.17"/>
</g>
<!-- Node36&#45;&gt;Node31 -->
<g id="edge61" class="edge">
<title>Node36&#45;&gt;Node31</title>
<path fill="none" stroke="midnightblue" d="M1768.97,-370.27C1793.93,-357.4 1831.13,-338.21 1852.53,-327.17"/>
<polygon fill="midnightblue" stroke="midnightblue" points="1767.35,-367.17 1760.06,-374.87 1770.56,-373.39 1767.35,-367.17"/>
</g>
<!-- Node36&#45;&gt;Node37 -->
<g id="edge55" class="edge">
<title>Node36&#45;&gt;Node37</title>
<path fill="none" stroke="midnightblue" d="M1791.46,-373.05C1800.05,-371.48 1808.93,-370.04 1817.33,-369 2120.78,-331.51 2200.67,-368.67 2504.33,-333 2507.24,-332.66 2510.2,-332.28 2513.19,-331.86"/>
<polygon fill="midnightblue" stroke="midnightblue" points="1790.74,-369.62 1781.57,-374.94 1792.05,-376.5 1790.74,-369.62"/>
</g>
<!-- Node38 -->
<g id="node38" class="node">
<title>Node38</title>
<g id="a_node38"><a xlink:href="member__frontend_8h.html" target="_top" xlink:title=" ">
<polygon fill="white" stroke="black" points="1683.33,-168.5 1683.33,-198.5 1803.33,-198.5 1803.33,-168.5 1683.33,-168.5"/>
<text text-anchor="start" x="1691.33" y="-186.5" font-family="Helvetica,sans-Serif" font-size="10.00">src/node/rpc/member</text>
<text text-anchor="middle" x="1743.33" y="-175.5" font-family="Helvetica,sans-Serif" font-size="10.00">_frontend.h</text>
</a>
</g>
</g>
<!-- Node36&#45;&gt;Node38 -->
<g id="edge59" class="edge">
<title>Node36&#45;&gt;Node38</title>
<path fill="none" stroke="midnightblue" d="M1743.33,-364.86C1743.33,-325.28 1743.33,-233.64 1743.33,-198.53"/>
<polygon fill="midnightblue" stroke="midnightblue" points="1739.83,-364.95 1743.33,-374.95 1746.83,-364.95 1739.83,-364.95"/>
</g>
<!-- Node37&#45;&gt;Node14 -->
<g id="edge56" class="edge">
<title>Node37&#45;&gt;Node14</title>
<path fill="none" stroke="midnightblue" d="M2632.79,-297.83C2646.41,-290.14 2659.57,-279.73 2667.33,-266 2674.12,-254.01 2675.75,-245.9 2667.33,-235 2569.44,-108.27 2050.05,-76.32 1870.47,-69"/>
<polygon fill="midnightblue" stroke="midnightblue" points="2631.07,-294.78 2623.82,-302.5 2634.31,-300.98 2631.07,-294.78"/>
</g>
<!-- Node37&#45;&gt;Node22 -->
<g id="edge57" class="edge">
<title>Node37&#45;&gt;Node22</title>
<path fill="none" stroke="midnightblue" d="M2583.33,-292.25C2583.33,-281.02 2583.33,-268.38 2583.33,-260.19"/>
<polygon fill="midnightblue" stroke="midnightblue" points="2579.83,-292.4 2583.33,-302.4 2586.83,-292.4 2579.83,-292.4"/>
</g>
<!-- Node38&#45;&gt;Node14 -->
<g id="edge60" class="edge">
<title>Node38&#45;&gt;Node14</title>
<path fill="none" stroke="midnightblue" d="M1756.43,-159.58C1771.15,-133.82 1794.31,-93.3 1804.38,-75.67"/>
<polygon fill="midnightblue" stroke="midnightblue" points="1753.35,-157.92 1751.43,-168.34 1759.43,-161.39 1753.35,-157.92"/>
</g>
<!-- Node39&#45;&gt;Node20 -->
<g id="edge66" class="edge">
<title>Node39&#45;&gt;Node20</title>
<path fill="none" stroke="midnightblue" d="M2330.43,-487.77C2345.2,-479.91 2362.96,-468.96 2376.33,-456 2395.86,-437.09 2411.29,-408.44 2418.27,-394.19"/>
<polygon fill="midnightblue" stroke="midnightblue" points="2328.55,-484.8 2321.24,-492.47 2331.73,-491.03 2328.55,-484.8"/>
</g>
<!-- Node39&#45;&gt;Node27 -->
<g id="edge67" class="edge">
<title>Node39&#45;&gt;Node27</title>
<path fill="none" stroke="midnightblue" d="M2282.19,-486.1C2269.05,-476.38 2252.35,-464.03 2241.27,-455.83"/>
<polygon fill="midnightblue" stroke="midnightblue" points="2280.48,-489.19 2290.6,-492.32 2284.65,-483.56 2280.48,-489.19"/>
</g>
<!-- Node39&#45;&gt;Node32 -->
<g id="edge68" class="edge">
<title>Node39&#45;&gt;Node32</title>
<path fill="none" stroke="midnightblue" d="M2306.14,-482.26C2308.11,-469.1 2309.34,-451.21 2305.33,-436 2296.6,-402.9 2291.01,-393.73 2267.33,-369 2216.46,-315.86 2136.34,-282.67 2085.09,-265.62"/>
<polygon fill="midnightblue" stroke="midnightblue" points="2302.64,-481.96 2304.34,-492.41 2309.53,-483.18 2302.64,-481.96"/>
</g>
<!-- Node39&#45;&gt;Node35 -->
<g id="edge69" class="edge">
<title>Node39&#45;&gt;Node35</title>
<path fill="none" stroke="midnightblue" d="M2218.93,-491.29C2129.25,-480.86 1988.43,-464.47 1905.56,-454.82"/>
<polygon fill="midnightblue" stroke="midnightblue" points="2218.73,-494.79 2229.07,-492.47 2219.54,-487.84 2218.73,-494.79"/>
</g>
<!-- Node40 -->
<g id="node40" class="node">
<title>Node40</title>
<g id="a_node40"><a xlink:href="http2_8h.html" target="_top" xlink:title=" ">
<polygon fill="white" stroke="black" points="2428.83,-436.5 2428.83,-455.5 2519.83,-455.5 2519.83,-436.5 2428.83,-436.5"/>
<text text-anchor="middle" x="2474.33" y="-443.5" font-family="Helvetica,sans-Serif" font-size="10.00">src/http/http2.h</text>
</a>
</g>
</g>
<!-- Node39&#45;&gt;Node40 -->
<g id="edge64" class="edge">
<title>Node39&#45;&gt;Node40</title>
<path fill="none" stroke="midnightblue" d="M2339.16,-489.44C2371.59,-479.26 2418.07,-464.66 2447.21,-455.52"/>
<polygon fill="midnightblue" stroke="midnightblue" points="2338.08,-486.11 2329.59,-492.44 2340.18,-492.79 2338.08,-486.11"/>
</g>
<!-- Node40&#45;&gt;Node20 -->
<g id="edge65" class="edge">
<title>Node40&#45;&gt;Node20</title>
<path fill="none" stroke="midnightblue" d="M2460.06,-428.67C2450.26,-417.45 2437.64,-403.02 2429.77,-394.01"/>
<polygon fill="midnightblue" stroke="midnightblue" points="2457.67,-431.25 2466.88,-436.48 2462.94,-426.64 2457.67,-431.25"/>
</g>
</g>
</svg>
        <g id="navigator" transform="translate(0 0)" fill="#404254">
                <rect fill="#f2f5e9" fill-opacity="0.5" stroke="#606060" stroke-width=".5" x="0" y="0" width="60" height="60"/>
                <use id="zoomplus" xlink:href="#zoomPlus" x="17" y="9" onmousedown="handleZoom(evt,'in')"/>
                <use id="zoomminus" xlink:href="#zoomMin" x="42" y="9" onmousedown="handleZoom(evt,'out')"/>
                <use id="reset" xlink:href="#resetDef" x="30" y="36" onmousedown="handleReset()"/>
                <g id="arrowUp" xlink:href="#dirArrow" transform="translate(30 24)" onmousedown="handlePan(0,-1)">
                  <use xlink:href="#rim" fill="#404040">
                        <set attributeName="fill" to="#808080" begin="arrowUp.mouseover" end="arrowUp.mouseout"/>
                  </use>
                  <path fill="none" stroke="white" stroke-width="1.5" d="M0,-3.0v7 M-2.5,-0.5L0,-3.0L2.5,-0.5"/>
                </g>
                <g id="arrowRight" xlink:href="#dirArrow" transform="rotate(90) translate(36 -43)" onmousedown="handlePan(1,0)">
                  <use xlink:href="#rim" fill="#404040">
                        <set attributeName="fill" to="#808080" begin="arrowRight.mouseover" end="arrowRight.mouseout"/>
                  </use>
                  <path fill="none" stroke="white" stroke-width="1.5" d="M0,-3.0v7 M-2.5,-0.5L0,-3.0L2.5,-0.5"/>
                </g>
                <g id="arrowDown" xlink:href="#dirArrow" transform="rotate(180) translate(-30 -48)" onmousedown="handlePan(0,1)">
                  <use xlink:href="#rim" fill="#404040">
                        <set attributeName="fill" to="#808080" begin="arrowDown.mouseover" end="arrowDown.mouseout"/>
                  </use>
                  <path fill="none" stroke="white" stroke-width="1.5" d="M0,-3.0v7 M-2.5,-0.5L0,-3.0L2.5,-0.5"/>
                </g>
                <g id="arrowLeft" xlink:href="#dirArrow" transform="rotate(270) translate(-36 17)" onmousedown="handlePan(-1,0)">
                  <use xlink:href="#rim" fill="#404040">
                        <set attributeName="fill" to="#808080" begin="arrowLeft.mouseover" end="arrowLeft.mouseout"/>
                  </use>
                  <path fill="none" stroke="white" stroke-width="1.5" d="M0,-3.0v7 M-2.5,-0.5L0,-3.0L2.5,-0.5"/>
                </g>
        </g>
        <svg viewBox="0 0 15 15" width="100%" height="30px" preserveAspectRatio="xMaxYMin meet">
         <g id="arrow_out" transform="scale(0.3 0.3)">
          <a xlink:href="actors_8h__dep__incl_org.svg" target="_base">
           <rect id="button" ry="5" rx="5" y="6" x="6" height="38" width="38"
                fill="#f2f5e9" fill-opacity="0.5" stroke="#606060" stroke-width="1.0"/>
           <path id="arrow"
             d="M 11.500037,31.436501 C 11.940474,20.09759 22.043105,11.32322 32.158766,21.979434 L 37.068811,17.246167 C 37.068811,17.246167 37.088388,32 37.088388,32 L 22.160133,31.978069 C 22.160133,31.978069 26.997745,27.140456 26.997745,27.140456 C 18.528582,18.264221 13.291696,25.230495 11.500037,31.436501 z"
             style="fill:#404040;"/>
          </a>
         </g>
        </svg>
</svg>
