<?xml version="1.0" encoding="UTF-8" standalone="no"?>
<!DOCTYPE svg PUBLIC "-//W3C//DTD SVG 1.1//EN"
 "http://www.w3.org/Graphics/SVG/1.1/DTD/svg11.dtd">
<!-- Generated by graphviz version 2.43.0 (0)
 -->
<!-- Title: include/ccf/app_interface.h Pages: 1 -->
<svg width="1605pt" height="218pt"
 viewBox="0.00 0.00 1604.50 218.00" xmlns="http://www.w3.org/2000/svg" xmlns:xlink="http://www.w3.org/1999/xlink">
<g id="graph0" class="graph" transform="scale(1 1) rotate(0) translate(4 214)">
<title>include/ccf/app_interface.h</title>
<polygon fill="white" stroke="transparent" points="-4,4 -4,-214 1600.5,-214 1600.5,4 -4,4"/>
<!-- Node1 -->
<g id="node1" class="node">
<title>Node1</title>
<g id="a_node1"><a xlink:title=" ">
<polygon fill="#bfbfbf" stroke="black" points="694.5,-190.5 694.5,-209.5 842.5,-209.5 842.5,-190.5 694.5,-190.5"/>
<text text-anchor="middle" x="768.5" y="-197.5" font-family="Helvetica,sans-Serif" font-size="10.00">include/ccf/app_interface.h</text>
</a>
</g>
</g>
<!-- Node2 -->
<g id="node2" class="node">
<title>Node2</title>
<g id="a_node2"><a xlink:href="logging_8cpp.html" target="_top" xlink:title=" ">
<polygon fill="white" stroke="black" points="0,-123.5 0,-153.5 123,-153.5 123,-123.5 0,-123.5"/>
<text text-anchor="start" x="8" y="-141.5" font-family="Helvetica,sans-Serif" font-size="10.00">samples/apps/logging</text>
<text text-anchor="middle" x="61.5" y="-130.5" font-family="Helvetica,sans-Serif" font-size="10.00">/logging.cpp</text>
</a>
</g>
</g>
<!-- Node1&#45;&gt;Node2 -->
<g id="edge1" class="edge">
<title>Node1&#45;&gt;Node2</title>
<path fill="none" stroke="midnightblue" d="M684.07,-196.63C561.74,-192.38 328.31,-181.21 131.5,-154 128.8,-153.63 126.04,-153.21 123.26,-152.76"/>
<polygon fill="midnightblue" stroke="midnightblue" points="684,-200.13 694.12,-196.97 684.24,-193.13 684,-200.13"/>
</g>
<!-- Node3 -->
<g id="node3" class="node">
<title>Node3</title>
<g id="a_node3"><a xlink:href="nobuiltins_8cpp.html" target="_top" xlink:title=" ">
<polygon fill="white" stroke="black" points="141,-123.5 141,-153.5 276,-153.5 276,-123.5 141,-123.5"/>
<text text-anchor="start" x="149" y="-141.5" font-family="Helvetica,sans-Serif" font-size="10.00">samples/apps/nobuiltins</text>
<text text-anchor="middle" x="208.5" y="-130.5" font-family="Helvetica,sans-Serif" font-size="10.00">/nobuiltins.cpp</text>
</a>
</g>
</g>
<!-- Node1&#45;&gt;Node3 -->
<g id="edge2" class="edge">
<title>Node1&#45;&gt;Node3</title>
<path fill="none" stroke="midnightblue" d="M684.19,-193.54C587.58,-186.72 424.65,-173.54 285.5,-154 282.4,-153.56 279.24,-153.09 276.05,-152.59"/>
<polygon fill="midnightblue" stroke="midnightblue" points="683.97,-197.03 694.19,-194.24 684.46,-190.05 683.97,-197.03"/>
</g>
<!-- Node4 -->
<g id="node4" class="node">
<title>Node4</title>
<g id="a_node4"><a xlink:href="executor__auth__policy_8h.html" target="_top" xlink:title=" ">
<polygon fill="white" stroke="black" points="294.5,-123.5 294.5,-153.5 442.5,-153.5 442.5,-123.5 294.5,-123.5"/>
<text text-anchor="start" x="302.5" y="-141.5" font-family="Helvetica,sans-Serif" font-size="10.00">src/apps/external_executor</text>
<text text-anchor="middle" x="368.5" y="-130.5" font-family="Helvetica,sans-Serif" font-size="10.00">/executor_auth_policy.h</text>
</a>
</g>
</g>
<!-- Node1&#45;&gt;Node4 -->
<g id="edge3" class="edge">
<title>Node1&#45;&gt;Node4</title>
<path fill="none" stroke="midnightblue" d="M696.61,-189.05C633.33,-180.19 538.73,-166.7 456.5,-154 452.06,-153.31 447.5,-152.6 442.9,-151.87"/>
<polygon fill="midnightblue" stroke="midnightblue" points="696.49,-192.57 706.88,-190.48 697.46,-185.63 696.49,-192.57"/>
</g>
<!-- Node5 -->
<g id="node5" class="node">
<title>Node5</title>
<g id="a_node5"><a xlink:href="external__executor_8cpp.html" target="_top" xlink:title=" ">
<polygon fill="white" stroke="black" points="345.5,-56.5 345.5,-86.5 493.5,-86.5 493.5,-56.5 345.5,-56.5"/>
<text text-anchor="start" x="353.5" y="-74.5" font-family="Helvetica,sans-Serif" font-size="10.00">src/apps/external_executor</text>
<text text-anchor="middle" x="419.5" y="-63.5" font-family="Helvetica,sans-Serif" font-size="10.00">/external_executor.cpp</text>
</a>
</g>
</g>
<!-- Node1&#45;&gt;Node5 -->
<g id="edge5" class="edge">
<title>Node1&#45;&gt;Node5</title>
<path fill="none" stroke="midnightblue" d="M684.07,-194.89C633.5,-189.8 569.03,-178.59 516.5,-154 481.44,-137.59 448.74,-105.22 431.73,-86.59"/>
<polygon fill="midnightblue" stroke="midnightblue" points="684.04,-198.4 694.32,-195.85 684.69,-191.43 684.04,-198.4"/>
</g>
<!-- Node6 -->
<g id="node6" class="node">
<title>Node6</title>
<g id="a_node6"><a xlink:href="js__generic_8cpp.html" target="_top" xlink:title=" ">
<polygon fill="white" stroke="black" points="617.5,-56.5 617.5,-86.5 727.5,-86.5 727.5,-56.5 617.5,-56.5"/>
<text text-anchor="start" x="625.5" y="-74.5" font-family="Helvetica,sans-Serif" font-size="10.00">src/apps/js_generic</text>
<text text-anchor="middle" x="672.5" y="-63.5" font-family="Helvetica,sans-Serif" font-size="10.00">/js_generic.cpp</text>
</a>
</g>
</g>
<!-- Node1&#45;&gt;Node6 -->
<g id="edge6" class="edge">
<title>Node1&#45;&gt;Node6</title>
<path fill="none" stroke="midnightblue" d="M684.39,-194.47C623.07,-189.2 547.37,-177.92 527.5,-154 497.43,-117.79 564.43,-94.65 617.09,-82.62"/>
<polygon fill="midnightblue" stroke="midnightblue" points="684.24,-197.97 694.49,-195.29 684.81,-190.99 684.24,-197.97"/>
</g>
<!-- Node7 -->
<g id="node7" class="node">
<title>Node7</title>
<g id="a_node7"><a xlink:href="js__generic__base_8cpp.html" target="_top" xlink:title=" ">
<polygon fill="white" stroke="black" points="536.5,-123.5 536.5,-153.5 654.5,-153.5 654.5,-123.5 536.5,-123.5"/>
<text text-anchor="start" x="544.5" y="-141.5" font-family="Helvetica,sans-Serif" font-size="10.00">src/apps/js_generic</text>
<text text-anchor="middle" x="595.5" y="-130.5" font-family="Helvetica,sans-Serif" font-size="10.00">/js_generic_base.cpp</text>
</a>
</g>
</g>
<!-- Node1&#45;&gt;Node7 -->
<g id="edge7" class="edge">
<title>Node1&#45;&gt;Node7</title>
<path fill="none" stroke="midnightblue" d="M733.91,-187.1C705.76,-177.42 665.97,-163.74 636.27,-153.52"/>
<polygon fill="midnightblue" stroke="midnightblue" points="733.12,-190.53 743.71,-190.48 735.4,-183.91 733.12,-190.53"/>
</g>
<!-- Node8 -->
<g id="node8" class="node">
<title>Node8</title>
<g id="a_node8"><a xlink:href="js__generic__base_8h.html" target="_top" xlink:title=" ">
<polygon fill="white" stroke="black" points="672.5,-123.5 672.5,-153.5 782.5,-153.5 782.5,-123.5 672.5,-123.5"/>
<text text-anchor="start" x="680.5" y="-141.5" font-family="Helvetica,sans-Serif" font-size="10.00">src/apps/js_generic</text>
<text text-anchor="middle" x="727.5" y="-130.5" font-family="Helvetica,sans-Serif" font-size="10.00">/js_generic_base.h</text>
</a>
</g>
</g>
<!-- Node1&#45;&gt;Node8 -->
<g id="edge8" class="edge">
<title>Node1&#45;&gt;Node8</title>
<path fill="none" stroke="midnightblue" d="M756.76,-181.96C750.55,-172.96 743.03,-162.03 737.16,-153.52"/>
<polygon fill="midnightblue" stroke="midnightblue" points="754.07,-184.23 762.63,-190.48 759.83,-180.25 754.07,-184.23"/>
</g>
<!-- Node9 -->
<g id="node9" class="node">
<title>Node9</title>
<g id="a_node9"><a xlink:href="js__v8_8cpp.html" target="_top" xlink:title=" ">
<polygon fill="white" stroke="black" points="797.5,-62 797.5,-81 931.5,-81 931.5,-62 797.5,-62"/>
<text text-anchor="middle" x="864.5" y="-69" font-family="Helvetica,sans-Serif" font-size="10.00">src/apps/js_v8/js_v8.cpp</text>
</a>
</g>
</g>
<!-- Node1&#45;&gt;Node9 -->
<g id="edge10" class="edge">
<title>Node1&#45;&gt;Node9</title>
<path fill="none" stroke="midnightblue" d="M781.31,-182.12C802,-154.86 842.05,-102.08 857.86,-81.26"/>
<polygon fill="midnightblue" stroke="midnightblue" points="778.36,-180.22 775.1,-190.31 783.93,-184.46 778.36,-180.22"/>
</g>
<!-- Node10 -->
<g id="node10" class="node">
<title>Node10</title>
<g id="a_node10"><a xlink:href="js__v8__base_8cpp.html" target="_top" xlink:title=" ">
<polygon fill="white" stroke="black" points="838.5,-123.5 838.5,-153.5 952.5,-153.5 952.5,-123.5 838.5,-123.5"/>
<text text-anchor="start" x="846.5" y="-141.5" font-family="Helvetica,sans-Serif" font-size="10.00">src/apps/js_v8/js_v8</text>
<text text-anchor="middle" x="895.5" y="-130.5" font-family="Helvetica,sans-Serif" font-size="10.00">_base.cpp</text>
</a>
</g>
</g>
<!-- Node1&#45;&gt;Node10 -->
<g id="edge11" class="edge">
<title>Node1&#45;&gt;Node10</title>
<path fill="none" stroke="midnightblue" d="M795.82,-186.2C816.34,-176.58 844.44,-163.42 865.57,-153.52"/>
<polygon fill="midnightblue" stroke="midnightblue" points="794.27,-183.06 786.7,-190.48 797.24,-189.4 794.27,-183.06"/>
</g>
<!-- Node11 -->
<g id="node11" class="node">
<title>Node11</title>
<g id="a_node11"><a xlink:href="js__v8__base_8h.html" target="_top" xlink:title=" ">
<polygon fill="white" stroke="black" points="970.5,-123.5 970.5,-153.5 1084.5,-153.5 1084.5,-123.5 970.5,-123.5"/>
<text text-anchor="start" x="978.5" y="-141.5" font-family="Helvetica,sans-Serif" font-size="10.00">src/apps/js_v8/js_v8</text>
<text text-anchor="middle" x="1027.5" y="-130.5" font-family="Helvetica,sans-Serif" font-size="10.00">_base.h</text>
</a>
</g>
</g>
<!-- Node1&#45;&gt;Node11 -->
<g id="edge12" class="edge">
<title>Node1&#45;&gt;Node11</title>
<path fill="none" stroke="midnightblue" d="M815.38,-188.23C858.92,-178.23 923.86,-163.31 970.41,-152.62"/>
<polygon fill="midnightblue" stroke="midnightblue" points="814.57,-184.82 805.61,-190.48 816.14,-191.65 814.57,-184.82"/>
</g>
<!-- Node12 -->
<g id="node12" class="node">
<title>Node12</title>
<g id="a_node12"><a xlink:href="tpcc_8cpp.html" target="_top" xlink:title=" ">
<polygon fill="white" stroke="black" points="1103,-129 1103,-148 1248,-148 1248,-129 1103,-129"/>
<text text-anchor="middle" x="1175.5" y="-136" font-family="Helvetica,sans-Serif" font-size="10.00">src/apps/tpcc/app/tpcc.cpp</text>
</a>
</g>
</g>
<!-- Node1&#45;&gt;Node12 -->
<g id="edge14" class="edge">
<title>Node1&#45;&gt;Node12</title>
<path fill="none" stroke="midnightblue" d="M845.83,-189.12C911.75,-180.5 1008.98,-167.32 1093.5,-154 1105.07,-152.18 1117.52,-150.06 1129.15,-148.01"/>
<polygon fill="midnightblue" stroke="midnightblue" points="844.98,-185.7 835.52,-190.47 845.89,-192.64 844.98,-185.7"/>
</g>
<!-- Node13 -->
<g id="node13" class="node">
<title>Node13</title>
<g id="a_node13"><a xlink:href="src_2enclave_2enclave_8h.html" target="_top" xlink:title=" ">
<polygon fill="white" stroke="black" points="1268.5,-62 1268.5,-81 1390.5,-81 1390.5,-62 1268.5,-62"/>
<text text-anchor="middle" x="1329.5" y="-69" font-family="Helvetica,sans-Serif" font-size="10.00">src/enclave/enclave.h</text>
</a>
</g>
</g>
<!-- Node1&#45;&gt;Node13 -->
<g id="edge15" class="edge">
<title>Node1&#45;&gt;Node13</title>
<path fill="none" stroke="midnightblue" d="M852.92,-198.57C973.46,-196.73 1187.91,-188.51 1256.5,-154 1289.76,-137.27 1314.88,-98.38 1324.83,-81.07"/>
<polygon fill="midnightblue" stroke="midnightblue" points="852.58,-195.08 842.63,-198.72 852.68,-202.08 852.58,-195.08"/>
</g>
<!-- Node15 -->
<g id="node15" class="node">
<title>Node15</title>
<g id="a_node15"><a xlink:href="no__plugins_8cpp.html" target="_top" xlink:title=" ">
<polygon fill="white" stroke="black" points="1478.5,-129 1478.5,-148 1596.5,-148 1596.5,-129 1478.5,-129"/>
<text text-anchor="middle" x="1537.5" y="-136" font-family="Helvetica,sans-Serif" font-size="10.00">src/js/no_plugins.cpp</text>
</a>
</g>
</g>
<!-- Node1&#45;&gt;Node15 -->
<g id="edge17" class="edge">
<title>Node1&#45;&gt;Node15</title>
<path fill="none" stroke="midnightblue" d="M852.57,-197.56C984.55,-194.41 1248.15,-184.54 1469.5,-154 1480.26,-152.52 1491.86,-150.28 1502.38,-148.01"/>
<polygon fill="midnightblue" stroke="midnightblue" points="852.45,-194.06 842.53,-197.79 852.61,-201.06 852.45,-194.06"/>
</g>
<!-- Node17 -->
<g id="node17" class="node">
<title>Node17</title>
<g id="a_node17"><a xlink:href="user__frontend_8h.html" target="_top" xlink:title=" ">
<polygon fill="white" stroke="black" points="1305,-129 1305,-148 1460,-148 1460,-129 1305,-129"/>
<text text-anchor="middle" x="1382.5" y="-136" font-family="Helvetica,sans-Serif" font-size="10.00">src/node/rpc/user_frontend.h</text>
</a>
</g>
</g>
<!-- Node1&#45;&gt;Node17 -->
<g id="edge19" class="edge">
<title>Node1&#45;&gt;Node17</title>
<path fill="none" stroke="midnightblue" d="M852.64,-193.58C955.97,-186.49 1136.48,-172.75 1290.5,-154 1304.14,-152.34 1318.87,-150.18 1332.45,-148.04"/>
<polygon fill="midnightblue" stroke="midnightblue" points="852.32,-190.09 842.58,-194.26 852.79,-197.07 852.32,-190.09"/>
</g>
<!-- Node4&#45;&gt;Node5 -->
<g id="edge4" class="edge">
<title>Node4&#45;&gt;Node5</title>
<path fill="none" stroke="midnightblue" d="M385.8,-115.45C393.29,-105.9 401.84,-95 408.46,-86.58"/>
<polygon fill="midnightblue" stroke="midnightblue" points="382.99,-113.37 379.57,-123.4 388.49,-117.69 382.99,-113.37"/>
</g>
<!-- Node8&#45;&gt;Node6 -->
<g id="edge9" class="edge">
<title>Node8&#45;&gt;Node6</title>
<path fill="none" stroke="midnightblue" d="M709.08,-115.74C700.95,-106.12 691.61,-95.09 684.41,-86.58"/>
<polygon fill="midnightblue" stroke="midnightblue" points="706.43,-118.02 715.57,-123.4 711.78,-113.5 706.43,-118.02"/>
</g>
<!-- Node11&#45;&gt;Node9 -->
<g id="edge13" class="edge">
<title>Node11&#45;&gt;Node9</title>
<path fill="none" stroke="midnightblue" d="M982.67,-119.62C951.12,-107.04 910.31,-90.77 885.83,-81.01"/>
<polygon fill="midnightblue" stroke="midnightblue" points="981.55,-122.94 992.13,-123.4 984.14,-116.44 981.55,-122.94"/>
</g>
<!-- Node14 -->
<g id="node14" class="node">
<title>Node14</title>
<g id="a_node14"><a xlink:href="enclave_2main_8cpp.html" target="_top" xlink:title=" ">
<polygon fill="white" stroke="black" points="1269.5,-0.5 1269.5,-19.5 1389.5,-19.5 1389.5,-0.5 1269.5,-0.5"/>
<text text-anchor="middle" x="1329.5" y="-7.5" font-family="Helvetica,sans-Serif" font-size="10.00">src/enclave/main.cpp</text>
</a>
</g>
</g>
<!-- Node13&#45;&gt;Node14 -->
<g id="edge16" class="edge">
<title>Node13&#45;&gt;Node14</title>
<path fill="none" stroke="midnightblue" d="M1329.5,-51.82C1329.5,-41 1329.5,-27.9 1329.5,-19.51"/>
<polygon fill="midnightblue" stroke="midnightblue" points="1326,-51.98 1329.5,-61.98 1333,-51.98 1326,-51.98"/>
</g>
<!-- Node16 -->
<g id="node16" class="node">
<title>Node16</title>
<g id="a_node16"><a xlink:href="wrap_8cpp.html" target="_top" xlink:title=" ">
<polygon fill="white" stroke="black" points="1493,-62 1493,-81 1582,-81 1582,-62 1493,-62"/>
<text text-anchor="middle" x="1537.5" y="-69" font-family="Helvetica,sans-Serif" font-size="10.00">src/js/wrap.cpp</text>
</a>
</g>
</g>
<!-- Node15&#45;&gt;Node16 -->
<g id="edge18" class="edge">
<title>Node15&#45;&gt;Node16</title>
<path fill="none" stroke="midnightblue" d="M1537.5,-118.54C1537.5,-106.17 1537.5,-90.62 1537.5,-81.13"/>
<polygon fill="midnightblue" stroke="midnightblue" points="1534,-118.73 1537.5,-128.73 1541,-118.73 1534,-118.73"/>
</g>
<!-- Node17&#45;&gt;Node13 -->
<g id="edge20" class="edge">
<title>Node17&#45;&gt;Node13</title>
<path fill="none" stroke="midnightblue" d="M1368.86,-120.77C1358.53,-108.1 1344.75,-91.2 1336.53,-81.13"/>
<polygon fill="midnightblue" stroke="midnightblue" points="1366.32,-123.2 1375.35,-128.73 1371.75,-118.77 1366.32,-123.2"/>
</g>
</g>
</svg>
