<?xml version="1.0" encoding="UTF-8" standalone="no"?>
<!DOCTYPE svg PUBLIC "-//W3C//DTD SVG 1.1//EN"
 "http://www.w3.org/Graphics/SVG/1.1/DTD/svg11.dtd">
<!-- Generated by graphviz version 2.43.0 (0)
 -->
<!-- Title: ccf::endpoints::EndpointRegistry Pages: 1 -->
<svg width="2147pt" height="480pt"
 viewBox="0.00 0.00 2147.00 480.00" xmlns="http://www.w3.org/2000/svg" xmlns:xlink="http://www.w3.org/1999/xlink">
<g id="graph0" class="graph" transform="scale(1 1) rotate(0) translate(4 476)">
<title>ccf::endpoints::EndpointRegistry</title>
<polygon fill="white" stroke="transparent" points="-4,4 -4,-476 2143,-476 2143,4 -4,4"/>
<!-- Node1 -->
<g id="node1" class="node">
<title>Node1</title>
<g id="a_node1"><a xlink:title=" ">
<polygon fill="#bfbfbf" stroke="black" points="2006,-197 2006,-227 2139,-227 2139,-197 2006,-197"/>
<text text-anchor="start" x="2014" y="-215" font-family="Helvetica,sans-Serif" font-size="10.00">ccf::endpoints::Endpoint</text>
<text text-anchor="middle" x="2072.5" y="-204" font-family="Helvetica,sans-Serif" font-size="10.00">Registry</text>
</a>
</g>
</g>
<!-- Node2 -->
<g id="node2" class="node">
<title>Node2</title>
<g id="a_node2"><a xlink:href="structccf_1_1endpoints_1_1Endpoint_1_1Installer.html" target="_top" xlink:title=" ">
<polygon fill="white" stroke="black" points="1035.5,-170 1035.5,-200 1168.5,-200 1168.5,-170 1035.5,-170"/>
<text text-anchor="start" x="1043.5" y="-188" font-family="Helvetica,sans-Serif" font-size="10.00">ccf::endpoints::Endpoint</text>
<text text-anchor="middle" x="1102" y="-177" font-family="Helvetica,sans-Serif" font-size="10.00">::Installer</text>
</a>
</g>
</g>
<!-- Node2&#45;&gt;Node1 -->
<g id="edge1" class="edge">
<title>Node2&#45;&gt;Node1</title>
<path fill="none" stroke="midnightblue" d="M1178.96,-187.12C1363.45,-192.26 1832.67,-205.34 2005.92,-210.17"/>
<polygon fill="midnightblue" stroke="midnightblue" points="1178.9,-183.61 1168.81,-186.83 1178.71,-190.61 1178.9,-183.61"/>
</g>
<!-- Node7 -->
<g id="node7" class="node">
<title>Node7</title>
<g id="a_node7"><a xlink:href="structccf_1_1endpoints_1_1Endpoint.html" target="_top" xlink:title=" ">
<polygon fill="white" stroke="black" points="1404.5,-128.5 1404.5,-147.5 1537.5,-147.5 1537.5,-128.5 1404.5,-128.5"/>
<text text-anchor="middle" x="1471" y="-135.5" font-family="Helvetica,sans-Serif" font-size="10.00">ccf::endpoints::Endpoint</text>
</a>
</g>
</g>
<!-- Node2&#45;&gt;Node7 -->
<g id="edge20" class="edge">
<title>Node2&#45;&gt;Node7</title>
<path fill="none" stroke="#9a32cd" stroke-dasharray="5,2" d="M1178.88,-172.29C1188.67,-170.77 1198.56,-169.3 1208,-168 1274.78,-158.78 1351.42,-150.24 1404.48,-144.65"/>
<polygon fill="#9a32cd" stroke="#9a32cd" points="1178.08,-168.87 1168.74,-173.87 1179.16,-175.78 1178.08,-168.87"/>
<text text-anchor="middle" x="1293.5" y="-171" font-family="Helvetica,sans-Serif" font-size="10.00"> installer</text>
</g>
<!-- Node3 -->
<g id="node3" class="node">
<title>Node3</title>
<g id="a_node3"><a xlink:title=" ">
<polygon fill="white" stroke="black" points="155.5,-219.5 155.5,-238.5 220.5,-238.5 220.5,-219.5 155.5,-219.5"/>
<text text-anchor="middle" x="188" y="-226.5" font-family="Helvetica,sans-Serif" font-size="10.00">std::string</text>
</a>
</g>
</g>
<!-- Node3&#45;&gt;Node1 -->
<g id="edge2" class="edge">
<title>Node3&#45;&gt;Node1</title>
<path fill="none" stroke="#9a32cd" stroke-dasharray="5,2" d="M211.73,-244.07C223.54,-251.1 238.5,-258.82 253,-263 335.64,-286.8 360,-277 446,-277 446,-277 446,-277 925.5,-277 1351.74,-277 1458.2,-264.39 1884,-245 1930.25,-242.89 1942.49,-247.52 1988,-239 2002.68,-236.25 2018.35,-231.65 2032.11,-227.02"/>
<polygon fill="#9a32cd" stroke="#9a32cd" points="213.35,-240.95 203.01,-238.65 209.66,-246.9 213.35,-240.95"/>
<text text-anchor="middle" x="1102" y="-279" font-family="Helvetica,sans-Serif" font-size="10.00"> method_prefix</text>
</g>
<!-- Node5 -->
<g id="node5" class="node">
<title>Node5</title>
<g id="a_node5"><a xlink:href="structccf_1_1endpoints_1_1EndpointRegistry_1_1OpenApiInfo.html" target="_top" xlink:title=" ">
<polygon fill="white" stroke="black" points="550,-220 550,-250 683,-250 683,-220 550,-220"/>
<text text-anchor="start" x="558" y="-238" font-family="Helvetica,sans-Serif" font-size="10.00">ccf::endpoints::Endpoint</text>
<text text-anchor="middle" x="616.5" y="-227" font-family="Helvetica,sans-Serif" font-size="10.00">Registry::OpenApiInfo</text>
</a>
</g>
</g>
<!-- Node3&#45;&gt;Node5 -->
<g id="edge5" class="edge">
<title>Node3&#45;&gt;Node5</title>
<path fill="none" stroke="#9a32cd" stroke-dasharray="5,2" d="M230.84,-229.13C262.03,-229.27 305.68,-229.52 344,-230 414.36,-230.87 494.96,-232.43 549.95,-233.57"/>
<polygon fill="#9a32cd" stroke="#9a32cd" points="230.78,-225.63 220.76,-229.09 230.75,-232.63 230.78,-225.63"/>
<text text-anchor="middle" x="298.5" y="-255" font-family="Helvetica,sans-Serif" font-size="10.00"> description</text>
<text text-anchor="middle" x="298.5" y="-244" font-family="Helvetica,sans-Serif" font-size="10.00">document_version</text>
<text text-anchor="middle" x="298.5" y="-233" font-family="Helvetica,sans-Serif" font-size="10.00">title</text>
</g>
<!-- Node8 -->
<g id="node8" class="node">
<title>Node8</title>
<g id="a_node8"><a xlink:href="structccf_1_1endpoints_1_1EndpointDefinition.html" target="_top" xlink:title=" ">
<polygon fill="white" stroke="black" points="1035.5,-119 1035.5,-149 1168.5,-149 1168.5,-119 1035.5,-119"/>
<text text-anchor="start" x="1043.5" y="-137" font-family="Helvetica,sans-Serif" font-size="10.00">ccf::endpoints::Endpoint</text>
<text text-anchor="middle" x="1102" y="-126" font-family="Helvetica,sans-Serif" font-size="10.00">Definition</text>
</a>
</g>
</g>
<!-- Node3&#45;&gt;Node8 -->
<g id="edge12" class="edge">
<title>Node3&#45;&gt;Node8</title>
<path fill="none" stroke="#9a32cd" stroke-dasharray="5,2" d="M231.05,-224.05C298.35,-216.2 434.46,-200.58 550,-189 748.03,-169.15 798.31,-171.97 996,-149 1008.71,-147.52 1022.26,-145.74 1035.26,-143.93"/>
<polygon fill="#9a32cd" stroke="#9a32cd" points="230.37,-220.61 220.85,-225.24 231.19,-227.56 230.37,-220.61"/>
<text text-anchor="middle" x="616.5" y="-203" font-family="Helvetica,sans-Serif" font-size="10.00"> api_uri_path</text>
<text text-anchor="middle" x="616.5" y="-192" font-family="Helvetica,sans-Serif" font-size="10.00">full_uri_path</text>
</g>
<!-- Node9 -->
<g id="node9" class="node">
<title>Node9</title>
<g id="a_node9"><a xlink:href="structccf_1_1endpoints_1_1EndpointKey.html" target="_top" xlink:title=" ">
<polygon fill="white" stroke="black" points="371.5,-48.5 371.5,-67.5 522.5,-67.5 522.5,-48.5 371.5,-48.5"/>
<text text-anchor="middle" x="447" y="-55.5" font-family="Helvetica,sans-Serif" font-size="10.00">ccf::endpoints::EndpointKey</text>
</a>
</g>
</g>
<!-- Node3&#45;&gt;Node9 -->
<g id="edge10" class="edge">
<title>Node3&#45;&gt;Node9</title>
<path fill="none" stroke="#9a32cd" stroke-dasharray="5,2" d="M191.49,-209.18C196.68,-177 211.8,-113.89 253,-83 271.49,-69.14 325.29,-62.96 371.41,-60.2"/>
<polygon fill="#9a32cd" stroke="#9a32cd" points="188.02,-208.77 190.05,-219.17 194.95,-209.77 188.02,-208.77"/>
<text text-anchor="middle" x="298.5" y="-86" font-family="Helvetica,sans-Serif" font-size="10.00"> uri_path</text>
</g>
<!-- Node11 -->
<g id="node11" class="node">
<title>Node11</title>
<g id="a_node11"><a xlink:href="structccf_1_1endpoints_1_1EndpointProperties.html" target="_top" xlink:title=" ">
<polygon fill="white" stroke="black" points="701.5,-119 701.5,-149 834.5,-149 834.5,-119 701.5,-119"/>
<text text-anchor="start" x="709.5" y="-137" font-family="Helvetica,sans-Serif" font-size="10.00">ccf::endpoints::Endpoint</text>
<text text-anchor="middle" x="768" y="-126" font-family="Helvetica,sans-Serif" font-size="10.00">Properties</text>
</a>
</g>
</g>
<!-- Node3&#45;&gt;Node11 -->
<g id="edge16" class="edge">
<title>Node3&#45;&gt;Node11</title>
<path fill="none" stroke="#9a32cd" stroke-dasharray="5,2" d="M205.47,-212.19C217.58,-200.81 235,-186.39 253,-178 297.8,-157.13 312.97,-162.25 362,-156 480.92,-140.85 620.79,-136.12 701.15,-134.65"/>
<polygon fill="#9a32cd" stroke="#9a32cd" points="202.72,-209.98 198,-219.46 207.6,-215 202.72,-209.98"/>
<text text-anchor="middle" x="447" y="-170" font-family="Helvetica,sans-Serif" font-size="10.00"> js_function</text>
<text text-anchor="middle" x="447" y="-159" font-family="Helvetica,sans-Serif" font-size="10.00">js_module</text>
</g>
<!-- Node12 -->
<g id="node12" class="node">
<title>Node12</title>
<g id="a_node12"><a xlink:title=" ">
<polygon fill="white" stroke="black" points="377,-86.5 377,-105.5 517,-105.5 517,-86.5 377,-86.5"/>
<text text-anchor="middle" x="447" y="-93.5" font-family="Helvetica,sans-Serif" font-size="10.00">std::vector&lt; std::string &gt;</text>
</a>
</g>
</g>
<!-- Node3&#45;&gt;Node12 -->
<g id="edge15" class="edge">
<title>Node3&#45;&gt;Node12</title>
<path fill="none" stroke="#9a32cd" stroke-dasharray="5,2" d="M194.08,-209.68C201.99,-183.82 219.89,-138.69 253,-117 272.95,-103.93 329.81,-98.89 376.68,-97"/>
<polygon fill="#9a32cd" stroke="#9a32cd" points="190.67,-208.88 191.29,-219.46 197.4,-210.81 190.67,-208.88"/>
<text text-anchor="middle" x="298.5" y="-120" font-family="Helvetica,sans-Serif" font-size="10.00"> elements</text>
</g>
<!-- Node17 -->
<g id="node17" class="node">
<title>Node17</title>
<g id="a_node17"><a xlink:title=" ">
<polygon fill="white" stroke="black" points="853,-389.5 853,-430.5 996,-430.5 996,-389.5 853,-389.5"/>
<text text-anchor="start" x="861" y="-418.5" font-family="Helvetica,sans-Serif" font-size="10.00">std::map&lt; std::string,</text>
<text text-anchor="start" x="861" y="-407.5" font-family="Helvetica,sans-Serif" font-size="10.00"> std::map&lt; ccf::RESTVerb,</text>
<text text-anchor="middle" x="924.5" y="-396.5" font-family="Helvetica,sans-Serif" font-size="10.00"> EndpointPtr &gt; &gt;</text>
</a>
</g>
</g>
<!-- Node3&#45;&gt;Node17 -->
<g id="edge23" class="edge">
<title>Node3&#45;&gt;Node17</title>
<path fill="none" stroke="#9a32cd" stroke-dasharray="5,2" d="M191.02,-249.12C195.54,-282.35 209.75,-348 253,-378 436.74,-505.44 721.72,-459.82 852.95,-428.97"/>
<polygon fill="#9a32cd" stroke="#9a32cd" points="194.45,-248.35 189.79,-238.83 187.5,-249.18 194.45,-248.35"/>
<text text-anchor="middle" x="447" y="-464" font-family="Helvetica,sans-Serif" font-size="10.00"> keys</text>
</g>
<!-- Node18 -->
<g id="node18" class="node">
<title>Node18</title>
<g id="a_node18"><a xlink:title=" ">
<polygon fill="white" stroke="black" points="1208,-339 1208,-391 1379,-391 1379,-339 1208,-339"/>
<text text-anchor="start" x="1216" y="-379" font-family="Helvetica,sans-Serif" font-size="10.00">std::map&lt; std::string,</text>
<text text-anchor="start" x="1216" y="-368" font-family="Helvetica,sans-Serif" font-size="10.00"> std::map&lt; ccf::RESTVerb,</text>
<text text-anchor="start" x="1216" y="-357" font-family="Helvetica,sans-Serif" font-size="10.00"> std::shared_ptr&lt; ccf::endpoints</text>
<text text-anchor="middle" x="1293.5" y="-346" font-family="Helvetica,sans-Serif" font-size="10.00">::PathTemplatedEndpoint &gt; &gt; &gt;</text>
</a>
</g>
</g>
<!-- Node3&#45;&gt;Node18 -->
<g id="edge25" class="edge">
<title>Node3&#45;&gt;Node18</title>
<path fill="none" stroke="#9a32cd" stroke-dasharray="5,2" d="M194.74,-248.58C203.17,-273.54 221.39,-315.96 253,-337 325.09,-385 359.39,-364 446,-364 446,-364 446,-364 925.5,-364 1022.35,-364 1133.57,-364.35 1207.96,-364.64"/>
<polygon fill="#9a32cd" stroke="#9a32cd" points="198,-247.25 191.64,-238.77 191.32,-249.37 198,-247.25"/>
<text text-anchor="middle" x="616.5" y="-367" font-family="Helvetica,sans-Serif" font-size="10.00"> keys</text>
</g>
<!-- Node20 -->
<g id="node20" class="node">
<title>Node20</title>
<g id="a_node20"><a xlink:title=" ">
<polygon fill="white" stroke="black" points="1563,-289 1563,-341 1739,-341 1739,-289 1563,-289"/>
<text text-anchor="start" x="1571" y="-329" font-family="Helvetica,sans-Serif" font-size="10.00">std::map&lt; std::string,</text>
<text text-anchor="start" x="1571" y="-318" font-family="Helvetica,sans-Serif" font-size="10.00"> std::map&lt; std::string,</text>
<text text-anchor="start" x="1571" y="-307" font-family="Helvetica,sans-Serif" font-size="10.00"> ccf::endpoints::EndpointRegistry</text>
<text text-anchor="middle" x="1651" y="-296" font-family="Helvetica,sans-Serif" font-size="10.00">::Metrics &gt; &gt;</text>
</a>
</g>
</g>
<!-- Node3&#45;&gt;Node20 -->
<g id="edge28" class="edge">
<title>Node3&#45;&gt;Node20</title>
<path fill="none" stroke="#9a32cd" stroke-dasharray="5,2" d="M202.39,-246.98C214.1,-261.31 232.41,-280.62 253,-291 330.64,-330.14 359.05,-323 446,-323 446,-323 446,-323 1294.5,-323 1386.02,-323 1490.76,-320.32 1562.72,-318.06"/>
<polygon fill="#9a32cd" stroke="#9a32cd" points="204.93,-244.54 196,-238.83 199.42,-248.86 204.93,-244.54"/>
<text text-anchor="middle" x="768" y="-326" font-family="Helvetica,sans-Serif" font-size="10.00"> keys</text>
</g>
<!-- Node4 -->
<g id="node4" class="node">
<title>Node4</title>
<g id="a_node4"><a xlink:title=" ">
<polygon fill="white" stroke="black" points="0,-214 0,-244 104,-244 104,-214 0,-214"/>
<text text-anchor="start" x="8" y="-232" font-family="Helvetica,sans-Serif" font-size="10.00">std::basic_string&lt;</text>
<text text-anchor="middle" x="52" y="-221" font-family="Helvetica,sans-Serif" font-size="10.00"> Char &gt;</text>
</a>
</g>
</g>
<!-- Node4&#45;&gt;Node3 -->
<g id="edge3" class="edge">
<title>Node4&#45;&gt;Node3</title>
<path fill="none" stroke="midnightblue" d="M114.32,-229C128.57,-229 143.16,-229 155.49,-229"/>
<polygon fill="midnightblue" stroke="midnightblue" points="114.04,-225.5 104.04,-229 114.04,-232.5 114.04,-225.5"/>
</g>
<!-- Node5&#45;&gt;Node1 -->
<g id="edge4" class="edge">
<title>Node5&#45;&gt;Node1</title>
<path fill="none" stroke="#9a32cd" stroke-dasharray="5,2" d="M693.23,-233.46C755.16,-232.33 844.99,-231 923.5,-231 923.5,-231 923.5,-231 1821.5,-231 1884.18,-231 1955.45,-224.99 2005.81,-219.73"/>
<polygon fill="#9a32cd" stroke="#9a32cd" points="693.09,-229.96 683.16,-233.65 693.22,-236.96 693.09,-229.96"/>
<text text-anchor="middle" x="1293.5" y="-234" font-family="Helvetica,sans-Serif" font-size="10.00"> openapi_info</text>
</g>
<!-- Node6 -->
<g id="node6" class="node">
<title>Node6</title>
<g id="a_node6"><a xlink:title=" ">
<polygon fill="white" stroke="black" points="1757,-134 1757,-164 1884,-164 1884,-134 1757,-134"/>
<text text-anchor="start" x="1765" y="-152" font-family="Helvetica,sans-Serif" font-size="10.00">std::shared_ptr&lt; const</text>
<text text-anchor="middle" x="1820.5" y="-141" font-family="Helvetica,sans-Serif" font-size="10.00"> Endpoint &gt;</text>
</a>
</g>
</g>
<!-- Node6&#45;&gt;Node1 -->
<g id="edge6" class="edge">
<title>Node6&#45;&gt;Node1</title>
<path fill="none" stroke="#9a32cd" stroke-dasharray="5,2" d="M1894.54,-151.46C1924.07,-153.97 1958.16,-158.79 1988,-168 2009.61,-174.67 2032.18,-186.93 2048.4,-196.82"/>
<polygon fill="#9a32cd" stroke="#9a32cd" points="1894.54,-147.95 1884.3,-150.67 1894,-154.93 1894.54,-147.95"/>
<text text-anchor="middle" x="1945" y="-171" font-family="Helvetica,sans-Serif" font-size="10.00"> default_endpoint</text>
</g>
<!-- Node7&#45;&gt;Node6 -->
<g id="edge7" class="edge">
<title>Node7&#45;&gt;Node6</title>
<path fill="none" stroke="#9a32cd" stroke-dasharray="5,2" d="M1547.98,-140.41C1610.59,-142.39 1698.31,-145.16 1756.92,-147.02"/>
<polygon fill="#9a32cd" stroke="#9a32cd" points="1547.88,-136.9 1537.77,-140.08 1547.65,-143.9 1547.88,-136.9"/>
<text text-anchor="middle" x="1651" y="-149" font-family="Helvetica,sans-Serif" font-size="10.00"> ptr</text>
</g>
<!-- Node8&#45;&gt;Node7 -->
<g id="edge8" class="edge">
<title>Node8&#45;&gt;Node7</title>
<path fill="none" stroke="midnightblue" d="M1178.62,-134.82C1245.13,-135.55 1340.98,-136.59 1404.34,-137.28"/>
<polygon fill="midnightblue" stroke="midnightblue" points="1178.65,-131.32 1168.61,-134.72 1178.57,-138.32 1178.65,-131.32"/>
</g>
<!-- Node9&#45;&gt;Node8 -->
<g id="edge9" class="edge">
<title>Node9&#45;&gt;Node8</title>
<path fill="none" stroke="#9a32cd" stroke-dasharray="5,2" d="M532.93,-66.37C611.38,-74.26 731.14,-86.67 835,-99 903.46,-107.13 981.66,-117.56 1035.47,-124.91"/>
<polygon fill="#9a32cd" stroke="#9a32cd" points="532.91,-62.86 522.61,-65.34 532.22,-69.82 532.91,-62.86"/>
<text text-anchor="middle" x="768" y="-102" font-family="Helvetica,sans-Serif" font-size="10.00"> dispatch</text>
</g>
<!-- Node10 -->
<g id="node10" class="node">
<title>Node10</title>
<g id="a_node10"><a xlink:href="classccf_1_1RESTVerb.html" target="_top" xlink:title=" ">
<polygon fill="white" stroke="black" points="146.5,-38.5 146.5,-57.5 229.5,-57.5 229.5,-38.5 146.5,-38.5"/>
<text text-anchor="middle" x="188" y="-45.5" font-family="Helvetica,sans-Serif" font-size="10.00">ccf::RESTVerb</text>
</a>
</g>
</g>
<!-- Node10&#45;&gt;Node9 -->
<g id="edge11" class="edge">
<title>Node10&#45;&gt;Node9</title>
<path fill="none" stroke="#9a32cd" stroke-dasharray="5,2" d="M240.12,-47.28C270.35,-47.12 309.37,-47.36 344,-49 352.88,-49.42 362.18,-50.02 371.4,-50.71"/>
<polygon fill="#9a32cd" stroke="#9a32cd" points="239.79,-43.79 229.82,-47.36 239.84,-50.79 239.79,-43.79"/>
<text text-anchor="middle" x="298.5" y="-52" font-family="Helvetica,sans-Serif" font-size="10.00"> verb</text>
</g>
<!-- Node11&#45;&gt;Node8 -->
<g id="edge13" class="edge">
<title>Node11&#45;&gt;Node8</title>
<path fill="none" stroke="#9a32cd" stroke-dasharray="5,2" d="M844.71,-134C902.18,-134 980.4,-134 1035.26,-134"/>
<polygon fill="#9a32cd" stroke="#9a32cd" points="844.59,-130.5 834.59,-134 844.59,-137.5 844.59,-130.5"/>
<text text-anchor="middle" x="924.5" y="-137" font-family="Helvetica,sans-Serif" font-size="10.00"> properties</text>
</g>
<!-- Node12&#45;&gt;Node11 -->
<g id="edge14" class="edge">
<title>Node12&#45;&gt;Node11</title>
<path fill="none" stroke="#9a32cd" stroke-dasharray="5,2" d="M527.27,-100.89C572.95,-104.26 631.37,-109.49 683,-117 688.89,-117.86 694.99,-118.86 701.09,-119.94"/>
<polygon fill="#9a32cd" stroke="#9a32cd" points="527.36,-97.39 517.13,-100.16 526.85,-104.37 527.36,-97.39"/>
<text text-anchor="middle" x="616.5" y="-120" font-family="Helvetica,sans-Serif" font-size="10.00"> authn_policies</text>
</g>
<!-- Node13 -->
<g id="node13" class="node">
<title>Node13</title>
<g id="a_node13"><a xlink:title=" ">
<polygon fill="white" stroke="black" points="701,-12 701,-42 835,-42 835,-12 701,-12"/>
<text text-anchor="start" x="709" y="-30" font-family="Helvetica,sans-Serif" font-size="10.00">std::vector&lt; std::shared</text>
<text text-anchor="middle" x="768" y="-19" font-family="Helvetica,sans-Serif" font-size="10.00">_ptr&lt; AuthnPolicy &gt; &gt;</text>
</a>
</g>
</g>
<!-- Node13&#45;&gt;Node8 -->
<g id="edge17" class="edge">
<title>Node13&#45;&gt;Node8</title>
<path fill="none" stroke="#9a32cd" stroke-dasharray="5,2" d="M845.22,-17.57C893.49,-15.84 954.43,-22.02 996,-56 1015.26,-71.74 996,-91.83 1014,-109 1020.14,-114.86 1027.56,-119.35 1035.45,-122.81"/>
<polygon fill="#9a32cd" stroke="#9a32cd" points="844.94,-14.08 835.12,-18.05 845.28,-21.07 844.94,-14.08"/>
<text text-anchor="middle" x="924.5" y="-59" font-family="Helvetica,sans-Serif" font-size="10.00"> authn_policies</text>
</g>
<!-- Node14 -->
<g id="node14" class="node">
<title>Node14</title>
<g id="a_node14"><a xlink:title=" ">
<polygon fill="white" stroke="black" points="362,-5.5 362,-24.5 532,-24.5 532,-5.5 362,-5.5"/>
<text text-anchor="middle" x="447" y="-12.5" font-family="Helvetica,sans-Serif" font-size="10.00">std::shared_ptr&lt; AuthnPolicy &gt;</text>
</a>
</g>
</g>
<!-- Node14&#45;&gt;Node13 -->
<g id="edge18" class="edge">
<title>Node14&#45;&gt;Node13</title>
<path fill="none" stroke="#9a32cd" stroke-dasharray="5,2" d="M542.27,-18.55C593.23,-20.46 654.91,-22.78 700.76,-24.51"/>
<polygon fill="#9a32cd" stroke="#9a32cd" points="542.36,-15.05 532.23,-18.17 542.09,-22.04 542.36,-15.05"/>
<text text-anchor="middle" x="616.5" y="-27" font-family="Helvetica,sans-Serif" font-size="10.00"> elements</text>
</g>
<!-- Node15 -->
<g id="node15" class="node">
<title>Node15</title>
<g id="a_node15"><a xlink:href="classccf_1_1AuthnPolicy.html" target="_top" xlink:title=" ">
<polygon fill="white" stroke="black" points="141,-0.5 141,-19.5 235,-19.5 235,-0.5 141,-0.5"/>
<text text-anchor="middle" x="188" y="-7.5" font-family="Helvetica,sans-Serif" font-size="10.00">ccf::AuthnPolicy</text>
</a>
</g>
</g>
<!-- Node15&#45;&gt;Node14 -->
<g id="edge19" class="edge">
<title>Node15&#45;&gt;Node14</title>
<path fill="none" stroke="#9a32cd" stroke-dasharray="5,2" d="M245.5,-11.1C279.63,-11.76 323.77,-12.62 361.94,-13.36"/>
<polygon fill="#9a32cd" stroke="#9a32cd" points="245.31,-7.59 235.24,-10.9 245.17,-14.59 245.31,-7.59"/>
<text text-anchor="middle" x="298.5" y="-16" font-family="Helvetica,sans-Serif" font-size="10.00"> ptr</text>
</g>
<!-- Node16 -->
<g id="node16" class="node">
<title>Node16</title>
<g id="a_node16"><a xlink:title=" ">
<polygon fill="white" stroke="black" points="1014,-80.5 1014,-99.5 1190,-99.5 1190,-80.5 1014,-80.5"/>
<text text-anchor="middle" x="1102" y="-87.5" font-family="Helvetica,sans-Serif" font-size="10.00">std::vector&lt; SchemaBuilderFn &gt;</text>
</a>
</g>
</g>
<!-- Node16&#45;&gt;Node7 -->
<g id="edge21" class="edge">
<title>Node16&#45;&gt;Node7</title>
<path fill="none" stroke="#9a32cd" stroke-dasharray="5,2" d="M1200.33,-98.49C1253.31,-103.64 1319.92,-110.96 1379,-120 1394.28,-122.34 1410.9,-125.45 1425.7,-128.43"/>
<polygon fill="#9a32cd" stroke="#9a32cd" points="1200.56,-95 1190.27,-97.53 1199.89,-101.97 1200.56,-95"/>
<text text-anchor="middle" x="1293.5" y="-123" font-family="Helvetica,sans-Serif" font-size="10.00"> schema_builders</text>
</g>
<!-- Node17&#45;&gt;Node1 -->
<g id="edge22" class="edge">
<title>Node17&#45;&gt;Node1</title>
<path fill="none" stroke="#9a32cd" stroke-dasharray="5,2" d="M1006.43,-410.35C1080.79,-410.64 1194.07,-411 1292.5,-411 1292.5,-411 1292.5,-411 1821.5,-411 1902.3,-411 1926.17,-390.01 1988,-338 2025.75,-306.24 2053.09,-253.18 2064.95,-227.23"/>
<polygon fill="#9a32cd" stroke="#9a32cd" points="1006.21,-406.85 996.2,-410.31 1006.18,-413.85 1006.21,-406.85"/>
<text text-anchor="middle" x="1471" y="-414" font-family="Helvetica,sans-Serif" font-size="10.00"> fully_qualified_endpoints</text>
</g>
<!-- Node18&#45;&gt;Node1 -->
<g id="edge24" class="edge">
<title>Node18&#45;&gt;Node1</title>
<path fill="none" stroke="#9a32cd" stroke-dasharray="5,2" d="M1389.76,-366.18C1506.74,-366.36 1710.95,-362.53 1884,-338 1931.07,-331.33 1947.67,-338.17 1988,-313 2022.93,-291.2 2050.21,-249.74 2063.19,-227.31"/>
<polygon fill="#9a32cd" stroke="#9a32cd" points="1389.42,-362.68 1379.41,-366.16 1389.4,-369.68 1389.42,-362.68"/>
<text text-anchor="middle" x="1651" y="-366" font-family="Helvetica,sans-Serif" font-size="10.00"> templated_endpoints</text>
</g>
<!-- Node19 -->
<g id="node19" class="node">
<title>Node19</title>
<g id="a_node19"><a xlink:title=" ">
<polygon fill="white" stroke="black" points="1786,-95.5 1786,-114.5 1855,-114.5 1855,-95.5 1786,-95.5"/>
<text text-anchor="middle" x="1820.5" y="-102.5" font-family="Helvetica,sans-Serif" font-size="10.00">std::mutex</text>
</a>
</g>
</g>
<!-- Node19&#45;&gt;Node1 -->
<g id="edge26" class="edge">
<title>Node19&#45;&gt;Node1</title>
<path fill="none" stroke="#9a32cd" stroke-dasharray="5,2" d="M1865.41,-107.01C1900.22,-110.08 1949.29,-117.78 1988,-137 2017.5,-151.64 2044.44,-179.64 2059.34,-196.98"/>
<polygon fill="#9a32cd" stroke="#9a32cd" points="1865.33,-103.49 1855.08,-106.2 1864.78,-110.47 1865.33,-103.49"/>
<text text-anchor="middle" x="1945" y="-140" font-family="Helvetica,sans-Serif" font-size="10.00"> metrics_lock</text>
</g>
<!-- Node20&#45;&gt;Node1 -->
<g id="edge27" class="edge">
<title>Node20&#45;&gt;Node1</title>
<path fill="none" stroke="#9a32cd" stroke-dasharray="5,2" d="M1749.23,-322.94C1818.54,-324.85 1912.45,-319.61 1988,-287 2018.41,-273.87 2045.26,-245.11 2059.86,-227.26"/>
<polygon fill="#9a32cd" stroke="#9a32cd" points="1749.3,-319.44 1739.19,-322.61 1749.07,-326.44 1749.3,-319.44"/>
<text text-anchor="middle" x="1820.5" y="-326" font-family="Helvetica,sans-Serif" font-size="10.00"> metrics</text>
</g>
<!-- Node21 -->
<g id="node21" class="node">
<title>Node21</title>
<g id="a_node21"><a xlink:href="classkv_1_1Consensus.html" target="_top" xlink:title=" ">
<polygon fill="white" stroke="black" points="1777.5,-57.5 1777.5,-76.5 1863.5,-76.5 1863.5,-57.5 1777.5,-57.5"/>
<text text-anchor="middle" x="1820.5" y="-64.5" font-family="Helvetica,sans-Serif" font-size="10.00">kv::Consensus</text>
</a>
</g>
</g>
<!-- Node21&#45;&gt;Node1 -->
<g id="edge29" class="edge">
<title>Node21&#45;&gt;Node1</title>
<path fill="none" stroke="#9a32cd" stroke-dasharray="5,2" d="M1874.02,-66.14C1908.75,-67.87 1953.97,-74.68 1988,-96 2027.32,-120.63 2053.75,-171.18 2065.14,-196.63"/>
<polygon fill="#9a32cd" stroke="#9a32cd" points="1873.73,-62.63 1863.6,-65.76 1873.47,-69.63 1873.73,-62.63"/>
<text text-anchor="middle" x="1945" y="-99" font-family="Helvetica,sans-Serif" font-size="10.00"> consensus</text>
</g>
<!-- Node22 -->
<g id="node22" class="node">
<title>Node22</title>
<g id="a_node22"><a xlink:href="classkv_1_1ConfigurableConsensus.html" target="_top" xlink:title=" ">
<polygon fill="white" stroke="black" points="1397,-57.5 1397,-76.5 1545,-76.5 1545,-57.5 1397,-57.5"/>
<text text-anchor="middle" x="1471" y="-64.5" font-family="Helvetica,sans-Serif" font-size="10.00">kv::ConfigurableConsensus</text>
</a>
</g>
</g>
<!-- Node22&#45;&gt;Node21 -->
<g id="edge30" class="edge">
<title>Node22&#45;&gt;Node21</title>
<path fill="none" stroke="midnightblue" d="M1555.4,-67C1625.42,-67 1722.57,-67 1777.41,-67"/>
<polygon fill="midnightblue" stroke="midnightblue" points="1555.27,-63.5 1545.27,-67 1555.27,-70.5 1555.27,-63.5"/>
</g>
<!-- Node23 -->
<g id="node23" class="node">
<title>Node23</title>
<g id="a_node23"><a xlink:href="classkv_1_1TxHistory.html" target="_top" xlink:title=" ">
<polygon fill="white" stroke="black" points="1780,-19.5 1780,-38.5 1861,-38.5 1861,-19.5 1780,-19.5"/>
<text text-anchor="middle" x="1820.5" y="-26.5" font-family="Helvetica,sans-Serif" font-size="10.00">kv::TxHistory</text>
</a>
</g>
</g>
<!-- Node23&#45;&gt;Node1 -->
<g id="edge31" class="edge">
<title>Node23&#45;&gt;Node1</title>
<path fill="none" stroke="#9a32cd" stroke-dasharray="5,2" d="M1871.36,-25.17C1906.93,-24.96 1954.25,-30.07 1988,-54 2038.11,-89.53 2060.66,-164.62 2068.3,-196.82"/>
<polygon fill="#9a32cd" stroke="#9a32cd" points="1871.12,-21.68 1861.19,-25.38 1871.26,-28.67 1871.12,-21.68"/>
<text text-anchor="middle" x="1945" y="-57" font-family="Helvetica,sans-Serif" font-size="10.00"> history</text>
</g>
</g>
</svg>
