<?xml version="1.0" encoding="UTF-8" standalone="no"?>
<!DOCTYPE svg PUBLIC "-//W3C//DTD SVG 1.1//EN"
 "http://www.w3.org/Graphics/SVG/1.1/DTD/svg11.dtd">
<!-- Generated by graphviz version 2.43.0 (0)
 -->
<!-- Title: ccf::ACMERpcEndpoints Pages: 1 -->
<!--zoomable 589 -->
<svg id="main" version="1.1" xmlns="http://www.w3.org/2000/svg" xmlns:xlink="http://www.w3.org/1999/xlink" xml:space="preserve" onload="init(evt)">
<style type="text/css"><![CDATA[
.edge:hover path { stroke: red; }
.edge:hover polygon { stroke: red; fill: red; }
]]></style>
<script type="text/javascript"><![CDATA[
var edges = document.getElementsByTagName('g');
if (edges && edges.length) {
  for (var i=0;i<edges.length;i++) {
    if (edges[i].id.substr(0,4)=='edge') {
      edges[i].setAttribute('class','edge');
    }
  }
}
]]></script>
        <defs>
                <circle id="rim" cx="0" cy="0" r="7"/>
                <circle id="rim2" cx="0" cy="0" r="3.5"/>
                <g id="zoomPlus">
                        <use xlink:href="#rim" fill="#404040">
                                <set attributeName="fill" to="#808080" begin="zoomplus.mouseover" end="zoomplus.mouseout"/>
                        </use>
                        <path d="M-4,0h8M0,-4v8" fill="none" stroke="white" stroke-width="1.5" pointer-events="none"/>
                </g>
                <g id="zoomMin">
                        <use xlink:href="#rim" fill="#404040">
                                <set attributeName="fill" to="#808080" begin="zoomminus.mouseover" end="zoomminus.mouseout"/>
                        </use>
                        <path d="M-4,0h8" fill="none" stroke="white" stroke-width="1.5" pointer-events="none"/>
                </g>
                <g id="dirArrow">
                        <path fill="none" stroke="white" stroke-width="1.5" d="M0,-3.0v7 M-2.5,-0.5L0,-3.0L2.5,-0.5"/>
                </g>
               <g id="resetDef">
                       <use xlink:href="#rim2" fill="#404040">
                               <set attributeName="fill" to="#808080" begin="reset.mouseover" end="reset.mouseout"/>
                       </use>
               </g>
        </defs>

<script type="text/javascript">
var viewWidth = 2878;
var viewHeight = 589;
var sectionId = 'dynsection-0';
</script>
<script xlink:href="svgpan.js"/>
<svg id="graph" class="graph">
<g id="viewport">
<title>ccf::ACMERpcEndpoints</title>
<polygon fill="white" stroke="transparent" points="-4,4 -4,-585.27 2874,-585.27 2874,4 -4,4"/>
<!-- Node1 -->
<g id="node1" class="node">
<title>Node1</title>
<g id="a_node1"><a xlink:title=" ">
<polygon fill="#bfbfbf" stroke="black" points="2739,-504.27 2739,-523.27 2870,-523.27 2870,-504.27 2739,-504.27"/>
<text text-anchor="middle" x="2804.5" y="-511.27" font-family="Helvetica,sans-Serif" font-size="10.00">ccf::ACMERpcEndpoints</text>
</a>
</g>
</g>
<!-- Node2 -->
<g id="node2" class="node">
<title>Node2</title>
<g id="a_node2"><a xlink:href="classccf_1_1CommonEndpointRegistry.html" target="_top" xlink:title=" ">
<polygon fill="white" stroke="black" points="2538,-483.27 2538,-502.27 2702,-502.27 2702,-483.27 2538,-483.27"/>
<text text-anchor="middle" x="2620" y="-490.27" font-family="Helvetica,sans-Serif" font-size="10.00">ccf::CommonEndpointRegistry</text>
</a>
</g>
</g>
<!-- Node2&#45;&gt;Node1 -->
<g id="edge1" class="edge">
<title>Node2&#45;&gt;Node1</title>
<path fill="none" stroke="midnightblue" d="M2712.22,-503.27C2721.19,-504.3 2730.17,-505.33 2738.79,-506.32"/>
<polygon fill="midnightblue" stroke="midnightblue" points="2712.44,-499.77 2702.11,-502.1 2711.64,-506.72 2712.44,-499.77"/>
</g>
<!-- Node3 -->
<g id="node3" class="node">
<title>Node3</title>
<g id="a_node3"><a xlink:href="classccf_1_1BaseEndpointRegistry.html" target="_top" xlink:title=" ">
<polygon fill="white" stroke="black" points="2358,-477.27 2358,-496.27 2501,-496.27 2501,-477.27 2358,-477.27"/>
<text text-anchor="middle" x="2429.5" y="-484.27" font-family="Helvetica,sans-Serif" font-size="10.00">ccf::BaseEndpointRegistry</text>
</a>
</g>
</g>
<!-- Node3&#45;&gt;Node2 -->
<g id="edge2" class="edge">
<title>Node3&#45;&gt;Node2</title>
<path fill="none" stroke="midnightblue" d="M2511.38,-489.34C2520.11,-489.62 2529,-489.9 2537.73,-490.18"/>
<polygon fill="midnightblue" stroke="midnightblue" points="2511.33,-485.84 2501.23,-489.02 2511.11,-492.84 2511.33,-485.84"/>
</g>
<!-- Node4 -->
<g id="node4" class="node">
<title>Node4</title>
<g id="a_node4"><a xlink:href="classccf_1_1endpoints_1_1EndpointRegistry.html" target="_top" xlink:title=" ">
<polygon fill="white" stroke="black" points="2188,-280.77 2188,-310.77 2321,-310.77 2321,-280.77 2188,-280.77"/>
<text text-anchor="start" x="2196" y="-298.77" font-family="Helvetica,sans-Serif" font-size="10.00">ccf::endpoints::Endpoint</text>
<text text-anchor="middle" x="2254.5" y="-287.77" font-family="Helvetica,sans-Serif" font-size="10.00">Registry</text>
</a>
</g>
</g>
<!-- Node4&#45;&gt;Node3 -->
<g id="edge3" class="edge">
<title>Node4&#45;&gt;Node3</title>
<path fill="none" stroke="midnightblue" d="M2276.16,-318.58C2314.14,-360.51 2393.52,-448.15 2419.83,-477.19"/>
<polygon fill="midnightblue" stroke="midnightblue" points="2278.67,-316.14 2269.36,-311.08 2273.48,-320.84 2278.67,-316.14"/>
</g>
<!-- Node5 -->
<g id="node5" class="node">
<title>Node5</title>
<g id="a_node5"><a xlink:href="structccf_1_1endpoints_1_1Endpoint_1_1Installer.html" target="_top" xlink:title=" ">
<polygon fill="white" stroke="black" points="1181.5,-67.77 1181.5,-97.77 1314.5,-97.77 1314.5,-67.77 1181.5,-67.77"/>
<text text-anchor="start" x="1189.5" y="-85.77" font-family="Helvetica,sans-Serif" font-size="10.00">ccf::endpoints::Endpoint</text>
<text text-anchor="middle" x="1248" y="-74.77" font-family="Helvetica,sans-Serif" font-size="10.00">::Installer</text>
</a>
</g>
</g>
<!-- Node5&#45;&gt;Node4 -->
<g id="edge4" class="edge">
<title>Node5&#45;&gt;Node4</title>
<path fill="none" stroke="midnightblue" d="M1307.29,-64.91C1463.1,-20.94 1895.99,76.02 2170,-109.77 2229.62,-150.19 2247.22,-243.88 2251.93,-280.61"/>
<polygon fill="midnightblue" stroke="midnightblue" points="1306.08,-61.61 1297.43,-67.72 1308.01,-68.34 1306.08,-61.61"/>
</g>
<!-- Node10 -->
<g id="node10" class="node">
<title>Node10</title>
<g id="a_node10"><a xlink:href="structccf_1_1endpoints_1_1Endpoint.html" target="_top" xlink:title=" ">
<polygon fill="white" stroke="black" points="1550.5,-150.27 1550.5,-169.27 1683.5,-169.27 1683.5,-150.27 1550.5,-150.27"/>
<text text-anchor="middle" x="1617" y="-157.27" font-family="Helvetica,sans-Serif" font-size="10.00">ccf::endpoints::Endpoint</text>
</a>
</g>
</g>
<!-- Node5&#45;&gt;Node10 -->
<g id="edge23" class="edge">
<title>Node5&#45;&gt;Node10</title>
<path fill="none" stroke="#9a32cd" stroke-dasharray="5,2" d="M1324.92,-90.15C1393.33,-97.26 1488.58,-108.43 1525,-118.77 1551.84,-126.39 1580.91,-140.64 1598.79,-150.17"/>
<polygon fill="#9a32cd" stroke="#9a32cd" points="1324.91,-86.63 1314.61,-89.09 1324.19,-93.6 1324.91,-86.63"/>
<text text-anchor="middle" x="1439.5" y="-121.77" font-family="Helvetica,sans-Serif" font-size="10.00"> installer</text>
</g>
<!-- Node6 -->
<g id="node6" class="node">
<title>Node6</title>
<g id="a_node6"><a xlink:title=" ">
<polygon fill="white" stroke="black" points="255,-285.27 255,-304.27 320,-304.27 320,-285.27 255,-285.27"/>
<text text-anchor="middle" x="287.5" y="-292.27" font-family="Helvetica,sans-Serif" font-size="10.00">std::string</text>
</a>
</g>
</g>
<!-- Node6&#45;&gt;Node4 -->
<g id="edge5" class="edge">
<title>Node6&#45;&gt;Node4</title>
<path fill="none" stroke="#9a32cd" stroke-dasharray="5,2" d="M329.98,-305.41C385.58,-318.72 487.54,-339.77 576,-339.77 576,-339.77 576,-339.77 1249,-339.77 1658.55,-339.77 1762.47,-350.39 2170,-309.77 2175.85,-309.19 2181.91,-308.44 2187.97,-307.61"/>
<polygon fill="#9a32cd" stroke="#9a32cd" points="330.7,-301.98 320.15,-303.02 329.05,-308.78 330.7,-301.98"/>
<text text-anchor="middle" x="1248" y="-342.77" font-family="Helvetica,sans-Serif" font-size="10.00"> method_prefix</text>
</g>
<!-- Node8 -->
<g id="node8" class="node">
<title>Node8</title>
<g id="a_node8"><a xlink:href="structccf_1_1endpoints_1_1EndpointRegistry_1_1OpenApiInfo.html" target="_top" xlink:title=" ">
<polygon fill="white" stroke="black" points="680,-425.77 680,-455.77 813,-455.77 813,-425.77 680,-425.77"/>
<text text-anchor="start" x="688" y="-443.77" font-family="Helvetica,sans-Serif" font-size="10.00">ccf::endpoints::Endpoint</text>
<text text-anchor="middle" x="746.5" y="-432.77" font-family="Helvetica,sans-Serif" font-size="10.00">Registry::OpenApiInfo</text>
</a>
</g>
</g>
<!-- Node6&#45;&gt;Node8 -->
<g id="edge8" class="edge">
<title>Node6&#45;&gt;Node8</title>
<path fill="none" stroke="#9a32cd" stroke-dasharray="5,2" d="M298.98,-313.29C314.04,-337.96 344.31,-380.81 383,-400.77 433.22,-426.68 589.65,-435.9 679.76,-439.12"/>
<polygon fill="#9a32cd" stroke="#9a32cd" points="301.9,-311.35 293.8,-304.52 295.87,-314.91 301.9,-311.35"/>
<text text-anchor="middle" x="428.5" y="-447.77" font-family="Helvetica,sans-Serif" font-size="10.00"> description</text>
<text text-anchor="middle" x="428.5" y="-436.77" font-family="Helvetica,sans-Serif" font-size="10.00">document_version</text>
<text text-anchor="middle" x="428.5" y="-425.77" font-family="Helvetica,sans-Serif" font-size="10.00">title</text>
</g>
<!-- Node11 -->
<g id="node11" class="node">
<title>Node11</title>
<g id="a_node11"><a xlink:href="structccf_1_1endpoints_1_1EndpointDefinition.html" target="_top" xlink:title=" ">
<polygon fill="white" stroke="black" points="1181.5,-157.77 1181.5,-187.77 1314.5,-187.77 1314.5,-157.77 1181.5,-157.77"/>
<text text-anchor="start" x="1189.5" y="-175.77" font-family="Helvetica,sans-Serif" font-size="10.00">ccf::endpoints::Endpoint</text>
<text text-anchor="middle" x="1248" y="-164.77" font-family="Helvetica,sans-Serif" font-size="10.00">Definition</text>
</a>
</g>
</g>
<!-- Node6&#45;&gt;Node11 -->
<g id="edge15" class="edge">
<title>Node6&#45;&gt;Node11</title>
<path fill="none" stroke="#9a32cd" stroke-dasharray="5,2" d="M309.65,-279.32C328.04,-266.8 355.92,-249.94 383,-241.77 544.93,-192.91 973.61,-200.71 1142,-184.77 1154.69,-183.57 1168.24,-182.13 1181.23,-180.68"/>
<polygon fill="#9a32cd" stroke="#9a32cd" points="307.62,-276.47 301.43,-285.07 311.63,-282.21 307.62,-276.47"/>
<text text-anchor="middle" x="746.5" y="-217.77" font-family="Helvetica,sans-Serif" font-size="10.00"> api_uri_path</text>
<text text-anchor="middle" x="746.5" y="-206.77" font-family="Helvetica,sans-Serif" font-size="10.00">full_uri_path</text>
</g>
<!-- Node12 -->
<g id="node12" class="node">
<title>Node12</title>
<g id="a_node12"><a xlink:href="structccf_1_1endpoints_1_1EndpointKey.html" target="_top" xlink:title=" ">
<polygon fill="white" stroke="black" points="501.5,-36.27 501.5,-55.27 652.5,-55.27 652.5,-36.27 501.5,-36.27"/>
<text text-anchor="middle" x="577" y="-43.27" font-family="Helvetica,sans-Serif" font-size="10.00">ccf::endpoints::EndpointKey</text>
</a>
</g>
</g>
<!-- Node6&#45;&gt;Node12 -->
<g id="edge13" class="edge">
<title>Node6&#45;&gt;Node12</title>
<path fill="none" stroke="#9a32cd" stroke-dasharray="5,2" d="M292.54,-275.09C301.57,-236.29 327.13,-149.8 383,-104.77 415.48,-78.59 437.43,-101.85 474,-81.77 483.65,-76.47 482.29,-69.94 492,-64.77 499.26,-60.9 507.27,-57.82 515.39,-55.36"/>
<polygon fill="#9a32cd" stroke="#9a32cd" points="289.07,-274.58 290.34,-285.1 295.91,-276.09 289.07,-274.58"/>
<text text-anchor="middle" x="428.5" y="-107.77" font-family="Helvetica,sans-Serif" font-size="10.00"> uri_path</text>
</g>
<!-- Node14 -->
<g id="node14" class="node">
<title>Node14</title>
<g id="a_node14"><a xlink:href="structccf_1_1endpoints_1_1EndpointProperties.html" target="_top" xlink:title=" ">
<polygon fill="white" stroke="black" points="831.5,-150.77 831.5,-180.77 964.5,-180.77 964.5,-150.77 831.5,-150.77"/>
<text text-anchor="start" x="839.5" y="-168.77" font-family="Helvetica,sans-Serif" font-size="10.00">ccf::endpoints::Endpoint</text>
<text text-anchor="middle" x="898" y="-157.77" font-family="Helvetica,sans-Serif" font-size="10.00">Properties</text>
</a>
</g>
</g>
<!-- Node6&#45;&gt;Node14 -->
<g id="edge19" class="edge">
<title>Node6&#45;&gt;Node14</title>
<path fill="none" stroke="#9a32cd" stroke-dasharray="5,2" d="M297.39,-276.15C311.56,-248.47 341.94,-196.74 383,-168.77 424.53,-140.48 442.21,-145.5 492,-138.77 611.07,-122.68 751.18,-140 831.49,-153.36"/>
<polygon fill="#9a32cd" stroke="#9a32cd" points="294.22,-274.66 292.91,-285.17 300.49,-277.77 294.22,-274.66"/>
<text text-anchor="middle" x="577" y="-152.77" font-family="Helvetica,sans-Serif" font-size="10.00"> js_function</text>
<text text-anchor="middle" x="577" y="-141.77" font-family="Helvetica,sans-Serif" font-size="10.00">js_module</text>
</g>
<!-- Node15 -->
<g id="node15" class="node">
<title>Node15</title>
<g id="a_node15"><a xlink:title=" ">
<polygon fill="white" stroke="black" points="507,-170.27 507,-189.27 647,-189.27 647,-170.27 507,-170.27"/>
<text text-anchor="middle" x="577" y="-177.27" font-family="Helvetica,sans-Serif" font-size="10.00">std::vector&lt; std::string &gt;</text>
</a>
</g>
</g>
<!-- Node6&#45;&gt;Node15 -->
<g id="edge18" class="edge">
<title>Node6&#45;&gt;Node15</title>
<path fill="none" stroke="#9a32cd" stroke-dasharray="5,2" d="M299.04,-276.71C314.18,-252.69 344.54,-211.13 383,-192.77 421.19,-174.54 468.54,-171.11 506.78,-172.32"/>
<polygon fill="#9a32cd" stroke="#9a32cd" points="296.05,-274.89 293.83,-285.25 302.03,-278.53 296.05,-274.89"/>
<text text-anchor="middle" x="428.5" y="-195.77" font-family="Helvetica,sans-Serif" font-size="10.00"> elements</text>
</g>
<!-- Node20 -->
<g id="node20" class="node">
<title>Node20</title>
<g id="a_node20"><a xlink:title=" ">
<polygon fill="white" stroke="black" points="991,-381.27 991,-422.27 1134,-422.27 1134,-381.27 991,-381.27"/>
<text text-anchor="start" x="999" y="-410.27" font-family="Helvetica,sans-Serif" font-size="10.00">std::map&lt; std::string,</text>
<text text-anchor="start" x="999" y="-399.27" font-family="Helvetica,sans-Serif" font-size="10.00"> std::map&lt; ccf::RESTVerb,</text>
<text text-anchor="middle" x="1062.5" y="-388.27" font-family="Helvetica,sans-Serif" font-size="10.00"> EndpointPtr &gt; &gt;</text>
</a>
</g>
</g>
<!-- Node6&#45;&gt;Node20 -->
<g id="edge26" class="edge">
<title>Node6&#45;&gt;Node20</title>
<path fill="none" stroke="#9a32cd" stroke-dasharray="5,2" d="M307.82,-310.83C325.98,-324.91 354.55,-344.52 383,-353.77 595.53,-422.88 864.63,-416.04 990.52,-407.78"/>
<polygon fill="#9a32cd" stroke="#9a32cd" points="309.79,-307.93 299.79,-304.44 305.43,-313.4 309.79,-307.93"/>
<text text-anchor="middle" x="577" y="-407.77" font-family="Helvetica,sans-Serif" font-size="10.00"> keys</text>
</g>
<!-- Node21 -->
<g id="node21" class="node">
<title>Node21</title>
<g id="a_node21"><a xlink:title=" ">
<polygon fill="white" stroke="black" points="1354,-271.77 1354,-323.77 1525,-323.77 1525,-271.77 1354,-271.77"/>
<text text-anchor="start" x="1362" y="-311.77" font-family="Helvetica,sans-Serif" font-size="10.00">std::map&lt; std::string,</text>
<text text-anchor="start" x="1362" y="-300.77" font-family="Helvetica,sans-Serif" font-size="10.00"> std::map&lt; ccf::RESTVerb,</text>
<text text-anchor="start" x="1362" y="-289.77" font-family="Helvetica,sans-Serif" font-size="10.00"> std::shared_ptr&lt; ccf::endpoints</text>
<text text-anchor="middle" x="1439.5" y="-278.77" font-family="Helvetica,sans-Serif" font-size="10.00">::PathTemplatedEndpoint &gt; &gt; &gt;</text>
</a>
</g>
</g>
<!-- Node6&#45;&gt;Node21 -->
<g id="edge28" class="edge">
<title>Node6&#45;&gt;Node21</title>
<path fill="none" stroke="#9a32cd" stroke-dasharray="5,2" d="M330.31,-294.88C498.08,-295.32 1124.38,-296.95 1353.69,-297.55"/>
<polygon fill="#9a32cd" stroke="#9a32cd" points="330.17,-291.38 320.16,-294.85 330.15,-298.38 330.17,-291.38"/>
<text text-anchor="middle" x="746.5" y="-298.77" font-family="Helvetica,sans-Serif" font-size="10.00"> keys</text>
</g>
<!-- Node23 -->
<g id="node23" class="node">
<title>Node23</title>
<g id="a_node23"><a xlink:title=" ">
<polygon fill="white" stroke="black" points="1709,-219.77 1709,-271.77 1885,-271.77 1885,-219.77 1709,-219.77"/>
<text text-anchor="start" x="1717" y="-259.77" font-family="Helvetica,sans-Serif" font-size="10.00">std::map&lt; std::string,</text>
<text text-anchor="start" x="1717" y="-248.77" font-family="Helvetica,sans-Serif" font-size="10.00"> std::map&lt; std::string,</text>
<text text-anchor="start" x="1717" y="-237.77" font-family="Helvetica,sans-Serif" font-size="10.00"> ccf::endpoints::EndpointRegistry</text>
<text text-anchor="middle" x="1797" y="-226.77" font-family="Helvetica,sans-Serif" font-size="10.00">::Metrics &gt; &gt;</text>
</a>
</g>
</g>
<!-- Node6&#45;&gt;Node23 -->
<g id="edge31" class="edge">
<title>Node6&#45;&gt;Node23</title>
<path fill="none" stroke="#9a32cd" stroke-dasharray="5,2" d="M330.06,-285.55C385.75,-274.02 487.8,-255.77 576,-255.77 576,-255.77 576,-255.77 1440.5,-255.77 1532.03,-255.77 1636.77,-252.42 1708.73,-249.59"/>
<polygon fill="#9a32cd" stroke="#9a32cd" points="329.28,-282.13 320.22,-287.62 330.72,-288.98 329.28,-282.13"/>
<text text-anchor="middle" x="898" y="-258.77" font-family="Helvetica,sans-Serif" font-size="10.00"> keys</text>
</g>
<!-- Node28 -->
<g id="node28" class="node">
<title>Node28</title>
<g id="a_node28"><a xlink:title=" ">
<polygon fill="white" stroke="black" points="494,-463.27 494,-504.27 660,-504.27 660,-463.27 494,-463.27"/>
<text text-anchor="start" x="502" y="-492.27" font-family="Helvetica,sans-Serif" font-size="10.00">std::map&lt; std::string,</text>
<text text-anchor="start" x="502" y="-481.27" font-family="Helvetica,sans-Serif" font-size="10.00"> std::shared_ptr&lt; ccf</text>
<text text-anchor="middle" x="577" y="-470.27" font-family="Helvetica,sans-Serif" font-size="10.00">::AbstractNodeSubSystem &gt; &gt;</text>
</a>
</g>
</g>
<!-- Node6&#45;&gt;Node28 -->
<g id="edge37" class="edge">
<title>Node6&#45;&gt;Node28</title>
<path fill="none" stroke="#9a32cd" stroke-dasharray="5,2" d="M293.3,-314.04C303.28,-349.69 329.92,-425.54 383,-460.77 415.19,-482.14 457.2,-488.99 493.8,-490.04"/>
<polygon fill="#9a32cd" stroke="#9a32cd" points="296.68,-313.11 290.72,-304.35 289.91,-314.91 296.68,-313.11"/>
<text text-anchor="middle" x="428.5" y="-490.77" font-family="Helvetica,sans-Serif" font-size="10.00"> keys</text>
</g>
<!-- Node31 -->
<g id="node31" class="node">
<title>Node31</title>
<g id="a_node31"><a xlink:title=" ">
<polygon fill="white" stroke="black" points="2048,-517.77 2048,-547.77 2170,-547.77 2170,-517.77 2048,-517.77"/>
<text text-anchor="start" x="2056" y="-535.77" font-family="Helvetica,sans-Serif" font-size="10.00">std::map&lt; std::string,</text>
<text text-anchor="middle" x="2109" y="-524.77" font-family="Helvetica,sans-Serif" font-size="10.00"> std::string &gt;</text>
</a>
</g>
</g>
<!-- Node6&#45;&gt;Node31 -->
<g id="edge41" class="edge">
<title>Node6&#45;&gt;Node31</title>
<path fill="none" stroke="#9a32cd" stroke-dasharray="5,2" d="M291.24,-314.74C298.16,-356.97 320.49,-455.32 383,-502.77 452.14,-555.25 489.19,-532.77 576,-532.77 576,-532.77 576,-532.77 1798,-532.77 1884.92,-532.77 1985.55,-532.77 2047.99,-532.77"/>
<polygon fill="#9a32cd" stroke="#9a32cd" points="294.66,-313.99 289.7,-304.62 287.74,-315.03 294.66,-313.99"/>
<text text-anchor="middle" x="1062.5" y="-546.77" font-family="Helvetica,sans-Serif" font-size="10.00"> elements</text>
<text text-anchor="middle" x="1062.5" y="-535.77" font-family="Helvetica,sans-Serif" font-size="10.00">keys</text>
</g>
<!-- Node7 -->
<g id="node7" class="node">
<title>Node7</title>
<g id="a_node7"><a xlink:title=" ">
<polygon fill="white" stroke="black" points="26.5,-279.77 26.5,-309.77 130.5,-309.77 130.5,-279.77 26.5,-279.77"/>
<text text-anchor="start" x="34.5" y="-297.77" font-family="Helvetica,sans-Serif" font-size="10.00">std::basic_string&lt;</text>
<text text-anchor="middle" x="78.5" y="-286.77" font-family="Helvetica,sans-Serif" font-size="10.00"> Char &gt;</text>
</a>
</g>
</g>
<!-- Node7&#45;&gt;Node6 -->
<g id="edge6" class="edge">
<title>Node7&#45;&gt;Node6</title>
<path fill="none" stroke="midnightblue" d="M140.98,-294.77C178.43,-294.77 224.72,-294.77 254.89,-294.77"/>
<polygon fill="midnightblue" stroke="midnightblue" points="140.67,-291.27 130.67,-294.77 140.67,-298.27 140.67,-291.27"/>
</g>
<!-- Node8&#45;&gt;Node4 -->
<g id="edge7" class="edge">
<title>Node8&#45;&gt;Node4</title>
<path fill="none" stroke="#9a32cd" stroke-dasharray="5,2" d="M823.34,-446.8C886.9,-451.34 980.06,-456.77 1061.5,-456.77 1061.5,-456.77 1061.5,-456.77 1967.5,-456.77 2059.42,-456.77 2093.2,-465.27 2170,-414.77 2209.64,-388.7 2236.09,-336.74 2247.35,-310.98"/>
<polygon fill="#9a32cd" stroke="#9a32cd" points="823.23,-443.28 813,-446.05 822.72,-450.27 823.23,-443.28"/>
<text text-anchor="middle" x="1439.5" y="-459.77" font-family="Helvetica,sans-Serif" font-size="10.00"> openapi_info</text>
</g>
<!-- Node9 -->
<g id="node9" class="node">
<title>Node9</title>
<g id="a_node9"><a xlink:title=" ">
<polygon fill="white" stroke="black" points="1903,-189.77 1903,-219.77 2030,-219.77 2030,-189.77 1903,-189.77"/>
<text text-anchor="start" x="1911" y="-207.77" font-family="Helvetica,sans-Serif" font-size="10.00">std::shared_ptr&lt; const</text>
<text text-anchor="middle" x="1966.5" y="-196.77" font-family="Helvetica,sans-Serif" font-size="10.00"> Endpoint &gt;</text>
</a>
</g>
</g>
<!-- Node9&#45;&gt;Node4 -->
<g id="edge9" class="edge">
<title>Node9&#45;&gt;Node4</title>
<path fill="none" stroke="#9a32cd" stroke-dasharray="5,2" d="M2040.47,-205.42C2080.09,-207.98 2129.16,-214.83 2170,-231.77 2197.16,-243.04 2223.19,-265.45 2238.76,-280.53"/>
<polygon fill="#9a32cd" stroke="#9a32cd" points="2040.54,-201.92 2030.36,-204.84 2040.14,-208.91 2040.54,-201.92"/>
<text text-anchor="middle" x="2109" y="-234.77" font-family="Helvetica,sans-Serif" font-size="10.00"> default_endpoint</text>
</g>
<!-- Node10&#45;&gt;Node9 -->
<g id="edge10" class="edge">
<title>Node10&#45;&gt;Node9</title>
<path fill="none" stroke="#9a32cd" stroke-dasharray="5,2" d="M1693.98,-169.61C1756.59,-177.72 1844.31,-189.08 1902.92,-196.67"/>
<polygon fill="#9a32cd" stroke="#9a32cd" points="1694.14,-166.1 1683.77,-168.29 1693.24,-173.04 1694.14,-166.1"/>
<text text-anchor="middle" x="1797" y="-196.77" font-family="Helvetica,sans-Serif" font-size="10.00"> ptr</text>
</g>
<!-- Node11&#45;&gt;Node10 -->
<g id="edge11" class="edge">
<title>Node11&#45;&gt;Node10</title>
<path fill="none" stroke="midnightblue" d="M1324.62,-170.09C1391.13,-167.73 1486.98,-164.34 1550.34,-162.1"/>
<polygon fill="midnightblue" stroke="midnightblue" points="1324.48,-166.59 1314.61,-170.45 1324.73,-173.59 1324.48,-166.59"/>
</g>
<!-- Node12&#45;&gt;Node11 -->
<g id="edge12" class="edge">
<title>Node12&#45;&gt;Node11</title>
<path fill="none" stroke="#9a32cd" stroke-dasharray="5,2" d="M643.4,-34.89C757.04,-19.79 993.07,-5.73 1142,-117.77 1154.43,-127.12 1147.67,-138.3 1160,-147.77 1166.36,-152.65 1173.63,-156.58 1181.21,-159.74"/>
<polygon fill="#9a32cd" stroke="#9a32cd" points="642.88,-31.43 633.45,-36.26 643.83,-38.36 642.88,-31.43"/>
<text text-anchor="middle" x="898" y="-44.77" font-family="Helvetica,sans-Serif" font-size="10.00"> dispatch</text>
</g>
<!-- Node13 -->
<g id="node13" class="node">
<title>Node13</title>
<g id="a_node13"><a xlink:href="classccf_1_1RESTVerb.html" target="_top" xlink:title=" ">
<polygon fill="white" stroke="black" points="246,-22.27 246,-41.27 329,-41.27 329,-22.27 246,-22.27"/>
<text text-anchor="middle" x="287.5" y="-29.27" font-family="Helvetica,sans-Serif" font-size="10.00">ccf::RESTVerb</text>
</a>
</g>
</g>
<!-- Node13&#45;&gt;Node12 -->
<g id="edge14" class="edge">
<title>Node13&#45;&gt;Node12</title>
<path fill="none" stroke="#9a32cd" stroke-dasharray="5,2" d="M339.18,-32.3C376.48,-32.9 428.43,-34.15 474,-36.77 482.87,-37.28 492.17,-37.93 501.39,-38.66"/>
<polygon fill="#9a32cd" stroke="#9a32cd" points="339.11,-28.8 329.06,-32.15 339.01,-35.8 339.11,-28.8"/>
<text text-anchor="middle" x="428.5" y="-39.77" font-family="Helvetica,sans-Serif" font-size="10.00"> verb</text>
</g>
<!-- Node14&#45;&gt;Node11 -->
<g id="edge16" class="edge">
<title>Node14&#45;&gt;Node11</title>
<path fill="none" stroke="#9a32cd" stroke-dasharray="5,2" d="M974.93,-167.3C1036.61,-168.54 1122.69,-170.27 1181.4,-171.45"/>
<polygon fill="#9a32cd" stroke="#9a32cd" points="974.93,-163.8 964.87,-167.09 974.79,-170.8 974.93,-163.8"/>
<text text-anchor="middle" x="1062.5" y="-172.77" font-family="Helvetica,sans-Serif" font-size="10.00"> properties</text>
</g>
<!-- Node15&#45;&gt;Node14 -->
<g id="edge17" class="edge">
<title>Node15&#45;&gt;Node14</title>
<path fill="none" stroke="#9a32cd" stroke-dasharray="5,2" d="M657.38,-176.29C711.02,-173.93 780.99,-170.86 831.46,-168.65"/>
<polygon fill="#9a32cd" stroke="#9a32cd" points="657.06,-172.8 647.22,-176.73 657.36,-179.79 657.06,-172.8"/>
<text text-anchor="middle" x="746.5" y="-177.77" font-family="Helvetica,sans-Serif" font-size="10.00"> authn_policies</text>
</g>
<!-- Node16 -->
<g id="node16" class="node">
<title>Node16</title>
<g id="a_node16"><a xlink:title=" ">
<polygon fill="white" stroke="black" points="831,-90.77 831,-120.77 965,-120.77 965,-90.77 831,-90.77"/>
<text text-anchor="start" x="839" y="-108.77" font-family="Helvetica,sans-Serif" font-size="10.00">std::vector&lt; std::shared</text>
<text text-anchor="middle" x="898" y="-97.77" font-family="Helvetica,sans-Serif" font-size="10.00">_ptr&lt; AuthnPolicy &gt; &gt;</text>
</a>
</g>
</g>
<!-- Node16&#45;&gt;Node11 -->
<g id="edge20" class="edge">
<title>Node16&#45;&gt;Node11</title>
<path fill="none" stroke="#9a32cd" stroke-dasharray="5,2" d="M975.03,-119.95C1022.96,-128.95 1086.13,-140.89 1142,-151.77 1154.77,-154.26 1168.41,-156.95 1181.49,-159.56"/>
<polygon fill="#9a32cd" stroke="#9a32cd" points="975.52,-116.48 965.04,-118.08 974.23,-123.36 975.52,-116.48"/>
<text text-anchor="middle" x="1062.5" y="-154.77" font-family="Helvetica,sans-Serif" font-size="10.00"> authn_policies</text>
</g>
<!-- Node17 -->
<g id="node17" class="node">
<title>Node17</title>
<g id="a_node17"><a xlink:title=" ">
<polygon fill="white" stroke="black" points="492,-74.27 492,-93.27 662,-93.27 662,-74.27 492,-74.27"/>
<text text-anchor="middle" x="577" y="-81.27" font-family="Helvetica,sans-Serif" font-size="10.00">std::shared_ptr&lt; AuthnPolicy &gt;</text>
</a>
</g>
</g>
<!-- Node17&#45;&gt;Node16 -->
<g id="edge21" class="edge">
<title>Node17&#45;&gt;Node16</title>
<path fill="none" stroke="#9a32cd" stroke-dasharray="5,2" d="M672.27,-90.27C723.23,-93.79 784.91,-98.04 830.76,-101.2"/>
<polygon fill="#9a32cd" stroke="#9a32cd" points="672.45,-86.78 662.23,-89.58 671.97,-93.76 672.45,-86.78"/>
<text text-anchor="middle" x="746.5" y="-102.77" font-family="Helvetica,sans-Serif" font-size="10.00"> elements</text>
</g>
<!-- Node18 -->
<g id="node18" class="node">
<title>Node18</title>
<g id="a_node18"><a xlink:href="classccf_1_1AuthnPolicy.html" target="_top" xlink:title=" ">
<polygon fill="white" stroke="black" points="240.5,-60.27 240.5,-79.27 334.5,-79.27 334.5,-60.27 240.5,-60.27"/>
<text text-anchor="middle" x="287.5" y="-67.27" font-family="Helvetica,sans-Serif" font-size="10.00">ccf::AuthnPolicy</text>
</a>
</g>
</g>
<!-- Node18&#45;&gt;Node17 -->
<g id="edge22" class="edge">
<title>Node18&#45;&gt;Node17</title>
<path fill="none" stroke="#9a32cd" stroke-dasharray="5,2" d="M344.72,-68.3C381.53,-67.78 430.67,-67.9 474,-70.77 485.93,-71.56 498.61,-72.83 510.82,-74.27"/>
<polygon fill="#9a32cd" stroke="#9a32cd" points="344.62,-64.8 334.68,-68.47 344.73,-71.8 344.62,-64.8"/>
<text text-anchor="middle" x="428.5" y="-73.77" font-family="Helvetica,sans-Serif" font-size="10.00"> ptr</text>
</g>
<!-- Node19 -->
<g id="node19" class="node">
<title>Node19</title>
<g id="a_node19"><a xlink:title=" ">
<polygon fill="white" stroke="black" points="1160,-119.27 1160,-138.27 1336,-138.27 1336,-119.27 1160,-119.27"/>
<text text-anchor="middle" x="1248" y="-126.27" font-family="Helvetica,sans-Serif" font-size="10.00">std::vector&lt; SchemaBuilderFn &gt;</text>
</a>
</g>
</g>
<!-- Node19&#45;&gt;Node10 -->
<g id="edge24" class="edge">
<title>Node19&#45;&gt;Node10</title>
<path fill="none" stroke="#9a32cd" stroke-dasharray="5,2" d="M1346.19,-133.98C1399.12,-137.18 1465.74,-141.83 1525,-147.77 1533.25,-148.6 1541.9,-149.58 1550.45,-150.63"/>
<polygon fill="#9a32cd" stroke="#9a32cd" points="1346.32,-130.48 1336.13,-133.37 1345.9,-137.46 1346.32,-130.48"/>
<text text-anchor="middle" x="1439.5" y="-150.77" font-family="Helvetica,sans-Serif" font-size="10.00"> schema_builders</text>
</g>
<!-- Node20&#45;&gt;Node4 -->
<g id="edge25" class="edge">
<title>Node20&#45;&gt;Node4</title>
<path fill="none" stroke="#9a32cd" stroke-dasharray="5,2" d="M1144.74,-407.24C1220.67,-411.87 1337.21,-417.77 1438.5,-417.77 1438.5,-417.77 1438.5,-417.77 1967.5,-417.77 2058.76,-417.77 2089.44,-426.64 2170,-383.77 2202.72,-366.36 2229.92,-331.29 2243.72,-311.08"/>
<polygon fill="#9a32cd" stroke="#9a32cd" points="1144.5,-403.72 1134.31,-406.59 1144.07,-410.7 1144.5,-403.72"/>
<text text-anchor="middle" x="1617" y="-420.77" font-family="Helvetica,sans-Serif" font-size="10.00"> fully_qualified_endpoints</text>
</g>
<!-- Node21&#45;&gt;Node4 -->
<g id="edge27" class="edge">
<title>Node21&#45;&gt;Node4</title>
<path fill="none" stroke="#9a32cd" stroke-dasharray="5,2" d="M1535.46,-297.54C1702.39,-297.13 2044.34,-296.28 2187.82,-295.93"/>
<polygon fill="#9a32cd" stroke="#9a32cd" points="1535.2,-294.04 1525.2,-297.56 1535.21,-301.04 1535.2,-294.04"/>
<text text-anchor="middle" x="1797" y="-299.77" font-family="Helvetica,sans-Serif" font-size="10.00"> templated_endpoints</text>
</g>
<!-- Node22 -->
<g id="node22" class="node">
<title>Node22</title>
<g id="a_node22"><a xlink:title=" ">
<polygon fill="white" stroke="black" points="1932,-151.27 1932,-170.27 2001,-170.27 2001,-151.27 1932,-151.27"/>
<text text-anchor="middle" x="1966.5" y="-158.27" font-family="Helvetica,sans-Serif" font-size="10.00">std::mutex</text>
</a>
</g>
</g>
<!-- Node22&#45;&gt;Node4 -->
<g id="edge29" class="edge">
<title>Node22&#45;&gt;Node4</title>
<path fill="none" stroke="#9a32cd" stroke-dasharray="5,2" d="M2011.31,-158.27C2054.49,-157.79 2120.93,-162.48 2170,-190.77 2207.13,-212.18 2234.02,-257.05 2246.21,-280.6"/>
<polygon fill="#9a32cd" stroke="#9a32cd" points="2011.05,-154.78 2001.13,-158.49 2011.2,-161.78 2011.05,-154.78"/>
<text text-anchor="middle" x="2109" y="-193.77" font-family="Helvetica,sans-Serif" font-size="10.00"> metrics_lock</text>
</g>
<!-- Node23&#45;&gt;Node4 -->
<g id="edge30" class="edge">
<title>Node23&#45;&gt;Node4</title>
<path fill="none" stroke="#9a32cd" stroke-dasharray="5,2" d="M1895.4,-253.33C1970.57,-259.61 2077.08,-269.5 2170,-281.77 2175.83,-282.54 2181.87,-283.41 2187.93,-284.33"/>
<polygon fill="#9a32cd" stroke="#9a32cd" points="1895.27,-249.81 1885.01,-252.47 1894.69,-256.78 1895.27,-249.81"/>
<text text-anchor="middle" x="1966.5" y="-267.77" font-family="Helvetica,sans-Serif" font-size="10.00"> metrics</text>
</g>
<!-- Node24 -->
<g id="node24" class="node">
<title>Node24</title>
<g id="a_node24"><a xlink:href="classkv_1_1Consensus.html" target="_top" xlink:title=" ">
<polygon fill="white" stroke="black" points="1923.5,-362.27 1923.5,-381.27 2009.5,-381.27 2009.5,-362.27 1923.5,-362.27"/>
<text text-anchor="middle" x="1966.5" y="-369.27" font-family="Helvetica,sans-Serif" font-size="10.00">kv::Consensus</text>
</a>
</g>
</g>
<!-- Node24&#45;&gt;Node4 -->
<g id="edge32" class="edge">
<title>Node24&#45;&gt;Node4</title>
<path fill="none" stroke="#9a32cd" stroke-dasharray="5,2" d="M2019.99,-371.34C2061.7,-369.58 2120.97,-363.87 2170,-346.77 2193.74,-338.49 2217.94,-322.74 2234.13,-310.92"/>
<polygon fill="#9a32cd" stroke="#9a32cd" points="2019.65,-367.85 2009.78,-371.71 2019.9,-374.85 2019.65,-367.85"/>
<text text-anchor="middle" x="2109" y="-371.77" font-family="Helvetica,sans-Serif" font-size="10.00"> consensus</text>
</g>
<!-- Node25 -->
<g id="node25" class="node">
<title>Node25</title>
<g id="a_node25"><a xlink:href="classkv_1_1ConfigurableConsensus.html" target="_top" xlink:title=" ">
<polygon fill="white" stroke="black" points="1543,-362.27 1543,-381.27 1691,-381.27 1691,-362.27 1543,-362.27"/>
<text text-anchor="middle" x="1617" y="-369.27" font-family="Helvetica,sans-Serif" font-size="10.00">kv::ConfigurableConsensus</text>
</a>
</g>
</g>
<!-- Node25&#45;&gt;Node24 -->
<g id="edge33" class="edge">
<title>Node25&#45;&gt;Node24</title>
<path fill="none" stroke="midnightblue" d="M1701.4,-371.77C1771.42,-371.77 1868.57,-371.77 1923.41,-371.77"/>
<polygon fill="midnightblue" stroke="midnightblue" points="1701.27,-368.27 1691.27,-371.77 1701.27,-375.27 1701.27,-368.27"/>
</g>
<!-- Node26 -->
<g id="node26" class="node">
<title>Node26</title>
<g id="a_node26"><a xlink:href="classkv_1_1TxHistory.html" target="_top" xlink:title=" ">
<polygon fill="white" stroke="black" points="1926,-113.27 1926,-132.27 2007,-132.27 2007,-113.27 1926,-113.27"/>
<text text-anchor="middle" x="1966.5" y="-120.27" font-family="Helvetica,sans-Serif" font-size="10.00">kv::TxHistory</text>
</a>
</g>
</g>
<!-- Node26&#45;&gt;Node4 -->
<g id="edge34" class="edge">
<title>Node26&#45;&gt;Node4</title>
<path fill="none" stroke="#9a32cd" stroke-dasharray="5,2" d="M2017.4,-115.73C2061.23,-112.2 2124.88,-113.83 2170,-143.77 2219.42,-176.57 2242.23,-248.9 2250.11,-280.5"/>
<polygon fill="#9a32cd" stroke="#9a32cd" points="2016.89,-112.26 2007.25,-116.66 2017.53,-119.23 2016.89,-112.26"/>
<text text-anchor="middle" x="2109" y="-146.77" font-family="Helvetica,sans-Serif" font-size="10.00"> history</text>
</g>
<!-- Node27 -->
<g id="node27" class="node">
<title>Node27</title>
<g id="a_node27"><a xlink:href="structccfapp_1_1AbstractNodeContext.html" target="_top" xlink:title=" ">
<polygon fill="white" stroke="black" points="983,-485.27 983,-504.27 1142,-504.27 1142,-485.27 983,-485.27"/>
<text text-anchor="middle" x="1062.5" y="-492.27" font-family="Helvetica,sans-Serif" font-size="10.00">ccfapp::AbstractNodeContext</text>
</a>
</g>
</g>
<!-- Node27&#45;&gt;Node3 -->
<g id="edge35" class="edge">
<title>Node27&#45;&gt;Node3</title>
<path fill="none" stroke="#9a32cd" stroke-dasharray="5,2" d="M1152.16,-494.77C1228.15,-494.77 1340.52,-494.77 1438.5,-494.77 1438.5,-494.77 1438.5,-494.77 2255.5,-494.77 2289.17,-494.77 2326.5,-493.24 2357.83,-491.52"/>
<polygon fill="#9a32cd" stroke="#9a32cd" points="1152.15,-491.27 1142.15,-494.77 1152.15,-498.27 1152.15,-491.27"/>
<text text-anchor="middle" x="1797" y="-497.77" font-family="Helvetica,sans-Serif" font-size="10.00"> context</text>
</g>
<!-- Node28&#45;&gt;Node27 -->
<g id="edge36" class="edge">
<title>Node28&#45;&gt;Node27</title>
<path fill="none" stroke="#9a32cd" stroke-dasharray="5,2" d="M670.27,-485.87C760.73,-487.93 897.17,-491.03 982.69,-492.98"/>
<polygon fill="#9a32cd" stroke="#9a32cd" points="670.1,-482.36 660.02,-485.64 669.94,-489.36 670.1,-482.36"/>
<text text-anchor="middle" x="746.5" y="-491.77" font-family="Helvetica,sans-Serif" font-size="10.00"> subsystems</text>
</g>
<!-- Node29 -->
<g id="node29" class="node">
<title>Node29</title>
<g id="a_node29"><a xlink:title=" ">
<polygon fill="white" stroke="black" points="210,-550.77 210,-580.77 365,-580.77 365,-550.77 210,-550.77"/>
<text text-anchor="start" x="218" y="-568.77" font-family="Helvetica,sans-Serif" font-size="10.00">std::shared_ptr&lt; ccf</text>
<text text-anchor="middle" x="287.5" y="-557.77" font-family="Helvetica,sans-Serif" font-size="10.00">::AbstractNodeSubSystem &gt;</text>
</a>
</g>
</g>
<!-- Node29&#45;&gt;Node28 -->
<g id="edge38" class="edge">
<title>Node29&#45;&gt;Node28</title>
<path fill="none" stroke="#9a32cd" stroke-dasharray="5,2" d="M350.89,-547.98C395.97,-535.12 456.98,-517.72 504.11,-504.27"/>
<polygon fill="#9a32cd" stroke="#9a32cd" points="349.89,-544.62 341.23,-550.73 351.81,-551.35 349.89,-544.62"/>
<text text-anchor="middle" x="428.5" y="-539.77" font-family="Helvetica,sans-Serif" font-size="10.00"> elements</text>
</g>
<!-- Node30 -->
<g id="node30" class="node">
<title>Node30</title>
<g id="a_node30"><a xlink:href="classccf_1_1AbstractNodeSubSystem.html" target="_top" xlink:title=" ">
<polygon fill="white" stroke="black" points="0,-556.27 0,-575.27 157,-575.27 157,-556.27 0,-556.27"/>
<text text-anchor="middle" x="78.5" y="-563.27" font-family="Helvetica,sans-Serif" font-size="10.00">ccf::AbstractNodeSubSystem</text>
</a>
</g>
</g>
<!-- Node30&#45;&gt;Node29 -->
<g id="edge39" class="edge">
<title>Node30&#45;&gt;Node29</title>
<path fill="none" stroke="#9a32cd" stroke-dasharray="5,2" d="M167.35,-565.77C181.46,-565.77 195.96,-565.77 209.77,-565.77"/>
<polygon fill="#9a32cd" stroke="#9a32cd" points="167.17,-562.27 157.17,-565.77 167.17,-569.27 167.17,-562.27"/>
<text text-anchor="middle" x="183.5" y="-568.77" font-family="Helvetica,sans-Serif" font-size="10.00"> ptr</text>
</g>
<!-- Node31&#45;&gt;Node1 -->
<g id="edge40" class="edge">
<title>Node31&#45;&gt;Node1</title>
<path fill="none" stroke="#9a32cd" stroke-dasharray="5,2" d="M2180.28,-532.77C2225.59,-532.77 2285.78,-532.77 2339,-532.77 2339,-532.77 2339,-532.77 2621,-532.77 2661.62,-532.77 2707.04,-528.06 2742.42,-523.33"/>
<polygon fill="#9a32cd" stroke="#9a32cd" points="2180.27,-529.27 2170.27,-532.77 2180.27,-536.27 2180.27,-529.27"/>
<text text-anchor="middle" x="2429.5" y="-535.77" font-family="Helvetica,sans-Serif" font-size="10.00"> prepared_responses</text>
</g>
</g>
</svg>
        <g id="navigator" transform="translate(0 0)" fill="#404254">
                <rect fill="#f2f5e9" fill-opacity="0.5" stroke="#606060" stroke-width=".5" x="0" y="0" width="60" height="60"/>
                <use id="zoomplus" xlink:href="#zoomPlus" x="17" y="9" onmousedown="handleZoom(evt,'in')"/>
                <use id="zoomminus" xlink:href="#zoomMin" x="42" y="9" onmousedown="handleZoom(evt,'out')"/>
                <use id="reset" xlink:href="#resetDef" x="30" y="36" onmousedown="handleReset()"/>
                <g id="arrowUp" xlink:href="#dirArrow" transform="translate(30 24)" onmousedown="handlePan(0,-1)">
                  <use xlink:href="#rim" fill="#404040">
                        <set attributeName="fill" to="#808080" begin="arrowUp.mouseover" end="arrowUp.mouseout"/>
                  </use>
                  <path fill="none" stroke="white" stroke-width="1.5" d="M0,-3.0v7 M-2.5,-0.5L0,-3.0L2.5,-0.5"/>
                </g>
                <g id="arrowRight" xlink:href="#dirArrow" transform="rotate(90) translate(36 -43)" onmousedown="handlePan(1,0)">
                  <use xlink:href="#rim" fill="#404040">
                        <set attributeName="fill" to="#808080" begin="arrowRight.mouseover" end="arrowRight.mouseout"/>
                  </use>
                  <path fill="none" stroke="white" stroke-width="1.5" d="M0,-3.0v7 M-2.5,-0.5L0,-3.0L2.5,-0.5"/>
                </g>
                <g id="arrowDown" xlink:href="#dirArrow" transform="rotate(180) translate(-30 -48)" onmousedown="handlePan(0,1)">
                  <use xlink:href="#rim" fill="#404040">
                        <set attributeName="fill" to="#808080" begin="arrowDown.mouseover" end="arrowDown.mouseout"/>
                  </use>
                  <path fill="none" stroke="white" stroke-width="1.5" d="M0,-3.0v7 M-2.5,-0.5L0,-3.0L2.5,-0.5"/>
                </g>
                <g id="arrowLeft" xlink:href="#dirArrow" transform="rotate(270) translate(-36 17)" onmousedown="handlePan(-1,0)">
                  <use xlink:href="#rim" fill="#404040">
                        <set attributeName="fill" to="#808080" begin="arrowLeft.mouseover" end="arrowLeft.mouseout"/>
                  </use>
                  <path fill="none" stroke="white" stroke-width="1.5" d="M0,-3.0v7 M-2.5,-0.5L0,-3.0L2.5,-0.5"/>
                </g>
        </g>
        <svg viewBox="0 0 15 15" width="100%" height="30px" preserveAspectRatio="xMaxYMin meet">
         <g id="arrow_out" transform="scale(0.3 0.3)">
          <a xlink:href="classccf_1_1ACMERpcEndpoints__coll__graph_org.svg" target="_base">
           <rect id="button" ry="5" rx="5" y="6" x="6" height="38" width="38"
                fill="#f2f5e9" fill-opacity="0.5" stroke="#606060" stroke-width="1.0"/>
           <path id="arrow"
             d="M 11.500037,31.436501 C 11.940474,20.09759 22.043105,11.32322 32.158766,21.979434 L 37.068811,17.246167 C 37.068811,17.246167 37.088388,32 37.088388,32 L 22.160133,31.978069 C 22.160133,31.978069 26.997745,27.140456 26.997745,27.140456 C 18.528582,18.264221 13.291696,25.230495 11.500037,31.436501 z"
             style="fill:#404040;"/>
          </a>
         </g>
        </svg>
</svg>
