<?xml version="1.0" encoding="UTF-8" standalone="no"?>
<!DOCTYPE svg PUBLIC "-//W3C//DTD SVG 1.1//EN"
 "http://www.w3.org/Graphics/SVG/1.1/DTD/svg11.dtd">
<!-- Generated by graphviz version 2.43.0 (0)
 -->
<!-- Title: include/ccf/common_auth_policies.h Pages: 1 -->
<!--zoomable 408 -->
<svg id="main" version="1.1" xmlns="http://www.w3.org/2000/svg" xmlns:xlink="http://www.w3.org/1999/xlink" xml:space="preserve" onload="init(evt)">
<style type="text/css"><![CDATA[
.edge:hover path { stroke: red; }
.edge:hover polygon { stroke: red; fill: red; }
]]></style>
<script type="text/javascript"><![CDATA[
var edges = document.getElementsByTagName('g');
if (edges && edges.length) {
  for (var i=0;i<edges.length;i++) {
    if (edges[i].id.substr(0,4)=='edge') {
      edges[i].setAttribute('class','edge');
    }
  }
}
]]></script>
        <defs>
                <circle id="rim" cx="0" cy="0" r="7"/>
                <circle id="rim2" cx="0" cy="0" r="3.5"/>
                <g id="zoomPlus">
                        <use xlink:href="#rim" fill="#404040">
                                <set attributeName="fill" to="#808080" begin="zoomplus.mouseover" end="zoomplus.mouseout"/>
                        </use>
                        <path d="M-4,0h8M0,-4v8" fill="none" stroke="white" stroke-width="1.5" pointer-events="none"/>
                </g>
                <g id="zoomMin">
                        <use xlink:href="#rim" fill="#404040">
                                <set attributeName="fill" to="#808080" begin="zoomminus.mouseover" end="zoomminus.mouseout"/>
                        </use>
                        <path d="M-4,0h8" fill="none" stroke="white" stroke-width="1.5" pointer-events="none"/>
                </g>
                <g id="dirArrow">
                        <path fill="none" stroke="white" stroke-width="1.5" d="M0,-3.0v7 M-2.5,-0.5L0,-3.0L2.5,-0.5"/>
                </g>
               <g id="resetDef">
                       <use xlink:href="#rim2" fill="#404040">
                               <set attributeName="fill" to="#808080" begin="reset.mouseover" end="reset.mouseout"/>
                       </use>
               </g>
        </defs>

<script type="text/javascript">
var viewWidth = 1717;
var viewHeight = 408;
var sectionId = 'dynsection-1';
</script>
<script xlink:href="svgpan.js"/>
<svg id="graph" class="graph">
<g id="viewport">
<title>include/ccf/common_auth_policies.h</title>
<polygon fill="white" stroke="transparent" points="-4,4 -4,-404 1712.5,-404 1712.5,4 -4,4"/>
<!-- Node1 -->
<g id="node1" class="node">
<title>Node1</title>
<g id="a_node1"><a xlink:title=" ">
<polygon fill="#bfbfbf" stroke="black" points="728,-369.5 728,-399.5 843,-399.5 843,-369.5 728,-369.5"/>
<text text-anchor="start" x="736" y="-387.5" font-family="Helvetica,sans-Serif" font-size="10.00">include/ccf/common</text>
<text text-anchor="middle" x="785.5" y="-376.5" font-family="Helvetica,sans-Serif" font-size="10.00">_auth_policies.h</text>
</a>
</g>
</g>
<!-- Node2 -->
<g id="node2" class="node">
<title>Node2</title>
<g id="a_node2"><a xlink:href="logging_8cpp.html" target="_top" xlink:title=" ">
<polygon fill="white" stroke="black" points="0,-302.5 0,-332.5 123,-332.5 123,-302.5 0,-302.5"/>
<text text-anchor="start" x="8" y="-320.5" font-family="Helvetica,sans-Serif" font-size="10.00">samples/apps/logging</text>
<text text-anchor="middle" x="61.5" y="-309.5" font-family="Helvetica,sans-Serif" font-size="10.00">/logging.cpp</text>
</a>
</g>
</g>
<!-- Node1&#45;&gt;Node2 -->
<g id="edge1" class="edge">
<title>Node1&#45;&gt;Node2</title>
<path fill="none" stroke="midnightblue" d="M717.87,-381.11C598.84,-376.29 344.32,-363.13 131.5,-333 128.8,-332.62 126.04,-332.19 123.26,-331.74"/>
<polygon fill="midnightblue" stroke="midnightblue" points="717.8,-384.61 727.93,-381.52 718.08,-377.62 717.8,-384.61"/>
</g>
<!-- Node3 -->
<g id="node3" class="node">
<title>Node3</title>
<g id="a_node3"><a xlink:href="nobuiltins_8cpp.html" target="_top" xlink:title=" ">
<polygon fill="white" stroke="black" points="141,-302.5 141,-332.5 276,-332.5 276,-302.5 141,-302.5"/>
<text text-anchor="start" x="149" y="-320.5" font-family="Helvetica,sans-Serif" font-size="10.00">samples/apps/nobuiltins</text>
<text text-anchor="middle" x="208.5" y="-309.5" font-family="Helvetica,sans-Serif" font-size="10.00">/nobuiltins.cpp</text>
</a>
</g>
</g>
<!-- Node1&#45;&gt;Node3 -->
<g id="edge2" class="edge">
<title>Node1&#45;&gt;Node3</title>
<path fill="none" stroke="midnightblue" d="M717.76,-378.51C621.41,-370.98 439.43,-355.22 285.5,-333 282.4,-332.55 279.24,-332.07 276.05,-331.56"/>
<polygon fill="midnightblue" stroke="midnightblue" points="717.7,-382.01 727.94,-379.29 718.24,-375.03 717.7,-382.01"/>
</g>
<!-- Node4 -->
<g id="node4" class="node">
<title>Node4</title>
<g id="a_node4"><a xlink:href="executor__auth__policy_8h.html" target="_top" xlink:title=" ">
<polygon fill="white" stroke="black" points="294.5,-302.5 294.5,-332.5 442.5,-332.5 442.5,-302.5 294.5,-302.5"/>
<text text-anchor="start" x="302.5" y="-320.5" font-family="Helvetica,sans-Serif" font-size="10.00">src/apps/external_executor</text>
<text text-anchor="middle" x="368.5" y="-309.5" font-family="Helvetica,sans-Serif" font-size="10.00">/executor_auth_policy.h</text>
</a>
</g>
</g>
<!-- Node1&#45;&gt;Node4 -->
<g id="edge3" class="edge">
<title>Node1&#45;&gt;Node4</title>
<path fill="none" stroke="midnightblue" d="M717.88,-373.34C651.35,-363.3 546.88,-347.38 456.5,-333 452.07,-332.29 447.51,-331.56 442.91,-330.82"/>
<polygon fill="midnightblue" stroke="midnightblue" points="717.41,-376.81 727.82,-374.84 718.46,-369.89 717.41,-376.81"/>
</g>
<!-- Node5 -->
<g id="node5" class="node">
<title>Node5</title>
<g id="a_node5"><a xlink:href="external__executor_8cpp.html" target="_top" xlink:title=" ">
<polygon fill="white" stroke="black" points="317.5,-235.5 317.5,-265.5 465.5,-265.5 465.5,-235.5 317.5,-235.5"/>
<text text-anchor="start" x="325.5" y="-253.5" font-family="Helvetica,sans-Serif" font-size="10.00">src/apps/external_executor</text>
<text text-anchor="middle" x="391.5" y="-242.5" font-family="Helvetica,sans-Serif" font-size="10.00">/external_executor.cpp</text>
</a>
</g>
</g>
<!-- Node1&#45;&gt;Node5 -->
<g id="edge5" class="edge">
<title>Node1&#45;&gt;Node5</title>
<path fill="none" stroke="midnightblue" d="M717.76,-381.89C655.78,-378.15 562.84,-366.76 489.5,-333 487.15,-331.92 435.94,-288.93 408.51,-265.83"/>
<polygon fill="midnightblue" stroke="midnightblue" points="717.64,-385.39 727.82,-382.44 718.03,-378.4 717.64,-385.39"/>
</g>
<!-- Node6 -->
<g id="node6" class="node">
<title>Node6</title>
<g id="a_node6"><a xlink:href="js__generic_2named__auth__policies_8h.html" target="_top" xlink:title=" ">
<polygon fill="white" stroke="black" points="498.5,-302.5 498.5,-332.5 630.5,-332.5 630.5,-302.5 498.5,-302.5"/>
<text text-anchor="start" x="506.5" y="-320.5" font-family="Helvetica,sans-Serif" font-size="10.00">src/apps/js_generic</text>
<text text-anchor="middle" x="564.5" y="-309.5" font-family="Helvetica,sans-Serif" font-size="10.00">/named_auth_policies.h</text>
</a>
</g>
</g>
<!-- Node1&#45;&gt;Node6 -->
<g id="edge6" class="edge">
<title>Node1&#45;&gt;Node6</title>
<path fill="none" stroke="midnightblue" d="M727.97,-366.58C692.08,-356.02 646.41,-342.59 612.48,-332.61"/>
<polygon fill="midnightblue" stroke="midnightblue" points="727.24,-370.01 737.82,-369.48 729.21,-363.3 727.24,-370.01"/>
</g>
<!-- Node8 -->
<g id="node8" class="node">
<title>Node8</title>
<g id="a_node8"><a xlink:href="js__v8_2named__auth__policies_8h.html" target="_top" xlink:title=" ">
<polygon fill="white" stroke="black" points="648.5,-302.5 648.5,-332.5 770.5,-332.5 770.5,-302.5 648.5,-302.5"/>
<text text-anchor="start" x="656.5" y="-320.5" font-family="Helvetica,sans-Serif" font-size="10.00">src/apps/js_v8/named</text>
<text text-anchor="middle" x="709.5" y="-309.5" font-family="Helvetica,sans-Serif" font-size="10.00">_auth_policies.h</text>
</a>
</g>
</g>
<!-- Node1&#45;&gt;Node8 -->
<g id="edge8" class="edge">
<title>Node1&#45;&gt;Node8</title>
<path fill="none" stroke="midnightblue" d="M761.39,-362.88C749.84,-353.01 736.31,-341.43 725.96,-332.58"/>
<polygon fill="midnightblue" stroke="midnightblue" points="759.13,-365.56 769.01,-369.4 763.68,-360.24 759.13,-365.56"/>
</g>
<!-- Node10 -->
<g id="node10" class="node">
<title>Node10</title>
<g id="a_node10"><a xlink:href="tpcc_8cpp.html" target="_top" xlink:title=" ">
<polygon fill="white" stroke="black" points="789,-308 789,-327 934,-327 934,-308 789,-308"/>
<text text-anchor="middle" x="861.5" y="-315" font-family="Helvetica,sans-Serif" font-size="10.00">src/apps/tpcc/app/tpcc.cpp</text>
</a>
</g>
</g>
<!-- Node1&#45;&gt;Node10 -->
<g id="edge10" class="edge">
<title>Node1&#45;&gt;Node10</title>
<path fill="none" stroke="midnightblue" d="M809.85,-362.67C823.89,-350.67 840.78,-336.22 851.33,-327.19"/>
<polygon fill="midnightblue" stroke="midnightblue" points="807.32,-360.24 801.99,-369.4 811.87,-365.56 807.32,-360.24"/>
</g>
<!-- Node11 -->
<g id="node11" class="node">
<title>Node11</title>
<g id="a_node11"><a xlink:href="common__endpoint__registry_8cpp.html" target="_top" xlink:title=" ">
<polygon fill="white" stroke="black" points="952.5,-302.5 952.5,-332.5 1080.5,-332.5 1080.5,-302.5 952.5,-302.5"/>
<text text-anchor="start" x="960.5" y="-320.5" font-family="Helvetica,sans-Serif" font-size="10.00">src/endpoints/common</text>
<text text-anchor="middle" x="1016.5" y="-309.5" font-family="Helvetica,sans-Serif" font-size="10.00">_endpoint_registry.cpp</text>
</a>
</g>
</g>
<!-- Node1&#45;&gt;Node11 -->
<g id="edge11" class="edge">
<title>Node1&#45;&gt;Node11</title>
<path fill="none" stroke="midnightblue" d="M845.15,-366.71C882.74,-356.14 930.73,-342.63 966.35,-332.61"/>
<polygon fill="midnightblue" stroke="midnightblue" points="844.02,-363.4 835.34,-369.48 845.91,-370.14 844.02,-363.4"/>
</g>
<!-- Node12 -->
<g id="node12" class="node">
<title>Node12</title>
<g id="a_node12"><a xlink:href="endpoint__registry_8cpp.html" target="_top" xlink:title=" ">
<polygon fill="white" stroke="black" points="1098.5,-302.5 1098.5,-332.5 1226.5,-332.5 1226.5,-302.5 1098.5,-302.5"/>
<text text-anchor="start" x="1106.5" y="-320.5" font-family="Helvetica,sans-Serif" font-size="10.00">src/endpoints/endpoint</text>
<text text-anchor="middle" x="1162.5" y="-309.5" font-family="Helvetica,sans-Serif" font-size="10.00">_registry.cpp</text>
</a>
</g>
</g>
<!-- Node1&#45;&gt;Node12 -->
<g id="edge12" class="edge">
<title>Node1&#45;&gt;Node12</title>
<path fill="none" stroke="midnightblue" d="M853.02,-372.91C914.69,-363.08 1008.36,-347.79 1089.5,-333 1092.42,-332.47 1095.41,-331.91 1098.43,-331.35"/>
<polygon fill="midnightblue" stroke="midnightblue" points="852.35,-369.47 843.02,-374.5 853.45,-376.38 852.35,-369.47"/>
</g>
<!-- Node13 -->
<g id="node13" class="node">
<title>Node13</title>
<g id="a_node13"><a xlink:href="acme__challenge__frontend_8h.html" target="_top" xlink:title=" ">
<polygon fill="white" stroke="black" points="1244.5,-302.5 1244.5,-332.5 1384.5,-332.5 1384.5,-302.5 1244.5,-302.5"/>
<text text-anchor="start" x="1252.5" y="-320.5" font-family="Helvetica,sans-Serif" font-size="10.00">src/node/acme_challenge</text>
<text text-anchor="middle" x="1314.5" y="-309.5" font-family="Helvetica,sans-Serif" font-size="10.00">_frontend.h</text>
</a>
</g>
</g>
<!-- Node1&#45;&gt;Node13 -->
<g id="edge13" class="edge">
<title>Node1&#45;&gt;Node13</title>
<path fill="none" stroke="midnightblue" d="M853.35,-377.37C941.61,-369.06 1100.47,-352.94 1235.5,-333 1238.4,-332.57 1241.35,-332.12 1244.33,-331.64"/>
<polygon fill="midnightblue" stroke="midnightblue" points="852.84,-373.91 843.2,-378.32 853.49,-380.88 852.84,-373.91"/>
</g>
<!-- Node19 -->
<g id="node19" class="node">
<title>Node19</title>
<g id="a_node19"><a xlink:href="member__frontend_8h.html" target="_top" xlink:title=" ">
<polygon fill="white" stroke="black" points="1588.5,-168.5 1588.5,-198.5 1708.5,-198.5 1708.5,-168.5 1588.5,-168.5"/>
<text text-anchor="start" x="1596.5" y="-186.5" font-family="Helvetica,sans-Serif" font-size="10.00">src/node/rpc/member</text>
<text text-anchor="middle" x="1648.5" y="-175.5" font-family="Helvetica,sans-Serif" font-size="10.00">_frontend.h</text>
</a>
</g>
</g>
<!-- Node1&#45;&gt;Node19 -->
<g id="edge21" class="edge">
<title>Node1&#45;&gt;Node19</title>
<path fill="none" stroke="midnightblue" d="M853.24,-382.88C1032.59,-380.7 1510.09,-371.34 1569.5,-333 1618.33,-301.49 1638.98,-229.23 1645.76,-198.62"/>
<polygon fill="midnightblue" stroke="midnightblue" points="853.1,-379.38 843.14,-382.99 853.18,-386.38 853.1,-379.38"/>
</g>
<!-- Node20 -->
<g id="node20" class="node">
<title>Node20</title>
<g id="a_node20"><a xlink:href="node__frontend_8h.html" target="_top" xlink:title=" ">
<polygon fill="white" stroke="black" points="1402.5,-308 1402.5,-327 1560.5,-327 1560.5,-308 1402.5,-308"/>
<text text-anchor="middle" x="1481.5" y="-315" font-family="Helvetica,sans-Serif" font-size="10.00">src/node/rpc/node_frontend.h</text>
</a>
</g>
</g>
<!-- Node1&#45;&gt;Node20 -->
<g id="edge23" class="edge">
<title>Node1&#45;&gt;Node20</title>
<path fill="none" stroke="midnightblue" d="M853.26,-379.66C965.75,-372.88 1198.04,-357.18 1393.5,-333 1406.72,-331.37 1420.98,-329.19 1434.1,-327.03"/>
<polygon fill="midnightblue" stroke="midnightblue" points="852.85,-376.18 843.08,-380.27 853.27,-383.16 852.85,-376.18"/>
</g>
<!-- Node4&#45;&gt;Node5 -->
<g id="edge4" class="edge">
<title>Node4&#45;&gt;Node5</title>
<path fill="none" stroke="midnightblue" d="M376.92,-292.7C380.15,-283.59 383.72,-273.49 386.52,-265.58"/>
<polygon fill="midnightblue" stroke="midnightblue" points="373.53,-291.8 373.49,-302.4 380.13,-294.14 373.53,-291.8"/>
</g>
<!-- Node7 -->
<g id="node7" class="node">
<title>Node7</title>
<g id="a_node7"><a xlink:href="js__generic__base_8cpp.html" target="_top" xlink:title=" ">
<polygon fill="white" stroke="black" points="505.5,-235.5 505.5,-265.5 623.5,-265.5 623.5,-235.5 505.5,-235.5"/>
<text text-anchor="start" x="513.5" y="-253.5" font-family="Helvetica,sans-Serif" font-size="10.00">src/apps/js_generic</text>
<text text-anchor="middle" x="564.5" y="-242.5" font-family="Helvetica,sans-Serif" font-size="10.00">/js_generic_base.cpp</text>
</a>
</g>
</g>
<!-- Node6&#45;&gt;Node7 -->
<g id="edge7" class="edge">
<title>Node6&#45;&gt;Node7</title>
<path fill="none" stroke="midnightblue" d="M564.5,-292.11C564.5,-283.15 564.5,-273.32 564.5,-265.58"/>
<polygon fill="midnightblue" stroke="midnightblue" points="561,-292.4 564.5,-302.4 568,-292.4 561,-292.4"/>
</g>
<!-- Node9 -->
<g id="node9" class="node">
<title>Node9</title>
<g id="a_node9"><a xlink:href="js__v8__base_8cpp.html" target="_top" xlink:title=" ">
<polygon fill="white" stroke="black" points="652.5,-235.5 652.5,-265.5 766.5,-265.5 766.5,-235.5 652.5,-235.5"/>
<text text-anchor="start" x="660.5" y="-253.5" font-family="Helvetica,sans-Serif" font-size="10.00">src/apps/js_v8/js_v8</text>
<text text-anchor="middle" x="709.5" y="-242.5" font-family="Helvetica,sans-Serif" font-size="10.00">_base.cpp</text>
</a>
</g>
</g>
<!-- Node8&#45;&gt;Node9 -->
<g id="edge9" class="edge">
<title>Node8&#45;&gt;Node9</title>
<path fill="none" stroke="midnightblue" d="M709.5,-292.11C709.5,-283.15 709.5,-273.32 709.5,-265.58"/>
<polygon fill="midnightblue" stroke="midnightblue" points="706,-292.4 709.5,-302.4 713,-292.4 706,-292.4"/>
</g>
<!-- Node14 -->
<g id="node14" class="node">
<title>Node14</title>
<g id="a_node14"><a xlink:href="src_2enclave_2enclave_8h.html" target="_top" xlink:title=" ">
<polygon fill="white" stroke="black" points="1461.5,-56.5 1461.5,-75.5 1583.5,-75.5 1583.5,-56.5 1461.5,-56.5"/>
<text text-anchor="middle" x="1522.5" y="-63.5" font-family="Helvetica,sans-Serif" font-size="10.00">src/enclave/enclave.h</text>
</a>
</g>
</g>
<!-- Node13&#45;&gt;Node14 -->
<g id="edge14" class="edge">
<title>Node13&#45;&gt;Node14</title>
<path fill="none" stroke="midnightblue" d="M1265.04,-297.83C1251.42,-290.14 1238.27,-279.73 1230.5,-266 1223.72,-254.01 1225.56,-247.86 1230.5,-235 1256.93,-166.27 1278.35,-149.87 1341.5,-112 1377.88,-90.19 1424.42,-78.91 1461.2,-73.11"/>
<polygon fill="midnightblue" stroke="midnightblue" points="1263.53,-300.98 1274.01,-302.5 1266.76,-294.78 1263.53,-300.98"/>
</g>
<!-- Node16 -->
<g id="node16" class="node">
<title>Node16</title>
<g id="a_node16"><a xlink:href="ccf__acme__client_8h.html" target="_top" xlink:title=" ">
<polygon fill="white" stroke="black" points="1240,-241 1240,-260 1389,-260 1389,-241 1240,-241"/>
<text text-anchor="middle" x="1314.5" y="-248" font-family="Helvetica,sans-Serif" font-size="10.00">src/node/ccf_acme_client.h</text>
</a>
</g>
</g>
<!-- Node13&#45;&gt;Node16 -->
<g id="edge16" class="edge">
<title>Node13&#45;&gt;Node16</title>
<path fill="none" stroke="midnightblue" d="M1314.5,-292.25C1314.5,-281.02 1314.5,-268.38 1314.5,-260.19"/>
<polygon fill="midnightblue" stroke="midnightblue" points="1311,-292.4 1314.5,-302.4 1318,-292.4 1311,-292.4"/>
</g>
<!-- Node15 -->
<g id="node15" class="node">
<title>Node15</title>
<g id="a_node15"><a xlink:href="enclave_2main_8cpp.html" target="_top" xlink:title=" ">
<polygon fill="white" stroke="black" points="1462.5,-0.5 1462.5,-19.5 1582.5,-19.5 1582.5,-0.5 1462.5,-0.5"/>
<text text-anchor="middle" x="1522.5" y="-7.5" font-family="Helvetica,sans-Serif" font-size="10.00">src/enclave/main.cpp</text>
</a>
</g>
</g>
<!-- Node14&#45;&gt;Node15 -->
<g id="edge15" class="edge">
<title>Node14&#45;&gt;Node15</title>
<path fill="none" stroke="midnightblue" d="M1522.5,-45.8C1522.5,-36.91 1522.5,-26.78 1522.5,-19.75"/>
<polygon fill="midnightblue" stroke="midnightblue" points="1519,-46.08 1522.5,-56.08 1526,-46.08 1519,-46.08"/>
</g>
<!-- Node17 -->
<g id="node17" class="node">
<title>Node17</title>
<g id="a_node17"><a xlink:href="node__state_8h.html" target="_top" xlink:title=" ">
<polygon fill="white" stroke="black" points="1383.5,-174 1383.5,-193 1507.5,-193 1507.5,-174 1383.5,-174"/>
<text text-anchor="middle" x="1445.5" y="-181" font-family="Helvetica,sans-Serif" font-size="10.00">src/node/node_state.h</text>
</a>
</g>
</g>
<!-- Node16&#45;&gt;Node17 -->
<g id="edge17" class="edge">
<title>Node16&#45;&gt;Node17</title>
<path fill="none" stroke="midnightblue" d="M1341.16,-236.27C1367.1,-223.4 1405.78,-204.21 1428.03,-193.17"/>
<polygon fill="midnightblue" stroke="midnightblue" points="1339.3,-233.29 1331.9,-240.87 1342.41,-239.56 1339.3,-233.29"/>
</g>
<!-- Node17&#45;&gt;Node14 -->
<g id="edge18" class="edge">
<title>Node17&#45;&gt;Node14</title>
<path fill="none" stroke="midnightblue" d="M1467.61,-168.03C1479.8,-159.01 1494.29,-146.39 1503.5,-132 1515.04,-113.98 1519.77,-88.73 1521.55,-75.64"/>
<polygon fill="midnightblue" stroke="midnightblue" points="1465.39,-165.31 1459.24,-173.94 1469.43,-171.03 1465.39,-165.31"/>
</g>
<!-- Node18 -->
<g id="node18" class="node">
<title>Node18</title>
<g id="a_node18"><a xlink:href="gov__effects_8h.html" target="_top" xlink:title=" ">
<polygon fill="white" stroke="black" points="1350.5,-112.5 1350.5,-131.5 1494.5,-131.5 1494.5,-112.5 1350.5,-112.5"/>
<text text-anchor="middle" x="1422.5" y="-119.5" font-family="Helvetica,sans-Serif" font-size="10.00">src/node/rpc/gov_effects.h</text>
</a>
</g>
</g>
<!-- Node17&#45;&gt;Node18 -->
<g id="edge19" class="edge">
<title>Node17&#45;&gt;Node18</title>
<path fill="none" stroke="midnightblue" d="M1438.54,-164.5C1434.31,-153.55 1429.1,-140.07 1425.79,-131.51"/>
<polygon fill="midnightblue" stroke="midnightblue" points="1435.33,-165.91 1442.2,-173.98 1441.86,-163.39 1435.33,-165.91"/>
</g>
<!-- Node18&#45;&gt;Node14 -->
<g id="edge20" class="edge">
<title>Node18&#45;&gt;Node14</title>
<path fill="none" stroke="midnightblue" d="M1447.59,-107.45C1466.05,-97.48 1490.6,-84.23 1506.47,-75.65"/>
<polygon fill="midnightblue" stroke="midnightblue" points="1445.7,-104.49 1438.57,-112.32 1449.03,-110.65 1445.7,-104.49"/>
</g>
<!-- Node19&#45;&gt;Node14 -->
<g id="edge22" class="edge">
<title>Node19&#45;&gt;Node14</title>
<path fill="none" stroke="midnightblue" d="M1626.42,-160.93C1611.84,-146.83 1592.23,-128.1 1574.5,-112 1560.36,-99.16 1543.58,-84.79 1532.99,-75.82"/>
<polygon fill="midnightblue" stroke="midnightblue" points="1624.34,-163.79 1633.95,-168.25 1629.21,-158.77 1624.34,-163.79"/>
</g>
<!-- Node20&#45;&gt;Node14 -->
<g id="edge24" class="edge">
<title>Node20&#45;&gt;Node14</title>
<path fill="none" stroke="midnightblue" d="M1506.21,-302.58C1519.01,-293.89 1533.4,-281.42 1540.5,-266 1571.54,-198.57 1538.11,-104.81 1526.3,-75.87"/>
<polygon fill="midnightblue" stroke="midnightblue" points="1504.28,-299.66 1497.72,-307.99 1508.04,-305.57 1504.28,-299.66"/>
</g>
<!-- Node21 -->
<g id="node21" class="node">
<title>Node21</title>
<g id="a_node21"><a xlink:href="jwt__key__auto__refresh_8h.html" target="_top" xlink:title=" ">
<polygon fill="white" stroke="black" points="1407,-235.5 1407,-265.5 1532,-265.5 1532,-235.5 1407,-235.5"/>
<text text-anchor="start" x="1415" y="-253.5" font-family="Helvetica,sans-Serif" font-size="10.00">src/node/jwt_key_auto</text>
<text text-anchor="middle" x="1469.5" y="-242.5" font-family="Helvetica,sans-Serif" font-size="10.00">_refresh.h</text>
</a>
</g>
</g>
<!-- Node20&#45;&gt;Node21 -->
<g id="edge25" class="edge">
<title>Node20&#45;&gt;Node21</title>
<path fill="none" stroke="midnightblue" d="M1478.04,-297.74C1476.14,-287.49 1473.84,-275 1472.1,-265.59"/>
<polygon fill="midnightblue" stroke="midnightblue" points="1474.62,-298.54 1479.88,-307.73 1481.51,-297.26 1474.62,-298.54"/>
</g>
<!-- Node21&#45;&gt;Node17 -->
<g id="edge26" class="edge">
<title>Node21&#45;&gt;Node17</title>
<path fill="none" stroke="midnightblue" d="M1460.8,-225.94C1456.59,-214.54 1451.79,-201.55 1448.71,-193.19"/>
<polygon fill="midnightblue" stroke="midnightblue" points="1457.55,-227.23 1464.29,-235.4 1464.11,-224.8 1457.55,-227.23"/>
</g>
</g>
</svg>
        <g id="navigator" transform="translate(0 0)" fill="#404254">
                <rect fill="#f2f5e9" fill-opacity="0.5" stroke="#606060" stroke-width=".5" x="0" y="0" width="60" height="60"/>
                <use id="zoomplus" xlink:href="#zoomPlus" x="17" y="9" onmousedown="handleZoom(evt,'in')"/>
                <use id="zoomminus" xlink:href="#zoomMin" x="42" y="9" onmousedown="handleZoom(evt,'out')"/>
                <use id="reset" xlink:href="#resetDef" x="30" y="36" onmousedown="handleReset()"/>
                <g id="arrowUp" xlink:href="#dirArrow" transform="translate(30 24)" onmousedown="handlePan(0,-1)">
                  <use xlink:href="#rim" fill="#404040">
                        <set attributeName="fill" to="#808080" begin="arrowUp.mouseover" end="arrowUp.mouseout"/>
                  </use>
                  <path fill="none" stroke="white" stroke-width="1.5" d="M0,-3.0v7 M-2.5,-0.5L0,-3.0L2.5,-0.5"/>
                </g>
                <g id="arrowRight" xlink:href="#dirArrow" transform="rotate(90) translate(36 -43)" onmousedown="handlePan(1,0)">
                  <use xlink:href="#rim" fill="#404040">
                        <set attributeName="fill" to="#808080" begin="arrowRight.mouseover" end="arrowRight.mouseout"/>
                  </use>
                  <path fill="none" stroke="white" stroke-width="1.5" d="M0,-3.0v7 M-2.5,-0.5L0,-3.0L2.5,-0.5"/>
                </g>
                <g id="arrowDown" xlink:href="#dirArrow" transform="rotate(180) translate(-30 -48)" onmousedown="handlePan(0,1)">
                  <use xlink:href="#rim" fill="#404040">
                        <set attributeName="fill" to="#808080" begin="arrowDown.mouseover" end="arrowDown.mouseout"/>
                  </use>
                  <path fill="none" stroke="white" stroke-width="1.5" d="M0,-3.0v7 M-2.5,-0.5L0,-3.0L2.5,-0.5"/>
                </g>
                <g id="arrowLeft" xlink:href="#dirArrow" transform="rotate(270) translate(-36 17)" onmousedown="handlePan(-1,0)">
                  <use xlink:href="#rim" fill="#404040">
                        <set attributeName="fill" to="#808080" begin="arrowLeft.mouseover" end="arrowLeft.mouseout"/>
                  </use>
                  <path fill="none" stroke="white" stroke-width="1.5" d="M0,-3.0v7 M-2.5,-0.5L0,-3.0L2.5,-0.5"/>
                </g>
        </g>
        <svg viewBox="0 0 15 15" width="100%" height="30px" preserveAspectRatio="xMaxYMin meet">
         <g id="arrow_out" transform="scale(0.3 0.3)">
          <a xlink:href="common__auth__policies_8h__dep__incl_org.svg" target="_base">
           <rect id="button" ry="5" rx="5" y="6" x="6" height="38" width="38"
                fill="#f2f5e9" fill-opacity="0.5" stroke="#606060" stroke-width="1.0"/>
           <path id="arrow"
             d="M 11.500037,31.436501 C 11.940474,20.09759 22.043105,11.32322 32.158766,21.979434 L 37.068811,17.246167 C 37.068811,17.246167 37.088388,32 37.088388,32 L 22.160133,31.978069 C 22.160133,31.978069 26.997745,27.140456 26.997745,27.140456 C 18.528582,18.264221 13.291696,25.230495 11.500037,31.436501 z"
             style="fill:#404040;"/>
          </a>
         </g>
        </svg>
</svg>
