<?xml version="1.0" encoding="UTF-8" standalone="no"?>
<!DOCTYPE svg PUBLIC "-//W3C//DTD SVG 1.1//EN"
 "http://www.w3.org/Graphics/SVG/1.1/DTD/svg11.dtd">
<!-- Generated by graphviz version 2.43.0 (0)
 -->
<!-- Title: include/ccf Pages: 1 -->
<!--zoomable 471 -->
<svg id="main" version="1.1" xmlns="http://www.w3.org/2000/svg" xmlns:xlink="http://www.w3.org/1999/xlink" xml:space="preserve" onload="init(evt)">
<style type="text/css"><![CDATA[
.edge:hover path { stroke: red; }
.edge:hover polygon { stroke: red; fill: red; }
]]></style>
<script type="text/javascript"><![CDATA[
var edges = document.getElementsByTagName('g');
if (edges && edges.length) {
  for (var i=0;i<edges.length;i++) {
    if (edges[i].id.substr(0,4)=='edge') {
      edges[i].setAttribute('class','edge');
    }
  }
}
]]></script>
        <defs>
                <circle id="rim" cx="0" cy="0" r="7"/>
                <circle id="rim2" cx="0" cy="0" r="3.5"/>
                <g id="zoomPlus">
                        <use xlink:href="#rim" fill="#404040">
                                <set attributeName="fill" to="#808080" begin="zoomplus.mouseover" end="zoomplus.mouseout"/>
                        </use>
                        <path d="M-4,0h8M0,-4v8" fill="none" stroke="white" stroke-width="1.5" pointer-events="none"/>
                </g>
                <g id="zoomMin">
                        <use xlink:href="#rim" fill="#404040">
                                <set attributeName="fill" to="#808080" begin="zoomminus.mouseover" end="zoomminus.mouseout"/>
                        </use>
                        <path d="M-4,0h8" fill="none" stroke="white" stroke-width="1.5" pointer-events="none"/>
                </g>
                <g id="dirArrow">
                        <path fill="none" stroke="white" stroke-width="1.5" d="M0,-3.0v7 M-2.5,-0.5L0,-3.0L2.5,-0.5"/>
                </g>
               <g id="resetDef">
                       <use xlink:href="#rim2" fill="#404040">
                               <set attributeName="fill" to="#808080" begin="reset.mouseover" end="reset.mouseout"/>
                       </use>
               </g>
        </defs>

<script type="text/javascript">
var viewWidth = 402;
var viewHeight = 471;
var sectionId = 'dynsection-0';
</script>
<script xlink:href="svgpan.js"/>
<svg id="graph" class="graph">
<g id="viewport">
<title>include/ccf</title>
<polygon fill="white" stroke="transparent" points="-4,4 -4,-467 398,-467 398,4 -4,4"/>
<g id="clust1" class="cluster">
<title>clusterdir_d44c64559bbebec7f509842c48db8b23</title>
<g id="a_clust1"><a xlink:href="dir_d44c64559bbebec7f509842c48db8b23.html" target="_top" xlink:title="include">
<polygon fill="#edf0f7" stroke="#404040" stroke-dasharray="5,2" points="8,-8 8,-455 332,-455 332,-8 8,-8"/>
<text text-anchor="middle" x="170" y="-443" font-family="Helvetica,sans-Serif" font-size="10.00">include</text>
</a>
</g>
</g>
<g id="clust2" class="cluster">
<title>clusterdir_c3d33925c9fc81f340cd5350e8f8562d</title>
<g id="a_clust2"><a xlink:href="dir_c3d33925c9fc81f340cd5350e8f8562d.html" target="_top">
<polygon fill="#edf0f7" stroke="#404040" stroke-width="2" points="16,-16 16,-428 324,-428 324,-16 16,-16"/>
</a>
</g>
</g>
<!-- dir_c3d33925c9fc81f340cd5350e8f8562d -->
<g id="node1" class="node">
<title>dir_c3d33925c9fc81f340cd5350e8f8562d</title>
<text text-anchor="middle" x="221" y="-399.5" font-family="Helvetica,sans-Serif" font-size="10.00">ccf</text>
</g>
<!-- dir_718cb05e94fb01aeb88649f9185845a8 -->
<g id="node2" class="node">
<title>dir_718cb05e94fb01aeb88649f9185845a8</title>
<g id="a_node2"><a xlink:href="dir_718cb05e94fb01aeb88649f9185845a8.html" target="_top" xlink:title="crypto">
<polygon fill="#a2b4d6" stroke="#404040" points="118,-204 64,-204 64,-168 118,-168 118,-204"/>
<text text-anchor="middle" x="91" y="-183.5" font-family="Helvetica,sans-Serif" font-size="10.00">crypto</text>
</a>
</g>
</g>
<!-- dir_c3d33925c9fc81f340cd5350e8f8562d&#45;&gt;dir_718cb05e94fb01aeb88649f9185845a8 -->
<g id="edge3" class="edge">
<title>dir_c3d33925c9fc81f340cd5350e8f8562d&#45;&gt;dir_718cb05e94fb01aeb88649f9185845a8</title>
<path fill="none" stroke="black" d="M193.97,-401.38C155.76,-400.26 87.03,-391.85 55,-348 25.5,-307.62 52.98,-247.44 73.44,-213.24"/>
<polygon fill="black" stroke="black" points="76.68,-214.67 78.98,-204.32 70.73,-210.98 76.68,-214.67"/>
<g id="a_edge3&#45;headlabel"><a xlink:href="dir_000006_000011.html" target="_top" xlink:title="23">
<text text-anchor="middle" x="77.2" y="-216.72" font-family="Helvetica,sans-Serif" font-size="10.00">23</text>
</a>
</g>
</g>
<!-- dir_cabae42bbc2bbaf21b45af6b92ef62e9 -->
<g id="node3" class="node">
<title>dir_cabae42bbc2bbaf21b45af6b92ef62e9</title>
<g id="a_node3"><a xlink:href="dir_cabae42bbc2bbaf21b45af6b92ef62e9.html" target="_top" xlink:title="ds">
<polygon fill="#a2b4d6" stroke="#404040" points="118,-60 64,-60 64,-24 118,-24 118,-60"/>
<text text-anchor="middle" x="91" y="-39.5" font-family="Helvetica,sans-Serif" font-size="10.00">ds</text>
</a>
</g>
</g>
<!-- dir_c3d33925c9fc81f340cd5350e8f8562d&#45;&gt;dir_cabae42bbc2bbaf21b45af6b92ef62e9 -->
<g id="edge7" class="edge">
<title>dir_c3d33925c9fc81f340cd5350e8f8562d&#45;&gt;dir_cabae42bbc2bbaf21b45af6b92ef62e9</title>
<path fill="none" stroke="black" d="M193.76,-401.54C153.45,-400.74 78.46,-392.84 39,-348 12.55,-317.94 25,-299.04 25,-259 25,-259 25,-259 25,-185 25,-140.84 51.57,-95.56 70.99,-68.35"/>
<polygon fill="black" stroke="black" points="73.9,-70.31 77,-60.18 68.26,-66.16 73.9,-70.31"/>
<g id="a_edge7&#45;headlabel"><a xlink:href="dir_000006_000013.html" target="_top" xlink:title="47">
<text text-anchor="middle" x="74.05" y="-72.38" font-family="Helvetica,sans-Serif" font-size="10.00">47</text>
</a>
</g>
</g>
<!-- dir_4a0fc6681dca2b862f3992ee55641a58 -->
<g id="node4" class="node">
<title>dir_4a0fc6681dca2b862f3992ee55641a58</title>
<g id="a_node4"><a xlink:href="dir_4a0fc6681dca2b862f3992ee55641a58.html" target="_top" xlink:title="endpoints">
<polygon fill="#a2b4d6" stroke="#404040" points="201.5,-348 136.5,-348 136.5,-312 201.5,-312 201.5,-348"/>
<text text-anchor="middle" x="169" y="-327.5" font-family="Helvetica,sans-Serif" font-size="10.00">endpoints</text>
</a>
</g>
</g>
<!-- dir_c3d33925c9fc81f340cd5350e8f8562d&#45;&gt;dir_4a0fc6681dca2b862f3992ee55641a58 -->
<g id="edge2" class="edge">
<title>dir_c3d33925c9fc81f340cd5350e8f8562d&#45;&gt;dir_4a0fc6681dca2b862f3992ee55641a58</title>
<path fill="none" stroke="black" d="M208.15,-383.7C201.97,-375.39 194.46,-365.28 187.68,-356.14"/>
<polygon fill="black" stroke="black" points="190.48,-354.04 181.71,-348.1 184.86,-358.22 190.48,-354.04"/>
<g id="a_edge2&#45;headlabel"><a xlink:href="dir_000006_000016.html" target="_top" xlink:title="5">
<text text-anchor="middle" x="194.9" y="-352.74" font-family="Helvetica,sans-Serif" font-size="10.00">5</text>
</a>
</g>
</g>
<!-- dir_819655030cf20c915c390b67ba1c0d03 -->
<g id="node5" class="node">
<title>dir_819655030cf20c915c390b67ba1c0d03</title>
<g id="a_node5"><a xlink:href="dir_819655030cf20c915c390b67ba1c0d03.html" target="_top" xlink:title="indexing">
<polygon fill="#a2b4d6" stroke="#404040" points="295.5,-276 236.5,-276 236.5,-240 295.5,-240 295.5,-276"/>
<text text-anchor="middle" x="266" y="-255.5" font-family="Helvetica,sans-Serif" font-size="10.00">indexing</text>
</a>
</g>
</g>
<!-- dir_c3d33925c9fc81f340cd5350e8f8562d&#45;&gt;dir_819655030cf20c915c390b67ba1c0d03 -->
<g id="edge4" class="edge">
<title>dir_c3d33925c9fc81f340cd5350e8f8562d&#45;&gt;dir_819655030cf20c915c390b67ba1c0d03</title>
<path fill="none" stroke="black" d="M230.33,-383.74C235.52,-373.57 241.77,-360.32 246,-348 252.98,-327.69 258.18,-303.92 261.52,-286.06"/>
<polygon fill="black" stroke="black" points="265,-286.5 263.32,-276.04 258.11,-285.26 265,-286.5"/>
<g id="a_edge4&#45;headlabel"><a xlink:href="dir_000006_000023.html" target="_top" xlink:title="1">
<text text-anchor="middle" x="267.16" y="-288.04" font-family="Helvetica,sans-Serif" font-size="10.00">1</text>
</a>
</g>
</g>
<!-- dir_9101985d24c2f692df501a09f2c284d0 -->
<g id="node6" class="node">
<title>dir_9101985d24c2f692df501a09f2c284d0</title>
<g id="a_node6"><a xlink:href="dir_9101985d24c2f692df501a09f2c284d0.html" target="_top" xlink:title="kv">
<polygon fill="#a2b4d6" stroke="#404040" points="250,-204 196,-204 196,-168 250,-168 250,-204"/>
<text text-anchor="middle" x="223" y="-183.5" font-family="Helvetica,sans-Serif" font-size="10.00">kv</text>
</a>
</g>
</g>
<!-- dir_c3d33925c9fc81f340cd5350e8f8562d&#45;&gt;dir_9101985d24c2f692df501a09f2c284d0 -->
<g id="edge5" class="edge">
<title>dir_c3d33925c9fc81f340cd5350e8f8562d&#45;&gt;dir_9101985d24c2f692df501a09f2c284d0</title>
<path fill="none" stroke="black" d="M221.16,-383.85C221.51,-346.83 222.33,-259.18 222.74,-214.39"/>
<polygon fill="black" stroke="black" points="226.25,-214.26 222.84,-204.23 219.25,-214.2 226.25,-214.26"/>
<g id="a_edge5&#45;headlabel"><a xlink:href="dir_000006_000028.html" target="_top" xlink:title="19">
<text text-anchor="middle" x="229.05" y="-215.39" font-family="Helvetica,sans-Serif" font-size="10.00">19</text>
</a>
</g>
</g>
<!-- dir_36f22bdf0117f38e86252516d12afdac -->
<g id="node8" class="node">
<title>dir_36f22bdf0117f38e86252516d12afdac</title>
<g id="a_node8"><a xlink:href="dir_36f22bdf0117f38e86252516d12afdac.html" target="_top" xlink:title="pal">
<polygon fill="#a2b4d6" stroke="#404040" points="204,-132 150,-132 150,-96 204,-96 204,-132"/>
<text text-anchor="middle" x="177" y="-111.5" font-family="Helvetica,sans-Serif" font-size="10.00">pal</text>
</a>
</g>
</g>
<!-- dir_c3d33925c9fc81f340cd5350e8f8562d&#45;&gt;dir_36f22bdf0117f38e86252516d12afdac -->
<g id="edge1" class="edge">
<title>dir_c3d33925c9fc81f340cd5350e8f8562d&#45;&gt;dir_36f22bdf0117f38e86252516d12afdac</title>
<path fill="none" stroke="black" d="M239.89,-383.82C268.57,-355.57 318.4,-296.76 305,-240 296.78,-205.18 293.54,-194.03 269,-168 253.6,-151.67 232.04,-138.88 213.66,-129.96"/>
<polygon fill="black" stroke="black" points="214.93,-126.69 204.38,-125.65 211.98,-133.04 214.93,-126.69"/>
<g id="a_edge1&#45;headlabel"><a xlink:href="dir_000006_000035.html" target="_top" xlink:title="5">
<text text-anchor="middle" x="219.38" y="-123.13" font-family="Helvetica,sans-Serif" font-size="10.00">5</text>
</a>
</g>
</g>
<!-- dir_a0bd5b61e2f393f7cb26e530f5604320 -->
<g id="node9" class="node">
<title>dir_a0bd5b61e2f393f7cb26e530f5604320</title>
<g id="a_node9"><a xlink:href="dir_a0bd5b61e2f393f7cb26e530f5604320.html" target="_top" xlink:title="service">
<polygon fill="#a2b4d6" stroke="#404040" points="198,-276 144,-276 144,-240 198,-240 198,-276"/>
<text text-anchor="middle" x="171" y="-255.5" font-family="Helvetica,sans-Serif" font-size="10.00">service</text>
</a>
</g>
</g>
<!-- dir_c3d33925c9fc81f340cd5350e8f8562d&#45;&gt;dir_a0bd5b61e2f393f7cb26e530f5604320 -->
<g id="edge6" class="edge">
<title>dir_c3d33925c9fc81f340cd5350e8f8562d&#45;&gt;dir_a0bd5b61e2f393f7cb26e530f5604320</title>
<path fill="none" stroke="black" d="M221.71,-383.96C221.89,-365.55 220.44,-335.69 211,-312 207.03,-302.04 200.67,-292.32 194.17,-283.99"/>
<polygon fill="black" stroke="black" points="196.78,-281.64 187.72,-276.15 191.37,-286.09 196.78,-281.64"/>
<g id="a_edge6&#45;headlabel"><a xlink:href="dir_000006_000041.html" target="_top" xlink:title="11">
<text text-anchor="middle" x="201.25" y="-280.11" font-family="Helvetica,sans-Serif" font-size="10.00">11</text>
</a>
</g>
</g>
<!-- dir_718cb05e94fb01aeb88649f9185845a8&#45;&gt;dir_cabae42bbc2bbaf21b45af6b92ef62e9 -->
<g id="edge9" class="edge">
<title>dir_718cb05e94fb01aeb88649f9185845a8&#45;&gt;dir_cabae42bbc2bbaf21b45af6b92ef62e9</title>
<path fill="none" stroke="black" d="M86.42,-167.87C83.86,-143.67 83.57,-99.21 85.54,-70.39"/>
<polygon fill="black" stroke="black" points="89.05,-70.45 86.41,-60.19 82.07,-69.86 89.05,-70.45"/>
<g id="a_edge9&#45;headlabel"><a xlink:href="dir_000011_000013.html" target="_top" xlink:title="7">
<text text-anchor="middle" x="91.57" y="-71.77" font-family="Helvetica,sans-Serif" font-size="10.00">7</text>
</a>
</g>
</g>
<!-- dir_718cb05e94fb01aeb88649f9185845a8&#45;&gt;dir_36f22bdf0117f38e86252516d12afdac -->
<g id="edge8" class="edge">
<title>dir_718cb05e94fb01aeb88649f9185845a8&#45;&gt;dir_36f22bdf0117f38e86252516d12afdac</title>
<path fill="none" stroke="black" d="M106.34,-167.7C116.36,-158.8 129.68,-147.82 142.1,-138.2"/>
<polygon fill="black" stroke="black" points="144.26,-140.95 150.09,-132.1 140.02,-135.39 144.26,-140.95"/>
<g id="a_edge8&#45;headlabel"><a xlink:href="dir_000011_000035.html" target="_top" xlink:title="1">
<text text-anchor="middle" x="143.13" y="-142.89" font-family="Helvetica,sans-Serif" font-size="10.00">1</text>
</a>
</g>
</g>
<!-- dir_cabae42bbc2bbaf21b45af6b92ef62e9&#45;&gt;dir_718cb05e94fb01aeb88649f9185845a8 -->
<g id="edge10" class="edge">
<title>dir_cabae42bbc2bbaf21b45af6b92ef62e9&#45;&gt;dir_718cb05e94fb01aeb88649f9185845a8</title>
<path fill="none" stroke="black" d="M95.59,-60.19C98.15,-84.42 98.43,-128.89 96.45,-157.68"/>
<polygon fill="black" stroke="black" points="92.95,-157.61 95.58,-167.87 99.92,-158.21 92.95,-157.61"/>
<g id="a_edge10&#45;headlabel"><a xlink:href="dir_000013_000011.html" target="_top" xlink:title="1">
<text text-anchor="middle" x="90.42" y="-151.29" font-family="Helvetica,sans-Serif" font-size="10.00">1</text>
</a>
</g>
</g>
<!-- dir_4a0fc6681dca2b862f3992ee55641a58&#45;&gt;dir_718cb05e94fb01aeb88649f9185845a8 -->
<g id="edge11" class="edge">
<title>dir_4a0fc6681dca2b862f3992ee55641a58&#45;&gt;dir_718cb05e94fb01aeb88649f9185845a8</title>
<path fill="none" stroke="black" d="M157.17,-311.63C150.39,-301.43 141.89,-288.18 135,-276 123.33,-255.37 111.5,-231.22 103.05,-213.28"/>
<polygon fill="black" stroke="black" points="106.13,-211.6 98.72,-204.02 99.78,-214.56 106.13,-211.6"/>
<g id="a_edge11&#45;headlabel"><a xlink:href="dir_000016_000011.html" target="_top" xlink:title="1">
<text text-anchor="middle" x="110.22" y="-211.16" font-family="Helvetica,sans-Serif" font-size="10.00">1</text>
</a>
</g>
</g>
<!-- dir_4a0fc6681dca2b862f3992ee55641a58&#45;&gt;dir_a0bd5b61e2f393f7cb26e530f5604320 -->
<g id="edge12" class="edge">
<title>dir_4a0fc6681dca2b862f3992ee55641a58&#45;&gt;dir_a0bd5b61e2f393f7cb26e530f5604320</title>
<path fill="none" stroke="black" d="M169.49,-311.7C169.71,-303.98 169.98,-294.71 170.23,-286.11"/>
<polygon fill="black" stroke="black" points="173.72,-286.2 170.51,-276.1 166.73,-286 173.72,-286.2"/>
<g id="a_edge12&#45;headlabel"><a xlink:href="dir_000016_000041.html" target="_top" xlink:title="1">
<text text-anchor="middle" x="176.46" y="-287.37" font-family="Helvetica,sans-Serif" font-size="10.00">1</text>
</a>
</g>
</g>
<!-- dir_819655030cf20c915c390b67ba1c0d03&#45;&gt;dir_9101985d24c2f692df501a09f2c284d0 -->
<g id="edge13" class="edge">
<title>dir_819655030cf20c915c390b67ba1c0d03&#45;&gt;dir_9101985d24c2f692df501a09f2c284d0</title>
<path fill="none" stroke="black" d="M255.37,-239.7C250.37,-231.56 244.31,-221.69 238.79,-212.7"/>
<polygon fill="black" stroke="black" points="241.72,-210.79 233.51,-204.1 235.76,-214.46 241.72,-210.79"/>
<g id="a_edge13&#45;headlabel"><a xlink:href="dir_000023_000028.html" target="_top" xlink:title="1">
<text text-anchor="middle" x="246.02" y="-209.87" font-family="Helvetica,sans-Serif" font-size="10.00">1</text>
</a>
</g>
</g>
<!-- dir_819655030cf20c915c390b67ba1c0d03&#45;&gt;dir_36f22bdf0117f38e86252516d12afdac -->
<g id="edge14" class="edge">
<title>dir_819655030cf20c915c390b67ba1c0d03&#45;&gt;dir_36f22bdf0117f38e86252516d12afdac</title>
<path fill="none" stroke="black" d="M268.9,-239.93C271.21,-220.96 272.18,-190.1 259,-168 248.67,-150.68 230.23,-138.01 213.45,-129.41"/>
<polygon fill="black" stroke="black" points="214.89,-126.22 204.36,-125.05 211.87,-132.53 214.89,-126.22"/>
<g id="a_edge14&#45;headlabel"><a xlink:href="dir_000023_000035.html" target="_top" xlink:title="1">
<text text-anchor="middle" x="219.36" y="-122.72" font-family="Helvetica,sans-Serif" font-size="10.00">1</text>
</a>
</g>
</g>
<!-- dir_9101985d24c2f692df501a09f2c284d0&#45;&gt;dir_cabae42bbc2bbaf21b45af6b92ef62e9 -->
<g id="edge15" class="edge">
<title>dir_9101985d24c2f692df501a09f2c284d0&#45;&gt;dir_cabae42bbc2bbaf21b45af6b92ef62e9</title>
<path fill="none" stroke="black" d="M225.81,-167.78C227.99,-148.39 228.43,-116.88 213,-96 192.95,-68.87 156.07,-55.45 128.08,-48.92"/>
<polygon fill="black" stroke="black" points="128.73,-45.48 118.22,-46.81 127.27,-52.33 128.73,-45.48"/>
<g id="a_edge15&#45;headlabel"><a xlink:href="dir_000028_000013.html" target="_top" xlink:title="1">
<text text-anchor="middle" x="132.84" y="-40.95" font-family="Helvetica,sans-Serif" font-size="10.00">1</text>
</a>
</g>
</g>
<!-- dir_e4d7f7a88037af12eae8bd997a8823fc -->
<g id="node7" class="node">
<title>dir_e4d7f7a88037af12eae8bd997a8823fc</title>
<g id="a_node7"><a xlink:href="dir_e4d7f7a88037af12eae8bd997a8823fc.html" target="_top" xlink:title="node">
<polygon fill="#a2b4d6" stroke="#404040" points="118,-348 64,-348 64,-312 118,-312 118,-348"/>
<text text-anchor="middle" x="91" y="-327.5" font-family="Helvetica,sans-Serif" font-size="10.00">node</text>
</a>
</g>
</g>
<!-- dir_e4d7f7a88037af12eae8bd997a8823fc&#45;&gt;dir_718cb05e94fb01aeb88649f9185845a8 -->
<g id="edge17" class="edge">
<title>dir_e4d7f7a88037af12eae8bd997a8823fc&#45;&gt;dir_718cb05e94fb01aeb88649f9185845a8</title>
<path fill="none" stroke="black" d="M91,-311.87C91,-287.67 91,-243.21 91,-214.39"/>
<polygon fill="black" stroke="black" points="94.5,-214.19 91,-204.19 87.5,-214.19 94.5,-214.19"/>
<g id="a_edge17&#45;headlabel"><a xlink:href="dir_000032_000011.html" target="_top" xlink:title="2">
<text text-anchor="middle" x="97.34" y="-215.28" font-family="Helvetica,sans-Serif" font-size="10.00">2</text>
</a>
</g>
</g>
<!-- dir_e4d7f7a88037af12eae8bd997a8823fc&#45;&gt;dir_cabae42bbc2bbaf21b45af6b92ef62e9 -->
<g id="edge19" class="edge">
<title>dir_e4d7f7a88037af12eae8bd997a8823fc&#45;&gt;dir_cabae42bbc2bbaf21b45af6b92ef62e9</title>
<path fill="none" stroke="black" d="M84.43,-311.94C75.66,-288.18 60.59,-243.58 55,-204 48.25,-156.14 66.04,-101.43 78.95,-69.69"/>
<polygon fill="black" stroke="black" points="82.28,-70.8 82.93,-60.23 75.83,-68.08 82.28,-70.8"/>
<g id="a_edge19&#45;headlabel"><a xlink:href="dir_000032_000013.html" target="_top" xlink:title="2">
<text text-anchor="middle" x="83.5" y="-72.71" font-family="Helvetica,sans-Serif" font-size="10.00">2</text>
</a>
</g>
</g>
<!-- dir_e4d7f7a88037af12eae8bd997a8823fc&#45;&gt;dir_36f22bdf0117f38e86252516d12afdac -->
<g id="edge16" class="edge">
<title>dir_e4d7f7a88037af12eae8bd997a8823fc&#45;&gt;dir_36f22bdf0117f38e86252516d12afdac</title>
<path fill="none" stroke="black" d="M97.89,-311.85C112.86,-274.6 148.44,-186.07 166.33,-141.54"/>
<polygon fill="black" stroke="black" points="169.59,-142.82 170.07,-132.23 163.1,-140.21 169.59,-142.82"/>
<g id="a_edge16&#45;headlabel"><a xlink:href="dir_000032_000035.html" target="_top" xlink:title="1">
<text text-anchor="middle" x="170.89" y="-144.71" font-family="Helvetica,sans-Serif" font-size="10.00">1</text>
</a>
</g>
</g>
<!-- dir_e4d7f7a88037af12eae8bd997a8823fc&#45;&gt;dir_a0bd5b61e2f393f7cb26e530f5604320 -->
<g id="edge18" class="edge">
<title>dir_e4d7f7a88037af12eae8bd997a8823fc&#45;&gt;dir_a0bd5b61e2f393f7cb26e530f5604320</title>
<path fill="none" stroke="black" d="M110.78,-311.7C120.75,-302.97 133.01,-292.24 143.86,-282.75"/>
<polygon fill="black" stroke="black" points="146.23,-285.32 151.45,-276.1 141.62,-280.06 146.23,-285.32"/>
<g id="a_edge18&#45;headlabel"><a xlink:href="dir_000032_000041.html" target="_top" xlink:title="8">
<text text-anchor="middle" x="145.4" y="-287.33" font-family="Helvetica,sans-Serif" font-size="10.00">8</text>
</a>
</g>
</g>
<!-- dir_36f22bdf0117f38e86252516d12afdac&#45;&gt;dir_718cb05e94fb01aeb88649f9185845a8 -->
<g id="edge21" class="edge">
<title>dir_36f22bdf0117f38e86252516d12afdac&#45;&gt;dir_718cb05e94fb01aeb88649f9185845a8</title>
<path fill="none" stroke="black" d="M161.88,-132.1C151.91,-140.97 138.61,-151.94 126.18,-161.59"/>
<polygon fill="black" stroke="black" points="124,-158.85 118.17,-167.7 128.25,-164.41 124,-158.85"/>
<g id="a_edge21&#45;headlabel"><a xlink:href="dir_000035_000011.html" target="_top" xlink:title="2">
<text text-anchor="middle" x="125.13" y="-151.91" font-family="Helvetica,sans-Serif" font-size="10.00">2</text>
</a>
</g>
</g>
<!-- dir_36f22bdf0117f38e86252516d12afdac&#45;&gt;dir_cabae42bbc2bbaf21b45af6b92ef62e9 -->
<g id="edge22" class="edge">
<title>dir_36f22bdf0117f38e86252516d12afdac&#45;&gt;dir_cabae42bbc2bbaf21b45af6b92ef62e9</title>
<path fill="none" stroke="black" d="M155.74,-95.7C144.91,-86.88 131.58,-76.03 119.84,-66.47"/>
<polygon fill="black" stroke="black" points="121.98,-63.7 112.01,-60.1 117.56,-69.13 121.98,-63.7"/>
<g id="a_edge22&#45;headlabel"><a xlink:href="dir_000035_000013.html" target="_top" xlink:title="3">
<text text-anchor="middle" x="126.56" y="-61.27" font-family="Helvetica,sans-Serif" font-size="10.00">3</text>
</a>
</g>
</g>
<!-- dir_68267d1309a1af8e8297ef4c3efbcdba -->
<g id="node10" class="node">
<title>dir_68267d1309a1af8e8297ef4c3efbcdba</title>
<g id="a_node10"><a xlink:href="dir_68267d1309a1af8e8297ef4c3efbcdba.html" target="_top" xlink:title="src">
<polygon fill="none" stroke="red" points="394,-60 340,-60 340,-24 394,-24 394,-60"/>
<text text-anchor="middle" x="367" y="-39.5" font-family="Helvetica,sans-Serif" font-size="10.00">src</text>
</a>
</g>
</g>
<!-- dir_36f22bdf0117f38e86252516d12afdac&#45;&gt;dir_68267d1309a1af8e8297ef4c3efbcdba -->
<g id="edge20" class="edge">
<title>dir_36f22bdf0117f38e86252516d12afdac&#45;&gt;dir_68267d1309a1af8e8297ef4c3efbcdba</title>
<path fill="none" stroke="black" d="M204.22,-104.12C234.63,-94.04 285.2,-76.81 328,-60 328.84,-59.67 329.69,-59.33 330.55,-58.99"/>
<polygon fill="black" stroke="black" points="331.93,-62.2 339.83,-55.15 329.25,-55.74 331.93,-62.2"/>
<g id="a_edge20&#45;headlabel"><a xlink:href="dir_000035_000043.html" target="_top" xlink:title="1">
<text text-anchor="middle" x="329.69" y="-63.7" font-family="Helvetica,sans-Serif" font-size="10.00">1</text>
</a>
</g>
</g>
<!-- dir_a0bd5b61e2f393f7cb26e530f5604320&#45;&gt;dir_718cb05e94fb01aeb88649f9185845a8 -->
<g id="edge24" class="edge">
<title>dir_a0bd5b61e2f393f7cb26e530f5604320&#45;&gt;dir_718cb05e94fb01aeb88649f9185845a8</title>
<path fill="none" stroke="black" d="M151.22,-239.7C141.25,-230.97 128.99,-220.24 118.14,-210.75"/>
<polygon fill="black" stroke="black" points="120.38,-208.06 110.55,-204.1 115.77,-213.32 120.38,-208.06"/>
<g id="a_edge24&#45;headlabel"><a xlink:href="dir_000041_000011.html" target="_top" xlink:title="12">
<text text-anchor="middle" x="124.95" y="-205.79" font-family="Helvetica,sans-Serif" font-size="10.00">12</text>
</a>
</g>
</g>
<!-- dir_a0bd5b61e2f393f7cb26e530f5604320&#45;&gt;dir_cabae42bbc2bbaf21b45af6b92ef62e9 -->
<g id="edge26" class="edge">
<title>dir_a0bd5b61e2f393f7cb26e530f5604320&#45;&gt;dir_cabae42bbc2bbaf21b45af6b92ef62e9</title>
<path fill="none" stroke="black" d="M164.59,-239.85C150.69,-202.68 117.71,-114.44 101.03,-69.82"/>
<polygon fill="black" stroke="black" points="104.22,-68.37 97.44,-60.23 97.67,-70.82 104.22,-68.37"/>
<g id="a_edge26&#45;headlabel"><a xlink:href="dir_000041_000013.html" target="_top" xlink:title="15">
<text text-anchor="middle" x="108.14" y="-68.25" font-family="Helvetica,sans-Serif" font-size="10.00">15</text>
</a>
</g>
</g>
<!-- dir_a0bd5b61e2f393f7cb26e530f5604320&#45;&gt;dir_9101985d24c2f692df501a09f2c284d0 -->
<g id="edge25" class="edge">
<title>dir_a0bd5b61e2f393f7cb26e530f5604320&#45;&gt;dir_9101985d24c2f692df501a09f2c284d0</title>
<path fill="none" stroke="black" d="M183.85,-239.7C190.03,-231.39 197.54,-221.28 204.32,-212.14"/>
<polygon fill="black" stroke="black" points="207.14,-214.22 210.29,-204.1 201.52,-210.04 207.14,-214.22"/>
<g id="a_edge25&#45;headlabel"><a xlink:href="dir_000041_000028.html" target="_top" xlink:title="7">
<text text-anchor="middle" x="207.28" y="-216.3" font-family="Helvetica,sans-Serif" font-size="10.00">7</text>
</a>
</g>
</g>
<!-- dir_a0bd5b61e2f393f7cb26e530f5604320&#45;&gt;dir_36f22bdf0117f38e86252516d12afdac -->
<g id="edge23" class="edge">
<title>dir_a0bd5b61e2f393f7cb26e530f5604320&#45;&gt;dir_36f22bdf0117f38e86252516d12afdac</title>
<path fill="none" stroke="black" d="M171.72,-239.87C172.75,-215.67 174.62,-171.21 175.84,-142.39"/>
<polygon fill="black" stroke="black" points="179.35,-142.33 176.27,-132.19 172.35,-142.03 179.35,-142.33"/>
<g id="a_edge23&#45;headlabel"><a xlink:href="dir_000041_000035.html" target="_top" xlink:title="1">
<text text-anchor="middle" x="182.03" y="-143.54" font-family="Helvetica,sans-Serif" font-size="10.00">1</text>
</a>
</g>
</g>
</g>
</svg>
        <g id="navigator" transform="translate(0 0)" fill="#404254">
                <rect fill="#f2f5e9" fill-opacity="0.5" stroke="#606060" stroke-width=".5" x="0" y="0" width="60" height="60"/>
                <use id="zoomplus" xlink:href="#zoomPlus" x="17" y="9" onmousedown="handleZoom(evt,'in')"/>
                <use id="zoomminus" xlink:href="#zoomMin" x="42" y="9" onmousedown="handleZoom(evt,'out')"/>
                <use id="reset" xlink:href="#resetDef" x="30" y="36" onmousedown="handleReset()"/>
                <g id="arrowUp" xlink:href="#dirArrow" transform="translate(30 24)" onmousedown="handlePan(0,-1)">
                  <use xlink:href="#rim" fill="#404040">
                        <set attributeName="fill" to="#808080" begin="arrowUp.mouseover" end="arrowUp.mouseout"/>
                  </use>
                  <path fill="none" stroke="white" stroke-width="1.5" d="M0,-3.0v7 M-2.5,-0.5L0,-3.0L2.5,-0.5"/>
                </g>
                <g id="arrowRight" xlink:href="#dirArrow" transform="rotate(90) translate(36 -43)" onmousedown="handlePan(1,0)">
                  <use xlink:href="#rim" fill="#404040">
                        <set attributeName="fill" to="#808080" begin="arrowRight.mouseover" end="arrowRight.mouseout"/>
                  </use>
                  <path fill="none" stroke="white" stroke-width="1.5" d="M0,-3.0v7 M-2.5,-0.5L0,-3.0L2.5,-0.5"/>
                </g>
                <g id="arrowDown" xlink:href="#dirArrow" transform="rotate(180) translate(-30 -48)" onmousedown="handlePan(0,1)">
                  <use xlink:href="#rim" fill="#404040">
                        <set attributeName="fill" to="#808080" begin="arrowDown.mouseover" end="arrowDown.mouseout"/>
                  </use>
                  <path fill="none" stroke="white" stroke-width="1.5" d="M0,-3.0v7 M-2.5,-0.5L0,-3.0L2.5,-0.5"/>
                </g>
                <g id="arrowLeft" xlink:href="#dirArrow" transform="rotate(270) translate(-36 17)" onmousedown="handlePan(-1,0)">
                  <use xlink:href="#rim" fill="#404040">
                        <set attributeName="fill" to="#808080" begin="arrowLeft.mouseover" end="arrowLeft.mouseout"/>
                  </use>
                  <path fill="none" stroke="white" stroke-width="1.5" d="M0,-3.0v7 M-2.5,-0.5L0,-3.0L2.5,-0.5"/>
                </g>
        </g>
        <svg viewBox="0 0 15 15" width="100%" height="30px" preserveAspectRatio="xMaxYMin meet">
         <g id="arrow_out" transform="scale(0.3 0.3)">
          <a xlink:href="dir_c3d33925c9fc81f340cd5350e8f8562d_dep_org.svg" target="_base">
           <rect id="button" ry="5" rx="5" y="6" x="6" height="38" width="38"
                fill="#f2f5e9" fill-opacity="0.5" stroke="#606060" stroke-width="1.0"/>
           <path id="arrow"
             d="M 11.500037,31.436501 C 11.940474,20.09759 22.043105,11.32322 32.158766,21.979434 L 37.068811,17.246167 C 37.068811,17.246167 37.088388,32 37.088388,32 L 22.160133,31.978069 C 22.160133,31.978069 26.997745,27.140456 26.997745,27.140456 C 18.528582,18.264221 13.291696,25.230495 11.500037,31.436501 z"
             style="fill:#404040;"/>
          </a>
         </g>
        </svg>
</svg>
