<?xml version="1.0" encoding="UTF-8" standalone="no"?>
<!DOCTYPE svg PUBLIC "-//W3C//DTD SVG 1.1//EN"
 "http://www.w3.org/Graphics/SVG/1.1/DTD/svg11.dtd">
<!-- Generated by graphviz version 2.43.0 (0)
 -->
<!-- Title: src/crypto/ecdsa.h Pages: 1 -->
<svg width="1127pt" height="576pt"
 viewBox="0.00 0.00 1127.00 576.00" xmlns="http://www.w3.org/2000/svg" xmlns:xlink="http://www.w3.org/1999/xlink">
<g id="graph0" class="graph" transform="scale(1 1) rotate(0) translate(4 572)">
<title>src/crypto/ecdsa.h</title>
<polygon fill="white" stroke="transparent" points="-4,4 -4,-572 1123,-572 1123,4 -4,4"/>
<!-- Node1 -->
<g id="node1" class="node">
<title>Node1</title>
<g id="a_node1"><a xlink:title=" ">
<polygon fill="#bfbfbf" stroke="black" points="854.5,-548.5 854.5,-567.5 959.5,-567.5 959.5,-548.5 854.5,-548.5"/>
<text text-anchor="middle" x="907" y="-555.5" font-family="Helvetica,sans-Serif" font-size="10.00">src/crypto/ecdsa.h</text>
</a>
</g>
</g>
<!-- Node2 -->
<g id="node2" class="node">
<title>Node2</title>
<g id="a_node2"><a xlink:href="attestation_8h.html" target="_top" xlink:title=" ">
<polygon fill="white" stroke="black" points="601,-291.5 601,-310.5 753,-310.5 753,-291.5 601,-291.5"/>
<text text-anchor="middle" x="677" y="-298.5" font-family="Helvetica,sans-Serif" font-size="10.00">include/ccf/pal/attestation.h</text>
</a>
</g>
</g>
<!-- Node1&#45;&gt;Node2 -->
<g id="edge1" class="edge">
<title>Node1&#45;&gt;Node2</title>
<path fill="none" stroke="midnightblue" d="M898.07,-539.43C893.96,-531.16 889.09,-521.14 885,-512 852.51,-439.46 874.82,-400.46 816,-347 794.98,-327.89 765.74,-316.89 739.51,-310.56"/>
<polygon fill="midnightblue" stroke="midnightblue" points="894.99,-541.09 902.61,-548.45 901.24,-537.95 894.99,-541.09"/>
</g>
<!-- Node9 -->
<g id="node9" class="node">
<title>Node9</title>
<g id="a_node9"><a xlink:href="apps_2js__v8_2tmpl_2crypto_8cpp.html" target="_top" xlink:title=" ">
<polygon fill="white" stroke="black" points="893.5,-481.5 893.5,-511.5 1004.5,-511.5 1004.5,-481.5 893.5,-481.5"/>
<text text-anchor="start" x="901.5" y="-499.5" font-family="Helvetica,sans-Serif" font-size="10.00">src/apps/js_v8/tmpl</text>
<text text-anchor="middle" x="949" y="-488.5" font-family="Helvetica,sans-Serif" font-size="10.00">/crypto.cpp</text>
</a>
</g>
</g>
<!-- Node1&#45;&gt;Node9 -->
<g id="edge10" class="edge">
<title>Node1&#45;&gt;Node9</title>
<path fill="none" stroke="midnightblue" d="M918.83,-540.25C925.22,-531.19 933.03,-520.12 939.1,-511.52"/>
<polygon fill="midnightblue" stroke="midnightblue" points="915.93,-538.29 913.02,-548.48 921.64,-542.32 915.93,-538.29"/>
</g>
<!-- Node10 -->
<g id="node10" class="node">
<title>Node10</title>
<g id="a_node10"><a xlink:href="raft__types_8h.html" target="_top" xlink:title=" ">
<polygon fill="white" stroke="black" points="450,-481.5 450,-511.5 570,-511.5 570,-481.5 450,-481.5"/>
<text text-anchor="start" x="458" y="-499.5" font-family="Helvetica,sans-Serif" font-size="10.00">src/consensus/aft/raft</text>
<text text-anchor="middle" x="510" y="-488.5" font-family="Helvetica,sans-Serif" font-size="10.00">_types.h</text>
</a>
</g>
</g>
<!-- Node1&#45;&gt;Node10 -->
<g id="edge11" class="edge">
<title>Node1&#45;&gt;Node10</title>
<path fill="none" stroke="midnightblue" d="M844.01,-547.56C768.81,-536.29 643.97,-517.58 570.08,-506.5"/>
<polygon fill="midnightblue" stroke="midnightblue" points="843.87,-551.08 854.28,-549.1 844.91,-544.16 843.87,-551.08"/>
</g>
<!-- Node24 -->
<g id="node24" class="node">
<title>Node24</title>
<g id="a_node24"><a xlink:href="js_2crypto_8cpp.html" target="_top" xlink:title=" ">
<polygon fill="white" stroke="black" points="1023,-487 1023,-506 1119,-506 1119,-487 1023,-487"/>
<text text-anchor="middle" x="1071" y="-494" font-family="Helvetica,sans-Serif" font-size="10.00">src/js/crypto.cpp</text>
</a>
</g>
</g>
<!-- Node1&#45;&gt;Node24 -->
<g id="edge36" class="edge">
<title>Node1&#45;&gt;Node24</title>
<path fill="none" stroke="midnightblue" d="M940.26,-544.93C972.14,-533.37 1019.43,-516.21 1047.55,-506.01"/>
<polygon fill="midnightblue" stroke="midnightblue" points="938.7,-541.77 930.5,-548.48 941.09,-548.35 938.7,-541.77"/>
</g>
<!-- Node3 -->
<g id="node3" class="node">
<title>Node3</title>
<g id="a_node3"><a xlink:href="node__state_8h.html" target="_top" xlink:title=" ">
<polygon fill="white" stroke="black" points="312,-168.5 312,-187.5 436,-187.5 436,-168.5 312,-168.5"/>
<text text-anchor="middle" x="374" y="-175.5" font-family="Helvetica,sans-Serif" font-size="10.00">src/node/node_state.h</text>
</a>
</g>
</g>
<!-- Node2&#45;&gt;Node3 -->
<g id="edge2" class="edge">
<title>Node2&#45;&gt;Node3</title>
<path fill="none" stroke="midnightblue" d="M590.72,-291.95C551.84,-285.71 506.38,-274.63 469,-255 451.18,-245.64 451.51,-236.82 436,-224 419.6,-210.44 399.48,-196.25 386.7,-187.52"/>
<polygon fill="midnightblue" stroke="midnightblue" points="590.56,-295.46 600.97,-293.51 591.61,-288.54 590.56,-295.46"/>
</g>
<!-- Node7 -->
<g id="node7" class="node">
<title>Node7</title>
<g id="a_node7"><a xlink:href="quote_8cpp.html" target="_top" xlink:title=" ">
<polygon fill="white" stroke="black" points="478.5,-230 478.5,-249 587.5,-249 587.5,-230 478.5,-230"/>
<text text-anchor="middle" x="533" y="-237" font-family="Helvetica,sans-Serif" font-size="10.00">src/node/quote.cpp</text>
</a>
</g>
</g>
<!-- Node2&#45;&gt;Node7 -->
<g id="edge7" class="edge">
<title>Node2&#45;&gt;Node7</title>
<path fill="none" stroke="midnightblue" d="M647.07,-287.63C619.09,-276.07 578.06,-259.12 553.59,-249.01"/>
<polygon fill="midnightblue" stroke="midnightblue" points="645.79,-290.89 656.37,-291.48 648.46,-284.42 645.79,-290.89"/>
</g>
<!-- Node8 -->
<g id="node8" class="node">
<title>Node8</title>
<g id="a_node8"><a xlink:href="quote__endorsements__client_8h.html" target="_top" xlink:title=" ">
<polygon fill="white" stroke="black" points="606,-224.5 606,-254.5 770,-254.5 770,-224.5 606,-224.5"/>
<text text-anchor="start" x="614" y="-242.5" font-family="Helvetica,sans-Serif" font-size="10.00">src/node/quote_endorsements</text>
<text text-anchor="middle" x="688" y="-231.5" font-family="Helvetica,sans-Serif" font-size="10.00">_client.h</text>
</a>
</g>
</g>
<!-- Node2&#45;&gt;Node8 -->
<g id="edge8" class="edge">
<title>Node2&#45;&gt;Node8</title>
<path fill="none" stroke="midnightblue" d="M680.42,-281.53C682.03,-272.81 683.92,-262.59 685.41,-254.52"/>
<polygon fill="midnightblue" stroke="midnightblue" points="676.95,-281.01 678.58,-291.48 683.84,-282.28 676.95,-281.01"/>
</g>
<!-- Node4 -->
<g id="node4" class="node">
<title>Node4</title>
<g id="a_node4"><a xlink:href="src_2enclave_2enclave_8h.html" target="_top" xlink:title=" ">
<polygon fill="white" stroke="black" points="213,-56.5 213,-75.5 335,-75.5 335,-56.5 213,-56.5"/>
<text text-anchor="middle" x="274" y="-63.5" font-family="Helvetica,sans-Serif" font-size="10.00">src/enclave/enclave.h</text>
</a>
</g>
</g>
<!-- Node3&#45;&gt;Node4 -->
<g id="edge3" class="edge">
<title>Node3&#45;&gt;Node4</title>
<path fill="none" stroke="midnightblue" d="M372.39,-158.5C370.33,-144.45 365.65,-125.34 355,-112 340.94,-94.4 318.04,-82.6 300.16,-75.51"/>
<polygon fill="midnightblue" stroke="midnightblue" points="368.92,-158.94 373.54,-168.48 375.87,-158.14 368.92,-158.94"/>
</g>
<!-- Node6 -->
<g id="node6" class="node">
<title>Node6</title>
<g id="a_node6"><a xlink:href="gov__effects_8h.html" target="_top" xlink:title=" ">
<polygon fill="white" stroke="black" points="202,-112.5 202,-131.5 346,-131.5 346,-112.5 202,-112.5"/>
<text text-anchor="middle" x="274" y="-119.5" font-family="Helvetica,sans-Serif" font-size="10.00">src/node/rpc/gov_effects.h</text>
</a>
</g>
</g>
<!-- Node3&#45;&gt;Node6 -->
<g id="edge5" class="edge">
<title>Node3&#45;&gt;Node6</title>
<path fill="none" stroke="midnightblue" d="M348.91,-163.45C330.45,-153.48 305.9,-140.23 290.03,-131.65"/>
<polygon fill="midnightblue" stroke="midnightblue" points="347.47,-166.65 357.93,-168.32 350.8,-160.49 347.47,-166.65"/>
</g>
<!-- Node5 -->
<g id="node5" class="node">
<title>Node5</title>
<g id="a_node5"><a xlink:href="enclave_2main_8cpp.html" target="_top" xlink:title=" ">
<polygon fill="white" stroke="black" points="214,-0.5 214,-19.5 334,-19.5 334,-0.5 214,-0.5"/>
<text text-anchor="middle" x="274" y="-7.5" font-family="Helvetica,sans-Serif" font-size="10.00">src/enclave/main.cpp</text>
</a>
</g>
</g>
<!-- Node4&#45;&gt;Node5 -->
<g id="edge4" class="edge">
<title>Node4&#45;&gt;Node5</title>
<path fill="none" stroke="midnightblue" d="M274,-45.8C274,-36.91 274,-26.78 274,-19.75"/>
<polygon fill="midnightblue" stroke="midnightblue" points="270.5,-46.08 274,-56.08 277.5,-46.08 270.5,-46.08"/>
</g>
<!-- Node6&#45;&gt;Node4 -->
<g id="edge6" class="edge">
<title>Node6&#45;&gt;Node4</title>
<path fill="none" stroke="midnightblue" d="M274,-101.8C274,-92.91 274,-82.78 274,-75.75"/>
<polygon fill="midnightblue" stroke="midnightblue" points="270.5,-102.08 274,-112.08 277.5,-102.08 270.5,-102.08"/>
</g>
<!-- Node8&#45;&gt;Node3 -->
<g id="edge9" class="edge">
<title>Node8&#45;&gt;Node3</title>
<path fill="none" stroke="midnightblue" d="M603.85,-222.55C544.37,-211.28 466.97,-196.62 418.89,-187.51"/>
<polygon fill="midnightblue" stroke="midnightblue" points="603.51,-226.05 613.98,-224.47 604.81,-219.17 603.51,-226.05"/>
</g>
<!-- Node11 -->
<g id="node11" class="node">
<title>Node11</title>
<g id="a_node11"><a xlink:href="request__message_8h.html" target="_top" xlink:title=" ">
<polygon fill="white" stroke="black" points="711.5,-414.5 711.5,-444.5 836.5,-444.5 836.5,-414.5 711.5,-414.5"/>
<text text-anchor="start" x="719.5" y="-432.5" font-family="Helvetica,sans-Serif" font-size="10.00">src/consensus/aft/impl</text>
<text text-anchor="middle" x="774" y="-421.5" font-family="Helvetica,sans-Serif" font-size="10.00">/request_message.h</text>
</a>
</g>
</g>
<!-- Node10&#45;&gt;Node11 -->
<g id="edge12" class="edge">
<title>Node10&#45;&gt;Node11</title>
<path fill="none" stroke="midnightblue" d="M576.81,-479.05C619.97,-468.43 675.54,-454.74 716.69,-444.61"/>
<polygon fill="midnightblue" stroke="midnightblue" points="575.83,-475.69 566.96,-481.48 577.51,-482.48 575.83,-475.69"/>
</g>
<!-- Node12 -->
<g id="node12" class="node">
<title>Node12</title>
<g id="a_node12"><a xlink:href="state_8h.html" target="_top" xlink:title=" ">
<polygon fill="white" stroke="black" points="436.5,-347.5 436.5,-377.5 561.5,-377.5 561.5,-347.5 436.5,-347.5"/>
<text text-anchor="start" x="444.5" y="-365.5" font-family="Helvetica,sans-Serif" font-size="10.00">src/consensus/aft/impl</text>
<text text-anchor="middle" x="499" y="-354.5" font-family="Helvetica,sans-Serif" font-size="10.00">/state.h</text>
</a>
</g>
</g>
<!-- Node10&#45;&gt;Node12 -->
<g id="edge13" class="edge">
<title>Node10&#45;&gt;Node12</title>
<path fill="none" stroke="midnightblue" d="M501.89,-471.38C499.49,-463.12 497.19,-453.75 496,-445 492.81,-421.57 495.06,-394.03 497.01,-377.71"/>
<polygon fill="midnightblue" stroke="midnightblue" points="498.6,-472.61 504.9,-481.13 505.29,-470.54 498.6,-472.61"/>
</g>
<!-- Node13 -->
<g id="node13" class="node">
<title>Node13</title>
<g id="a_node13"><a xlink:href="raft_8h.html" target="_top" xlink:title=" ">
<polygon fill="white" stroke="black" points="301.5,-291.5 301.5,-310.5 430.5,-310.5 430.5,-291.5 301.5,-291.5"/>
<text text-anchor="middle" x="366" y="-298.5" font-family="Helvetica,sans-Serif" font-size="10.00">src/consensus/aft/raft.h</text>
</a>
</g>
</g>
<!-- Node10&#45;&gt;Node13 -->
<g id="edge18" class="edge">
<title>Node10&#45;&gt;Node13</title>
<path fill="none" stroke="midnightblue" d="M493.39,-473.18C461.62,-430.48 393.51,-338.96 372.38,-310.58"/>
<polygon fill="midnightblue" stroke="midnightblue" points="490.63,-475.34 499.41,-481.27 496.25,-471.16 490.63,-475.34"/>
</g>
<!-- Node15 -->
<g id="node15" class="node">
<title>Node15</title>
<g id="a_node15"><a xlink:href="node__connections_8h.html" target="_top" xlink:title=" ">
<polygon fill="white" stroke="black" points="538.5,-420 538.5,-439 693.5,-439 693.5,-420 538.5,-420"/>
<text text-anchor="middle" x="616" y="-427" font-family="Helvetica,sans-Serif" font-size="10.00">src/host/node_connections.h</text>
</a>
</g>
</g>
<!-- Node10&#45;&gt;Node15 -->
<g id="edge19" class="edge">
<title>Node10&#45;&gt;Node15</title>
<path fill="none" stroke="midnightblue" d="M541.57,-476.14C561.72,-463.79 586.83,-448.39 602.13,-439.01"/>
<polygon fill="midnightblue" stroke="midnightblue" points="539.7,-473.18 533,-481.4 543.35,-479.15 539.7,-473.18"/>
</g>
<!-- Node17 -->
<g id="node17" class="node">
<title>Node17</title>
<g id="a_node17"><a xlink:href="node__client_8h.html" target="_top" xlink:title=" ">
<polygon fill="white" stroke="black" points="161,-420 161,-439 287,-439 287,-420 161,-420"/>
<text text-anchor="middle" x="224" y="-427" font-family="Helvetica,sans-Serif" font-size="10.00">src/node/node_client.h</text>
</a>
</g>
</g>
<!-- Node10&#45;&gt;Node17 -->
<g id="edge21" class="edge">
<title>Node10&#45;&gt;Node17</title>
<path fill="none" stroke="midnightblue" d="M439.79,-479.54C383.49,-466.75 306.66,-449.29 261.49,-439.02"/>
<polygon fill="midnightblue" stroke="midnightblue" points="439.17,-482.99 449.7,-481.79 440.72,-476.17 439.17,-482.99"/>
</g>
<!-- Node23 -->
<g id="node23" class="node">
<title>Node23</title>
<g id="a_node23"><a xlink:href="resharing__tracker_8h.html" target="_top" xlink:title=" ">
<polygon fill="white" stroke="black" points="579.5,-347.5 579.5,-377.5 686.5,-377.5 686.5,-347.5 579.5,-347.5"/>
<text text-anchor="start" x="587.5" y="-365.5" font-family="Helvetica,sans-Serif" font-size="10.00">src/node/resharing</text>
<text text-anchor="middle" x="633" y="-354.5" font-family="Helvetica,sans-Serif" font-size="10.00">_tracker.h</text>
</a>
</g>
</g>
<!-- Node10&#45;&gt;Node23 -->
<g id="edge33" class="edge">
<title>Node10&#45;&gt;Node23</title>
<path fill="none" stroke="midnightblue" d="M510.28,-471.16C511.66,-453.58 516.09,-430.17 529,-414 542.59,-396.98 563.34,-385.32 582.74,-377.53"/>
<polygon fill="midnightblue" stroke="midnightblue" points="506.78,-471.07 509.76,-481.24 513.77,-471.43 506.78,-471.07"/>
</g>
<!-- Node12&#45;&gt;Node13 -->
<g id="edge14" class="edge">
<title>Node12&#45;&gt;Node13</title>
<path fill="none" stroke="midnightblue" d="M458.16,-343.23C433.94,-332.39 404.36,-319.16 385.35,-310.66"/>
<polygon fill="midnightblue" stroke="midnightblue" points="456.92,-346.51 467.48,-347.4 459.78,-340.12 456.92,-346.51"/>
</g>
<!-- Node14 -->
<g id="node14" class="node">
<title>Node14</title>
<g id="a_node14"><a xlink:href="resharing_8h.html" target="_top" xlink:title=" ">
<polygon fill="white" stroke="black" points="449,-291.5 449,-310.5 565,-310.5 565,-291.5 449,-291.5"/>
<text text-anchor="middle" x="507" y="-298.5" font-family="Helvetica,sans-Serif" font-size="10.00">src/node/resharing.h</text>
</a>
</g>
</g>
<!-- Node12&#45;&gt;Node14 -->
<g id="edge16" class="edge">
<title>Node12&#45;&gt;Node14</title>
<path fill="none" stroke="midnightblue" d="M502.26,-337.29C503.52,-327.86 504.9,-317.65 505.84,-310.66"/>
<polygon fill="midnightblue" stroke="midnightblue" points="498.76,-337.02 500.9,-347.4 505.7,-337.95 498.76,-337.02"/>
</g>
<!-- Node13&#45;&gt;Node3 -->
<g id="edge15" class="edge">
<title>Node13&#45;&gt;Node3</title>
<path fill="none" stroke="midnightblue" d="M367.26,-280.99C369.02,-254.35 372.15,-207 373.43,-187.62"/>
<polygon fill="midnightblue" stroke="midnightblue" points="363.74,-281.09 366.58,-291.3 370.73,-281.55 363.74,-281.09"/>
</g>
<!-- Node14&#45;&gt;Node3 -->
<g id="edge17" class="edge">
<title>Node14&#45;&gt;Node3</title>
<path fill="none" stroke="midnightblue" d="M481.42,-286.48C467.26,-278.35 449.79,-267.24 436,-255 412.05,-233.75 389.84,-202.73 379.73,-187.74"/>
<polygon fill="midnightblue" stroke="midnightblue" points="479.74,-289.55 490.17,-291.36 483.15,-283.43 479.74,-289.55"/>
</g>
<!-- Node16 -->
<g id="node16" class="node">
<title>Node16</title>
<g id="a_node16"><a xlink:href="host_2main_8cpp.html" target="_top" xlink:title=" ">
<polygon fill="white" stroke="black" points="704.5,-353 704.5,-372 807.5,-372 807.5,-353 704.5,-353"/>
<text text-anchor="middle" x="756" y="-360" font-family="Helvetica,sans-Serif" font-size="10.00">src/host/main.cpp</text>
</a>
</g>
</g>
<!-- Node15&#45;&gt;Node16 -->
<g id="edge20" class="edge">
<title>Node15&#45;&gt;Node16</title>
<path fill="none" stroke="midnightblue" d="M643.76,-415.61C671.49,-402.74 713.34,-383.31 737.33,-372.17"/>
<polygon fill="midnightblue" stroke="midnightblue" points="642.19,-412.48 634.59,-419.87 645.13,-418.83 642.19,-412.48"/>
</g>
<!-- Node17&#45;&gt;Node13 -->
<g id="edge28" class="edge">
<title>Node17&#45;&gt;Node13</title>
<path fill="none" stroke="midnightblue" d="M223.53,-409.46C224.1,-391.29 227.76,-364.22 243,-347 259.95,-327.85 285.76,-316.84 309.37,-310.51"/>
<polygon fill="midnightblue" stroke="midnightblue" points="220.03,-409.67 223.5,-419.68 227.03,-409.69 220.03,-409.67"/>
</g>
<!-- Node18 -->
<g id="node18" class="node">
<title>Node18</title>
<g id="a_node18"><a xlink:href="orc__requests_8h.html" target="_top" xlink:title=" ">
<polygon fill="white" stroke="black" points="38.5,-347.5 38.5,-377.5 157.5,-377.5 157.5,-347.5 38.5,-347.5"/>
<text text-anchor="start" x="46.5" y="-365.5" font-family="Helvetica,sans-Serif" font-size="10.00">src/consensus/aft/orc</text>
<text text-anchor="middle" x="98" y="-354.5" font-family="Helvetica,sans-Serif" font-size="10.00">_requests.h</text>
</a>
</g>
</g>
<!-- Node17&#45;&gt;Node18 -->
<g id="edge22" class="edge">
<title>Node17&#45;&gt;Node18</title>
<path fill="none" stroke="midnightblue" d="M198.21,-415.19C177.01,-404.26 147.06,-388.81 125.43,-377.65"/>
<polygon fill="midnightblue" stroke="midnightblue" points="196.78,-418.39 207.27,-419.87 199.99,-412.17 196.78,-418.39"/>
</g>
<!-- Node21 -->
<g id="node21" class="node">
<title>Node21</title>
<g id="a_node21"><a xlink:href="http__node__client_8h.html" target="_top" xlink:title=" ">
<polygon fill="white" stroke="black" points="236,-224.5 236,-254.5 346,-254.5 346,-224.5 236,-224.5"/>
<text text-anchor="start" x="244" y="-242.5" font-family="Helvetica,sans-Serif" font-size="10.00">src/node/http_node</text>
<text text-anchor="middle" x="291" y="-231.5" font-family="Helvetica,sans-Serif" font-size="10.00">_client.h</text>
</a>
</g>
</g>
<!-- Node17&#45;&gt;Node21 -->
<g id="edge29" class="edge">
<title>Node17&#45;&gt;Node21</title>
<path fill="none" stroke="midnightblue" d="M221.41,-409.55C219.77,-392.76 218.95,-367.75 225,-347 235.65,-310.45 262.58,-274.11 278.56,-254.76"/>
<polygon fill="midnightblue" stroke="midnightblue" points="217.96,-410.19 222.6,-419.71 224.91,-409.37 217.96,-410.19"/>
</g>
<!-- Node22 -->
<g id="node22" class="node">
<title>Node22</title>
<g id="a_node22"><a xlink:href="retired__nodes__cleanup_8h.html" target="_top" xlink:title=" ">
<polygon fill="white" stroke="black" points="252,-347.5 252,-377.5 380,-377.5 380,-347.5 252,-347.5"/>
<text text-anchor="start" x="260" y="-365.5" font-family="Helvetica,sans-Serif" font-size="10.00">src/node/retired_nodes</text>
<text text-anchor="middle" x="316" y="-354.5" font-family="Helvetica,sans-Serif" font-size="10.00">_cleanup.h</text>
</a>
</g>
</g>
<!-- Node17&#45;&gt;Node22 -->
<g id="edge31" class="edge">
<title>Node17&#45;&gt;Node22</title>
<path fill="none" stroke="midnightblue" d="M244.74,-413.85C260.09,-403 280.89,-388.3 296.06,-377.59"/>
<polygon fill="midnightblue" stroke="midnightblue" points="242.56,-411.1 236.41,-419.73 246.59,-416.82 242.56,-411.1"/>
</g>
<!-- Node18&#45;&gt;Node13 -->
<g id="edge23" class="edge">
<title>Node18&#45;&gt;Node13</title>
<path fill="none" stroke="midnightblue" d="M167.77,-346.01C218.71,-334.7 285.88,-319.79 327.49,-310.55"/>
<polygon fill="midnightblue" stroke="midnightblue" points="166.81,-342.64 157.81,-348.22 168.33,-349.47 166.81,-342.64"/>
</g>
<!-- Node19 -->
<g id="node19" class="node">
<title>Node19</title>
<g id="a_node19"><a xlink:href="node__frontend_8h.html" target="_top" xlink:title=" ">
<polygon fill="white" stroke="black" points="0,-291.5 0,-310.5 158,-310.5 158,-291.5 0,-291.5"/>
<text text-anchor="middle" x="79" y="-298.5" font-family="Helvetica,sans-Serif" font-size="10.00">src/node/rpc/node_frontend.h</text>
</a>
</g>
</g>
<!-- Node18&#45;&gt;Node19 -->
<g id="edge24" class="edge">
<title>Node18&#45;&gt;Node19</title>
<path fill="none" stroke="midnightblue" d="M90.37,-337.59C87.33,-328.08 84.02,-317.73 81.76,-310.66"/>
<polygon fill="midnightblue" stroke="midnightblue" points="87.12,-338.94 93.5,-347.4 93.79,-336.81 87.12,-338.94"/>
</g>
<!-- Node19&#45;&gt;Node4 -->
<g id="edge25" class="edge">
<title>Node19&#45;&gt;Node4</title>
<path fill="none" stroke="midnightblue" d="M76.38,-280.93C75.02,-265.01 75.04,-242.1 83,-224 117.23,-146.21 212.77,-94.83 254.3,-75.55"/>
<polygon fill="midnightblue" stroke="midnightblue" points="72.92,-281.56 77.51,-291.11 79.88,-280.78 72.92,-281.56"/>
</g>
<!-- Node20 -->
<g id="node20" class="node">
<title>Node20</title>
<g id="a_node20"><a xlink:href="jwt__key__auto__refresh_8h.html" target="_top" xlink:title=" ">
<polygon fill="white" stroke="black" points="92.5,-224.5 92.5,-254.5 217.5,-254.5 217.5,-224.5 92.5,-224.5"/>
<text text-anchor="start" x="100.5" y="-242.5" font-family="Helvetica,sans-Serif" font-size="10.00">src/node/jwt_key_auto</text>
<text text-anchor="middle" x="155" y="-231.5" font-family="Helvetica,sans-Serif" font-size="10.00">_refresh.h</text>
</a>
</g>
</g>
<!-- Node19&#45;&gt;Node20 -->
<g id="edge26" class="edge">
<title>Node19&#45;&gt;Node20</title>
<path fill="none" stroke="midnightblue" d="M97.91,-285.2C109.89,-275.81 125.3,-263.75 137.09,-254.52"/>
<polygon fill="midnightblue" stroke="midnightblue" points="95.61,-282.55 89.89,-291.48 99.92,-288.07 95.61,-282.55"/>
</g>
<!-- Node20&#45;&gt;Node3 -->
<g id="edge27" class="edge">
<title>Node20&#45;&gt;Node3</title>
<path fill="none" stroke="midnightblue" d="M216.28,-221.85C257.4,-210.68 309.85,-196.43 342.69,-187.51"/>
<polygon fill="midnightblue" stroke="midnightblue" points="215.36,-218.48 206.62,-224.47 217.19,-225.23 215.36,-218.48"/>
</g>
<!-- Node21&#45;&gt;Node3 -->
<g id="edge30" class="edge">
<title>Node21&#45;&gt;Node3</title>
<path fill="none" stroke="midnightblue" d="M318.92,-218.48C333.54,-208 350.69,-195.71 361.92,-187.66"/>
<polygon fill="midnightblue" stroke="midnightblue" points="316.76,-215.73 310.67,-224.4 320.84,-221.42 316.76,-215.73"/>
</g>
<!-- Node22&#45;&gt;Node13 -->
<g id="edge32" class="edge">
<title>Node22&#45;&gt;Node13</title>
<path fill="none" stroke="midnightblue" d="M334.32,-339.7C342.78,-329.64 352.34,-318.26 358.72,-310.66"/>
<polygon fill="midnightblue" stroke="midnightblue" points="331.6,-337.49 327.85,-347.4 336.96,-342 331.6,-337.49"/>
</g>
<!-- Node23&#45;&gt;Node13 -->
<g id="edge34" class="edge">
<title>Node23&#45;&gt;Node13</title>
<path fill="none" stroke="midnightblue" d="M569.62,-346.93C506.25,-332.67 444.21,-319.06 405.13,-310.52"/>
<polygon fill="midnightblue" stroke="midnightblue" points="568.87,-350.34 579.39,-349.13 570.4,-343.51 568.87,-350.34"/>
</g>
<!-- Node23&#45;&gt;Node14 -->
<g id="edge35" class="edge">
<title>Node23&#45;&gt;Node14</title>
<path fill="none" stroke="midnightblue" d="M594,-343.08C571.11,-332.28 543.26,-319.12 525.33,-310.66"/>
<polygon fill="midnightblue" stroke="midnightblue" points="592.6,-346.29 603.14,-347.4 595.59,-339.96 592.6,-346.29"/>
</g>
<!-- Node25 -->
<g id="node25" class="node">
<title>Node25</title>
<g id="a_node25"><a xlink:href="wrap_8cpp.html" target="_top" xlink:title=" ">
<polygon fill="white" stroke="black" points="1026.5,-420 1026.5,-439 1115.5,-439 1115.5,-420 1026.5,-420"/>
<text text-anchor="middle" x="1071" y="-427" font-family="Helvetica,sans-Serif" font-size="10.00">src/js/wrap.cpp</text>
</a>
</g>
</g>
<!-- Node24&#45;&gt;Node25 -->
<g id="edge37" class="edge">
<title>Node24&#45;&gt;Node25</title>
<path fill="none" stroke="midnightblue" d="M1071,-476.54C1071,-464.17 1071,-448.62 1071,-439.13"/>
<polygon fill="midnightblue" stroke="midnightblue" points="1067.5,-476.73 1071,-486.73 1074.5,-476.73 1067.5,-476.73"/>
</g>
</g>
</svg>
