<?xml version="1.0" encoding="UTF-8" standalone="no"?>
<!DOCTYPE svg PUBLIC "-//W3C//DTD SVG 1.1//EN"
 "http://www.w3.org/Graphics/SVG/1.1/DTD/svg11.dtd">
<!-- Generated by graphviz version 2.43.0 (0)
 -->
<!-- Title: Graphical Class Hierarchy Pages: 1 -->
<svg width="317pt" height="344pt"
 viewBox="0.00 0.00 317.00 344.00" xmlns="http://www.w3.org/2000/svg" xmlns:xlink="http://www.w3.org/1999/xlink">
<g id="graph0" class="graph" transform="scale(1 1) rotate(0) translate(4 340)">
<title>Graphical Class Hierarchy</title>
<polygon fill="white" stroke="transparent" points="-4,4 -4,-340 313,-340 313,4 -4,4"/>
<!-- Node0 -->
<g id="node1" class="node">
<title>Node0</title>
<g id="a_node1"><a xlink:href="structccf_1_1AuthnIdentity.html" target="_top" xlink:title=" ">
<polygon fill="white" stroke="black" points="0,-158.5 0,-177.5 102,-177.5 102,-158.5 0,-158.5"/>
<text text-anchor="middle" x="51" y="-165.5" font-family="Helvetica,sans-Serif" font-size="10.00">ccf::AuthnIdentity</text>
</a>
</g>
</g>
<!-- Node1 -->
<g id="node2" class="node">
<title>Node1</title>
<g id="a_node2"><a xlink:href="structExecutorIdentity.html" target="_top" xlink:title=" ">
<polygon fill="white" stroke="black" points="175.5,-316.5 175.5,-335.5 271.5,-335.5 271.5,-316.5 175.5,-316.5"/>
<text text-anchor="middle" x="223.5" y="-323.5" font-family="Helvetica,sans-Serif" font-size="10.00">ExecutorIdentity</text>
</a>
</g>
</g>
<!-- Node0&#45;&gt;Node1 -->
<g id="edge1" class="edge">
<title>Node0&#45;&gt;Node1</title>
<path fill="none" stroke="midnightblue" d="M58.28,-187.03C69.32,-217.41 95.2,-276.51 138,-307 148.9,-314.76 162.43,-319.43 175.45,-322.2"/>
<polygon fill="midnightblue" stroke="midnightblue" points="61.58,-185.87 54.99,-177.58 54.97,-188.18 61.58,-185.87"/>
</g>
<!-- Node2 -->
<g id="node3" class="node">
<title>Node2</title>
<g id="a_node3"><a xlink:href="structccf_1_1EmptyAuthnIdentity.html" target="_top" xlink:title=" ">
<polygon fill="white" stroke="black" points="156.5,-278.5 156.5,-297.5 290.5,-297.5 290.5,-278.5 156.5,-278.5"/>
<text text-anchor="middle" x="223.5" y="-285.5" font-family="Helvetica,sans-Serif" font-size="10.00">ccf::EmptyAuthnIdentity</text>
</a>
</g>
</g>
<!-- Node0&#45;&gt;Node2 -->
<g id="edge2" class="edge">
<title>Node0&#45;&gt;Node2</title>
<path fill="none" stroke="midnightblue" d="M62.44,-186.37C76.53,-209.41 103.85,-248.37 138,-269 144.44,-272.89 151.58,-275.98 158.91,-278.44"/>
<polygon fill="midnightblue" stroke="midnightblue" points="65.34,-184.39 57.23,-177.57 59.32,-187.96 65.34,-184.39"/>
</g>
<!-- Node3 -->
<g id="node4" class="node">
<title>Node3</title>
<g id="a_node4"><a xlink:href="structccf_1_1JwtAuthnIdentity.html" target="_top" xlink:title=" ">
<polygon fill="white" stroke="black" points="165,-240.5 165,-259.5 282,-259.5 282,-240.5 165,-240.5"/>
<text text-anchor="middle" x="223.5" y="-247.5" font-family="Helvetica,sans-Serif" font-size="10.00">ccf::JwtAuthnIdentity</text>
</a>
</g>
</g>
<!-- Node0&#45;&gt;Node3 -->
<g id="edge3" class="edge">
<title>Node0&#45;&gt;Node3</title>
<path fill="none" stroke="midnightblue" d="M69.95,-184.62C86.44,-198.99 112.17,-219.26 138,-231 146.49,-234.86 155.82,-237.96 165.09,-240.45"/>
<polygon fill="midnightblue" stroke="midnightblue" points="72.01,-181.76 62.22,-177.72 67.35,-186.99 72.01,-181.76"/>
</g>
<!-- Node4 -->
<g id="node5" class="node">
<title>Node4</title>
<g id="a_node5"><a xlink:href="structccf_1_1MemberCertAuthnIdentity.html" target="_top" xlink:title=" ">
<polygon fill="white" stroke="black" points="142,-202.5 142,-221.5 305,-221.5 305,-202.5 142,-202.5"/>
<text text-anchor="middle" x="223.5" y="-209.5" font-family="Helvetica,sans-Serif" font-size="10.00">ccf::MemberCertAuthnIdentity</text>
</a>
</g>
</g>
<!-- Node0&#45;&gt;Node4 -->
<g id="edge4" class="edge">
<title>Node0&#45;&gt;Node4</title>
<path fill="none" stroke="midnightblue" d="M93.25,-180.55C107.39,-184.7 123.34,-189.22 138,-193 150.81,-196.3 164.8,-199.58 177.65,-202.46"/>
<polygon fill="midnightblue" stroke="midnightblue" points="93.91,-177.1 83.32,-177.61 91.92,-183.81 93.91,-177.1"/>
</g>
<!-- Node5 -->
<g id="node6" class="node">
<title>Node5</title>
<g id="a_node6"><a xlink:href="structccf_1_1MemberSignatureAuthnIdentity.html" target="_top" xlink:title=" ">
<polygon fill="white" stroke="black" points="147.5,-153 147.5,-183 299.5,-183 299.5,-153 147.5,-153"/>
<text text-anchor="start" x="155.5" y="-171" font-family="Helvetica,sans-Serif" font-size="10.00">ccf::MemberSignatureAuthn</text>
<text text-anchor="middle" x="223.5" y="-160" font-family="Helvetica,sans-Serif" font-size="10.00">Identity</text>
</a>
</g>
</g>
<!-- Node0&#45;&gt;Node5 -->
<g id="edge5" class="edge">
<title>Node0&#45;&gt;Node5</title>
<path fill="none" stroke="midnightblue" d="M112.41,-168C123.71,-168 135.66,-168 147.34,-168"/>
<polygon fill="midnightblue" stroke="midnightblue" points="112.23,-164.5 102.23,-168 112.23,-171.5 112.23,-164.5"/>
</g>
<!-- Node6 -->
<g id="node7" class="node">
<title>Node6</title>
<g id="a_node7"><a xlink:href="structccf_1_1NodeCertAuthnIdentity.html" target="_top" xlink:title=" ">
<polygon fill="white" stroke="black" points="149.5,-114.5 149.5,-133.5 297.5,-133.5 297.5,-114.5 149.5,-114.5"/>
<text text-anchor="middle" x="223.5" y="-121.5" font-family="Helvetica,sans-Serif" font-size="10.00">ccf::NodeCertAuthnIdentity</text>
</a>
</g>
</g>
<!-- Node0&#45;&gt;Node6 -->
<g id="edge6" class="edge">
<title>Node0&#45;&gt;Node6</title>
<path fill="none" stroke="midnightblue" d="M94.71,-155.72C108.5,-151.85 123.87,-147.64 138,-144 151.87,-140.43 167.08,-136.75 180.73,-133.54"/>
<polygon fill="midnightblue" stroke="midnightblue" points="93.67,-152.38 85,-158.46 95.57,-159.11 93.67,-152.38"/>
</g>
<!-- Node7 -->
<g id="node8" class="node">
<title>Node7</title>
<g id="a_node8"><a xlink:href="structccf_1_1UserCertAuthnIdentity.html" target="_top" xlink:title=" ">
<polygon fill="white" stroke="black" points="151,-76.5 151,-95.5 296,-95.5 296,-76.5 151,-76.5"/>
<text text-anchor="middle" x="223.5" y="-83.5" font-family="Helvetica,sans-Serif" font-size="10.00">ccf::UserCertAuthnIdentity</text>
</a>
</g>
</g>
<!-- Node0&#45;&gt;Node7 -->
<g id="edge7" class="edge">
<title>Node0&#45;&gt;Node7</title>
<path fill="none" stroke="midnightblue" d="M69.95,-151.38C86.44,-137.01 112.17,-116.74 138,-105 146.49,-101.14 155.82,-98.04 165.09,-95.55"/>
<polygon fill="midnightblue" stroke="midnightblue" points="67.35,-149.01 62.22,-158.28 72.01,-154.24 67.35,-149.01"/>
</g>
<!-- Node8 -->
<g id="node9" class="node">
<title>Node8</title>
<g id="a_node9"><a xlink:href="structccf_1_1UserSignatureAuthnIdentity.html" target="_top" xlink:title=" ">
<polygon fill="white" stroke="black" points="138,-38.5 138,-57.5 309,-57.5 309,-38.5 138,-38.5"/>
<text text-anchor="middle" x="223.5" y="-45.5" font-family="Helvetica,sans-Serif" font-size="10.00">ccf::UserSignatureAuthnIdentity</text>
</a>
</g>
</g>
<!-- Node0&#45;&gt;Node8 -->
<g id="edge8" class="edge">
<title>Node0&#45;&gt;Node8</title>
<path fill="none" stroke="midnightblue" d="M62.44,-149.63C76.53,-126.59 103.85,-87.63 138,-67 144.44,-63.11 151.58,-60.02 158.91,-57.56"/>
<polygon fill="midnightblue" stroke="midnightblue" points="59.32,-148.04 57.23,-158.43 65.34,-151.61 59.32,-148.04"/>
</g>
<!-- Node9 -->
<g id="node10" class="node">
<title>Node9</title>
<g id="a_node10"><a xlink:href="structloggingapp_1_1CustomIdentity.html" target="_top" xlink:title=" ">
<polygon fill="white" stroke="black" points="147.5,-0.5 147.5,-19.5 299.5,-19.5 299.5,-0.5 147.5,-0.5"/>
<text text-anchor="middle" x="223.5" y="-7.5" font-family="Helvetica,sans-Serif" font-size="10.00">loggingapp::CustomIdentity</text>
</a>
</g>
</g>
<!-- Node0&#45;&gt;Node9 -->
<g id="edge9" class="edge">
<title>Node0&#45;&gt;Node9</title>
<path fill="none" stroke="midnightblue" d="M58.28,-148.97C69.32,-118.59 95.2,-59.49 138,-29 143.39,-25.16 149.42,-22.08 155.72,-19.61"/>
<polygon fill="midnightblue" stroke="midnightblue" points="54.97,-147.82 54.99,-158.42 61.58,-150.13 54.97,-147.82"/>
</g>
</g>
</svg>
