<?xml version="1.0" encoding="UTF-8" standalone="no"?>
<!DOCTYPE svg PUBLIC "-//W3C//DTD SVG 1.1//EN"
 "http://www.w3.org/Graphics/SVG/1.1/DTD/svg11.dtd">
<!-- Generated by graphviz version 2.43.0 (0)
 -->
<!-- Title: src/enclave/interface.h Pages: 1 -->
<svg width="1511pt" height="420pt"
 viewBox="0.00 0.00 1510.84 420.00" xmlns="http://www.w3.org/2000/svg" xmlns:xlink="http://www.w3.org/1999/xlink">
<g id="graph0" class="graph" transform="scale(1 1) rotate(0) translate(4 416)">
<title>src/enclave/interface.h</title>
<polygon fill="white" stroke="transparent" points="-4,4 -4,-416 1506.84,-416 1506.84,4 -4,4"/>
<!-- Node1 -->
<g id="node1" class="node">
<title>Node1</title>
<g id="a_node1"><a xlink:title=" ">
<polygon fill="#bfbfbf" stroke="black" points="856.34,-392.5 856.34,-411.5 984.34,-411.5 984.34,-392.5 856.34,-392.5"/>
<text text-anchor="middle" x="920.34" y="-399.5" font-family="Helvetica,sans-Serif" font-size="10.00">src/enclave/interface.h</text>
</a>
</g>
</g>
<!-- Node2 -->
<g id="node2" class="node">
<title>Node2</title>
<g id="a_node2"><a xlink:href="oversized_8h.html" target="_top" xlink:title=" ">
<polygon fill="white" stroke="black" points="929.84,-336.5 929.84,-355.5 1016.84,-355.5 1016.84,-336.5 929.84,-336.5"/>
<text text-anchor="middle" x="973.34" y="-343.5" font-family="Helvetica,sans-Serif" font-size="10.00">ds/oversized.h</text>
</a>
</g>
</g>
<!-- Node1&#45;&gt;Node2 -->
<g id="edge1" class="edge">
<title>Node1&#45;&gt;Node2</title>
<path fill="none" stroke="midnightblue" d="M929.09,-392.08C936.81,-384.22 948.24,-372.57 957.55,-363.08"/>
<polygon fill="midnightblue" stroke="midnightblue" points="960.24,-365.34 964.75,-355.75 955.24,-360.44 960.24,-365.34"/>
</g>
<!-- Node23 -->
<g id="node23" class="node">
<title>Node23</title>
<g id="a_node23"><a xlink:href="ring__buffer__types_8h.html" target="_top" xlink:title=" ">
<polygon fill="white" stroke="black" points="771.34,-168.5 771.34,-187.5 881.34,-187.5 881.34,-168.5 771.34,-168.5"/>
<text text-anchor="middle" x="826.34" y="-175.5" font-family="Helvetica,sans-Serif" font-size="10.00">ring_buffer_types.h</text>
</a>
</g>
</g>
<!-- Node1&#45;&gt;Node23 -->
<g id="edge70" class="edge">
<title>Node1&#45;&gt;Node23</title>
<path fill="none" stroke="midnightblue" d="M899.29,-392.48C883.99,-385.15 864.15,-373.04 853.34,-356 821.47,-305.77 822.16,-231.73 824.54,-197.54"/>
<polygon fill="midnightblue" stroke="midnightblue" points="828.02,-197.83 825.36,-187.57 821.05,-197.25 828.02,-197.83"/>
</g>
<!-- Node28 -->
<g id="node28" class="node">
<title>Node28</title>
<g id="a_node28"><a xlink:title=" ">
<polygon fill="white" stroke="#bfbfbf" points="885.84,-0.5 885.84,-19.5 932.84,-19.5 932.84,-0.5 885.84,-0.5"/>
<text text-anchor="middle" x="909.34" y="-7.5" font-family="Helvetica,sans-Serif" font-size="10.00">vector</text>
</a>
</g>
</g>
<!-- Node1&#45;&gt;Node28 -->
<g id="edge72" class="edge">
<title>Node1&#45;&gt;Node28</title>
<path fill="none" stroke="midnightblue" d="M919.7,-392.5C917.98,-368.93 913.21,-300.76 911.34,-244 908.72,-164.52 908.94,-69.7 909.19,-29.98"/>
<polygon fill="midnightblue" stroke="midnightblue" points="912.69,-29.92 909.26,-19.89 905.69,-29.87 912.69,-29.92"/>
</g>
<!-- Node45 -->
<g id="node45" class="node">
<title>Node45</title>
<g id="a_node45"><a xlink:title=" ">
<polygon fill="white" stroke="#bfbfbf" points="1035.34,-336.5 1035.34,-355.5 1085.34,-355.5 1085.34,-336.5 1035.34,-336.5"/>
<text text-anchor="middle" x="1060.34" y="-343.5" font-family="Helvetica,sans-Serif" font-size="10.00">chrono</text>
</a>
</g>
</g>
<!-- Node1&#45;&gt;Node45 -->
<g id="edge71" class="edge">
<title>Node1&#45;&gt;Node45</title>
<path fill="none" stroke="midnightblue" d="M942.52,-392.44C965.76,-383.48 1002.48,-369.31 1028.75,-359.18"/>
<polygon fill="midnightblue" stroke="midnightblue" points="1030.19,-362.38 1038.26,-355.52 1027.67,-355.85 1030.19,-362.38"/>
</g>
<!-- Node3 -->
<g id="node3" class="node">
<title>Node3</title>
<g id="a_node3"><a xlink:href="messaging_8h.html" target="_top" xlink:title=" ">
<polygon fill="white" stroke="black" points="933.84,-280.5 933.84,-299.5 1012.84,-299.5 1012.84,-280.5 933.84,-280.5"/>
<text text-anchor="middle" x="973.34" y="-287.5" font-family="Helvetica,sans-Serif" font-size="10.00">messaging.h</text>
</a>
</g>
</g>
<!-- Node2&#45;&gt;Node3 -->
<g id="edge2" class="edge">
<title>Node2&#45;&gt;Node3</title>
<path fill="none" stroke="midnightblue" d="M973.34,-336.08C973.34,-329.01 973.34,-318.86 973.34,-309.99"/>
<polygon fill="midnightblue" stroke="midnightblue" points="976.84,-309.75 973.34,-299.75 969.84,-309.75 976.84,-309.75"/>
</g>
<!-- Node6 -->
<g id="node6" class="node">
<title>Node6</title>
<g id="a_node6"><a xlink:title=" ">
<polygon fill="white" stroke="#bfbfbf" points="65.84,-112.5 65.84,-131.5 144.84,-131.5 144.84,-112.5 65.84,-112.5"/>
<text text-anchor="middle" x="105.34" y="-119.5" font-family="Helvetica,sans-Serif" font-size="10.00">fmt/format.h</text>
</a>
</g>
</g>
<!-- Node2&#45;&gt;Node6 -->
<g id="edge68" class="edge">
<title>Node2&#45;&gt;Node6</title>
<path fill="none" stroke="midnightblue" d="M929.64,-344.98C758.51,-343.9 137.57,-330.09 19.34,-188 0.81,-165.74 36.11,-146.64 66.93,-135.01"/>
<polygon fill="midnightblue" stroke="midnightblue" points="68.47,-138.18 76.7,-131.51 66.11,-131.59 68.47,-138.18"/>
</g>
<!-- Node19 -->
<g id="node19" class="node">
<title>Node19</title>
<g id="a_node19"><a xlink:href="ring__buffer_8h.html" target="_top" xlink:title=" ">
<polygon fill="white" stroke="black" points="1180.84,-224.5 1180.84,-243.5 1257.84,-243.5 1257.84,-224.5 1180.84,-224.5"/>
<text text-anchor="middle" x="1219.34" y="-231.5" font-family="Helvetica,sans-Serif" font-size="10.00">ring_buffer.h</text>
</a>
</g>
</g>
<!-- Node2&#45;&gt;Node19 -->
<g id="edge66" class="edge">
<title>Node2&#45;&gt;Node19</title>
<path fill="none" stroke="midnightblue" d="M1016.6,-336.45C1069.53,-325.76 1153.68,-307.9 1166.34,-300 1185.18,-288.24 1200.39,-267.41 1209.6,-252.5"/>
<polygon fill="midnightblue" stroke="midnightblue" points="1212.72,-254.1 1214.77,-243.71 1206.68,-250.55 1212.72,-254.1"/>
</g>
<!-- Node37 -->
<g id="node37" class="node">
<title>Node37</title>
<g id="a_node37"><a xlink:href="serialized_8h.html" target="_top" xlink:title=" ">
<polygon fill="white" stroke="black" points="1254.84,-56.5 1254.84,-75.5 1327.84,-75.5 1327.84,-56.5 1254.84,-56.5"/>
<text text-anchor="middle" x="1291.34" y="-63.5" font-family="Helvetica,sans-Serif" font-size="10.00">serialized.h</text>
</a>
</g>
</g>
<!-- Node2&#45;&gt;Node37 -->
<g id="edge67" class="edge">
<title>Node2&#45;&gt;Node37</title>
<path fill="none" stroke="midnightblue" d="M1017.04,-337.61C1058.53,-329.76 1116.93,-316.24 1133.34,-300 1154.73,-278.83 1152.34,-265.1 1152.34,-235 1152.34,-235 1152.34,-235 1152.34,-177 1152.34,-125.58 1211.56,-94.42 1252.69,-78.98"/>
<polygon fill="midnightblue" stroke="midnightblue" points="1253.97,-82.24 1262.2,-75.57 1251.6,-75.65 1253.97,-82.24"/>
</g>
<!-- Node44 -->
<g id="node44" class="node">
<title>Node44</title>
<g id="a_node44"><a xlink:title=" ">
<polygon fill="white" stroke="#bfbfbf" points="1030.84,-280.5 1030.84,-299.5 1123.84,-299.5 1123.84,-280.5 1030.84,-280.5"/>
<text text-anchor="middle" x="1077.34" y="-287.5" font-family="Helvetica,sans-Serif" font-size="10.00">unordered_map</text>
</a>
</g>
</g>
<!-- Node2&#45;&gt;Node44 -->
<g id="edge69" class="edge">
<title>Node2&#45;&gt;Node44</title>
<path fill="none" stroke="midnightblue" d="M990.05,-336.32C1006.65,-327.7 1032.34,-314.36 1051.56,-304.39"/>
<polygon fill="midnightblue" stroke="midnightblue" points="1053.41,-307.37 1060.67,-299.65 1050.18,-301.16 1053.41,-307.37"/>
</g>
<!-- Node4 -->
<g id="node4" class="node">
<title>Node4</title>
<g id="a_node4"><a xlink:href="logger_8h.html" target="_top" xlink:title=" ">
<polygon fill="white" stroke="black" points="331.84,-224.5 331.84,-243.5 418.84,-243.5 418.84,-224.5 331.84,-224.5"/>
<text text-anchor="middle" x="375.34" y="-231.5" font-family="Helvetica,sans-Serif" font-size="10.00">ccf/ds/logger.h</text>
</a>
</g>
</g>
<!-- Node3&#45;&gt;Node4 -->
<g id="edge3" class="edge">
<title>Node3&#45;&gt;Node4</title>
<path fill="none" stroke="midnightblue" d="M933.58,-281.99C928.79,-281.26 923.96,-280.58 919.34,-280 740.59,-257.75 527.38,-243.73 429.42,-237.99"/>
<polygon fill="midnightblue" stroke="midnightblue" points="429.37,-234.48 419.18,-237.39 428.96,-241.47 429.37,-234.48"/>
</g>
<!-- Node11 -->
<g id="node11" class="node">
<title>Node11</title>
<g id="a_node11"><a xlink:title=" ">
<polygon fill="white" stroke="#bfbfbf" points="523.34,-112.5 523.34,-131.5 561.34,-131.5 561.34,-112.5 523.34,-112.5"/>
<text text-anchor="middle" x="542.34" y="-119.5" font-family="Helvetica,sans-Serif" font-size="10.00">map</text>
</a>
</g>
</g>
<!-- Node3&#45;&gt;Node11 -->
<g id="edge64" class="edge">
<title>Node3&#45;&gt;Node11</title>
<path fill="none" stroke="midnightblue" d="M954.91,-280.39C918.14,-263.16 833.11,-223.08 762.34,-188 744.88,-179.35 741.62,-174.72 723.34,-168 660.72,-144.97 639.54,-150.15 571.48,-132.11"/>
<polygon fill="midnightblue" stroke="midnightblue" points="572.12,-128.65 561.55,-129.4 570.28,-135.41 572.12,-128.65"/>
</g>
<!-- Node3&#45;&gt;Node19 -->
<g id="edge20" class="edge">
<title>Node3&#45;&gt;Node19</title>
<path fill="none" stroke="midnightblue" d="M1012.32,-280.44C1055.23,-271.02 1124.28,-255.87 1170.7,-245.68"/>
<polygon fill="midnightblue" stroke="midnightblue" points="1171.52,-249.08 1180.54,-243.52 1170.02,-242.24 1171.52,-249.08"/>
</g>
<!-- Node38 -->
<g id="node38" class="node">
<title>Node38</title>
<g id="a_node38"><a xlink:title=" ">
<polygon fill="white" stroke="#bfbfbf" points="1437.84,-0.5 1437.84,-19.5 1502.84,-19.5 1502.84,-0.5 1437.84,-0.5"/>
<text text-anchor="middle" x="1470.34" y="-7.5" font-family="Helvetica,sans-Serif" font-size="10.00">stdexcept</text>
</a>
</g>
</g>
<!-- Node3&#45;&gt;Node38 -->
<g id="edge65" class="edge">
<title>Node3&#45;&gt;Node38</title>
<path fill="none" stroke="midnightblue" d="M1012.89,-281.61C1016.09,-281.05 1019.26,-280.51 1022.34,-280 1123.02,-263.36 1470.34,-281.05 1470.34,-179 1470.34,-179 1470.34,-179 1470.34,-121 1470.34,-88.95 1470.34,-51.64 1470.34,-29.75"/>
<polygon fill="midnightblue" stroke="midnightblue" points="1473.84,-29.56 1470.34,-19.56 1466.84,-29.56 1473.84,-29.56"/>
</g>
<!-- Node41 -->
<g id="node41" class="node">
<title>Node41</title>
<g id="a_node41"><a xlink:title=" ">
<polygon fill="white" stroke="#bfbfbf" points="1052.34,-112.5 1052.34,-131.5 1102.34,-131.5 1102.34,-112.5 1052.34,-112.5"/>
<text text-anchor="middle" x="1077.34" y="-119.5" font-family="Helvetica,sans-Serif" font-size="10.00">atomic</text>
</a>
</g>
</g>
<!-- Node3&#45;&gt;Node41 -->
<g id="edge62" class="edge">
<title>Node3&#45;&gt;Node41</title>
<path fill="none" stroke="midnightblue" d="M990.9,-280.41C1005.01,-272.69 1024.4,-260.08 1036.34,-244 1059.61,-212.65 1070.26,-167.2 1074.65,-141.86"/>
<polygon fill="midnightblue" stroke="midnightblue" points="1078.14,-142.19 1076.24,-131.76 1071.22,-141.09 1078.14,-142.19"/>
</g>
<!-- Node43 -->
<g id="node43" class="node">
<title>Node43</title>
<g id="a_node43"><a xlink:title=" ">
<polygon fill="white" stroke="#bfbfbf" points="919.84,-224.5 919.84,-243.5 1026.84,-243.5 1026.84,-224.5 919.84,-224.5"/>
<text text-anchor="middle" x="973.34" y="-231.5" font-family="Helvetica,sans-Serif" font-size="10.00">condition_variable</text>
</a>
</g>
</g>
<!-- Node3&#45;&gt;Node43 -->
<g id="edge63" class="edge">
<title>Node3&#45;&gt;Node43</title>
<path fill="none" stroke="midnightblue" d="M973.34,-280.08C973.34,-273.01 973.34,-262.86 973.34,-253.99"/>
<polygon fill="midnightblue" stroke="midnightblue" points="976.84,-253.75 973.34,-243.75 969.84,-253.75 976.84,-253.75"/>
</g>
<!-- Node5 -->
<g id="node5" class="node">
<title>Node5</title>
<g id="a_node5"><a xlink:href="enum__formatter_8h.html" target="_top" xlink:title=" ">
<polygon fill="white" stroke="black" points="37.34,-168.5 37.34,-187.5 173.34,-187.5 173.34,-168.5 37.34,-168.5"/>
<text text-anchor="middle" x="105.34" y="-175.5" font-family="Helvetica,sans-Serif" font-size="10.00">ccf/ds/enum_formatter.h</text>
</a>
</g>
</g>
<!-- Node4&#45;&gt;Node5 -->
<g id="edge4" class="edge">
<title>Node4&#45;&gt;Node5</title>
<path fill="none" stroke="midnightblue" d="M332.55,-224.44C285.16,-214.96 208.71,-199.67 157.75,-189.48"/>
<polygon fill="midnightblue" stroke="midnightblue" points="158.41,-186.05 147.92,-187.52 157.04,-192.91 158.41,-186.05"/>
</g>
<!-- Node4&#45;&gt;Node6 -->
<g id="edge14" class="edge">
<title>Node4&#45;&gt;Node6</title>
<path fill="none" stroke="midnightblue" d="M331.68,-230.51C242.92,-225.01 48.08,-210.47 28.34,-188 10.23,-167.4 43.18,-147.65 71.44,-135.44"/>
<polygon fill="midnightblue" stroke="midnightblue" points="72.85,-138.64 80.77,-131.6 70.19,-132.17 72.85,-138.64"/>
</g>
<!-- Node7 -->
<g id="node7" class="node">
<title>Node7</title>
<g id="a_node7"><a xlink:href="thread__ids_8h.html" target="_top" xlink:title=" ">
<polygon fill="white" stroke="black" points="471.34,-168.5 471.34,-187.5 579.34,-187.5 579.34,-168.5 471.34,-168.5"/>
<text text-anchor="middle" x="525.34" y="-175.5" font-family="Helvetica,sans-Serif" font-size="10.00">ccf/ds/thread_ids.h</text>
</a>
</g>
</g>
<!-- Node4&#45;&gt;Node7 -->
<g id="edge6" class="edge">
<title>Node4&#45;&gt;Node7</title>
<path fill="none" stroke="midnightblue" d="M399.1,-224.44C424.23,-215.4 464.05,-201.06 492.24,-190.92"/>
<polygon fill="midnightblue" stroke="midnightblue" points="493.46,-194.2 501.68,-187.52 491.08,-187.61 493.46,-194.2"/>
</g>
<!-- Node13 -->
<g id="node13" class="node">
<title>Node13</title>
<g id="a_node13"><a xlink:title=" ">
<polygon fill="white" stroke="#bfbfbf" points="635.84,-168.5 635.84,-187.5 714.84,-187.5 714.84,-168.5 635.84,-168.5"/>
<text text-anchor="middle" x="675.34" y="-175.5" font-family="Helvetica,sans-Serif" font-size="10.00">fmt/chrono.h</text>
</a>
</g>
</g>
<!-- Node4&#45;&gt;Node13 -->
<g id="edge13" class="edge">
<title>Node4&#45;&gt;Node13</title>
<path fill="none" stroke="midnightblue" d="M418.96,-225.15C473.84,-215.27 567.87,-198.34 625.52,-187.97"/>
<polygon fill="midnightblue" stroke="midnightblue" points="626.27,-191.39 635.5,-186.17 625.03,-184.5 626.27,-191.39"/>
</g>
<!-- Node14 -->
<g id="node14" class="node">
<title>Node14</title>
<g id="a_node14"><a xlink:title=" ">
<polygon fill="white" stroke="#bfbfbf" points="191.34,-168.5 191.34,-187.5 251.34,-187.5 251.34,-168.5 191.34,-168.5"/>
<text text-anchor="middle" x="221.34" y="-175.5" font-family="Helvetica,sans-Serif" font-size="10.00">iostream</text>
</a>
</g>
</g>
<!-- Node4&#45;&gt;Node14 -->
<g id="edge15" class="edge">
<title>Node4&#45;&gt;Node14</title>
<path fill="none" stroke="midnightblue" d="M350.93,-224.44C325.14,-215.4 284.26,-201.06 255.32,-190.92"/>
<polygon fill="midnightblue" stroke="midnightblue" points="256.22,-187.52 245.62,-187.52 253.9,-194.13 256.22,-187.52"/>
</g>
<!-- Node15 -->
<g id="node15" class="node">
<title>Node15</title>
<g id="a_node15"><a xlink:title=" ">
<polygon fill="white" stroke="#bfbfbf" points="269.34,-168.5 269.34,-187.5 379.34,-187.5 379.34,-168.5 269.34,-168.5"/>
<text text-anchor="middle" x="324.34" y="-175.5" font-family="Helvetica,sans-Serif" font-size="10.00">nlohmann/json.hpp</text>
</a>
</g>
</g>
<!-- Node4&#45;&gt;Node15 -->
<g id="edge16" class="edge">
<title>Node4&#45;&gt;Node15</title>
<path fill="none" stroke="midnightblue" d="M366.91,-224.08C359.49,-216.22 348.48,-204.57 339.52,-195.08"/>
<polygon fill="midnightblue" stroke="midnightblue" points="342.01,-192.62 332.6,-187.75 336.92,-197.42 342.01,-192.62"/>
</g>
<!-- Node16 -->
<g id="node16" class="node">
<title>Node16</title>
<g id="a_node16"><a xlink:title=" ">
<polygon fill="white" stroke="#bfbfbf" points="579.34,-112.5 579.34,-131.5 635.34,-131.5 635.34,-112.5 579.34,-112.5"/>
<text text-anchor="middle" x="607.34" y="-119.5" font-family="Helvetica,sans-Serif" font-size="10.00">optional</text>
</a>
</g>
</g>
<!-- Node4&#45;&gt;Node16 -->
<g id="edge17" class="edge">
<title>Node4&#45;&gt;Node16</title>
<path fill="none" stroke="midnightblue" d="M419,-229.04C473.97,-223.18 564.15,-210.41 588.34,-188 600.99,-176.27 605.38,-156.63 606.82,-142"/>
<polygon fill="midnightblue" stroke="midnightblue" points="610.34,-141.78 607.45,-131.59 603.36,-141.36 610.34,-141.78"/>
</g>
<!-- Node17 -->
<g id="node17" class="node">
<title>Node17</title>
<g id="a_node17"><a xlink:title=" ">
<polygon fill="white" stroke="#bfbfbf" points="397.34,-168.5 397.34,-187.5 453.34,-187.5 453.34,-168.5 397.34,-168.5"/>
<text text-anchor="middle" x="425.34" y="-175.5" font-family="Helvetica,sans-Serif" font-size="10.00">sstream</text>
</a>
</g>
</g>
<!-- Node4&#45;&gt;Node17 -->
<g id="edge18" class="edge">
<title>Node4&#45;&gt;Node17</title>
<path fill="none" stroke="midnightblue" d="M383.59,-224.08C390.8,-216.3 401.45,-204.8 410.18,-195.37"/>
<polygon fill="midnightblue" stroke="midnightblue" points="413.01,-197.47 417.23,-187.75 407.87,-192.71 413.01,-197.47"/>
</g>
<!-- Node18 -->
<g id="node18" class="node">
<title>Node18</title>
<g id="a_node18"><a xlink:title=" ">
<polygon fill="white" stroke="#bfbfbf" points="353.84,-0.5 353.84,-19.5 422.84,-19.5 422.84,-0.5 353.84,-0.5"/>
<text text-anchor="middle" x="388.34" y="-7.5" font-family="Helvetica,sans-Serif" font-size="10.00">type_traits</text>
</a>
</g>
</g>
<!-- Node4&#45;&gt;Node18 -->
<g id="edge19" class="edge">
<title>Node4&#45;&gt;Node18</title>
<path fill="none" stroke="midnightblue" d="M331.59,-230.66C241.03,-225.36 39.7,-211.1 19.34,-188 -78.27,-77.28 225.5,-29.7 343.52,-15.7"/>
<polygon fill="midnightblue" stroke="midnightblue" points="344.15,-19.15 353.68,-14.52 343.34,-12.19 344.15,-19.15"/>
</g>
<!-- Node5&#45;&gt;Node6 -->
<g id="edge5" class="edge">
<title>Node5&#45;&gt;Node6</title>
<path fill="none" stroke="midnightblue" d="M105.34,-168.08C105.34,-161.01 105.34,-150.86 105.34,-141.99"/>
<polygon fill="midnightblue" stroke="midnightblue" points="108.84,-141.75 105.34,-131.75 101.84,-141.75 108.84,-141.75"/>
</g>
<!-- Node7&#45;&gt;Node6 -->
<g id="edge7" class="edge">
<title>Node7&#45;&gt;Node6</title>
<path fill="none" stroke="midnightblue" d="M471.05,-169.19C468.1,-168.78 465.18,-168.38 462.34,-168 352.8,-153.27 224.16,-137.41 155.13,-129.01"/>
<polygon fill="midnightblue" stroke="midnightblue" points="155.33,-125.51 144.98,-127.78 154.49,-132.46 155.33,-125.51"/>
</g>
<!-- Node8 -->
<g id="node8" class="node">
<title>Node8</title>
<g id="a_node8"><a xlink:title=" ">
<polygon fill="white" stroke="#bfbfbf" points="339.34,-112.5 339.34,-131.5 425.34,-131.5 425.34,-112.5 339.34,-112.5"/>
<text text-anchor="middle" x="382.34" y="-119.5" font-family="Helvetica,sans-Serif" font-size="10.00">fmt/ostream.h</text>
</a>
</g>
</g>
<!-- Node7&#45;&gt;Node8 -->
<g id="edge8" class="edge">
<title>Node7&#45;&gt;Node8</title>
<path fill="none" stroke="midnightblue" d="M502.68,-168.44C478.93,-159.48 441.43,-145.31 414.6,-135.18"/>
<polygon fill="midnightblue" stroke="midnightblue" points="415.48,-131.77 404.89,-131.52 413.01,-138.32 415.48,-131.77"/>
</g>
<!-- Node9 -->
<g id="node9" class="node">
<title>Node9</title>
<g id="a_node9"><a xlink:title=" ">
<polygon fill="white" stroke="#bfbfbf" points="443.84,-112.5 443.84,-131.5 504.84,-131.5 504.84,-112.5 443.84,-112.5"/>
<text text-anchor="middle" x="474.34" y="-119.5" font-family="Helvetica,sans-Serif" font-size="10.00">fmt/std.h</text>
</a>
</g>
</g>
<!-- Node7&#45;&gt;Node9 -->
<g id="edge9" class="edge">
<title>Node7&#45;&gt;Node9</title>
<path fill="none" stroke="midnightblue" d="M516.91,-168.08C509.49,-160.22 498.48,-148.57 489.52,-139.08"/>
<polygon fill="midnightblue" stroke="midnightblue" points="492.01,-136.62 482.6,-131.75 486.92,-141.42 492.01,-136.62"/>
</g>
<!-- Node10 -->
<g id="node10" class="node">
<title>Node10</title>
<g id="a_node10"><a xlink:title=" ">
<polygon fill="white" stroke="#bfbfbf" points="1199.34,-112.5 1199.34,-131.5 1243.34,-131.5 1243.34,-112.5 1199.34,-112.5"/>
<text text-anchor="middle" x="1221.34" y="-119.5" font-family="Helvetica,sans-Serif" font-size="10.00">limits</text>
</a>
</g>
</g>
<!-- Node7&#45;&gt;Node10 -->
<g id="edge10" class="edge">
<title>Node7&#45;&gt;Node10</title>
<path fill="none" stroke="midnightblue" d="M579.57,-172.02C594.71,-170.67 611.16,-169.24 626.34,-168 841.77,-150.41 895.84,-148.81 1111.34,-132 1137.44,-129.96 1167.01,-127.54 1188.92,-125.72"/>
<polygon fill="midnightblue" stroke="midnightblue" points="1189.33,-129.19 1199.01,-124.88 1188.75,-122.22 1189.33,-129.19"/>
</g>
<!-- Node7&#45;&gt;Node11 -->
<g id="edge11" class="edge">
<title>Node7&#45;&gt;Node11</title>
<path fill="none" stroke="midnightblue" d="M528.14,-168.08C530.42,-160.85 533.71,-150.41 536.54,-141.4"/>
<polygon fill="midnightblue" stroke="midnightblue" points="539.92,-142.34 539.58,-131.75 533.24,-140.24 539.92,-142.34"/>
</g>
<!-- Node12 -->
<g id="node12" class="node">
<title>Node12</title>
<g id="a_node12"><a xlink:title=" ">
<polygon fill="white" stroke="#bfbfbf" points="273.34,-112.5 273.34,-131.5 321.34,-131.5 321.34,-112.5 273.34,-112.5"/>
<text text-anchor="middle" x="297.34" y="-119.5" font-family="Helvetica,sans-Serif" font-size="10.00">thread</text>
</a>
</g>
</g>
<!-- Node7&#45;&gt;Node12 -->
<g id="edge12" class="edge">
<title>Node7&#45;&gt;Node12</title>
<path fill="none" stroke="midnightblue" d="M486.38,-168.48C449.02,-160.21 390.79,-147.05 331.39,-132.19"/>
<polygon fill="midnightblue" stroke="midnightblue" points="332.01,-128.74 321.46,-129.7 330.3,-135.53 332.01,-128.74"/>
</g>
<!-- Node20 -->
<g id="node20" class="node">
<title>Node20</title>
<g id="a_node20"><a xlink:href="mem_8h.html" target="_top" xlink:title=" ">
<polygon fill="white" stroke="black" points="1267.34,-168.5 1267.34,-187.5 1353.34,-187.5 1353.34,-168.5 1267.34,-168.5"/>
<text text-anchor="middle" x="1310.34" y="-175.5" font-family="Helvetica,sans-Serif" font-size="10.00">ccf/pal/mem.h</text>
</a>
</g>
</g>
<!-- Node19&#45;&gt;Node20 -->
<g id="edge21" class="edge">
<title>Node19&#45;&gt;Node20</title>
<path fill="none" stroke="midnightblue" d="M1233.96,-224.32C1248.28,-215.82 1270.35,-202.73 1287.08,-192.8"/>
<polygon fill="midnightblue" stroke="midnightblue" points="1288.94,-195.77 1295.75,-187.65 1285.37,-189.75 1288.94,-195.77"/>
</g>
<!-- Node22 -->
<g id="node22" class="node">
<title>Node22</title>
<g id="a_node22"><a xlink:title=" ">
<polygon fill="white" stroke="#bfbfbf" points="1369.34,-0.5 1369.34,-19.5 1419.34,-19.5 1419.34,-0.5 1369.34,-0.5"/>
<text text-anchor="middle" x="1394.34" y="-7.5" font-family="Helvetica,sans-Serif" font-size="10.00">cstring</text>
</a>
</g>
</g>
<!-- Node19&#45;&gt;Node22 -->
<g id="edge60" class="edge">
<title>Node19&#45;&gt;Node22</title>
<path fill="none" stroke="midnightblue" d="M1257.85,-230.98C1290.18,-227.19 1335.3,-216.7 1362.34,-188 1403.68,-144.1 1400.86,-65.72 1396.98,-29.85"/>
<polygon fill="midnightblue" stroke="midnightblue" points="1400.43,-29.3 1395.73,-19.8 1393.49,-30.16 1400.43,-29.3"/>
</g>
<!-- Node19&#45;&gt;Node23 -->
<g id="edge25" class="edge">
<title>Node19&#45;&gt;Node23</title>
<path fill="none" stroke="midnightblue" d="M1180.58,-227.67C1113.19,-218.42 973.77,-199.26 891.36,-187.93"/>
<polygon fill="midnightblue" stroke="midnightblue" points="891.73,-184.45 881.35,-186.56 890.78,-191.39 891.73,-184.45"/>
</g>
<!-- Node42 -->
<g id="node42" class="node">
<title>Node42</title>
<g id="a_node42"><a xlink:title=" ">
<polygon fill="white" stroke="#bfbfbf" points="1183.84,-168.5 1183.84,-187.5 1248.84,-187.5 1248.84,-168.5 1183.84,-168.5"/>
<text text-anchor="middle" x="1216.34" y="-175.5" font-family="Helvetica,sans-Serif" font-size="10.00">functional</text>
</a>
</g>
</g>
<!-- Node19&#45;&gt;Node42 -->
<g id="edge61" class="edge">
<title>Node19&#45;&gt;Node42</title>
<path fill="none" stroke="midnightblue" d="M1218.84,-224.08C1218.45,-217.01 1217.88,-206.86 1217.39,-197.99"/>
<polygon fill="midnightblue" stroke="midnightblue" points="1220.87,-197.54 1216.82,-187.75 1213.88,-197.93 1220.87,-197.54"/>
</g>
<!-- Node20&#45;&gt;Node10 -->
<g id="edge24" class="edge">
<title>Node20&#45;&gt;Node10</title>
<path fill="none" stroke="midnightblue" d="M1296.04,-168.32C1282.15,-159.9 1260.84,-146.97 1244.53,-137.07"/>
<polygon fill="midnightblue" stroke="midnightblue" points="1245.96,-133.85 1235.6,-131.65 1242.33,-139.83 1245.96,-133.85"/>
</g>
<!-- Node21 -->
<g id="node21" class="node">
<title>Node21</title>
<g id="a_node21"><a xlink:title=" ">
<polygon fill="white" stroke="#bfbfbf" points="1283.84,-112.5 1283.84,-131.5 1336.84,-131.5 1336.84,-112.5 1283.84,-112.5"/>
<text text-anchor="middle" x="1310.34" y="-119.5" font-family="Helvetica,sans-Serif" font-size="10.00">stdlib.h</text>
</a>
</g>
</g>
<!-- Node20&#45;&gt;Node21 -->
<g id="edge22" class="edge">
<title>Node20&#45;&gt;Node21</title>
<path fill="none" stroke="midnightblue" d="M1310.34,-168.08C1310.34,-161.01 1310.34,-150.86 1310.34,-141.99"/>
<polygon fill="midnightblue" stroke="midnightblue" points="1313.84,-141.75 1310.34,-131.75 1306.84,-141.75 1313.84,-141.75"/>
</g>
<!-- Node20&#45;&gt;Node22 -->
<g id="edge23" class="edge">
<title>Node20&#45;&gt;Node22</title>
<path fill="none" stroke="midnightblue" d="M1318.63,-168.27C1326.54,-159.61 1338.4,-145.67 1346.34,-132 1366.22,-97.77 1381.37,-53.73 1388.95,-29.33"/>
<polygon fill="midnightblue" stroke="midnightblue" points="1392.34,-30.2 1391.89,-19.61 1385.64,-28.17 1392.34,-30.2"/>
</g>
<!-- Node23&#45;&gt;Node6 -->
<g id="edge56" class="edge">
<title>Node23&#45;&gt;Node6</title>
<path fill="none" stroke="midnightblue" d="M771.29,-172.04C755.78,-170.69 738.9,-169.25 723.34,-168 512.15,-151.09 260.15,-133.56 155.11,-126.38"/>
<polygon fill="midnightblue" stroke="midnightblue" points="155.33,-122.89 145.12,-125.7 154.85,-129.87 155.33,-122.89"/>
</g>
<!-- Node23&#45;&gt;Node16 -->
<g id="edge57" class="edge">
<title>Node23&#45;&gt;Node16</title>
<path fill="none" stroke="midnightblue" d="M791.63,-168.44C751.83,-158.63 686.76,-142.59 645.54,-132.42"/>
<polygon fill="midnightblue" stroke="midnightblue" points="646.15,-128.97 635.61,-129.97 644.48,-135.76 646.15,-128.97"/>
</g>
<!-- Node24 -->
<g id="node24" class="node">
<title>Node24</title>
<g id="a_node24"><a xlink:href="include_2ccf_2ds_2hash_8h.html" target="_top" xlink:title=" ">
<polygon fill="white" stroke="black" points="954.34,-112.5 954.34,-131.5 1034.34,-131.5 1034.34,-112.5 954.34,-112.5"/>
<text text-anchor="middle" x="994.34" y="-119.5" font-family="Helvetica,sans-Serif" font-size="10.00">ccf/ds/hash.h</text>
</a>
</g>
</g>
<!-- Node23&#45;&gt;Node24 -->
<g id="edge26" class="edge">
<title>Node23&#45;&gt;Node24</title>
<path fill="none" stroke="midnightblue" d="M852.96,-168.44C881.34,-159.32 926.47,-144.81 958.09,-134.65"/>
<polygon fill="midnightblue" stroke="midnightblue" points="959.39,-137.91 967.84,-131.52 957.25,-131.24 959.39,-137.91"/>
</g>
<!-- Node23&#45;&gt;Node28 -->
<g id="edge59" class="edge">
<title>Node23&#45;&gt;Node28</title>
<path fill="none" stroke="midnightblue" d="M830.8,-168.08C843.98,-141.72 882.9,-63.88 900.51,-28.66"/>
<polygon fill="midnightblue" stroke="midnightblue" points="903.71,-30.08 905.05,-19.57 897.45,-26.95 903.71,-30.08"/>
</g>
<!-- Node31 -->
<g id="node31" class="node">
<title>Node31</title>
<g id="a_node31"><a xlink:href="nonstd_8h.html" target="_top" xlink:title=" ">
<polygon fill="white" stroke="black" points="503.34,-56.5 503.34,-75.5 593.34,-75.5 593.34,-56.5 503.34,-56.5"/>
<text text-anchor="middle" x="548.34" y="-63.5" font-family="Helvetica,sans-Serif" font-size="10.00">ccf/ds/nonstd.h</text>
</a>
</g>
</g>
<!-- Node23&#45;&gt;Node31 -->
<g id="edge35" class="edge">
<title>Node23&#45;&gt;Node31</title>
<path fill="none" stroke="midnightblue" d="M796.4,-168.48C767.99,-160.13 724.27,-146.55 687.34,-132 685.92,-131.44 615.92,-98.66 575.81,-79.87"/>
<polygon fill="midnightblue" stroke="midnightblue" points="577.09,-76.61 566.55,-75.54 574.12,-82.95 577.09,-76.61"/>
</g>
<!-- Node34 -->
<g id="node34" class="node">
<title>Node34</title>
<g id="a_node34"><a xlink:title=" ">
<polygon fill="white" stroke="#bfbfbf" points="742.34,-0.5 742.34,-19.5 786.34,-19.5 786.34,-0.5 742.34,-0.5"/>
<text text-anchor="middle" x="764.34" y="-7.5" font-family="Helvetica,sans-Serif" font-size="10.00">string</text>
</a>
</g>
</g>
<!-- Node23&#45;&gt;Node34 -->
<g id="edge58" class="edge">
<title>Node23&#45;&gt;Node34</title>
<path fill="none" stroke="midnightblue" d="M803.91,-168.49C758.19,-150.61 657.05,-108.1 640.34,-76 636.23,-68.12 635.23,-63.28 640.34,-56 645.85,-48.13 697.49,-31.22 732.36,-20.52"/>
<polygon fill="midnightblue" stroke="midnightblue" points="733.59,-23.8 742.14,-17.55 731.55,-17.11 733.59,-23.8"/>
</g>
<!-- Node36 -->
<g id="node36" class="node">
<title>Node36</title>
<g id="a_node36"><a xlink:href="serializer_8h.html" target="_top" xlink:title=" ">
<polygon fill="white" stroke="black" points="729.34,-112.5 729.34,-131.5 799.34,-131.5 799.34,-112.5 729.34,-112.5"/>
<text text-anchor="middle" x="764.34" y="-119.5" font-family="Helvetica,sans-Serif" font-size="10.00">serializer.h</text>
</a>
</g>
</g>
<!-- Node23&#45;&gt;Node36 -->
<g id="edge43" class="edge">
<title>Node23&#45;&gt;Node36</title>
<path fill="none" stroke="midnightblue" d="M816.37,-168.32C807.21,-160.34 793.4,-148.31 782.31,-138.65"/>
<polygon fill="midnightblue" stroke="midnightblue" points="784.32,-135.76 774.48,-131.83 779.72,-141.04 784.32,-135.76"/>
</g>
<!-- Node23&#45;&gt;Node41 -->
<g id="edge55" class="edge">
<title>Node23&#45;&gt;Node41</title>
<path fill="none" stroke="midnightblue" d="M870.96,-168.48C912.79,-160.33 977.3,-147.35 1042.14,-132.19"/>
<polygon fill="midnightblue" stroke="midnightblue" points="1043.19,-135.54 1052.12,-129.84 1041.59,-128.72 1043.19,-135.54"/>
</g>
<!-- Node25 -->
<g id="node25" class="node">
<title>Node25</title>
<g id="a_node25"><a xlink:href="siphash_8h.html" target="_top" xlink:title=" ">
<polygon fill="white" stroke="black" points="1141.84,-56.5 1141.84,-75.5 1236.84,-75.5 1236.84,-56.5 1141.84,-56.5"/>
<text text-anchor="middle" x="1189.34" y="-63.5" font-family="Helvetica,sans-Serif" font-size="10.00">ccf/ds/siphash.h</text>
</a>
</g>
</g>
<!-- Node24&#45;&gt;Node25 -->
<g id="edge27" class="edge">
<title>Node24&#45;&gt;Node25</title>
<path fill="none" stroke="midnightblue" d="M1025.23,-112.44C1058.61,-103.2 1111.93,-88.44 1148.68,-78.26"/>
<polygon fill="midnightblue" stroke="midnightblue" points="1149.88,-81.56 1158.58,-75.52 1148.01,-74.81 1149.88,-81.56"/>
</g>
<!-- Node27 -->
<g id="node27" class="node">
<title>Node27</title>
<g id="a_node27"><a xlink:title=" ">
<polygon fill="white" stroke="#bfbfbf" points="1266.34,-0.5 1266.34,-19.5 1316.34,-19.5 1316.34,-0.5 1266.34,-0.5"/>
<text text-anchor="middle" x="1291.34" y="-7.5" font-family="Helvetica,sans-Serif" font-size="10.00">cstdint</text>
</a>
</g>
</g>
<!-- Node24&#45;&gt;Node27 -->
<g id="edge32" class="edge">
<title>Node24&#45;&gt;Node27</title>
<path fill="none" stroke="midnightblue" d="M1034.41,-113.44C1037.43,-112.93 1040.43,-112.44 1043.34,-112 1108.4,-102.05 1293.71,-125.29 1337.34,-76 1351.59,-59.9 1331.54,-39.37 1313.61,-25.73"/>
<polygon fill="midnightblue" stroke="midnightblue" points="1315.3,-22.64 1305.14,-19.64 1311.21,-28.32 1315.3,-22.64"/>
</g>
<!-- Node24&#45;&gt;Node28 -->
<g id="edge34" class="edge">
<title>Node24&#45;&gt;Node28</title>
<path fill="none" stroke="midnightblue" d="M1031.61,-112.45C1068.5,-102.22 1116.61,-83.04 1095.34,-56 1076.72,-32.34 991.27,-19.63 942.92,-14.22"/>
<polygon fill="midnightblue" stroke="midnightblue" points="943.24,-10.74 932.92,-13.15 942.49,-17.7 943.24,-10.74"/>
</g>
<!-- Node29 -->
<g id="node29" class="node">
<title>Node29</title>
<g id="a_node29"><a xlink:title=" ">
<polygon fill="white" stroke="#bfbfbf" points="682.34,-0.5 682.34,-19.5 724.34,-19.5 724.34,-0.5 682.34,-0.5"/>
<text text-anchor="middle" x="703.34" y="-7.5" font-family="Helvetica,sans-Serif" font-size="10.00">array</text>
</a>
</g>
</g>
<!-- Node24&#45;&gt;Node29 -->
<g id="edge31" class="edge">
<title>Node24&#45;&gt;Node29</title>
<path fill="none" stroke="midnightblue" d="M971.5,-112.37C919.57,-92.74 792.59,-44.74 733.95,-22.57"/>
<polygon fill="midnightblue" stroke="midnightblue" points="735.08,-19.26 724.48,-18.99 732.6,-25.8 735.08,-19.26"/>
</g>
<!-- Node30 -->
<g id="node30" class="node">
<title>Node30</title>
<g id="a_node30"><a xlink:title=" ">
<polygon fill="white" stroke="#bfbfbf" points="936.84,-56.5 936.84,-75.5 1085.84,-75.5 1085.84,-56.5 936.84,-56.5"/>
<text text-anchor="middle" x="1011.34" y="-63.5" font-family="Helvetica,sans-Serif" font-size="10.00">small_vector/SmallVector.h</text>
</a>
</g>
</g>
<!-- Node24&#45;&gt;Node30 -->
<g id="edge33" class="edge">
<title>Node24&#45;&gt;Node30</title>
<path fill="none" stroke="midnightblue" d="M997.14,-112.08C999.42,-104.85 1002.71,-94.41 1005.54,-85.4"/>
<polygon fill="midnightblue" stroke="midnightblue" points="1008.92,-86.34 1008.58,-75.75 1002.24,-84.24 1008.92,-86.34"/>
</g>
<!-- Node26 -->
<g id="node26" class="node">
<title>Node26</title>
<g id="a_node26"><a xlink:title=" ">
<polygon fill="white" stroke="#bfbfbf" points="1162.84,-0.5 1162.84,-19.5 1215.84,-19.5 1215.84,-0.5 1162.84,-0.5"/>
<text text-anchor="middle" x="1189.34" y="-7.5" font-family="Helvetica,sans-Serif" font-size="10.00">cstddef</text>
</a>
</g>
</g>
<!-- Node25&#45;&gt;Node26 -->
<g id="edge28" class="edge">
<title>Node25&#45;&gt;Node26</title>
<path fill="none" stroke="midnightblue" d="M1189.34,-56.08C1189.34,-49.01 1189.34,-38.86 1189.34,-29.99"/>
<polygon fill="midnightblue" stroke="midnightblue" points="1192.84,-29.75 1189.34,-19.75 1185.84,-29.75 1192.84,-29.75"/>
</g>
<!-- Node25&#45;&gt;Node27 -->
<g id="edge29" class="edge">
<title>Node25&#45;&gt;Node27</title>
<path fill="none" stroke="midnightblue" d="M1205.72,-56.32C1222.01,-47.7 1247.2,-34.36 1266.05,-24.39"/>
<polygon fill="midnightblue" stroke="midnightblue" points="1267.79,-27.43 1274.99,-19.65 1264.51,-21.24 1267.79,-27.43"/>
</g>
<!-- Node25&#45;&gt;Node28 -->
<g id="edge30" class="edge">
<title>Node25&#45;&gt;Node28</title>
<path fill="none" stroke="midnightblue" d="M1144.97,-56.44C1088.82,-45.62 993.37,-27.21 942.91,-17.47"/>
<polygon fill="midnightblue" stroke="midnightblue" points="943.33,-13.99 932.85,-15.54 942.01,-20.87 943.33,-13.99"/>
</g>
<!-- Node31&#45;&gt;Node18 -->
<g id="edge41" class="edge">
<title>Node31&#45;&gt;Node18</title>
<path fill="none" stroke="midnightblue" d="M522.98,-56.44C496.07,-47.36 453.34,-32.94 423.25,-22.78"/>
<polygon fill="midnightblue" stroke="midnightblue" points="424.16,-19.4 413.57,-19.52 421.93,-26.03 424.16,-19.4"/>
</g>
<!-- Node31&#45;&gt;Node28 -->
<g id="edge42" class="edge">
<title>Node31&#45;&gt;Node28</title>
<path fill="none" stroke="midnightblue" d="M593.69,-58.22C667.06,-47.24 810.13,-25.84 875.4,-16.08"/>
<polygon fill="midnightblue" stroke="midnightblue" points="876.18,-19.5 885.56,-14.56 875.15,-12.58 876.18,-19.5"/>
</g>
<!-- Node31&#45;&gt;Node29 -->
<g id="edge37" class="edge">
<title>Node31&#45;&gt;Node29</title>
<path fill="none" stroke="midnightblue" d="M572.9,-56.44C599.77,-47.08 642.93,-32.05 672.17,-21.86"/>
<polygon fill="midnightblue" stroke="midnightblue" points="673.59,-25.07 681.89,-18.47 671.29,-18.46 673.59,-25.07"/>
</g>
<!-- Node32 -->
<g id="node32" class="node">
<title>Node32</title>
<g id="a_node32"><a xlink:title=" ">
<polygon fill="white" stroke="#bfbfbf" points="441.34,-0.5 441.34,-19.5 505.34,-19.5 505.34,-0.5 441.34,-0.5"/>
<text text-anchor="middle" x="473.34" y="-7.5" font-family="Helvetica,sans-Serif" font-size="10.00">algorithm</text>
</a>
</g>
</g>
<!-- Node31&#45;&gt;Node32 -->
<g id="edge36" class="edge">
<title>Node31&#45;&gt;Node32</title>
<path fill="none" stroke="midnightblue" d="M536.29,-56.32C524.87,-48.11 507.5,-35.6 493.9,-25.81"/>
<polygon fill="midnightblue" stroke="midnightblue" points="495.77,-22.84 485.61,-19.83 491.68,-28.52 495.77,-22.84"/>
</g>
<!-- Node33 -->
<g id="node33" class="node">
<title>Node33</title>
<g id="a_node33"><a xlink:title=" ">
<polygon fill="white" stroke="#bfbfbf" points="523.84,-0.5 523.84,-19.5 572.84,-19.5 572.84,-0.5 523.84,-0.5"/>
<text text-anchor="middle" x="548.34" y="-7.5" font-family="Helvetica,sans-Serif" font-size="10.00">cctype</text>
</a>
</g>
</g>
<!-- Node31&#45;&gt;Node33 -->
<g id="edge38" class="edge">
<title>Node31&#45;&gt;Node33</title>
<path fill="none" stroke="midnightblue" d="M548.34,-56.08C548.34,-49.01 548.34,-38.86 548.34,-29.99"/>
<polygon fill="midnightblue" stroke="midnightblue" points="551.84,-29.75 548.34,-19.75 544.84,-29.75 551.84,-29.75"/>
</g>
<!-- Node31&#45;&gt;Node34 -->
<g id="edge39" class="edge">
<title>Node31&#45;&gt;Node34</title>
<path fill="none" stroke="midnightblue" d="M585.66,-56.43C621.07,-48.19 675.98,-35.11 732.24,-20.21"/>
<polygon fill="midnightblue" stroke="midnightblue" points="733.26,-23.56 742.02,-17.61 731.45,-16.8 733.26,-23.56"/>
</g>
<!-- Node35 -->
<g id="node35" class="node">
<title>Node35</title>
<g id="a_node35"><a xlink:title=" ">
<polygon fill="white" stroke="#bfbfbf" points="590.84,-0.5 590.84,-19.5 663.84,-19.5 663.84,-0.5 590.84,-0.5"/>
<text text-anchor="middle" x="627.34" y="-7.5" font-family="Helvetica,sans-Serif" font-size="10.00">string_view</text>
</a>
</g>
</g>
<!-- Node31&#45;&gt;Node35 -->
<g id="edge40" class="edge">
<title>Node31&#45;&gt;Node35</title>
<path fill="none" stroke="midnightblue" d="M561.03,-56.32C573.24,-47.98 591.91,-35.21 606.34,-25.35"/>
<polygon fill="midnightblue" stroke="midnightblue" points="608.39,-28.19 614.67,-19.65 604.44,-22.41 608.39,-28.19"/>
</g>
<!-- Node36&#45;&gt;Node18 -->
<g id="edge53" class="edge">
<title>Node36&#45;&gt;Node18</title>
<path fill="none" stroke="midnightblue" d="M729.14,-119.43C676.52,-116.14 574.91,-106.11 494.34,-76 461.4,-63.69 427.46,-40.73 407.13,-25.65"/>
<polygon fill="midnightblue" stroke="midnightblue" points="409.13,-22.78 399.05,-19.54 404.91,-28.36 409.13,-22.78"/>
</g>
<!-- Node36&#45;&gt;Node28 -->
<g id="edge54" class="edge">
<title>Node36&#45;&gt;Node28</title>
<path fill="none" stroke="midnightblue" d="M775.71,-112.37C800.38,-93.65 859.05,-49.15 889.78,-25.83"/>
<polygon fill="midnightblue" stroke="midnightblue" points="892.16,-28.42 898.01,-19.59 887.93,-22.85 892.16,-28.42"/>
</g>
<!-- Node36&#45;&gt;Node31 -->
<g id="edge44" class="edge">
<title>Node36&#45;&gt;Node31</title>
<path fill="none" stroke="midnightblue" d="M730.11,-112.44C692.82,-103.12 633.07,-88.18 592.32,-78"/>
<polygon fill="midnightblue" stroke="midnightblue" points="592.95,-74.55 582.4,-75.52 591.25,-81.34 592.95,-74.55"/>
</g>
<!-- Node36&#45;&gt;Node37 -->
<g id="edge45" class="edge">
<title>Node36&#45;&gt;Node37</title>
<path fill="none" stroke="midnightblue" d="M799.56,-118.97C877.86,-114.2 1072.42,-100.85 1244.55,-76.13"/>
<polygon fill="midnightblue" stroke="midnightblue" points="1245.16,-79.58 1254.55,-74.68 1244.15,-72.66 1245.16,-79.58"/>
</g>
<!-- Node39 -->
<g id="node39" class="node">
<title>Node39</title>
<g id="a_node39"><a xlink:title=" ">
<polygon fill="white" stroke="#bfbfbf" points="649.34,-56.5 649.34,-75.5 707.34,-75.5 707.34,-56.5 649.34,-56.5"/>
<text text-anchor="middle" x="678.34" y="-63.5" font-family="Helvetica,sans-Serif" font-size="10.00">memory</text>
</a>
</g>
</g>
<!-- Node36&#45;&gt;Node39 -->
<g id="edge51" class="edge">
<title>Node36&#45;&gt;Node39</title>
<path fill="none" stroke="midnightblue" d="M750.52,-112.32C737.1,-103.9 716.51,-90.97 700.75,-81.07"/>
<polygon fill="midnightblue" stroke="midnightblue" points="702.45,-78.01 692.12,-75.65 698.73,-83.94 702.45,-78.01"/>
</g>
<!-- Node40 -->
<g id="node40" class="node">
<title>Node40</title>
<g id="a_node40"><a xlink:title=" ">
<polygon fill="white" stroke="#bfbfbf" points="725.84,-56.5 725.84,-75.5 766.84,-75.5 766.84,-56.5 725.84,-56.5"/>
<text text-anchor="middle" x="746.34" y="-63.5" font-family="Helvetica,sans-Serif" font-size="10.00">tuple</text>
</a>
</g>
</g>
<!-- Node36&#45;&gt;Node40 -->
<g id="edge52" class="edge">
<title>Node36&#45;&gt;Node40</title>
<path fill="none" stroke="midnightblue" d="M761.36,-112.08C758.95,-104.85 755.47,-94.41 752.47,-85.4"/>
<polygon fill="midnightblue" stroke="midnightblue" points="755.74,-84.13 749.25,-75.75 749.09,-86.34 755.74,-84.13"/>
</g>
<!-- Node37&#45;&gt;Node22 -->
<g id="edge47" class="edge">
<title>Node37&#45;&gt;Node22</title>
<path fill="none" stroke="midnightblue" d="M1307.88,-56.32C1324.33,-47.7 1349.77,-34.36 1368.8,-24.39"/>
<polygon fill="midnightblue" stroke="midnightblue" points="1370.6,-27.4 1377.83,-19.65 1367.35,-21.2 1370.6,-27.4"/>
</g>
<!-- Node37&#45;&gt;Node27 -->
<g id="edge46" class="edge">
<title>Node37&#45;&gt;Node27</title>
<path fill="none" stroke="midnightblue" d="M1291.34,-56.08C1291.34,-49.01 1291.34,-38.86 1291.34,-29.99"/>
<polygon fill="midnightblue" stroke="midnightblue" points="1294.84,-29.75 1291.34,-19.75 1287.84,-29.75 1294.84,-29.75"/>
</g>
<!-- Node37&#45;&gt;Node28 -->
<g id="edge50" class="edge">
<title>Node37&#45;&gt;Node28</title>
<path fill="none" stroke="midnightblue" d="M1254.53,-57.44C1251.76,-56.93 1249.01,-56.45 1246.34,-56 1135.93,-37.61 1004.2,-21.77 943.3,-14.8"/>
<polygon fill="midnightblue" stroke="midnightblue" points="943.44,-11.29 933.11,-13.64 942.65,-18.25 943.44,-11.29"/>
</g>
<!-- Node37&#45;&gt;Node34 -->
<g id="edge49" class="edge">
<title>Node37&#45;&gt;Node34</title>
<path fill="none" stroke="midnightblue" d="M1254.55,-57.32C1251.78,-56.84 1249.02,-56.39 1246.34,-56 1158.94,-43.22 890.16,-21.09 796.73,-13.58"/>
<polygon fill="midnightblue" stroke="midnightblue" points="796.73,-10.07 786.49,-12.76 796.17,-17.05 796.73,-10.07"/>
</g>
<!-- Node37&#45;&gt;Node38 -->
<g id="edge48" class="edge">
<title>Node37&#45;&gt;Node38</title>
<path fill="none" stroke="midnightblue" d="M1319.7,-56.44C1350.07,-47.28 1398.45,-32.69 1432.15,-22.52"/>
<polygon fill="midnightblue" stroke="midnightblue" points="1433.54,-25.76 1442.11,-19.52 1431.52,-19.05 1433.54,-25.76"/>
</g>
</g>
</svg>
