<?xml version="1.0" encoding="UTF-8" standalone="no"?>
<!DOCTYPE svg PUBLIC "-//W3C//DTD SVG 1.1//EN"
 "http://www.w3.org/Graphics/SVG/1.1/DTD/svg11.dtd">
<!-- Generated by graphviz version 2.43.0 (0)
 -->
<!-- Title: include/ccf/js_plugin.h Pages: 1 -->
<!--zoomable 341 -->
<svg id="main" version="1.1" xmlns="http://www.w3.org/2000/svg" xmlns:xlink="http://www.w3.org/1999/xlink" xml:space="preserve" onload="init(evt)">
<style type="text/css"><![CDATA[
.edge:hover path { stroke: red; }
.edge:hover polygon { stroke: red; fill: red; }
]]></style>
<script type="text/javascript"><![CDATA[
var edges = document.getElementsByTagName('g');
if (edges && edges.length) {
  for (var i=0;i<edges.length;i++) {
    if (edges[i].id.substr(0,4)=='edge') {
      edges[i].setAttribute('class','edge');
    }
  }
}
]]></script>
        <defs>
                <circle id="rim" cx="0" cy="0" r="7"/>
                <circle id="rim2" cx="0" cy="0" r="3.5"/>
                <g id="zoomPlus">
                        <use xlink:href="#rim" fill="#404040">
                                <set attributeName="fill" to="#808080" begin="zoomplus.mouseover" end="zoomplus.mouseout"/>
                        </use>
                        <path d="M-4,0h8M0,-4v8" fill="none" stroke="white" stroke-width="1.5" pointer-events="none"/>
                </g>
                <g id="zoomMin">
                        <use xlink:href="#rim" fill="#404040">
                                <set attributeName="fill" to="#808080" begin="zoomminus.mouseover" end="zoomminus.mouseout"/>
                        </use>
                        <path d="M-4,0h8" fill="none" stroke="white" stroke-width="1.5" pointer-events="none"/>
                </g>
                <g id="dirArrow">
                        <path fill="none" stroke="white" stroke-width="1.5" d="M0,-3.0v7 M-2.5,-0.5L0,-3.0L2.5,-0.5"/>
                </g>
               <g id="resetDef">
                       <use xlink:href="#rim2" fill="#404040">
                               <set attributeName="fill" to="#808080" begin="reset.mouseover" end="reset.mouseout"/>
                       </use>
               </g>
        </defs>

<script type="text/javascript">
var viewWidth = 2588;
var viewHeight = 341;
var sectionId = 'dynsection-1';
</script>
<script xlink:href="svgpan.js"/>
<svg id="graph" class="graph">
<g id="viewport">
<title>include/ccf/js_plugin.h</title>
<polygon fill="white" stroke="transparent" points="-4,4 -4,-337 2583.5,-337 2583.5,4 -4,4"/>
<!-- Node1 -->
<g id="node1" class="node">
<title>Node1</title>
<g id="a_node1"><a xlink:title=" ">
<polygon fill="#bfbfbf" stroke="black" points="1329,-313.5 1329,-332.5 1454,-332.5 1454,-313.5 1329,-313.5"/>
<text text-anchor="middle" x="1391.5" y="-320.5" font-family="Helvetica,sans-Serif" font-size="10.00">include/ccf/js_plugin.h</text>
</a>
</g>
</g>
<!-- Node2 -->
<g id="node2" class="node">
<title>Node2</title>
<g id="a_node2"><a xlink:href="app__interface_8h.html" target="_top" xlink:title=" ">
<polygon fill="white" stroke="black" points="676.5,-252 676.5,-271 824.5,-271 824.5,-252 676.5,-252"/>
<text text-anchor="middle" x="750.5" y="-259" font-family="Helvetica,sans-Serif" font-size="10.00">include/ccf/app_interface.h</text>
</a>
</g>
</g>
<!-- Node1&#45;&gt;Node2 -->
<g id="edge1" class="edge">
<title>Node1&#45;&gt;Node2</title>
<path fill="none" stroke="midnightblue" d="M1318.81,-315.25C1195.94,-303.85 948.5,-280.88 824.65,-269.38"/>
<polygon fill="midnightblue" stroke="midnightblue" points="1318.59,-318.75 1328.87,-316.19 1319.24,-311.78 1318.59,-318.75"/>
</g>
<!-- Node16 -->
<g id="node16" class="node">
<title>Node16</title>
<g id="a_node16"><a xlink:href="no__plugins_8cpp.html" target="_top" xlink:title=" ">
<polygon fill="white" stroke="black" points="1207.5,-185 1207.5,-204 1325.5,-204 1325.5,-185 1207.5,-185"/>
<text text-anchor="middle" x="1266.5" y="-192" font-family="Helvetica,sans-Serif" font-size="10.00">src/js/no_plugins.cpp</text>
</a>
</g>
</g>
<!-- Node1&#45;&gt;Node16 -->
<g id="edge26" class="edge">
<title>Node1&#45;&gt;Node16</title>
<path fill="none" stroke="midnightblue" d="M1357.92,-309.36C1341.48,-301.89 1322.3,-291.1 1308.5,-277 1287.12,-255.16 1274.18,-220.24 1269.05,-204.14"/>
<polygon fill="midnightblue" stroke="midnightblue" points="1356.66,-312.63 1367.22,-313.38 1359.43,-306.2 1356.66,-312.63"/>
</g>
<!-- Node19 -->
<g id="node19" class="node">
<title>Node19</title>
<g id="a_node19"><a xlink:href="js__openenclave__plugin_8h.html" target="_top" xlink:title=" ">
<polygon fill="white" stroke="black" points="1317.5,-246.5 1317.5,-276.5 1465.5,-276.5 1465.5,-246.5 1317.5,-246.5"/>
<text text-anchor="start" x="1325.5" y="-264.5" font-family="Helvetica,sans-Serif" font-size="10.00">include/ccf/js_openenclave</text>
<text text-anchor="middle" x="1391.5" y="-253.5" font-family="Helvetica,sans-Serif" font-size="10.00">_plugin.h</text>
</a>
</g>
</g>
<!-- Node1&#45;&gt;Node19 -->
<g id="edge22" class="edge">
<title>Node1&#45;&gt;Node19</title>
<path fill="none" stroke="midnightblue" d="M1391.5,-303.23C1391.5,-294.59 1391.5,-284.5 1391.5,-276.52"/>
<polygon fill="midnightblue" stroke="midnightblue" points="1388,-303.48 1391.5,-313.48 1395,-303.48 1388,-303.48"/>
</g>
<!-- Node20 -->
<g id="node20" class="node">
<title>Node20</title>
<g id="a_node20"><a xlink:href="openenclave_8cpp.html" target="_top" xlink:title=" ">
<polygon fill="white" stroke="black" points="1555.5,-185 1555.5,-204 1683.5,-204 1683.5,-185 1555.5,-185"/>
<text text-anchor="middle" x="1619.5" y="-192" font-family="Helvetica,sans-Serif" font-size="10.00">src/js/openenclave.cpp</text>
</a>
</g>
</g>
<!-- Node1&#45;&gt;Node20 -->
<g id="edge27" class="edge">
<title>Node1&#45;&gt;Node20</title>
<path fill="none" stroke="midnightblue" d="M1416.46,-308.59C1432.97,-299.7 1455.07,-287.73 1474.5,-277 1522.03,-250.76 1577.95,-219.11 1604.3,-204.14"/>
<polygon fill="midnightblue" stroke="midnightblue" points="1414.6,-305.62 1407.45,-313.45 1417.92,-311.79 1414.6,-305.62"/>
</g>
<!-- Node21 -->
<g id="node21" class="node">
<title>Node21</title>
<g id="a_node21"><a xlink:href="wrap_8h.html" target="_top" xlink:title=" ">
<polygon fill="white" stroke="black" points="1950.5,-252 1950.5,-271 2028.5,-271 2028.5,-252 1950.5,-252"/>
<text text-anchor="middle" x="1989.5" y="-259" font-family="Helvetica,sans-Serif" font-size="10.00">src/js/wrap.h</text>
</a>
</g>
</g>
<!-- Node1&#45;&gt;Node21 -->
<g id="edge28" class="edge">
<title>Node1&#45;&gt;Node21</title>
<path fill="none" stroke="midnightblue" d="M1464.15,-314.77C1591.68,-302.08 1851.65,-276.22 1950.33,-266.4"/>
<polygon fill="midnightblue" stroke="midnightblue" points="1463.69,-311.3 1454.08,-315.77 1464.38,-318.27 1463.69,-311.3"/>
</g>
<!-- Node3 -->
<g id="node3" class="node">
<title>Node3</title>
<g id="a_node3"><a xlink:href="logging_8cpp.html" target="_top" xlink:title=" ">
<polygon fill="white" stroke="black" points="1066,-179.5 1066,-209.5 1189,-209.5 1189,-179.5 1066,-179.5"/>
<text text-anchor="start" x="1074" y="-197.5" font-family="Helvetica,sans-Serif" font-size="10.00">samples/apps/logging</text>
<text text-anchor="middle" x="1127.5" y="-186.5" font-family="Helvetica,sans-Serif" font-size="10.00">/logging.cpp</text>
</a>
</g>
</g>
<!-- Node2&#45;&gt;Node3 -->
<g id="edge2" class="edge">
<title>Node2&#45;&gt;Node3</title>
<path fill="none" stroke="midnightblue" d="M813.81,-250.3C874.77,-240.38 969.53,-224.69 1051.5,-210 1056.13,-209.17 1060.91,-208.3 1065.72,-207.41"/>
<polygon fill="midnightblue" stroke="midnightblue" points="812.88,-246.9 803.58,-251.96 814.01,-253.81 812.88,-246.9"/>
</g>
<!-- Node4 -->
<g id="node4" class="node">
<title>Node4</title>
<g id="a_node4"><a xlink:href="nobuiltins_8cpp.html" target="_top" xlink:title=" ">
<polygon fill="white" stroke="black" points="0,-179.5 0,-209.5 135,-209.5 135,-179.5 0,-179.5"/>
<text text-anchor="start" x="8" y="-197.5" font-family="Helvetica,sans-Serif" font-size="10.00">samples/apps/nobuiltins</text>
<text text-anchor="middle" x="67.5" y="-186.5" font-family="Helvetica,sans-Serif" font-size="10.00">/nobuiltins.cpp</text>
</a>
</g>
</g>
<!-- Node2&#45;&gt;Node4 -->
<g id="edge3" class="edge">
<title>Node2&#45;&gt;Node4</title>
<path fill="none" stroke="midnightblue" d="M666.07,-256.22C548.7,-249.64 329.77,-235.1 144.5,-210 141.4,-209.58 138.23,-209.12 135.04,-208.63"/>
<polygon fill="midnightblue" stroke="midnightblue" points="665.89,-259.71 676.07,-256.77 666.28,-252.72 665.89,-259.71"/>
</g>
<!-- Node5 -->
<g id="node5" class="node">
<title>Node5</title>
<g id="a_node5"><a xlink:href="executor__auth__policy_8h.html" target="_top" xlink:title=" ">
<polygon fill="white" stroke="black" points="153.5,-179.5 153.5,-209.5 301.5,-209.5 301.5,-179.5 153.5,-179.5"/>
<text text-anchor="start" x="161.5" y="-197.5" font-family="Helvetica,sans-Serif" font-size="10.00">src/apps/external_executor</text>
<text text-anchor="middle" x="227.5" y="-186.5" font-family="Helvetica,sans-Serif" font-size="10.00">/executor_auth_policy.h</text>
</a>
</g>
</g>
<!-- Node2&#45;&gt;Node5 -->
<g id="edge4" class="edge">
<title>Node2&#45;&gt;Node5</title>
<path fill="none" stroke="midnightblue" d="M666.31,-251.93C578.57,-242.72 437.17,-227.08 315.5,-210 311.05,-209.38 306.48,-208.71 301.88,-208.01"/>
<polygon fill="midnightblue" stroke="midnightblue" points="666.16,-255.43 676.47,-252.99 666.89,-248.47 666.16,-255.43"/>
</g>
<!-- Node6 -->
<g id="node6" class="node">
<title>Node6</title>
<g id="a_node6"><a xlink:href="external__executor_8cpp.html" target="_top" xlink:title=" ">
<polygon fill="white" stroke="black" points="191.5,-112.5 191.5,-142.5 339.5,-142.5 339.5,-112.5 191.5,-112.5"/>
<text text-anchor="start" x="199.5" y="-130.5" font-family="Helvetica,sans-Serif" font-size="10.00">src/apps/external_executor</text>
<text text-anchor="middle" x="265.5" y="-119.5" font-family="Helvetica,sans-Serif" font-size="10.00">/external_executor.cpp</text>
</a>
</g>
</g>
<!-- Node2&#45;&gt;Node6 -->
<g id="edge6" class="edge">
<title>Node2&#45;&gt;Node6</title>
<path fill="none" stroke="midnightblue" d="M666.09,-260.75C588.47,-258.3 471.52,-247.75 377.5,-210 338.22,-194.23 300.01,-161.62 279.97,-142.78"/>
<polygon fill="midnightblue" stroke="midnightblue" points="666.2,-264.25 676.3,-261.03 666.4,-257.25 666.2,-264.25"/>
</g>
<!-- Node7 -->
<g id="node7" class="node">
<title>Node7</title>
<g id="a_node7"><a xlink:href="js__generic_8cpp.html" target="_top" xlink:title=" ">
<polygon fill="white" stroke="black" points="395.5,-112.5 395.5,-142.5 505.5,-142.5 505.5,-112.5 395.5,-112.5"/>
<text text-anchor="start" x="403.5" y="-130.5" font-family="Helvetica,sans-Serif" font-size="10.00">src/apps/js_generic</text>
<text text-anchor="middle" x="450.5" y="-119.5" font-family="Helvetica,sans-Serif" font-size="10.00">/js_generic.cpp</text>
</a>
</g>
</g>
<!-- Node2&#45;&gt;Node7 -->
<g id="edge7" class="edge">
<title>Node2&#45;&gt;Node7</title>
<path fill="none" stroke="midnightblue" d="M666.19,-261.07C570.19,-259.7 422.02,-250.79 386.5,-210 366.65,-187.21 400.42,-159.23 425.98,-142.69"/>
<polygon fill="midnightblue" stroke="midnightblue" points="666.43,-264.57 676.47,-261.19 666.51,-257.57 666.43,-264.57"/>
</g>
<!-- Node8 -->
<g id="node8" class="node">
<title>Node8</title>
<g id="a_node8"><a xlink:href="js__generic__base_8cpp.html" target="_top" xlink:title=" ">
<polygon fill="white" stroke="black" points="1419.5,-179.5 1419.5,-209.5 1537.5,-209.5 1537.5,-179.5 1419.5,-179.5"/>
<text text-anchor="start" x="1427.5" y="-197.5" font-family="Helvetica,sans-Serif" font-size="10.00">src/apps/js_generic</text>
<text text-anchor="middle" x="1478.5" y="-186.5" font-family="Helvetica,sans-Serif" font-size="10.00">/js_generic_base.cpp</text>
</a>
</g>
</g>
<!-- Node2&#45;&gt;Node8 -->
<g id="edge8" class="edge">
<title>Node2&#45;&gt;Node8</title>
<path fill="none" stroke="midnightblue" d="M834.76,-253.59C948.31,-244.19 1156.72,-226.64 1334.5,-210 1362.39,-207.39 1393.31,-204.3 1419.32,-201.65"/>
<polygon fill="midnightblue" stroke="midnightblue" points="834.42,-250.11 824.74,-254.42 835,-257.08 834.42,-250.11"/>
</g>
<!-- Node9 -->
<g id="node9" class="node">
<title>Node9</title>
<g id="a_node9"><a xlink:href="js__generic__base_8h.html" target="_top" xlink:title=" ">
<polygon fill="white" stroke="black" points="395.5,-179.5 395.5,-209.5 505.5,-209.5 505.5,-179.5 395.5,-179.5"/>
<text text-anchor="start" x="403.5" y="-197.5" font-family="Helvetica,sans-Serif" font-size="10.00">src/apps/js_generic</text>
<text text-anchor="middle" x="450.5" y="-186.5" font-family="Helvetica,sans-Serif" font-size="10.00">/js_generic_base.h</text>
</a>
</g>
</g>
<!-- Node2&#45;&gt;Node9 -->
<g id="edge9" class="edge">
<title>Node2&#45;&gt;Node9</title>
<path fill="none" stroke="midnightblue" d="M700.99,-249.77C647.22,-238.12 561.55,-219.56 505.67,-207.45"/>
<polygon fill="midnightblue" stroke="midnightblue" points="700.46,-253.24 710.97,-251.94 701.94,-246.4 700.46,-253.24"/>
</g>
<!-- Node10 -->
<g id="node10" class="node">
<title>Node10</title>
<g id="a_node10"><a xlink:href="js__v8_8cpp.html" target="_top" xlink:title=" ">
<polygon fill="white" stroke="black" points="683.5,-118 683.5,-137 817.5,-137 817.5,-118 683.5,-118"/>
<text text-anchor="middle" x="750.5" y="-125" font-family="Helvetica,sans-Serif" font-size="10.00">src/apps/js_v8/js_v8.cpp</text>
</a>
</g>
</g>
<!-- Node2&#45;&gt;Node10 -->
<g id="edge11" class="edge">
<title>Node2&#45;&gt;Node10</title>
<path fill="none" stroke="midnightblue" d="M671.9,-250.4C623.3,-242.36 567.44,-229.23 552.5,-210 514.07,-160.54 612.01,-140.88 683.45,-133.22"/>
<polygon fill="midnightblue" stroke="midnightblue" points="671.4,-253.86 681.82,-251.99 672.5,-246.95 671.4,-253.86"/>
</g>
<!-- Node11 -->
<g id="node11" class="node">
<title>Node11</title>
<g id="a_node11"><a xlink:href="js__v8__base_8cpp.html" target="_top" xlink:title=" ">
<polygon fill="white" stroke="black" points="561.5,-179.5 561.5,-209.5 675.5,-209.5 675.5,-179.5 561.5,-179.5"/>
<text text-anchor="start" x="569.5" y="-197.5" font-family="Helvetica,sans-Serif" font-size="10.00">src/apps/js_v8/js_v8</text>
<text text-anchor="middle" x="618.5" y="-186.5" font-family="Helvetica,sans-Serif" font-size="10.00">_base.cpp</text>
</a>
</g>
</g>
<!-- Node2&#45;&gt;Node11 -->
<g id="edge12" class="edge">
<title>Node2&#45;&gt;Node11</title>
<path fill="none" stroke="midnightblue" d="M723.78,-247.34C701.56,-236.4 670,-220.86 647.24,-209.65"/>
<polygon fill="midnightblue" stroke="midnightblue" points="722.45,-250.59 732.97,-251.87 725.55,-244.31 722.45,-250.59"/>
</g>
<!-- Node12 -->
<g id="node12" class="node">
<title>Node12</title>
<g id="a_node12"><a xlink:href="js__v8__base_8h.html" target="_top" xlink:title=" ">
<polygon fill="white" stroke="black" points="693.5,-179.5 693.5,-209.5 807.5,-209.5 807.5,-179.5 693.5,-179.5"/>
<text text-anchor="start" x="701.5" y="-197.5" font-family="Helvetica,sans-Serif" font-size="10.00">src/apps/js_v8/js_v8</text>
<text text-anchor="middle" x="750.5" y="-186.5" font-family="Helvetica,sans-Serif" font-size="10.00">_base.h</text>
</a>
</g>
</g>
<!-- Node2&#45;&gt;Node12 -->
<g id="edge13" class="edge">
<title>Node2&#45;&gt;Node12</title>
<path fill="none" stroke="midnightblue" d="M750.5,-241.41C750.5,-231.22 750.5,-218.9 750.5,-209.59"/>
<polygon fill="midnightblue" stroke="midnightblue" points="747,-241.73 750.5,-251.73 754,-241.73 747,-241.73"/>
</g>
<!-- Node13 -->
<g id="node13" class="node">
<title>Node13</title>
<g id="a_node13"><a xlink:href="tpcc_8cpp.html" target="_top" xlink:title=" ">
<polygon fill="white" stroke="black" points="826,-185 826,-204 971,-204 971,-185 826,-185"/>
<text text-anchor="middle" x="898.5" y="-192" font-family="Helvetica,sans-Serif" font-size="10.00">src/apps/tpcc/app/tpcc.cpp</text>
</a>
</g>
</g>
<!-- Node2&#45;&gt;Node13 -->
<g id="edge15" class="edge">
<title>Node2&#45;&gt;Node13</title>
<path fill="none" stroke="midnightblue" d="M779.46,-247.78C808.77,-234.91 853.29,-215.35 878.77,-204.17"/>
<polygon fill="midnightblue" stroke="midnightblue" points="777.9,-244.64 770.15,-251.87 780.72,-251.05 777.9,-244.64"/>
</g>
<!-- Node14 -->
<g id="node14" class="node">
<title>Node14</title>
<g id="a_node14"><a xlink:href="src_2enclave_2enclave_8h.html" target="_top" xlink:title=" ">
<polygon fill="white" stroke="black" points="2189.5,-56.5 2189.5,-75.5 2311.5,-75.5 2311.5,-56.5 2189.5,-56.5"/>
<text text-anchor="middle" x="2250.5" y="-63.5" font-family="Helvetica,sans-Serif" font-size="10.00">src/enclave/enclave.h</text>
</a>
</g>
</g>
<!-- Node2&#45;&gt;Node14 -->
<g id="edge16" class="edge">
<title>Node2&#45;&gt;Node14</title>
<path fill="none" stroke="midnightblue" d="M834.75,-252.58C879.66,-245.78 934.72,-233.21 979.5,-210 997.66,-200.59 995.29,-188.3 1013.5,-179 1222.34,-72.33 1969.23,-66.07 2189.15,-66.6"/>
<polygon fill="midnightblue" stroke="midnightblue" points="834.14,-249.13 824.74,-254.02 835.14,-256.06 834.14,-249.13"/>
</g>
<!-- Node2&#45;&gt;Node16 -->
<g id="edge18" class="edge">
<title>Node2&#45;&gt;Node16</title>
<path fill="none" stroke="midnightblue" d="M834.91,-253.36C925.02,-245.19 1071.85,-230.25 1197.5,-210 1207.77,-208.34 1218.83,-206.19 1229.02,-204.05"/>
<polygon fill="midnightblue" stroke="midnightblue" points="834.39,-249.9 824.75,-254.28 835.02,-256.87 834.39,-249.9"/>
</g>
<!-- Node18 -->
<g id="node18" class="node">
<title>Node18</title>
<g id="a_node18"><a xlink:href="user__frontend_8h.html" target="_top" xlink:title=" ">
<polygon fill="white" stroke="black" points="1345,-118 1345,-137 1500,-137 1500,-118 1345,-118"/>
<text text-anchor="middle" x="1422.5" y="-125" font-family="Helvetica,sans-Serif" font-size="10.00">src/node/rpc/user_frontend.h</text>
</a>
</g>
</g>
<!-- Node2&#45;&gt;Node18 -->
<g id="edge20" class="edge">
<title>Node2&#45;&gt;Node18</title>
<path fill="none" stroke="midnightblue" d="M834.77,-253.71C887.78,-247.19 956.65,-234.52 1013.5,-210 1035.13,-200.67 1034.63,-187.76 1056.5,-179 1150.88,-141.21 1268.69,-130.85 1344.74,-128.45"/>
<polygon fill="midnightblue" stroke="midnightblue" points="834.25,-250.25 824.73,-254.9 835.07,-257.2 834.25,-250.25"/>
</g>
<!-- Node5&#45;&gt;Node6 -->
<g id="edge5" class="edge">
<title>Node5&#45;&gt;Node6</title>
<path fill="none" stroke="midnightblue" d="M240.9,-170.58C246.36,-161.24 252.49,-150.75 257.27,-142.58"/>
<polygon fill="midnightblue" stroke="midnightblue" points="237.77,-169 235.75,-179.4 243.81,-172.53 237.77,-169"/>
</g>
<!-- Node9&#45;&gt;Node7 -->
<g id="edge10" class="edge">
<title>Node9&#45;&gt;Node7</title>
<path fill="none" stroke="midnightblue" d="M450.5,-169.11C450.5,-160.15 450.5,-150.32 450.5,-142.58"/>
<polygon fill="midnightblue" stroke="midnightblue" points="447,-169.4 450.5,-179.4 454,-169.4 447,-169.4"/>
</g>
<!-- Node12&#45;&gt;Node10 -->
<g id="edge14" class="edge">
<title>Node12&#45;&gt;Node10</title>
<path fill="none" stroke="midnightblue" d="M750.5,-169.25C750.5,-158.02 750.5,-145.38 750.5,-137.19"/>
<polygon fill="midnightblue" stroke="midnightblue" points="747,-169.4 750.5,-179.4 754,-169.4 747,-169.4"/>
</g>
<!-- Node15 -->
<g id="node15" class="node">
<title>Node15</title>
<g id="a_node15"><a xlink:href="enclave_2main_8cpp.html" target="_top" xlink:title=" ">
<polygon fill="white" stroke="black" points="2190.5,-0.5 2190.5,-19.5 2310.5,-19.5 2310.5,-0.5 2190.5,-0.5"/>
<text text-anchor="middle" x="2250.5" y="-7.5" font-family="Helvetica,sans-Serif" font-size="10.00">src/enclave/main.cpp</text>
</a>
</g>
</g>
<!-- Node14&#45;&gt;Node15 -->
<g id="edge17" class="edge">
<title>Node14&#45;&gt;Node15</title>
<path fill="none" stroke="midnightblue" d="M2250.5,-45.8C2250.5,-36.91 2250.5,-26.78 2250.5,-19.75"/>
<polygon fill="midnightblue" stroke="midnightblue" points="2247,-46.08 2250.5,-56.08 2254,-46.08 2247,-46.08"/>
</g>
<!-- Node17 -->
<g id="node17" class="node">
<title>Node17</title>
<g id="a_node17"><a xlink:href="wrap_8cpp.html" target="_top" xlink:title=" ">
<polygon fill="white" stroke="black" points="1890,-118 1890,-137 1979,-137 1979,-118 1890,-118"/>
<text text-anchor="middle" x="1934.5" y="-125" font-family="Helvetica,sans-Serif" font-size="10.00">src/js/wrap.cpp</text>
</a>
</g>
</g>
<!-- Node16&#45;&gt;Node17 -->
<g id="edge19" class="edge">
<title>Node16&#45;&gt;Node17</title>
<path fill="none" stroke="midnightblue" d="M1335.66,-186.47C1359.39,-184.08 1386.1,-181.4 1410.5,-179 1588.09,-161.5 1799.6,-141.32 1889.98,-132.73"/>
<polygon fill="midnightblue" stroke="midnightblue" points="1335.29,-182.99 1325.7,-187.48 1336,-189.96 1335.29,-182.99"/>
</g>
<!-- Node18&#45;&gt;Node14 -->
<g id="edge21" class="edge">
<title>Node18&#45;&gt;Node14</title>
<path fill="none" stroke="midnightblue" d="M1510.1,-120.2C1678.68,-108.09 2044.33,-81.82 2189.4,-71.39"/>
<polygon fill="midnightblue" stroke="midnightblue" points="1509.75,-116.72 1500.02,-120.93 1510.25,-123.7 1509.75,-116.72"/>
</g>
<!-- Node19&#45;&gt;Node7 -->
<g id="edge23" class="edge">
<title>Node19&#45;&gt;Node7</title>
<path fill="none" stroke="midnightblue" d="M1382.05,-236.91C1372.97,-217.65 1357.25,-191.65 1334.5,-179 1270.31,-143.31 747.81,-147.37 674.5,-143 616.93,-139.57 551.05,-135.26 505.72,-132.23"/>
<polygon fill="midnightblue" stroke="midnightblue" points="1378.94,-238.53 1386.2,-246.25 1385.34,-235.69 1378.94,-238.53"/>
</g>
<!-- Node19&#45;&gt;Node10 -->
<g id="edge24" class="edge">
<title>Node19&#45;&gt;Node10</title>
<path fill="none" stroke="midnightblue" d="M1391.3,-236.25C1389.74,-217.57 1384.33,-192.7 1367.5,-179 1325.58,-144.89 968.69,-133.21 817.62,-129.76"/>
<polygon fill="midnightblue" stroke="midnightblue" points="1387.82,-236.59 1391.83,-246.4 1394.81,-236.23 1387.82,-236.59"/>
</g>
<!-- Node19&#45;&gt;Node20 -->
<g id="edge25" class="edge">
<title>Node19&#45;&gt;Node20</title>
<path fill="none" stroke="midnightblue" d="M1450.53,-243.67C1495.09,-230.97 1554.38,-214.06 1589.58,-204.03"/>
<polygon fill="midnightblue" stroke="midnightblue" points="1449.35,-240.37 1440.69,-246.48 1451.27,-247.1 1449.35,-240.37"/>
</g>
<!-- Node21&#45;&gt;Node8 -->
<g id="edge29" class="edge">
<title>Node21&#45;&gt;Node8</title>
<path fill="none" stroke="midnightblue" d="M1940.18,-256.44C1858.14,-249.35 1688.63,-233.2 1546.5,-210 1543.64,-209.53 1540.72,-209.03 1537.77,-208.49"/>
<polygon fill="midnightblue" stroke="midnightblue" points="1939.95,-259.94 1950.21,-257.31 1940.55,-252.96 1939.95,-259.94"/>
</g>
<!-- Node21&#45;&gt;Node14 -->
<g id="edge30" class="edge">
<title>Node21&#45;&gt;Node14</title>
<path fill="none" stroke="midnightblue" d="M2038.76,-260.39C2083.81,-257.74 2149.75,-247.1 2192.5,-210 2234.99,-173.13 2246.8,-100.52 2249.67,-75.62"/>
<polygon fill="midnightblue" stroke="midnightblue" points="2038.46,-256.9 2028.63,-260.87 2038.79,-263.89 2038.46,-256.9"/>
</g>
<!-- Node21&#45;&gt;Node17 -->
<g id="edge40" class="edge">
<title>Node21&#45;&gt;Node17</title>
<path fill="none" stroke="midnightblue" d="M2038.71,-256.25C2106.09,-248.53 2214.41,-228.19 2174.5,-179 2150.35,-149.24 2041.51,-136.37 1979.01,-131.34"/>
<polygon fill="midnightblue" stroke="midnightblue" points="2038.25,-252.78 2028.69,-257.34 2039.01,-259.74 2038.25,-252.78"/>
</g>
<!-- Node21&#45;&gt;Node20 -->
<g id="edge39" class="edge">
<title>Node21&#45;&gt;Node20</title>
<path fill="none" stroke="midnightblue" d="M1939.88,-252.49C1880.85,-242.87 1779.36,-226.01 1692.5,-210 1682.46,-208.15 1671.67,-206.06 1661.54,-204.06"/>
<polygon fill="midnightblue" stroke="midnightblue" points="1939.61,-256 1950.04,-254.15 1940.74,-249.09 1939.61,-256"/>
</g>
<!-- Node22 -->
<g id="node22" class="node">
<title>Node22</title>
<g id="a_node22"><a xlink:href="js_2consensus_8cpp.html" target="_top" xlink:title=" ">
<polygon fill="white" stroke="black" points="1701.5,-185 1701.5,-204 1817.5,-204 1817.5,-185 1701.5,-185"/>
<text text-anchor="middle" x="1759.5" y="-192" font-family="Helvetica,sans-Serif" font-size="10.00">src/js/consensus.cpp</text>
</a>
</g>
</g>
<!-- Node21&#45;&gt;Node22 -->
<g id="edge31" class="edge">
<title>Node21&#45;&gt;Node22</title>
<path fill="none" stroke="midnightblue" d="M1949.13,-249.09C1903.63,-236.23 1830.69,-215.62 1789.8,-204.06"/>
<polygon fill="midnightblue" stroke="midnightblue" points="1948.38,-252.52 1958.96,-251.87 1950.29,-245.78 1948.38,-252.52"/>
</g>
<!-- Node23 -->
<g id="node23" class="node">
<title>Node23</title>
<g id="a_node23"><a xlink:href="conv_8cpp.html" target="_top" xlink:title=" ">
<polygon fill="white" stroke="black" points="1835.5,-185 1835.5,-204 1923.5,-204 1923.5,-185 1835.5,-185"/>
<text text-anchor="middle" x="1879.5" y="-192" font-family="Helvetica,sans-Serif" font-size="10.00">src/js/conv.cpp</text>
</a>
</g>
</g>
<!-- Node21&#45;&gt;Node23 -->
<g id="edge33" class="edge">
<title>Node21&#45;&gt;Node23</title>
<path fill="none" stroke="midnightblue" d="M1966,-246.62C1944.21,-233.74 1912.46,-214.98 1894.1,-204.13"/>
<polygon fill="midnightblue" stroke="midnightblue" points="1964.28,-249.66 1974.66,-251.73 1967.84,-243.63 1964.28,-249.66"/>
</g>
<!-- Node24 -->
<g id="node24" class="node">
<title>Node24</title>
<g id="a_node24"><a xlink:href="js_2crypto_8cpp.html" target="_top" xlink:title=" ">
<polygon fill="white" stroke="black" points="1941.5,-185 1941.5,-204 2037.5,-204 2037.5,-185 1941.5,-185"/>
<text text-anchor="middle" x="1989.5" y="-192" font-family="Helvetica,sans-Serif" font-size="10.00">src/js/crypto.cpp</text>
</a>
</g>
</g>
<!-- Node21&#45;&gt;Node24 -->
<g id="edge35" class="edge">
<title>Node21&#45;&gt;Node24</title>
<path fill="none" stroke="midnightblue" d="M1989.5,-241.54C1989.5,-229.17 1989.5,-213.62 1989.5,-204.13"/>
<polygon fill="midnightblue" stroke="midnightblue" points="1986,-241.73 1989.5,-251.73 1993,-241.73 1986,-241.73"/>
</g>
<!-- Node25 -->
<g id="node25" class="node">
<title>Node25</title>
<g id="a_node25"><a xlink:href="js_2historical_8cpp.html" target="_top" xlink:title=" ">
<polygon fill="white" stroke="black" points="2055.5,-185 2055.5,-204 2165.5,-204 2165.5,-185 2055.5,-185"/>
<text text-anchor="middle" x="2110.5" y="-192" font-family="Helvetica,sans-Serif" font-size="10.00">src/js/historical.cpp</text>
</a>
</g>
</g>
<!-- Node21&#45;&gt;Node25 -->
<g id="edge37" class="edge">
<title>Node21&#45;&gt;Node25</title>
<path fill="none" stroke="midnightblue" d="M2014.71,-246.96C2038.7,-234.07 2074.06,-215.07 2094.44,-204.13"/>
<polygon fill="midnightblue" stroke="midnightblue" points="2012.97,-243.92 2005.82,-251.73 2016.28,-250.08 2012.97,-243.92"/>
</g>
<!-- Node26 -->
<g id="node26" class="node">
<title>Node26</title>
<g id="a_node26"><a xlink:href="node__state_8h.html" target="_top" xlink:title=" ">
<polygon fill="white" stroke="black" points="2259.5,-185 2259.5,-204 2383.5,-204 2383.5,-185 2259.5,-185"/>
<text text-anchor="middle" x="2321.5" y="-192" font-family="Helvetica,sans-Serif" font-size="10.00">src/node/node_state.h</text>
</a>
</g>
</g>
<!-- Node21&#45;&gt;Node26 -->
<g id="edge41" class="edge">
<title>Node21&#45;&gt;Node26</title>
<path fill="none" stroke="midnightblue" d="M2038.51,-250.9C2103.17,-238.24 2216,-216.15 2277.86,-204.04"/>
<polygon fill="midnightblue" stroke="midnightblue" points="2037.7,-247.5 2028.56,-252.85 2039.05,-254.37 2037.7,-247.5"/>
</g>
<!-- Node28 -->
<g id="node28" class="node">
<title>Node28</title>
<g id="a_node28"><a xlink:href="member__frontend_8h.html" target="_top" xlink:title=" ">
<polygon fill="white" stroke="black" points="2459.5,-112.5 2459.5,-142.5 2579.5,-142.5 2579.5,-112.5 2459.5,-112.5"/>
<text text-anchor="start" x="2467.5" y="-130.5" font-family="Helvetica,sans-Serif" font-size="10.00">src/node/rpc/member</text>
<text text-anchor="middle" x="2519.5" y="-119.5" font-family="Helvetica,sans-Serif" font-size="10.00">_frontend.h</text>
</a>
</g>
</g>
<!-- Node21&#45;&gt;Node28 -->
<g id="edge45" class="edge">
<title>Node21&#45;&gt;Node28</title>
<path fill="none" stroke="midnightblue" d="M2039.05,-261.25C2116.75,-260.9 2270.93,-254.05 2392.5,-210 2435.85,-194.29 2479.62,-161.66 2502.74,-142.8"/>
<polygon fill="midnightblue" stroke="midnightblue" points="2038.6,-257.75 2028.6,-261.26 2038.61,-264.75 2038.6,-257.75"/>
</g>
<!-- Node22&#45;&gt;Node17 -->
<g id="edge32" class="edge">
<title>Node22&#45;&gt;Node17</title>
<path fill="none" stroke="midnightblue" d="M1792.43,-181.27C1827.16,-168.37 1880.99,-148.38 1911.44,-137.06"/>
<polygon fill="midnightblue" stroke="midnightblue" points="1790.89,-178.11 1782.74,-184.87 1793.33,-184.67 1790.89,-178.11"/>
</g>
<!-- Node23&#45;&gt;Node17 -->
<g id="edge34" class="edge">
<title>Node23&#45;&gt;Node17</title>
<path fill="none" stroke="midnightblue" d="M1893.66,-176.77C1904.38,-164.1 1918.68,-147.2 1927.2,-137.13"/>
<polygon fill="midnightblue" stroke="midnightblue" points="1890.71,-174.84 1886.92,-184.73 1896.05,-179.36 1890.71,-174.84"/>
</g>
<!-- Node24&#45;&gt;Node17 -->
<g id="edge36" class="edge">
<title>Node24&#45;&gt;Node17</title>
<path fill="none" stroke="midnightblue" d="M1975.34,-176.77C1964.62,-164.1 1950.32,-147.2 1941.8,-137.13"/>
<polygon fill="midnightblue" stroke="midnightblue" points="1972.95,-179.36 1982.08,-184.73 1978.29,-174.84 1972.95,-179.36"/>
</g>
<!-- Node25&#45;&gt;Node17 -->
<g id="edge38" class="edge">
<title>Node25&#45;&gt;Node17</title>
<path fill="none" stroke="midnightblue" d="M2077.39,-181.27C2042.46,-168.37 1988.32,-148.38 1957.69,-137.06"/>
<polygon fill="midnightblue" stroke="midnightblue" points="2076.54,-184.69 2087.13,-184.87 2078.96,-178.12 2076.54,-184.69"/>
</g>
<!-- Node26&#45;&gt;Node14 -->
<g id="edge42" class="edge">
<title>Node26&#45;&gt;Node14</title>
<path fill="none" stroke="midnightblue" d="M2309.67,-176.46C2303.14,-166.82 2295.06,-154.43 2288.5,-143 2274.84,-119.21 2260.97,-89.87 2254.41,-75.6"/>
<polygon fill="midnightblue" stroke="midnightblue" points="2306.8,-178.48 2315.34,-184.75 2312.58,-174.53 2306.8,-178.48"/>
</g>
<!-- Node27 -->
<g id="node27" class="node">
<title>Node27</title>
<g id="a_node27"><a xlink:href="gov__effects_8h.html" target="_top" xlink:title=" ">
<polygon fill="white" stroke="black" points="2297.5,-118 2297.5,-137 2441.5,-137 2441.5,-118 2297.5,-118"/>
<text text-anchor="middle" x="2369.5" y="-125" font-family="Helvetica,sans-Serif" font-size="10.00">src/node/rpc/gov_effects.h</text>
</a>
</g>
</g>
<!-- Node26&#45;&gt;Node27 -->
<g id="edge43" class="edge">
<title>Node26&#45;&gt;Node27</title>
<path fill="none" stroke="midnightblue" d="M2334.12,-176.4C2343.45,-163.77 2355.76,-147.1 2363.13,-137.13"/>
<polygon fill="midnightblue" stroke="midnightblue" points="2331.1,-174.61 2327.97,-184.73 2336.73,-178.77 2331.1,-174.61"/>
</g>
<!-- Node27&#45;&gt;Node14 -->
<g id="edge44" class="edge">
<title>Node27&#45;&gt;Node14</title>
<path fill="none" stroke="midnightblue" d="M2343.23,-113.37C2320.17,-101.83 2287.3,-85.4 2267.52,-75.51"/>
<polygon fill="midnightblue" stroke="midnightblue" points="2341.94,-116.63 2352.45,-117.98 2345.07,-110.37 2341.94,-116.63"/>
</g>
<!-- Node28&#45;&gt;Node14 -->
<g id="edge46" class="edge">
<title>Node28&#45;&gt;Node14</title>
<path fill="none" stroke="midnightblue" d="M2449.47,-111.01C2398.34,-99.7 2330.92,-84.79 2289.16,-75.55"/>
<polygon fill="midnightblue" stroke="midnightblue" points="2448.95,-114.48 2459.47,-113.22 2450.46,-107.64 2448.95,-114.48"/>
</g>
</g>
</svg>
        <g id="navigator" transform="translate(0 0)" fill="#404254">
                <rect fill="#f2f5e9" fill-opacity="0.5" stroke="#606060" stroke-width=".5" x="0" y="0" width="60" height="60"/>
                <use id="zoomplus" xlink:href="#zoomPlus" x="17" y="9" onmousedown="handleZoom(evt,'in')"/>
                <use id="zoomminus" xlink:href="#zoomMin" x="42" y="9" onmousedown="handleZoom(evt,'out')"/>
                <use id="reset" xlink:href="#resetDef" x="30" y="36" onmousedown="handleReset()"/>
                <g id="arrowUp" xlink:href="#dirArrow" transform="translate(30 24)" onmousedown="handlePan(0,-1)">
                  <use xlink:href="#rim" fill="#404040">
                        <set attributeName="fill" to="#808080" begin="arrowUp.mouseover" end="arrowUp.mouseout"/>
                  </use>
                  <path fill="none" stroke="white" stroke-width="1.5" d="M0,-3.0v7 M-2.5,-0.5L0,-3.0L2.5,-0.5"/>
                </g>
                <g id="arrowRight" xlink:href="#dirArrow" transform="rotate(90) translate(36 -43)" onmousedown="handlePan(1,0)">
                  <use xlink:href="#rim" fill="#404040">
                        <set attributeName="fill" to="#808080" begin="arrowRight.mouseover" end="arrowRight.mouseout"/>
                  </use>
                  <path fill="none" stroke="white" stroke-width="1.5" d="M0,-3.0v7 M-2.5,-0.5L0,-3.0L2.5,-0.5"/>
                </g>
                <g id="arrowDown" xlink:href="#dirArrow" transform="rotate(180) translate(-30 -48)" onmousedown="handlePan(0,1)">
                  <use xlink:href="#rim" fill="#404040">
                        <set attributeName="fill" to="#808080" begin="arrowDown.mouseover" end="arrowDown.mouseout"/>
                  </use>
                  <path fill="none" stroke="white" stroke-width="1.5" d="M0,-3.0v7 M-2.5,-0.5L0,-3.0L2.5,-0.5"/>
                </g>
                <g id="arrowLeft" xlink:href="#dirArrow" transform="rotate(270) translate(-36 17)" onmousedown="handlePan(-1,0)">
                  <use xlink:href="#rim" fill="#404040">
                        <set attributeName="fill" to="#808080" begin="arrowLeft.mouseover" end="arrowLeft.mouseout"/>
                  </use>
                  <path fill="none" stroke="white" stroke-width="1.5" d="M0,-3.0v7 M-2.5,-0.5L0,-3.0L2.5,-0.5"/>
                </g>
        </g>
        <svg viewBox="0 0 15 15" width="100%" height="30px" preserveAspectRatio="xMaxYMin meet">
         <g id="arrow_out" transform="scale(0.3 0.3)">
          <a xlink:href="js__plugin_8h__dep__incl_org.svg" target="_base">
           <rect id="button" ry="5" rx="5" y="6" x="6" height="38" width="38"
                fill="#f2f5e9" fill-opacity="0.5" stroke="#606060" stroke-width="1.0"/>
           <path id="arrow"
             d="M 11.500037,31.436501 C 11.940474,20.09759 22.043105,11.32322 32.158766,21.979434 L 37.068811,17.246167 C 37.068811,17.246167 37.088388,32 37.088388,32 L 22.160133,31.978069 C 22.160133,31.978069 26.997745,27.140456 26.997745,27.140456 C 18.528582,18.264221 13.291696,25.230495 11.500037,31.436501 z"
             style="fill:#404040;"/>
          </a>
         </g>
        </svg>
</svg>
