<?xml version="1.0" encoding="UTF-8" standalone="no"?>
<!DOCTYPE svg PUBLIC "-//W3C//DTD SVG 1.1//EN"
 "http://www.w3.org/Graphics/SVG/1.1/DTD/svg11.dtd">
<!-- Generated by graphviz version 2.43.0 (0)
 -->
<!-- Title: src/host/lfs_file_handler.h Pages: 1 -->
<svg width="1409pt" height="386pt"
 viewBox="0.00 0.00 1409.39 386.00" xmlns="http://www.w3.org/2000/svg" xmlns:xlink="http://www.w3.org/1999/xlink">
<g id="graph0" class="graph" transform="scale(1 1) rotate(0) translate(4 382)">
<title>src/host/lfs_file_handler.h</title>
<polygon fill="white" stroke="transparent" points="-4,4 -4,-382 1405.39,-382 1405.39,4 -4,4"/>
<!-- Node1 -->
<g id="node1" class="node">
<title>Node1</title>
<g id="a_node1"><a xlink:title=" ">
<polygon fill="#bfbfbf" stroke="black" points="1084.39,-358.5 1084.39,-377.5 1224.39,-377.5 1224.39,-358.5 1084.39,-358.5"/>
<text text-anchor="middle" x="1154.39" y="-365.5" font-family="Helvetica,sans-Serif" font-size="10.00">src/host/lfs_file_handler.h</text>
</a>
</g>
</g>
<!-- Node2 -->
<g id="node2" class="node">
<title>Node2</title>
<g id="a_node2"><a xlink:href="messaging_8h.html" target="_top" xlink:title=" ">
<polygon fill="white" stroke="black" points="1058.89,-302.5 1058.89,-321.5 1151.89,-321.5 1151.89,-302.5 1058.89,-302.5"/>
<text text-anchor="middle" x="1105.39" y="-309.5" font-family="Helvetica,sans-Serif" font-size="10.00">ds/messaging.h</text>
</a>
</g>
</g>
<!-- Node1&#45;&gt;Node2 -->
<g id="edge1" class="edge">
<title>Node1&#45;&gt;Node2</title>
<path fill="none" stroke="midnightblue" d="M1146.3,-358.08C1139.24,-350.3 1128.8,-338.8 1120.24,-329.37"/>
<polygon fill="midnightblue" stroke="midnightblue" points="1122.64,-326.8 1113.33,-321.75 1117.46,-331.51 1122.64,-326.8"/>
</g>
<!-- Node43 -->
<g id="node43" class="node">
<title>Node43</title>
<g id="a_node43"><a xlink:href="lfs__ringbuffer__types_8h.html" target="_top" xlink:title=" ">
<polygon fill="white" stroke="black" points="848.39,-235.5 848.39,-265.5 974.39,-265.5 974.39,-235.5 848.39,-235.5"/>
<text text-anchor="start" x="856.39" y="-253.5" font-family="Helvetica,sans-Serif" font-size="10.00">indexing/lfs_ringbuffer</text>
<text text-anchor="middle" x="911.39" y="-242.5" font-family="Helvetica,sans-Serif" font-size="10.00">_types.h</text>
</a>
</g>
</g>
<!-- Node1&#45;&gt;Node43 -->
<g id="edge65" class="edge">
<title>Node1&#45;&gt;Node43</title>
<path fill="none" stroke="midnightblue" d="M1133.51,-358.4C1112.39,-349.61 1078.89,-335.38 1050.39,-322 1014.74,-305.27 974.7,-284.77 946.78,-270.2"/>
<polygon fill="midnightblue" stroke="midnightblue" points="948.28,-267.04 937.8,-265.5 945.04,-273.24 948.28,-267.04"/>
</g>
<!-- Node46 -->
<g id="node46" class="node">
<title>Node46</title>
<g id="a_node46"><a xlink:title=" ">
<polygon fill="white" stroke="#bfbfbf" points="1170.39,-302.5 1170.39,-321.5 1238.39,-321.5 1238.39,-302.5 1170.39,-302.5"/>
<text text-anchor="middle" x="1204.39" y="-309.5" font-family="Helvetica,sans-Serif" font-size="10.00">filesystem</text>
</a>
</g>
</g>
<!-- Node1&#45;&gt;Node46 -->
<g id="edge72" class="edge">
<title>Node1&#45;&gt;Node46</title>
<path fill="none" stroke="midnightblue" d="M1162.65,-358.08C1169.86,-350.3 1180.5,-338.8 1189.24,-329.37"/>
<polygon fill="midnightblue" stroke="midnightblue" points="1192.06,-331.47 1196.29,-321.75 1186.93,-326.71 1192.06,-331.47"/>
</g>
<!-- Node47 -->
<g id="node47" class="node">
<title>Node47</title>
<g id="a_node47"><a xlink:title=" ">
<polygon fill="white" stroke="#bfbfbf" points="1256.89,-302.5 1256.89,-321.5 1311.89,-321.5 1311.89,-302.5 1256.89,-302.5"/>
<text text-anchor="middle" x="1284.39" y="-309.5" font-family="Helvetica,sans-Serif" font-size="10.00">fstream</text>
</a>
</g>
</g>
<!-- Node1&#45;&gt;Node47 -->
<g id="edge73" class="edge">
<title>Node1&#45;&gt;Node47</title>
<path fill="none" stroke="midnightblue" d="M1174.99,-358.44C1196.38,-349.56 1230.07,-335.56 1254.42,-325.45"/>
<polygon fill="midnightblue" stroke="midnightblue" points="1256,-328.58 1263.89,-321.52 1253.31,-322.12 1256,-328.58"/>
</g>
<!-- Node3 -->
<g id="node3" class="node">
<title>Node3</title>
<g id="a_node3"><a xlink:href="logger_8h.html" target="_top" xlink:title=" ">
<polygon fill="white" stroke="black" points="410.89,-241 410.89,-260 497.89,-260 497.89,-241 410.89,-241"/>
<text text-anchor="middle" x="454.39" y="-248" font-family="Helvetica,sans-Serif" font-size="10.00">ccf/ds/logger.h</text>
</a>
</g>
</g>
<!-- Node2&#45;&gt;Node3 -->
<g id="edge2" class="edge">
<title>Node2&#45;&gt;Node3</title>
<path fill="none" stroke="midnightblue" d="M1058.83,-306.74C941.37,-296.01 633.43,-267.86 508.36,-256.43"/>
<polygon fill="midnightblue" stroke="midnightblue" points="508.53,-252.93 498.25,-255.51 507.89,-259.9 508.53,-252.93"/>
</g>
<!-- Node10 -->
<g id="node10" class="node">
<title>Node10</title>
<g id="a_node10"><a xlink:title=" ">
<polygon fill="white" stroke="#bfbfbf" points="263.39,-123.5 263.39,-142.5 301.39,-142.5 301.39,-123.5 263.39,-123.5"/>
<text text-anchor="middle" x="282.39" y="-130.5" font-family="Helvetica,sans-Serif" font-size="10.00">map</text>
</a>
</g>
</g>
<!-- Node2&#45;&gt;Node10 -->
<g id="edge63" class="edge">
<title>Node2&#45;&gt;Node10</title>
<path fill="none" stroke="midnightblue" d="M1058.86,-308.41C1004.67,-304.2 913.16,-293.37 839.39,-266 785.37,-245.95 777.7,-228.82 728.39,-199 713.72,-190.12 711.68,-184.38 695.39,-179 535.31,-126.12 480.83,-175.54 311.52,-142.76"/>
<polygon fill="midnightblue" stroke="midnightblue" points="312.02,-139.29 301.52,-140.76 310.64,-146.15 312.02,-139.29"/>
</g>
<!-- Node18 -->
<g id="node18" class="node">
<title>Node18</title>
<g id="a_node18"><a xlink:href="ring__buffer_8h.html" target="_top" xlink:title=" ">
<polygon fill="white" stroke="black" points="1297.89,-241 1297.89,-260 1374.89,-260 1374.89,-241 1297.89,-241"/>
<text text-anchor="middle" x="1336.39" y="-248" font-family="Helvetica,sans-Serif" font-size="10.00">ring_buffer.h</text>
</a>
</g>
</g>
<!-- Node2&#45;&gt;Node18 -->
<g id="edge19" class="edge">
<title>Node2&#45;&gt;Node18</title>
<path fill="none" stroke="midnightblue" d="M1143.27,-302.43C1180.59,-293.82 1239.15,-279.88 1289.39,-266 1292.79,-265.06 1296.31,-264.05 1299.83,-263.01"/>
<polygon fill="midnightblue" stroke="midnightblue" points="1301.06,-266.29 1309.63,-260.06 1299.04,-259.59 1301.06,-266.29"/>
</g>
<!-- Node37 -->
<g id="node37" class="node">
<title>Node37</title>
<g id="a_node37"><a xlink:title=" ">
<polygon fill="white" stroke="#bfbfbf" points="1267.89,-0.5 1267.89,-19.5 1332.89,-19.5 1332.89,-0.5 1267.89,-0.5"/>
<text text-anchor="middle" x="1300.39" y="-7.5" font-family="Helvetica,sans-Serif" font-size="10.00">stdexcept</text>
</a>
</g>
</g>
<!-- Node2&#45;&gt;Node37 -->
<g id="edge64" class="edge">
<title>Node2&#45;&gt;Node37</title>
<path fill="none" stroke="midnightblue" d="M1111.03,-302.33C1125.22,-280.72 1163.96,-223.05 1201.39,-179 1238.63,-135.17 1267.77,-138.98 1292.39,-87 1300.89,-69.05 1302.19,-46.11 1301.8,-30.15"/>
<polygon fill="midnightblue" stroke="midnightblue" points="1305.28,-29.75 1301.29,-19.94 1298.29,-30.1 1305.28,-29.75"/>
</g>
<!-- Node40 -->
<g id="node40" class="node">
<title>Node40</title>
<g id="a_node40"><a xlink:title=" ">
<polygon fill="white" stroke="#bfbfbf" points="1080.39,-123.5 1080.39,-142.5 1130.39,-142.5 1130.39,-123.5 1080.39,-123.5"/>
<text text-anchor="middle" x="1105.39" y="-130.5" font-family="Helvetica,sans-Serif" font-size="10.00">atomic</text>
</a>
</g>
</g>
<!-- Node2&#45;&gt;Node40 -->
<g id="edge61" class="edge">
<title>Node2&#45;&gt;Node40</title>
<path fill="none" stroke="midnightblue" d="M1105.39,-302.46C1105.39,-275.43 1105.39,-191.24 1105.39,-153.11"/>
<polygon fill="midnightblue" stroke="midnightblue" points="1108.89,-152.87 1105.39,-142.87 1101.89,-152.87 1108.89,-152.87"/>
</g>
<!-- Node42 -->
<g id="node42" class="node">
<title>Node42</title>
<g id="a_node42"><a xlink:title=" ">
<polygon fill="white" stroke="#bfbfbf" points="1172.89,-241 1172.89,-260 1279.89,-260 1279.89,-241 1172.89,-241"/>
<text text-anchor="middle" x="1226.39" y="-248" font-family="Helvetica,sans-Serif" font-size="10.00">condition_variable</text>
</a>
</g>
</g>
<!-- Node2&#45;&gt;Node42 -->
<g id="edge62" class="edge">
<title>Node2&#45;&gt;Node42</title>
<path fill="none" stroke="midnightblue" d="M1122.73,-302.48C1142.94,-292.53 1176.58,-275.99 1200.03,-264.46"/>
<polygon fill="midnightblue" stroke="midnightblue" points="1201.66,-267.56 1209.09,-260.01 1198.57,-261.28 1201.66,-267.56"/>
</g>
<!-- Node4 -->
<g id="node4" class="node">
<title>Node4</title>
<g id="a_node4"><a xlink:href="enum__formatter_8h.html" target="_top" xlink:title=" ">
<polygon fill="white" stroke="black" points="550.39,-179.5 550.39,-198.5 686.39,-198.5 686.39,-179.5 550.39,-179.5"/>
<text text-anchor="middle" x="618.39" y="-186.5" font-family="Helvetica,sans-Serif" font-size="10.00">ccf/ds/enum_formatter.h</text>
</a>
</g>
</g>
<!-- Node3&#45;&gt;Node4 -->
<g id="edge3" class="edge">
<title>Node3&#45;&gt;Node4</title>
<path fill="none" stroke="midnightblue" d="M477.89,-240.98C506.02,-230.77 553.32,-213.61 585.18,-202.05"/>
<polygon fill="midnightblue" stroke="midnightblue" points="586.73,-205.21 594.94,-198.51 584.34,-198.63 586.73,-205.21"/>
</g>
<!-- Node5 -->
<g id="node5" class="node">
<title>Node5</title>
<g id="a_node5"><a xlink:title=" ">
<polygon fill="white" stroke="#bfbfbf" points="319.89,-123.5 319.89,-142.5 398.89,-142.5 398.89,-123.5 319.89,-123.5"/>
<text text-anchor="middle" x="359.39" y="-130.5" font-family="Helvetica,sans-Serif" font-size="10.00">fmt/format.h</text>
</a>
</g>
</g>
<!-- Node3&#45;&gt;Node5 -->
<g id="edge13" class="edge">
<title>Node3&#45;&gt;Node5</title>
<path fill="none" stroke="midnightblue" d="M498.18,-250.25C581.94,-250.3 751.72,-242.81 695.39,-179 654.62,-132.82 487.15,-151.09 409.28,-142.94"/>
<polygon fill="midnightblue" stroke="midnightblue" points="409.28,-139.41 398.91,-141.61 408.38,-146.35 409.28,-139.41"/>
</g>
<!-- Node6 -->
<g id="node6" class="node">
<title>Node6</title>
<g id="a_node6"><a xlink:href="thread__ids_8h.html" target="_top" xlink:title=" ">
<polygon fill="white" stroke="black" points="47.39,-179.5 47.39,-198.5 155.39,-198.5 155.39,-179.5 47.39,-179.5"/>
<text text-anchor="middle" x="101.39" y="-186.5" font-family="Helvetica,sans-Serif" font-size="10.00">ccf/ds/thread_ids.h</text>
</a>
</g>
</g>
<!-- Node3&#45;&gt;Node6 -->
<g id="edge5" class="edge">
<title>Node3&#45;&gt;Node6</title>
<path fill="none" stroke="midnightblue" d="M410.75,-242.14C348.25,-231.61 232.98,-212.18 162.17,-200.24"/>
<polygon fill="midnightblue" stroke="midnightblue" points="162.49,-196.75 152.05,-198.54 161.33,-203.65 162.49,-196.75"/>
</g>
<!-- Node12 -->
<g id="node12" class="node">
<title>Node12</title>
<g id="a_node12"><a xlink:title=" ">
<polygon fill="white" stroke="#bfbfbf" points="173.89,-179.5 173.89,-198.5 252.89,-198.5 252.89,-179.5 173.89,-179.5"/>
<text text-anchor="middle" x="213.39" y="-186.5" font-family="Helvetica,sans-Serif" font-size="10.00">fmt/chrono.h</text>
</a>
</g>
</g>
<!-- Node3&#45;&gt;Node12 -->
<g id="edge12" class="edge">
<title>Node3&#45;&gt;Node12</title>
<path fill="none" stroke="midnightblue" d="M419.86,-240.98C377.18,-230.44 304.47,-212.49 257.71,-200.94"/>
<polygon fill="midnightblue" stroke="midnightblue" points="258.4,-197.51 247.86,-198.51 256.73,-204.3 258.4,-197.51"/>
</g>
<!-- Node13 -->
<g id="node13" class="node">
<title>Node13</title>
<g id="a_node13"><a xlink:title=" ">
<polygon fill="white" stroke="#bfbfbf" points="270.39,-179.5 270.39,-198.5 330.39,-198.5 330.39,-179.5 270.39,-179.5"/>
<text text-anchor="middle" x="300.39" y="-186.5" font-family="Helvetica,sans-Serif" font-size="10.00">iostream</text>
</a>
</g>
</g>
<!-- Node3&#45;&gt;Node13 -->
<g id="edge14" class="edge">
<title>Node3&#45;&gt;Node13</title>
<path fill="none" stroke="midnightblue" d="M432.33,-240.98C406.02,-230.81 361.88,-213.76 331.97,-202.2"/>
<polygon fill="midnightblue" stroke="midnightblue" points="333,-198.85 322.41,-198.51 330.48,-205.38 333,-198.85"/>
</g>
<!-- Node14 -->
<g id="node14" class="node">
<title>Node14</title>
<g id="a_node14"><a xlink:title=" ">
<polygon fill="white" stroke="#bfbfbf" points="348.39,-179.5 348.39,-198.5 458.39,-198.5 458.39,-179.5 348.39,-179.5"/>
<text text-anchor="middle" x="403.39" y="-186.5" font-family="Helvetica,sans-Serif" font-size="10.00">nlohmann/json.hpp</text>
</a>
</g>
</g>
<!-- Node3&#45;&gt;Node14 -->
<g id="edge15" class="edge">
<title>Node3&#45;&gt;Node14</title>
<path fill="none" stroke="midnightblue" d="M447.08,-240.98C439.36,-231.96 426.98,-217.52 417.37,-206.31"/>
<polygon fill="midnightblue" stroke="midnightblue" points="419.85,-203.82 410.68,-198.51 414.54,-208.38 419.85,-203.82"/>
</g>
<!-- Node15 -->
<g id="node15" class="node">
<title>Node15</title>
<g id="a_node15"><a xlink:title=" ">
<polygon fill="white" stroke="#bfbfbf" points="566.39,-123.5 566.39,-142.5 622.39,-142.5 622.39,-123.5 566.39,-123.5"/>
<text text-anchor="middle" x="594.39" y="-130.5" font-family="Helvetica,sans-Serif" font-size="10.00">optional</text>
</a>
</g>
</g>
<!-- Node3&#45;&gt;Node15 -->
<g id="edge16" class="edge">
<title>Node3&#45;&gt;Node15</title>
<path fill="none" stroke="midnightblue" d="M498.03,-247.55C565.02,-243.54 688.33,-231.8 715.39,-199 721.05,-192.14 720.46,-186.3 715.39,-179 705.58,-164.88 664.08,-151.53 632.39,-143.09"/>
<polygon fill="midnightblue" stroke="midnightblue" points="633.06,-139.65 622.5,-140.53 631.3,-146.42 633.06,-139.65"/>
</g>
<!-- Node16 -->
<g id="node16" class="node">
<title>Node16</title>
<g id="a_node16"><a xlink:title=" ">
<polygon fill="white" stroke="#bfbfbf" points="476.39,-179.5 476.39,-198.5 532.39,-198.5 532.39,-179.5 476.39,-179.5"/>
<text text-anchor="middle" x="504.39" y="-186.5" font-family="Helvetica,sans-Serif" font-size="10.00">sstream</text>
</a>
</g>
</g>
<!-- Node3&#45;&gt;Node16 -->
<g id="edge17" class="edge">
<title>Node3&#45;&gt;Node16</title>
<path fill="none" stroke="midnightblue" d="M461.55,-240.98C469.13,-231.96 481.26,-217.52 490.68,-206.31"/>
<polygon fill="midnightblue" stroke="midnightblue" points="493.49,-208.42 497.24,-198.51 488.13,-203.91 493.49,-208.42"/>
</g>
<!-- Node17 -->
<g id="node17" class="node">
<title>Node17</title>
<g id="a_node17"><a xlink:title=" ">
<polygon fill="white" stroke="#bfbfbf" points="338.89,-0.5 338.89,-19.5 407.89,-19.5 407.89,-0.5 338.89,-0.5"/>
<text text-anchor="middle" x="373.39" y="-7.5" font-family="Helvetica,sans-Serif" font-size="10.00">type_traits</text>
</a>
</g>
</g>
<!-- Node3&#45;&gt;Node17 -->
<g id="edge18" class="edge">
<title>Node3&#45;&gt;Node17</title>
<path fill="none" stroke="midnightblue" d="M410.75,-248.94C316.85,-246.99 99.22,-238.24 38.39,-199 13.92,-183.21 12.24,-171.04 4.39,-143 -28.72,-24.66 144.72,-79.84 223.39,-56 261.26,-44.53 304.56,-31.55 334.87,-22.49"/>
<polygon fill="midnightblue" stroke="midnightblue" points="336.04,-25.8 344.62,-19.58 334.04,-19.09 336.04,-25.8"/>
</g>
<!-- Node4&#45;&gt;Node5 -->
<g id="edge4" class="edge">
<title>Node4&#45;&gt;Node5</title>
<path fill="none" stroke="midnightblue" d="M577.35,-179.44C531.68,-169.92 457.88,-154.53 409,-144.34"/>
<polygon fill="midnightblue" stroke="midnightblue" points="409.47,-140.87 398.96,-142.25 408.04,-147.72 409.47,-140.87"/>
</g>
<!-- Node6&#45;&gt;Node5 -->
<g id="edge6" class="edge">
<title>Node6&#45;&gt;Node5</title>
<path fill="none" stroke="midnightblue" d="M142.27,-179.44C187.64,-169.95 260.86,-154.62 309.55,-144.43"/>
<polygon fill="midnightblue" stroke="midnightblue" points="310.48,-147.81 319.55,-142.34 309.04,-140.96 310.48,-147.81"/>
</g>
<!-- Node7 -->
<g id="node7" class="node">
<title>Node7</title>
<g id="a_node7"><a xlink:title=" ">
<polygon fill="white" stroke="#bfbfbf" points="13.39,-123.5 13.39,-142.5 99.39,-142.5 99.39,-123.5 13.39,-123.5"/>
<text text-anchor="middle" x="56.39" y="-130.5" font-family="Helvetica,sans-Serif" font-size="10.00">fmt/ostream.h</text>
</a>
</g>
</g>
<!-- Node6&#45;&gt;Node7 -->
<g id="edge7" class="edge">
<title>Node6&#45;&gt;Node7</title>
<path fill="none" stroke="midnightblue" d="M93.96,-179.08C87.54,-171.38 78.09,-160.03 70.27,-150.65"/>
<polygon fill="midnightblue" stroke="midnightblue" points="72.77,-148.19 63.68,-142.75 67.4,-152.67 72.77,-148.19"/>
</g>
<!-- Node8 -->
<g id="node8" class="node">
<title>Node8</title>
<g id="a_node8"><a xlink:title=" ">
<polygon fill="white" stroke="#bfbfbf" points="117.89,-123.5 117.89,-142.5 178.89,-142.5 178.89,-123.5 117.89,-123.5"/>
<text text-anchor="middle" x="148.39" y="-130.5" font-family="Helvetica,sans-Serif" font-size="10.00">fmt/std.h</text>
</a>
</g>
</g>
<!-- Node6&#45;&gt;Node8 -->
<g id="edge8" class="edge">
<title>Node6&#45;&gt;Node8</title>
<path fill="none" stroke="midnightblue" d="M109.15,-179.08C115.93,-171.3 125.93,-159.8 134.15,-150.37"/>
<polygon fill="midnightblue" stroke="midnightblue" points="136.85,-152.59 140.77,-142.75 131.57,-148 136.85,-152.59"/>
</g>
<!-- Node9 -->
<g id="node9" class="node">
<title>Node9</title>
<g id="a_node9"><a xlink:title=" ">
<polygon fill="white" stroke="#bfbfbf" points="823.39,-123.5 823.39,-142.5 867.39,-142.5 867.39,-123.5 823.39,-123.5"/>
<text text-anchor="middle" x="845.39" y="-130.5" font-family="Helvetica,sans-Serif" font-size="10.00">limits</text>
</a>
</g>
</g>
<!-- Node6&#45;&gt;Node9 -->
<g id="edge9" class="edge">
<title>Node6&#45;&gt;Node9</title>
<path fill="none" stroke="midnightblue" d="M155.65,-179.95C158.61,-179.61 161.53,-179.29 164.39,-179 443.9,-151.11 516.43,-175.94 795.39,-143 801.08,-142.33 807.11,-141.42 812.93,-140.43"/>
<polygon fill="midnightblue" stroke="midnightblue" points="813.85,-143.82 823.08,-138.61 812.62,-136.93 813.85,-143.82"/>
</g>
<!-- Node6&#45;&gt;Node10 -->
<g id="edge10" class="edge">
<title>Node6&#45;&gt;Node10</title>
<path fill="none" stroke="midnightblue" d="M131.36,-179.42C160.32,-171.09 205.67,-157.89 253.53,-143.21"/>
<polygon fill="midnightblue" stroke="midnightblue" points="254.6,-146.55 263.13,-140.26 252.54,-139.86 254.6,-146.55"/>
</g>
<!-- Node11 -->
<g id="node11" class="node">
<title>Node11</title>
<g id="a_node11"><a xlink:title=" ">
<polygon fill="white" stroke="#bfbfbf" points="197.39,-123.5 197.39,-142.5 245.39,-142.5 245.39,-123.5 197.39,-123.5"/>
<text text-anchor="middle" x="221.39" y="-130.5" font-family="Helvetica,sans-Serif" font-size="10.00">thread</text>
</a>
</g>
</g>
<!-- Node6&#45;&gt;Node11 -->
<g id="edge11" class="edge">
<title>Node6&#45;&gt;Node11</title>
<path fill="none" stroke="midnightblue" d="M120.41,-179.44C139.98,-170.64 170.7,-156.81 193.12,-146.72"/>
<polygon fill="midnightblue" stroke="midnightblue" points="194.78,-149.81 202.47,-142.52 191.91,-143.43 194.78,-149.81"/>
</g>
<!-- Node19 -->
<g id="node19" class="node">
<title>Node19</title>
<g id="a_node19"><a xlink:href="mem_8h.html" target="_top" xlink:title=" ">
<polygon fill="white" stroke="black" points="1293.39,-179.5 1293.39,-198.5 1379.39,-198.5 1379.39,-179.5 1293.39,-179.5"/>
<text text-anchor="middle" x="1336.39" y="-186.5" font-family="Helvetica,sans-Serif" font-size="10.00">ccf/pal/mem.h</text>
</a>
</g>
</g>
<!-- Node18&#45;&gt;Node19 -->
<g id="edge20" class="edge">
<title>Node18&#45;&gt;Node19</title>
<path fill="none" stroke="midnightblue" d="M1336.39,-240.98C1336.39,-232.58 1336.39,-219.48 1336.39,-208.66"/>
<polygon fill="midnightblue" stroke="midnightblue" points="1339.89,-208.51 1336.39,-198.51 1332.89,-208.51 1339.89,-208.51"/>
</g>
<!-- Node21 -->
<g id="node21" class="node">
<title>Node21</title>
<g id="a_node21"><a xlink:title=" ">
<polygon fill="white" stroke="#bfbfbf" points="1351.39,-0.5 1351.39,-19.5 1401.39,-19.5 1401.39,-0.5 1351.39,-0.5"/>
<text text-anchor="middle" x="1376.39" y="-7.5" font-family="Helvetica,sans-Serif" font-size="10.00">cstring</text>
</a>
</g>
</g>
<!-- Node18&#45;&gt;Node21 -->
<g id="edge59" class="edge">
<title>Node18&#45;&gt;Node21</title>
<path fill="none" stroke="midnightblue" d="M1350.5,-240.68C1363.11,-231.88 1380.75,-217.08 1388.39,-199 1412.87,-141.1 1393.83,-64.17 1382.82,-29.42"/>
<polygon fill="midnightblue" stroke="midnightblue" points="1386.06,-28.09 1379.59,-19.7 1379.42,-30.29 1386.06,-28.09"/>
</g>
<!-- Node22 -->
<g id="node22" class="node">
<title>Node22</title>
<g id="a_node22"><a xlink:href="ring__buffer__types_8h.html" target="_top" xlink:title=" ">
<polygon fill="white" stroke="black" points="856.39,-179.5 856.39,-198.5 966.39,-198.5 966.39,-179.5 856.39,-179.5"/>
<text text-anchor="middle" x="911.39" y="-186.5" font-family="Helvetica,sans-Serif" font-size="10.00">ring_buffer_types.h</text>
</a>
</g>
</g>
<!-- Node18&#45;&gt;Node22 -->
<g id="edge24" class="edge">
<title>Node18&#45;&gt;Node22</title>
<path fill="none" stroke="midnightblue" d="M1311.73,-240.98C1304.59,-238.76 1296.74,-236.56 1289.39,-235 1181.18,-212.06 1052.88,-199.88 977.02,-194.2"/>
<polygon fill="midnightblue" stroke="midnightblue" points="976.9,-190.68 966.67,-193.44 976.39,-197.66 976.9,-190.68"/>
</g>
<!-- Node41 -->
<g id="node41" class="node">
<title>Node41</title>
<g id="a_node41"><a xlink:title=" ">
<polygon fill="white" stroke="#bfbfbf" points="1209.89,-179.5 1209.89,-198.5 1274.89,-198.5 1274.89,-179.5 1209.89,-179.5"/>
<text text-anchor="middle" x="1242.39" y="-186.5" font-family="Helvetica,sans-Serif" font-size="10.00">functional</text>
</a>
</g>
</g>
<!-- Node18&#45;&gt;Node41 -->
<g id="edge60" class="edge">
<title>Node18&#45;&gt;Node41</title>
<path fill="none" stroke="midnightblue" d="M1322.92,-240.98C1307.71,-231.34 1282.7,-215.52 1264.59,-204.05"/>
<polygon fill="midnightblue" stroke="midnightblue" points="1266.16,-200.9 1255.83,-198.51 1262.41,-206.81 1266.16,-200.9"/>
</g>
<!-- Node19&#45;&gt;Node9 -->
<g id="edge23" class="edge">
<title>Node19&#45;&gt;Node9</title>
<path fill="none" stroke="midnightblue" d="M1293.3,-180.27C1290.29,-179.81 1287.3,-179.38 1284.39,-179 1111.39,-156.1 1066.23,-167.11 893.39,-143 888.41,-142.3 883.15,-141.45 878.02,-140.54"/>
<polygon fill="midnightblue" stroke="midnightblue" points="878.26,-137.03 867.79,-138.65 876.98,-143.91 878.26,-137.03"/>
</g>
<!-- Node20 -->
<g id="node20" class="node">
<title>Node20</title>
<g id="a_node20"><a xlink:title=" ">
<polygon fill="white" stroke="#bfbfbf" points="1289.89,-123.5 1289.89,-142.5 1342.89,-142.5 1342.89,-123.5 1289.89,-123.5"/>
<text text-anchor="middle" x="1316.39" y="-130.5" font-family="Helvetica,sans-Serif" font-size="10.00">stdlib.h</text>
</a>
</g>
</g>
<!-- Node19&#45;&gt;Node20 -->
<g id="edge21" class="edge">
<title>Node19&#45;&gt;Node20</title>
<path fill="none" stroke="midnightblue" d="M1333.09,-179.08C1330.41,-171.85 1326.54,-161.41 1323.2,-152.4"/>
<polygon fill="midnightblue" stroke="midnightblue" points="1326.39,-150.91 1319.63,-142.75 1319.82,-153.34 1326.39,-150.91"/>
</g>
<!-- Node19&#45;&gt;Node21 -->
<g id="edge22" class="edge">
<title>Node19&#45;&gt;Node21</title>
<path fill="none" stroke="midnightblue" d="M1340.01,-179.17C1343.58,-170.19 1348.97,-155.82 1352.39,-143 1362.96,-103.38 1370.34,-55.83 1373.92,-29.99"/>
<polygon fill="midnightblue" stroke="midnightblue" points="1377.44,-30.13 1375.3,-19.76 1370.5,-29.2 1377.44,-30.13"/>
</g>
<!-- Node22&#45;&gt;Node5 -->
<g id="edge55" class="edge">
<title>Node22&#45;&gt;Node5</title>
<path fill="none" stroke="midnightblue" d="M856.38,-184.83C765.34,-179.2 577.43,-165.97 408.94,-143.1"/>
<polygon fill="midnightblue" stroke="midnightblue" points="409.28,-139.61 398.89,-141.72 408.33,-146.55 409.28,-139.61"/>
</g>
<!-- Node22&#45;&gt;Node15 -->
<g id="edge56" class="edge">
<title>Node22&#45;&gt;Node15</title>
<path fill="none" stroke="midnightblue" d="M856.21,-179.78C800.58,-171.31 712.33,-157.34 636.39,-143 635.15,-142.77 633.9,-142.52 632.63,-142.28"/>
<polygon fill="midnightblue" stroke="midnightblue" points="633.32,-138.84 622.82,-140.29 631.93,-145.7 633.32,-138.84"/>
</g>
<!-- Node23 -->
<g id="node23" class="node">
<title>Node23</title>
<g id="a_node23"><a xlink:href="include_2ccf_2ds_2hash_8h.html" target="_top" xlink:title=" ">
<polygon fill="white" stroke="black" points="902.39,-123.5 902.39,-142.5 982.39,-142.5 982.39,-123.5 902.39,-123.5"/>
<text text-anchor="middle" x="942.39" y="-130.5" font-family="Helvetica,sans-Serif" font-size="10.00">ccf/ds/hash.h</text>
</a>
</g>
</g>
<!-- Node22&#45;&gt;Node23 -->
<g id="edge25" class="edge">
<title>Node22&#45;&gt;Node23</title>
<path fill="none" stroke="midnightblue" d="M916.51,-179.08C920.8,-171.61 927.05,-160.72 932.33,-151.52"/>
<polygon fill="midnightblue" stroke="midnightblue" points="935.42,-153.17 937.37,-142.75 929.35,-149.68 935.42,-153.17"/>
</g>
<!-- Node27 -->
<g id="node27" class="node">
<title>Node27</title>
<g id="a_node27"><a xlink:title=" ">
<polygon fill="white" stroke="#bfbfbf" points="824.89,-0.5 824.89,-19.5 871.89,-19.5 871.89,-0.5 824.89,-0.5"/>
<text text-anchor="middle" x="848.39" y="-7.5" font-family="Helvetica,sans-Serif" font-size="10.00">vector</text>
</a>
</g>
</g>
<!-- Node22&#45;&gt;Node27 -->
<g id="edge58" class="edge">
<title>Node22&#45;&gt;Node27</title>
<path fill="none" stroke="midnightblue" d="M930.59,-179.47C973.86,-159.09 1072.34,-105.56 1033.39,-56 1014.93,-32.51 930.33,-19.76 882.17,-14.29"/>
<polygon fill="midnightblue" stroke="midnightblue" points="882.52,-10.81 872.2,-13.2 881.76,-17.77 882.52,-10.81"/>
</g>
<!-- Node30 -->
<g id="node30" class="node">
<title>Node30</title>
<g id="a_node30"><a xlink:href="nonstd_8h.html" target="_top" xlink:title=" ">
<polygon fill="white" stroke="black" points="556.39,-62 556.39,-81 646.39,-81 646.39,-62 556.39,-62"/>
<text text-anchor="middle" x="601.39" y="-69" font-family="Helvetica,sans-Serif" font-size="10.00">ccf/ds/nonstd.h</text>
</a>
</g>
</g>
<!-- Node22&#45;&gt;Node30 -->
<g id="edge34" class="edge">
<title>Node22&#45;&gt;Node30</title>
<path fill="none" stroke="midnightblue" d="M862.82,-179.42C811.71,-170.02 734.93,-154.71 707.39,-143 673.91,-128.76 639.65,-103.68 619.46,-87.59"/>
<polygon fill="midnightblue" stroke="midnightblue" points="621.44,-84.69 611.47,-81.1 617.03,-90.12 621.44,-84.69"/>
</g>
<!-- Node33 -->
<g id="node33" class="node">
<title>Node33</title>
<g id="a_node33"><a xlink:title=" ">
<polygon fill="white" stroke="#bfbfbf" points="426.39,-0.5 426.39,-19.5 470.39,-19.5 470.39,-0.5 426.39,-0.5"/>
<text text-anchor="middle" x="448.39" y="-7.5" font-family="Helvetica,sans-Serif" font-size="10.00">string</text>
</a>
</g>
</g>
<!-- Node22&#45;&gt;Node33 -->
<g id="edge57" class="edge">
<title>Node22&#45;&gt;Node33</title>
<path fill="none" stroke="midnightblue" d="M855.99,-183.2C805.39,-177.58 729.15,-165.94 666.39,-143 649.56,-136.85 648.22,-129.13 631.39,-123 547.36,-92.37 490.7,-155.67 433.39,-87 419.7,-70.6 428.77,-45.3 437.63,-28.45"/>
<polygon fill="midnightblue" stroke="midnightblue" points="440.74,-30.06 442.65,-19.64 434.66,-26.6 440.74,-30.06"/>
</g>
<!-- Node35 -->
<g id="node35" class="node">
<title>Node35</title>
<g id="a_node35"><a xlink:href="serializer_8h.html" target="_top" xlink:title=" ">
<polygon fill="white" stroke="black" points="716.39,-123.5 716.39,-142.5 786.39,-142.5 786.39,-123.5 716.39,-123.5"/>
<text text-anchor="middle" x="751.39" y="-130.5" font-family="Helvetica,sans-Serif" font-size="10.00">serializer.h</text>
</a>
</g>
</g>
<!-- Node22&#45;&gt;Node35 -->
<g id="edge42" class="edge">
<title>Node22&#45;&gt;Node35</title>
<path fill="none" stroke="midnightblue" d="M886.04,-179.44C859.12,-170.36 816.39,-155.94 786.3,-145.78"/>
<polygon fill="midnightblue" stroke="midnightblue" points="787.22,-142.4 776.63,-142.52 784.98,-149.03 787.22,-142.4"/>
</g>
<!-- Node22&#45;&gt;Node40 -->
<g id="edge54" class="edge">
<title>Node22&#45;&gt;Node40</title>
<path fill="none" stroke="midnightblue" d="M942.13,-179.44C977.09,-169.71 1034.05,-153.86 1070.61,-143.68"/>
<polygon fill="midnightblue" stroke="midnightblue" points="1071.65,-147.02 1080.35,-140.97 1069.77,-140.28 1071.65,-147.02"/>
</g>
<!-- Node24 -->
<g id="node24" class="node">
<title>Node24</title>
<g id="a_node24"><a xlink:href="siphash_8h.html" target="_top" xlink:title=" ">
<polygon fill="white" stroke="black" points="1080.89,-62 1080.89,-81 1175.89,-81 1175.89,-62 1080.89,-62"/>
<text text-anchor="middle" x="1128.39" y="-69" font-family="Helvetica,sans-Serif" font-size="10.00">ccf/ds/siphash.h</text>
</a>
</g>
</g>
<!-- Node23&#45;&gt;Node24 -->
<g id="edge26" class="edge">
<title>Node23&#45;&gt;Node24</title>
<path fill="none" stroke="midnightblue" d="M969.04,-123.48C1001.36,-113.14 1055.99,-95.66 1092.12,-84.1"/>
<polygon fill="midnightblue" stroke="midnightblue" points="1093.33,-87.39 1101.79,-81.01 1091.2,-80.72 1093.33,-87.39"/>
</g>
<!-- Node26 -->
<g id="node26" class="node">
<title>Node26</title>
<g id="a_node26"><a xlink:title=" ">
<polygon fill="white" stroke="#bfbfbf" points="1199.39,-0.5 1199.39,-19.5 1249.39,-19.5 1249.39,-0.5 1199.39,-0.5"/>
<text text-anchor="middle" x="1224.39" y="-7.5" font-family="Helvetica,sans-Serif" font-size="10.00">cstdint</text>
</a>
</g>
</g>
<!-- Node23&#45;&gt;Node26 -->
<g id="edge31" class="edge">
<title>Node23&#45;&gt;Node26</title>
<path fill="none" stroke="midnightblue" d="M982.48,-129.52C1066.99,-123.87 1257.28,-108.86 1276.39,-87 1293.69,-67.22 1267.34,-41.51 1246.26,-25.64"/>
<polygon fill="midnightblue" stroke="midnightblue" points="1248.14,-22.68 1237.98,-19.68 1244.05,-28.36 1248.14,-22.68"/>
</g>
<!-- Node23&#45;&gt;Node27 -->
<g id="edge33" class="edge">
<title>Node23&#45;&gt;Node27</title>
<path fill="none" stroke="midnightblue" d="M918.66,-123.48C901.9,-116.28 880.23,-104.32 867.39,-87 855.02,-70.31 850.65,-46.48 849.13,-29.97"/>
<polygon fill="midnightblue" stroke="midnightblue" points="852.62,-29.64 848.48,-19.89 845.64,-30.1 852.62,-29.64"/>
</g>
<!-- Node28 -->
<g id="node28" class="node">
<title>Node28</title>
<g id="a_node28"><a xlink:title=" ">
<polygon fill="white" stroke="#bfbfbf" points="742.39,-0.5 742.39,-19.5 784.39,-19.5 784.39,-0.5 742.39,-0.5"/>
<text text-anchor="middle" x="763.39" y="-7.5" font-family="Helvetica,sans-Serif" font-size="10.00">array</text>
</a>
</g>
</g>
<!-- Node23&#45;&gt;Node28 -->
<g id="edge30" class="edge">
<title>Node23&#45;&gt;Node28</title>
<path fill="none" stroke="midnightblue" d="M921.08,-123.48C901.86,-115.36 873.2,-102.15 850.39,-87 823.4,-69.07 795.83,-43.5 779.16,-27.08"/>
<polygon fill="midnightblue" stroke="midnightblue" points="781.45,-24.42 771.9,-19.82 776.5,-29.37 781.45,-24.42"/>
</g>
<!-- Node29 -->
<g id="node29" class="node">
<title>Node29</title>
<g id="a_node29"><a xlink:title=" ">
<polygon fill="white" stroke="#bfbfbf" points="875.89,-62 875.89,-81 1024.89,-81 1024.89,-62 875.89,-62"/>
<text text-anchor="middle" x="950.39" y="-69" font-family="Helvetica,sans-Serif" font-size="10.00">small_vector/SmallVector.h</text>
</a>
</g>
</g>
<!-- Node23&#45;&gt;Node29 -->
<g id="edge32" class="edge">
<title>Node23&#45;&gt;Node29</title>
<path fill="none" stroke="midnightblue" d="M943.54,-123.48C944.67,-115.08 946.43,-101.98 947.88,-91.16"/>
<polygon fill="midnightblue" stroke="midnightblue" points="951.38,-91.39 949.25,-81.01 944.45,-90.45 951.38,-91.39"/>
</g>
<!-- Node25 -->
<g id="node25" class="node">
<title>Node25</title>
<g id="a_node25"><a xlink:title=" ">
<polygon fill="white" stroke="#bfbfbf" points="1101.89,-0.5 1101.89,-19.5 1154.89,-19.5 1154.89,-0.5 1101.89,-0.5"/>
<text text-anchor="middle" x="1128.39" y="-7.5" font-family="Helvetica,sans-Serif" font-size="10.00">cstddef</text>
</a>
</g>
</g>
<!-- Node24&#45;&gt;Node25 -->
<g id="edge27" class="edge">
<title>Node24&#45;&gt;Node25</title>
<path fill="none" stroke="midnightblue" d="M1128.39,-61.98C1128.39,-53.58 1128.39,-40.48 1128.39,-29.66"/>
<polygon fill="midnightblue" stroke="midnightblue" points="1131.89,-29.51 1128.39,-19.51 1124.89,-29.51 1131.89,-29.51"/>
</g>
<!-- Node24&#45;&gt;Node26 -->
<g id="edge28" class="edge">
<title>Node24&#45;&gt;Node26</title>
<path fill="none" stroke="midnightblue" d="M1142.15,-61.98C1157.76,-52.3 1183.45,-36.37 1201.97,-24.89"/>
<polygon fill="midnightblue" stroke="midnightblue" points="1204.01,-27.75 1210.66,-19.51 1200.32,-21.8 1204.01,-27.75"/>
</g>
<!-- Node24&#45;&gt;Node27 -->
<g id="edge29" class="edge">
<title>Node24&#45;&gt;Node27</title>
<path fill="none" stroke="midnightblue" d="M1092.69,-61.98C1084.09,-59.98 1074.92,-57.88 1066.39,-56 1001.19,-41.65 924.71,-26.17 881.87,-17.63"/>
<polygon fill="midnightblue" stroke="midnightblue" points="882.47,-14.18 871.98,-15.66 881.11,-21.04 882.47,-14.18"/>
</g>
<!-- Node30&#45;&gt;Node17 -->
<g id="edge40" class="edge">
<title>Node30&#45;&gt;Node17</title>
<path fill="none" stroke="midnightblue" d="M568.72,-61.98C528.51,-51.48 460.13,-33.64 415.88,-22.09"/>
<polygon fill="midnightblue" stroke="midnightblue" points="416.56,-18.65 406,-19.51 414.79,-25.42 416.56,-18.65"/>
</g>
<!-- Node30&#45;&gt;Node27 -->
<g id="edge41" class="edge">
<title>Node30&#45;&gt;Node27</title>
<path fill="none" stroke="midnightblue" d="M636.01,-61.95C644.02,-59.99 652.5,-57.91 660.39,-56 714.35,-42.91 777.09,-27.95 814.72,-19"/>
<polygon fill="midnightblue" stroke="midnightblue" points="815.72,-22.36 824.64,-16.64 814.1,-15.54 815.72,-22.36"/>
</g>
<!-- Node30&#45;&gt;Node28 -->
<g id="edge36" class="edge">
<title>Node30&#45;&gt;Node28</title>
<path fill="none" stroke="midnightblue" d="M624.6,-61.98C653.02,-51.54 701.25,-33.82 732.71,-22.27"/>
<polygon fill="midnightblue" stroke="midnightblue" points="734.11,-25.49 742.29,-18.75 731.69,-18.91 734.11,-25.49"/>
</g>
<!-- Node31 -->
<g id="node31" class="node">
<title>Node31</title>
<g id="a_node31"><a xlink:title=" ">
<polygon fill="white" stroke="#bfbfbf" points="580.39,-0.5 580.39,-19.5 644.39,-19.5 644.39,-0.5 580.39,-0.5"/>
<text text-anchor="middle" x="612.39" y="-7.5" font-family="Helvetica,sans-Serif" font-size="10.00">algorithm</text>
</a>
</g>
</g>
<!-- Node30&#45;&gt;Node31 -->
<g id="edge35" class="edge">
<title>Node30&#45;&gt;Node31</title>
<path fill="none" stroke="midnightblue" d="M602.97,-61.98C604.52,-53.58 606.94,-40.48 608.94,-29.66"/>
<polygon fill="midnightblue" stroke="midnightblue" points="612.44,-29.98 610.82,-19.51 605.56,-28.71 612.44,-29.98"/>
</g>
<!-- Node32 -->
<g id="node32" class="node">
<title>Node32</title>
<g id="a_node32"><a xlink:title=" ">
<polygon fill="white" stroke="#bfbfbf" points="662.89,-0.5 662.89,-19.5 711.89,-19.5 711.89,-0.5 662.89,-0.5"/>
<text text-anchor="middle" x="687.39" y="-7.5" font-family="Helvetica,sans-Serif" font-size="10.00">cctype</text>
</a>
</g>
</g>
<!-- Node30&#45;&gt;Node32 -->
<g id="edge37" class="edge">
<title>Node30&#45;&gt;Node32</title>
<path fill="none" stroke="midnightblue" d="M613.71,-61.98C627.51,-52.43 650.09,-36.81 666.62,-25.37"/>
<polygon fill="midnightblue" stroke="midnightblue" points="668.86,-28.08 675.09,-19.51 664.88,-22.32 668.86,-28.08"/>
</g>
<!-- Node30&#45;&gt;Node33 -->
<g id="edge38" class="edge">
<title>Node30&#45;&gt;Node33</title>
<path fill="none" stroke="midnightblue" d="M579.47,-61.98C553.34,-51.81 509.48,-34.76 479.76,-23.2"/>
<polygon fill="midnightblue" stroke="midnightblue" points="480.86,-19.87 470.27,-19.51 478.32,-26.4 480.86,-19.87"/>
</g>
<!-- Node34 -->
<g id="node34" class="node">
<title>Node34</title>
<g id="a_node34"><a xlink:title=" ">
<polygon fill="white" stroke="#bfbfbf" points="488.89,-0.5 488.89,-19.5 561.89,-19.5 561.89,-0.5 488.89,-0.5"/>
<text text-anchor="middle" x="525.39" y="-7.5" font-family="Helvetica,sans-Serif" font-size="10.00">string_view</text>
</a>
</g>
</g>
<!-- Node30&#45;&gt;Node34 -->
<g id="edge39" class="edge">
<title>Node30&#45;&gt;Node34</title>
<path fill="none" stroke="midnightblue" d="M590.5,-61.98C578.42,-52.52 558.72,-37.1 544.15,-25.69"/>
<polygon fill="midnightblue" stroke="midnightblue" points="546.29,-22.92 536.26,-19.51 541.98,-28.43 546.29,-22.92"/>
</g>
<!-- Node35&#45;&gt;Node17 -->
<g id="edge52" class="edge">
<title>Node35&#45;&gt;Node17</title>
<path fill="none" stroke="midnightblue" d="M716.21,-129.23C674.22,-124.82 602.73,-113.78 547.39,-87 527.77,-77.51 528.5,-66.49 509.39,-56 480.56,-40.18 445.22,-28.69 417.79,-21.29"/>
<polygon fill="midnightblue" stroke="midnightblue" points="418.63,-17.89 408.07,-18.74 416.86,-24.66 418.63,-17.89"/>
</g>
<!-- Node35&#45;&gt;Node27 -->
<g id="edge53" class="edge">
<title>Node35&#45;&gt;Node27</title>
<path fill="none" stroke="midnightblue" d="M744.83,-123.24C734.46,-108.22 716.87,-77.14 731.39,-56 741.16,-41.78 783.72,-27.91 814.7,-19.41"/>
<polygon fill="midnightblue" stroke="midnightblue" points="815.94,-22.7 824.69,-16.74 814.13,-15.94 815.94,-22.7"/>
</g>
<!-- Node35&#45;&gt;Node30 -->
<g id="edge43" class="edge">
<title>Node35&#45;&gt;Node30</title>
<path fill="none" stroke="midnightblue" d="M729.9,-123.48C704.28,-113.31 661.28,-96.26 632.15,-84.7"/>
<polygon fill="midnightblue" stroke="midnightblue" points="633.43,-81.44 622.84,-81.01 630.85,-87.95 633.43,-81.44"/>
</g>
<!-- Node36 -->
<g id="node36" class="node">
<title>Node36</title>
<g id="a_node36"><a xlink:href="serialized_8h.html" target="_top" xlink:title=" ">
<polygon fill="white" stroke="black" points="1193.89,-62 1193.89,-81 1266.89,-81 1266.89,-62 1193.89,-62"/>
<text text-anchor="middle" x="1230.39" y="-69" font-family="Helvetica,sans-Serif" font-size="10.00">serialized.h</text>
</a>
</g>
</g>
<!-- Node35&#45;&gt;Node36 -->
<g id="edge44" class="edge">
<title>Node35&#45;&gt;Node36</title>
<path fill="none" stroke="midnightblue" d="M786.67,-126.67C795.7,-125.39 805.4,-124.08 814.39,-123 978.88,-103.28 1023.17,-120.6 1185.39,-87 1189.26,-86.2 1193.26,-85.19 1197.22,-84.07"/>
<polygon fill="midnightblue" stroke="midnightblue" points="1198.28,-87.41 1206.83,-81.15 1196.24,-80.71 1198.28,-87.41"/>
</g>
<!-- Node38 -->
<g id="node38" class="node">
<title>Node38</title>
<g id="a_node38"><a xlink:title=" ">
<polygon fill="white" stroke="#bfbfbf" points="442.39,-62 442.39,-81 500.39,-81 500.39,-62 442.39,-62"/>
<text text-anchor="middle" x="471.39" y="-69" font-family="Helvetica,sans-Serif" font-size="10.00">memory</text>
</a>
</g>
</g>
<!-- Node35&#45;&gt;Node38 -->
<g id="edge50" class="edge">
<title>Node35&#45;&gt;Node38</title>
<path fill="none" stroke="midnightblue" d="M716.12,-126.86C669.52,-119.71 585.08,-105.54 514.39,-87 511.19,-86.16 507.88,-85.21 504.59,-84.2"/>
<polygon fill="midnightblue" stroke="midnightblue" points="505.46,-80.8 494.87,-81.07 503.32,-87.47 505.46,-80.8"/>
</g>
<!-- Node39 -->
<g id="node39" class="node">
<title>Node39</title>
<g id="a_node39"><a xlink:title=" ">
<polygon fill="white" stroke="#bfbfbf" points="740.89,-62 740.89,-81 781.89,-81 781.89,-62 740.89,-62"/>
<text text-anchor="middle" x="761.39" y="-69" font-family="Helvetica,sans-Serif" font-size="10.00">tuple</text>
</a>
</g>
</g>
<!-- Node35&#45;&gt;Node39 -->
<g id="edge51" class="edge">
<title>Node35&#45;&gt;Node39</title>
<path fill="none" stroke="midnightblue" d="M752.82,-123.48C754.23,-115.08 756.44,-101.98 758.25,-91.16"/>
<polygon fill="midnightblue" stroke="midnightblue" points="761.76,-91.45 759.96,-81.01 754.85,-90.29 761.76,-91.45"/>
</g>
<!-- Node36&#45;&gt;Node21 -->
<g id="edge46" class="edge">
<title>Node36&#45;&gt;Node21</title>
<path fill="none" stroke="midnightblue" d="M1251.31,-61.98C1276.14,-51.86 1317.73,-34.9 1346.09,-23.35"/>
<polygon fill="midnightblue" stroke="midnightblue" points="1347.57,-26.52 1355.51,-19.51 1344.93,-20.04 1347.57,-26.52"/>
</g>
<!-- Node36&#45;&gt;Node26 -->
<g id="edge45" class="edge">
<title>Node36&#45;&gt;Node26</title>
<path fill="none" stroke="midnightblue" d="M1229.53,-61.98C1228.68,-53.58 1227.36,-40.48 1226.27,-29.66"/>
<polygon fill="midnightblue" stroke="midnightblue" points="1229.73,-29.11 1225.25,-19.51 1222.77,-29.81 1229.73,-29.11"/>
</g>
<!-- Node36&#45;&gt;Node27 -->
<g id="edge49" class="edge">
<title>Node36&#45;&gt;Node27</title>
<path fill="none" stroke="midnightblue" d="M1206.32,-61.87C1199.61,-59.7 1192.28,-57.56 1185.39,-56 1075.95,-31.27 943.23,-18.45 882.14,-13.5"/>
<polygon fill="midnightblue" stroke="midnightblue" points="882.18,-9.99 871.93,-12.69 881.63,-16.97 882.18,-9.99"/>
</g>
<!-- Node36&#45;&gt;Node33 -->
<g id="edge48" class="edge">
<title>Node36&#45;&gt;Node33</title>
<path fill="none" stroke="midnightblue" d="M1207.79,-61.95C1200.72,-59.62 1192.82,-57.36 1185.39,-56 879.68,0.05 791.12,-70.6 480.79,-19.81"/>
<polygon fill="midnightblue" stroke="midnightblue" points="481.04,-16.31 470.6,-18.12 479.89,-23.21 481.04,-16.31"/>
</g>
<!-- Node36&#45;&gt;Node37 -->
<g id="edge47" class="edge">
<title>Node36&#45;&gt;Node37</title>
<path fill="none" stroke="midnightblue" d="M1240.42,-61.98C1251.44,-52.61 1269.35,-37.38 1282.73,-26.01"/>
<polygon fill="midnightblue" stroke="midnightblue" points="1285.03,-28.65 1290.38,-19.51 1280.49,-23.32 1285.03,-28.65"/>
</g>
<!-- Node43&#45;&gt;Node22 -->
<g id="edge66" class="edge">
<title>Node43&#45;&gt;Node22</title>
<path fill="none" stroke="midnightblue" d="M911.39,-235.4C911.39,-227.47 911.39,-217.46 911.39,-208.86"/>
<polygon fill="midnightblue" stroke="midnightblue" points="914.89,-208.66 911.39,-198.66 907.89,-208.66 914.89,-208.66"/>
</g>
<!-- Node44 -->
<g id="node44" class="node">
<title>Node44</title>
<g id="a_node44"><a xlink:href="lfs__interface_8h.html" target="_top" xlink:title=" ">
<polygon fill="white" stroke="black" points="416.89,-123.5 416.89,-142.5 547.89,-142.5 547.89,-123.5 416.89,-123.5"/>
<text text-anchor="middle" x="482.39" y="-130.5" font-family="Helvetica,sans-Serif" font-size="10.00">indexing/lfs_interface.h</text>
</a>
</g>
</g>
<!-- Node43&#45;&gt;Node44 -->
<g id="edge67" class="edge">
<title>Node43&#45;&gt;Node44</title>
<path fill="none" stroke="midnightblue" d="M877.21,-235.38C838.5,-219.82 773.28,-194.9 715.39,-179 660.43,-163.9 596.82,-151.98 549.97,-144.21"/>
<polygon fill="midnightblue" stroke="midnightblue" points="550.37,-140.73 539.93,-142.57 549.24,-147.64 550.37,-140.73"/>
</g>
<!-- Node44&#45;&gt;Node27 -->
<g id="edge71" class="edge">
<title>Node44&#45;&gt;Node27</title>
<path fill="none" stroke="midnightblue" d="M523.56,-123.47C559.01,-115.62 611.27,-102.8 655.39,-87 686.28,-75.94 692.02,-68.42 722.39,-56 753.33,-43.35 789.3,-30.7 814.87,-22.05"/>
<polygon fill="midnightblue" stroke="midnightblue" points="816.1,-25.33 824.46,-18.83 813.87,-18.69 816.1,-25.33"/>
</g>
<!-- Node44&#45;&gt;Node33 -->
<g id="edge70" class="edge">
<title>Node44&#45;&gt;Node33</title>
<path fill="none" stroke="midnightblue" d="M450.58,-123.38C432.45,-116.66 411.23,-105.31 400.39,-87 393.37,-75.14 394.91,-68.64 400.39,-56 405.66,-43.84 416.01,-33.46 425.76,-25.74"/>
<polygon fill="midnightblue" stroke="midnightblue" points="428.04,-28.41 434.02,-19.67 423.89,-22.77 428.04,-28.41"/>
</g>
<!-- Node44&#45;&gt;Node38 -->
<g id="edge69" class="edge">
<title>Node44&#45;&gt;Node38</title>
<path fill="none" stroke="midnightblue" d="M480.82,-123.48C479.26,-115.08 476.84,-101.98 474.84,-91.16"/>
<polygon fill="midnightblue" stroke="midnightblue" points="478.22,-90.21 472.96,-81.01 471.34,-91.48 478.22,-90.21"/>
</g>
<!-- Node45 -->
<g id="node45" class="node">
<title>Node45</title>
<g id="a_node45"><a xlink:href="node__subsystem__interface_8h.html" target="_top" xlink:title=" ">
<polygon fill="white" stroke="black" points="232.39,-56.5 232.39,-86.5 348.39,-86.5 348.39,-56.5 232.39,-56.5"/>
<text text-anchor="start" x="240.39" y="-74.5" font-family="Helvetica,sans-Serif" font-size="10.00">ccf/node_subsystem</text>
<text text-anchor="middle" x="290.39" y="-63.5" font-family="Helvetica,sans-Serif" font-size="10.00">_interface.h</text>
</a>
</g>
</g>
<!-- Node44&#45;&gt;Node45 -->
<g id="edge68" class="edge">
<title>Node44&#45;&gt;Node45</title>
<path fill="none" stroke="midnightblue" d="M454.88,-123.48C426.45,-114.66 381.29,-100.67 345.47,-89.57"/>
<polygon fill="midnightblue" stroke="midnightblue" points="346.23,-86.14 335.64,-86.52 344.16,-92.83 346.23,-86.14"/>
</g>
</g>
</svg>
