<?xml version="1.0" encoding="UTF-8" standalone="no"?>
<!DOCTYPE svg PUBLIC "-//W3C//DTD SVG 1.1//EN"
 "http://www.w3.org/Graphics/SVG/1.1/DTD/svg11.dtd">
<!-- Generated by graphviz version 2.43.0 (0)
 -->
<!-- Title: src/host/load_monitor.h Pages: 1 -->
<svg width="1817pt" height="364pt"
 viewBox="0.00 0.00 1817.13 364.00" xmlns="http://www.w3.org/2000/svg" xmlns:xlink="http://www.w3.org/1999/xlink">
<g id="graph0" class="graph" transform="scale(1 1) rotate(0) translate(4 360)">
<title>src/host/load_monitor.h</title>
<polygon fill="white" stroke="transparent" points="-4,4 -4,-360 1813.13,-360 1813.13,4 -4,4"/>
<!-- Node1 -->
<g id="node1" class="node">
<title>Node1</title>
<g id="a_node1"><a xlink:title=" ">
<polygon fill="#bfbfbf" stroke="black" points="440.5,-336.5 440.5,-355.5 571.5,-355.5 571.5,-336.5 440.5,-336.5"/>
<text text-anchor="middle" x="506" y="-343.5" font-family="Helvetica,sans-Serif" font-size="10.00">src/host/load_monitor.h</text>
</a>
</g>
</g>
<!-- Node2 -->
<g id="node2" class="node">
<title>Node2</title>
<g id="a_node2"><a xlink:href="messaging_8h.html" target="_top" xlink:title=" ">
<polygon fill="white" stroke="black" points="872.5,-280.5 872.5,-299.5 965.5,-299.5 965.5,-280.5 872.5,-280.5"/>
<text text-anchor="middle" x="919" y="-287.5" font-family="Helvetica,sans-Serif" font-size="10.00">ds/messaging.h</text>
</a>
</g>
</g>
<!-- Node1&#45;&gt;Node2 -->
<g id="edge1" class="edge">
<title>Node1&#45;&gt;Node2</title>
<path fill="none" stroke="midnightblue" d="M571.44,-336.44C651.6,-325.96 786.08,-308.38 862.12,-298.44"/>
<polygon fill="midnightblue" stroke="midnightblue" points="862.99,-301.85 872.45,-297.09 862.08,-294.91 862.99,-301.85"/>
</g>
<!-- Node43 -->
<g id="node43" class="node">
<title>Node43</title>
<g id="a_node43"><a xlink:href="timer_8h.html" target="_top" xlink:title=" ">
<polygon fill="white" stroke="black" points="68.5,-280.5 68.5,-299.5 119.5,-299.5 119.5,-280.5 68.5,-280.5"/>
<text text-anchor="middle" x="94" y="-287.5" font-family="Helvetica,sans-Serif" font-size="10.00">timer.h</text>
</a>
</g>
</g>
<!-- Node1&#45;&gt;Node43 -->
<g id="edge65" class="edge">
<title>Node1&#45;&gt;Node43</title>
<path fill="none" stroke="midnightblue" d="M440.72,-336.44C352.66,-324.9 198.9,-304.75 129.63,-295.67"/>
<polygon fill="midnightblue" stroke="midnightblue" points="130.02,-292.19 119.65,-294.36 129.11,-299.13 130.02,-292.19"/>
</g>
<!-- Node3 -->
<g id="node3" class="node">
<title>Node3</title>
<g id="a_node3"><a xlink:href="logger_8h.html" target="_top" xlink:title=" ">
<polygon fill="white" stroke="black" points="549.5,-224.5 549.5,-243.5 636.5,-243.5 636.5,-224.5 549.5,-224.5"/>
<text text-anchor="middle" x="593" y="-231.5" font-family="Helvetica,sans-Serif" font-size="10.00">ccf/ds/logger.h</text>
</a>
</g>
</g>
<!-- Node2&#45;&gt;Node3 -->
<g id="edge2" class="edge">
<title>Node2&#45;&gt;Node3</title>
<path fill="none" stroke="midnightblue" d="M872.29,-281.26C812.67,-271.39 709.73,-254.34 646.87,-243.92"/>
<polygon fill="midnightblue" stroke="midnightblue" points="647.19,-240.43 636.75,-242.25 646.05,-247.33 647.19,-240.43"/>
</g>
<!-- Node10 -->
<g id="node10" class="node">
<title>Node10</title>
<g id="a_node10"><a xlink:title=" ">
<polygon fill="white" stroke="#bfbfbf" points="138,-112.5 138,-131.5 176,-131.5 176,-112.5 138,-112.5"/>
<text text-anchor="middle" x="157" y="-119.5" font-family="Helvetica,sans-Serif" font-size="10.00">map</text>
</a>
</g>
</g>
<!-- Node2&#45;&gt;Node10 -->
<g id="edge63" class="edge">
<title>Node2&#45;&gt;Node10</title>
<path fill="none" stroke="midnightblue" d="M872.46,-289.77C724.19,-291.21 266.75,-287.35 167,-188 155.01,-176.06 153.55,-156.16 154.45,-141.51"/>
<polygon fill="midnightblue" stroke="midnightblue" points="157.93,-141.86 155.46,-131.56 150.97,-141.16 157.93,-141.86"/>
</g>
<!-- Node18 -->
<g id="node18" class="node">
<title>Node18</title>
<g id="a_node18"><a xlink:href="ring__buffer_8h.html" target="_top" xlink:title=" ">
<polygon fill="white" stroke="black" points="1035.5,-224.5 1035.5,-243.5 1112.5,-243.5 1112.5,-224.5 1035.5,-224.5"/>
<text text-anchor="middle" x="1074" y="-231.5" font-family="Helvetica,sans-Serif" font-size="10.00">ring_buffer.h</text>
</a>
</g>
</g>
<!-- Node2&#45;&gt;Node18 -->
<g id="edge19" class="edge">
<title>Node2&#45;&gt;Node18</title>
<path fill="none" stroke="midnightblue" d="M943.56,-280.44C969.52,-271.4 1010.67,-257.06 1039.8,-246.92"/>
<polygon fill="midnightblue" stroke="midnightblue" points="1041.26,-250.11 1049.55,-243.52 1038.96,-243.5 1041.26,-250.11"/>
</g>
<!-- Node37 -->
<g id="node37" class="node">
<title>Node37</title>
<g id="a_node37"><a xlink:title=" ">
<polygon fill="white" stroke="#bfbfbf" points="896.5,-0.5 896.5,-19.5 961.5,-19.5 961.5,-0.5 896.5,-0.5"/>
<text text-anchor="middle" x="929" y="-7.5" font-family="Helvetica,sans-Serif" font-size="10.00">stdexcept</text>
</a>
</g>
</g>
<!-- Node2&#45;&gt;Node37 -->
<g id="edge64" class="edge">
<title>Node2&#45;&gt;Node37</title>
<path fill="none" stroke="midnightblue" d="M918.79,-280.15C918.23,-254.27 916.95,-176.46 920,-112 921.36,-83.2 924.66,-49.92 926.87,-29.67"/>
<polygon fill="midnightblue" stroke="midnightblue" points="930.36,-29.96 927.99,-19.63 923.4,-29.18 930.36,-29.96"/>
</g>
<!-- Node40 -->
<g id="node40" class="node">
<title>Node40</title>
<g id="a_node40"><a xlink:title=" ">
<polygon fill="white" stroke="#bfbfbf" points="929,-112.5 929,-131.5 979,-131.5 979,-112.5 929,-112.5"/>
<text text-anchor="middle" x="954" y="-119.5" font-family="Helvetica,sans-Serif" font-size="10.00">atomic</text>
</a>
</g>
</g>
<!-- Node2&#45;&gt;Node40 -->
<g id="edge61" class="edge">
<title>Node2&#45;&gt;Node40</title>
<path fill="none" stroke="midnightblue" d="M922.02,-280.47C925.11,-271.48 929.89,-256.88 933,-244 941.64,-208.2 948.18,-165.62 951.52,-141.71"/>
<polygon fill="midnightblue" stroke="midnightblue" points="955.02,-141.97 952.9,-131.59 948.08,-141.02 955.02,-141.97"/>
</g>
<!-- Node42 -->
<g id="node42" class="node">
<title>Node42</title>
<g id="a_node42"><a xlink:title=" ">
<polygon fill="white" stroke="#bfbfbf" points="1130.5,-224.5 1130.5,-243.5 1237.5,-243.5 1237.5,-224.5 1130.5,-224.5"/>
<text text-anchor="middle" x="1184" y="-231.5" font-family="Helvetica,sans-Serif" font-size="10.00">condition_variable</text>
</a>
</g>
</g>
<!-- Node2&#45;&gt;Node42 -->
<g id="edge62" class="edge">
<title>Node2&#45;&gt;Node42</title>
<path fill="none" stroke="midnightblue" d="M960.99,-280.44C1007.41,-270.98 1082.23,-255.74 1132.24,-245.55"/>
<polygon fill="midnightblue" stroke="midnightblue" points="1133.11,-248.94 1142.21,-243.52 1131.71,-242.08 1133.11,-248.94"/>
</g>
<!-- Node4 -->
<g id="node4" class="node">
<title>Node4</title>
<g id="a_node4"><a xlink:href="enum__formatter_8h.html" target="_top" xlink:title=" ">
<polygon fill="white" stroke="black" points="477,-168.5 477,-187.5 613,-187.5 613,-168.5 477,-168.5"/>
<text text-anchor="middle" x="545" y="-175.5" font-family="Helvetica,sans-Serif" font-size="10.00">ccf/ds/enum_formatter.h</text>
</a>
</g>
</g>
<!-- Node3&#45;&gt;Node4 -->
<g id="edge3" class="edge">
<title>Node3&#45;&gt;Node4</title>
<path fill="none" stroke="midnightblue" d="M585.07,-224.08C578.15,-216.3 567.93,-204.8 559.55,-195.37"/>
<polygon fill="midnightblue" stroke="midnightblue" points="562.04,-192.9 552.78,-187.75 556.81,-197.55 562.04,-192.9"/>
</g>
<!-- Node5 -->
<g id="node5" class="node">
<title>Node5</title>
<g id="a_node5"><a xlink:title=" ">
<polygon fill="white" stroke="#bfbfbf" points="553.5,-112.5 553.5,-131.5 632.5,-131.5 632.5,-112.5 553.5,-112.5"/>
<text text-anchor="middle" x="593" y="-119.5" font-family="Helvetica,sans-Serif" font-size="10.00">fmt/format.h</text>
</a>
</g>
</g>
<!-- Node3&#45;&gt;Node5 -->
<g id="edge13" class="edge">
<title>Node3&#45;&gt;Node5</title>
<path fill="none" stroke="midnightblue" d="M600.67,-224.46C607.78,-215.93 617.85,-202.09 622,-188 627.05,-170.86 617.13,-152.34 607.56,-139.47"/>
<polygon fill="midnightblue" stroke="midnightblue" points="610.17,-137.13 601.17,-131.55 604.72,-141.53 610.17,-137.13"/>
</g>
<!-- Node6 -->
<g id="node6" class="node">
<title>Node6</title>
<g id="a_node6"><a xlink:href="thread__ids_8h.html" target="_top" xlink:title=" ">
<polygon fill="white" stroke="black" points="176,-168.5 176,-187.5 284,-187.5 284,-168.5 176,-168.5"/>
<text text-anchor="middle" x="230" y="-175.5" font-family="Helvetica,sans-Serif" font-size="10.00">ccf/ds/thread_ids.h</text>
</a>
</g>
</g>
<!-- Node3&#45;&gt;Node6 -->
<g id="edge5" class="edge">
<title>Node3&#45;&gt;Node6</title>
<path fill="none" stroke="midnightblue" d="M549.21,-226.49C485.73,-217.04 367.71,-199.49 294.33,-188.57"/>
<polygon fill="midnightblue" stroke="midnightblue" points="294.69,-185.08 284.28,-187.08 293.66,-192.01 294.69,-185.08"/>
</g>
<!-- Node12 -->
<g id="node12" class="node">
<title>Node12</title>
<g id="a_node12"><a xlink:title=" ">
<polygon fill="white" stroke="#bfbfbf" points="302.5,-168.5 302.5,-187.5 381.5,-187.5 381.5,-168.5 302.5,-168.5"/>
<text text-anchor="middle" x="342" y="-175.5" font-family="Helvetica,sans-Serif" font-size="10.00">fmt/chrono.h</text>
</a>
</g>
</g>
<!-- Node3&#45;&gt;Node12 -->
<g id="edge12" class="edge">
<title>Node3&#45;&gt;Node12</title>
<path fill="none" stroke="midnightblue" d="M553.23,-224.44C509.44,-215.02 438.99,-199.87 391.62,-189.68"/>
<polygon fill="midnightblue" stroke="midnightblue" points="392.1,-186.2 381.59,-187.52 390.63,-193.04 392.1,-186.2"/>
</g>
<!-- Node13 -->
<g id="node13" class="node">
<title>Node13</title>
<g id="a_node13"><a xlink:title=" ">
<polygon fill="white" stroke="#bfbfbf" points="399,-168.5 399,-187.5 459,-187.5 459,-168.5 399,-168.5"/>
<text text-anchor="middle" x="429" y="-175.5" font-family="Helvetica,sans-Serif" font-size="10.00">iostream</text>
</a>
</g>
</g>
<!-- Node3&#45;&gt;Node13 -->
<g id="edge14" class="edge">
<title>Node3&#45;&gt;Node13</title>
<path fill="none" stroke="midnightblue" d="M567.01,-224.44C539.3,-215.32 495.25,-200.81 464.38,-190.65"/>
<polygon fill="midnightblue" stroke="midnightblue" points="465.46,-187.32 454.86,-187.52 463.27,-193.97 465.46,-187.32"/>
</g>
<!-- Node14 -->
<g id="node14" class="node">
<title>Node14</title>
<g id="a_node14"><a xlink:title=" ">
<polygon fill="white" stroke="#bfbfbf" points="669,-168.5 669,-187.5 779,-187.5 779,-168.5 669,-168.5"/>
<text text-anchor="middle" x="724" y="-175.5" font-family="Helvetica,sans-Serif" font-size="10.00">nlohmann/json.hpp</text>
</a>
</g>
</g>
<!-- Node3&#45;&gt;Node14 -->
<g id="edge15" class="edge">
<title>Node3&#45;&gt;Node14</title>
<path fill="none" stroke="midnightblue" d="M613.76,-224.44C635.32,-215.56 669.26,-201.56 693.79,-191.45"/>
<polygon fill="midnightblue" stroke="midnightblue" points="695.43,-194.56 703.34,-187.52 692.76,-188.09 695.43,-194.56"/>
</g>
<!-- Node15 -->
<g id="node15" class="node">
<title>Node15</title>
<g id="a_node15"><a xlink:title=" ">
<polygon fill="white" stroke="#bfbfbf" points="817,-112.5 817,-131.5 873,-131.5 873,-112.5 817,-112.5"/>
<text text-anchor="middle" x="845" y="-119.5" font-family="Helvetica,sans-Serif" font-size="10.00">optional</text>
</a>
</g>
</g>
<!-- Node3&#45;&gt;Node15 -->
<g id="edge16" class="edge">
<title>Node3&#45;&gt;Node15</title>
<path fill="none" stroke="midnightblue" d="M636.51,-232.27C705.13,-230.09 833.62,-221.52 862,-188 873.38,-174.56 865.43,-154.38 856.99,-140.07"/>
<polygon fill="midnightblue" stroke="midnightblue" points="859.92,-138.16 851.57,-131.65 854.04,-141.95 859.92,-138.16"/>
</g>
<!-- Node16 -->
<g id="node16" class="node">
<title>Node16</title>
<g id="a_node16"><a xlink:title=" ">
<polygon fill="white" stroke="#bfbfbf" points="797,-168.5 797,-187.5 853,-187.5 853,-168.5 797,-168.5"/>
<text text-anchor="middle" x="825" y="-175.5" font-family="Helvetica,sans-Serif" font-size="10.00">sstream</text>
</a>
</g>
</g>
<!-- Node3&#45;&gt;Node16 -->
<g id="edge17" class="edge">
<title>Node3&#45;&gt;Node16</title>
<path fill="none" stroke="midnightblue" d="M630.78,-224.42C668.01,-215.93 726.79,-202.46 786.71,-188.29"/>
<polygon fill="midnightblue" stroke="midnightblue" points="787.8,-191.62 796.73,-185.91 786.19,-184.81 787.8,-191.62"/>
</g>
<!-- Node17 -->
<g id="node17" class="node">
<title>Node17</title>
<g id="a_node17"><a xlink:title=" ">
<polygon fill="white" stroke="#bfbfbf" points="718.5,-0.5 718.5,-19.5 787.5,-19.5 787.5,-0.5 718.5,-0.5"/>
<text text-anchor="middle" x="753" y="-7.5" font-family="Helvetica,sans-Serif" font-size="10.00">type_traits</text>
</a>
</g>
</g>
<!-- Node3&#45;&gt;Node17 -->
<g id="edge18" class="edge">
<title>Node3&#45;&gt;Node17</title>
<path fill="none" stroke="midnightblue" d="M549.21,-232.96C453.8,-232.16 230.63,-226.14 167,-188 134.61,-168.59 104.7,-140.91 129,-112 203.43,-23.46 578.36,-12.25 708.46,-11.05"/>
<polygon fill="midnightblue" stroke="midnightblue" points="708.5,-14.55 718.48,-10.98 708.45,-7.55 708.5,-14.55"/>
</g>
<!-- Node4&#45;&gt;Node5 -->
<g id="edge4" class="edge">
<title>Node4&#45;&gt;Node5</title>
<path fill="none" stroke="midnightblue" d="M552.93,-168.08C559.85,-160.3 570.07,-148.8 578.45,-139.37"/>
<polygon fill="midnightblue" stroke="midnightblue" points="581.19,-141.55 585.22,-131.75 575.96,-136.9 581.19,-141.55"/>
</g>
<!-- Node6&#45;&gt;Node5 -->
<g id="edge6" class="edge">
<title>Node6&#45;&gt;Node5</title>
<path fill="none" stroke="midnightblue" d="M284.34,-168.92C354.52,-158.48 475.64,-140.46 543.42,-130.38"/>
<polygon fill="midnightblue" stroke="midnightblue" points="544.04,-133.82 553.42,-128.89 543.01,-126.9 544.04,-133.82"/>
</g>
<!-- Node7 -->
<g id="node7" class="node">
<title>Node7</title>
<g id="a_node7"><a xlink:title=" ">
<polygon fill="white" stroke="#bfbfbf" points="340,-112.5 340,-131.5 426,-131.5 426,-112.5 340,-112.5"/>
<text text-anchor="middle" x="383" y="-119.5" font-family="Helvetica,sans-Serif" font-size="10.00">fmt/ostream.h</text>
</a>
</g>
</g>
<!-- Node6&#45;&gt;Node7 -->
<g id="edge7" class="edge">
<title>Node6&#45;&gt;Node7</title>
<path fill="none" stroke="midnightblue" d="M254.24,-168.44C279.87,-159.4 320.49,-145.06 349.24,-134.92"/>
<polygon fill="midnightblue" stroke="midnightblue" points="350.61,-138.15 358.87,-131.52 348.28,-131.54 350.61,-138.15"/>
</g>
<!-- Node8 -->
<g id="node8" class="node">
<title>Node8</title>
<g id="a_node8"><a xlink:title=" ">
<polygon fill="white" stroke="#bfbfbf" points="194.5,-112.5 194.5,-131.5 255.5,-131.5 255.5,-112.5 194.5,-112.5"/>
<text text-anchor="middle" x="225" y="-119.5" font-family="Helvetica,sans-Serif" font-size="10.00">fmt/std.h</text>
</a>
</g>
</g>
<!-- Node6&#45;&gt;Node8 -->
<g id="edge8" class="edge">
<title>Node6&#45;&gt;Node8</title>
<path fill="none" stroke="midnightblue" d="M229.17,-168.08C228.52,-161.01 227.58,-150.86 226.76,-141.99"/>
<polygon fill="midnightblue" stroke="midnightblue" points="230.22,-141.39 225.81,-131.75 223.25,-142.03 230.22,-141.39"/>
</g>
<!-- Node9 -->
<g id="node9" class="node">
<title>Node9</title>
<g id="a_node9"><a xlink:title=" ">
<polygon fill="white" stroke="#bfbfbf" points="1035,-112.5 1035,-131.5 1079,-131.5 1079,-112.5 1035,-112.5"/>
<text text-anchor="middle" x="1057" y="-119.5" font-family="Helvetica,sans-Serif" font-size="10.00">limits</text>
</a>
</g>
</g>
<!-- Node6&#45;&gt;Node9 -->
<g id="edge9" class="edge">
<title>Node6&#45;&gt;Node9</title>
<path fill="none" stroke="midnightblue" d="M284.08,-169.05C287.43,-168.67 290.76,-168.31 294,-168 601.44,-138.47 680.41,-160 988,-132 1000.07,-130.9 1013.27,-129.28 1024.87,-127.72"/>
<polygon fill="midnightblue" stroke="midnightblue" points="1025.56,-131.16 1034.99,-126.32 1024.6,-124.22 1025.56,-131.16"/>
</g>
<!-- Node6&#45;&gt;Node10 -->
<g id="edge10" class="edge">
<title>Node6&#45;&gt;Node10</title>
<path fill="none" stroke="midnightblue" d="M218.27,-168.32C207.16,-160.11 190.26,-147.6 177.02,-137.81"/>
<polygon fill="midnightblue" stroke="midnightblue" points="179.06,-134.97 168.94,-131.83 174.9,-140.59 179.06,-134.97"/>
</g>
<!-- Node11 -->
<g id="node11" class="node">
<title>Node11</title>
<g id="a_node11"><a xlink:title=" ">
<polygon fill="white" stroke="#bfbfbf" points="274,-112.5 274,-131.5 322,-131.5 322,-112.5 274,-112.5"/>
<text text-anchor="middle" x="298" y="-119.5" font-family="Helvetica,sans-Serif" font-size="10.00">thread</text>
</a>
</g>
</g>
<!-- Node6&#45;&gt;Node11 -->
<g id="edge11" class="edge">
<title>Node6&#45;&gt;Node11</title>
<path fill="none" stroke="midnightblue" d="M240.93,-168.32C251.17,-160.18 266.72,-147.84 279,-138.09"/>
<polygon fill="midnightblue" stroke="midnightblue" points="281.22,-140.79 286.88,-131.83 276.87,-135.31 281.22,-140.79"/>
</g>
<!-- Node19 -->
<g id="node19" class="node">
<title>Node19</title>
<g id="a_node19"><a xlink:href="mem_8h.html" target="_top" xlink:title=" ">
<polygon fill="white" stroke="black" points="1414,-168.5 1414,-187.5 1500,-187.5 1500,-168.5 1414,-168.5"/>
<text text-anchor="middle" x="1457" y="-175.5" font-family="Helvetica,sans-Serif" font-size="10.00">ccf/pal/mem.h</text>
</a>
</g>
</g>
<!-- Node18&#45;&gt;Node19 -->
<g id="edge20" class="edge">
<title>Node18&#45;&gt;Node19</title>
<path fill="none" stroke="midnightblue" d="M1112.74,-225.56C1115.87,-225.01 1118.99,-224.48 1122,-224 1221.13,-208.06 1337.39,-193.33 1403.61,-185.31"/>
<polygon fill="midnightblue" stroke="midnightblue" points="1404.29,-188.75 1413.8,-184.08 1403.45,-181.8 1404.29,-188.75"/>
</g>
<!-- Node21 -->
<g id="node21" class="node">
<title>Node21</title>
<g id="a_node21"><a xlink:title=" ">
<polygon fill="white" stroke="#bfbfbf" points="1720,-0.5 1720,-19.5 1770,-19.5 1770,-0.5 1720,-0.5"/>
<text text-anchor="middle" x="1745" y="-7.5" font-family="Helvetica,sans-Serif" font-size="10.00">cstring</text>
</a>
</g>
</g>
<!-- Node18&#45;&gt;Node21 -->
<g id="edge59" class="edge">
<title>Node18&#45;&gt;Node21</title>
<path fill="none" stroke="midnightblue" d="M1112.72,-225.42C1115.86,-224.91 1118.98,-224.42 1122,-224 1272.58,-202.93 1703.18,-249.23 1800,-132 1826.92,-99.41 1787.15,-51.51 1762.35,-26.89"/>
<polygon fill="midnightblue" stroke="midnightblue" points="1764.57,-24.17 1754.93,-19.77 1759.72,-29.22 1764.57,-24.17"/>
</g>
<!-- Node22 -->
<g id="node22" class="node">
<title>Node22</title>
<g id="a_node22"><a xlink:href="ring__buffer__types_8h.html" target="_top" xlink:title=" ">
<polygon fill="white" stroke="black" points="1074,-168.5 1074,-187.5 1184,-187.5 1184,-168.5 1074,-168.5"/>
<text text-anchor="middle" x="1129" y="-175.5" font-family="Helvetica,sans-Serif" font-size="10.00">ring_buffer_types.h</text>
</a>
</g>
</g>
<!-- Node18&#45;&gt;Node22 -->
<g id="edge24" class="edge">
<title>Node18&#45;&gt;Node22</title>
<path fill="none" stroke="midnightblue" d="M1083.08,-224.08C1091.17,-216.14 1103.2,-204.34 1112.91,-194.8"/>
<polygon fill="midnightblue" stroke="midnightblue" points="1115.4,-197.25 1120.09,-187.75 1110.5,-192.26 1115.4,-197.25"/>
</g>
<!-- Node41 -->
<g id="node41" class="node">
<title>Node41</title>
<g id="a_node41"><a xlink:title=" ">
<polygon fill="white" stroke="#bfbfbf" points="990.5,-168.5 990.5,-187.5 1055.5,-187.5 1055.5,-168.5 990.5,-168.5"/>
<text text-anchor="middle" x="1023" y="-175.5" font-family="Helvetica,sans-Serif" font-size="10.00">functional</text>
</a>
</g>
</g>
<!-- Node18&#45;&gt;Node41 -->
<g id="edge60" class="edge">
<title>Node18&#45;&gt;Node41</title>
<path fill="none" stroke="midnightblue" d="M1065.58,-224.08C1058.15,-216.22 1047.15,-204.57 1038.19,-195.08"/>
<polygon fill="midnightblue" stroke="midnightblue" points="1040.68,-192.62 1031.26,-187.75 1035.59,-197.42 1040.68,-192.62"/>
</g>
<!-- Node19&#45;&gt;Node9 -->
<g id="edge23" class="edge">
<title>Node19&#45;&gt;Node9</title>
<path fill="none" stroke="midnightblue" d="M1413.74,-174C1346.27,-168.82 1211.82,-156.52 1089.18,-131.95"/>
<polygon fill="midnightblue" stroke="midnightblue" points="1089.74,-128.49 1079.24,-129.92 1088.34,-135.35 1089.74,-128.49"/>
</g>
<!-- Node20 -->
<g id="node20" class="node">
<title>Node20</title>
<g id="a_node20"><a xlink:title=" ">
<polygon fill="white" stroke="#bfbfbf" points="1737.5,-112.5 1737.5,-131.5 1790.5,-131.5 1790.5,-112.5 1737.5,-112.5"/>
<text text-anchor="middle" x="1764" y="-119.5" font-family="Helvetica,sans-Serif" font-size="10.00">stdlib.h</text>
</a>
</g>
</g>
<!-- Node19&#45;&gt;Node20 -->
<g id="edge21" class="edge">
<title>Node19&#45;&gt;Node20</title>
<path fill="none" stroke="midnightblue" d="M1500.43,-170.32C1553.18,-162.04 1644.84,-147.18 1723,-132 1724.29,-131.75 1725.6,-131.49 1726.92,-131.22"/>
<polygon fill="midnightblue" stroke="midnightblue" points="1728.06,-134.56 1737.13,-129.09 1726.63,-127.71 1728.06,-134.56"/>
</g>
<!-- Node19&#45;&gt;Node21 -->
<g id="edge22" class="edge">
<title>Node19&#45;&gt;Node21</title>
<path fill="none" stroke="midnightblue" d="M1497.08,-168.46C1549.25,-155.71 1641.04,-127.49 1703,-76 1718.3,-63.29 1729.95,-43.54 1737.06,-29.14"/>
<polygon fill="midnightblue" stroke="midnightblue" points="1740.37,-30.33 1741.41,-19.78 1734.02,-27.37 1740.37,-30.33"/>
</g>
<!-- Node22&#45;&gt;Node5 -->
<g id="edge55" class="edge">
<title>Node22&#45;&gt;Node5</title>
<path fill="none" stroke="midnightblue" d="M1073.86,-169.09C1070.87,-168.71 1067.9,-168.34 1065,-168 911.23,-149.87 728.6,-134.09 642.54,-126.99"/>
<polygon fill="midnightblue" stroke="midnightblue" points="642.79,-123.5 632.54,-126.17 642.22,-130.48 642.79,-123.5"/>
</g>
<!-- Node22&#45;&gt;Node15 -->
<g id="edge56" class="edge">
<title>Node22&#45;&gt;Node15</title>
<path fill="none" stroke="midnightblue" d="M1084,-168.44C1028.43,-157.88 934.88,-140.09 882.84,-130.19"/>
<polygon fill="midnightblue" stroke="midnightblue" points="883.48,-126.75 873,-128.32 882.17,-133.63 883.48,-126.75"/>
</g>
<!-- Node23 -->
<g id="node23" class="node">
<title>Node23</title>
<g id="a_node23"><a xlink:href="include_2ccf_2ds_2hash_8h.html" target="_top" xlink:title=" ">
<polygon fill="white" stroke="black" points="1464,-112.5 1464,-131.5 1544,-131.5 1544,-112.5 1464,-112.5"/>
<text text-anchor="middle" x="1504" y="-119.5" font-family="Helvetica,sans-Serif" font-size="10.00">ccf/ds/hash.h</text>
</a>
</g>
</g>
<!-- Node22&#45;&gt;Node23 -->
<g id="edge25" class="edge">
<title>Node22&#45;&gt;Node23</title>
<path fill="none" stroke="midnightblue" d="M1184.33,-169.03C1257.15,-158.55 1384.09,-140.27 1454.09,-130.19"/>
<polygon fill="midnightblue" stroke="midnightblue" points="1454.6,-133.65 1464,-128.76 1453.6,-126.72 1454.6,-133.65"/>
</g>
<!-- Node27 -->
<g id="node27" class="node">
<title>Node27</title>
<g id="a_node27"><a xlink:title=" ">
<polygon fill="white" stroke="#bfbfbf" points="1308.5,-0.5 1308.5,-19.5 1355.5,-19.5 1355.5,-0.5 1308.5,-0.5"/>
<text text-anchor="middle" x="1332" y="-7.5" font-family="Helvetica,sans-Serif" font-size="10.00">vector</text>
</a>
</g>
</g>
<!-- Node22&#45;&gt;Node27 -->
<g id="edge58" class="edge">
<title>Node22&#45;&gt;Node27</title>
<path fill="none" stroke="midnightblue" d="M1161.45,-168.4C1203.61,-155.52 1276.49,-127.07 1316,-76 1326.22,-62.79 1330.01,-43.92 1331.37,-29.91"/>
<polygon fill="midnightblue" stroke="midnightblue" points="1334.88,-29.72 1332.02,-19.52 1327.9,-29.28 1334.88,-29.72"/>
</g>
<!-- Node30 -->
<g id="node30" class="node">
<title>Node30</title>
<g id="a_node30"><a xlink:href="nonstd_8h.html" target="_top" xlink:title=" ">
<polygon fill="white" stroke="black" points="967,-56.5 967,-75.5 1057,-75.5 1057,-56.5 967,-56.5"/>
<text text-anchor="middle" x="1012" y="-63.5" font-family="Helvetica,sans-Serif" font-size="10.00">ccf/ds/nonstd.h</text>
</a>
</g>
</g>
<!-- Node22&#45;&gt;Node30 -->
<g id="edge34" class="edge">
<title>Node22&#45;&gt;Node30</title>
<path fill="none" stroke="midnightblue" d="M1087.56,-168.46C1066.16,-161.96 1041.38,-150.81 1026,-132 1015.39,-119.03 1012.31,-99.86 1011.63,-85.7"/>
<polygon fill="midnightblue" stroke="midnightblue" points="1015.13,-85.59 1011.51,-75.63 1008.13,-85.67 1015.13,-85.59"/>
</g>
<!-- Node33 -->
<g id="node33" class="node">
<title>Node33</title>
<g id="a_node33"><a xlink:title=" ">
<polygon fill="white" stroke="#bfbfbf" points="1190,-0.5 1190,-19.5 1234,-19.5 1234,-0.5 1190,-0.5"/>
<text text-anchor="middle" x="1212" y="-7.5" font-family="Helvetica,sans-Serif" font-size="10.00">string</text>
</a>
</g>
</g>
<!-- Node22&#45;&gt;Node33 -->
<g id="edge57" class="edge">
<title>Node22&#45;&gt;Node33</title>
<path fill="none" stroke="midnightblue" d="M1141.12,-168.33C1151.77,-160.12 1166.93,-146.85 1176,-132 1186.58,-114.67 1200.71,-59.02 1207.7,-29.61"/>
<polygon fill="midnightblue" stroke="midnightblue" points="1211.14,-30.3 1210.01,-19.76 1204.32,-28.7 1211.14,-30.3"/>
</g>
<!-- Node35 -->
<g id="node35" class="node">
<title>Node35</title>
<g id="a_node35"><a xlink:href="serializer_8h.html" target="_top" xlink:title=" ">
<polygon fill="white" stroke="black" points="1097,-112.5 1097,-131.5 1167,-131.5 1167,-112.5 1097,-112.5"/>
<text text-anchor="middle" x="1132" y="-119.5" font-family="Helvetica,sans-Serif" font-size="10.00">serializer.h</text>
</a>
</g>
</g>
<!-- Node22&#45;&gt;Node35 -->
<g id="edge42" class="edge">
<title>Node22&#45;&gt;Node35</title>
<path fill="none" stroke="midnightblue" d="M1129.5,-168.08C1129.89,-161.01 1130.45,-150.86 1130.95,-141.99"/>
<polygon fill="midnightblue" stroke="midnightblue" points="1134.45,-141.93 1131.51,-131.75 1127.46,-141.54 1134.45,-141.93"/>
</g>
<!-- Node22&#45;&gt;Node40 -->
<g id="edge54" class="edge">
<title>Node22&#45;&gt;Node40</title>
<path fill="none" stroke="midnightblue" d="M1101.27,-168.44C1070.79,-159.04 1021.77,-143.91 988.74,-133.72"/>
<polygon fill="midnightblue" stroke="midnightblue" points="989.64,-130.33 979.05,-130.73 987.57,-137.02 989.64,-130.33"/>
</g>
<!-- Node24 -->
<g id="node24" class="node">
<title>Node24</title>
<g id="a_node24"><a xlink:href="siphash_8h.html" target="_top" xlink:title=" ">
<polygon fill="white" stroke="black" points="1583.5,-56.5 1583.5,-75.5 1678.5,-75.5 1678.5,-56.5 1583.5,-56.5"/>
<text text-anchor="middle" x="1631" y="-63.5" font-family="Helvetica,sans-Serif" font-size="10.00">ccf/ds/siphash.h</text>
</a>
</g>
</g>
<!-- Node23&#45;&gt;Node24 -->
<g id="edge26" class="edge">
<title>Node23&#45;&gt;Node24</title>
<path fill="none" stroke="midnightblue" d="M1524.12,-112.44C1545.02,-103.56 1577.93,-89.56 1601.72,-79.45"/>
<polygon fill="midnightblue" stroke="midnightblue" points="1603.14,-82.65 1610.97,-75.52 1600.4,-76.21 1603.14,-82.65"/>
</g>
<!-- Node26 -->
<g id="node26" class="node">
<title>Node26</title>
<g id="a_node26"><a xlink:title=" ">
<polygon fill="white" stroke="#bfbfbf" points="1558,-0.5 1558,-19.5 1608,-19.5 1608,-0.5 1558,-0.5"/>
<text text-anchor="middle" x="1583" y="-7.5" font-family="Helvetica,sans-Serif" font-size="10.00">cstdint</text>
</a>
</g>
</g>
<!-- Node23&#45;&gt;Node26 -->
<g id="edge31" class="edge">
<title>Node23&#45;&gt;Node26</title>
<path fill="none" stroke="midnightblue" d="M1544.37,-116.88C1593.03,-110.99 1670.49,-98.31 1688,-76 1693.49,-69.01 1692.89,-63.42 1688,-56 1679.83,-43.61 1645.34,-30.33 1618.09,-21.44"/>
<polygon fill="midnightblue" stroke="midnightblue" points="1619.03,-18.06 1608.44,-18.37 1616.91,-24.73 1619.03,-18.06"/>
</g>
<!-- Node23&#45;&gt;Node27 -->
<g id="edge33" class="edge">
<title>Node23&#45;&gt;Node27</title>
<path fill="none" stroke="midnightblue" d="M1514.3,-112.35C1528.67,-99.23 1551.44,-73.95 1537,-56 1515.9,-29.77 1418.47,-17.96 1365.88,-13.42"/>
<polygon fill="midnightblue" stroke="midnightblue" points="1365.94,-9.91 1355.69,-12.58 1365.37,-16.89 1365.94,-9.91"/>
</g>
<!-- Node28 -->
<g id="node28" class="node">
<title>Node28</title>
<g id="a_node28"><a xlink:title=" ">
<polygon fill="white" stroke="#bfbfbf" points="1130,-0.5 1130,-19.5 1172,-19.5 1172,-0.5 1130,-0.5"/>
<text text-anchor="middle" x="1151" y="-7.5" font-family="Helvetica,sans-Serif" font-size="10.00">array</text>
</a>
</g>
</g>
<!-- Node23&#45;&gt;Node28 -->
<g id="edge30" class="edge">
<title>Node23&#45;&gt;Node28</title>
<path fill="none" stroke="midnightblue" d="M1463.82,-118.62C1392.38,-113.8 1246.68,-101.14 1203,-76 1183.89,-65 1169.09,-44.02 1160.25,-28.87"/>
<polygon fill="midnightblue" stroke="midnightblue" points="1163.2,-26.98 1155.31,-19.91 1157.07,-30.36 1163.2,-26.98"/>
</g>
<!-- Node29 -->
<g id="node29" class="node">
<title>Node29</title>
<g id="a_node29"><a xlink:title=" ">
<polygon fill="white" stroke="#bfbfbf" points="1378.5,-56.5 1378.5,-75.5 1527.5,-75.5 1527.5,-56.5 1378.5,-56.5"/>
<text text-anchor="middle" x="1453" y="-63.5" font-family="Helvetica,sans-Serif" font-size="10.00">small_vector/SmallVector.h</text>
</a>
</g>
</g>
<!-- Node23&#45;&gt;Node29 -->
<g id="edge32" class="edge">
<title>Node23&#45;&gt;Node29</title>
<path fill="none" stroke="midnightblue" d="M1495.58,-112.08C1488.15,-104.22 1477.15,-92.57 1468.19,-83.08"/>
<polygon fill="midnightblue" stroke="midnightblue" points="1470.68,-80.62 1461.26,-75.75 1465.59,-85.42 1470.68,-80.62"/>
</g>
<!-- Node25 -->
<g id="node25" class="node">
<title>Node25</title>
<g id="a_node25"><a xlink:title=" ">
<polygon fill="white" stroke="#bfbfbf" points="1626.5,-0.5 1626.5,-19.5 1679.5,-19.5 1679.5,-0.5 1626.5,-0.5"/>
<text text-anchor="middle" x="1653" y="-7.5" font-family="Helvetica,sans-Serif" font-size="10.00">cstddef</text>
</a>
</g>
</g>
<!-- Node24&#45;&gt;Node25 -->
<g id="edge27" class="edge">
<title>Node24&#45;&gt;Node25</title>
<path fill="none" stroke="midnightblue" d="M1634.63,-56.08C1637.61,-48.77 1641.93,-38.18 1645.62,-29.1"/>
<polygon fill="midnightblue" stroke="midnightblue" points="1648.9,-30.33 1649.43,-19.75 1642.42,-27.69 1648.9,-30.33"/>
</g>
<!-- Node24&#45;&gt;Node26 -->
<g id="edge28" class="edge">
<title>Node24&#45;&gt;Node26</title>
<path fill="none" stroke="midnightblue" d="M1623.07,-56.08C1616.15,-48.3 1605.93,-36.8 1597.55,-27.37"/>
<polygon fill="midnightblue" stroke="midnightblue" points="1600.04,-24.9 1590.78,-19.75 1594.81,-29.55 1600.04,-24.9"/>
</g>
<!-- Node24&#45;&gt;Node27 -->
<g id="edge29" class="edge">
<title>Node24&#45;&gt;Node27</title>
<path fill="none" stroke="midnightblue" d="M1583.62,-56.44C1522.8,-45.46 1418.77,-26.67 1365.54,-17.06"/>
<polygon fill="midnightblue" stroke="midnightblue" points="1366.06,-13.59 1355.6,-15.26 1364.82,-20.48 1366.06,-13.59"/>
</g>
<!-- Node30&#45;&gt;Node17 -->
<g id="edge40" class="edge">
<title>Node30&#45;&gt;Node17</title>
<path fill="none" stroke="midnightblue" d="M970.96,-56.44C923.69,-46.59 846.29,-30.45 797.57,-20.29"/>
<polygon fill="midnightblue" stroke="midnightblue" points="798.13,-16.84 787.63,-18.22 796.71,-23.69 798.13,-16.84"/>
</g>
<!-- Node30&#45;&gt;Node27 -->
<g id="edge41" class="edge">
<title>Node30&#45;&gt;Node27</title>
<path fill="none" stroke="midnightblue" d="M1057.17,-57.38C1122.04,-46.43 1240.15,-26.5 1298.1,-16.72"/>
<polygon fill="midnightblue" stroke="midnightblue" points="1298.91,-20.13 1308.19,-15.02 1297.75,-13.23 1298.91,-20.13"/>
</g>
<!-- Node30&#45;&gt;Node28 -->
<g id="edge36" class="edge">
<title>Node30&#45;&gt;Node28</title>
<path fill="none" stroke="midnightblue" d="M1034.02,-56.44C1057.38,-47.37 1094.42,-32.98 1120.56,-22.83"/>
<polygon fill="midnightblue" stroke="midnightblue" points="1121.93,-26.05 1129.99,-19.16 1119.4,-19.52 1121.93,-26.05"/>
</g>
<!-- Node31 -->
<g id="node31" class="node">
<title>Node31</title>
<g id="a_node31"><a xlink:title=" ">
<polygon fill="white" stroke="#bfbfbf" points="980,-0.5 980,-19.5 1044,-19.5 1044,-0.5 980,-0.5"/>
<text text-anchor="middle" x="1012" y="-7.5" font-family="Helvetica,sans-Serif" font-size="10.00">algorithm</text>
</a>
</g>
</g>
<!-- Node30&#45;&gt;Node31 -->
<g id="edge35" class="edge">
<title>Node30&#45;&gt;Node31</title>
<path fill="none" stroke="midnightblue" d="M1012,-56.08C1012,-49.01 1012,-38.86 1012,-29.99"/>
<polygon fill="midnightblue" stroke="midnightblue" points="1015.5,-29.75 1012,-19.75 1008.5,-29.75 1015.5,-29.75"/>
</g>
<!-- Node32 -->
<g id="node32" class="node">
<title>Node32</title>
<g id="a_node32"><a xlink:title=" ">
<polygon fill="white" stroke="#bfbfbf" points="1062.5,-0.5 1062.5,-19.5 1111.5,-19.5 1111.5,-0.5 1062.5,-0.5"/>
<text text-anchor="middle" x="1087" y="-7.5" font-family="Helvetica,sans-Serif" font-size="10.00">cctype</text>
</a>
</g>
</g>
<!-- Node30&#45;&gt;Node32 -->
<g id="edge37" class="edge">
<title>Node30&#45;&gt;Node32</title>
<path fill="none" stroke="midnightblue" d="M1024.05,-56.32C1035.46,-48.11 1052.83,-35.6 1066.43,-25.81"/>
<polygon fill="midnightblue" stroke="midnightblue" points="1068.66,-28.52 1074.73,-19.83 1064.57,-22.84 1068.66,-28.52"/>
</g>
<!-- Node30&#45;&gt;Node33 -->
<g id="edge38" class="edge">
<title>Node30&#45;&gt;Node33</title>
<path fill="none" stroke="midnightblue" d="M1045.09,-56.42C1077.2,-48.05 1127.57,-34.78 1179.88,-20.27"/>
<polygon fill="midnightblue" stroke="midnightblue" points="1180.97,-23.6 1189.67,-17.55 1179.09,-16.86 1180.97,-23.6"/>
</g>
<!-- Node34 -->
<g id="node34" class="node">
<title>Node34</title>
<g id="a_node34"><a xlink:title=" ">
<polygon fill="white" stroke="#bfbfbf" points="805.5,-0.5 805.5,-19.5 878.5,-19.5 878.5,-0.5 805.5,-0.5"/>
<text text-anchor="middle" x="842" y="-7.5" font-family="Helvetica,sans-Serif" font-size="10.00">string_view</text>
</a>
</g>
</g>
<!-- Node30&#45;&gt;Node34 -->
<g id="edge39" class="edge">
<title>Node30&#45;&gt;Node34</title>
<path fill="none" stroke="midnightblue" d="M985.06,-56.44C956.34,-47.32 910.67,-32.81 878.68,-22.65"/>
<polygon fill="midnightblue" stroke="midnightblue" points="879.4,-19.21 868.81,-19.52 877.28,-25.88 879.4,-19.21"/>
</g>
<!-- Node35&#45;&gt;Node17 -->
<g id="edge52" class="edge">
<title>Node35&#45;&gt;Node17</title>
<path fill="none" stroke="midnightblue" d="M1096.86,-112.5C1061.6,-103.84 1005.83,-89.76 958,-76 897.96,-58.73 828.83,-36.27 788.14,-22.78"/>
<polygon fill="midnightblue" stroke="midnightblue" points="789.03,-19.38 778.43,-19.55 786.82,-26.03 789.03,-19.38"/>
</g>
<!-- Node35&#45;&gt;Node27 -->
<g id="edge53" class="edge">
<title>Node35&#45;&gt;Node27</title>
<path fill="none" stroke="midnightblue" d="M1167.32,-118.82C1202.63,-115.02 1256.88,-104.59 1294,-76 1309.5,-64.06 1319.86,-43.86 1325.8,-29.15"/>
<polygon fill="midnightblue" stroke="midnightblue" points="1329.15,-30.19 1329.35,-19.59 1322.59,-27.75 1329.15,-30.19"/>
</g>
<!-- Node35&#45;&gt;Node30 -->
<g id="edge43" class="edge">
<title>Node35&#45;&gt;Node30</title>
<path fill="none" stroke="midnightblue" d="M1112.99,-112.44C1093.41,-103.64 1062.69,-89.81 1040.27,-79.72"/>
<polygon fill="midnightblue" stroke="midnightblue" points="1041.48,-76.43 1030.93,-75.52 1038.61,-82.81 1041.48,-76.43"/>
</g>
<!-- Node36 -->
<g id="node36" class="node">
<title>Node36</title>
<g id="a_node36"><a xlink:href="serialized_8h.html" target="_top" xlink:title=" ">
<polygon fill="white" stroke="black" points="1211.5,-56.5 1211.5,-75.5 1284.5,-75.5 1284.5,-56.5 1211.5,-56.5"/>
<text text-anchor="middle" x="1248" y="-63.5" font-family="Helvetica,sans-Serif" font-size="10.00">serialized.h</text>
</a>
</g>
</g>
<!-- Node35&#45;&gt;Node36 -->
<g id="edge44" class="edge">
<title>Node35&#45;&gt;Node36</title>
<path fill="none" stroke="midnightblue" d="M1150.38,-112.44C1169.22,-103.68 1198.73,-89.94 1220.38,-79.86"/>
<polygon fill="midnightblue" stroke="midnightblue" points="1222.12,-82.91 1229.71,-75.52 1219.16,-76.56 1222.12,-82.91"/>
</g>
<!-- Node38 -->
<g id="node38" class="node">
<title>Node38</title>
<g id="a_node38"><a xlink:title=" ">
<polygon fill="white" stroke="#bfbfbf" points="459,-56.5 459,-75.5 517,-75.5 517,-56.5 459,-56.5"/>
<text text-anchor="middle" x="488" y="-63.5" font-family="Helvetica,sans-Serif" font-size="10.00">memory</text>
</a>
</g>
</g>
<!-- Node35&#45;&gt;Node38 -->
<g id="edge50" class="edge">
<title>Node35&#45;&gt;Node38</title>
<path fill="none" stroke="midnightblue" d="M1096.53,-113.34C1093.65,-112.84 1090.78,-112.39 1088,-112 877.83,-82.74 623.42,-71.58 527.3,-68.22"/>
<polygon fill="midnightblue" stroke="midnightblue" points="527.29,-64.72 517.17,-67.88 527.05,-71.72 527.29,-64.72"/>
</g>
<!-- Node39 -->
<g id="node39" class="node">
<title>Node39</title>
<g id="a_node39"><a xlink:title=" ">
<polygon fill="white" stroke="#bfbfbf" points="1075.5,-56.5 1075.5,-75.5 1116.5,-75.5 1116.5,-56.5 1075.5,-56.5"/>
<text text-anchor="middle" x="1096" y="-63.5" font-family="Helvetica,sans-Serif" font-size="10.00">tuple</text>
</a>
</g>
</g>
<!-- Node35&#45;&gt;Node39 -->
<g id="edge51" class="edge">
<title>Node35&#45;&gt;Node39</title>
<path fill="none" stroke="midnightblue" d="M1126.06,-112.08C1121.02,-104.53 1113.66,-93.49 1107.49,-84.23"/>
<polygon fill="midnightblue" stroke="midnightblue" points="1110.29,-82.13 1101.83,-75.75 1104.47,-86.01 1110.29,-82.13"/>
</g>
<!-- Node36&#45;&gt;Node21 -->
<g id="edge46" class="edge">
<title>Node36&#45;&gt;Node21</title>
<path fill="none" stroke="midnightblue" d="M1284.67,-61.98C1360.39,-55.58 1539.44,-39.63 1689,-20 1695.82,-19.1 1703.09,-18.03 1710.06,-16.93"/>
<polygon fill="midnightblue" stroke="midnightblue" points="1710.64,-20.39 1719.96,-15.34 1709.53,-13.47 1710.64,-20.39"/>
</g>
<!-- Node36&#45;&gt;Node26 -->
<g id="edge45" class="edge">
<title>Node36&#45;&gt;Node26</title>
<path fill="none" stroke="midnightblue" d="M1284.81,-59.07C1349.86,-48.58 1484.26,-26.92 1548,-16.64"/>
<polygon fill="midnightblue" stroke="midnightblue" points="1548.64,-20.08 1557.96,-15.04 1547.53,-13.17 1548.64,-20.08"/>
</g>
<!-- Node36&#45;&gt;Node27 -->
<g id="edge49" class="edge">
<title>Node36&#45;&gt;Node27</title>
<path fill="none" stroke="midnightblue" d="M1261.5,-56.32C1274.6,-47.9 1294.71,-34.97 1310.11,-25.07"/>
<polygon fill="midnightblue" stroke="midnightblue" points="1312.02,-28.01 1318.54,-19.65 1308.23,-22.12 1312.02,-28.01"/>
</g>
<!-- Node36&#45;&gt;Node33 -->
<g id="edge48" class="edge">
<title>Node36&#45;&gt;Node33</title>
<path fill="none" stroke="midnightblue" d="M1242.06,-56.08C1237.02,-48.53 1229.66,-37.49 1223.49,-28.23"/>
<polygon fill="midnightblue" stroke="midnightblue" points="1226.29,-26.13 1217.83,-19.75 1220.47,-30.01 1226.29,-26.13"/>
</g>
<!-- Node36&#45;&gt;Node37 -->
<g id="edge47" class="edge">
<title>Node36&#45;&gt;Node37</title>
<path fill="none" stroke="midnightblue" d="M1211.16,-59.61C1159.85,-51.98 1063.77,-37.22 971.59,-20.03"/>
<polygon fill="midnightblue" stroke="midnightblue" points="972,-16.54 961.53,-18.14 970.71,-23.42 972,-16.54"/>
</g>
<!-- Node44 -->
<g id="node44" class="node">
<title>Node44</title>
<g id="a_node44"><a xlink:href="proxy_8h.html" target="_top" xlink:title=" ">
<polygon fill="white" stroke="black" points="68,-224.5 68,-243.5 120,-243.5 120,-224.5 68,-224.5"/>
<text text-anchor="middle" x="94" y="-231.5" font-family="Helvetica,sans-Serif" font-size="10.00">proxy.h</text>
</a>
</g>
</g>
<!-- Node43&#45;&gt;Node44 -->
<g id="edge66" class="edge">
<title>Node43&#45;&gt;Node44</title>
<path fill="none" stroke="midnightblue" d="M94,-280.08C94,-273.01 94,-262.86 94,-253.99"/>
<polygon fill="midnightblue" stroke="midnightblue" points="97.5,-253.75 94,-243.75 90.5,-253.75 97.5,-253.75"/>
</g>
<!-- Node46 -->
<g id="node46" class="node">
<title>Node46</title>
<g id="a_node46"><a xlink:title=" ">
<polygon fill="white" stroke="#bfbfbf" points="0,-224.5 0,-243.5 50,-243.5 50,-224.5 0,-224.5"/>
<text text-anchor="middle" x="25" y="-231.5" font-family="Helvetica,sans-Serif" font-size="10.00">chrono</text>
</a>
</g>
</g>
<!-- Node43&#45;&gt;Node46 -->
<g id="edge69" class="edge">
<title>Node43&#45;&gt;Node46</title>
<path fill="none" stroke="midnightblue" d="M82.91,-280.32C72.51,-272.18 56.74,-259.84 44.28,-250.09"/>
<polygon fill="midnightblue" stroke="midnightblue" points="46.32,-247.24 36.29,-243.83 42.01,-252.75 46.32,-247.24"/>
</g>
<!-- Node44&#45;&gt;Node38 -->
<g id="edge67" class="edge">
<title>Node44&#45;&gt;Node38</title>
<path fill="none" stroke="midnightblue" d="M93.56,-224.3C92.96,-201.78 94.75,-141.26 129,-112 176.35,-71.55 365.7,-66.77 448.69,-66.66"/>
<polygon fill="midnightblue" stroke="midnightblue" points="448.73,-70.16 458.73,-66.67 448.74,-63.16 448.73,-70.16"/>
</g>
<!-- Node45 -->
<g id="node45" class="node">
<title>Node45</title>
<g id="a_node45"><a xlink:title=" ">
<polygon fill="white" stroke="#bfbfbf" points="6.5,-168.5 6.5,-187.5 43.5,-187.5 43.5,-168.5 6.5,-168.5"/>
<text text-anchor="middle" x="25" y="-175.5" font-family="Helvetica,sans-Serif" font-size="10.00">uv.h</text>
</a>
</g>
</g>
<!-- Node44&#45;&gt;Node45 -->
<g id="edge68" class="edge">
<title>Node44&#45;&gt;Node45</title>
<path fill="none" stroke="midnightblue" d="M82.91,-224.32C72.51,-216.18 56.74,-203.84 44.28,-194.09"/>
<polygon fill="midnightblue" stroke="midnightblue" points="46.32,-191.24 36.29,-187.83 42.01,-196.75 46.32,-191.24"/>
</g>
</g>
</svg>
