<?xml version="1.0" encoding="UTF-8" standalone="no"?>
<!DOCTYPE svg PUBLIC "-//W3C//DTD SVG 1.1//EN"
 "http://www.w3.org/Graphics/SVG/1.1/DTD/svg11.dtd">
<!-- Generated by graphviz version 2.43.0 (0)
 -->
<!-- Title: src/ds/oversized.h Pages: 1 -->
<!--zoomable 364 -->
<svg id="main" version="1.1" xmlns="http://www.w3.org/2000/svg" xmlns:xlink="http://www.w3.org/1999/xlink" xml:space="preserve" onload="init(evt)">
<style type="text/css"><![CDATA[
.edge:hover path { stroke: red; }
.edge:hover polygon { stroke: red; fill: red; }
]]></style>
<script type="text/javascript"><![CDATA[
var edges = document.getElementsByTagName('g');
if (edges && edges.length) {
  for (var i=0;i<edges.length;i++) {
    if (edges[i].id.substr(0,4)=='edge') {
      edges[i].setAttribute('class','edge');
    }
  }
}
]]></script>
        <defs>
                <circle id="rim" cx="0" cy="0" r="7"/>
                <circle id="rim2" cx="0" cy="0" r="3.5"/>
                <g id="zoomPlus">
                        <use xlink:href="#rim" fill="#404040">
                                <set attributeName="fill" to="#808080" begin="zoomplus.mouseover" end="zoomplus.mouseout"/>
                        </use>
                        <path d="M-4,0h8M0,-4v8" fill="none" stroke="white" stroke-width="1.5" pointer-events="none"/>
                </g>
                <g id="zoomMin">
                        <use xlink:href="#rim" fill="#404040">
                                <set attributeName="fill" to="#808080" begin="zoomminus.mouseover" end="zoomminus.mouseout"/>
                        </use>
                        <path d="M-4,0h8" fill="none" stroke="white" stroke-width="1.5" pointer-events="none"/>
                </g>
                <g id="dirArrow">
                        <path fill="none" stroke="white" stroke-width="1.5" d="M0,-3.0v7 M-2.5,-0.5L0,-3.0L2.5,-0.5"/>
                </g>
               <g id="resetDef">
                       <use xlink:href="#rim2" fill="#404040">
                               <set attributeName="fill" to="#808080" begin="reset.mouseover" end="reset.mouseout"/>
                       </use>
               </g>
        </defs>

<script type="text/javascript">
var viewWidth = 1707;
var viewHeight = 364;
var sectionId = 'dynsection-0';
</script>
<script xlink:href="svgpan.js"/>
<svg id="graph" class="graph">
<g id="viewport">
<title>src/ds/oversized.h</title>
<polygon fill="white" stroke="transparent" points="-4,4 -4,-360 1703,-360 1703,4 -4,4"/>
<!-- Node1 -->
<g id="node1" class="node">
<title>Node1</title>
<g id="a_node1"><a xlink:title=" ">
<polygon fill="#bfbfbf" stroke="black" points="1135,-336.5 1135,-355.5 1239,-355.5 1239,-336.5 1135,-336.5"/>
<text text-anchor="middle" x="1187" y="-343.5" font-family="Helvetica,sans-Serif" font-size="10.00">src/ds/oversized.h</text>
</a>
</g>
</g>
<!-- Node2 -->
<g id="node2" class="node">
<title>Node2</title>
<g id="a_node2"><a xlink:href="messaging_8h.html" target="_top" xlink:title=" ">
<polygon fill="white" stroke="black" points="1147.5,-280.5 1147.5,-299.5 1226.5,-299.5 1226.5,-280.5 1147.5,-280.5"/>
<text text-anchor="middle" x="1187" y="-287.5" font-family="Helvetica,sans-Serif" font-size="10.00">messaging.h</text>
</a>
</g>
</g>
<!-- Node1&#45;&gt;Node2 -->
<g id="edge1" class="edge">
<title>Node1&#45;&gt;Node2</title>
<path fill="none" stroke="midnightblue" d="M1187,-336.08C1187,-329.01 1187,-318.86 1187,-309.99"/>
<polygon fill="midnightblue" stroke="midnightblue" points="1190.5,-309.75 1187,-299.75 1183.5,-309.75 1190.5,-309.75"/>
</g>
<!-- Node5 -->
<g id="node5" class="node">
<title>Node5</title>
<g id="a_node5"><a xlink:title=" ">
<polygon fill="white" stroke="#bfbfbf" points="1186.5,-112.5 1186.5,-131.5 1265.5,-131.5 1265.5,-112.5 1186.5,-112.5"/>
<text text-anchor="middle" x="1226" y="-119.5" font-family="Helvetica,sans-Serif" font-size="10.00">fmt/format.h</text>
</a>
</g>
</g>
<!-- Node1&#45;&gt;Node5 -->
<g id="edge67" class="edge">
<title>Node1&#45;&gt;Node5</title>
<path fill="none" stroke="midnightblue" d="M1229.45,-336.45C1296.19,-320.46 1423.65,-279.07 1478,-188 1482.55,-180.37 1483.71,-174.82 1478,-168 1452.75,-137.84 1341.91,-127.87 1275.94,-124.59"/>
<polygon fill="midnightblue" stroke="midnightblue" points="1275.9,-121.09 1265.75,-124.12 1275.58,-128.08 1275.9,-121.09"/>
</g>
<!-- Node18 -->
<g id="node18" class="node">
<title>Node18</title>
<g id="a_node18"><a xlink:href="ring__buffer_8h.html" target="_top" xlink:title=" ">
<polygon fill="white" stroke="black" points="359.5,-224.5 359.5,-243.5 436.5,-243.5 436.5,-224.5 359.5,-224.5"/>
<text text-anchor="middle" x="398" y="-231.5" font-family="Helvetica,sans-Serif" font-size="10.00">ring_buffer.h</text>
</a>
</g>
</g>
<!-- Node1&#45;&gt;Node18 -->
<g id="edge65" class="edge">
<title>Node1&#45;&gt;Node18</title>
<path fill="none" stroke="midnightblue" d="M1134.76,-344.16C977.16,-341.29 513.48,-330.34 453,-300 432.62,-289.78 416.84,-268.28 407.51,-252.81"/>
<polygon fill="midnightblue" stroke="midnightblue" points="410.31,-250.65 402.32,-243.68 404.22,-254.11 410.31,-250.65"/>
</g>
<!-- Node36 -->
<g id="node36" class="node">
<title>Node36</title>
<g id="a_node36"><a xlink:href="serialized_8h.html" target="_top" xlink:title=" ">
<polygon fill="white" stroke="black" points="447.5,-56.5 447.5,-75.5 520.5,-75.5 520.5,-56.5 447.5,-56.5"/>
<text text-anchor="middle" x="484" y="-63.5" font-family="Helvetica,sans-Serif" font-size="10.00">serialized.h</text>
</a>
</g>
</g>
<!-- Node1&#45;&gt;Node36 -->
<g id="edge66" class="edge">
<title>Node1&#45;&gt;Node36</title>
<path fill="none" stroke="midnightblue" d="M1134.93,-342.54C969.54,-334.03 467,-302.61 467,-235 467,-235 467,-235 467,-177 467,-144.58 474.3,-107.42 479.33,-85.64"/>
<polygon fill="midnightblue" stroke="midnightblue" points="482.77,-86.31 481.71,-75.77 475.97,-84.67 482.77,-86.31"/>
</g>
<!-- Node43 -->
<g id="node43" class="node">
<title>Node43</title>
<g id="a_node43"><a xlink:title=" ">
<polygon fill="white" stroke="#bfbfbf" points="1525.5,-280.5 1525.5,-299.5 1618.5,-299.5 1618.5,-280.5 1525.5,-280.5"/>
<text text-anchor="middle" x="1572" y="-287.5" font-family="Helvetica,sans-Serif" font-size="10.00">unordered_map</text>
</a>
</g>
</g>
<!-- Node1&#45;&gt;Node43 -->
<g id="edge68" class="edge">
<title>Node1&#45;&gt;Node43</title>
<path fill="none" stroke="midnightblue" d="M1239.21,-337.89C1303.26,-329.13 1415.15,-313.73 1511,-300 1512.46,-299.79 1513.93,-299.58 1515.42,-299.36"/>
<polygon fill="midnightblue" stroke="midnightblue" points="1515.99,-302.82 1525.38,-297.92 1514.98,-295.89 1515.99,-302.82"/>
</g>
<!-- Node3 -->
<g id="node3" class="node">
<title>Node3</title>
<g id="a_node3"><a xlink:href="logger_8h.html" target="_top" xlink:title=" ">
<polygon fill="white" stroke="black" points="1086.5,-224.5 1086.5,-243.5 1173.5,-243.5 1173.5,-224.5 1086.5,-224.5"/>
<text text-anchor="middle" x="1130" y="-231.5" font-family="Helvetica,sans-Serif" font-size="10.00">ccf/ds/logger.h</text>
</a>
</g>
</g>
<!-- Node2&#45;&gt;Node3 -->
<g id="edge2" class="edge">
<title>Node2&#45;&gt;Node3</title>
<path fill="none" stroke="midnightblue" d="M1177.84,-280.32C1169.5,-272.42 1156.97,-260.55 1146.82,-250.94"/>
<polygon fill="midnightblue" stroke="midnightblue" points="1148.99,-248.17 1139.32,-243.83 1144.18,-253.25 1148.99,-248.17"/>
</g>
<!-- Node10 -->
<g id="node10" class="node">
<title>Node10</title>
<g id="a_node10"><a xlink:title=" ">
<polygon fill="white" stroke="#bfbfbf" points="1633,-112.5 1633,-131.5 1671,-131.5 1671,-112.5 1633,-112.5"/>
<text text-anchor="middle" x="1652" y="-119.5" font-family="Helvetica,sans-Serif" font-size="10.00">map</text>
</a>
</g>
</g>
<!-- Node2&#45;&gt;Node10 -->
<g id="edge63" class="edge">
<title>Node2&#45;&gt;Node10</title>
<path fill="none" stroke="midnightblue" d="M1226.86,-285.81C1327.02,-276.96 1585.24,-248.62 1642,-188 1653.33,-175.9 1655.02,-156.62 1654.37,-142.19"/>
<polygon fill="midnightblue" stroke="midnightblue" points="1657.83,-141.55 1653.48,-131.89 1650.85,-142.16 1657.83,-141.55"/>
</g>
<!-- Node2&#45;&gt;Node18 -->
<g id="edge19" class="edge">
<title>Node2&#45;&gt;Node18</title>
<path fill="none" stroke="midnightblue" d="M1147.33,-286.29C1015.48,-277.26 592.04,-248.28 447.16,-238.36"/>
<polygon fill="midnightblue" stroke="midnightblue" points="447.03,-234.85 436.81,-237.66 446.55,-241.83 447.03,-234.85"/>
</g>
<!-- Node37 -->
<g id="node37" class="node">
<title>Node37</title>
<g id="a_node37"><a xlink:title=" ">
<polygon fill="white" stroke="#bfbfbf" points="688.5,-0.5 688.5,-19.5 753.5,-19.5 753.5,-0.5 688.5,-0.5"/>
<text text-anchor="middle" x="721" y="-7.5" font-family="Helvetica,sans-Serif" font-size="10.00">stdexcept</text>
</a>
</g>
</g>
<!-- Node2&#45;&gt;Node37 -->
<g id="edge64" class="edge">
<title>Node2&#45;&gt;Node37</title>
<path fill="none" stroke="midnightblue" d="M1226.75,-288.91C1347.05,-287.59 1699,-275.49 1699,-179 1699,-179 1699,-179 1699,-121 1699,-19.05 908.79,-35.5 763.93,-19.86"/>
<polygon fill="midnightblue" stroke="midnightblue" points="763.98,-16.34 753.61,-18.52 763.07,-23.28 763.98,-16.34"/>
</g>
<!-- Node40 -->
<g id="node40" class="node">
<title>Node40</title>
<g id="a_node40"><a xlink:title=" ">
<polygon fill="white" stroke="#bfbfbf" points="793,-112.5 793,-131.5 843,-131.5 843,-112.5 793,-112.5"/>
<text text-anchor="middle" x="818" y="-119.5" font-family="Helvetica,sans-Serif" font-size="10.00">atomic</text>
</a>
</g>
</g>
<!-- Node2&#45;&gt;Node40 -->
<g id="edge61" class="edge">
<title>Node2&#45;&gt;Node40</title>
<path fill="none" stroke="midnightblue" d="M1147.38,-284.39C1083.28,-275.32 955.13,-250.29 867,-188 849.56,-175.67 835.63,-155.25 827.15,-140.58"/>
<polygon fill="midnightblue" stroke="midnightblue" points="830.06,-138.6 822.17,-131.52 823.92,-141.97 830.06,-138.6"/>
</g>
<!-- Node42 -->
<g id="node42" class="node">
<title>Node42</title>
<g id="a_node42"><a xlink:title=" ">
<polygon fill="white" stroke="#bfbfbf" points="1191.5,-224.5 1191.5,-243.5 1298.5,-243.5 1298.5,-224.5 1191.5,-224.5"/>
<text text-anchor="middle" x="1245" y="-231.5" font-family="Helvetica,sans-Serif" font-size="10.00">condition_variable</text>
</a>
</g>
</g>
<!-- Node2&#45;&gt;Node42 -->
<g id="edge62" class="edge">
<title>Node2&#45;&gt;Node42</title>
<path fill="none" stroke="midnightblue" d="M1196.32,-280.32C1204.89,-272.34 1217.81,-260.31 1228.19,-250.65"/>
<polygon fill="midnightblue" stroke="midnightblue" points="1230.58,-253.21 1235.51,-243.83 1225.81,-248.09 1230.58,-253.21"/>
</g>
<!-- Node4 -->
<g id="node4" class="node">
<title>Node4</title>
<g id="a_node4"><a xlink:href="enum__formatter_8h.html" target="_top" xlink:title=" ">
<polygon fill="white" stroke="black" points="1158,-168.5 1158,-187.5 1294,-187.5 1294,-168.5 1158,-168.5"/>
<text text-anchor="middle" x="1226" y="-175.5" font-family="Helvetica,sans-Serif" font-size="10.00">ccf/ds/enum_formatter.h</text>
</a>
</g>
</g>
<!-- Node3&#45;&gt;Node4 -->
<g id="edge3" class="edge">
<title>Node3&#45;&gt;Node4</title>
<path fill="none" stroke="midnightblue" d="M1145.42,-224.32C1160.54,-215.82 1183.82,-202.73 1201.47,-192.8"/>
<polygon fill="midnightblue" stroke="midnightblue" points="1203.61,-195.61 1210.61,-187.65 1200.18,-189.51 1203.61,-195.61"/>
</g>
<!-- Node3&#45;&gt;Node5 -->
<g id="edge13" class="edge">
<title>Node3&#45;&gt;Node5</title>
<path fill="none" stroke="midnightblue" d="M1130.54,-224.07C1131.78,-210.6 1135.83,-184.86 1149,-168 1160.21,-153.65 1177.37,-142.99 1192.64,-135.66"/>
<polygon fill="midnightblue" stroke="midnightblue" points="1194.16,-138.81 1201.84,-131.52 1191.29,-132.43 1194.16,-138.81"/>
</g>
<!-- Node6 -->
<g id="node6" class="node">
<title>Node6</title>
<g id="a_node6"><a xlink:href="thread__ids_8h.html" target="_top" xlink:title=" ">
<polygon fill="white" stroke="black" points="1525,-168.5 1525,-187.5 1633,-187.5 1633,-168.5 1525,-168.5"/>
<text text-anchor="middle" x="1579" y="-175.5" font-family="Helvetica,sans-Serif" font-size="10.00">ccf/ds/thread_ids.h</text>
</a>
</g>
</g>
<!-- Node3&#45;&gt;Node6 -->
<g id="edge5" class="edge">
<title>Node3&#45;&gt;Node6</title>
<path fill="none" stroke="midnightblue" d="M1173.66,-225.25C1176.48,-224.81 1179.28,-224.39 1182,-224 1298.97,-207.26 1436.06,-192.87 1514.7,-185.12"/>
<polygon fill="midnightblue" stroke="midnightblue" points="1515.32,-188.58 1524.93,-184.12 1514.64,-181.61 1515.32,-188.58"/>
</g>
<!-- Node12 -->
<g id="node12" class="node">
<title>Node12</title>
<g id="a_node12"><a xlink:title=" ">
<polygon fill="white" stroke="#bfbfbf" points="1312.5,-168.5 1312.5,-187.5 1391.5,-187.5 1391.5,-168.5 1312.5,-168.5"/>
<text text-anchor="middle" x="1352" y="-175.5" font-family="Helvetica,sans-Serif" font-size="10.00">fmt/chrono.h</text>
</a>
</g>
</g>
<!-- Node3&#45;&gt;Node12 -->
<g id="edge12" class="edge">
<title>Node3&#45;&gt;Node12</title>
<path fill="none" stroke="midnightblue" d="M1165.18,-224.44C1203.58,-215.1 1265.18,-200.12 1307.06,-189.93"/>
<polygon fill="midnightblue" stroke="midnightblue" points="1308.1,-193.28 1316.99,-187.52 1306.44,-186.48 1308.1,-193.28"/>
</g>
<!-- Node13 -->
<g id="node13" class="node">
<title>Node13</title>
<g id="a_node13"><a xlink:title=" ">
<polygon fill="white" stroke="#bfbfbf" points="1409,-168.5 1409,-187.5 1469,-187.5 1469,-168.5 1409,-168.5"/>
<text text-anchor="middle" x="1439" y="-175.5" font-family="Helvetica,sans-Serif" font-size="10.00">iostream</text>
</a>
</g>
</g>
<!-- Node3&#45;&gt;Node13 -->
<g id="edge14" class="edge">
<title>Node3&#45;&gt;Node13</title>
<path fill="none" stroke="midnightblue" d="M1173.69,-225.41C1176.5,-224.93 1179.29,-224.46 1182,-224 1275.71,-208.15 1301.99,-207.1 1398.89,-188.12"/>
<polygon fill="midnightblue" stroke="midnightblue" points="1399.67,-191.54 1408.81,-186.17 1398.32,-184.67 1399.67,-191.54"/>
</g>
<!-- Node14 -->
<g id="node14" class="node">
<title>Node14</title>
<g id="a_node14"><a xlink:title=" ">
<polygon fill="white" stroke="#bfbfbf" points="918,-168.5 918,-187.5 1028,-187.5 1028,-168.5 918,-168.5"/>
<text text-anchor="middle" x="973" y="-175.5" font-family="Helvetica,sans-Serif" font-size="10.00">nlohmann/json.hpp</text>
</a>
</g>
</g>
<!-- Node3&#45;&gt;Node14 -->
<g id="edge15" class="edge">
<title>Node3&#45;&gt;Node14</title>
<path fill="none" stroke="midnightblue" d="M1105.12,-224.44C1078.71,-215.36 1036.78,-200.94 1007.26,-190.78"/>
<polygon fill="midnightblue" stroke="midnightblue" points="1008.36,-187.46 997.76,-187.52 1006.08,-194.08 1008.36,-187.46"/>
</g>
<!-- Node15 -->
<g id="node15" class="node">
<title>Node15</title>
<g id="a_node15"><a xlink:title=" ">
<polygon fill="white" stroke="#bfbfbf" points="861,-112.5 861,-131.5 917,-131.5 917,-112.5 861,-112.5"/>
<text text-anchor="middle" x="889" y="-119.5" font-family="Helvetica,sans-Serif" font-size="10.00">optional</text>
</a>
</g>
</g>
<!-- Node3&#45;&gt;Node15 -->
<g id="edge16" class="edge">
<title>Node3&#45;&gt;Node15</title>
<path fill="none" stroke="midnightblue" d="M1086.24,-231.77C1020.81,-228.9 902.33,-219.4 876,-188 864.95,-174.82 871.24,-154.86 878.38,-140.54"/>
<polygon fill="midnightblue" stroke="midnightblue" points="881.51,-142.13 883.27,-131.68 875.37,-138.75 881.51,-142.13"/>
</g>
<!-- Node16 -->
<g id="node16" class="node">
<title>Node16</title>
<g id="a_node16"><a xlink:title=" ">
<polygon fill="white" stroke="#bfbfbf" points="1046,-168.5 1046,-187.5 1102,-187.5 1102,-168.5 1046,-168.5"/>
<text text-anchor="middle" x="1074" y="-175.5" font-family="Helvetica,sans-Serif" font-size="10.00">sstream</text>
</a>
</g>
</g>
<!-- Node3&#45;&gt;Node16 -->
<g id="edge17" class="edge">
<title>Node3&#45;&gt;Node16</title>
<path fill="none" stroke="midnightblue" d="M1121,-224.32C1112.81,-216.42 1100.49,-204.55 1090.53,-194.94"/>
<polygon fill="midnightblue" stroke="midnightblue" points="1092.79,-192.26 1083.16,-187.83 1087.93,-197.29 1092.79,-192.26"/>
</g>
<!-- Node17 -->
<g id="node17" class="node">
<title>Node17</title>
<g id="a_node17"><a xlink:title=" ">
<polygon fill="white" stroke="#bfbfbf" points="929.5,-0.5 929.5,-19.5 998.5,-19.5 998.5,-0.5 929.5,-0.5"/>
<text text-anchor="middle" x="964" y="-7.5" font-family="Helvetica,sans-Serif" font-size="10.00">type_traits</text>
</a>
</g>
</g>
<!-- Node3&#45;&gt;Node17 -->
<g id="edge18" class="edge">
<title>Node3&#45;&gt;Node17</title>
<path fill="none" stroke="midnightblue" d="M1086.11,-230.46C1028.18,-226.08 930.92,-214.84 909,-188 892.54,-167.86 916.53,-156.22 926,-132 939.91,-96.42 952.42,-53.48 959.04,-29.51"/>
<polygon fill="midnightblue" stroke="midnightblue" points="962.48,-30.22 961.72,-19.65 955.72,-28.38 962.48,-30.22"/>
</g>
<!-- Node4&#45;&gt;Node5 -->
<g id="edge4" class="edge">
<title>Node4&#45;&gt;Node5</title>
<path fill="none" stroke="midnightblue" d="M1226,-168.08C1226,-161.01 1226,-150.86 1226,-141.99"/>
<polygon fill="midnightblue" stroke="midnightblue" points="1229.5,-141.75 1226,-131.75 1222.5,-141.75 1229.5,-141.75"/>
</g>
<!-- Node6&#45;&gt;Node5 -->
<g id="edge6" class="edge">
<title>Node6&#45;&gt;Node5</title>
<path fill="none" stroke="midnightblue" d="M1524.62,-168.68C1456.69,-158.29 1341.44,-140.66 1275.76,-130.61"/>
<polygon fill="midnightblue" stroke="midnightblue" points="1276.07,-127.12 1265.66,-129.07 1275.01,-134.04 1276.07,-127.12"/>
</g>
<!-- Node7 -->
<g id="node7" class="node">
<title>Node7</title>
<g id="a_node7"><a xlink:title=" ">
<polygon fill="white" stroke="#bfbfbf" points="1383,-112.5 1383,-131.5 1469,-131.5 1469,-112.5 1383,-112.5"/>
<text text-anchor="middle" x="1426" y="-119.5" font-family="Helvetica,sans-Serif" font-size="10.00">fmt/ostream.h</text>
</a>
</g>
</g>
<!-- Node6&#45;&gt;Node7 -->
<g id="edge7" class="edge">
<title>Node6&#45;&gt;Node7</title>
<path fill="none" stroke="midnightblue" d="M1554.76,-168.44C1529.13,-159.4 1488.51,-145.06 1459.76,-134.92"/>
<polygon fill="midnightblue" stroke="midnightblue" points="1460.72,-131.54 1450.13,-131.52 1458.39,-138.15 1460.72,-131.54"/>
</g>
<!-- Node8 -->
<g id="node8" class="node">
<title>Node8</title>
<g id="a_node8"><a xlink:title=" ">
<polygon fill="white" stroke="#bfbfbf" points="1487.5,-112.5 1487.5,-131.5 1548.5,-131.5 1548.5,-112.5 1487.5,-112.5"/>
<text text-anchor="middle" x="1518" y="-119.5" font-family="Helvetica,sans-Serif" font-size="10.00">fmt/std.h</text>
</a>
</g>
</g>
<!-- Node6&#45;&gt;Node8 -->
<g id="edge8" class="edge">
<title>Node6&#45;&gt;Node8</title>
<path fill="none" stroke="midnightblue" d="M1569.2,-168.32C1560.18,-160.34 1546.59,-148.31 1535.68,-138.65"/>
<polygon fill="midnightblue" stroke="midnightblue" points="1537.79,-135.84 1527.98,-131.83 1533.15,-141.08 1537.79,-135.84"/>
</g>
<!-- Node9 -->
<g id="node9" class="node">
<title>Node9</title>
<g id="a_node9"><a xlink:title=" ">
<polygon fill="white" stroke="#bfbfbf" points="495,-112.5 495,-131.5 539,-131.5 539,-112.5 495,-112.5"/>
<text text-anchor="middle" x="517" y="-119.5" font-family="Helvetica,sans-Serif" font-size="10.00">limits</text>
</a>
</g>
</g>
<!-- Node6&#45;&gt;Node9 -->
<g id="edge9" class="edge">
<title>Node6&#45;&gt;Node9</title>
<path fill="none" stroke="midnightblue" d="M1524.79,-171.7C1509.65,-170.35 1493.2,-169 1478,-168 1097.15,-143.06 1000.87,-156.62 620,-132 596.2,-130.46 569.37,-128.1 549.06,-126.18"/>
<polygon fill="midnightblue" stroke="midnightblue" points="549.37,-122.69 539.08,-125.22 548.7,-129.66 549.37,-122.69"/>
</g>
<!-- Node6&#45;&gt;Node10 -->
<g id="edge10" class="edge">
<title>Node6&#45;&gt;Node10</title>
<path fill="none" stroke="midnightblue" d="M1590.73,-168.32C1601.84,-160.11 1618.74,-147.6 1631.98,-137.81"/>
<polygon fill="midnightblue" stroke="midnightblue" points="1634.1,-140.59 1640.06,-131.83 1629.94,-134.97 1634.1,-140.59"/>
</g>
<!-- Node11 -->
<g id="node11" class="node">
<title>Node11</title>
<g id="a_node11"><a xlink:title=" ">
<polygon fill="white" stroke="#bfbfbf" points="1567,-112.5 1567,-131.5 1615,-131.5 1615,-112.5 1567,-112.5"/>
<text text-anchor="middle" x="1591" y="-119.5" font-family="Helvetica,sans-Serif" font-size="10.00">thread</text>
</a>
</g>
</g>
<!-- Node6&#45;&gt;Node11 -->
<g id="edge11" class="edge">
<title>Node6&#45;&gt;Node11</title>
<path fill="none" stroke="midnightblue" d="M1580.98,-168.08C1582.57,-160.93 1584.86,-150.64 1586.85,-141.69"/>
<polygon fill="midnightblue" stroke="midnightblue" points="1590.3,-142.27 1589.06,-131.75 1583.47,-140.75 1590.3,-142.27"/>
</g>
<!-- Node19 -->
<g id="node19" class="node">
<title>Node19</title>
<g id="a_node19"><a xlink:href="mem_8h.html" target="_top" xlink:title=" ">
<polygon fill="white" stroke="black" points="353,-168.5 353,-187.5 439,-187.5 439,-168.5 353,-168.5"/>
<text text-anchor="middle" x="396" y="-175.5" font-family="Helvetica,sans-Serif" font-size="10.00">ccf/pal/mem.h</text>
</a>
</g>
</g>
<!-- Node18&#45;&gt;Node19 -->
<g id="edge20" class="edge">
<title>Node18&#45;&gt;Node19</title>
<path fill="none" stroke="midnightblue" d="M397.67,-224.08C397.41,-217.01 397.03,-206.86 396.7,-197.99"/>
<polygon fill="midnightblue" stroke="midnightblue" points="400.19,-197.61 396.32,-187.75 393.2,-197.87 400.19,-197.61"/>
</g>
<!-- Node21 -->
<g id="node21" class="node">
<title>Node21</title>
<g id="a_node21"><a xlink:title=" ">
<polygon fill="white" stroke="#bfbfbf" points="0,-0.5 0,-19.5 50,-19.5 50,-0.5 0,-0.5"/>
<text text-anchor="middle" x="25" y="-7.5" font-family="Helvetica,sans-Serif" font-size="10.00">cstring</text>
</a>
</g>
</g>
<!-- Node18&#45;&gt;Node21 -->
<g id="edge59" class="edge">
<title>Node18&#45;&gt;Node21</title>
<path fill="none" stroke="midnightblue" d="M359.43,-226.34C287.9,-211.98 134.3,-171.34 50,-76 38.37,-62.85 31.89,-43.71 28.46,-29.6"/>
<polygon fill="midnightblue" stroke="midnightblue" points="31.83,-28.63 26.32,-19.58 24.99,-30.09 31.83,-28.63"/>
</g>
<!-- Node22 -->
<g id="node22" class="node">
<title>Node22</title>
<g id="a_node22"><a xlink:href="ring__buffer__types_8h.html" target="_top" xlink:title=" ">
<polygon fill="white" stroke="black" points="672,-168.5 672,-187.5 782,-187.5 782,-168.5 672,-168.5"/>
<text text-anchor="middle" x="727" y="-175.5" font-family="Helvetica,sans-Serif" font-size="10.00">ring_buffer_types.h</text>
</a>
</g>
</g>
<!-- Node18&#45;&gt;Node22 -->
<g id="edge24" class="edge">
<title>Node18&#45;&gt;Node22</title>
<path fill="none" stroke="midnightblue" d="M436.71,-226.65C493.01,-217.41 598.09,-200.16 665.19,-189.15"/>
<polygon fill="midnightblue" stroke="midnightblue" points="665.91,-192.57 675.21,-187.5 664.77,-185.67 665.91,-192.57"/>
</g>
<!-- Node41 -->
<g id="node41" class="node">
<title>Node41</title>
<g id="a_node41"><a xlink:title=" ">
<polygon fill="white" stroke="#bfbfbf" points="269.5,-168.5 269.5,-187.5 334.5,-187.5 334.5,-168.5 269.5,-168.5"/>
<text text-anchor="middle" x="302" y="-175.5" font-family="Helvetica,sans-Serif" font-size="10.00">functional</text>
</a>
</g>
</g>
<!-- Node18&#45;&gt;Node41 -->
<g id="edge60" class="edge">
<title>Node18&#45;&gt;Node41</title>
<path fill="none" stroke="midnightblue" d="M382.58,-224.32C367.46,-215.82 344.18,-202.73 326.53,-192.8"/>
<polygon fill="midnightblue" stroke="midnightblue" points="327.82,-189.51 317.39,-187.65 324.39,-195.61 327.82,-189.51"/>
</g>
<!-- Node19&#45;&gt;Node9 -->
<g id="edge23" class="edge">
<title>Node19&#45;&gt;Node9</title>
<path fill="none" stroke="midnightblue" d="M415.17,-168.44C434.91,-159.64 465.89,-145.81 488.49,-135.72"/>
<polygon fill="midnightblue" stroke="midnightblue" points="490.21,-138.79 497.92,-131.52 487.36,-132.4 490.21,-138.79"/>
</g>
<!-- Node20 -->
<g id="node20" class="node">
<title>Node20</title>
<g id="a_node20"><a xlink:title=" ">
<polygon fill="white" stroke="#bfbfbf" points="269.5,-112.5 269.5,-131.5 322.5,-131.5 322.5,-112.5 269.5,-112.5"/>
<text text-anchor="middle" x="296" y="-119.5" font-family="Helvetica,sans-Serif" font-size="10.00">stdlib.h</text>
</a>
</g>
</g>
<!-- Node19&#45;&gt;Node20 -->
<g id="edge21" class="edge">
<title>Node19&#45;&gt;Node20</title>
<path fill="none" stroke="midnightblue" d="M379.93,-168.32C364.04,-159.74 339.49,-146.49 321.04,-136.52"/>
<polygon fill="midnightblue" stroke="midnightblue" points="322.49,-133.33 312.03,-131.65 319.16,-139.49 322.49,-133.33"/>
</g>
<!-- Node19&#45;&gt;Node21 -->
<g id="edge22" class="edge">
<title>Node19&#45;&gt;Node21</title>
<path fill="none" stroke="midnightblue" d="M359.24,-168.48C285.16,-150.83 120.98,-109.14 74,-76 56.55,-63.69 42.63,-43.26 34.15,-28.59"/>
<polygon fill="midnightblue" stroke="midnightblue" points="37.05,-26.61 29.17,-19.52 30.91,-29.97 37.05,-26.61"/>
</g>
<!-- Node22&#45;&gt;Node5 -->
<g id="edge55" class="edge">
<title>Node22&#45;&gt;Node5</title>
<path fill="none" stroke="midnightblue" d="M782.31,-171.01C880.26,-160.41 1082.73,-138.5 1176.43,-128.36"/>
<polygon fill="midnightblue" stroke="midnightblue" points="1176.93,-131.83 1186.5,-127.27 1176.18,-124.87 1176.93,-131.83"/>
</g>
<!-- Node22&#45;&gt;Node15 -->
<g id="edge56" class="edge">
<title>Node22&#45;&gt;Node15</title>
<path fill="none" stroke="midnightblue" d="M752.67,-168.44C779.92,-159.36 823.18,-144.94 853.65,-134.78"/>
<polygon fill="midnightblue" stroke="midnightblue" points="855.07,-138 863.45,-131.52 852.86,-131.36 855.07,-138"/>
</g>
<!-- Node23 -->
<g id="node23" class="node">
<title>Node23</title>
<g id="a_node23"><a xlink:href="include_2ccf_2ds_2hash_8h.html" target="_top" xlink:title=" ">
<polygon fill="white" stroke="black" points="341,-112.5 341,-131.5 421,-131.5 421,-112.5 341,-112.5"/>
<text text-anchor="middle" x="381" y="-119.5" font-family="Helvetica,sans-Serif" font-size="10.00">ccf/ds/hash.h</text>
</a>
</g>
</g>
<!-- Node22&#45;&gt;Node23 -->
<g id="edge25" class="edge">
<title>Node22&#45;&gt;Node23</title>
<path fill="none" stroke="midnightblue" d="M672.18,-168.44C605.93,-158.1 495.4,-140.85 431.27,-130.85"/>
<polygon fill="midnightblue" stroke="midnightblue" points="431.43,-127.33 421.01,-129.24 430.35,-134.24 431.43,-127.33"/>
</g>
<!-- Node27 -->
<g id="node27" class="node">
<title>Node27</title>
<g id="a_node27"><a xlink:title=" ">
<polygon fill="white" stroke="#bfbfbf" points="418.5,-0.5 418.5,-19.5 465.5,-19.5 465.5,-0.5 418.5,-0.5"/>
<text text-anchor="middle" x="442" y="-7.5" font-family="Helvetica,sans-Serif" font-size="10.00">vector</text>
</a>
</g>
</g>
<!-- Node22&#45;&gt;Node27 -->
<g id="edge58" class="edge">
<title>Node22&#45;&gt;Node27</title>
<path fill="none" stroke="midnightblue" d="M700.88,-168.49C678.55,-160.64 645.99,-147.83 620,-132 574.99,-104.59 572.89,-85.17 529,-56 510.36,-43.61 487.89,-32.07 470.45,-23.77"/>
<polygon fill="midnightblue" stroke="midnightblue" points="471.88,-20.58 461.34,-19.51 468.92,-26.92 471.88,-20.58"/>
</g>
<!-- Node30 -->
<g id="node30" class="node">
<title>Node30</title>
<g id="a_node30"><a xlink:href="nonstd_8h.html" target="_top" xlink:title=" ">
<polygon fill="white" stroke="black" points="751,-56.5 751,-75.5 841,-75.5 841,-56.5 751,-56.5"/>
<text text-anchor="middle" x="796" y="-63.5" font-family="Helvetica,sans-Serif" font-size="10.00">ccf/ds/nonstd.h</text>
</a>
</g>
</g>
<!-- Node22&#45;&gt;Node30 -->
<g id="edge34" class="edge">
<title>Node22&#45;&gt;Node30</title>
<path fill="none" stroke="midnightblue" d="M728.9,-168.47C732.04,-155.51 739.19,-130.44 751,-112 758.12,-100.89 768.39,-90.35 777.32,-82.27"/>
<polygon fill="midnightblue" stroke="midnightblue" points="779.76,-84.79 785.02,-75.59 775.17,-79.5 779.76,-84.79"/>
</g>
<!-- Node33 -->
<g id="node33" class="node">
<title>Node33</title>
<g id="a_node33"><a xlink:title=" ">
<polygon fill="white" stroke="#bfbfbf" points="544,-0.5 544,-19.5 588,-19.5 588,-0.5 544,-0.5"/>
<text text-anchor="middle" x="566" y="-7.5" font-family="Helvetica,sans-Serif" font-size="10.00">string</text>
</a>
</g>
</g>
<!-- Node22&#45;&gt;Node33 -->
<g id="edge57" class="edge">
<title>Node22&#45;&gt;Node33</title>
<path fill="none" stroke="midnightblue" d="M733.19,-168.13C742.86,-154.72 762.68,-129.07 784,-112 814.03,-87.96 875.21,-85.05 850,-56 814.6,-15.2 667.88,-30.25 598.33,-19.71"/>
<polygon fill="midnightblue" stroke="midnightblue" points="598.72,-16.22 588.26,-17.87 597.46,-23.11 598.72,-16.22"/>
</g>
<!-- Node35 -->
<g id="node35" class="node">
<title>Node35</title>
<g id="a_node35"><a xlink:href="serializer_8h.html" target="_top" xlink:title=" ">
<polygon fill="white" stroke="black" points="629,-112.5 629,-131.5 699,-131.5 699,-112.5 629,-112.5"/>
<text text-anchor="middle" x="664" y="-119.5" font-family="Helvetica,sans-Serif" font-size="10.00">serializer.h</text>
</a>
</g>
</g>
<!-- Node22&#45;&gt;Node35 -->
<g id="edge42" class="edge">
<title>Node22&#45;&gt;Node35</title>
<path fill="none" stroke="midnightblue" d="M716.88,-168.32C707.47,-160.26 693.26,-148.08 681.93,-138.37"/>
<polygon fill="midnightblue" stroke="midnightblue" points="684.18,-135.68 674.31,-131.83 679.62,-141 684.18,-135.68"/>
</g>
<!-- Node22&#45;&gt;Node40 -->
<g id="edge54" class="edge">
<title>Node22&#45;&gt;Node40</title>
<path fill="none" stroke="midnightblue" d="M741.62,-168.32C755.95,-159.82 778.01,-146.73 794.75,-136.8"/>
<polygon fill="midnightblue" stroke="midnightblue" points="796.6,-139.77 803.42,-131.65 793.03,-133.75 796.6,-139.77"/>
</g>
<!-- Node24 -->
<g id="node24" class="node">
<title>Node24</title>
<g id="a_node24"><a xlink:href="siphash_8h.html" target="_top" xlink:title=" ">
<polygon fill="white" stroke="black" points="91.5,-56.5 91.5,-75.5 186.5,-75.5 186.5,-56.5 91.5,-56.5"/>
<text text-anchor="middle" x="139" y="-63.5" font-family="Helvetica,sans-Serif" font-size="10.00">ccf/ds/siphash.h</text>
</a>
</g>
</g>
<!-- Node23&#45;&gt;Node24 -->
<g id="edge26" class="edge">
<title>Node23&#45;&gt;Node24</title>
<path fill="none" stroke="midnightblue" d="M342.65,-112.44C300.53,-103.04 232.79,-87.93 187.13,-77.74"/>
<polygon fill="midnightblue" stroke="midnightblue" points="187.69,-74.28 177.17,-75.52 186.16,-81.11 187.69,-74.28"/>
</g>
<!-- Node26 -->
<g id="node26" class="node">
<title>Node26</title>
<g id="a_node26"><a xlink:title=" ">
<polygon fill="white" stroke="#bfbfbf" points="162,-0.5 162,-19.5 212,-19.5 212,-0.5 162,-0.5"/>
<text text-anchor="middle" x="187" y="-7.5" font-family="Helvetica,sans-Serif" font-size="10.00">cstdint</text>
</a>
</g>
</g>
<!-- Node23&#45;&gt;Node26 -->
<g id="edge31" class="edge">
<title>Node23&#45;&gt;Node26</title>
<path fill="none" stroke="midnightblue" d="M340.9,-113.66C337.56,-113.08 334.22,-112.52 331,-112 275.81,-103.05 118.6,-118.27 82,-76 76.18,-69.28 77.11,-63.42 82,-56 90.17,-43.61 124.66,-30.33 151.91,-21.44"/>
<polygon fill="midnightblue" stroke="midnightblue" points="153.09,-24.73 161.56,-18.37 150.97,-18.06 153.09,-24.73"/>
</g>
<!-- Node23&#45;&gt;Node27 -->
<g id="edge33" class="edge">
<title>Node23&#45;&gt;Node27</title>
<path fill="none" stroke="midnightblue" d="M383.24,-112.18C386.74,-99.29 394.22,-74.78 405,-56 410.96,-45.6 419.34,-35.19 426.61,-27"/>
<polygon fill="midnightblue" stroke="midnightblue" points="429.19,-29.37 433.38,-19.64 424.03,-24.63 429.19,-29.37"/>
</g>
<!-- Node28 -->
<g id="node28" class="node">
<title>Node28</title>
<g id="a_node28"><a xlink:title=" ">
<polygon fill="white" stroke="#bfbfbf" points="484,-0.5 484,-19.5 526,-19.5 526,-0.5 484,-0.5"/>
<text text-anchor="middle" x="505" y="-7.5" font-family="Helvetica,sans-Serif" font-size="10.00">array</text>
</a>
</g>
</g>
<!-- Node23&#45;&gt;Node28 -->
<g id="edge30" class="edge">
<title>Node23&#45;&gt;Node28</title>
<path fill="none" stroke="midnightblue" d="M387.39,-112.37C397.33,-99.28 417.48,-74.04 438,-56 451.34,-44.27 467.89,-33.13 481.21,-24.86"/>
<polygon fill="midnightblue" stroke="midnightblue" points="483.1,-27.81 489.83,-19.63 479.47,-21.83 483.1,-27.81"/>
</g>
<!-- Node29 -->
<g id="node29" class="node">
<title>Node29</title>
<g id="a_node29"><a xlink:title=" ">
<polygon fill="white" stroke="#bfbfbf" points="204.5,-56.5 204.5,-75.5 353.5,-75.5 353.5,-56.5 204.5,-56.5"/>
<text text-anchor="middle" x="279" y="-63.5" font-family="Helvetica,sans-Serif" font-size="10.00">small_vector/SmallVector.h</text>
</a>
</g>
</g>
<!-- Node23&#45;&gt;Node29 -->
<g id="edge32" class="edge">
<title>Node23&#45;&gt;Node29</title>
<path fill="none" stroke="midnightblue" d="M364.61,-112.32C348.33,-103.7 323.13,-90.36 304.28,-80.39"/>
<polygon fill="midnightblue" stroke="midnightblue" points="305.82,-77.24 295.35,-75.65 302.55,-83.43 305.82,-77.24"/>
</g>
<!-- Node25 -->
<g id="node25" class="node">
<title>Node25</title>
<g id="a_node25"><a xlink:title=" ">
<polygon fill="white" stroke="#bfbfbf" points="90.5,-0.5 90.5,-19.5 143.5,-19.5 143.5,-0.5 90.5,-0.5"/>
<text text-anchor="middle" x="117" y="-7.5" font-family="Helvetica,sans-Serif" font-size="10.00">cstddef</text>
</a>
</g>
</g>
<!-- Node24&#45;&gt;Node25 -->
<g id="edge27" class="edge">
<title>Node24&#45;&gt;Node25</title>
<path fill="none" stroke="midnightblue" d="M135.37,-56.08C132.39,-48.77 128.07,-38.18 124.38,-29.1"/>
<polygon fill="midnightblue" stroke="midnightblue" points="127.58,-27.69 120.57,-19.75 121.1,-30.33 127.58,-27.69"/>
</g>
<!-- Node24&#45;&gt;Node26 -->
<g id="edge28" class="edge">
<title>Node24&#45;&gt;Node26</title>
<path fill="none" stroke="midnightblue" d="M146.93,-56.08C153.85,-48.3 164.07,-36.8 172.45,-27.37"/>
<polygon fill="midnightblue" stroke="midnightblue" points="175.19,-29.55 179.22,-19.75 169.96,-24.9 175.19,-29.55"/>
</g>
<!-- Node24&#45;&gt;Node27 -->
<g id="edge29" class="edge">
<title>Node24&#45;&gt;Node27</title>
<path fill="none" stroke="midnightblue" d="M186.68,-56.5C248.39,-45.5 354.4,-26.61 408.34,-17"/>
<polygon fill="midnightblue" stroke="midnightblue" points="409.18,-20.4 418.41,-15.2 407.95,-13.51 409.18,-20.4"/>
</g>
<!-- Node30&#45;&gt;Node17 -->
<g id="edge40" class="edge">
<title>Node30&#45;&gt;Node17</title>
<path fill="none" stroke="midnightblue" d="M822.62,-56.44C851.01,-47.32 896.14,-32.81 927.75,-22.65"/>
<polygon fill="midnightblue" stroke="midnightblue" points="929.06,-25.91 937.5,-19.52 926.91,-19.24 929.06,-25.91"/>
</g>
<!-- Node30&#45;&gt;Node27 -->
<g id="edge41" class="edge">
<title>Node30&#45;&gt;Node27</title>
<path fill="none" stroke="midnightblue" d="M750.99,-57.53C747.61,-57 744.25,-56.49 741,-56 626.24,-38.85 593.68,-43.47 475.85,-19.92"/>
<polygon fill="midnightblue" stroke="midnightblue" points="476.2,-16.42 465.7,-17.87 474.81,-23.28 476.2,-16.42"/>
</g>
<!-- Node30&#45;&gt;Node28 -->
<g id="edge36" class="edge">
<title>Node30&#45;&gt;Node28</title>
<path fill="none" stroke="midnightblue" d="M750.84,-57.52C687.83,-47.04 577.35,-28.5 536.11,-19.9"/>
<polygon fill="midnightblue" stroke="midnightblue" points="536.74,-16.46 526.22,-17.71 535.23,-23.29 536.74,-16.46"/>
</g>
<!-- Node31 -->
<g id="node31" class="node">
<title>Node31</title>
<g id="a_node31"><a xlink:title=" ">
<polygon fill="white" stroke="#bfbfbf" points="606,-0.5 606,-19.5 670,-19.5 670,-0.5 606,-0.5"/>
<text text-anchor="middle" x="638" y="-7.5" font-family="Helvetica,sans-Serif" font-size="10.00">algorithm</text>
</a>
</g>
</g>
<!-- Node30&#45;&gt;Node31 -->
<g id="edge35" class="edge">
<title>Node30&#45;&gt;Node31</title>
<path fill="none" stroke="midnightblue" d="M770.96,-56.44C744.38,-47.36 702.19,-32.94 672.48,-22.78"/>
<polygon fill="midnightblue" stroke="midnightblue" points="673.51,-19.44 662.92,-19.52 671.25,-26.06 673.51,-19.44"/>
</g>
<!-- Node32 -->
<g id="node32" class="node">
<title>Node32</title>
<g id="a_node32"><a xlink:title=" ">
<polygon fill="white" stroke="#bfbfbf" points="771.5,-0.5 771.5,-19.5 820.5,-19.5 820.5,-0.5 771.5,-0.5"/>
<text text-anchor="middle" x="796" y="-7.5" font-family="Helvetica,sans-Serif" font-size="10.00">cctype</text>
</a>
</g>
</g>
<!-- Node30&#45;&gt;Node32 -->
<g id="edge37" class="edge">
<title>Node30&#45;&gt;Node32</title>
<path fill="none" stroke="midnightblue" d="M796,-56.08C796,-49.01 796,-38.86 796,-29.99"/>
<polygon fill="midnightblue" stroke="midnightblue" points="799.5,-29.75 796,-19.75 792.5,-29.75 799.5,-29.75"/>
</g>
<!-- Node30&#45;&gt;Node33 -->
<g id="edge38" class="edge">
<title>Node30&#45;&gt;Node33</title>
<path fill="none" stroke="midnightblue" d="M755.05,-56.49C716.82,-48.38 657.98,-35.48 598.28,-20.22"/>
<polygon fill="midnightblue" stroke="midnightblue" points="598.86,-16.76 588.31,-17.65 597.12,-23.53 598.86,-16.76"/>
</g>
<!-- Node34 -->
<g id="node34" class="node">
<title>Node34</title>
<g id="a_node34"><a xlink:title=" ">
<polygon fill="white" stroke="#bfbfbf" points="838.5,-0.5 838.5,-19.5 911.5,-19.5 911.5,-0.5 838.5,-0.5"/>
<text text-anchor="middle" x="875" y="-7.5" font-family="Helvetica,sans-Serif" font-size="10.00">string_view</text>
</a>
</g>
</g>
<!-- Node30&#45;&gt;Node34 -->
<g id="edge39" class="edge">
<title>Node30&#45;&gt;Node34</title>
<path fill="none" stroke="midnightblue" d="M808.69,-56.32C820.9,-47.98 839.58,-35.21 854,-25.35"/>
<polygon fill="midnightblue" stroke="midnightblue" points="856.06,-28.19 862.34,-19.65 852.11,-22.41 856.06,-28.19"/>
</g>
<!-- Node35&#45;&gt;Node17 -->
<g id="edge52" class="edge">
<title>Node35&#45;&gt;Node17</title>
<path fill="none" stroke="midnightblue" d="M699.18,-115.53C737.27,-108.91 799.36,-96.1 850,-76 884.28,-62.4 920.79,-40.01 943,-25.38"/>
<polygon fill="midnightblue" stroke="midnightblue" points="945.23,-28.1 951.6,-19.64 941.34,-22.28 945.23,-28.1"/>
</g>
<!-- Node35&#45;&gt;Node27 -->
<g id="edge53" class="edge">
<title>Node35&#45;&gt;Node27</title>
<path fill="none" stroke="midnightblue" d="M652.37,-112.32C634.07,-98.95 597.13,-73.08 563,-56 534.46,-41.72 500.24,-29.4 475.48,-21.29"/>
<polygon fill="midnightblue" stroke="midnightblue" points="476.42,-17.91 465.83,-18.17 474.27,-24.57 476.42,-17.91"/>
</g>
<!-- Node35&#45;&gt;Node30 -->
<g id="edge43" class="edge">
<title>Node35&#45;&gt;Node30</title>
<path fill="none" stroke="midnightblue" d="M684.92,-112.44C706.74,-103.52 741.15,-89.44 765.89,-79.32"/>
<polygon fill="midnightblue" stroke="midnightblue" points="767.25,-82.54 775.18,-75.52 764.6,-76.06 767.25,-82.54"/>
</g>
<!-- Node35&#45;&gt;Node36 -->
<g id="edge44" class="edge">
<title>Node35&#45;&gt;Node36</title>
<path fill="none" stroke="midnightblue" d="M635.48,-112.44C604.93,-103.28 556.29,-88.69 522.4,-78.52"/>
<polygon fill="midnightblue" stroke="midnightblue" points="522.97,-75.04 512.39,-75.52 520.96,-81.74 522.97,-75.04"/>
</g>
<!-- Node38 -->
<g id="node38" class="node">
<title>Node38</title>
<g id="a_node38"><a xlink:title=" ">
<polygon fill="white" stroke="#bfbfbf" points="615,-56.5 615,-75.5 673,-75.5 673,-56.5 615,-56.5"/>
<text text-anchor="middle" x="644" y="-63.5" font-family="Helvetica,sans-Serif" font-size="10.00">memory</text>
</a>
</g>
</g>
<!-- Node35&#45;&gt;Node38 -->
<g id="edge50" class="edge">
<title>Node35&#45;&gt;Node38</title>
<path fill="none" stroke="midnightblue" d="M660.7,-112.08C658.02,-104.85 654.15,-94.41 650.81,-85.4"/>
<polygon fill="midnightblue" stroke="midnightblue" points="654,-83.91 647.24,-75.75 647.43,-86.34 654,-83.91"/>
</g>
<!-- Node39 -->
<g id="node39" class="node">
<title>Node39</title>
<g id="a_node39"><a xlink:title=" ">
<polygon fill="white" stroke="#bfbfbf" points="691.5,-56.5 691.5,-75.5 732.5,-75.5 732.5,-56.5 691.5,-56.5"/>
<text text-anchor="middle" x="712" y="-63.5" font-family="Helvetica,sans-Serif" font-size="10.00">tuple</text>
</a>
</g>
</g>
<!-- Node35&#45;&gt;Node39 -->
<g id="edge51" class="edge">
<title>Node35&#45;&gt;Node39</title>
<path fill="none" stroke="midnightblue" d="M671.93,-112.08C678.85,-104.3 689.07,-92.8 697.45,-83.37"/>
<polygon fill="midnightblue" stroke="midnightblue" points="700.19,-85.55 704.22,-75.75 694.96,-80.9 700.19,-85.55"/>
</g>
<!-- Node36&#45;&gt;Node21 -->
<g id="edge46" class="edge">
<title>Node36&#45;&gt;Node21</title>
<path fill="none" stroke="midnightblue" d="M447.25,-61.49C376.32,-54.6 215.63,-38.32 81,-20 74.18,-19.07 66.91,-17.98 59.95,-16.88"/>
<polygon fill="midnightblue" stroke="midnightblue" points="60.48,-13.42 50.05,-15.29 59.37,-20.33 60.48,-13.42"/>
</g>
<!-- Node36&#45;&gt;Node26 -->
<g id="edge45" class="edge">
<title>Node36&#45;&gt;Node26</title>
<path fill="none" stroke="midnightblue" d="M447.28,-58.32C389.72,-47.86 278.96,-27.72 222.29,-17.42"/>
<polygon fill="midnightblue" stroke="midnightblue" points="222.82,-13.96 212.36,-15.61 221.57,-20.84 222.82,-13.96"/>
</g>
<!-- Node36&#45;&gt;Node27 -->
<g id="edge49" class="edge">
<title>Node36&#45;&gt;Node27</title>
<path fill="none" stroke="midnightblue" d="M477.06,-56.08C471.07,-48.38 462.25,-37.03 454.95,-27.65"/>
<polygon fill="midnightblue" stroke="midnightblue" points="457.71,-25.5 448.81,-19.75 452.18,-29.79 457.71,-25.5"/>
</g>
<!-- Node36&#45;&gt;Node33 -->
<g id="edge48" class="edge">
<title>Node36&#45;&gt;Node33</title>
<path fill="none" stroke="midnightblue" d="M497.17,-56.32C509.85,-47.98 529.23,-35.21 544.21,-25.35"/>
<polygon fill="midnightblue" stroke="midnightblue" points="546.43,-28.08 552.86,-19.65 542.58,-22.23 546.43,-28.08"/>
</g>
<!-- Node36&#45;&gt;Node37 -->
<g id="edge47" class="edge">
<title>Node36&#45;&gt;Node37</title>
<path fill="none" stroke="midnightblue" d="M520.51,-56.68C563.12,-46.97 633.48,-30.94 678.51,-20.68"/>
<polygon fill="midnightblue" stroke="midnightblue" points="679.29,-24.09 688.26,-18.46 677.74,-17.27 679.29,-24.09"/>
</g>
</g>
</svg>
        <g id="navigator" transform="translate(0 0)" fill="#404254">
                <rect fill="#f2f5e9" fill-opacity="0.5" stroke="#606060" stroke-width=".5" x="0" y="0" width="60" height="60"/>
                <use id="zoomplus" xlink:href="#zoomPlus" x="17" y="9" onmousedown="handleZoom(evt,'in')"/>
                <use id="zoomminus" xlink:href="#zoomMin" x="42" y="9" onmousedown="handleZoom(evt,'out')"/>
                <use id="reset" xlink:href="#resetDef" x="30" y="36" onmousedown="handleReset()"/>
                <g id="arrowUp" xlink:href="#dirArrow" transform="translate(30 24)" onmousedown="handlePan(0,-1)">
                  <use xlink:href="#rim" fill="#404040">
                        <set attributeName="fill" to="#808080" begin="arrowUp.mouseover" end="arrowUp.mouseout"/>
                  </use>
                  <path fill="none" stroke="white" stroke-width="1.5" d="M0,-3.0v7 M-2.5,-0.5L0,-3.0L2.5,-0.5"/>
                </g>
                <g id="arrowRight" xlink:href="#dirArrow" transform="rotate(90) translate(36 -43)" onmousedown="handlePan(1,0)">
                  <use xlink:href="#rim" fill="#404040">
                        <set attributeName="fill" to="#808080" begin="arrowRight.mouseover" end="arrowRight.mouseout"/>
                  </use>
                  <path fill="none" stroke="white" stroke-width="1.5" d="M0,-3.0v7 M-2.5,-0.5L0,-3.0L2.5,-0.5"/>
                </g>
                <g id="arrowDown" xlink:href="#dirArrow" transform="rotate(180) translate(-30 -48)" onmousedown="handlePan(0,1)">
                  <use xlink:href="#rim" fill="#404040">
                        <set attributeName="fill" to="#808080" begin="arrowDown.mouseover" end="arrowDown.mouseout"/>
                  </use>
                  <path fill="none" stroke="white" stroke-width="1.5" d="M0,-3.0v7 M-2.5,-0.5L0,-3.0L2.5,-0.5"/>
                </g>
                <g id="arrowLeft" xlink:href="#dirArrow" transform="rotate(270) translate(-36 17)" onmousedown="handlePan(-1,0)">
                  <use xlink:href="#rim" fill="#404040">
                        <set attributeName="fill" to="#808080" begin="arrowLeft.mouseover" end="arrowLeft.mouseout"/>
                  </use>
                  <path fill="none" stroke="white" stroke-width="1.5" d="M0,-3.0v7 M-2.5,-0.5L0,-3.0L2.5,-0.5"/>
                </g>
        </g>
        <svg viewBox="0 0 15 15" width="100%" height="30px" preserveAspectRatio="xMaxYMin meet">
         <g id="arrow_out" transform="scale(0.3 0.3)">
          <a xlink:href="oversized_8h__incl_org.svg" target="_base">
           <rect id="button" ry="5" rx="5" y="6" x="6" height="38" width="38"
                fill="#f2f5e9" fill-opacity="0.5" stroke="#606060" stroke-width="1.0"/>
           <path id="arrow"
             d="M 11.500037,31.436501 C 11.940474,20.09759 22.043105,11.32322 32.158766,21.979434 L 37.068811,17.246167 C 37.068811,17.246167 37.088388,32 37.088388,32 L 22.160133,31.978069 C 22.160133,31.978069 26.997745,27.140456 26.997745,27.140456 C 18.528582,18.264221 13.291696,25.230495 11.500037,31.436501 z"
             style="fill:#404040;"/>
          </a>
         </g>
        </svg>
</svg>
