<?xml version="1.0" encoding="UTF-8" standalone="no"?>
<!DOCTYPE svg PUBLIC "-//W3C//DTD SVG 1.1//EN"
 "http://www.w3.org/Graphics/SVG/1.1/DTD/svg11.dtd">
<!-- Generated by graphviz version 2.43.0 (0)
 -->
<!-- Title: src/host/rpc_connections.h Pages: 1 -->
<svg width="1884pt" height="308pt"
 viewBox="0.00 0.00 1884.25 308.00" xmlns="http://www.w3.org/2000/svg" xmlns:xlink="http://www.w3.org/1999/xlink">
<g id="graph0" class="graph" transform="scale(1 1) rotate(0) translate(4 304)">
<title>src/host/rpc_connections.h</title>
<polygon fill="white" stroke="transparent" points="-4,4 -4,-304 1880.25,-304 1880.25,4 -4,4"/>
<!-- Node1 -->
<g id="node1" class="node">
<title>Node1</title>
<g id="a_node1"><a xlink:title=" ">
<polygon fill="#bfbfbf" stroke="black" points="1061.25,-280.5 1061.25,-299.5 1207.25,-299.5 1207.25,-280.5 1061.25,-280.5"/>
<text text-anchor="middle" x="1134.25" y="-287.5" font-family="Helvetica,sans-Serif" font-size="10.00">src/host/rpc_connections.h</text>
</a>
</g>
</g>
<!-- Node2 -->
<g id="node2" class="node">
<title>Node2</title>
<g id="a_node2"><a xlink:href="quic_2msg__types_8h.html" target="_top" xlink:title=" ">
<polygon fill="white" stroke="black" points="928.75,-224.5 928.75,-243.5 1039.75,-243.5 1039.75,-224.5 928.75,-224.5"/>
<text text-anchor="middle" x="984.25" y="-231.5" font-family="Helvetica,sans-Serif" font-size="10.00">../quic/msg_types.h</text>
</a>
</g>
</g>
<!-- Node1&#45;&gt;Node2 -->
<g id="edge1" class="edge">
<title>Node1&#45;&gt;Node2</title>
<path fill="none" stroke="midnightblue" d="M1110.48,-280.44C1085.36,-271.4 1045.54,-257.06 1017.35,-246.92"/>
<polygon fill="midnightblue" stroke="midnightblue" points="1018.5,-243.61 1007.91,-243.52 1016.13,-250.2 1018.5,-243.61"/>
</g>
<!-- Node26 -->
<g id="node26" class="node">
<title>Node26</title>
<g id="a_node26"><a xlink:href="tls_2msg__types_8h.html" target="_top" xlink:title=" ">
<polygon fill="white" stroke="black" points="695.75,-224.5 695.75,-243.5 798.75,-243.5 798.75,-224.5 695.75,-224.5"/>
<text text-anchor="middle" x="747.25" y="-231.5" font-family="Helvetica,sans-Serif" font-size="10.00">../tls/msg_types.h</text>
</a>
</g>
</g>
<!-- Node1&#45;&gt;Node26 -->
<g id="edge37" class="edge">
<title>Node1&#45;&gt;Node26</title>
<path fill="none" stroke="midnightblue" d="M1072.93,-280.44C1000.82,-270.38 881.78,-253.77 809.34,-243.66"/>
<polygon fill="midnightblue" stroke="midnightblue" points="809.39,-240.14 799,-242.22 808.42,-247.07 809.39,-240.14"/>
</g>
<!-- Node27 -->
<g id="node27" class="node">
<title>Node27</title>
<g id="a_node27"><a xlink:href="tcp_8h.html" target="_top" xlink:title=" ">
<polygon fill="white" stroke="black" points="1113.75,-224.5 1113.75,-243.5 1154.75,-243.5 1154.75,-224.5 1113.75,-224.5"/>
<text text-anchor="middle" x="1134.25" y="-231.5" font-family="Helvetica,sans-Serif" font-size="10.00">tcp.h</text>
</a>
</g>
</g>
<!-- Node1&#45;&gt;Node27 -->
<g id="edge39" class="edge">
<title>Node1&#45;&gt;Node27</title>
<path fill="none" stroke="midnightblue" d="M1134.25,-280.08C1134.25,-273.01 1134.25,-262.86 1134.25,-253.99"/>
<polygon fill="midnightblue" stroke="midnightblue" points="1137.75,-253.75 1134.25,-243.75 1130.75,-253.75 1137.75,-253.75"/>
</g>
<!-- Node51 -->
<g id="node51" class="node">
<title>Node51</title>
<g id="a_node51"><a xlink:href="udp_8h.html" target="_top" xlink:title=" ">
<polygon fill="white" stroke="black" points="1173.25,-224.5 1173.25,-243.5 1217.25,-243.5 1217.25,-224.5 1173.25,-224.5"/>
<text text-anchor="middle" x="1195.25" y="-231.5" font-family="Helvetica,sans-Serif" font-size="10.00">udp.h</text>
</a>
</g>
</g>
<!-- Node1&#45;&gt;Node51 -->
<g id="edge77" class="edge">
<title>Node1&#45;&gt;Node51</title>
<path fill="none" stroke="midnightblue" d="M1144.05,-280.32C1153.07,-272.34 1166.66,-260.31 1177.57,-250.65"/>
<polygon fill="midnightblue" stroke="midnightblue" points="1180.11,-253.08 1185.27,-243.83 1175.47,-247.84 1180.11,-253.08"/>
</g>
<!-- Node52 -->
<g id="node52" class="node">
<title>Node52</title>
<g id="a_node52"><a xlink:title=" ">
<polygon fill="white" stroke="#bfbfbf" points="1235.75,-224.5 1235.75,-243.5 1328.75,-243.5 1328.75,-224.5 1235.75,-224.5"/>
<text text-anchor="middle" x="1282.25" y="-231.5" font-family="Helvetica,sans-Serif" font-size="10.00">unordered_map</text>
</a>
</g>
</g>
<!-- Node1&#45;&gt;Node52 -->
<g id="edge86" class="edge">
<title>Node1&#45;&gt;Node52</title>
<path fill="none" stroke="midnightblue" d="M1157.7,-280.44C1182.39,-271.44 1221.44,-257.19 1249.23,-247.05"/>
<polygon fill="midnightblue" stroke="midnightblue" points="1250.72,-250.23 1258.91,-243.52 1248.32,-243.66 1250.72,-250.23"/>
</g>
<!-- Node3 -->
<g id="node3" class="node">
<title>Node3</title>
<g id="a_node3"><a xlink:href="ring__buffer__types_8h.html" target="_top" xlink:title=" ">
<polygon fill="white" stroke="black" points="587.75,-168.5 587.75,-187.5 712.75,-187.5 712.75,-168.5 587.75,-168.5"/>
<text text-anchor="middle" x="650.25" y="-175.5" font-family="Helvetica,sans-Serif" font-size="10.00">ds/ring_buffer_types.h</text>
</a>
</g>
</g>
<!-- Node2&#45;&gt;Node3 -->
<g id="edge2" class="edge">
<title>Node2&#45;&gt;Node3</title>
<path fill="none" stroke="midnightblue" d="M931.33,-224.44C872.09,-214.87 776.16,-199.36 713.14,-189.17"/>
<polygon fill="midnightblue" stroke="midnightblue" points="713.36,-185.66 702.93,-187.52 712.24,-192.57 713.36,-185.66"/>
</g>
<!-- Node4 -->
<g id="node4" class="node">
<title>Node4</title>
<g id="a_node4"><a xlink:href="include_2ccf_2ds_2hash_8h.html" target="_top" xlink:title=" ">
<polygon fill="white" stroke="black" points="149.25,-112.5 149.25,-131.5 229.25,-131.5 229.25,-112.5 149.25,-112.5"/>
<text text-anchor="middle" x="189.25" y="-119.5" font-family="Helvetica,sans-Serif" font-size="10.00">ccf/ds/hash.h</text>
</a>
</g>
</g>
<!-- Node3&#45;&gt;Node4 -->
<g id="edge3" class="edge">
<title>Node3&#45;&gt;Node4</title>
<path fill="none" stroke="midnightblue" d="M587.6,-169.66C495.2,-158.84 324.19,-138.81 239.49,-128.88"/>
<polygon fill="midnightblue" stroke="midnightblue" points="239.69,-125.38 229.35,-127.7 238.88,-132.34 239.69,-125.38"/>
</g>
<!-- Node8 -->
<g id="node8" class="node">
<title>Node8</title>
<g id="a_node8"><a xlink:title=" ">
<polygon fill="white" stroke="#bfbfbf" points="309.75,-0.5 309.75,-19.5 356.75,-19.5 356.75,-0.5 309.75,-0.5"/>
<text text-anchor="middle" x="333.25" y="-7.5" font-family="Helvetica,sans-Serif" font-size="10.00">vector</text>
</a>
</g>
</g>
<!-- Node3&#45;&gt;Node8 -->
<g id="edge36" class="edge">
<title>Node3&#45;&gt;Node8</title>
<path fill="none" stroke="midnightblue" d="M587.64,-170.61C524.19,-160.87 427.32,-136.49 369.25,-76 356.3,-62.5 346.47,-43.44 340.38,-29.44"/>
<polygon fill="midnightblue" stroke="midnightblue" points="343.5,-27.83 336.46,-19.91 337.02,-30.49 343.5,-27.83"/>
</g>
<!-- Node11 -->
<g id="node11" class="node">
<title>Node11</title>
<g id="a_node11"><a xlink:href="nonstd_8h.html" target="_top" xlink:title=" ">
<polygon fill="white" stroke="black" points="636.25,-56.5 636.25,-75.5 726.25,-75.5 726.25,-56.5 636.25,-56.5"/>
<text text-anchor="middle" x="681.25" y="-63.5" font-family="Helvetica,sans-Serif" font-size="10.00">ccf/ds/nonstd.h</text>
</a>
</g>
</g>
<!-- Node3&#45;&gt;Node11 -->
<g id="edge12" class="edge">
<title>Node3&#45;&gt;Node11</title>
<path fill="none" stroke="midnightblue" d="M652.69,-168.37C657.71,-150.54 669.33,-109.3 676.1,-85.27"/>
<polygon fill="midnightblue" stroke="midnightblue" points="679.49,-86.17 678.83,-75.59 672.75,-84.27 679.49,-86.17"/>
</g>
<!-- Node14 -->
<g id="node14" class="node">
<title>Node14</title>
<g id="a_node14"><a xlink:title=" ">
<polygon fill="white" stroke="#bfbfbf" points="526.25,-0.5 526.25,-19.5 570.25,-19.5 570.25,-0.5 526.25,-0.5"/>
<text text-anchor="middle" x="548.25" y="-7.5" font-family="Helvetica,sans-Serif" font-size="10.00">string</text>
</a>
</g>
</g>
<!-- Node3&#45;&gt;Node14 -->
<g id="edge35" class="edge">
<title>Node3&#45;&gt;Node14</title>
<path fill="none" stroke="midnightblue" d="M625.31,-168.39C608.35,-161.25 586.79,-149.42 574.25,-132 552.05,-101.15 548.11,-55.16 547.81,-29.68"/>
<polygon fill="midnightblue" stroke="midnightblue" points="551.31,-29.57 547.87,-19.55 544.31,-29.52 551.31,-29.57"/>
</g>
<!-- Node17 -->
<g id="node17" class="node">
<title>Node17</title>
<g id="a_node17"><a xlink:href="serializer_8h.html" target="_top" xlink:title=" ">
<polygon fill="white" stroke="black" points="583.25,-112.5 583.25,-131.5 653.25,-131.5 653.25,-112.5 583.25,-112.5"/>
<text text-anchor="middle" x="618.25" y="-119.5" font-family="Helvetica,sans-Serif" font-size="10.00">serializer.h</text>
</a>
</g>
</g>
<!-- Node3&#45;&gt;Node17 -->
<g id="edge20" class="edge">
<title>Node3&#45;&gt;Node17</title>
<path fill="none" stroke="midnightblue" d="M644.97,-168.08C640.54,-160.61 634.09,-149.72 628.63,-140.52"/>
<polygon fill="midnightblue" stroke="midnightblue" points="631.55,-138.57 623.44,-131.75 625.53,-142.14 631.55,-138.57"/>
</g>
<!-- Node23 -->
<g id="node23" class="node">
<title>Node23</title>
<g id="a_node23"><a xlink:title=" ">
<polygon fill="white" stroke="#bfbfbf" points="470.25,-112.5 470.25,-131.5 520.25,-131.5 520.25,-112.5 470.25,-112.5"/>
<text text-anchor="middle" x="495.25" y="-119.5" font-family="Helvetica,sans-Serif" font-size="10.00">atomic</text>
</a>
</g>
</g>
<!-- Node3&#45;&gt;Node23 -->
<g id="edge32" class="edge">
<title>Node3&#45;&gt;Node23</title>
<path fill="none" stroke="midnightblue" d="M625.69,-168.44C599.73,-159.4 558.58,-145.06 529.46,-134.92"/>
<polygon fill="midnightblue" stroke="midnightblue" points="530.29,-131.5 519.7,-131.52 527.99,-138.11 530.29,-131.5"/>
</g>
<!-- Node24 -->
<g id="node24" class="node">
<title>Node24</title>
<g id="a_node24"><a xlink:title=" ">
<polygon fill="white" stroke="#bfbfbf" points="1082.75,-0.5 1082.75,-19.5 1161.75,-19.5 1161.75,-0.5 1082.75,-0.5"/>
<text text-anchor="middle" x="1122.25" y="-7.5" font-family="Helvetica,sans-Serif" font-size="10.00">fmt/format.h</text>
</a>
</g>
</g>
<!-- Node3&#45;&gt;Node24 -->
<g id="edge33" class="edge">
<title>Node3&#45;&gt;Node24</title>
<path fill="none" stroke="midnightblue" d="M667.33,-168.44C701.81,-151.13 782.14,-110.69 849.25,-76 866.21,-67.24 869.24,-62.31 887.25,-56 949.16,-34.32 1024.11,-22.26 1072.46,-16.21"/>
<polygon fill="midnightblue" stroke="midnightblue" points="1073.15,-19.65 1082.65,-14.97 1072.31,-12.7 1073.15,-19.65"/>
</g>
<!-- Node25 -->
<g id="node25" class="node">
<title>Node25</title>
<g id="a_node25"><a xlink:title=" ">
<polygon fill="white" stroke="#bfbfbf" points="896.25,-56.5 896.25,-75.5 952.25,-75.5 952.25,-56.5 896.25,-56.5"/>
<text text-anchor="middle" x="924.25" y="-63.5" font-family="Helvetica,sans-Serif" font-size="10.00">optional</text>
</a>
</g>
</g>
<!-- Node3&#45;&gt;Node25 -->
<g id="edge34" class="edge">
<title>Node3&#45;&gt;Node25</title>
<path fill="none" stroke="midnightblue" d="M712.97,-169.82C752.2,-163.57 802.95,-152.21 844.25,-132 869.48,-119.65 893.84,-98.02 908.92,-83.12"/>
<polygon fill="midnightblue" stroke="midnightblue" points="911.76,-85.22 916.29,-75.64 906.77,-80.31 911.76,-85.22"/>
</g>
<!-- Node5 -->
<g id="node5" class="node">
<title>Node5</title>
<g id="a_node5"><a xlink:href="siphash_8h.html" target="_top" xlink:title=" ">
<polygon fill="white" stroke="black" points="14.75,-56.5 14.75,-75.5 109.75,-75.5 109.75,-56.5 14.75,-56.5"/>
<text text-anchor="middle" x="62.25" y="-63.5" font-family="Helvetica,sans-Serif" font-size="10.00">ccf/ds/siphash.h</text>
</a>
</g>
</g>
<!-- Node4&#45;&gt;Node5 -->
<g id="edge4" class="edge">
<title>Node4&#45;&gt;Node5</title>
<path fill="none" stroke="midnightblue" d="M169.13,-112.44C148.23,-103.56 115.32,-89.56 91.54,-79.45"/>
<polygon fill="midnightblue" stroke="midnightblue" points="92.85,-76.21 82.28,-75.52 90.12,-82.65 92.85,-76.21"/>
</g>
<!-- Node7 -->
<g id="node7" class="node">
<title>Node7</title>
<g id="a_node7"><a xlink:title=" ">
<polygon fill="white" stroke="#bfbfbf" points="72.25,-0.5 72.25,-19.5 122.25,-19.5 122.25,-0.5 72.25,-0.5"/>
<text text-anchor="middle" x="97.25" y="-7.5" font-family="Helvetica,sans-Serif" font-size="10.00">cstdint</text>
</a>
</g>
</g>
<!-- Node4&#45;&gt;Node7 -->
<g id="edge9" class="edge">
<title>Node4&#45;&gt;Node7</title>
<path fill="none" stroke="midnightblue" d="M148.89,-116.88C100.22,-110.99 22.77,-98.31 5.25,-76 -14.53,-50.8 28.69,-31.23 62.37,-20.41"/>
<polygon fill="midnightblue" stroke="midnightblue" points="63.46,-23.74 72,-17.46 61.41,-17.04 63.46,-23.74"/>
</g>
<!-- Node4&#45;&gt;Node8 -->
<g id="edge11" class="edge">
<title>Node4&#45;&gt;Node8</title>
<path fill="none" stroke="midnightblue" d="M179.03,-112.4C164.76,-99.37 142.11,-74.18 156.25,-56 173.63,-33.65 252.9,-20.58 299.25,-14.72"/>
<polygon fill="midnightblue" stroke="midnightblue" points="299.94,-18.17 309.44,-13.49 299.09,-11.22 299.94,-18.17"/>
</g>
<!-- Node9 -->
<g id="node9" class="node">
<title>Node9</title>
<g id="a_node9"><a xlink:title=" ">
<polygon fill="white" stroke="#bfbfbf" points="588.25,-0.5 588.25,-19.5 630.25,-19.5 630.25,-0.5 588.25,-0.5"/>
<text text-anchor="middle" x="609.25" y="-7.5" font-family="Helvetica,sans-Serif" font-size="10.00">array</text>
</a>
</g>
</g>
<!-- Node4&#45;&gt;Node9 -->
<g id="edge8" class="edge">
<title>Node4&#45;&gt;Node9</title>
<path fill="none" stroke="midnightblue" d="M229.74,-119.44C288.54,-116.18 400.35,-106.21 490.25,-76 526.93,-63.68 565.56,-40.38 588.52,-25.29"/>
<polygon fill="midnightblue" stroke="midnightblue" points="590.71,-28.04 597.07,-19.56 586.81,-22.22 590.71,-28.04"/>
</g>
<!-- Node10 -->
<g id="node10" class="node">
<title>Node10</title>
<g id="a_node10"><a xlink:title=" ">
<polygon fill="white" stroke="#bfbfbf" points="165.75,-56.5 165.75,-75.5 314.75,-75.5 314.75,-56.5 165.75,-56.5"/>
<text text-anchor="middle" x="240.25" y="-63.5" font-family="Helvetica,sans-Serif" font-size="10.00">small_vector/SmallVector.h</text>
</a>
</g>
</g>
<!-- Node4&#45;&gt;Node10 -->
<g id="edge10" class="edge">
<title>Node4&#45;&gt;Node10</title>
<path fill="none" stroke="midnightblue" d="M197.67,-112.08C205.1,-104.22 216.1,-92.57 225.06,-83.08"/>
<polygon fill="midnightblue" stroke="midnightblue" points="227.67,-85.42 231.99,-75.75 222.58,-80.62 227.67,-85.42"/>
</g>
<!-- Node6 -->
<g id="node6" class="node">
<title>Node6</title>
<g id="a_node6"><a xlink:title=" ">
<polygon fill="white" stroke="#bfbfbf" points="0.75,-0.5 0.75,-19.5 53.75,-19.5 53.75,-0.5 0.75,-0.5"/>
<text text-anchor="middle" x="27.25" y="-7.5" font-family="Helvetica,sans-Serif" font-size="10.00">cstddef</text>
</a>
</g>
</g>
<!-- Node5&#45;&gt;Node6 -->
<g id="edge5" class="edge">
<title>Node5&#45;&gt;Node6</title>
<path fill="none" stroke="midnightblue" d="M56.47,-56.08C51.58,-48.53 44.43,-37.49 38.42,-28.23"/>
<polygon fill="midnightblue" stroke="midnightblue" points="41.3,-26.24 32.92,-19.75 35.43,-30.05 41.3,-26.24"/>
</g>
<!-- Node5&#45;&gt;Node7 -->
<g id="edge6" class="edge">
<title>Node5&#45;&gt;Node7</title>
<path fill="none" stroke="midnightblue" d="M68.03,-56.08C72.92,-48.53 80.08,-37.49 86.09,-28.23"/>
<polygon fill="midnightblue" stroke="midnightblue" points="89.08,-30.05 91.58,-19.75 83.2,-26.24 89.08,-30.05"/>
</g>
<!-- Node5&#45;&gt;Node8 -->
<g id="edge7" class="edge">
<title>Node5&#45;&gt;Node8</title>
<path fill="none" stroke="midnightblue" d="M105.19,-56.44C159.12,-45.7 250.5,-27.49 299.63,-17.7"/>
<polygon fill="midnightblue" stroke="midnightblue" points="300.31,-21.13 309.44,-15.75 298.95,-14.27 300.31,-21.13"/>
</g>
<!-- Node11&#45;&gt;Node8 -->
<g id="edge19" class="edge">
<title>Node11&#45;&gt;Node8</title>
<path fill="none" stroke="midnightblue" d="M636.24,-57.54C632.86,-57.01 629.51,-56.49 626.25,-56 513.63,-39.02 481.62,-43.63 366.81,-20.1"/>
<polygon fill="midnightblue" stroke="midnightblue" points="367.43,-16.66 356.93,-18.05 366.01,-23.51 367.43,-16.66"/>
</g>
<!-- Node11&#45;&gt;Node9 -->
<g id="edge14" class="edge">
<title>Node11&#45;&gt;Node9</title>
<path fill="none" stroke="midnightblue" d="M669.68,-56.32C658.83,-48.18 642.37,-35.84 629.37,-26.09"/>
<polygon fill="midnightblue" stroke="midnightblue" points="631.13,-23.03 621.03,-19.83 626.93,-28.63 631.13,-23.03"/>
</g>
<!-- Node12 -->
<g id="node12" class="node">
<title>Node12</title>
<g id="a_node12"><a xlink:title=" ">
<polygon fill="white" stroke="#bfbfbf" points="648.25,-0.5 648.25,-19.5 712.25,-19.5 712.25,-0.5 648.25,-0.5"/>
<text text-anchor="middle" x="680.25" y="-7.5" font-family="Helvetica,sans-Serif" font-size="10.00">algorithm</text>
</a>
</g>
</g>
<!-- Node11&#45;&gt;Node12 -->
<g id="edge13" class="edge">
<title>Node11&#45;&gt;Node12</title>
<path fill="none" stroke="midnightblue" d="M681.09,-56.08C680.96,-49.01 680.77,-38.86 680.6,-29.99"/>
<polygon fill="midnightblue" stroke="midnightblue" points="684.1,-29.68 680.41,-19.75 677.1,-29.81 684.1,-29.68"/>
</g>
<!-- Node13 -->
<g id="node13" class="node">
<title>Node13</title>
<g id="a_node13"><a xlink:title=" ">
<polygon fill="white" stroke="#bfbfbf" points="730.75,-0.5 730.75,-19.5 779.75,-19.5 779.75,-0.5 730.75,-0.5"/>
<text text-anchor="middle" x="755.25" y="-7.5" font-family="Helvetica,sans-Serif" font-size="10.00">cctype</text>
</a>
</g>
</g>
<!-- Node11&#45;&gt;Node13 -->
<g id="edge15" class="edge">
<title>Node11&#45;&gt;Node13</title>
<path fill="none" stroke="midnightblue" d="M693.14,-56.32C704.4,-48.11 721.54,-35.6 734.96,-25.81"/>
<polygon fill="midnightblue" stroke="midnightblue" points="737.13,-28.56 743.15,-19.83 733.01,-22.9 737.13,-28.56"/>
</g>
<!-- Node11&#45;&gt;Node14 -->
<g id="edge16" class="edge">
<title>Node11&#45;&gt;Node14</title>
<path fill="none" stroke="midnightblue" d="M660.18,-56.44C638.19,-47.52 603.52,-33.44 578.59,-23.32"/>
<polygon fill="midnightblue" stroke="midnightblue" points="579.81,-20.04 569.23,-19.52 577.18,-26.52 579.81,-20.04"/>
</g>
<!-- Node15 -->
<g id="node15" class="node">
<title>Node15</title>
<g id="a_node15"><a xlink:title=" ">
<polygon fill="white" stroke="#bfbfbf" points="797.75,-0.5 797.75,-19.5 870.75,-19.5 870.75,-0.5 797.75,-0.5"/>
<text text-anchor="middle" x="834.25" y="-7.5" font-family="Helvetica,sans-Serif" font-size="10.00">string_view</text>
</a>
</g>
</g>
<!-- Node11&#45;&gt;Node15 -->
<g id="edge17" class="edge">
<title>Node11&#45;&gt;Node15</title>
<path fill="none" stroke="midnightblue" d="M705.5,-56.44C731.12,-47.4 771.74,-33.06 800.49,-22.92"/>
<polygon fill="midnightblue" stroke="midnightblue" points="801.86,-26.15 810.12,-19.52 799.53,-19.54 801.86,-26.15"/>
</g>
<!-- Node16 -->
<g id="node16" class="node">
<title>Node16</title>
<g id="a_node16"><a xlink:title=" ">
<polygon fill="white" stroke="#bfbfbf" points="888.75,-0.5 888.75,-19.5 957.75,-19.5 957.75,-0.5 888.75,-0.5"/>
<text text-anchor="middle" x="923.25" y="-7.5" font-family="Helvetica,sans-Serif" font-size="10.00">type_traits</text>
</a>
</g>
</g>
<!-- Node11&#45;&gt;Node16 -->
<g id="edge18" class="edge">
<title>Node11&#45;&gt;Node16</title>
<path fill="none" stroke="midnightblue" d="M719.6,-56.44C762.84,-46.79 833.06,-31.12 878.7,-20.94"/>
<polygon fill="midnightblue" stroke="midnightblue" points="879.62,-24.32 888.62,-18.73 878.09,-17.49 879.62,-24.32"/>
</g>
<!-- Node17&#45;&gt;Node8 -->
<g id="edge31" class="edge">
<title>Node17&#45;&gt;Node8</title>
<path fill="none" stroke="midnightblue" d="M583.07,-116.25C529.57,-108.62 430.67,-92.77 399.25,-76 377.19,-64.23 357.58,-42.78 345.58,-27.75"/>
<polygon fill="midnightblue" stroke="midnightblue" points="348.31,-25.55 339.44,-19.76 342.76,-29.82 348.31,-25.55"/>
</g>
<!-- Node17&#45;&gt;Node11 -->
<g id="edge21" class="edge">
<title>Node17&#45;&gt;Node11</title>
<path fill="none" stroke="midnightblue" d="M628.37,-112.32C637.78,-104.26 652,-92.08 663.32,-82.37"/>
<polygon fill="midnightblue" stroke="midnightblue" points="665.63,-85 670.95,-75.83 661.08,-79.68 665.63,-85"/>
</g>
<!-- Node17&#45;&gt;Node16 -->
<g id="edge30" class="edge">
<title>Node17&#45;&gt;Node16</title>
<path fill="none" stroke="midnightblue" d="M643.25,-112.35C667.18,-103.84 704.14,-90.11 735.25,-76 752.63,-68.12 755.59,-63.22 773.25,-56 807.85,-41.86 848.54,-29.93 878.81,-21.92"/>
<polygon fill="midnightblue" stroke="midnightblue" points="879.85,-25.26 888.65,-19.35 878.09,-18.49 879.85,-25.26"/>
</g>
<!-- Node18 -->
<g id="node18" class="node">
<title>Node18</title>
<g id="a_node18"><a xlink:href="serialized_8h.html" target="_top" xlink:title=" ">
<polygon fill="white" stroke="black" points="408.75,-56.5 408.75,-75.5 481.75,-75.5 481.75,-56.5 408.75,-56.5"/>
<text text-anchor="middle" x="445.25" y="-63.5" font-family="Helvetica,sans-Serif" font-size="10.00">serialized.h</text>
</a>
</g>
</g>
<!-- Node17&#45;&gt;Node18 -->
<g id="edge22" class="edge">
<title>Node17&#45;&gt;Node18</title>
<path fill="none" stroke="midnightblue" d="M590.84,-112.44C561.48,-103.28 514.73,-88.69 482.16,-78.52"/>
<polygon fill="midnightblue" stroke="midnightblue" points="483.13,-75.16 472.54,-75.52 481.04,-81.84 483.13,-75.16"/>
</g>
<!-- Node21 -->
<g id="node21" class="node">
<title>Node21</title>
<g id="a_node21"><a xlink:title=" ">
<polygon fill="white" stroke="#bfbfbf" points="782.25,-56.5 782.25,-75.5 840.25,-75.5 840.25,-56.5 782.25,-56.5"/>
<text text-anchor="middle" x="811.25" y="-63.5" font-family="Helvetica,sans-Serif" font-size="10.00">memory</text>
</a>
</g>
</g>
<!-- Node17&#45;&gt;Node21 -->
<g id="edge28" class="edge">
<title>Node17&#45;&gt;Node21</title>
<path fill="none" stroke="midnightblue" d="M648.83,-112.44C682.26,-103.09 735.88,-88.09 772.3,-77.9"/>
<polygon fill="midnightblue" stroke="midnightblue" points="773.39,-81.23 782.08,-75.16 771.5,-74.49 773.39,-81.23"/>
</g>
<!-- Node22 -->
<g id="node22" class="node">
<title>Node22</title>
<g id="a_node22"><a xlink:title=" ">
<polygon fill="white" stroke="#bfbfbf" points="576.75,-56.5 576.75,-75.5 617.75,-75.5 617.75,-56.5 576.75,-56.5"/>
<text text-anchor="middle" x="597.25" y="-63.5" font-family="Helvetica,sans-Serif" font-size="10.00">tuple</text>
</a>
</g>
</g>
<!-- Node17&#45;&gt;Node22 -->
<g id="edge29" class="edge">
<title>Node17&#45;&gt;Node22</title>
<path fill="none" stroke="midnightblue" d="M614.78,-112.08C611.94,-104.77 607.82,-94.18 604.29,-85.1"/>
<polygon fill="midnightblue" stroke="midnightblue" points="607.54,-83.8 600.66,-75.75 601.02,-86.34 607.54,-83.8"/>
</g>
<!-- Node18&#45;&gt;Node7 -->
<g id="edge23" class="edge">
<title>Node18&#45;&gt;Node7</title>
<path fill="none" stroke="midnightblue" d="M408.67,-59.32C341.42,-48.89 198.97,-26.78 132.63,-16.49"/>
<polygon fill="midnightblue" stroke="midnightblue" points="133.08,-13.02 122.66,-14.94 132,-19.93 133.08,-13.02"/>
</g>
<!-- Node18&#45;&gt;Node8 -->
<g id="edge27" class="edge">
<title>Node18&#45;&gt;Node8</title>
<path fill="none" stroke="midnightblue" d="M427.26,-56.32C409.21,-47.62 381.21,-34.12 360.45,-24.11"/>
<polygon fill="midnightblue" stroke="midnightblue" points="361.73,-20.84 351.2,-19.65 358.69,-27.15 361.73,-20.84"/>
</g>
<!-- Node18&#45;&gt;Node14 -->
<g id="edge26" class="edge">
<title>Node18&#45;&gt;Node14</title>
<path fill="none" stroke="midnightblue" d="M461.8,-56.32C478.24,-47.7 503.69,-34.36 522.72,-24.39"/>
<polygon fill="midnightblue" stroke="midnightblue" points="524.51,-27.4 531.74,-19.65 521.26,-21.2 524.51,-27.4"/>
</g>
<!-- Node19 -->
<g id="node19" class="node">
<title>Node19</title>
<g id="a_node19"><a xlink:title=" ">
<polygon fill="white" stroke="#bfbfbf" points="458.25,-0.5 458.25,-19.5 508.25,-19.5 508.25,-0.5 458.25,-0.5"/>
<text text-anchor="middle" x="483.25" y="-7.5" font-family="Helvetica,sans-Serif" font-size="10.00">cstring</text>
</a>
</g>
</g>
<!-- Node18&#45;&gt;Node19 -->
<g id="edge24" class="edge">
<title>Node18&#45;&gt;Node19</title>
<path fill="none" stroke="midnightblue" d="M451.53,-56.08C456.9,-48.46 464.77,-37.26 471.33,-27.94"/>
<polygon fill="midnightblue" stroke="midnightblue" points="474.2,-29.94 477.09,-19.75 468.48,-25.91 474.2,-29.94"/>
</g>
<!-- Node20 -->
<g id="node20" class="node">
<title>Node20</title>
<g id="a_node20"><a xlink:title=" ">
<polygon fill="white" stroke="#bfbfbf" points="374.75,-0.5 374.75,-19.5 439.75,-19.5 439.75,-0.5 374.75,-0.5"/>
<text text-anchor="middle" x="407.25" y="-7.5" font-family="Helvetica,sans-Serif" font-size="10.00">stdexcept</text>
</a>
</g>
</g>
<!-- Node18&#45;&gt;Node20 -->
<g id="edge25" class="edge">
<title>Node18&#45;&gt;Node20</title>
<path fill="none" stroke="midnightblue" d="M438.98,-56.08C433.61,-48.46 425.74,-37.26 419.17,-27.94"/>
<polygon fill="midnightblue" stroke="midnightblue" points="422.03,-25.91 413.41,-19.75 416.3,-29.94 422.03,-25.91"/>
</g>
<!-- Node26&#45;&gt;Node3 -->
<g id="edge38" class="edge">
<title>Node26&#45;&gt;Node3</title>
<path fill="none" stroke="midnightblue" d="M731.67,-224.32C716.25,-215.74 692.44,-202.49 674.54,-192.52"/>
<polygon fill="midnightblue" stroke="midnightblue" points="676.24,-189.46 665.8,-187.65 672.83,-195.58 676.24,-189.46"/>
</g>
<!-- Node27&#45;&gt;Node25 -->
<g id="edge76" class="edge">
<title>Node27&#45;&gt;Node25</title>
<path fill="none" stroke="midnightblue" d="M1113.73,-230.94C1069.69,-226.08 968.24,-212.45 945.25,-188 919.18,-160.26 919.26,-112.34 921.7,-85.9"/>
<polygon fill="midnightblue" stroke="midnightblue" points="925.2,-86.03 922.86,-75.7 918.25,-85.24 925.2,-86.03"/>
</g>
<!-- Node28 -->
<g id="node28" class="node">
<title>Node28</title>
<g id="a_node28"><a xlink:href="before__io_8h.html" target="_top" xlink:title=" ">
<polygon fill="white" stroke="black" points="962.75,-168.5 962.75,-187.5 1033.75,-187.5 1033.75,-168.5 962.75,-168.5"/>
<text text-anchor="middle" x="998.25" y="-175.5" font-family="Helvetica,sans-Serif" font-size="10.00">before_io.h</text>
</a>
</g>
</g>
<!-- Node27&#45;&gt;Node28 -->
<g id="edge40" class="edge">
<title>Node27&#45;&gt;Node28</title>
<path fill="none" stroke="midnightblue" d="M1113.6,-224.8C1091.19,-215.9 1055.18,-201.6 1029.35,-191.35"/>
<polygon fill="midnightblue" stroke="midnightblue" points="1030.59,-188.07 1020,-187.64 1028.01,-194.58 1030.59,-188.07"/>
</g>
<!-- Node29 -->
<g id="node29" class="node">
<title>Node29</title>
<g id="a_node29"><a xlink:href="logger_8h.html" target="_top" xlink:title=" ">
<polygon fill="white" stroke="black" points="1204.75,-112.5 1204.75,-131.5 1291.75,-131.5 1291.75,-112.5 1204.75,-112.5"/>
<text text-anchor="middle" x="1248.25" y="-119.5" font-family="Helvetica,sans-Serif" font-size="10.00">ccf/ds/logger.h</text>
</a>
</g>
</g>
<!-- Node27&#45;&gt;Node29 -->
<g id="edge61" class="edge">
<title>Node27&#45;&gt;Node29</title>
<path fill="none" stroke="midnightblue" d="M1135.38,-224.38C1137.55,-210.85 1143.49,-184.49 1158.25,-168 1171.73,-152.96 1191.38,-142.33 1208.89,-135.19"/>
<polygon fill="midnightblue" stroke="midnightblue" points="1210.25,-138.41 1218.34,-131.57 1207.75,-131.87 1210.25,-138.41"/>
</g>
<!-- Node41 -->
<g id="node41" class="node">
<title>Node41</title>
<g id="a_node41"><a xlink:href="proxy_8h.html" target="_top" xlink:title=" ">
<polygon fill="white" stroke="black" points="963.25,-112.5 963.25,-131.5 1015.25,-131.5 1015.25,-112.5 963.25,-112.5"/>
<text text-anchor="middle" x="989.25" y="-119.5" font-family="Helvetica,sans-Serif" font-size="10.00">proxy.h</text>
</a>
</g>
</g>
<!-- Node27&#45;&gt;Node41 -->
<g id="edge71" class="edge">
<title>Node27&#45;&gt;Node41</title>
<path fill="none" stroke="midnightblue" d="M1113.74,-230.99C1070.82,-226.31 973.88,-213.14 954.25,-188 942.14,-172.49 957.15,-152.2 971.11,-138.44"/>
<polygon fill="midnightblue" stroke="midnightblue" points="973.6,-140.9 978.57,-131.54 968.85,-135.76 973.6,-140.9"/>
</g>
<!-- Node43 -->
<g id="node43" class="node">
<title>Node43</title>
<g id="a_node43"><a xlink:href="locking_8h.html" target="_top" xlink:title=" ">
<polygon fill="white" stroke="black" points="1414.25,-112.5 1414.25,-131.5 1510.25,-131.5 1510.25,-112.5 1414.25,-112.5"/>
<text text-anchor="middle" x="1462.25" y="-119.5" font-family="Helvetica,sans-Serif" font-size="10.00">ccf/pal/locking.h</text>
</a>
</g>
</g>
<!-- Node27&#45;&gt;Node43 -->
<g id="edge62" class="edge">
<title>Node27&#45;&gt;Node43</title>
<path fill="none" stroke="midnightblue" d="M1154.89,-226.75C1158.03,-225.81 1161.22,-224.87 1164.25,-224 1221.86,-207.39 1237.34,-206.84 1294.25,-188 1343.36,-171.75 1399.13,-149.36 1432.47,-135.56"/>
<polygon fill="midnightblue" stroke="midnightblue" points="1434.17,-138.64 1442.06,-131.56 1431.48,-132.17 1434.17,-138.64"/>
</g>
<!-- Node45 -->
<g id="node45" class="node">
<title>Node45</title>
<g id="a_node45"><a xlink:href="dns_8h.html" target="_top" xlink:title=" ">
<polygon fill="white" stroke="black" points="1241.75,-168.5 1241.75,-187.5 1284.75,-187.5 1284.75,-168.5 1241.75,-168.5"/>
<text text-anchor="middle" x="1263.25" y="-175.5" font-family="Helvetica,sans-Serif" font-size="10.00">dns.h</text>
</a>
</g>
</g>
<!-- Node27&#45;&gt;Node45 -->
<g id="edge64" class="edge">
<title>Node27&#45;&gt;Node45</title>
<path fill="none" stroke="midnightblue" d="M1154.69,-224.44C1175.92,-215.56 1209.35,-201.56 1233.51,-191.45"/>
<polygon fill="midnightblue" stroke="midnightblue" points="1235.03,-194.61 1242.91,-187.52 1232.33,-188.15 1235.03,-194.61"/>
</g>
<!-- Node47 -->
<g id="node47" class="node">
<title>Node47</title>
<g id="a_node47"><a xlink:href="pending__io_8h.html" target="_top" xlink:title=" ">
<polygon fill="white" stroke="black" points="1379.75,-168.5 1379.75,-187.5 1472.75,-187.5 1472.75,-168.5 1379.75,-168.5"/>
<text text-anchor="middle" x="1426.25" y="-175.5" font-family="Helvetica,sans-Serif" font-size="10.00">ds/pending_io.h</text>
</a>
</g>
</g>
<!-- Node27&#45;&gt;Node47 -->
<g id="edge69" class="edge">
<title>Node27&#45;&gt;Node47</title>
<path fill="none" stroke="midnightblue" d="M1154.82,-226.47C1157.96,-225.58 1161.18,-224.72 1164.25,-224 1202.26,-215.07 1304.48,-198.29 1369.42,-187.93"/>
<polygon fill="midnightblue" stroke="midnightblue" points="1370.19,-191.35 1379.51,-186.33 1369.09,-184.44 1370.19,-191.35"/>
</g>
<!-- Node49 -->
<g id="node49" class="node">
<title>Node49</title>
<g id="a_node49"><a xlink:href="socket_8h.html" target="_top" xlink:title=" ">
<polygon fill="white" stroke="black" points="1166.75,-168.5 1166.75,-187.5 1223.75,-187.5 1223.75,-168.5 1166.75,-168.5"/>
<text text-anchor="middle" x="1195.25" y="-175.5" font-family="Helvetica,sans-Serif" font-size="10.00">socket.h</text>
</a>
</g>
</g>
<!-- Node27&#45;&gt;Node49 -->
<g id="edge72" class="edge">
<title>Node27&#45;&gt;Node49</title>
<path fill="none" stroke="midnightblue" d="M1144.05,-224.32C1153.07,-216.34 1166.66,-204.31 1177.57,-194.65"/>
<polygon fill="midnightblue" stroke="midnightblue" points="1180.11,-197.08 1185.27,-187.83 1175.47,-191.84 1180.11,-197.08"/>
</g>
<!-- Node50 -->
<g id="node50" class="node">
<title>Node50</title>
<g id="a_node50"><a xlink:title=" ">
<polygon fill="white" stroke="#bfbfbf" points="796.25,-168.5 796.25,-187.5 868.25,-187.5 868.25,-168.5 796.25,-168.5"/>
<text text-anchor="middle" x="832.25" y="-175.5" font-family="Helvetica,sans-Serif" font-size="10.00">netinet/in.h</text>
</a>
</g>
</g>
<!-- Node27&#45;&gt;Node50 -->
<g id="edge75" class="edge">
<title>Node27&#45;&gt;Node50</title>
<path fill="none" stroke="midnightblue" d="M1113.67,-229.33C1070.68,-221.68 968.21,-203.41 882.25,-188 880.98,-187.77 879.7,-187.54 878.4,-187.31"/>
<polygon fill="midnightblue" stroke="midnightblue" points="878.76,-183.82 868.3,-185.49 877.53,-190.71 878.76,-183.82"/>
</g>
<!-- Node28&#45;&gt;Node29 -->
<g id="edge41" class="edge">
<title>Node28&#45;&gt;Node29</title>
<path fill="none" stroke="midnightblue" d="M1033.81,-169.32C1076.97,-160 1150.03,-144.22 1198.7,-133.7"/>
<polygon fill="midnightblue" stroke="midnightblue" points="1199.66,-137.08 1208.7,-131.54 1198.18,-130.23 1199.66,-137.08"/>
</g>
<!-- Node28&#45;&gt;Node41 -->
<g id="edge58" class="edge">
<title>Node28&#45;&gt;Node41</title>
<path fill="none" stroke="midnightblue" d="M996.77,-168.08C995.57,-160.93 993.86,-150.64 992.37,-141.69"/>
<polygon fill="midnightblue" stroke="midnightblue" points="995.81,-141.04 990.71,-131.75 988.9,-142.19 995.81,-141.04"/>
</g>
<!-- Node29&#45;&gt;Node16 -->
<g id="edge57" class="edge">
<title>Node29&#45;&gt;Node16</title>
<path fill="none" stroke="midnightblue" d="M1212.38,-112.43C1178.91,-104.14 1127.75,-90.69 1084.25,-76 1036.89,-60 983.33,-37.45 951.47,-23.55"/>
<polygon fill="midnightblue" stroke="midnightblue" points="952.88,-20.35 942.31,-19.54 950.06,-26.76 952.88,-20.35"/>
</g>
<!-- Node29&#45;&gt;Node24 -->
<g id="edge52" class="edge">
<title>Node29&#45;&gt;Node24</title>
<path fill="none" stroke="midnightblue" d="M1204.5,-114.26C1163.54,-106.94 1106.67,-93.87 1093.25,-76 1082.07,-61.11 1094.11,-41.22 1105.9,-27.38"/>
<polygon fill="midnightblue" stroke="midnightblue" points="1108.82,-29.38 1113,-19.65 1103.66,-24.65 1108.82,-29.38"/>
</g>
<!-- Node29&#45;&gt;Node25 -->
<g id="edge55" class="edge">
<title>Node29&#45;&gt;Node25</title>
<path fill="none" stroke="midnightblue" d="M1204.46,-115.17C1148.19,-107.44 1047.57,-92.79 962.25,-76 962.15,-75.98 962.05,-75.96 961.95,-75.94"/>
<polygon fill="midnightblue" stroke="midnightblue" points="962.93,-72.57 952.42,-73.92 961.48,-79.42 962.93,-72.57"/>
</g>
<!-- Node30 -->
<g id="node30" class="node">
<title>Node30</title>
<g id="a_node30"><a xlink:href="enum__formatter_8h.html" target="_top" xlink:title=" ">
<polygon fill="white" stroke="black" points="1102.25,-56.5 1102.25,-75.5 1238.25,-75.5 1238.25,-56.5 1102.25,-56.5"/>
<text text-anchor="middle" x="1170.25" y="-63.5" font-family="Helvetica,sans-Serif" font-size="10.00">ccf/ds/enum_formatter.h</text>
</a>
</g>
</g>
<!-- Node29&#45;&gt;Node30 -->
<g id="edge42" class="edge">
<title>Node29&#45;&gt;Node30</title>
<path fill="none" stroke="midnightblue" d="M1235.72,-112.32C1223.67,-103.98 1205.23,-91.21 1190.98,-81.35"/>
<polygon fill="midnightblue" stroke="midnightblue" points="1192.97,-78.47 1182.75,-75.65 1188.98,-84.22 1192.97,-78.47"/>
</g>
<!-- Node31 -->
<g id="node31" class="node">
<title>Node31</title>
<g id="a_node31"><a xlink:href="thread__ids_8h.html" target="_top" xlink:title=" ">
<polygon fill="white" stroke="black" points="1633.25,-56.5 1633.25,-75.5 1741.25,-75.5 1741.25,-56.5 1633.25,-56.5"/>
<text text-anchor="middle" x="1687.25" y="-63.5" font-family="Helvetica,sans-Serif" font-size="10.00">ccf/ds/thread_ids.h</text>
</a>
</g>
</g>
<!-- Node29&#45;&gt;Node31 -->
<g id="edge44" class="edge">
<title>Node29&#45;&gt;Node31</title>
<path fill="none" stroke="midnightblue" d="M1291.89,-113.39C1295.06,-112.9 1298.2,-112.43 1301.25,-112 1441.08,-92.35 1479.26,-94.12 1622.9,-76.13"/>
<polygon fill="midnightblue" stroke="midnightblue" points="1623.49,-79.59 1632.97,-74.86 1622.61,-72.64 1623.49,-79.59"/>
</g>
<!-- Node37 -->
<g id="node37" class="node">
<title>Node37</title>
<g id="a_node37"><a xlink:title=" ">
<polygon fill="white" stroke="#bfbfbf" points="1256.75,-56.5 1256.75,-75.5 1335.75,-75.5 1335.75,-56.5 1256.75,-56.5"/>
<text text-anchor="middle" x="1296.25" y="-63.5" font-family="Helvetica,sans-Serif" font-size="10.00">fmt/chrono.h</text>
</a>
</g>
</g>
<!-- Node29&#45;&gt;Node37 -->
<g id="edge51" class="edge">
<title>Node29&#45;&gt;Node37</title>
<path fill="none" stroke="midnightblue" d="M1256.18,-112.08C1263.1,-104.3 1273.32,-92.8 1281.7,-83.37"/>
<polygon fill="midnightblue" stroke="midnightblue" points="1284.45,-85.55 1288.47,-75.75 1279.21,-80.9 1284.45,-85.55"/>
</g>
<!-- Node38 -->
<g id="node38" class="node">
<title>Node38</title>
<g id="a_node38"><a xlink:title=" ">
<polygon fill="white" stroke="#bfbfbf" points="1353.25,-56.5 1353.25,-75.5 1413.25,-75.5 1413.25,-56.5 1353.25,-56.5"/>
<text text-anchor="middle" x="1383.25" y="-63.5" font-family="Helvetica,sans-Serif" font-size="10.00">iostream</text>
</a>
</g>
</g>
<!-- Node29&#45;&gt;Node38 -->
<g id="edge53" class="edge">
<title>Node29&#45;&gt;Node38</title>
<path fill="none" stroke="midnightblue" d="M1269.64,-112.44C1291.96,-103.52 1327.16,-89.44 1352.46,-79.32"/>
<polygon fill="midnightblue" stroke="midnightblue" points="1353.98,-82.48 1361.96,-75.52 1351.38,-75.98 1353.98,-82.48"/>
</g>
<!-- Node39 -->
<g id="node39" class="node">
<title>Node39</title>
<g id="a_node39"><a xlink:title=" ">
<polygon fill="white" stroke="#bfbfbf" points="1431.25,-56.5 1431.25,-75.5 1541.25,-75.5 1541.25,-56.5 1431.25,-56.5"/>
<text text-anchor="middle" x="1486.25" y="-63.5" font-family="Helvetica,sans-Serif" font-size="10.00">nlohmann/json.hpp</text>
</a>
</g>
</g>
<!-- Node29&#45;&gt;Node39 -->
<g id="edge54" class="edge">
<title>Node29&#45;&gt;Node39</title>
<path fill="none" stroke="midnightblue" d="M1285.96,-112.44C1327.4,-103.04 1394.01,-87.93 1438.92,-77.74"/>
<polygon fill="midnightblue" stroke="midnightblue" points="1439.74,-81.14 1448.72,-75.52 1438.19,-74.32 1439.74,-81.14"/>
</g>
<!-- Node40 -->
<g id="node40" class="node">
<title>Node40</title>
<g id="a_node40"><a xlink:title=" ">
<polygon fill="white" stroke="#bfbfbf" points="1559.25,-56.5 1559.25,-75.5 1615.25,-75.5 1615.25,-56.5 1559.25,-56.5"/>
<text text-anchor="middle" x="1587.25" y="-63.5" font-family="Helvetica,sans-Serif" font-size="10.00">sstream</text>
</a>
</g>
</g>
<!-- Node29&#45;&gt;Node40 -->
<g id="edge56" class="edge">
<title>Node29&#45;&gt;Node40</title>
<path fill="none" stroke="midnightblue" d="M1291.91,-113.5C1295.07,-112.98 1298.21,-112.48 1301.25,-112 1408.59,-95.13 1438.78,-97.11 1549.17,-76.06"/>
<polygon fill="midnightblue" stroke="midnightblue" points="1549.87,-79.49 1559.03,-74.16 1548.55,-72.61 1549.87,-79.49"/>
</g>
<!-- Node30&#45;&gt;Node24 -->
<g id="edge43" class="edge">
<title>Node30&#45;&gt;Node24</title>
<path fill="none" stroke="midnightblue" d="M1162.33,-56.08C1155.41,-48.3 1145.19,-36.8 1136.8,-27.37"/>
<polygon fill="midnightblue" stroke="midnightblue" points="1139.29,-24.9 1130.03,-19.75 1134.06,-29.55 1139.29,-24.9"/>
</g>
<!-- Node31&#45;&gt;Node24 -->
<g id="edge45" class="edge">
<title>Node31&#45;&gt;Node24</title>
<path fill="none" stroke="midnightblue" d="M1632.98,-57.06C1630.03,-56.69 1627.11,-56.33 1624.25,-56 1459.13,-36.82 1262.62,-21.32 1172.25,-14.61"/>
<polygon fill="midnightblue" stroke="midnightblue" points="1172.25,-11.1 1162.02,-13.85 1171.74,-18.08 1172.25,-11.1"/>
</g>
<!-- Node32 -->
<g id="node32" class="node">
<title>Node32</title>
<g id="a_node32"><a xlink:title=" ">
<polygon fill="white" stroke="#bfbfbf" points="1790.25,-0.5 1790.25,-19.5 1876.25,-19.5 1876.25,-0.5 1790.25,-0.5"/>
<text text-anchor="middle" x="1833.25" y="-7.5" font-family="Helvetica,sans-Serif" font-size="10.00">fmt/ostream.h</text>
</a>
</g>
</g>
<!-- Node31&#45;&gt;Node32 -->
<g id="edge46" class="edge">
<title>Node31&#45;&gt;Node32</title>
<path fill="none" stroke="midnightblue" d="M1710.39,-56.44C1734.73,-47.44 1773.26,-33.19 1800.68,-23.05"/>
<polygon fill="midnightblue" stroke="midnightblue" points="1802.06,-26.27 1810.23,-19.52 1799.63,-19.7 1802.06,-26.27"/>
</g>
<!-- Node33 -->
<g id="node33" class="node">
<title>Node33</title>
<g id="a_node33"><a xlink:title=" ">
<polygon fill="white" stroke="#bfbfbf" points="1526.75,-0.5 1526.75,-19.5 1587.75,-19.5 1587.75,-0.5 1526.75,-0.5"/>
<text text-anchor="middle" x="1557.25" y="-7.5" font-family="Helvetica,sans-Serif" font-size="10.00">fmt/std.h</text>
</a>
</g>
</g>
<!-- Node31&#45;&gt;Node33 -->
<g id="edge47" class="edge">
<title>Node31&#45;&gt;Node33</title>
<path fill="none" stroke="midnightblue" d="M1666.65,-56.44C1645.26,-47.56 1611.57,-33.56 1587.23,-23.45"/>
<polygon fill="midnightblue" stroke="midnightblue" points="1588.33,-20.12 1577.76,-19.52 1585.65,-26.58 1588.33,-20.12"/>
</g>
<!-- Node34 -->
<g id="node34" class="node">
<title>Node34</title>
<g id="a_node34"><a xlink:title=" ">
<polygon fill="white" stroke="#bfbfbf" points="1606.25,-0.5 1606.25,-19.5 1650.25,-19.5 1650.25,-0.5 1606.25,-0.5"/>
<text text-anchor="middle" x="1628.25" y="-7.5" font-family="Helvetica,sans-Serif" font-size="10.00">limits</text>
</a>
</g>
</g>
<!-- Node31&#45;&gt;Node34 -->
<g id="edge48" class="edge">
<title>Node31&#45;&gt;Node34</title>
<path fill="none" stroke="midnightblue" d="M1677.77,-56.32C1669.05,-48.34 1655.91,-36.31 1645.35,-26.65"/>
<polygon fill="midnightblue" stroke="midnightblue" points="1647.64,-24 1637.9,-19.83 1642.92,-29.17 1647.64,-24"/>
</g>
<!-- Node35 -->
<g id="node35" class="node">
<title>Node35</title>
<g id="a_node35"><a xlink:title=" ">
<polygon fill="white" stroke="#bfbfbf" points="1668.25,-0.5 1668.25,-19.5 1706.25,-19.5 1706.25,-0.5 1668.25,-0.5"/>
<text text-anchor="middle" x="1687.25" y="-7.5" font-family="Helvetica,sans-Serif" font-size="10.00">map</text>
</a>
</g>
</g>
<!-- Node31&#45;&gt;Node35 -->
<g id="edge49" class="edge">
<title>Node31&#45;&gt;Node35</title>
<path fill="none" stroke="midnightblue" d="M1687.25,-56.08C1687.25,-49.01 1687.25,-38.86 1687.25,-29.99"/>
<polygon fill="midnightblue" stroke="midnightblue" points="1690.75,-29.75 1687.25,-19.75 1683.75,-29.75 1690.75,-29.75"/>
</g>
<!-- Node36 -->
<g id="node36" class="node">
<title>Node36</title>
<g id="a_node36"><a xlink:title=" ">
<polygon fill="white" stroke="#bfbfbf" points="1724.25,-0.5 1724.25,-19.5 1772.25,-19.5 1772.25,-0.5 1724.25,-0.5"/>
<text text-anchor="middle" x="1748.25" y="-7.5" font-family="Helvetica,sans-Serif" font-size="10.00">thread</text>
</a>
</g>
</g>
<!-- Node31&#45;&gt;Node36 -->
<g id="edge50" class="edge">
<title>Node31&#45;&gt;Node36</title>
<path fill="none" stroke="midnightblue" d="M1697.05,-56.32C1706.07,-48.34 1719.66,-36.31 1730.57,-26.65"/>
<polygon fill="midnightblue" stroke="midnightblue" points="1733.11,-29.08 1738.27,-19.83 1728.47,-23.84 1733.11,-29.08"/>
</g>
<!-- Node41&#45;&gt;Node21 -->
<g id="edge59" class="edge">
<title>Node41&#45;&gt;Node21</title>
<path fill="none" stroke="midnightblue" d="M962.99,-113.03C932.89,-103.9 883.3,-88.86 849.05,-78.47"/>
<polygon fill="midnightblue" stroke="midnightblue" points="849.98,-75.09 839.39,-75.54 847.94,-81.79 849.98,-75.09"/>
</g>
<!-- Node42 -->
<g id="node42" class="node">
<title>Node42</title>
<g id="a_node42"><a xlink:title=" ">
<polygon fill="white" stroke="#bfbfbf" points="970.75,-56.5 970.75,-75.5 1007.75,-75.5 1007.75,-56.5 970.75,-56.5"/>
<text text-anchor="middle" x="989.25" y="-63.5" font-family="Helvetica,sans-Serif" font-size="10.00">uv.h</text>
</a>
</g>
</g>
<!-- Node41&#45;&gt;Node42 -->
<g id="edge60" class="edge">
<title>Node41&#45;&gt;Node42</title>
<path fill="none" stroke="midnightblue" d="M989.25,-112.08C989.25,-105.01 989.25,-94.86 989.25,-85.99"/>
<polygon fill="midnightblue" stroke="midnightblue" points="992.75,-85.75 989.25,-75.75 985.75,-85.75 992.75,-85.75"/>
</g>
<!-- Node44 -->
<g id="node44" class="node">
<title>Node44</title>
<g id="a_node44"><a xlink:title=" ">
<polygon fill="white" stroke="#bfbfbf" points="1759.25,-56.5 1759.25,-75.5 1807.25,-75.5 1807.25,-56.5 1759.25,-56.5"/>
<text text-anchor="middle" x="1783.25" y="-63.5" font-family="Helvetica,sans-Serif" font-size="10.00">mutex</text>
</a>
</g>
</g>
<!-- Node43&#45;&gt;Node44 -->
<g id="edge63" class="edge">
<title>Node43&#45;&gt;Node44</title>
<path fill="none" stroke="midnightblue" d="M1510.51,-113.49C1582.07,-102.36 1711.31,-82.23 1749.19,-75.73"/>
<polygon fill="midnightblue" stroke="midnightblue" points="1749.97,-79.15 1759.18,-73.9 1748.71,-72.26 1749.97,-79.15"/>
</g>
<!-- Node45&#45;&gt;Node29 -->
<g id="edge65" class="edge">
<title>Node45&#45;&gt;Node29</title>
<path fill="none" stroke="midnightblue" d="M1260.78,-168.08C1258.77,-160.85 1255.87,-150.41 1253.36,-141.4"/>
<polygon fill="midnightblue" stroke="midnightblue" points="1256.73,-140.45 1250.68,-131.75 1249.99,-142.32 1256.73,-140.45"/>
</g>
<!-- Node45&#45;&gt;Node42 -->
<g id="edge68" class="edge">
<title>Node45&#45;&gt;Node42</title>
<path fill="none" stroke="midnightblue" d="M1249.55,-168.42C1227.59,-154.95 1182.84,-128.66 1142.25,-112 1130.62,-107.23 1058.49,-86.58 1017.56,-74.98"/>
<polygon fill="midnightblue" stroke="midnightblue" points="1018.45,-71.6 1007.88,-72.24 1016.55,-78.33 1018.45,-71.6"/>
</g>
<!-- Node45&#45;&gt;Node43 -->
<g id="edge66" class="edge">
<title>Node45&#45;&gt;Node43</title>
<path fill="none" stroke="midnightblue" d="M1284.93,-171.12C1317.5,-162.28 1379.65,-145.41 1421.03,-134.18"/>
<polygon fill="midnightblue" stroke="midnightblue" points="1422.08,-137.53 1430.82,-131.53 1420.25,-130.77 1422.08,-137.53"/>
</g>
<!-- Node46 -->
<g id="node46" class="node">
<title>Node46</title>
<g id="a_node46"><a xlink:title=" ">
<polygon fill="white" stroke="#bfbfbf" points="1310.25,-112.5 1310.25,-131.5 1396.25,-131.5 1396.25,-112.5 1310.25,-112.5"/>
<text text-anchor="middle" x="1353.25" y="-119.5" font-family="Helvetica,sans-Serif" font-size="10.00">unordered_set</text>
</a>
</g>
</g>
<!-- Node45&#45;&gt;Node46 -->
<g id="edge67" class="edge">
<title>Node45&#45;&gt;Node46</title>
<path fill="none" stroke="midnightblue" d="M1277.71,-168.32C1291.75,-159.9 1313.3,-146.97 1329.8,-137.07"/>
<polygon fill="midnightblue" stroke="midnightblue" points="1332.05,-139.8 1338.83,-131.65 1328.45,-133.8 1332.05,-139.8"/>
</g>
<!-- Node48 -->
<g id="node48" class="node">
<title>Node48</title>
<g id="a_node48"><a xlink:title=" ">
<polygon fill="white" stroke="#bfbfbf" points="1528.75,-112.5 1528.75,-131.5 1605.75,-131.5 1605.75,-112.5 1528.75,-112.5"/>
<text text-anchor="middle" x="1567.25" y="-119.5" font-family="Helvetica,sans-Serif" font-size="10.00">sys/socket.h</text>
</a>
</g>
</g>
<!-- Node47&#45;&gt;Node48 -->
<g id="edge70" class="edge">
<title>Node47&#45;&gt;Node48</title>
<path fill="none" stroke="midnightblue" d="M1448.59,-168.44C1472.01,-159.48 1508.99,-145.31 1535.44,-135.18"/>
<polygon fill="midnightblue" stroke="midnightblue" points="1536.93,-138.36 1545.02,-131.52 1534.42,-131.82 1536.93,-138.36"/>
</g>
<!-- Node49&#45;&gt;Node29 -->
<g id="edge73" class="edge">
<title>Node49&#45;&gt;Node29</title>
<path fill="none" stroke="midnightblue" d="M1204,-168.08C1211.72,-160.22 1223.16,-148.57 1232.47,-139.08"/>
<polygon fill="midnightblue" stroke="midnightblue" points="1235.16,-141.34 1239.66,-131.75 1230.16,-136.44 1235.16,-141.34"/>
</g>
<!-- Node49&#45;&gt;Node42 -->
<g id="edge74" class="edge">
<title>Node49&#45;&gt;Node42</title>
<path fill="none" stroke="midnightblue" d="M1186.5,-168.32C1172.38,-154.7 1143.19,-128.22 1114.25,-112 1097.37,-102.54 1048.9,-86.14 1017.51,-75.97"/>
<polygon fill="midnightblue" stroke="midnightblue" points="1018.57,-72.63 1007.98,-72.9 1016.43,-79.3 1018.57,-72.63"/>
</g>
<!-- Node51&#45;&gt;Node25 -->
<g id="edge85" class="edge">
<title>Node51&#45;&gt;Node25</title>
<path fill="none" stroke="midnightblue" d="M1184.54,-224.3C1158.32,-203.26 1088.35,-148.64 1024.25,-112 1002.24,-99.41 976.06,-87.74 956.01,-79.44"/>
<polygon fill="midnightblue" stroke="midnightblue" points="957.29,-76.18 946.7,-75.65 954.64,-82.66 957.29,-76.18"/>
</g>
<!-- Node51&#45;&gt;Node28 -->
<g id="edge78" class="edge">
<title>Node51&#45;&gt;Node28</title>
<path fill="none" stroke="midnightblue" d="M1173.25,-226.56C1170.23,-225.69 1167.17,-224.82 1164.25,-224 1122.18,-212.19 1073.95,-199.18 1040.36,-190.19"/>
<polygon fill="midnightblue" stroke="midnightblue" points="1041,-186.74 1030.43,-187.54 1039.19,-193.5 1041,-186.74"/>
</g>
<!-- Node51&#45;&gt;Node29 -->
<g id="edge79" class="edge">
<title>Node51&#45;&gt;Node29</title>
<path fill="none" stroke="midnightblue" d="M1217.4,-226.05C1243.79,-217.27 1285.46,-201.65 1294.25,-188 1305.6,-170.38 1287.38,-150.84 1270.63,-137.83"/>
<polygon fill="midnightblue" stroke="midnightblue" points="1272.32,-134.72 1262.17,-131.66 1268.19,-140.38 1272.32,-134.72"/>
</g>
<!-- Node51&#45;&gt;Node41 -->
<g id="edge83" class="edge">
<title>Node51&#45;&gt;Node41</title>
<path fill="none" stroke="midnightblue" d="M1172.95,-225.28C1150.5,-217.16 1115.14,-203.44 1086.25,-188 1058.01,-172.9 1027.68,-151.68 1008.6,-137.65"/>
<polygon fill="midnightblue" stroke="midnightblue" points="1010.55,-134.73 1000.44,-131.58 1006.37,-140.35 1010.55,-134.73"/>
</g>
<!-- Node51&#45;&gt;Node43 -->
<g id="edge80" class="edge">
<title>Node51&#45;&gt;Node43</title>
<path fill="none" stroke="midnightblue" d="M1217.54,-226.32C1220.78,-225.47 1224.09,-224.66 1227.25,-224 1283.26,-212.23 1444.72,-231.2 1482.25,-188 1493.94,-174.55 1484.89,-154.36 1475.5,-140.06"/>
<polygon fill="midnightblue" stroke="midnightblue" points="1478.15,-137.75 1469.49,-131.64 1472.45,-141.81 1478.15,-137.75"/>
</g>
<!-- Node51&#45;&gt;Node45 -->
<g id="edge81" class="edge">
<title>Node51&#45;&gt;Node45</title>
<path fill="none" stroke="midnightblue" d="M1206.18,-224.32C1216.43,-216.18 1231.97,-203.84 1244.25,-194.09"/>
<polygon fill="midnightblue" stroke="midnightblue" points="1246.47,-196.79 1252.13,-187.83 1242.12,-191.31 1246.47,-196.79"/>
</g>
<!-- Node51&#45;&gt;Node47 -->
<g id="edge82" class="edge">
<title>Node51&#45;&gt;Node47</title>
<path fill="none" stroke="midnightblue" d="M1217.59,-226.56C1220.83,-225.67 1224.12,-224.79 1227.25,-224 1277.58,-211.24 1335.51,-198.34 1375.85,-189.64"/>
<polygon fill="midnightblue" stroke="midnightblue" points="1376.66,-193.05 1385.71,-187.53 1375.19,-186.2 1376.66,-193.05"/>
</g>
<!-- Node51&#45;&gt;Node49 -->
<g id="edge84" class="edge">
<title>Node51&#45;&gt;Node49</title>
<path fill="none" stroke="midnightblue" d="M1195.25,-224.08C1195.25,-217.01 1195.25,-206.86 1195.25,-197.99"/>
<polygon fill="midnightblue" stroke="midnightblue" points="1198.75,-197.75 1195.25,-187.75 1191.75,-197.75 1198.75,-197.75"/>
</g>
</g>
</svg>
