<?xml version="1.0" encoding="UTF-8" standalone="no"?>
<!DOCTYPE svg PUBLIC "-//W3C//DTD SVG 1.1//EN"
 "http://www.w3.org/Graphics/SVG/1.1/DTD/svg11.dtd">
<!-- Generated by graphviz version 2.43.0 (0)
 -->
<!-- Title: src/host/snapshots.h Pages: 1 -->
<!--zoomable 319 -->
<svg id="main" version="1.1" xmlns="http://www.w3.org/2000/svg" xmlns:xlink="http://www.w3.org/1999/xlink" xml:space="preserve" onload="init(evt)">
<style type="text/css"><![CDATA[
.edge:hover path { stroke: red; }
.edge:hover polygon { stroke: red; fill: red; }
]]></style>
<script type="text/javascript"><![CDATA[
var edges = document.getElementsByTagName('g');
if (edges && edges.length) {
  for (var i=0;i<edges.length;i++) {
    if (edges[i].id.substr(0,4)=='edge') {
      edges[i].setAttribute('class','edge');
    }
  }
}
]]></script>
        <defs>
                <circle id="rim" cx="0" cy="0" r="7"/>
                <circle id="rim2" cx="0" cy="0" r="3.5"/>
                <g id="zoomPlus">
                        <use xlink:href="#rim" fill="#404040">
                                <set attributeName="fill" to="#808080" begin="zoomplus.mouseover" end="zoomplus.mouseout"/>
                        </use>
                        <path d="M-4,0h8M0,-4v8" fill="none" stroke="white" stroke-width="1.5" pointer-events="none"/>
                </g>
                <g id="zoomMin">
                        <use xlink:href="#rim" fill="#404040">
                                <set attributeName="fill" to="#808080" begin="zoomminus.mouseover" end="zoomminus.mouseout"/>
                        </use>
                        <path d="M-4,0h8" fill="none" stroke="white" stroke-width="1.5" pointer-events="none"/>
                </g>
                <g id="dirArrow">
                        <path fill="none" stroke="white" stroke-width="1.5" d="M0,-3.0v7 M-2.5,-0.5L0,-3.0L2.5,-0.5"/>
                </g>
               <g id="resetDef">
                       <use xlink:href="#rim2" fill="#404040">
                               <set attributeName="fill" to="#808080" begin="reset.mouseover" end="reset.mouseout"/>
                       </use>
               </g>
        </defs>

<script type="text/javascript">
var viewWidth = 1687;
var viewHeight = 319;
var sectionId = 'dynsection-0';
</script>
<script xlink:href="svgpan.js"/>
<svg id="graph" class="graph">
<g id="viewport">
<title>src/host/snapshots.h</title>
<polygon fill="white" stroke="transparent" points="-4,4 -4,-315 1682.55,-315 1682.55,4 -4,4"/>
<!-- Node1 -->
<g id="node1" class="node">
<title>Node1</title>
<g id="a_node1"><a xlink:title=" ">
<polygon fill="#bfbfbf" stroke="black" points="907.55,-291.5 907.55,-310.5 1023.55,-310.5 1023.55,-291.5 907.55,-291.5"/>
<text text-anchor="middle" x="965.55" y="-298.5" font-family="Helvetica,sans-Serif" font-size="10.00">src/host/snapshots.h</text>
</a>
</g>
</g>
<!-- Node2 -->
<g id="node2" class="node">
<title>Node2</title>
<g id="a_node2"><a xlink:href="nonstd_8h.html" target="_top" xlink:title=" ">
<polygon fill="white" stroke="black" points="370.55,-56.5 370.55,-75.5 460.55,-75.5 460.55,-56.5 370.55,-56.5"/>
<text text-anchor="middle" x="415.55" y="-63.5" font-family="Helvetica,sans-Serif" font-size="10.00">ccf/ds/nonstd.h</text>
</a>
</g>
</g>
<!-- Node1&#45;&gt;Node2 -->
<g id="edge1" class="edge">
<title>Node1&#45;&gt;Node2</title>
<path fill="none" stroke="midnightblue" d="M907.3,-297.75C811.3,-293.32 624.53,-281.52 564.55,-255 488.79,-221.51 463.8,-204.93 424.55,-132 416.87,-117.74 414.94,-99.27 414.75,-85.66"/>
<polygon fill="midnightblue" stroke="midnightblue" points="418.25,-85.63 414.9,-75.58 411.25,-85.52 418.25,-85.63"/>
</g>
<!-- Node10 -->
<g id="node10" class="node">
<title>Node10</title>
<g id="a_node10"><a xlink:href="ledger__enclave__types_8h.html" target="_top" xlink:title=" ">
<polygon fill="white" stroke="black" points="574.05,-224.5 574.05,-254.5 719.05,-254.5 719.05,-224.5 574.05,-224.5"/>
<text text-anchor="start" x="582.05" y="-242.5" font-family="Helvetica,sans-Serif" font-size="10.00">consensus/ledger_enclave</text>
<text text-anchor="middle" x="646.55" y="-231.5" font-family="Helvetica,sans-Serif" font-size="10.00">_types.h</text>
</a>
</g>
</g>
<!-- Node1&#45;&gt;Node10 -->
<g id="edge9" class="edge">
<title>Node1&#45;&gt;Node10</title>
<path fill="none" stroke="midnightblue" d="M919.84,-291.48C870.23,-282.22 789.97,-267.25 729.23,-255.92"/>
<polygon fill="midnightblue" stroke="midnightblue" points="729.75,-252.46 719.28,-254.07 728.47,-259.34 729.75,-252.46"/>
</g>
<!-- Node25 -->
<g id="node25" class="node">
<title>Node25</title>
<g id="a_node25"><a xlink:title=" ">
<polygon fill="white" stroke="#bfbfbf" points="746.55,-112.5 746.55,-131.5 802.55,-131.5 802.55,-112.5 746.55,-112.5"/>
<text text-anchor="middle" x="774.55" y="-119.5" font-family="Helvetica,sans-Serif" font-size="10.00">optional</text>
</a>
</g>
</g>
<!-- Node1&#45;&gt;Node25 -->
<g id="edge63" class="edge">
<title>Node1&#45;&gt;Node25</title>
<path fill="none" stroke="midnightblue" d="M927.13,-291.47C903.55,-284.7 873.88,-273.26 852.55,-255 815.59,-223.37 791.65,-169.63 780.97,-141.47"/>
<polygon fill="midnightblue" stroke="midnightblue" points="784.13,-139.92 777.42,-131.72 777.56,-142.31 784.13,-139.92"/>
</g>
<!-- Node26 -->
<g id="node26" class="node">
<title>Node26</title>
<g id="a_node26"><a xlink:href="time__bound__logger_8h.html" target="_top" xlink:title=" ">
<polygon fill="white" stroke="black" points="862.05,-230 862.05,-249 981.05,-249 981.05,-230 862.05,-230"/>
<text text-anchor="middle" x="921.55" y="-237" font-family="Helvetica,sans-Serif" font-size="10.00">time_bound_logger.h</text>
</a>
</g>
</g>
<!-- Node1&#45;&gt;Node26 -->
<g id="edge38" class="edge">
<title>Node1&#45;&gt;Node26</title>
<path fill="none" stroke="midnightblue" d="M959.24,-291.48C952.64,-282.55 942.11,-268.31 933.85,-257.14"/>
<polygon fill="midnightblue" stroke="midnightblue" points="936.6,-254.97 927.84,-249.01 930.97,-259.13 936.6,-254.97"/>
</g>
<!-- Node36 -->
<g id="node36" class="node">
<title>Node36</title>
<g id="a_node36"><a xlink:title=" ">
<polygon fill="white" stroke="#bfbfbf" points="1552.55,-112.5 1552.55,-131.5 1612.55,-131.5 1612.55,-112.5 1552.55,-112.5"/>
<text text-anchor="middle" x="1582.55" y="-119.5" font-family="Helvetica,sans-Serif" font-size="10.00">iostream</text>
</a>
</g>
</g>
<!-- Node1&#45;&gt;Node36 -->
<g id="edge62" class="edge">
<title>Node1&#45;&gt;Node36</title>
<path fill="none" stroke="midnightblue" d="M973.9,-291.32C989.88,-275.27 1026.6,-241.05 1064.55,-224 1259.29,-136.51 1329.33,-175.59 1542.41,-132.15"/>
<polygon fill="midnightblue" stroke="midnightblue" points="1543.26,-135.55 1552.34,-130.09 1541.83,-128.69 1543.26,-135.55"/>
</g>
<!-- Node40 -->
<g id="node40" class="node">
<title>Node40</title>
<g id="a_node40"><a xlink:title=" ">
<polygon fill="white" stroke="#bfbfbf" points="1073.05,-230 1073.05,-249 1134.05,-249 1134.05,-230 1073.05,-230"/>
<text text-anchor="middle" x="1103.55" y="-237" font-family="Helvetica,sans-Serif" font-size="10.00">charconv</text>
</a>
</g>
</g>
<!-- Node1&#45;&gt;Node40 -->
<g id="edge59" class="edge">
<title>Node1&#45;&gt;Node40</title>
<path fill="none" stroke="midnightblue" d="M985.32,-291.48C1008.68,-281.4 1047.76,-264.55 1074.55,-253"/>
<polygon fill="midnightblue" stroke="midnightblue" points="1076.01,-256.18 1083.81,-249.01 1073.24,-249.75 1076.01,-256.18"/>
</g>
<!-- Node41 -->
<g id="node41" class="node">
<title>Node41</title>
<g id="a_node41"><a xlink:title=" ">
<polygon fill="white" stroke="#bfbfbf" points="1152.55,-230 1152.55,-249 1220.55,-249 1220.55,-230 1152.55,-230"/>
<text text-anchor="middle" x="1186.55" y="-237" font-family="Helvetica,sans-Serif" font-size="10.00">filesystem</text>
</a>
</g>
</g>
<!-- Node1&#45;&gt;Node41 -->
<g id="edge60" class="edge">
<title>Node1&#45;&gt;Node41</title>
<path fill="none" stroke="midnightblue" d="M1002.93,-291.44C1039.11,-282.95 1095.39,-269.18 1143.55,-255 1146.47,-254.14 1149.5,-253.2 1152.53,-252.24"/>
<polygon fill="midnightblue" stroke="midnightblue" points="1153.68,-255.55 1162.09,-249.11 1151.5,-248.9 1153.68,-255.55"/>
</g>
<!-- Node42 -->
<g id="node42" class="node">
<title>Node42</title>
<g id="a_node42"><a xlink:title=" ">
<polygon fill="white" stroke="#bfbfbf" points="1239.05,-230 1239.05,-249 1294.05,-249 1294.05,-230 1239.05,-230"/>
<text text-anchor="middle" x="1266.55" y="-237" font-family="Helvetica,sans-Serif" font-size="10.00">fstream</text>
</a>
</g>
</g>
<!-- Node1&#45;&gt;Node42 -->
<g id="edge61" class="edge">
<title>Node1&#45;&gt;Node42</title>
<path fill="none" stroke="midnightblue" d="M1023.72,-293.56C1077.71,-286.77 1160,-274.33 1229.55,-255 1232.14,-254.28 1234.79,-253.44 1237.44,-252.54"/>
<polygon fill="midnightblue" stroke="midnightblue" points="1238.65,-255.83 1246.83,-249.09 1236.24,-249.26 1238.65,-255.83"/>
</g>
<!-- Node3 -->
<g id="node3" class="node">
<title>Node3</title>
<g id="a_node3"><a xlink:title=" ">
<polygon fill="white" stroke="#bfbfbf" points="353.55,-0.5 353.55,-19.5 417.55,-19.5 417.55,-0.5 353.55,-0.5"/>
<text text-anchor="middle" x="385.55" y="-7.5" font-family="Helvetica,sans-Serif" font-size="10.00">algorithm</text>
</a>
</g>
</g>
<!-- Node2&#45;&gt;Node3 -->
<g id="edge2" class="edge">
<title>Node2&#45;&gt;Node3</title>
<path fill="none" stroke="midnightblue" d="M410.59,-56.08C406.44,-48.61 400.39,-37.72 395.28,-28.52"/>
<polygon fill="midnightblue" stroke="midnightblue" points="398.32,-26.79 390.41,-19.75 392.2,-30.19 398.32,-26.79"/>
</g>
<!-- Node4 -->
<g id="node4" class="node">
<title>Node4</title>
<g id="a_node4"><a xlink:title=" ">
<polygon fill="white" stroke="#bfbfbf" points="201.55,-0.5 201.55,-19.5 243.55,-19.5 243.55,-0.5 201.55,-0.5"/>
<text text-anchor="middle" x="222.55" y="-7.5" font-family="Helvetica,sans-Serif" font-size="10.00">array</text>
</a>
</g>
</g>
<!-- Node2&#45;&gt;Node4 -->
<g id="edge3" class="edge">
<title>Node2&#45;&gt;Node4</title>
<path fill="none" stroke="midnightblue" d="M383.93,-56.5C353.04,-48.14 304.44,-34.85 253.67,-20.28"/>
<polygon fill="midnightblue" stroke="midnightblue" points="254.41,-16.85 243.83,-17.45 252.47,-23.58 254.41,-16.85"/>
</g>
<!-- Node5 -->
<g id="node5" class="node">
<title>Node5</title>
<g id="a_node5"><a xlink:title=" ">
<polygon fill="white" stroke="#bfbfbf" points="436.05,-0.5 436.05,-19.5 485.05,-19.5 485.05,-0.5 436.05,-0.5"/>
<text text-anchor="middle" x="460.55" y="-7.5" font-family="Helvetica,sans-Serif" font-size="10.00">cctype</text>
</a>
</g>
</g>
<!-- Node2&#45;&gt;Node5 -->
<g id="edge4" class="edge">
<title>Node2&#45;&gt;Node5</title>
<path fill="none" stroke="midnightblue" d="M422.98,-56.08C429.4,-48.38 438.85,-37.03 446.67,-27.65"/>
<polygon fill="midnightblue" stroke="midnightblue" points="449.54,-29.67 453.25,-19.75 444.16,-25.19 449.54,-29.67"/>
</g>
<!-- Node6 -->
<g id="node6" class="node">
<title>Node6</title>
<g id="a_node6"><a xlink:title=" ">
<polygon fill="white" stroke="#bfbfbf" points="770.55,-0.5 770.55,-19.5 814.55,-19.5 814.55,-0.5 770.55,-0.5"/>
<text text-anchor="middle" x="792.55" y="-7.5" font-family="Helvetica,sans-Serif" font-size="10.00">string</text>
</a>
</g>
</g>
<!-- Node2&#45;&gt;Node6 -->
<g id="edge5" class="edge">
<title>Node2&#45;&gt;Node6</title>
<path fill="none" stroke="midnightblue" d="M460.55,-61.22C524.86,-55.37 646.87,-42.56 760.37,-19.73"/>
<polygon fill="midnightblue" stroke="midnightblue" points="761.17,-23.14 770.27,-17.71 759.77,-16.28 761.17,-23.14"/>
</g>
<!-- Node7 -->
<g id="node7" class="node">
<title>Node7</title>
<g id="a_node7"><a xlink:title=" ">
<polygon fill="white" stroke="#bfbfbf" points="262.05,-0.5 262.05,-19.5 335.05,-19.5 335.05,-0.5 262.05,-0.5"/>
<text text-anchor="middle" x="298.55" y="-7.5" font-family="Helvetica,sans-Serif" font-size="10.00">string_view</text>
</a>
</g>
</g>
<!-- Node2&#45;&gt;Node7 -->
<g id="edge6" class="edge">
<title>Node2&#45;&gt;Node7</title>
<path fill="none" stroke="midnightblue" d="M397.01,-56.44C377.92,-47.64 347.97,-33.81 326.11,-23.72"/>
<polygon fill="midnightblue" stroke="midnightblue" points="327.54,-20.53 317,-19.52 324.61,-26.88 327.54,-20.53"/>
</g>
<!-- Node8 -->
<g id="node8" class="node">
<title>Node8</title>
<g id="a_node8"><a xlink:title=" ">
<polygon fill="white" stroke="#bfbfbf" points="834.05,-0.5 834.05,-19.5 903.05,-19.5 903.05,-0.5 834.05,-0.5"/>
<text text-anchor="middle" x="868.55" y="-7.5" font-family="Helvetica,sans-Serif" font-size="10.00">type_traits</text>
</a>
</g>
</g>
<!-- Node2&#45;&gt;Node8 -->
<g id="edge7" class="edge">
<title>Node2&#45;&gt;Node8</title>
<path fill="none" stroke="midnightblue" d="M460.69,-61.32C536.11,-54.89 692.38,-40.31 823.55,-20 823.65,-19.98 823.75,-19.97 823.86,-19.95"/>
<polygon fill="midnightblue" stroke="midnightblue" points="824.44,-23.4 833.71,-18.28 823.27,-16.5 824.44,-23.4"/>
</g>
<!-- Node9 -->
<g id="node9" class="node">
<title>Node9</title>
<g id="a_node9"><a xlink:title=" ">
<polygon fill="white" stroke="#bfbfbf" points="503.05,-0.5 503.05,-19.5 550.05,-19.5 550.05,-0.5 503.05,-0.5"/>
<text text-anchor="middle" x="526.55" y="-7.5" font-family="Helvetica,sans-Serif" font-size="10.00">vector</text>
</a>
</g>
</g>
<!-- Node2&#45;&gt;Node9 -->
<g id="edge8" class="edge">
<title>Node2&#45;&gt;Node9</title>
<path fill="none" stroke="midnightblue" d="M433.38,-56.32C451.26,-47.62 479.02,-34.12 499.59,-24.11"/>
<polygon fill="midnightblue" stroke="midnightblue" points="501.29,-27.18 508.76,-19.65 498.23,-20.88 501.29,-27.18"/>
</g>
<!-- Node11 -->
<g id="node11" class="node">
<title>Node11</title>
<g id="a_node11"><a xlink:href="ring__buffer__types_8h.html" target="_top" xlink:title=" ">
<polygon fill="white" stroke="black" points="546.05,-168.5 546.05,-187.5 671.05,-187.5 671.05,-168.5 546.05,-168.5"/>
<text text-anchor="middle" x="608.55" y="-175.5" font-family="Helvetica,sans-Serif" font-size="10.00">ds/ring_buffer_types.h</text>
</a>
</g>
</g>
<!-- Node10&#45;&gt;Node11 -->
<g id="edge10" class="edge">
<title>Node10&#45;&gt;Node11</title>
<path fill="none" stroke="midnightblue" d="M637.54,-224.4C632.13,-215.93 625.21,-205.1 619.49,-196.14"/>
<polygon fill="midnightblue" stroke="midnightblue" points="622.41,-194.2 614.07,-187.66 616.51,-197.97 622.41,-194.2"/>
</g>
<!-- Node11&#45;&gt;Node2 -->
<g id="edge20" class="edge">
<title>Node11&#45;&gt;Node2</title>
<path fill="none" stroke="midnightblue" d="M545.87,-173.24C511.79,-168.21 470.92,-156.93 442.55,-132 428.94,-120.05 422.04,-100.14 418.64,-85.51"/>
<polygon fill="midnightblue" stroke="midnightblue" points="422.04,-84.69 416.67,-75.56 415.18,-86.05 422.04,-84.69"/>
</g>
<!-- Node11&#45;&gt;Node6 -->
<g id="edge36" class="edge">
<title>Node11&#45;&gt;Node6</title>
<path fill="none" stroke="midnightblue" d="M618.37,-168.45C633.84,-155.25 665.17,-129.6 694.55,-112 727.3,-92.38 747.41,-104.74 772.55,-76 783.83,-63.09 788.75,-43.92 790.89,-29.74"/>
<polygon fill="midnightblue" stroke="midnightblue" points="794.38,-29.99 792.08,-19.65 787.43,-29.17 794.38,-29.99"/>
</g>
<!-- Node11&#45;&gt;Node9 -->
<g id="edge37" class="edge">
<title>Node11&#45;&gt;Node9</title>
<path fill="none" stroke="midnightblue" d="M598.34,-168.29C580.44,-152.24 544.11,-115.96 531.55,-76 526.82,-60.97 525.75,-43.06 525.77,-29.85"/>
<polygon fill="midnightblue" stroke="midnightblue" points="529.27,-29.72 525.99,-19.65 522.27,-29.57 529.27,-29.72"/>
</g>
<!-- Node12 -->
<g id="node12" class="node">
<title>Node12</title>
<g id="a_node12"><a xlink:href="include_2ccf_2ds_2hash_8h.html" target="_top" xlink:title=" ">
<polygon fill="white" stroke="black" points="213.55,-112.5 213.55,-131.5 293.55,-131.5 293.55,-112.5 213.55,-112.5"/>
<text text-anchor="middle" x="253.55" y="-119.5" font-family="Helvetica,sans-Serif" font-size="10.00">ccf/ds/hash.h</text>
</a>
</g>
</g>
<!-- Node11&#45;&gt;Node12 -->
<g id="edge11" class="edge">
<title>Node11&#45;&gt;Node12</title>
<path fill="none" stroke="midnightblue" d="M552.29,-168.44C483.82,-158.03 369.22,-140.59 303.65,-130.62"/>
<polygon fill="midnightblue" stroke="midnightblue" points="303.97,-127.13 293.56,-129.09 302.92,-134.05 303.97,-127.13"/>
</g>
<!-- Node17 -->
<g id="node17" class="node">
<title>Node17</title>
<g id="a_node17"><a xlink:href="serializer_8h.html" target="_top" xlink:title=" ">
<polygon fill="white" stroke="black" points="573.55,-112.5 573.55,-131.5 643.55,-131.5 643.55,-112.5 573.55,-112.5"/>
<text text-anchor="middle" x="608.55" y="-119.5" font-family="Helvetica,sans-Serif" font-size="10.00">serializer.h</text>
</a>
</g>
</g>
<!-- Node11&#45;&gt;Node17 -->
<g id="edge21" class="edge">
<title>Node11&#45;&gt;Node17</title>
<path fill="none" stroke="midnightblue" d="M608.55,-168.08C608.55,-161.01 608.55,-150.86 608.55,-141.99"/>
<polygon fill="midnightblue" stroke="midnightblue" points="612.05,-141.75 608.55,-131.75 605.05,-141.75 612.05,-141.75"/>
</g>
<!-- Node23 -->
<g id="node23" class="node">
<title>Node23</title>
<g id="a_node23"><a xlink:title=" ">
<polygon fill="white" stroke="#bfbfbf" points="451.55,-112.5 451.55,-131.5 501.55,-131.5 501.55,-112.5 451.55,-112.5"/>
<text text-anchor="middle" x="476.55" y="-119.5" font-family="Helvetica,sans-Serif" font-size="10.00">atomic</text>
</a>
</g>
</g>
<!-- Node11&#45;&gt;Node23 -->
<g id="edge33" class="edge">
<title>Node11&#45;&gt;Node23</title>
<path fill="none" stroke="midnightblue" d="M587.63,-168.44C565.81,-159.52 531.4,-145.44 506.65,-135.32"/>
<polygon fill="midnightblue" stroke="midnightblue" points="507.94,-132.06 497.36,-131.52 505.29,-138.54 507.94,-132.06"/>
</g>
<!-- Node24 -->
<g id="node24" class="node">
<title>Node24</title>
<g id="a_node24"><a xlink:title=" ">
<polygon fill="white" stroke="#bfbfbf" points="897.05,-56.5 897.05,-75.5 976.05,-75.5 976.05,-56.5 897.05,-56.5"/>
<text text-anchor="middle" x="936.55" y="-63.5" font-family="Helvetica,sans-Serif" font-size="10.00">fmt/format.h</text>
</a>
</g>
</g>
<!-- Node11&#45;&gt;Node24 -->
<g id="edge34" class="edge">
<title>Node11&#45;&gt;Node24</title>
<path fill="none" stroke="midnightblue" d="M625.07,-168.39C657.21,-151.68 726.04,-116.13 737.55,-112 787.03,-94.24 846.02,-81.95 886.87,-74.75"/>
<polygon fill="midnightblue" stroke="midnightblue" points="887.59,-78.18 896.85,-73.03 886.4,-71.28 887.59,-78.18"/>
</g>
<!-- Node11&#45;&gt;Node25 -->
<g id="edge35" class="edge">
<title>Node11&#45;&gt;Node25</title>
<path fill="none" stroke="midnightblue" d="M634.85,-168.44C662.9,-159.32 707.49,-144.81 738.73,-134.65"/>
<polygon fill="midnightblue" stroke="midnightblue" points="739.94,-137.94 748.36,-131.52 737.77,-131.28 739.94,-137.94"/>
</g>
<!-- Node12&#45;&gt;Node4 -->
<g id="edge16" class="edge">
<title>Node12&#45;&gt;Node4</title>
<path fill="none" stroke="midnightblue" d="M263.5,-112.12C276.32,-99.56 295.79,-75.91 285.55,-56 278.47,-42.25 265.02,-31.77 252.37,-24.39"/>
<polygon fill="midnightblue" stroke="midnightblue" points="253.86,-21.22 243.39,-19.57 250.55,-27.39 253.86,-21.22"/>
</g>
<!-- Node12&#45;&gt;Node9 -->
<g id="edge19" class="edge">
<title>Node12&#45;&gt;Node9</title>
<path fill="none" stroke="midnightblue" d="M265.27,-112.45C284.5,-98.77 324.32,-71.92 361.55,-56 361.74,-55.92 445.1,-33.19 493.24,-20.07"/>
<polygon fill="midnightblue" stroke="midnightblue" points="494.21,-23.44 502.94,-17.43 492.37,-16.68 494.21,-23.44"/>
</g>
<!-- Node13 -->
<g id="node13" class="node">
<title>Node13</title>
<g id="a_node13"><a xlink:href="siphash_8h.html" target="_top" xlink:title=" ">
<polygon fill="white" stroke="black" points="15.05,-56.5 15.05,-75.5 110.05,-75.5 110.05,-56.5 15.05,-56.5"/>
<text text-anchor="middle" x="62.55" y="-63.5" font-family="Helvetica,sans-Serif" font-size="10.00">ccf/ds/siphash.h</text>
</a>
</g>
</g>
<!-- Node12&#45;&gt;Node13 -->
<g id="edge12" class="edge">
<title>Node12&#45;&gt;Node13</title>
<path fill="none" stroke="midnightblue" d="M223.28,-112.44C190.59,-103.2 138.36,-88.44 102.36,-78.26"/>
<polygon fill="midnightblue" stroke="midnightblue" points="103.24,-74.87 92.67,-75.52 101.34,-81.61 103.24,-74.87"/>
</g>
<!-- Node15 -->
<g id="node15" class="node">
<title>Node15</title>
<g id="a_node15"><a xlink:title=" ">
<polygon fill="white" stroke="#bfbfbf" points="2.55,-0.5 2.55,-19.5 52.55,-19.5 52.55,-0.5 2.55,-0.5"/>
<text text-anchor="middle" x="27.55" y="-7.5" font-family="Helvetica,sans-Serif" font-size="10.00">cstdint</text>
</a>
</g>
</g>
<!-- Node12&#45;&gt;Node15 -->
<g id="edge17" class="edge">
<title>Node12&#45;&gt;Node15</title>
<path fill="none" stroke="midnightblue" d="M213.4,-119.73C150.09,-116.79 31.56,-107.16 5.55,-76 -5.98,-62.2 3.73,-42.07 13.65,-27.88"/>
<polygon fill="midnightblue" stroke="midnightblue" points="16.72,-29.62 19.97,-19.54 11.14,-25.4 16.72,-29.62"/>
</g>
<!-- Node16 -->
<g id="node16" class="node">
<title>Node16</title>
<g id="a_node16"><a xlink:title=" ">
<polygon fill="white" stroke="#bfbfbf" points="128.05,-56.5 128.05,-75.5 277.05,-75.5 277.05,-56.5 128.05,-56.5"/>
<text text-anchor="middle" x="202.55" y="-63.5" font-family="Helvetica,sans-Serif" font-size="10.00">small_vector/SmallVector.h</text>
</a>
</g>
</g>
<!-- Node12&#45;&gt;Node16 -->
<g id="edge18" class="edge">
<title>Node12&#45;&gt;Node16</title>
<path fill="none" stroke="midnightblue" d="M245.12,-112.08C237.7,-104.22 226.69,-92.57 217.73,-83.08"/>
<polygon fill="midnightblue" stroke="midnightblue" points="220.22,-80.62 210.81,-75.75 215.13,-85.42 220.22,-80.62"/>
</g>
<!-- Node13&#45;&gt;Node9 -->
<g id="edge15" class="edge">
<title>Node13&#45;&gt;Node9</title>
<path fill="none" stroke="midnightblue" d="M110.17,-57.13C113,-56.73 115.81,-56.35 118.55,-56 281.37,-35.12 327.07,-49.55 492.81,-19.81"/>
<polygon fill="midnightblue" stroke="midnightblue" points="493.65,-23.21 502.86,-17.98 492.4,-16.33 493.65,-23.21"/>
</g>
<!-- Node14 -->
<g id="node14" class="node">
<title>Node14</title>
<g id="a_node14"><a xlink:title=" ">
<polygon fill="white" stroke="#bfbfbf" points="71.05,-0.5 71.05,-19.5 124.05,-19.5 124.05,-0.5 71.05,-0.5"/>
<text text-anchor="middle" x="97.55" y="-7.5" font-family="Helvetica,sans-Serif" font-size="10.00">cstddef</text>
</a>
</g>
</g>
<!-- Node13&#45;&gt;Node14 -->
<g id="edge13" class="edge">
<title>Node13&#45;&gt;Node14</title>
<path fill="none" stroke="midnightblue" d="M68.32,-56.08C73.22,-48.53 80.37,-37.49 86.38,-28.23"/>
<polygon fill="midnightblue" stroke="midnightblue" points="89.37,-30.05 91.87,-19.75 83.5,-26.24 89.37,-30.05"/>
</g>
<!-- Node13&#45;&gt;Node15 -->
<g id="edge14" class="edge">
<title>Node13&#45;&gt;Node15</title>
<path fill="none" stroke="midnightblue" d="M56.77,-56.08C51.87,-48.53 44.72,-37.49 38.71,-28.23"/>
<polygon fill="midnightblue" stroke="midnightblue" points="41.59,-26.24 33.22,-19.75 35.72,-30.05 41.59,-26.24"/>
</g>
<!-- Node17&#45;&gt;Node2 -->
<g id="edge22" class="edge">
<title>Node17&#45;&gt;Node2</title>
<path fill="none" stroke="midnightblue" d="M577.96,-112.44C544.93,-103.2 492.16,-88.44 455.78,-78.26"/>
<polygon fill="midnightblue" stroke="midnightblue" points="456.56,-74.84 445.98,-75.52 454.67,-81.58 456.56,-74.84"/>
</g>
<!-- Node17&#45;&gt;Node8 -->
<g id="edge31" class="edge">
<title>Node17&#45;&gt;Node8</title>
<path fill="none" stroke="midnightblue" d="M643.62,-114.84C677.63,-108.08 730.17,-95.51 772.55,-76 801.74,-62.56 831.87,-40.59 850.41,-25.96"/>
<polygon fill="midnightblue" stroke="midnightblue" points="852.69,-28.62 858.29,-19.63 848.3,-23.17 852.69,-28.62"/>
</g>
<!-- Node17&#45;&gt;Node9 -->
<g id="edge32" class="edge">
<title>Node17&#45;&gt;Node9</title>
<path fill="none" stroke="midnightblue" d="M590.52,-112.39C576.32,-104.73 557.06,-92.22 545.55,-76 535.87,-62.37 531.08,-43.83 528.73,-30.04"/>
<polygon fill="midnightblue" stroke="midnightblue" points="532.15,-29.19 527.28,-19.78 525.22,-30.17 532.15,-29.19"/>
</g>
<!-- Node18 -->
<g id="node18" class="node">
<title>Node18</title>
<g id="a_node18"><a xlink:href="serialized_8h.html" target="_top" xlink:title=" ">
<polygon fill="white" stroke="black" points="691.05,-56.5 691.05,-75.5 764.05,-75.5 764.05,-56.5 691.05,-56.5"/>
<text text-anchor="middle" x="727.55" y="-63.5" font-family="Helvetica,sans-Serif" font-size="10.00">serialized.h</text>
</a>
</g>
</g>
<!-- Node17&#45;&gt;Node18 -->
<g id="edge23" class="edge">
<title>Node17&#45;&gt;Node18</title>
<path fill="none" stroke="midnightblue" d="M627.4,-112.44C646.81,-103.64 677.28,-89.81 699.51,-79.72"/>
<polygon fill="midnightblue" stroke="midnightblue" points="701.12,-82.84 708.78,-75.52 698.22,-76.46 701.12,-82.84"/>
</g>
<!-- Node21 -->
<g id="node21" class="node">
<title>Node21</title>
<g id="a_node21"><a xlink:title=" ">
<polygon fill="white" stroke="#bfbfbf" points="614.55,-56.5 614.55,-75.5 672.55,-75.5 672.55,-56.5 614.55,-56.5"/>
<text text-anchor="middle" x="643.55" y="-63.5" font-family="Helvetica,sans-Serif" font-size="10.00">memory</text>
</a>
</g>
</g>
<!-- Node17&#45;&gt;Node21 -->
<g id="edge29" class="edge">
<title>Node17&#45;&gt;Node21</title>
<path fill="none" stroke="midnightblue" d="M614.32,-112.08C619.22,-104.53 626.37,-93.49 632.38,-84.23"/>
<polygon fill="midnightblue" stroke="midnightblue" points="635.37,-86.05 637.87,-75.75 629.5,-82.24 635.37,-86.05"/>
</g>
<!-- Node22 -->
<g id="node22" class="node">
<title>Node22</title>
<g id="a_node22"><a xlink:title=" ">
<polygon fill="white" stroke="#bfbfbf" points="555.05,-56.5 555.05,-75.5 596.05,-75.5 596.05,-56.5 555.05,-56.5"/>
<text text-anchor="middle" x="575.55" y="-63.5" font-family="Helvetica,sans-Serif" font-size="10.00">tuple</text>
</a>
</g>
</g>
<!-- Node17&#45;&gt;Node22 -->
<g id="edge30" class="edge">
<title>Node17&#45;&gt;Node22</title>
<path fill="none" stroke="midnightblue" d="M603.1,-112.08C598.53,-104.61 591.88,-93.72 586.25,-84.52"/>
<polygon fill="midnightblue" stroke="midnightblue" points="589.09,-82.46 580.89,-75.75 583.12,-86.11 589.09,-82.46"/>
</g>
<!-- Node18&#45;&gt;Node6 -->
<g id="edge27" class="edge">
<title>Node18&#45;&gt;Node6</title>
<path fill="none" stroke="midnightblue" d="M737.99,-56.32C747.69,-48.26 762.36,-36.08 774.04,-26.37"/>
<polygon fill="midnightblue" stroke="midnightblue" points="776.46,-28.92 781.91,-19.83 771.98,-23.53 776.46,-28.92"/>
</g>
<!-- Node18&#45;&gt;Node9 -->
<g id="edge28" class="edge">
<title>Node18&#45;&gt;Node9</title>
<path fill="none" stroke="midnightblue" d="M695.7,-56.44C658.66,-46.49 597.81,-30.15 560.07,-20.01"/>
<polygon fill="midnightblue" stroke="midnightblue" points="560.65,-16.54 550.08,-17.32 558.83,-23.3 560.65,-16.54"/>
</g>
<!-- Node18&#45;&gt;Node15 -->
<g id="edge24" class="edge">
<title>Node18&#45;&gt;Node15</title>
<path fill="none" stroke="midnightblue" d="M690.96,-57.38C687.78,-56.86 684.61,-56.39 681.55,-56 411.04,-21.84 335.94,-62.52 62.89,-19.87"/>
<polygon fill="midnightblue" stroke="midnightblue" points="63.1,-16.36 52.68,-18.25 62,-23.28 63.1,-16.36"/>
</g>
<!-- Node19 -->
<g id="node19" class="node">
<title>Node19</title>
<g id="a_node19"><a xlink:title=" ">
<polygon fill="white" stroke="#bfbfbf" points="618.55,-0.5 618.55,-19.5 668.55,-19.5 668.55,-0.5 618.55,-0.5"/>
<text text-anchor="middle" x="643.55" y="-7.5" font-family="Helvetica,sans-Serif" font-size="10.00">cstring</text>
</a>
</g>
</g>
<!-- Node18&#45;&gt;Node19 -->
<g id="edge25" class="edge">
<title>Node18&#45;&gt;Node19</title>
<path fill="none" stroke="midnightblue" d="M714.05,-56.32C700.95,-47.9 680.83,-34.97 665.44,-25.07"/>
<polygon fill="midnightblue" stroke="midnightblue" points="667.31,-22.12 657.01,-19.65 663.53,-28.01 667.31,-22.12"/>
</g>
<!-- Node20 -->
<g id="node20" class="node">
<title>Node20</title>
<g id="a_node20"><a xlink:title=" ">
<polygon fill="white" stroke="#bfbfbf" points="687.05,-0.5 687.05,-19.5 752.05,-19.5 752.05,-0.5 687.05,-0.5"/>
<text text-anchor="middle" x="719.55" y="-7.5" font-family="Helvetica,sans-Serif" font-size="10.00">stdexcept</text>
</a>
</g>
</g>
<!-- Node18&#45;&gt;Node20 -->
<g id="edge26" class="edge">
<title>Node18&#45;&gt;Node20</title>
<path fill="none" stroke="midnightblue" d="M726.22,-56.08C725.16,-48.93 723.64,-38.64 722.31,-29.69"/>
<polygon fill="midnightblue" stroke="midnightblue" points="725.77,-29.13 720.84,-19.75 718.84,-30.16 725.77,-29.13"/>
</g>
<!-- Node26&#45;&gt;Node6 -->
<g id="edge58" class="edge">
<title>Node26&#45;&gt;Node6</title>
<path fill="none" stroke="midnightblue" d="M914.12,-229.93C905.86,-220.16 892.38,-203.54 882.55,-188 847.46,-132.53 814.78,-61.66 800.33,-28.99"/>
<polygon fill="midnightblue" stroke="midnightblue" points="803.52,-27.54 796.31,-19.79 797.11,-30.35 803.52,-27.54"/>
</g>
<!-- Node26&#45;&gt;Node24 -->
<g id="edge57" class="edge">
<title>Node26&#45;&gt;Node24</title>
<path fill="none" stroke="midnightblue" d="M913.18,-229.7C904.83,-220.25 892.54,-204.38 887.55,-188 884.95,-179.5 885.55,-176.66 887.55,-168 894.75,-136.64 913.04,-103.72 925.13,-84.3"/>
<polygon fill="midnightblue" stroke="midnightblue" points="928.2,-85.99 930.63,-75.68 922.3,-82.22 928.2,-85.99"/>
</g>
<!-- Node27 -->
<g id="node27" class="node">
<title>Node27</title>
<g id="a_node27"><a xlink:href="logger_8h.html" target="_top" xlink:title=" ">
<polygon fill="white" stroke="black" points="965.05,-168.5 965.05,-187.5 1052.05,-187.5 1052.05,-168.5 965.05,-168.5"/>
<text text-anchor="middle" x="1008.55" y="-175.5" font-family="Helvetica,sans-Serif" font-size="10.00">ccf/ds/logger.h</text>
</a>
</g>
</g>
<!-- Node26&#45;&gt;Node27 -->
<g id="edge39" class="edge">
<title>Node26&#45;&gt;Node27</title>
<path fill="none" stroke="midnightblue" d="M934.01,-229.98C947.96,-220.43 970.81,-204.81 987.54,-193.37"/>
<polygon fill="midnightblue" stroke="midnightblue" points="989.82,-196.04 996.1,-187.51 985.87,-190.27 989.82,-196.04"/>
</g>
<!-- Node39 -->
<g id="node39" class="node">
<title>Node39</title>
<g id="a_node39"><a xlink:title=" ">
<polygon fill="white" stroke="#bfbfbf" points="896.55,-168.5 896.55,-187.5 946.55,-187.5 946.55,-168.5 896.55,-168.5"/>
<text text-anchor="middle" x="921.55" y="-175.5" font-family="Helvetica,sans-Serif" font-size="10.00">chrono</text>
</a>
</g>
</g>
<!-- Node26&#45;&gt;Node39 -->
<g id="edge56" class="edge">
<title>Node26&#45;&gt;Node39</title>
<path fill="none" stroke="midnightblue" d="M921.55,-229.98C921.55,-221.58 921.55,-208.48 921.55,-197.66"/>
<polygon fill="midnightblue" stroke="midnightblue" points="925.05,-197.51 921.55,-187.51 918.05,-197.51 925.05,-197.51"/>
</g>
<!-- Node27&#45;&gt;Node8 -->
<g id="edge55" class="edge">
<title>Node27&#45;&gt;Node8</title>
<path fill="none" stroke="midnightblue" d="M1052.05,-170.19C1128.64,-158.16 1279.69,-134.19 1281.55,-132 1287.3,-125.22 1287.03,-118.99 1281.55,-112 1236.09,-54.09 1010.7,-25.1 913.4,-15.13"/>
<polygon fill="midnightblue" stroke="midnightblue" points="913.59,-11.63 903.29,-14.11 912.89,-18.59 913.59,-11.63"/>
</g>
<!-- Node27&#45;&gt;Node24 -->
<g id="edge50" class="edge">
<title>Node27&#45;&gt;Node24</title>
<path fill="none" stroke="midnightblue" d="M976.36,-168.49C958.01,-161.8 936.53,-150.45 925.55,-132 917.05,-117.74 921.71,-98.77 927.35,-85.01"/>
<polygon fill="midnightblue" stroke="midnightblue" points="930.65,-86.21 931.65,-75.67 924.29,-83.29 930.65,-86.21"/>
</g>
<!-- Node27&#45;&gt;Node25 -->
<g id="edge53" class="edge">
<title>Node27&#45;&gt;Node25</title>
<path fill="none" stroke="midnightblue" d="M971.47,-168.44C928.04,-158.42 856.47,-141.91 812.62,-131.79"/>
<polygon fill="midnightblue" stroke="midnightblue" points="813.17,-128.32 802.64,-129.48 811.59,-135.14 813.17,-128.32"/>
</g>
<!-- Node28 -->
<g id="node28" class="node">
<title>Node28</title>
<g id="a_node28"><a xlink:href="enum__formatter_8h.html" target="_top" xlink:title=" ">
<polygon fill="white" stroke="black" points="1136.55,-112.5 1136.55,-131.5 1272.55,-131.5 1272.55,-112.5 1136.55,-112.5"/>
<text text-anchor="middle" x="1204.55" y="-119.5" font-family="Helvetica,sans-Serif" font-size="10.00">ccf/ds/enum_formatter.h</text>
</a>
</g>
</g>
<!-- Node27&#45;&gt;Node28 -->
<g id="edge40" class="edge">
<title>Node27&#45;&gt;Node28</title>
<path fill="none" stroke="midnightblue" d="M1039.6,-168.44C1073.15,-159.2 1126.74,-144.44 1163.69,-134.26"/>
<polygon fill="midnightblue" stroke="midnightblue" points="1164.92,-137.55 1173.63,-131.52 1163.06,-130.8 1164.92,-137.55"/>
</g>
<!-- Node29 -->
<g id="node29" class="node">
<title>Node29</title>
<g id="a_node29"><a xlink:href="thread__ids_8h.html" target="_top" xlink:title=" ">
<polygon fill="white" stroke="black" points="1426.55,-112.5 1426.55,-131.5 1534.55,-131.5 1534.55,-112.5 1426.55,-112.5"/>
<text text-anchor="middle" x="1480.55" y="-119.5" font-family="Helvetica,sans-Serif" font-size="10.00">ccf/ds/thread_ids.h</text>
</a>
</g>
</g>
<!-- Node27&#45;&gt;Node29 -->
<g id="edge42" class="edge">
<title>Node27&#45;&gt;Node29</title>
<path fill="none" stroke="midnightblue" d="M1052.21,-169.98C1057.05,-169.27 1061.9,-168.6 1066.55,-168 1218.89,-148.38 1260.21,-150.97 1416.31,-132.11"/>
<polygon fill="midnightblue" stroke="midnightblue" points="1416.76,-135.58 1426.27,-130.89 1415.92,-128.63 1416.76,-135.58"/>
</g>
<!-- Node35 -->
<g id="node35" class="node">
<title>Node35</title>
<g id="a_node35"><a xlink:title=" ">
<polygon fill="white" stroke="#bfbfbf" points="1329.05,-112.5 1329.05,-131.5 1408.05,-131.5 1408.05,-112.5 1329.05,-112.5"/>
<text text-anchor="middle" x="1368.55" y="-119.5" font-family="Helvetica,sans-Serif" font-size="10.00">fmt/chrono.h</text>
</a>
</g>
</g>
<!-- Node27&#45;&gt;Node35 -->
<g id="edge49" class="edge">
<title>Node27&#45;&gt;Node35</title>
<path fill="none" stroke="midnightblue" d="M1052.24,-170.17C1057.07,-169.43 1061.91,-168.7 1066.55,-168 1176.69,-151.46 1204.5,-149.16 1314.55,-132 1316.01,-131.77 1317.5,-131.54 1319.01,-131.3"/>
<polygon fill="midnightblue" stroke="midnightblue" points="1319.73,-134.73 1329.04,-129.68 1318.61,-127.82 1319.73,-134.73"/>
</g>
<!-- Node27&#45;&gt;Node36 -->
<g id="edge51" class="edge">
<title>Node27&#45;&gt;Node36</title>
<path fill="none" stroke="midnightblue" d="M1052.2,-169.85C1057.03,-169.17 1061.89,-168.54 1066.55,-168 1274.45,-144.06 1331.59,-163.37 1542.25,-131.97"/>
<polygon fill="midnightblue" stroke="midnightblue" points="1543.03,-135.39 1552.4,-130.43 1541.99,-128.47 1543.03,-135.39"/>
</g>
<!-- Node37 -->
<g id="node37" class="node">
<title>Node37</title>
<g id="a_node37"><a xlink:title=" ">
<polygon fill="white" stroke="#bfbfbf" points="934.55,-112.5 934.55,-131.5 1044.55,-131.5 1044.55,-112.5 934.55,-112.5"/>
<text text-anchor="middle" x="989.55" y="-119.5" font-family="Helvetica,sans-Serif" font-size="10.00">nlohmann/json.hpp</text>
</a>
</g>
</g>
<!-- Node27&#45;&gt;Node37 -->
<g id="edge52" class="edge">
<title>Node27&#45;&gt;Node37</title>
<path fill="none" stroke="midnightblue" d="M1005.41,-168.08C1002.86,-160.85 999.19,-150.41 996.02,-141.4"/>
<polygon fill="midnightblue" stroke="midnightblue" points="999.24,-140.02 992.62,-131.75 992.64,-142.35 999.24,-140.02"/>
</g>
<!-- Node38 -->
<g id="node38" class="node">
<title>Node38</title>
<g id="a_node38"><a xlink:title=" ">
<polygon fill="white" stroke="#bfbfbf" points="1062.55,-112.5 1062.55,-131.5 1118.55,-131.5 1118.55,-112.5 1062.55,-112.5"/>
<text text-anchor="middle" x="1090.55" y="-119.5" font-family="Helvetica,sans-Serif" font-size="10.00">sstream</text>
</a>
</g>
</g>
<!-- Node27&#45;&gt;Node38 -->
<g id="edge54" class="edge">
<title>Node27&#45;&gt;Node38</title>
<path fill="none" stroke="midnightblue" d="M1021.72,-168.32C1034.39,-159.98 1053.78,-147.21 1068.75,-137.35"/>
<polygon fill="midnightblue" stroke="midnightblue" points="1070.98,-140.08 1077.4,-131.65 1067.13,-134.23 1070.98,-140.08"/>
</g>
<!-- Node28&#45;&gt;Node24 -->
<g id="edge41" class="edge">
<title>Node28&#45;&gt;Node24</title>
<path fill="none" stroke="midnightblue" d="M1162.08,-112.44C1114.3,-102.82 1036.79,-87.2 986.24,-77.01"/>
<polygon fill="midnightblue" stroke="midnightblue" points="986.69,-73.53 976.19,-74.99 985.3,-80.39 986.69,-73.53"/>
</g>
<!-- Node29&#45;&gt;Node24 -->
<g id="edge43" class="edge">
<title>Node29&#45;&gt;Node24</title>
<path fill="none" stroke="midnightblue" d="M1426.27,-113.08C1423.32,-112.7 1420.4,-112.34 1417.55,-112 1260.47,-93.44 1073.79,-77.81 986.37,-70.86"/>
<polygon fill="midnightblue" stroke="midnightblue" points="986.45,-67.35 976.21,-70.05 985.9,-74.33 986.45,-67.35"/>
</g>
<!-- Node30 -->
<g id="node30" class="node">
<title>Node30</title>
<g id="a_node30"><a xlink:title=" ">
<polygon fill="white" stroke="#bfbfbf" points="1450.55,-56.5 1450.55,-75.5 1536.55,-75.5 1536.55,-56.5 1450.55,-56.5"/>
<text text-anchor="middle" x="1493.55" y="-63.5" font-family="Helvetica,sans-Serif" font-size="10.00">fmt/ostream.h</text>
</a>
</g>
</g>
<!-- Node29&#45;&gt;Node30 -->
<g id="edge44" class="edge">
<title>Node29&#45;&gt;Node30</title>
<path fill="none" stroke="midnightblue" d="M1482.69,-112.08C1484.41,-104.93 1486.89,-94.64 1489.05,-85.69"/>
<polygon fill="midnightblue" stroke="midnightblue" points="1492.5,-86.29 1491.44,-75.75 1485.69,-84.65 1492.5,-86.29"/>
</g>
<!-- Node31 -->
<g id="node31" class="node">
<title>Node31</title>
<g id="a_node31"><a xlink:title=" ">
<polygon fill="white" stroke="#bfbfbf" points="1555.05,-56.5 1555.05,-75.5 1616.05,-75.5 1616.05,-56.5 1555.05,-56.5"/>
<text text-anchor="middle" x="1585.55" y="-63.5" font-family="Helvetica,sans-Serif" font-size="10.00">fmt/std.h</text>
</a>
</g>
</g>
<!-- Node29&#45;&gt;Node31 -->
<g id="edge45" class="edge">
<title>Node29&#45;&gt;Node31</title>
<path fill="none" stroke="midnightblue" d="M1497.42,-112.32C1514.25,-103.66 1540.35,-90.24 1559.78,-80.25"/>
<polygon fill="midnightblue" stroke="midnightblue" points="1561.42,-83.34 1568.72,-75.65 1558.22,-77.12 1561.42,-83.34"/>
</g>
<!-- Node32 -->
<g id="node32" class="node">
<title>Node32</title>
<g id="a_node32"><a xlink:title=" ">
<polygon fill="white" stroke="#bfbfbf" points="1634.55,-56.5 1634.55,-75.5 1678.55,-75.5 1678.55,-56.5 1634.55,-56.5"/>
<text text-anchor="middle" x="1656.55" y="-63.5" font-family="Helvetica,sans-Serif" font-size="10.00">limits</text>
</a>
</g>
</g>
<!-- Node29&#45;&gt;Node32 -->
<g id="edge46" class="edge">
<title>Node29&#45;&gt;Node32</title>
<path fill="none" stroke="midnightblue" d="M1508.43,-112.44C1540.06,-102.74 1591.52,-86.95 1624.69,-76.77"/>
<polygon fill="midnightblue" stroke="midnightblue" points="1625.83,-80.09 1634.36,-73.81 1623.77,-73.39 1625.83,-80.09"/>
</g>
<!-- Node33 -->
<g id="node33" class="node">
<title>Node33</title>
<g id="a_node33"><a xlink:title=" ">
<polygon fill="white" stroke="#bfbfbf" points="1328.55,-56.5 1328.55,-75.5 1366.55,-75.5 1366.55,-56.5 1328.55,-56.5"/>
<text text-anchor="middle" x="1347.55" y="-63.5" font-family="Helvetica,sans-Serif" font-size="10.00">map</text>
</a>
</g>
</g>
<!-- Node29&#45;&gt;Node33 -->
<g id="edge47" class="edge">
<title>Node29&#45;&gt;Node33</title>
<path fill="none" stroke="midnightblue" d="M1459.47,-112.44C1436.97,-103.31 1401.17,-88.77 1376.14,-78.61"/>
<polygon fill="midnightblue" stroke="midnightblue" points="1377.38,-75.33 1366.79,-74.82 1374.74,-81.82 1377.38,-75.33"/>
</g>
<!-- Node34 -->
<g id="node34" class="node">
<title>Node34</title>
<g id="a_node34"><a xlink:title=" ">
<polygon fill="white" stroke="#bfbfbf" points="1384.55,-56.5 1384.55,-75.5 1432.55,-75.5 1432.55,-56.5 1384.55,-56.5"/>
<text text-anchor="middle" x="1408.55" y="-63.5" font-family="Helvetica,sans-Serif" font-size="10.00">thread</text>
</a>
</g>
</g>
<!-- Node29&#45;&gt;Node34 -->
<g id="edge48" class="edge">
<title>Node29&#45;&gt;Node34</title>
<path fill="none" stroke="midnightblue" d="M1468.98,-112.32C1458.12,-104.18 1441.66,-91.84 1428.66,-82.09"/>
<polygon fill="midnightblue" stroke="midnightblue" points="1430.42,-79.03 1420.32,-75.83 1426.22,-84.63 1430.42,-79.03"/>
</g>
</g>
</svg>
        <g id="navigator" transform="translate(0 0)" fill="#404254">
                <rect fill="#f2f5e9" fill-opacity="0.5" stroke="#606060" stroke-width=".5" x="0" y="0" width="60" height="60"/>
                <use id="zoomplus" xlink:href="#zoomPlus" x="17" y="9" onmousedown="handleZoom(evt,'in')"/>
                <use id="zoomminus" xlink:href="#zoomMin" x="42" y="9" onmousedown="handleZoom(evt,'out')"/>
                <use id="reset" xlink:href="#resetDef" x="30" y="36" onmousedown="handleReset()"/>
                <g id="arrowUp" xlink:href="#dirArrow" transform="translate(30 24)" onmousedown="handlePan(0,-1)">
                  <use xlink:href="#rim" fill="#404040">
                        <set attributeName="fill" to="#808080" begin="arrowUp.mouseover" end="arrowUp.mouseout"/>
                  </use>
                  <path fill="none" stroke="white" stroke-width="1.5" d="M0,-3.0v7 M-2.5,-0.5L0,-3.0L2.5,-0.5"/>
                </g>
                <g id="arrowRight" xlink:href="#dirArrow" transform="rotate(90) translate(36 -43)" onmousedown="handlePan(1,0)">
                  <use xlink:href="#rim" fill="#404040">
                        <set attributeName="fill" to="#808080" begin="arrowRight.mouseover" end="arrowRight.mouseout"/>
                  </use>
                  <path fill="none" stroke="white" stroke-width="1.5" d="M0,-3.0v7 M-2.5,-0.5L0,-3.0L2.5,-0.5"/>
                </g>
                <g id="arrowDown" xlink:href="#dirArrow" transform="rotate(180) translate(-30 -48)" onmousedown="handlePan(0,1)">
                  <use xlink:href="#rim" fill="#404040">
                        <set attributeName="fill" to="#808080" begin="arrowDown.mouseover" end="arrowDown.mouseout"/>
                  </use>
                  <path fill="none" stroke="white" stroke-width="1.5" d="M0,-3.0v7 M-2.5,-0.5L0,-3.0L2.5,-0.5"/>
                </g>
                <g id="arrowLeft" xlink:href="#dirArrow" transform="rotate(270) translate(-36 17)" onmousedown="handlePan(-1,0)">
                  <use xlink:href="#rim" fill="#404040">
                        <set attributeName="fill" to="#808080" begin="arrowLeft.mouseover" end="arrowLeft.mouseout"/>
                  </use>
                  <path fill="none" stroke="white" stroke-width="1.5" d="M0,-3.0v7 M-2.5,-0.5L0,-3.0L2.5,-0.5"/>
                </g>
        </g>
        <svg viewBox="0 0 15 15" width="100%" height="30px" preserveAspectRatio="xMaxYMin meet">
         <g id="arrow_out" transform="scale(0.3 0.3)">
          <a xlink:href="snapshots_8h__incl_org.svg" target="_base">
           <rect id="button" ry="5" rx="5" y="6" x="6" height="38" width="38"
                fill="#f2f5e9" fill-opacity="0.5" stroke="#606060" stroke-width="1.0"/>
           <path id="arrow"
             d="M 11.500037,31.436501 C 11.940474,20.09759 22.043105,11.32322 32.158766,21.979434 L 37.068811,17.246167 C 37.068811,17.246167 37.088388,32 37.088388,32 L 22.160133,31.978069 C 22.160133,31.978069 26.997745,27.140456 26.997745,27.140456 C 18.528582,18.264221 13.291696,25.230495 11.500037,31.436501 z"
             style="fill:#404040;"/>
          </a>
         </g>
        </svg>
</svg>
