<?xml version="1.0" encoding="UTF-8" standalone="no"?>
<!DOCTYPE svg PUBLIC "-//W3C//DTD SVG 1.1//EN"
 "http://www.w3.org/Graphics/SVG/1.1/DTD/svg11.dtd">
<!-- Generated by graphviz version 2.43.0 (0)
 -->
<!-- Title: src/host/enclave.h Pages: 1 -->
<svg width="1817pt" height="476pt"
 viewBox="0.00 0.00 1817.41 476.00" xmlns="http://www.w3.org/2000/svg" xmlns:xlink="http://www.w3.org/1999/xlink">
<g id="graph0" class="graph" transform="scale(1 1) rotate(0) translate(4 472)">
<title>src/host/enclave.h</title>
<polygon fill="white" stroke="transparent" points="-4,4 -4,-472 1813.41,-472 1813.41,4 -4,4"/>
<!-- Node1 -->
<g id="node1" class="node">
<title>Node1</title>
<g id="a_node1"><a xlink:title=" ">
<polygon fill="#bfbfbf" stroke="black" points="1089,-448.5 1089,-467.5 1194,-467.5 1194,-448.5 1089,-448.5"/>
<text text-anchor="middle" x="1141.5" y="-455.5" font-family="Helvetica,sans-Serif" font-size="10.00">src/host/enclave.h</text>
</a>
</g>
</g>
<!-- Node2 -->
<g id="node2" class="node">
<title>Node2</title>
<g id="a_node2"><a xlink:href="logger_8h.html" target="_top" xlink:title=" ">
<polygon fill="white" stroke="black" points="1233,-224.5 1233,-243.5 1320,-243.5 1320,-224.5 1233,-224.5"/>
<text text-anchor="middle" x="1276.5" y="-231.5" font-family="Helvetica,sans-Serif" font-size="10.00">ccf/ds/logger.h</text>
</a>
</g>
</g>
<!-- Node1&#45;&gt;Node2 -->
<g id="edge1" class="edge">
<title>Node1&#45;&gt;Node2</title>
<path fill="none" stroke="midnightblue" d="M1143.04,-448.23C1145.52,-435.39 1151.1,-410.96 1160.5,-392 1188.47,-335.59 1236.94,-278.37 1261.42,-251.22"/>
<polygon fill="midnightblue" stroke="midnightblue" points="1264.04,-253.54 1268.2,-243.8 1258.87,-248.83 1264.04,-253.54"/>
</g>
<!-- Node17 -->
<g id="node17" class="node">
<title>Node17</title>
<g id="a_node17"><a xlink:title=" ">
<polygon fill="white" stroke="#bfbfbf" points="1034,-392.5 1034,-411.5 1113,-411.5 1113,-392.5 1034,-392.5"/>
<text text-anchor="middle" x="1073.5" y="-399.5" font-family="Helvetica,sans-Serif" font-size="10.00">ccf/version.h</text>
</a>
</g>
</g>
<!-- Node1&#45;&gt;Node17 -->
<g id="edge18" class="edge">
<title>Node1&#45;&gt;Node17</title>
<path fill="none" stroke="midnightblue" d="M1130.57,-448.32C1120.33,-440.18 1104.78,-427.84 1092.5,-418.09"/>
<polygon fill="midnightblue" stroke="midnightblue" points="1094.63,-415.31 1084.62,-411.83 1090.28,-420.79 1094.63,-415.31"/>
</g>
<!-- Node18 -->
<g id="node18" class="node">
<title>Node18</title>
<g id="a_node18"><a xlink:href="interface_8h.html" target="_top" xlink:title=" ">
<polygon fill="white" stroke="black" points="530.5,-392.5 530.5,-411.5 640.5,-411.5 640.5,-392.5 530.5,-392.5"/>
<text text-anchor="middle" x="585.5" y="-399.5" font-family="Helvetica,sans-Serif" font-size="10.00">enclave/interface.h</text>
</a>
</g>
</g>
<!-- Node1&#45;&gt;Node18 -->
<g id="edge19" class="edge">
<title>Node1&#45;&gt;Node18</title>
<path fill="none" stroke="midnightblue" d="M1088.94,-451.9C986.96,-441.99 762.48,-420.19 650.99,-409.36"/>
<polygon fill="midnightblue" stroke="midnightblue" points="651.18,-405.86 640.89,-408.38 650.5,-412.83 651.18,-405.86"/>
</g>
<!-- Node48 -->
<g id="node48" class="node">
<title>Node48</title>
<g id="a_node48"><a xlink:title=" ">
<polygon fill="white" stroke="#bfbfbf" points="1169.5,-392.5 1169.5,-411.5 1219.5,-411.5 1219.5,-392.5 1169.5,-392.5"/>
<text text-anchor="middle" x="1194.5" y="-399.5" font-family="Helvetica,sans-Serif" font-size="10.00">dlfcn.h</text>
</a>
</g>
</g>
<!-- Node1&#45;&gt;Node48 -->
<g id="edge76" class="edge">
<title>Node1&#45;&gt;Node48</title>
<path fill="none" stroke="midnightblue" d="M1150.25,-448.08C1157.97,-440.22 1169.4,-428.57 1178.72,-419.08"/>
<polygon fill="midnightblue" stroke="midnightblue" points="1181.4,-421.34 1185.91,-411.75 1176.41,-416.44 1181.4,-421.34"/>
</g>
<!-- Node49 -->
<g id="node49" class="node">
<title>Node49</title>
<g id="a_node49"><a xlink:title=" ">
<polygon fill="white" stroke="#bfbfbf" points="1237.5,-392.5 1237.5,-411.5 1305.5,-411.5 1305.5,-392.5 1237.5,-392.5"/>
<text text-anchor="middle" x="1271.5" y="-399.5" font-family="Helvetica,sans-Serif" font-size="10.00">filesystem</text>
</a>
</g>
</g>
<!-- Node1&#45;&gt;Node49 -->
<g id="edge77" class="edge">
<title>Node1&#45;&gt;Node49</title>
<path fill="none" stroke="midnightblue" d="M1162.1,-448.44C1183.49,-439.56 1217.18,-425.56 1241.52,-415.45"/>
<polygon fill="midnightblue" stroke="midnightblue" points="1243.11,-418.58 1251,-411.52 1240.42,-412.12 1243.11,-418.58"/>
</g>
<!-- Node3 -->
<g id="node3" class="node">
<title>Node3</title>
<g id="a_node3"><a xlink:href="enum__formatter_8h.html" target="_top" xlink:title=" ">
<polygon fill="white" stroke="black" points="1423.5,-168.5 1423.5,-187.5 1559.5,-187.5 1559.5,-168.5 1423.5,-168.5"/>
<text text-anchor="middle" x="1491.5" y="-175.5" font-family="Helvetica,sans-Serif" font-size="10.00">ccf/ds/enum_formatter.h</text>
</a>
</g>
</g>
<!-- Node2&#45;&gt;Node3 -->
<g id="edge2" class="edge">
<title>Node2&#45;&gt;Node3</title>
<path fill="none" stroke="midnightblue" d="M1310.57,-224.44C1347.68,-215.12 1407.16,-200.18 1447.71,-190"/>
<polygon fill="midnightblue" stroke="midnightblue" points="1448.75,-193.35 1457.59,-187.52 1447.04,-186.56 1448.75,-193.35"/>
</g>
<!-- Node4 -->
<g id="node4" class="node">
<title>Node4</title>
<g id="a_node4"><a xlink:title=" ">
<polygon fill="white" stroke="#bfbfbf" points="1076,-112.5 1076,-131.5 1155,-131.5 1155,-112.5 1076,-112.5"/>
<text text-anchor="middle" x="1115.5" y="-119.5" font-family="Helvetica,sans-Serif" font-size="10.00">fmt/format.h</text>
</a>
</g>
</g>
<!-- Node2&#45;&gt;Node4 -->
<g id="edge12" class="edge">
<title>Node2&#45;&gt;Node4</title>
<path fill="none" stroke="midnightblue" d="M1232.71,-229.85C1201.34,-225.31 1160.26,-214.35 1134.5,-188 1122.57,-175.79 1118.06,-156.53 1116.39,-142.13"/>
<polygon fill="midnightblue" stroke="midnightblue" points="1119.86,-141.55 1115.57,-131.86 1112.88,-142.11 1119.86,-141.55"/>
</g>
<!-- Node5 -->
<g id="node5" class="node">
<title>Node5</title>
<g id="a_node5"><a xlink:href="thread__ids_8h.html" target="_top" xlink:title=" ">
<polygon fill="white" stroke="black" points="1675.5,-168.5 1675.5,-187.5 1783.5,-187.5 1783.5,-168.5 1675.5,-168.5"/>
<text text-anchor="middle" x="1729.5" y="-175.5" font-family="Helvetica,sans-Serif" font-size="10.00">ccf/ds/thread_ids.h</text>
</a>
</g>
</g>
<!-- Node2&#45;&gt;Node5 -->
<g id="edge4" class="edge">
<title>Node2&#45;&gt;Node5</title>
<path fill="none" stroke="midnightblue" d="M1320.12,-228.36C1390.43,-220.78 1533.44,-205.04 1664.96,-188.17"/>
<polygon fill="midnightblue" stroke="midnightblue" points="1665.75,-191.6 1675.22,-186.85 1664.85,-184.66 1665.75,-191.6"/>
</g>
<!-- Node11 -->
<g id="node11" class="node">
<title>Node11</title>
<g id="a_node11"><a xlink:title=" ">
<polygon fill="white" stroke="#bfbfbf" points="1578,-168.5 1578,-187.5 1657,-187.5 1657,-168.5 1578,-168.5"/>
<text text-anchor="middle" x="1617.5" y="-175.5" font-family="Helvetica,sans-Serif" font-size="10.00">fmt/chrono.h</text>
</a>
</g>
</g>
<!-- Node2&#45;&gt;Node11 -->
<g id="edge11" class="edge">
<title>Node2&#45;&gt;Node11</title>
<path fill="none" stroke="midnightblue" d="M1320.1,-226.68C1375.27,-218.59 1473.49,-203.91 1567.93,-188.05"/>
<polygon fill="midnightblue" stroke="midnightblue" points="1568.66,-191.48 1577.94,-186.37 1567.49,-184.58 1568.66,-191.48"/>
</g>
<!-- Node12 -->
<g id="node12" class="node">
<title>Node12</title>
<g id="a_node12"><a xlink:title=" ">
<polygon fill="white" stroke="#bfbfbf" points="1143.5,-168.5 1143.5,-187.5 1203.5,-187.5 1203.5,-168.5 1143.5,-168.5"/>
<text text-anchor="middle" x="1173.5" y="-175.5" font-family="Helvetica,sans-Serif" font-size="10.00">iostream</text>
</a>
</g>
</g>
<!-- Node2&#45;&gt;Node12 -->
<g id="edge13" class="edge">
<title>Node2&#45;&gt;Node12</title>
<path fill="none" stroke="midnightblue" d="M1259.95,-224.32C1243.51,-215.7 1218.07,-202.36 1199.03,-192.39"/>
<polygon fill="midnightblue" stroke="midnightblue" points="1200.49,-189.2 1190.01,-187.65 1197.24,-195.4 1200.49,-189.2"/>
</g>
<!-- Node13 -->
<g id="node13" class="node">
<title>Node13</title>
<g id="a_node13"><a xlink:title=" ">
<polygon fill="white" stroke="#bfbfbf" points="1221.5,-168.5 1221.5,-187.5 1331.5,-187.5 1331.5,-168.5 1221.5,-168.5"/>
<text text-anchor="middle" x="1276.5" y="-175.5" font-family="Helvetica,sans-Serif" font-size="10.00">nlohmann/json.hpp</text>
</a>
</g>
</g>
<!-- Node2&#45;&gt;Node13 -->
<g id="edge14" class="edge">
<title>Node2&#45;&gt;Node13</title>
<path fill="none" stroke="midnightblue" d="M1276.5,-224.08C1276.5,-217.01 1276.5,-206.86 1276.5,-197.99"/>
<polygon fill="midnightblue" stroke="midnightblue" points="1280,-197.75 1276.5,-187.75 1273,-197.75 1280,-197.75"/>
</g>
<!-- Node14 -->
<g id="node14" class="node">
<title>Node14</title>
<g id="a_node14"><a xlink:title=" ">
<polygon fill="white" stroke="#bfbfbf" points="807.5,-112.5 807.5,-131.5 863.5,-131.5 863.5,-112.5 807.5,-112.5"/>
<text text-anchor="middle" x="835.5" y="-119.5" font-family="Helvetica,sans-Serif" font-size="10.00">optional</text>
</a>
</g>
</g>
<!-- Node2&#45;&gt;Node14 -->
<g id="edge15" class="edge">
<title>Node2&#45;&gt;Node14</title>
<path fill="none" stroke="midnightblue" d="M1232.96,-230.53C1150.04,-225.34 972.69,-211.78 916.5,-188 889.92,-176.75 864.9,-154.15 849.89,-138.8"/>
<polygon fill="midnightblue" stroke="midnightblue" points="852.42,-136.38 843,-131.53 847.34,-141.19 852.42,-136.38"/>
</g>
<!-- Node15 -->
<g id="node15" class="node">
<title>Node15</title>
<g id="a_node15"><a xlink:title=" ">
<polygon fill="white" stroke="#bfbfbf" points="1349.5,-168.5 1349.5,-187.5 1405.5,-187.5 1405.5,-168.5 1349.5,-168.5"/>
<text text-anchor="middle" x="1377.5" y="-175.5" font-family="Helvetica,sans-Serif" font-size="10.00">sstream</text>
</a>
</g>
</g>
<!-- Node2&#45;&gt;Node15 -->
<g id="edge16" class="edge">
<title>Node2&#45;&gt;Node15</title>
<path fill="none" stroke="midnightblue" d="M1292.73,-224.32C1308.85,-215.7 1333.8,-202.36 1352.46,-192.39"/>
<polygon fill="midnightblue" stroke="midnightblue" points="1354.14,-195.46 1361.31,-187.65 1350.84,-189.28 1354.14,-195.46"/>
</g>
<!-- Node16 -->
<g id="node16" class="node">
<title>Node16</title>
<g id="a_node16"><a xlink:title=" ">
<polygon fill="white" stroke="#bfbfbf" points="1039,-0.5 1039,-19.5 1108,-19.5 1108,-0.5 1039,-0.5"/>
<text text-anchor="middle" x="1073.5" y="-7.5" font-family="Helvetica,sans-Serif" font-size="10.00">type_traits</text>
</a>
</g>
</g>
<!-- Node2&#45;&gt;Node16 -->
<g id="edge17" class="edge">
<title>Node2&#45;&gt;Node16</title>
<path fill="none" stroke="midnightblue" d="M1320.36,-232.49C1439.24,-230.65 1760.87,-222.51 1792.5,-188 1815.32,-163.1 1814.66,-137.49 1792.5,-112 1747.93,-60.73 1268.56,-24.19 1118.29,-13.92"/>
<polygon fill="midnightblue" stroke="midnightblue" points="1118.26,-10.41 1108.05,-13.23 1117.79,-17.4 1118.26,-10.41"/>
</g>
<!-- Node3&#45;&gt;Node4 -->
<g id="edge3" class="edge">
<title>Node3&#45;&gt;Node4</title>
<path fill="none" stroke="midnightblue" d="M1431.92,-168.44C1358.26,-157.86 1234.21,-140.05 1165.35,-130.16"/>
<polygon fill="midnightblue" stroke="midnightblue" points="1165.59,-126.66 1155.19,-128.7 1164.59,-133.59 1165.59,-126.66"/>
</g>
<!-- Node5&#45;&gt;Node4 -->
<g id="edge5" class="edge">
<title>Node5&#45;&gt;Node4</title>
<path fill="none" stroke="midnightblue" d="M1675.23,-169.03C1672.28,-168.67 1669.35,-168.32 1666.5,-168 1482.22,-147.33 1262.24,-132.23 1165.42,-126.06"/>
<polygon fill="midnightblue" stroke="midnightblue" points="1165.54,-122.56 1155.34,-125.43 1165.1,-129.55 1165.54,-122.56"/>
</g>
<!-- Node6 -->
<g id="node6" class="node">
<title>Node6</title>
<g id="a_node6"><a xlink:title=" ">
<polygon fill="white" stroke="#bfbfbf" points="1561.5,-112.5 1561.5,-131.5 1647.5,-131.5 1647.5,-112.5 1561.5,-112.5"/>
<text text-anchor="middle" x="1604.5" y="-119.5" font-family="Helvetica,sans-Serif" font-size="10.00">fmt/ostream.h</text>
</a>
</g>
</g>
<!-- Node5&#45;&gt;Node6 -->
<g id="edge6" class="edge">
<title>Node5&#45;&gt;Node6</title>
<path fill="none" stroke="midnightblue" d="M1709.69,-168.44C1689.21,-159.6 1657.02,-145.69 1633.64,-135.59"/>
<polygon fill="midnightblue" stroke="midnightblue" points="1634.78,-132.27 1624.21,-131.52 1632.01,-138.7 1634.78,-132.27"/>
</g>
<!-- Node7 -->
<g id="node7" class="node">
<title>Node7</title>
<g id="a_node7"><a xlink:title=" ">
<polygon fill="white" stroke="#bfbfbf" points="1666,-112.5 1666,-131.5 1727,-131.5 1727,-112.5 1666,-112.5"/>
<text text-anchor="middle" x="1696.5" y="-119.5" font-family="Helvetica,sans-Serif" font-size="10.00">fmt/std.h</text>
</a>
</g>
</g>
<!-- Node5&#45;&gt;Node7 -->
<g id="edge7" class="edge">
<title>Node5&#45;&gt;Node7</title>
<path fill="none" stroke="midnightblue" d="M1724.05,-168.08C1719.49,-160.61 1712.83,-149.72 1707.21,-140.52"/>
<polygon fill="midnightblue" stroke="midnightblue" points="1710.05,-138.46 1701.85,-131.75 1704.08,-142.11 1710.05,-138.46"/>
</g>
<!-- Node8 -->
<g id="node8" class="node">
<title>Node8</title>
<g id="a_node8"><a xlink:title=" ">
<polygon fill="white" stroke="#bfbfbf" points="1303.5,-112.5 1303.5,-131.5 1347.5,-131.5 1347.5,-112.5 1303.5,-112.5"/>
<text text-anchor="middle" x="1325.5" y="-119.5" font-family="Helvetica,sans-Serif" font-size="10.00">limits</text>
</a>
</g>
</g>
<!-- Node5&#45;&gt;Node8 -->
<g id="edge8" class="edge">
<title>Node5&#45;&gt;Node8</title>
<path fill="none" stroke="midnightblue" d="M1675.21,-169.21C1672.26,-168.8 1669.35,-168.39 1666.5,-168 1553.21,-152.43 1418.6,-134.97 1357.96,-127.17"/>
<polygon fill="midnightblue" stroke="midnightblue" points="1358.22,-123.67 1347.85,-125.87 1357.33,-130.61 1358.22,-123.67"/>
</g>
<!-- Node9 -->
<g id="node9" class="node">
<title>Node9</title>
<g id="a_node9"><a xlink:title=" ">
<polygon fill="white" stroke="#bfbfbf" points="1745.5,-112.5 1745.5,-131.5 1783.5,-131.5 1783.5,-112.5 1745.5,-112.5"/>
<text text-anchor="middle" x="1764.5" y="-119.5" font-family="Helvetica,sans-Serif" font-size="10.00">map</text>
</a>
</g>
</g>
<!-- Node5&#45;&gt;Node9 -->
<g id="edge9" class="edge">
<title>Node5&#45;&gt;Node9</title>
<path fill="none" stroke="midnightblue" d="M1735.28,-168.08C1740.17,-160.53 1747.33,-149.49 1753.33,-140.23"/>
<polygon fill="midnightblue" stroke="midnightblue" points="1756.33,-142.05 1758.83,-131.75 1750.45,-138.24 1756.33,-142.05"/>
</g>
<!-- Node10 -->
<g id="node10" class="node">
<title>Node10</title>
<g id="a_node10"><a xlink:title=" ">
<polygon fill="white" stroke="#bfbfbf" points="1495.5,-112.5 1495.5,-131.5 1543.5,-131.5 1543.5,-112.5 1495.5,-112.5"/>
<text text-anchor="middle" x="1519.5" y="-119.5" font-family="Helvetica,sans-Serif" font-size="10.00">thread</text>
</a>
</g>
</g>
<!-- Node5&#45;&gt;Node10 -->
<g id="edge10" class="edge">
<title>Node5&#45;&gt;Node10</title>
<path fill="none" stroke="midnightblue" d="M1695.19,-168.46C1661.52,-160.05 1608.46,-146.67 1553.55,-132.24"/>
<polygon fill="midnightblue" stroke="midnightblue" points="1554.2,-128.8 1543.64,-129.63 1552.42,-135.57 1554.2,-128.8"/>
</g>
<!-- Node19 -->
<g id="node19" class="node">
<title>Node19</title>
<g id="a_node19"><a xlink:href="oversized_8h.html" target="_top" xlink:title=" ">
<polygon fill="white" stroke="black" points="716,-336.5 716,-355.5 803,-355.5 803,-336.5 716,-336.5"/>
<text text-anchor="middle" x="759.5" y="-343.5" font-family="Helvetica,sans-Serif" font-size="10.00">ds/oversized.h</text>
</a>
</g>
</g>
<!-- Node18&#45;&gt;Node19 -->
<g id="edge20" class="edge">
<title>Node18&#45;&gt;Node19</title>
<path fill="none" stroke="midnightblue" d="M613.07,-392.44C642.6,-383.28 689.62,-368.69 722.38,-358.52"/>
<polygon fill="midnightblue" stroke="midnightblue" points="723.54,-361.82 732.06,-355.52 721.47,-355.14 723.54,-361.82"/>
</g>
<!-- Node25 -->
<g id="node25" class="node">
<title>Node25</title>
<g id="a_node25"><a xlink:href="ring__buffer__types_8h.html" target="_top" xlink:title=" ">
<polygon fill="white" stroke="black" points="599.5,-168.5 599.5,-187.5 709.5,-187.5 709.5,-168.5 599.5,-168.5"/>
<text text-anchor="middle" x="654.5" y="-175.5" font-family="Helvetica,sans-Serif" font-size="10.00">ring_buffer_types.h</text>
</a>
</g>
</g>
<!-- Node18&#45;&gt;Node25 -->
<g id="edge73" class="edge">
<title>Node18&#45;&gt;Node25</title>
<path fill="none" stroke="midnightblue" d="M588.2,-392.3C598.38,-359.56 634.49,-243.38 648.7,-197.67"/>
<polygon fill="midnightblue" stroke="midnightblue" points="652.11,-198.47 651.74,-187.88 645.43,-196.39 652.11,-198.47"/>
</g>
<!-- Node30 -->
<g id="node30" class="node">
<title>Node30</title>
<g id="a_node30"><a xlink:title=" ">
<polygon fill="white" stroke="#bfbfbf" points="418,-0.5 418,-19.5 465,-19.5 465,-0.5 418,-0.5"/>
<text text-anchor="middle" x="441.5" y="-7.5" font-family="Helvetica,sans-Serif" font-size="10.00">vector</text>
</a>
</g>
</g>
<!-- Node18&#45;&gt;Node30 -->
<g id="edge75" class="edge">
<title>Node18&#45;&gt;Node30</title>
<path fill="none" stroke="midnightblue" d="M530.23,-399.41C407.6,-394.37 123.5,-373.76 123.5,-291 123.5,-291 123.5,-291 123.5,-121 123.5,-82.87 146.31,-74.78 179.5,-56 218.04,-34.19 346.02,-19.79 407.7,-13.95"/>
<polygon fill="midnightblue" stroke="midnightblue" points="408.07,-17.43 417.7,-13.02 407.42,-10.46 408.07,-17.43"/>
</g>
<!-- Node47 -->
<g id="node47" class="node">
<title>Node47</title>
<g id="a_node47"><a xlink:title=" ">
<polygon fill="white" stroke="#bfbfbf" points="507.5,-336.5 507.5,-355.5 557.5,-355.5 557.5,-336.5 507.5,-336.5"/>
<text text-anchor="middle" x="532.5" y="-343.5" font-family="Helvetica,sans-Serif" font-size="10.00">chrono</text>
</a>
</g>
</g>
<!-- Node18&#45;&gt;Node47 -->
<g id="edge74" class="edge">
<title>Node18&#45;&gt;Node47</title>
<path fill="none" stroke="midnightblue" d="M576.75,-392.08C569.03,-384.22 557.6,-372.57 548.28,-363.08"/>
<polygon fill="midnightblue" stroke="midnightblue" points="550.59,-360.44 541.09,-355.75 545.6,-365.34 550.59,-360.44"/>
</g>
<!-- Node19&#45;&gt;Node4 -->
<g id="edge71" class="edge">
<title>Node19&#45;&gt;Node4</title>
<path fill="none" stroke="midnightblue" d="M782.44,-336.38C801.99,-328.47 830.37,-315.62 852.5,-300 891.78,-272.27 888.45,-249.03 929.5,-224 973.42,-197.22 994.65,-213.2 1039.5,-188 1063,-174.8 1085.95,-153.7 1100.37,-139.14"/>
<polygon fill="midnightblue" stroke="midnightblue" points="1103.02,-141.44 1107.46,-131.82 1097.99,-136.57 1103.02,-141.44"/>
</g>
<!-- Node20 -->
<g id="node20" class="node">
<title>Node20</title>
<g id="a_node20"><a xlink:href="messaging_8h.html" target="_top" xlink:title=" ">
<polygon fill="white" stroke="black" points="900,-280.5 900,-299.5 979,-299.5 979,-280.5 900,-280.5"/>
<text text-anchor="middle" x="939.5" y="-287.5" font-family="Helvetica,sans-Serif" font-size="10.00">messaging.h</text>
</a>
</g>
</g>
<!-- Node19&#45;&gt;Node20 -->
<g id="edge21" class="edge">
<title>Node19&#45;&gt;Node20</title>
<path fill="none" stroke="midnightblue" d="M788.02,-336.44C818.57,-327.28 867.21,-312.69 901.1,-302.52"/>
<polygon fill="midnightblue" stroke="midnightblue" points="902.54,-305.74 911.11,-299.52 900.53,-299.04 902.54,-305.74"/>
</g>
<!-- Node21 -->
<g id="node21" class="node">
<title>Node21</title>
<g id="a_node21"><a xlink:href="ring__buffer_8h.html" target="_top" xlink:title=" ">
<polygon fill="white" stroke="black" points="766,-224.5 766,-243.5 843,-243.5 843,-224.5 766,-224.5"/>
<text text-anchor="middle" x="804.5" y="-231.5" font-family="Helvetica,sans-Serif" font-size="10.00">ring_buffer.h</text>
</a>
</g>
</g>
<!-- Node19&#45;&gt;Node21 -->
<g id="edge69" class="edge">
<title>Node19&#45;&gt;Node21</title>
<path fill="none" stroke="midnightblue" d="M753.13,-336.17C744.67,-323.26 731.86,-298.74 741.5,-280 748.58,-266.25 762.02,-255.77 774.68,-248.39"/>
<polygon fill="midnightblue" stroke="midnightblue" points="776.5,-251.39 783.65,-243.57 773.19,-245.22 776.5,-251.39"/>
</g>
<!-- Node39 -->
<g id="node39" class="node">
<title>Node39</title>
<g id="a_node39"><a xlink:href="serialized_8h.html" target="_top" xlink:title=" ">
<polygon fill="white" stroke="black" points="508,-56.5 508,-75.5 581,-75.5 581,-56.5 508,-56.5"/>
<text text-anchor="middle" x="544.5" y="-63.5" font-family="Helvetica,sans-Serif" font-size="10.00">serialized.h</text>
</a>
</g>
</g>
<!-- Node19&#45;&gt;Node39 -->
<g id="edge70" class="edge">
<title>Node19&#45;&gt;Node39</title>
<path fill="none" stroke="midnightblue" d="M747.24,-336.47C716.93,-314.83 637.54,-254.8 590.5,-188 567.72,-155.65 554.52,-110.58 548.49,-85.57"/>
<polygon fill="midnightblue" stroke="midnightblue" points="551.86,-84.59 546.22,-75.62 545.03,-86.14 551.86,-84.59"/>
</g>
<!-- Node46 -->
<g id="node46" class="node">
<title>Node46</title>
<g id="a_node46"><a xlink:title=" ">
<polygon fill="white" stroke="#bfbfbf" points="750,-280.5 750,-299.5 843,-299.5 843,-280.5 750,-280.5"/>
<text text-anchor="middle" x="796.5" y="-287.5" font-family="Helvetica,sans-Serif" font-size="10.00">unordered_map</text>
</a>
</g>
</g>
<!-- Node19&#45;&gt;Node46 -->
<g id="edge72" class="edge">
<title>Node19&#45;&gt;Node46</title>
<path fill="none" stroke="midnightblue" d="M765.61,-336.08C770.78,-328.53 778.35,-317.49 784.69,-308.23"/>
<polygon fill="midnightblue" stroke="midnightblue" points="787.74,-309.98 790.5,-299.75 781.96,-306.02 787.74,-309.98"/>
</g>
<!-- Node20&#45;&gt;Node2 -->
<g id="edge22" class="edge">
<title>Node20&#45;&gt;Node2</title>
<path fill="none" stroke="midnightblue" d="M979.15,-282.65C1039.55,-272.97 1154.76,-254.51 1222.67,-243.62"/>
<polygon fill="midnightblue" stroke="midnightblue" points="1223.43,-247.05 1232.75,-242.01 1222.32,-240.14 1223.43,-247.05"/>
</g>
<!-- Node20&#45;&gt;Node9 -->
<g id="edge67" class="edge">
<title>Node20&#45;&gt;Node9</title>
<path fill="none" stroke="midnightblue" d="M979.09,-284.5C1049.56,-276.49 1201.4,-259.14 1329.5,-244 1535.35,-219.68 1655.01,-343.12 1792.5,-188 1805.04,-173.86 1792.4,-153.24 1780.31,-139.04"/>
<polygon fill="midnightblue" stroke="midnightblue" points="1782.78,-136.55 1773.46,-131.52 1777.61,-141.27 1782.78,-136.55"/>
</g>
<!-- Node20&#45;&gt;Node21 -->
<g id="edge23" class="edge">
<title>Node20&#45;&gt;Node21</title>
<path fill="none" stroke="midnightblue" d="M918.11,-280.44C895.79,-271.52 860.6,-257.44 835.29,-247.32"/>
<polygon fill="midnightblue" stroke="midnightblue" points="836.38,-243.98 825.79,-243.52 833.78,-250.48 836.38,-243.98"/>
</g>
<!-- Node40 -->
<g id="node40" class="node">
<title>Node40</title>
<g id="a_node40"><a xlink:title=" ">
<polygon fill="white" stroke="#bfbfbf" points="704,-0.5 704,-19.5 769,-19.5 769,-0.5 704,-0.5"/>
<text text-anchor="middle" x="736.5" y="-7.5" font-family="Helvetica,sans-Serif" font-size="10.00">stdexcept</text>
</a>
</g>
</g>
<!-- Node20&#45;&gt;Node40 -->
<g id="edge68" class="edge">
<title>Node20&#45;&gt;Node40</title>
<path fill="none" stroke="midnightblue" d="M937.51,-280.33C928.23,-240.12 888.91,-73.07 872.5,-56 859.4,-42.37 813.91,-29.06 779.12,-20.5"/>
<polygon fill="midnightblue" stroke="midnightblue" points="779.71,-17.04 769.17,-18.11 778.07,-23.85 779.71,-17.04"/>
</g>
<!-- Node43 -->
<g id="node43" class="node">
<title>Node43</title>
<g id="a_node43"><a xlink:title=" ">
<polygon fill="white" stroke="#bfbfbf" points="739.5,-112.5 739.5,-131.5 789.5,-131.5 789.5,-112.5 739.5,-112.5"/>
<text text-anchor="middle" x="764.5" y="-119.5" font-family="Helvetica,sans-Serif" font-size="10.00">atomic</text>
</a>
</g>
</g>
<!-- Node20&#45;&gt;Node43 -->
<g id="edge65" class="edge">
<title>Node20&#45;&gt;Node43</title>
<path fill="none" stroke="midnightblue" d="M899.98,-284.87C851.87,-278.93 774.86,-266.17 757.5,-244 734.24,-214.29 747,-166.84 756.73,-141.08"/>
<polygon fill="midnightblue" stroke="midnightblue" points="759.99,-142.35 760.48,-131.77 753.5,-139.74 759.99,-142.35"/>
</g>
<!-- Node45 -->
<g id="node45" class="node">
<title>Node45</title>
<g id="a_node45"><a xlink:title=" ">
<polygon fill="white" stroke="#bfbfbf" points="938,-224.5 938,-243.5 1045,-243.5 1045,-224.5 938,-224.5"/>
<text text-anchor="middle" x="991.5" y="-231.5" font-family="Helvetica,sans-Serif" font-size="10.00">condition_variable</text>
</a>
</g>
</g>
<!-- Node20&#45;&gt;Node45 -->
<g id="edge66" class="edge">
<title>Node20&#45;&gt;Node45</title>
<path fill="none" stroke="midnightblue" d="M948.09,-280.08C955.66,-272.22 966.88,-260.57 976.01,-251.08"/>
<polygon fill="midnightblue" stroke="midnightblue" points="978.66,-253.38 983.07,-243.75 973.62,-248.53 978.66,-253.38"/>
</g>
<!-- Node22 -->
<g id="node22" class="node">
<title>Node22</title>
<g id="a_node22"><a xlink:href="mem_8h.html" target="_top" xlink:title=" ">
<polygon fill="white" stroke="black" points="925.5,-168.5 925.5,-187.5 1011.5,-187.5 1011.5,-168.5 925.5,-168.5"/>
<text text-anchor="middle" x="968.5" y="-175.5" font-family="Helvetica,sans-Serif" font-size="10.00">ccf/pal/mem.h</text>
</a>
</g>
</g>
<!-- Node21&#45;&gt;Node22 -->
<g id="edge24" class="edge">
<title>Node21&#45;&gt;Node22</title>
<path fill="none" stroke="midnightblue" d="M830.49,-224.44C858.2,-215.32 902.25,-200.81 933.12,-190.65"/>
<polygon fill="midnightblue" stroke="midnightblue" points="934.23,-193.97 942.64,-187.52 932.04,-187.32 934.23,-193.97"/>
</g>
<!-- Node24 -->
<g id="node24" class="node">
<title>Node24</title>
<g id="a_node24"><a xlink:title=" ">
<polygon fill="white" stroke="#bfbfbf" points="970.5,-0.5 970.5,-19.5 1020.5,-19.5 1020.5,-0.5 970.5,-0.5"/>
<text text-anchor="middle" x="995.5" y="-7.5" font-family="Helvetica,sans-Serif" font-size="10.00">cstring</text>
</a>
</g>
</g>
<!-- Node21&#45;&gt;Node24 -->
<g id="edge63" class="edge">
<title>Node21&#45;&gt;Node24</title>
<path fill="none" stroke="midnightblue" d="M843.35,-226.21C904,-215.42 1014.9,-194.89 1020.5,-188 1058.64,-141.1 1024.27,-63.11 1005.65,-28.48"/>
<polygon fill="midnightblue" stroke="midnightblue" points="1008.61,-26.6 1000.68,-19.57 1002.49,-30.01 1008.61,-26.6"/>
</g>
<!-- Node21&#45;&gt;Node25 -->
<g id="edge28" class="edge">
<title>Node21&#45;&gt;Node25</title>
<path fill="none" stroke="midnightblue" d="M780.73,-224.44C755.61,-215.4 715.79,-201.06 687.6,-190.92"/>
<polygon fill="midnightblue" stroke="midnightblue" points="688.75,-187.61 678.16,-187.52 686.38,-194.2 688.75,-187.61"/>
</g>
<!-- Node44 -->
<g id="node44" class="node">
<title>Node44</title>
<g id="a_node44"><a xlink:title=" ">
<polygon fill="white" stroke="#bfbfbf" points="766,-168.5 766,-187.5 831,-187.5 831,-168.5 766,-168.5"/>
<text text-anchor="middle" x="798.5" y="-175.5" font-family="Helvetica,sans-Serif" font-size="10.00">functional</text>
</a>
</g>
</g>
<!-- Node21&#45;&gt;Node44 -->
<g id="edge64" class="edge">
<title>Node21&#45;&gt;Node44</title>
<path fill="none" stroke="midnightblue" d="M803.51,-224.08C802.71,-216.93 801.57,-206.64 800.58,-197.69"/>
<polygon fill="midnightblue" stroke="midnightblue" points="804.06,-197.3 799.47,-187.75 797.1,-198.08 804.06,-197.3"/>
</g>
<!-- Node22&#45;&gt;Node8 -->
<g id="edge27" class="edge">
<title>Node22&#45;&gt;Node8</title>
<path fill="none" stroke="midnightblue" d="M1011.56,-170.49C1084.11,-159.51 1229.09,-137.58 1293.44,-127.85"/>
<polygon fill="midnightblue" stroke="midnightblue" points="1294.05,-131.3 1303.42,-126.34 1293.01,-124.38 1294.05,-131.3"/>
</g>
<!-- Node23 -->
<g id="node23" class="node">
<title>Node23</title>
<g id="a_node23"><a xlink:title=" ">
<polygon fill="white" stroke="#bfbfbf" points="920,-112.5 920,-131.5 973,-131.5 973,-112.5 920,-112.5"/>
<text text-anchor="middle" x="946.5" y="-119.5" font-family="Helvetica,sans-Serif" font-size="10.00">stdlib.h</text>
</a>
</g>
</g>
<!-- Node22&#45;&gt;Node23 -->
<g id="edge25" class="edge">
<title>Node22&#45;&gt;Node23</title>
<path fill="none" stroke="midnightblue" d="M964.87,-168.08C961.89,-160.77 957.57,-150.18 953.88,-141.1"/>
<polygon fill="midnightblue" stroke="midnightblue" points="957.08,-139.69 950.07,-131.75 950.6,-142.33 957.08,-139.69"/>
</g>
<!-- Node22&#45;&gt;Node24 -->
<g id="edge26" class="edge">
<title>Node22&#45;&gt;Node24</title>
<path fill="none" stroke="midnightblue" d="M971.81,-168.17C975.04,-159.19 979.84,-144.82 982.5,-132 989.91,-96.26 993.24,-53.66 994.62,-29.73"/>
<polygon fill="midnightblue" stroke="midnightblue" points="998.12,-29.77 995.15,-19.6 991.13,-29.4 998.12,-29.77"/>
</g>
<!-- Node25&#45;&gt;Node4 -->
<g id="edge59" class="edge">
<title>Node25&#45;&gt;Node4</title>
<path fill="none" stroke="midnightblue" d="M709.65,-170.54C800.13,-159.94 978.72,-139.02 1065.64,-128.84"/>
<polygon fill="midnightblue" stroke="midnightblue" points="1066.24,-132.29 1075.77,-127.65 1065.43,-125.34 1066.24,-132.29"/>
</g>
<!-- Node25&#45;&gt;Node14 -->
<g id="edge60" class="edge">
<title>Node25&#45;&gt;Node14</title>
<path fill="none" stroke="midnightblue" d="M683.18,-168.44C714.12,-159.21 763.52,-144.48 797.63,-134.3"/>
<polygon fill="midnightblue" stroke="midnightblue" points="798.67,-137.64 807.25,-131.43 796.67,-130.93 798.67,-137.64"/>
</g>
<!-- Node26 -->
<g id="node26" class="node">
<title>Node26</title>
<g id="a_node26"><a xlink:href="include_2ccf_2ds_2hash_8h.html" target="_top" xlink:title=" ">
<polygon fill="white" stroke="black" points="274.5,-112.5 274.5,-131.5 354.5,-131.5 354.5,-112.5 274.5,-112.5"/>
<text text-anchor="middle" x="314.5" y="-119.5" font-family="Helvetica,sans-Serif" font-size="10.00">ccf/ds/hash.h</text>
</a>
</g>
</g>
<!-- Node25&#45;&gt;Node26 -->
<g id="edge29" class="edge">
<title>Node25&#45;&gt;Node26</title>
<path fill="none" stroke="midnightblue" d="M600.63,-168.44C535.8,-158.15 427.81,-141 364.67,-130.97"/>
<polygon fill="midnightblue" stroke="midnightblue" points="364.99,-127.47 354.56,-129.36 363.89,-134.39 364.99,-127.47"/>
</g>
<!-- Node25&#45;&gt;Node30 -->
<g id="edge62" class="edge">
<title>Node25&#45;&gt;Node30</title>
<path fill="none" stroke="midnightblue" d="M628.34,-168.42C589.8,-154.59 517.57,-123.96 473.5,-76 461.16,-62.57 452.53,-43.49 447.37,-29.48"/>
<polygon fill="midnightblue" stroke="midnightblue" points="450.65,-28.25 444.09,-19.93 444.03,-30.52 450.65,-28.25"/>
</g>
<!-- Node33 -->
<g id="node33" class="node">
<title>Node33</title>
<g id="a_node33"><a xlink:href="nonstd_8h.html" target="_top" xlink:title=" ">
<polygon fill="white" stroke="black" points="773.5,-56.5 773.5,-75.5 863.5,-75.5 863.5,-56.5 773.5,-56.5"/>
<text text-anchor="middle" x="818.5" y="-63.5" font-family="Helvetica,sans-Serif" font-size="10.00">ccf/ds/nonstd.h</text>
</a>
</g>
</g>
<!-- Node25&#45;&gt;Node33 -->
<g id="edge38" class="edge">
<title>Node25&#45;&gt;Node33</title>
<path fill="none" stroke="midnightblue" d="M663.3,-168.25C676.91,-155.02 704.25,-129.58 730.5,-112 749.15,-99.51 771.71,-88.04 789.32,-79.8"/>
<polygon fill="midnightblue" stroke="midnightblue" points="790.9,-82.93 798.53,-75.58 787.99,-76.56 790.9,-82.93"/>
</g>
<!-- Node36 -->
<g id="node36" class="node">
<title>Node36</title>
<g id="a_node36"><a xlink:title=" ">
<polygon fill="white" stroke="#bfbfbf" points="574.5,-0.5 574.5,-19.5 618.5,-19.5 618.5,-0.5 574.5,-0.5"/>
<text text-anchor="middle" x="596.5" y="-7.5" font-family="Helvetica,sans-Serif" font-size="10.00">string</text>
</a>
</g>
</g>
<!-- Node25&#45;&gt;Node36 -->
<g id="edge61" class="edge">
<title>Node25&#45;&gt;Node36</title>
<path fill="none" stroke="midnightblue" d="M660.51,-168.09C669.04,-155.5 685.22,-131.82 699.5,-112 711.19,-95.78 720.18,-94.97 726.5,-76 729.31,-67.57 731.66,-63.24 726.5,-56 723.53,-51.83 666.27,-33.08 628.74,-21.13"/>
<polygon fill="midnightblue" stroke="midnightblue" points="629.33,-17.65 618.74,-17.96 627.22,-24.32 629.33,-17.65"/>
</g>
<!-- Node38 -->
<g id="node38" class="node">
<title>Node38</title>
<g id="a_node38"><a xlink:href="serializer_8h.html" target="_top" xlink:title=" ">
<polygon fill="white" stroke="black" points="575.5,-112.5 575.5,-131.5 645.5,-131.5 645.5,-112.5 575.5,-112.5"/>
<text text-anchor="middle" x="610.5" y="-119.5" font-family="Helvetica,sans-Serif" font-size="10.00">serializer.h</text>
</a>
</g>
</g>
<!-- Node25&#45;&gt;Node38 -->
<g id="edge46" class="edge">
<title>Node25&#45;&gt;Node38</title>
<path fill="none" stroke="midnightblue" d="M647.23,-168.08C640.96,-160.38 631.71,-149.03 624.07,-139.65"/>
<polygon fill="midnightblue" stroke="midnightblue" points="626.66,-137.29 617.63,-131.75 621.23,-141.71 626.66,-137.29"/>
</g>
<!-- Node25&#45;&gt;Node43 -->
<g id="edge58" class="edge">
<title>Node25&#45;&gt;Node43</title>
<path fill="none" stroke="midnightblue" d="M672.17,-168.32C689.89,-159.62 717.4,-146.12 737.79,-136.11"/>
<polygon fill="midnightblue" stroke="midnightblue" points="739.44,-139.2 746.87,-131.65 736.35,-132.92 739.44,-139.2"/>
</g>
<!-- Node27 -->
<g id="node27" class="node">
<title>Node27</title>
<g id="a_node27"><a xlink:href="siphash_8h.html" target="_top" xlink:title=" ">
<polygon fill="white" stroke="black" points="0,-56.5 0,-75.5 95,-75.5 95,-56.5 0,-56.5"/>
<text text-anchor="middle" x="47.5" y="-63.5" font-family="Helvetica,sans-Serif" font-size="10.00">ccf/ds/siphash.h</text>
</a>
</g>
</g>
<!-- Node26&#45;&gt;Node27 -->
<g id="edge30" class="edge">
<title>Node26&#45;&gt;Node27</title>
<path fill="none" stroke="midnightblue" d="M274.24,-112.86C227.67,-103.44 150.86,-87.9 99.72,-77.56"/>
<polygon fill="midnightblue" stroke="midnightblue" points="100.35,-74.12 89.86,-75.57 98.96,-80.98 100.35,-74.12"/>
</g>
<!-- Node29 -->
<g id="node29" class="node">
<title>Node29</title>
<g id="a_node29"><a xlink:title=" ">
<polygon fill="white" stroke="#bfbfbf" points="136.5,-0.5 136.5,-19.5 186.5,-19.5 186.5,-0.5 136.5,-0.5"/>
<text text-anchor="middle" x="161.5" y="-7.5" font-family="Helvetica,sans-Serif" font-size="10.00">cstdint</text>
</a>
</g>
</g>
<!-- Node26&#45;&gt;Node29 -->
<g id="edge35" class="edge">
<title>Node26&#45;&gt;Node29</title>
<path fill="none" stroke="midnightblue" d="M274.28,-117.61C244.2,-112.96 204.17,-101.98 179.5,-76 167.79,-63.67 163.58,-44.42 162.12,-30.06"/>
<polygon fill="midnightblue" stroke="midnightblue" points="165.59,-29.58 161.45,-19.83 158.61,-30.03 165.59,-29.58"/>
</g>
<!-- Node26&#45;&gt;Node30 -->
<g id="edge37" class="edge">
<title>Node26&#45;&gt;Node30</title>
<path fill="none" stroke="midnightblue" d="M324.69,-112.17C339.11,-99.66 366.32,-76.08 389.5,-56 400.92,-46.11 413.76,-35 423.82,-26.29"/>
<polygon fill="midnightblue" stroke="midnightblue" points="426.26,-28.81 431.53,-19.62 421.68,-23.52 426.26,-28.81"/>
</g>
<!-- Node31 -->
<g id="node31" class="node">
<title>Node31</title>
<g id="a_node31"><a xlink:title=" ">
<polygon fill="white" stroke="#bfbfbf" points="501.5,-0.5 501.5,-19.5 543.5,-19.5 543.5,-0.5 501.5,-0.5"/>
<text text-anchor="middle" x="522.5" y="-7.5" font-family="Helvetica,sans-Serif" font-size="10.00">array</text>
</a>
</g>
</g>
<!-- Node26&#45;&gt;Node31 -->
<g id="edge34" class="edge">
<title>Node26&#45;&gt;Node31</title>
<path fill="none" stroke="midnightblue" d="M330.82,-112.37C366.97,-93.25 453.99,-47.23 497.24,-24.36"/>
<polygon fill="midnightblue" stroke="midnightblue" points="499.05,-27.36 506.25,-19.59 495.78,-21.17 499.05,-27.36"/>
</g>
<!-- Node32 -->
<g id="node32" class="node">
<title>Node32</title>
<g id="a_node32"><a xlink:title=" ">
<polygon fill="white" stroke="#bfbfbf" points="189,-56.5 189,-75.5 338,-75.5 338,-56.5 189,-56.5"/>
<text text-anchor="middle" x="263.5" y="-63.5" font-family="Helvetica,sans-Serif" font-size="10.00">small_vector/SmallVector.h</text>
</a>
</g>
</g>
<!-- Node26&#45;&gt;Node32 -->
<g id="edge36" class="edge">
<title>Node26&#45;&gt;Node32</title>
<path fill="none" stroke="midnightblue" d="M306.08,-112.08C298.65,-104.22 287.65,-92.57 278.69,-83.08"/>
<polygon fill="midnightblue" stroke="midnightblue" points="281.18,-80.62 271.76,-75.75 276.09,-85.42 281.18,-80.62"/>
</g>
<!-- Node28 -->
<g id="node28" class="node">
<title>Node28</title>
<g id="a_node28"><a xlink:title=" ">
<polygon fill="white" stroke="#bfbfbf" points="21,-0.5 21,-19.5 74,-19.5 74,-0.5 21,-0.5"/>
<text text-anchor="middle" x="47.5" y="-7.5" font-family="Helvetica,sans-Serif" font-size="10.00">cstddef</text>
</a>
</g>
</g>
<!-- Node27&#45;&gt;Node28 -->
<g id="edge31" class="edge">
<title>Node27&#45;&gt;Node28</title>
<path fill="none" stroke="midnightblue" d="M47.5,-56.08C47.5,-49.01 47.5,-38.86 47.5,-29.99"/>
<polygon fill="midnightblue" stroke="midnightblue" points="51,-29.75 47.5,-19.75 44,-29.75 51,-29.75"/>
</g>
<!-- Node27&#45;&gt;Node29 -->
<g id="edge32" class="edge">
<title>Node27&#45;&gt;Node29</title>
<path fill="none" stroke="midnightblue" d="M65.56,-56.44C84.07,-47.68 113.08,-33.94 134.36,-23.86"/>
<polygon fill="midnightblue" stroke="midnightblue" points="135.98,-26.96 143.52,-19.52 132.99,-20.63 135.98,-26.96"/>
</g>
<!-- Node27&#45;&gt;Node30 -->
<g id="edge33" class="edge">
<title>Node27&#45;&gt;Node30</title>
<path fill="none" stroke="midnightblue" d="M95.22,-58.03C100.04,-57.34 104.87,-56.65 109.5,-56 218.45,-40.71 347.64,-23.45 407.69,-15.48"/>
<polygon fill="midnightblue" stroke="midnightblue" points="408.28,-18.93 417.74,-14.14 407.36,-11.99 408.28,-18.93"/>
</g>
<!-- Node33&#45;&gt;Node16 -->
<g id="edge44" class="edge">
<title>Node33&#45;&gt;Node16</title>
<path fill="none" stroke="midnightblue" d="M858.91,-56.44C905.19,-46.64 980.8,-30.63 1028.81,-20.46"/>
<polygon fill="midnightblue" stroke="midnightblue" points="1029.55,-23.88 1038.61,-18.39 1028.1,-17.04 1029.55,-23.88"/>
</g>
<!-- Node33&#45;&gt;Node30 -->
<g id="edge45" class="edge">
<title>Node33&#45;&gt;Node30</title>
<path fill="none" stroke="midnightblue" d="M773.33,-59.31C710.33,-51.25 592.54,-35.73 492.5,-20 486.89,-19.12 480.95,-18.12 475.18,-17.13"/>
<polygon fill="midnightblue" stroke="midnightblue" points="475.54,-13.64 465.08,-15.35 474.33,-20.53 475.54,-13.64"/>
</g>
<!-- Node33&#45;&gt;Node31 -->
<g id="edge40" class="edge">
<title>Node33&#45;&gt;Node31</title>
<path fill="none" stroke="midnightblue" d="M773.18,-57.36C722.49,-48.73 637.99,-34.03 565.5,-20 561.76,-19.28 557.84,-18.49 553.96,-17.7"/>
<polygon fill="midnightblue" stroke="midnightblue" points="554.41,-14.22 543.91,-15.61 552.99,-21.07 554.41,-14.22"/>
</g>
<!-- Node34 -->
<g id="node34" class="node">
<title>Node34</title>
<g id="a_node34"><a xlink:title=" ">
<polygon fill="white" stroke="#bfbfbf" points="878.5,-0.5 878.5,-19.5 942.5,-19.5 942.5,-0.5 878.5,-0.5"/>
<text text-anchor="middle" x="910.5" y="-7.5" font-family="Helvetica,sans-Serif" font-size="10.00">algorithm</text>
</a>
</g>
</g>
<!-- Node33&#45;&gt;Node34 -->
<g id="edge39" class="edge">
<title>Node33&#45;&gt;Node34</title>
<path fill="none" stroke="midnightblue" d="M833.28,-56.32C847.77,-47.82 870.07,-34.73 886.99,-24.8"/>
<polygon fill="midnightblue" stroke="midnightblue" points="888.9,-27.74 895.76,-19.65 885.36,-21.7 888.9,-27.74"/>
</g>
<!-- Node35 -->
<g id="node35" class="node">
<title>Node35</title>
<g id="a_node35"><a xlink:title=" ">
<polygon fill="white" stroke="#bfbfbf" points="637,-0.5 637,-19.5 686,-19.5 686,-0.5 637,-0.5"/>
<text text-anchor="middle" x="661.5" y="-7.5" font-family="Helvetica,sans-Serif" font-size="10.00">cctype</text>
</a>
</g>
</g>
<!-- Node33&#45;&gt;Node35 -->
<g id="edge41" class="edge">
<title>Node33&#45;&gt;Node35</title>
<path fill="none" stroke="midnightblue" d="M793.62,-56.44C767.13,-47.33 725.04,-32.85 695.5,-22.69"/>
<polygon fill="midnightblue" stroke="midnightblue" points="696.6,-19.37 686,-19.43 694.32,-25.99 696.6,-19.37"/>
</g>
<!-- Node33&#45;&gt;Node36 -->
<g id="edge42" class="edge">
<title>Node33&#45;&gt;Node36</title>
<path fill="none" stroke="midnightblue" d="M779.58,-56.44C743,-48.26 686.49,-35.28 628.83,-20.25"/>
<polygon fill="midnightblue" stroke="midnightblue" points="629.37,-16.78 618.81,-17.63 627.6,-23.55 629.37,-16.78"/>
</g>
<!-- Node37 -->
<g id="node37" class="node">
<title>Node37</title>
<g id="a_node37"><a xlink:title=" ">
<polygon fill="white" stroke="#bfbfbf" points="787,-0.5 787,-19.5 860,-19.5 860,-0.5 787,-0.5"/>
<text text-anchor="middle" x="823.5" y="-7.5" font-family="Helvetica,sans-Serif" font-size="10.00">string_view</text>
</a>
</g>
</g>
<!-- Node33&#45;&gt;Node37 -->
<g id="edge43" class="edge">
<title>Node33&#45;&gt;Node37</title>
<path fill="none" stroke="midnightblue" d="M819.33,-56.08C819.98,-49.01 820.92,-38.86 821.74,-29.99"/>
<polygon fill="midnightblue" stroke="midnightblue" points="825.25,-30.03 822.69,-19.75 818.28,-29.39 825.25,-30.03"/>
</g>
<!-- Node38&#45;&gt;Node16 -->
<g id="edge56" class="edge">
<title>Node38&#45;&gt;Node16</title>
<path fill="none" stroke="midnightblue" d="M645.58,-116.6C696.15,-109.88 792.28,-95.75 872.5,-76 932.94,-61.12 1001.59,-37.4 1041,-23.1"/>
<polygon fill="midnightblue" stroke="midnightblue" points="1042.4,-26.31 1050.6,-19.59 1040,-19.74 1042.4,-26.31"/>
</g>
<!-- Node38&#45;&gt;Node30 -->
<g id="edge57" class="edge">
<title>Node38&#45;&gt;Node30</title>
<path fill="none" stroke="midnightblue" d="M578.09,-112.41C554.58,-105.17 522.78,-93.2 498.5,-76 480.02,-62.9 463.51,-42.65 453.08,-28.24"/>
<polygon fill="midnightblue" stroke="midnightblue" points="455.74,-25.93 447.14,-19.74 450,-29.95 455.74,-25.93"/>
</g>
<!-- Node38&#45;&gt;Node33 -->
<g id="edge47" class="edge">
<title>Node38&#45;&gt;Node33</title>
<path fill="none" stroke="midnightblue" d="M643.46,-112.44C679.29,-103.14 736.66,-88.25 775.89,-78.06"/>
<polygon fill="midnightblue" stroke="midnightblue" points="776.9,-81.42 785.7,-75.52 775.14,-74.64 776.9,-81.42"/>
</g>
<!-- Node38&#45;&gt;Node39 -->
<g id="edge48" class="edge">
<title>Node38&#45;&gt;Node39</title>
<path fill="none" stroke="midnightblue" d="M599.9,-112.32C590.04,-104.26 575.15,-92.08 563.28,-82.37"/>
<polygon fill="midnightblue" stroke="midnightblue" points="565.25,-79.46 555.3,-75.83 560.82,-84.88 565.25,-79.46"/>
</g>
<!-- Node41 -->
<g id="node41" class="node">
<title>Node41</title>
<g id="a_node41"><a xlink:title=" ">
<polygon fill="white" stroke="#bfbfbf" points="599.5,-56.5 599.5,-75.5 657.5,-75.5 657.5,-56.5 599.5,-56.5"/>
<text text-anchor="middle" x="628.5" y="-63.5" font-family="Helvetica,sans-Serif" font-size="10.00">memory</text>
</a>
</g>
</g>
<!-- Node38&#45;&gt;Node41 -->
<g id="edge54" class="edge">
<title>Node38&#45;&gt;Node41</title>
<path fill="none" stroke="midnightblue" d="M613.47,-112.08C615.88,-104.85 619.36,-94.41 622.37,-85.4"/>
<polygon fill="midnightblue" stroke="midnightblue" points="625.74,-86.34 625.58,-75.75 619.1,-84.13 625.74,-86.34"/>
</g>
<!-- Node42 -->
<g id="node42" class="node">
<title>Node42</title>
<g id="a_node42"><a xlink:title=" ">
<polygon fill="white" stroke="#bfbfbf" points="676,-56.5 676,-75.5 717,-75.5 717,-56.5 676,-56.5"/>
<text text-anchor="middle" x="696.5" y="-63.5" font-family="Helvetica,sans-Serif" font-size="10.00">tuple</text>
</a>
</g>
</g>
<!-- Node38&#45;&gt;Node42 -->
<g id="edge55" class="edge">
<title>Node38&#45;&gt;Node42</title>
<path fill="none" stroke="midnightblue" d="M624.32,-112.32C637.73,-103.9 658.32,-90.97 674.09,-81.07"/>
<polygon fill="midnightblue" stroke="midnightblue" points="676.11,-83.94 682.72,-75.65 672.39,-78.01 676.11,-83.94"/>
</g>
<!-- Node39&#45;&gt;Node24 -->
<g id="edge50" class="edge">
<title>Node39&#45;&gt;Node24</title>
<path fill="none" stroke="midnightblue" d="M581.1,-57.52C584.28,-56.97 587.44,-56.45 590.5,-56 750.02,-32.49 792.08,-44.19 951.5,-20 954.39,-19.56 957.38,-19.06 960.37,-18.52"/>
<polygon fill="midnightblue" stroke="midnightblue" points="961.29,-21.91 970.45,-16.59 959.97,-15.03 961.29,-21.91"/>
</g>
<!-- Node39&#45;&gt;Node29 -->
<g id="edge49" class="edge">
<title>Node39&#45;&gt;Node29</title>
<path fill="none" stroke="midnightblue" d="M507.78,-59.82C434.07,-49.43 269.02,-26.16 196.64,-15.95"/>
<polygon fill="midnightblue" stroke="midnightblue" points="197.05,-12.48 186.66,-14.55 196.07,-19.41 197.05,-12.48"/>
</g>
<!-- Node39&#45;&gt;Node30 -->
<g id="edge53" class="edge">
<title>Node39&#45;&gt;Node30</title>
<path fill="none" stroke="midnightblue" d="M527.95,-56.32C511.51,-47.7 486.07,-34.36 467.03,-24.39"/>
<polygon fill="midnightblue" stroke="midnightblue" points="468.49,-21.2 458.01,-19.65 465.24,-27.4 468.49,-21.2"/>
</g>
<!-- Node39&#45;&gt;Node36 -->
<g id="edge52" class="edge">
<title>Node39&#45;&gt;Node36</title>
<path fill="none" stroke="midnightblue" d="M553.09,-56.08C560.66,-48.22 571.88,-36.57 581.01,-27.08"/>
<polygon fill="midnightblue" stroke="midnightblue" points="583.66,-29.38 588.07,-19.75 578.62,-24.53 583.66,-29.38"/>
</g>
<!-- Node39&#45;&gt;Node40 -->
<g id="edge51" class="edge">
<title>Node39&#45;&gt;Node40</title>
<path fill="none" stroke="midnightblue" d="M574.92,-56.44C607.78,-47.2 660.28,-32.44 696.47,-22.26"/>
<polygon fill="midnightblue" stroke="midnightblue" points="697.54,-25.59 706.22,-19.52 695.65,-18.85 697.54,-25.59"/>
</g>
</g>
</svg>
