<?xml version="1.0" encoding="UTF-8" standalone="no"?>
<!DOCTYPE svg PUBLIC "-//W3C//DTD SVG 1.1//EN"
 "http://www.w3.org/Graphics/SVG/1.1/DTD/svg11.dtd">
<!-- Generated by graphviz version 2.43.0 (0)
 -->
<!-- Title: src/host/ticker.h Pages: 1 -->
<svg width="1601pt" height="532pt"
 viewBox="0.00 0.00 1600.70 532.00" xmlns="http://www.w3.org/2000/svg" xmlns:xlink="http://www.w3.org/1999/xlink">
<g id="graph0" class="graph" transform="scale(1 1) rotate(0) translate(4 528)">
<title>src/host/ticker.h</title>
<polygon fill="white" stroke="transparent" points="-4,4 -4,-528 1596.7,-528 1596.7,4 -4,4"/>
<!-- Node1 -->
<g id="node1" class="node">
<title>Node1</title>
<g id="a_node1"><a xlink:title=" ">
<polygon fill="#bfbfbf" stroke="black" points="711,-504.5 711,-523.5 804,-523.5 804,-504.5 711,-504.5"/>
<text text-anchor="middle" x="757.5" y="-511.5" font-family="Helvetica,sans-Serif" font-size="10.00">src/host/ticker.h</text>
</a>
</g>
</g>
<!-- Node2 -->
<g id="node2" class="node">
<title>Node2</title>
<g id="a_node2"><a xlink:href="src_2host_2enclave_8h.html" target="_top" xlink:title=" ">
<polygon fill="white" stroke="black" points="890.5,-448.5 890.5,-467.5 954.5,-467.5 954.5,-448.5 890.5,-448.5"/>
<text text-anchor="middle" x="922.5" y="-455.5" font-family="Helvetica,sans-Serif" font-size="10.00">enclave.h</text>
</a>
</g>
</g>
<!-- Node1&#45;&gt;Node2 -->
<g id="edge1" class="edge">
<title>Node1&#45;&gt;Node2</title>
<path fill="none" stroke="midnightblue" d="M783.64,-504.44C811.52,-495.32 855.85,-480.81 886.9,-470.65"/>
<polygon fill="midnightblue" stroke="midnightblue" points="888.06,-473.95 896.48,-467.52 885.88,-467.3 888.06,-473.95"/>
</g>
<!-- Node48 -->
<g id="node48" class="node">
<title>Node48</title>
<g id="a_node48"><a xlink:title=" ">
<polygon fill="white" stroke="#bfbfbf" points="732.5,-336.5 732.5,-355.5 782.5,-355.5 782.5,-336.5 732.5,-336.5"/>
<text text-anchor="middle" x="757.5" y="-343.5" font-family="Helvetica,sans-Serif" font-size="10.00">chrono</text>
</a>
</g>
</g>
<!-- Node1&#45;&gt;Node48 -->
<g id="edge84" class="edge">
<title>Node1&#45;&gt;Node48</title>
<path fill="none" stroke="midnightblue" d="M757.5,-504.08C757.5,-477.95 757.5,-401.21 757.5,-365.58"/>
<polygon fill="midnightblue" stroke="midnightblue" points="761,-365.57 757.5,-355.57 754,-365.57 761,-365.57"/>
</g>
<!-- Node51 -->
<g id="node51" class="node">
<title>Node51</title>
<g id="a_node51"><a xlink:href="timer_8h.html" target="_top" xlink:title=" ">
<polygon fill="white" stroke="black" points="678,-392.5 678,-411.5 729,-411.5 729,-392.5 678,-392.5"/>
<text text-anchor="middle" x="703.5" y="-399.5" font-family="Helvetica,sans-Serif" font-size="10.00">timer.h</text>
</a>
</g>
</g>
<!-- Node1&#45;&gt;Node51 -->
<g id="edge79" class="edge">
<title>Node1&#45;&gt;Node51</title>
<path fill="none" stroke="midnightblue" d="M753.26,-504.37C744.43,-486.38 723.9,-444.55 712.15,-420.63"/>
<polygon fill="midnightblue" stroke="midnightblue" points="715.27,-419.03 707.72,-411.59 708.98,-422.11 715.27,-419.03"/>
</g>
<!-- Node3 -->
<g id="node3" class="node">
<title>Node3</title>
<g id="a_node3"><a xlink:href="logger_8h.html" target="_top" xlink:title=" ">
<polygon fill="white" stroke="black" points="627,-224.5 627,-243.5 714,-243.5 714,-224.5 627,-224.5"/>
<text text-anchor="middle" x="670.5" y="-231.5" font-family="Helvetica,sans-Serif" font-size="10.00">ccf/ds/logger.h</text>
</a>
</g>
</g>
<!-- Node2&#45;&gt;Node3 -->
<g id="edge2" class="edge">
<title>Node2&#45;&gt;Node3</title>
<path fill="none" stroke="midnightblue" d="M915.1,-448.23C904.11,-435.39 882.62,-410.95 862.5,-392 802.97,-335.94 726.1,-276.66 690.38,-249.78"/>
<polygon fill="midnightblue" stroke="midnightblue" points="692.32,-246.86 682.22,-243.67 688.13,-252.46 692.32,-246.86"/>
</g>
<!-- Node18 -->
<g id="node18" class="node">
<title>Node18</title>
<g id="a_node18"><a xlink:title=" ">
<polygon fill="white" stroke="#bfbfbf" points="1038,-392.5 1038,-411.5 1117,-411.5 1117,-392.5 1038,-392.5"/>
<text text-anchor="middle" x="1077.5" y="-399.5" font-family="Helvetica,sans-Serif" font-size="10.00">ccf/version.h</text>
</a>
</g>
</g>
<!-- Node2&#45;&gt;Node18 -->
<g id="edge19" class="edge">
<title>Node2&#45;&gt;Node18</title>
<path fill="none" stroke="midnightblue" d="M947.06,-448.44C973.02,-439.4 1014.17,-425.06 1043.3,-414.92"/>
<polygon fill="midnightblue" stroke="midnightblue" points="1044.76,-418.11 1053.05,-411.52 1042.46,-411.5 1044.76,-418.11"/>
</g>
<!-- Node19 -->
<g id="node19" class="node">
<title>Node19</title>
<g id="a_node19"><a xlink:href="interface_8h.html" target="_top" xlink:title=" ">
<polygon fill="white" stroke="black" points="909.5,-392.5 909.5,-411.5 1019.5,-411.5 1019.5,-392.5 909.5,-392.5"/>
<text text-anchor="middle" x="964.5" y="-399.5" font-family="Helvetica,sans-Serif" font-size="10.00">enclave/interface.h</text>
</a>
</g>
</g>
<!-- Node2&#45;&gt;Node19 -->
<g id="edge20" class="edge">
<title>Node2&#45;&gt;Node19</title>
<path fill="none" stroke="midnightblue" d="M929.44,-448.08C935.43,-440.38 944.25,-429.03 951.55,-419.65"/>
<polygon fill="midnightblue" stroke="midnightblue" points="954.32,-421.79 957.69,-411.75 948.79,-417.5 954.32,-421.79"/>
</g>
<!-- Node49 -->
<g id="node49" class="node">
<title>Node49</title>
<g id="a_node49"><a xlink:title=" ">
<polygon fill="white" stroke="#bfbfbf" points="1135.5,-392.5 1135.5,-411.5 1185.5,-411.5 1185.5,-392.5 1135.5,-392.5"/>
<text text-anchor="middle" x="1160.5" y="-399.5" font-family="Helvetica,sans-Serif" font-size="10.00">dlfcn.h</text>
</a>
</g>
</g>
<!-- Node2&#45;&gt;Node49 -->
<g id="edge77" class="edge">
<title>Node2&#45;&gt;Node49</title>
<path fill="none" stroke="midnightblue" d="M954.75,-450.32C993.15,-442.27 1059.46,-428.07 1125.54,-412.16"/>
<polygon fill="midnightblue" stroke="midnightblue" points="1126.38,-415.56 1135.28,-409.8 1124.74,-408.75 1126.38,-415.56"/>
</g>
<!-- Node50 -->
<g id="node50" class="node">
<title>Node50</title>
<g id="a_node50"><a xlink:title=" ">
<polygon fill="white" stroke="#bfbfbf" points="785.5,-392.5 785.5,-411.5 853.5,-411.5 853.5,-392.5 785.5,-392.5"/>
<text text-anchor="middle" x="819.5" y="-399.5" font-family="Helvetica,sans-Serif" font-size="10.00">filesystem</text>
</a>
</g>
</g>
<!-- Node2&#45;&gt;Node50 -->
<g id="edge78" class="edge">
<title>Node2&#45;&gt;Node50</title>
<path fill="none" stroke="midnightblue" d="M905.95,-448.32C889.51,-439.7 864.07,-426.36 845.03,-416.39"/>
<polygon fill="midnightblue" stroke="midnightblue" points="846.49,-413.2 836.01,-411.65 843.24,-419.4 846.49,-413.2"/>
</g>
<!-- Node4 -->
<g id="node4" class="node">
<title>Node4</title>
<g id="a_node4"><a xlink:href="enum__formatter_8h.html" target="_top" xlink:title=" ">
<polygon fill="white" stroke="black" points="389.5,-168.5 389.5,-187.5 525.5,-187.5 525.5,-168.5 389.5,-168.5"/>
<text text-anchor="middle" x="457.5" y="-175.5" font-family="Helvetica,sans-Serif" font-size="10.00">ccf/ds/enum_formatter.h</text>
</a>
</g>
</g>
<!-- Node3&#45;&gt;Node4 -->
<g id="edge3" class="edge">
<title>Node3&#45;&gt;Node4</title>
<path fill="none" stroke="midnightblue" d="M636.75,-224.44C599.98,-215.12 541.05,-200.18 500.88,-190"/>
<polygon fill="midnightblue" stroke="midnightblue" points="501.65,-186.58 491.09,-187.52 499.93,-193.37 501.65,-186.58"/>
</g>
<!-- Node5 -->
<g id="node5" class="node">
<title>Node5</title>
<g id="a_node5"><a xlink:title=" ">
<polygon fill="white" stroke="#bfbfbf" points="438,-112.5 438,-131.5 517,-131.5 517,-112.5 438,-112.5"/>
<text text-anchor="middle" x="477.5" y="-119.5" font-family="Helvetica,sans-Serif" font-size="10.00">fmt/format.h</text>
</a>
</g>
</g>
<!-- Node3&#45;&gt;Node5 -->
<g id="edge13" class="edge">
<title>Node3&#45;&gt;Node5</title>
<path fill="none" stroke="midnightblue" d="M626.87,-232.86C553.83,-231.61 411.7,-224.42 380.5,-188 360.33,-164.46 398.86,-145.85 433.16,-134.68"/>
<polygon fill="midnightblue" stroke="midnightblue" points="434.62,-137.89 443.14,-131.59 432.55,-131.21 434.62,-137.89"/>
</g>
<!-- Node6 -->
<g id="node6" class="node">
<title>Node6</title>
<g id="a_node6"><a xlink:href="thread__ids_8h.html" target="_top" xlink:title=" ">
<polygon fill="white" stroke="black" points="187.5,-168.5 187.5,-187.5 295.5,-187.5 295.5,-168.5 187.5,-168.5"/>
<text text-anchor="middle" x="241.5" y="-175.5" font-family="Helvetica,sans-Serif" font-size="10.00">ccf/ds/thread_ids.h</text>
</a>
</g>
</g>
<!-- Node3&#45;&gt;Node6 -->
<g id="edge5" class="edge">
<title>Node3&#45;&gt;Node6</title>
<path fill="none" stroke="midnightblue" d="M626.61,-227.47C550.6,-217.91 394.18,-198.22 305.86,-187.1"/>
<polygon fill="midnightblue" stroke="midnightblue" points="306.06,-183.6 295.7,-185.82 305.19,-190.54 306.06,-183.6"/>
</g>
<!-- Node12 -->
<g id="node12" class="node">
<title>Node12</title>
<g id="a_node12"><a xlink:title=" ">
<polygon fill="white" stroke="#bfbfbf" points="544,-168.5 544,-187.5 623,-187.5 623,-168.5 544,-168.5"/>
<text text-anchor="middle" x="583.5" y="-175.5" font-family="Helvetica,sans-Serif" font-size="10.00">fmt/chrono.h</text>
</a>
</g>
</g>
<!-- Node3&#45;&gt;Node12 -->
<g id="edge12" class="edge">
<title>Node3&#45;&gt;Node12</title>
<path fill="none" stroke="midnightblue" d="M656.52,-224.32C642.95,-215.9 622.12,-202.97 606.18,-193.07"/>
<polygon fill="midnightblue" stroke="midnightblue" points="607.79,-189.95 597.44,-187.65 604.09,-195.9 607.79,-189.95"/>
</g>
<!-- Node13 -->
<g id="node13" class="node">
<title>Node13</title>
<g id="a_node13"><a xlink:title=" ">
<polygon fill="white" stroke="#bfbfbf" points="640.5,-168.5 640.5,-187.5 700.5,-187.5 700.5,-168.5 640.5,-168.5"/>
<text text-anchor="middle" x="670.5" y="-175.5" font-family="Helvetica,sans-Serif" font-size="10.00">iostream</text>
</a>
</g>
</g>
<!-- Node3&#45;&gt;Node13 -->
<g id="edge14" class="edge">
<title>Node3&#45;&gt;Node13</title>
<path fill="none" stroke="midnightblue" d="M670.5,-224.08C670.5,-217.01 670.5,-206.86 670.5,-197.99"/>
<polygon fill="midnightblue" stroke="midnightblue" points="674,-197.75 670.5,-187.75 667,-197.75 674,-197.75"/>
</g>
<!-- Node14 -->
<g id="node14" class="node">
<title>Node14</title>
<g id="a_node14"><a xlink:title=" ">
<polygon fill="white" stroke="#bfbfbf" points="718.5,-168.5 718.5,-187.5 828.5,-187.5 828.5,-168.5 718.5,-168.5"/>
<text text-anchor="middle" x="773.5" y="-175.5" font-family="Helvetica,sans-Serif" font-size="10.00">nlohmann/json.hpp</text>
</a>
</g>
</g>
<!-- Node3&#45;&gt;Node14 -->
<g id="edge15" class="edge">
<title>Node3&#45;&gt;Node14</title>
<path fill="none" stroke="midnightblue" d="M687.05,-224.32C703.49,-215.7 728.93,-202.36 747.97,-192.39"/>
<polygon fill="midnightblue" stroke="midnightblue" points="749.76,-195.4 756.99,-187.65 746.51,-189.2 749.76,-195.4"/>
</g>
<!-- Node15 -->
<g id="node15" class="node">
<title>Node15</title>
<g id="a_node15"><a xlink:title=" ">
<polygon fill="white" stroke="#bfbfbf" points="625.5,-112.5 625.5,-131.5 681.5,-131.5 681.5,-112.5 625.5,-112.5"/>
<text text-anchor="middle" x="653.5" y="-119.5" font-family="Helvetica,sans-Serif" font-size="10.00">optional</text>
</a>
</g>
</g>
<!-- Node3&#45;&gt;Node15 -->
<g id="edge16" class="edge">
<title>Node3&#45;&gt;Node15</title>
<path fill="none" stroke="midnightblue" d="M714.1,-231.31C776.61,-227.86 886.89,-217.63 911.5,-188 917.18,-181.16 917.25,-174.78 911.5,-168 880.05,-130.87 743.3,-141.1 695.5,-132 694.26,-131.76 693.01,-131.52 691.74,-131.27"/>
<polygon fill="midnightblue" stroke="midnightblue" points="692.43,-127.84 681.93,-129.28 691.03,-134.7 692.43,-127.84"/>
</g>
<!-- Node16 -->
<g id="node16" class="node">
<title>Node16</title>
<g id="a_node16"><a xlink:title=" ">
<polygon fill="white" stroke="#bfbfbf" points="846.5,-168.5 846.5,-187.5 902.5,-187.5 902.5,-168.5 846.5,-168.5"/>
<text text-anchor="middle" x="874.5" y="-175.5" font-family="Helvetica,sans-Serif" font-size="10.00">sstream</text>
</a>
</g>
</g>
<!-- Node3&#45;&gt;Node16 -->
<g id="edge17" class="edge">
<title>Node3&#45;&gt;Node16</title>
<path fill="none" stroke="midnightblue" d="M702.82,-224.44C739.13,-214.83 797.99,-199.25 836.47,-189.07"/>
<polygon fill="midnightblue" stroke="midnightblue" points="837.5,-192.42 846.27,-186.47 835.71,-185.65 837.5,-192.42"/>
</g>
<!-- Node17 -->
<g id="node17" class="node">
<title>Node17</title>
<g id="a_node17"><a xlink:title=" ">
<polygon fill="white" stroke="#bfbfbf" points="474,-0.5 474,-19.5 543,-19.5 543,-0.5 474,-0.5"/>
<text text-anchor="middle" x="508.5" y="-7.5" font-family="Helvetica,sans-Serif" font-size="10.00">type_traits</text>
</a>
</g>
</g>
<!-- Node3&#45;&gt;Node17 -->
<g id="edge18" class="edge">
<title>Node3&#45;&gt;Node17</title>
<path fill="none" stroke="midnightblue" d="M626.61,-232.29C511.64,-229.97 208.42,-220.79 178.5,-188 155.73,-163.05 158.41,-139.16 178.5,-112 212.76,-65.69 381.71,-31.97 463.71,-18.05"/>
<polygon fill="midnightblue" stroke="midnightblue" points="464.45,-21.48 473.73,-16.37 463.29,-14.57 464.45,-21.48"/>
</g>
<!-- Node4&#45;&gt;Node5 -->
<g id="edge4" class="edge">
<title>Node4&#45;&gt;Node5</title>
<path fill="none" stroke="midnightblue" d="M460.8,-168.08C463.48,-160.85 467.35,-150.41 470.69,-141.4"/>
<polygon fill="midnightblue" stroke="midnightblue" points="474.07,-142.34 474.26,-131.75 467.5,-139.91 474.07,-142.34"/>
</g>
<!-- Node6&#45;&gt;Node5 -->
<g id="edge6" class="edge">
<title>Node6&#45;&gt;Node5</title>
<path fill="none" stroke="midnightblue" d="M278.89,-168.44C319.89,-159.06 385.75,-143.99 430.28,-133.8"/>
<polygon fill="midnightblue" stroke="midnightblue" points="431.31,-137.16 440.28,-131.52 429.75,-130.34 431.31,-137.16"/>
</g>
<!-- Node7 -->
<g id="node7" class="node">
<title>Node7</title>
<g id="a_node7"><a xlink:title=" ">
<polygon fill="white" stroke="#bfbfbf" points="333.5,-112.5 333.5,-131.5 419.5,-131.5 419.5,-112.5 333.5,-112.5"/>
<text text-anchor="middle" x="376.5" y="-119.5" font-family="Helvetica,sans-Serif" font-size="10.00">fmt/ostream.h</text>
</a>
</g>
</g>
<!-- Node6&#45;&gt;Node7 -->
<g id="edge7" class="edge">
<title>Node6&#45;&gt;Node7</title>
<path fill="none" stroke="midnightblue" d="M262.89,-168.44C285.21,-159.52 320.4,-145.44 345.71,-135.32"/>
<polygon fill="midnightblue" stroke="midnightblue" points="347.22,-138.48 355.21,-131.52 344.62,-131.98 347.22,-138.48"/>
</g>
<!-- Node8 -->
<g id="node8" class="node">
<title>Node8</title>
<g id="a_node8"><a xlink:title=" ">
<polygon fill="white" stroke="#bfbfbf" points="188,-112.5 188,-131.5 249,-131.5 249,-112.5 188,-112.5"/>
<text text-anchor="middle" x="218.5" y="-119.5" font-family="Helvetica,sans-Serif" font-size="10.00">fmt/std.h</text>
</a>
</g>
</g>
<!-- Node6&#45;&gt;Node8 -->
<g id="edge8" class="edge">
<title>Node6&#45;&gt;Node8</title>
<path fill="none" stroke="midnightblue" d="M237.7,-168.08C234.59,-160.77 230.08,-150.18 226.21,-141.1"/>
<polygon fill="midnightblue" stroke="midnightblue" points="229.37,-139.58 222.23,-131.75 222.93,-142.32 229.37,-139.58"/>
</g>
<!-- Node9 -->
<g id="node9" class="node">
<title>Node9</title>
<g id="a_node9"><a xlink:title=" ">
<polygon fill="white" stroke="#bfbfbf" points="1360.5,-112.5 1360.5,-131.5 1404.5,-131.5 1404.5,-112.5 1360.5,-112.5"/>
<text text-anchor="middle" x="1382.5" y="-119.5" font-family="Helvetica,sans-Serif" font-size="10.00">limits</text>
</a>
</g>
</g>
<!-- Node6&#45;&gt;Node9 -->
<g id="edge9" class="edge">
<title>Node6&#45;&gt;Node9</title>
<path fill="none" stroke="midnightblue" d="M295.61,-173.17C321.32,-171.43 352.49,-169.45 380.5,-168 794.92,-146.59 899.99,-166.87 1313.5,-132 1325.57,-130.98 1338.78,-129.38 1350.37,-127.81"/>
<polygon fill="midnightblue" stroke="midnightblue" points="1351.07,-131.24 1360.49,-126.39 1350.1,-124.31 1351.07,-131.24"/>
</g>
<!-- Node10 -->
<g id="node10" class="node">
<title>Node10</title>
<g id="a_node10"><a xlink:title=" ">
<polygon fill="white" stroke="#bfbfbf" points="93.5,-112.5 93.5,-131.5 131.5,-131.5 131.5,-112.5 93.5,-112.5"/>
<text text-anchor="middle" x="112.5" y="-119.5" font-family="Helvetica,sans-Serif" font-size="10.00">map</text>
</a>
</g>
</g>
<!-- Node6&#45;&gt;Node10 -->
<g id="edge10" class="edge">
<title>Node6&#45;&gt;Node10</title>
<path fill="none" stroke="midnightblue" d="M221.06,-168.44C199.45,-159.4 165.22,-145.07 140.97,-134.92"/>
<polygon fill="midnightblue" stroke="midnightblue" points="142.16,-131.62 131.58,-130.99 139.46,-138.08 142.16,-131.62"/>
</g>
<!-- Node11 -->
<g id="node11" class="node">
<title>Node11</title>
<g id="a_node11"><a xlink:title=" ">
<polygon fill="white" stroke="#bfbfbf" points="267.5,-112.5 267.5,-131.5 315.5,-131.5 315.5,-112.5 267.5,-112.5"/>
<text text-anchor="middle" x="291.5" y="-119.5" font-family="Helvetica,sans-Serif" font-size="10.00">thread</text>
</a>
</g>
</g>
<!-- Node6&#45;&gt;Node11 -->
<g id="edge11" class="edge">
<title>Node6&#45;&gt;Node11</title>
<path fill="none" stroke="midnightblue" d="M249.76,-168.08C256.96,-160.3 267.61,-148.8 276.35,-139.37"/>
<polygon fill="midnightblue" stroke="midnightblue" points="279.17,-141.47 283.4,-131.75 274.03,-136.71 279.17,-141.47"/>
</g>
<!-- Node20 -->
<g id="node20" class="node">
<title>Node20</title>
<g id="a_node20"><a xlink:href="oversized_8h.html" target="_top" xlink:title=" ">
<polygon fill="white" stroke="black" points="1124,-336.5 1124,-355.5 1211,-355.5 1211,-336.5 1124,-336.5"/>
<text text-anchor="middle" x="1167.5" y="-343.5" font-family="Helvetica,sans-Serif" font-size="10.00">ds/oversized.h</text>
</a>
</g>
</g>
<!-- Node19&#45;&gt;Node20 -->
<g id="edge21" class="edge">
<title>Node19&#45;&gt;Node20</title>
<path fill="none" stroke="midnightblue" d="M996.67,-392.44C1031.56,-383.16 1087.39,-368.31 1125.67,-358.13"/>
<polygon fill="midnightblue" stroke="midnightblue" points="1126.72,-361.47 1135.48,-355.52 1124.92,-354.7 1126.72,-361.47"/>
</g>
<!-- Node26 -->
<g id="node26" class="node">
<title>Node26</title>
<g id="a_node26"><a xlink:href="ring__buffer__types_8h.html" target="_top" xlink:title=" ">
<polygon fill="white" stroke="black" points="996.5,-168.5 996.5,-187.5 1106.5,-187.5 1106.5,-168.5 996.5,-168.5"/>
<text text-anchor="middle" x="1051.5" y="-175.5" font-family="Helvetica,sans-Serif" font-size="10.00">ring_buffer_types.h</text>
</a>
</g>
</g>
<!-- Node19&#45;&gt;Node26 -->
<g id="edge74" class="edge">
<title>Node19&#45;&gt;Node26</title>
<path fill="none" stroke="midnightblue" d="M967.91,-392.3C980.77,-359.49 1026.46,-242.88 1044.3,-197.38"/>
<polygon fill="midnightblue" stroke="midnightblue" points="1047.63,-198.47 1048.02,-187.88 1041.11,-195.92 1047.63,-198.47"/>
</g>
<!-- Node31 -->
<g id="node31" class="node">
<title>Node31</title>
<g id="a_node31"><a xlink:title=" ">
<polygon fill="white" stroke="#bfbfbf" points="862,-0.5 862,-19.5 909,-19.5 909,-0.5 862,-0.5"/>
<text text-anchor="middle" x="885.5" y="-7.5" font-family="Helvetica,sans-Serif" font-size="10.00">vector</text>
</a>
</g>
</g>
<!-- Node19&#45;&gt;Node31 -->
<g id="edge76" class="edge">
<title>Node19&#45;&gt;Node31</title>
<path fill="none" stroke="midnightblue" d="M963.54,-392.47C960.02,-361.88 947.04,-254.86 928.5,-168 917.67,-117.27 900.27,-58.58 891.28,-29.42"/>
<polygon fill="midnightblue" stroke="midnightblue" points="894.59,-28.28 888.28,-19.77 887.91,-30.35 894.59,-28.28"/>
</g>
<!-- Node19&#45;&gt;Node48 -->
<g id="edge75" class="edge">
<title>Node19&#45;&gt;Node48</title>
<path fill="none" stroke="midnightblue" d="M931.7,-392.44C893.71,-382.53 831.38,-366.27 792.49,-356.13"/>
<polygon fill="midnightblue" stroke="midnightblue" points="793.22,-352.7 782.66,-353.56 791.45,-359.47 793.22,-352.7"/>
</g>
<!-- Node20&#45;&gt;Node5 -->
<g id="edge72" class="edge">
<title>Node20&#45;&gt;Node5</title>
<path fill="none" stroke="midnightblue" d="M1123.82,-343.47C971.32,-337.14 466.71,-307.32 371.5,-188 351.23,-162.6 391.46,-144.59 428.04,-134.07"/>
<polygon fill="midnightblue" stroke="midnightblue" points="428.99,-137.44 437.71,-131.43 427.15,-130.69 428.99,-137.44"/>
</g>
<!-- Node21 -->
<g id="node21" class="node">
<title>Node21</title>
<g id="a_node21"><a xlink:href="messaging_8h.html" target="_top" xlink:title=" ">
<polygon fill="white" stroke="black" points="1180,-280.5 1180,-299.5 1259,-299.5 1259,-280.5 1180,-280.5"/>
<text text-anchor="middle" x="1219.5" y="-287.5" font-family="Helvetica,sans-Serif" font-size="10.00">messaging.h</text>
</a>
</g>
</g>
<!-- Node20&#45;&gt;Node21 -->
<g id="edge22" class="edge">
<title>Node20&#45;&gt;Node21</title>
<path fill="none" stroke="midnightblue" d="M1176.09,-336.08C1183.66,-328.22 1194.88,-316.57 1204.01,-307.08"/>
<polygon fill="midnightblue" stroke="midnightblue" points="1206.66,-309.38 1211.07,-299.75 1201.62,-304.53 1206.66,-309.38"/>
</g>
<!-- Node22 -->
<g id="node22" class="node">
<title>Node22</title>
<g id="a_node22"><a xlink:href="ring__buffer_8h.html" target="_top" xlink:title=" ">
<polygon fill="white" stroke="black" points="1387,-224.5 1387,-243.5 1464,-243.5 1464,-224.5 1387,-224.5"/>
<text text-anchor="middle" x="1425.5" y="-231.5" font-family="Helvetica,sans-Serif" font-size="10.00">ring_buffer.h</text>
</a>
</g>
</g>
<!-- Node20&#45;&gt;Node22 -->
<g id="edge70" class="edge">
<title>Node20&#45;&gt;Node22</title>
<path fill="none" stroke="midnightblue" d="M1211.01,-340.64C1250.14,-335.32 1308.26,-323.89 1353.5,-300 1376.65,-287.77 1398.24,-266.42 1411.63,-251.54"/>
<polygon fill="midnightblue" stroke="midnightblue" points="1414.58,-253.48 1418.51,-243.64 1409.3,-248.88 1414.58,-253.48"/>
</g>
<!-- Node40 -->
<g id="node40" class="node">
<title>Node40</title>
<g id="a_node40"><a xlink:href="serialized_8h.html" target="_top" xlink:title=" ">
<polygon fill="white" stroke="black" points="1296,-56.5 1296,-75.5 1369,-75.5 1369,-56.5 1296,-56.5"/>
<text text-anchor="middle" x="1332.5" y="-63.5" font-family="Helvetica,sans-Serif" font-size="10.00">serialized.h</text>
</a>
</g>
</g>
<!-- Node20&#45;&gt;Node40 -->
<g id="edge71" class="edge">
<title>Node20&#45;&gt;Node40</title>
<path fill="none" stroke="midnightblue" d="M1205.99,-336.48C1227.24,-329.89 1252.49,-318.64 1268.5,-300 1323.35,-236.17 1331.53,-129.3 1332.51,-86.04"/>
<polygon fill="midnightblue" stroke="midnightblue" points="1336.01,-85.87 1332.63,-75.83 1329.01,-85.79 1336.01,-85.87"/>
</g>
<!-- Node47 -->
<g id="node47" class="node">
<title>Node47</title>
<g id="a_node47"><a xlink:title=" ">
<polygon fill="white" stroke="#bfbfbf" points="1069,-280.5 1069,-299.5 1162,-299.5 1162,-280.5 1069,-280.5"/>
<text text-anchor="middle" x="1115.5" y="-287.5" font-family="Helvetica,sans-Serif" font-size="10.00">unordered_map</text>
</a>
</g>
</g>
<!-- Node20&#45;&gt;Node47 -->
<g id="edge73" class="edge">
<title>Node20&#45;&gt;Node47</title>
<path fill="none" stroke="midnightblue" d="M1158.91,-336.08C1151.34,-328.22 1140.12,-316.57 1130.99,-307.08"/>
<polygon fill="midnightblue" stroke="midnightblue" points="1133.38,-304.53 1123.93,-299.75 1128.34,-309.38 1133.38,-304.53"/>
</g>
<!-- Node21&#45;&gt;Node3 -->
<g id="edge23" class="edge">
<title>Node21&#45;&gt;Node3</title>
<path fill="none" stroke="midnightblue" d="M1180,-281.28C1177.13,-280.82 1174.27,-280.38 1171.5,-280 1009.49,-257.59 816.39,-243.88 724.4,-238.14"/>
<polygon fill="midnightblue" stroke="midnightblue" points="724.42,-234.64 714.22,-237.51 723.98,-241.62 724.42,-234.64"/>
</g>
<!-- Node21&#45;&gt;Node10 -->
<g id="edge68" class="edge">
<title>Node21&#45;&gt;Node10</title>
<path fill="none" stroke="midnightblue" d="M1179.75,-281.16C1176.96,-280.73 1174.19,-280.34 1171.5,-280 944.37,-251.43 333.19,-319.05 145.5,-188 129.97,-177.16 121.32,-156.77 116.81,-141.71"/>
<polygon fill="midnightblue" stroke="midnightblue" points="120.16,-140.68 114.22,-131.9 113.39,-142.46 120.16,-140.68"/>
</g>
<!-- Node21&#45;&gt;Node22 -->
<g id="edge24" class="edge">
<title>Node21&#45;&gt;Node22</title>
<path fill="none" stroke="midnightblue" d="M1252.14,-280.44C1287.55,-271.16 1344.21,-256.31 1383.05,-246.13"/>
<polygon fill="midnightblue" stroke="midnightblue" points="1384.23,-249.44 1393.01,-243.52 1382.45,-242.67 1384.23,-249.44"/>
</g>
<!-- Node41 -->
<g id="node41" class="node">
<title>Node41</title>
<g id="a_node41"><a xlink:title=" ">
<polygon fill="white" stroke="#bfbfbf" points="1388,-0.5 1388,-19.5 1453,-19.5 1453,-0.5 1388,-0.5"/>
<text text-anchor="middle" x="1420.5" y="-7.5" font-family="Helvetica,sans-Serif" font-size="10.00">stdexcept</text>
</a>
</g>
</g>
<!-- Node21&#45;&gt;Node41 -->
<g id="edge69" class="edge">
<title>Node21&#45;&gt;Node41</title>
<path fill="none" stroke="midnightblue" d="M1232.91,-280.33C1273.44,-253.81 1393.09,-173.14 1413.5,-132 1429.88,-98.98 1427.12,-54.5 1423.75,-29.7"/>
<polygon fill="midnightblue" stroke="midnightblue" points="1427.2,-29.15 1422.22,-19.8 1420.29,-30.21 1427.2,-29.15"/>
</g>
<!-- Node44 -->
<g id="node44" class="node">
<title>Node44</title>
<g id="a_node44"><a xlink:title=" ">
<polygon fill="white" stroke="#bfbfbf" points="1254.5,-112.5 1254.5,-131.5 1304.5,-131.5 1304.5,-112.5 1254.5,-112.5"/>
<text text-anchor="middle" x="1279.5" y="-119.5" font-family="Helvetica,sans-Serif" font-size="10.00">atomic</text>
</a>
</g>
</g>
<!-- Node21&#45;&gt;Node44 -->
<g id="edge66" class="edge">
<title>Node21&#45;&gt;Node44</title>
<path fill="none" stroke="midnightblue" d="M1200.17,-280.44C1178,-269.27 1146.08,-248.27 1157.5,-224 1176.93,-182.69 1222.47,-152.48 1252.09,-136.35"/>
<polygon fill="midnightblue" stroke="midnightblue" points="1253.87,-139.36 1261.09,-131.61 1250.61,-133.17 1253.87,-139.36"/>
</g>
<!-- Node46 -->
<g id="node46" class="node">
<title>Node46</title>
<g id="a_node46"><a xlink:title=" ">
<polygon fill="white" stroke="#bfbfbf" points="1166,-224.5 1166,-243.5 1273,-243.5 1273,-224.5 1166,-224.5"/>
<text text-anchor="middle" x="1219.5" y="-231.5" font-family="Helvetica,sans-Serif" font-size="10.00">condition_variable</text>
</a>
</g>
</g>
<!-- Node21&#45;&gt;Node46 -->
<g id="edge67" class="edge">
<title>Node21&#45;&gt;Node46</title>
<path fill="none" stroke="midnightblue" d="M1219.5,-280.08C1219.5,-273.01 1219.5,-262.86 1219.5,-253.99"/>
<polygon fill="midnightblue" stroke="midnightblue" points="1223,-253.75 1219.5,-243.75 1216,-253.75 1223,-253.75"/>
</g>
<!-- Node23 -->
<g id="node23" class="node">
<title>Node23</title>
<g id="a_node23"><a xlink:href="mem_8h.html" target="_top" xlink:title=" ">
<polygon fill="white" stroke="black" points="1398.5,-168.5 1398.5,-187.5 1484.5,-187.5 1484.5,-168.5 1398.5,-168.5"/>
<text text-anchor="middle" x="1441.5" y="-175.5" font-family="Helvetica,sans-Serif" font-size="10.00">ccf/pal/mem.h</text>
</a>
</g>
</g>
<!-- Node22&#45;&gt;Node23 -->
<g id="edge25" class="edge">
<title>Node22&#45;&gt;Node23</title>
<path fill="none" stroke="midnightblue" d="M1428.14,-224.08C1430.29,-216.85 1433.38,-206.41 1436.05,-197.4"/>
<polygon fill="midnightblue" stroke="midnightblue" points="1439.42,-198.33 1438.91,-187.75 1432.71,-196.34 1439.42,-198.33"/>
</g>
<!-- Node25 -->
<g id="node25" class="node">
<title>Node25</title>
<g id="a_node25"><a xlink:title=" ">
<polygon fill="white" stroke="#bfbfbf" points="1517.5,-0.5 1517.5,-19.5 1567.5,-19.5 1567.5,-0.5 1517.5,-0.5"/>
<text text-anchor="middle" x="1542.5" y="-7.5" font-family="Helvetica,sans-Serif" font-size="10.00">cstring</text>
</a>
</g>
</g>
<!-- Node22&#45;&gt;Node25 -->
<g id="edge64" class="edge">
<title>Node22&#45;&gt;Node25</title>
<path fill="none" stroke="midnightblue" d="M1464.17,-233.56C1500.01,-231.76 1551.56,-222.73 1577.5,-188 1613.84,-139.35 1575.07,-62.88 1554.11,-28.62"/>
<polygon fill="midnightblue" stroke="midnightblue" points="1556.82,-26.36 1548.51,-19.78 1550.9,-30.1 1556.82,-26.36"/>
</g>
<!-- Node22&#45;&gt;Node26 -->
<g id="edge29" class="edge">
<title>Node22&#45;&gt;Node26</title>
<path fill="none" stroke="midnightblue" d="M1386.88,-227.42C1323.12,-218.22 1195.11,-199.74 1116.99,-188.46"/>
<polygon fill="midnightblue" stroke="midnightblue" points="1117.18,-184.95 1106.78,-186.98 1116.18,-191.88 1117.18,-184.95"/>
</g>
<!-- Node45 -->
<g id="node45" class="node">
<title>Node45</title>
<g id="a_node45"><a xlink:title=" ">
<polygon fill="white" stroke="#bfbfbf" points="1503,-168.5 1503,-187.5 1568,-187.5 1568,-168.5 1503,-168.5"/>
<text text-anchor="middle" x="1535.5" y="-175.5" font-family="Helvetica,sans-Serif" font-size="10.00">functional</text>
</a>
</g>
</g>
<!-- Node22&#45;&gt;Node45 -->
<g id="edge65" class="edge">
<title>Node22&#45;&gt;Node45</title>
<path fill="none" stroke="midnightblue" d="M1443.17,-224.32C1460.89,-215.62 1488.4,-202.12 1508.79,-192.11"/>
<polygon fill="midnightblue" stroke="midnightblue" points="1510.44,-195.2 1517.87,-187.65 1507.35,-188.92 1510.44,-195.2"/>
</g>
<!-- Node23&#45;&gt;Node9 -->
<g id="edge28" class="edge">
<title>Node23&#45;&gt;Node9</title>
<path fill="none" stroke="midnightblue" d="M1432.02,-168.32C1423.3,-160.34 1410.16,-148.31 1399.6,-138.65"/>
<polygon fill="midnightblue" stroke="midnightblue" points="1401.89,-136 1392.15,-131.83 1397.17,-141.17 1401.89,-136"/>
</g>
<!-- Node24 -->
<g id="node24" class="node">
<title>Node24</title>
<g id="a_node24"><a xlink:title=" ">
<polygon fill="white" stroke="#bfbfbf" points="1461,-112.5 1461,-131.5 1514,-131.5 1514,-112.5 1461,-112.5"/>
<text text-anchor="middle" x="1487.5" y="-119.5" font-family="Helvetica,sans-Serif" font-size="10.00">stdlib.h</text>
</a>
</g>
</g>
<!-- Node23&#45;&gt;Node24 -->
<g id="edge26" class="edge">
<title>Node23&#45;&gt;Node24</title>
<path fill="none" stroke="midnightblue" d="M1449.1,-168.08C1455.73,-160.3 1465.52,-148.8 1473.56,-139.37"/>
<polygon fill="midnightblue" stroke="midnightblue" points="1476.23,-141.63 1480.05,-131.75 1470.9,-137.09 1476.23,-141.63"/>
</g>
<!-- Node23&#45;&gt;Node25 -->
<g id="edge27" class="edge">
<title>Node23&#45;&gt;Node25</title>
<path fill="none" stroke="midnightblue" d="M1470.7,-168.37C1488.79,-161.47 1510.9,-149.94 1523.5,-132 1545.12,-101.22 1545.93,-55.2 1544.37,-29.7"/>
<polygon fill="midnightblue" stroke="midnightblue" points="1547.85,-29.24 1543.55,-19.56 1540.87,-29.8 1547.85,-29.24"/>
</g>
<!-- Node26&#45;&gt;Node5 -->
<g id="edge60" class="edge">
<title>Node26&#45;&gt;Node5</title>
<path fill="none" stroke="midnightblue" d="M996.46,-171.82C884.99,-161.34 634.06,-137.73 527.2,-127.68"/>
<polygon fill="midnightblue" stroke="midnightblue" points="527.3,-124.17 517.02,-126.72 526.65,-131.14 527.3,-124.17"/>
</g>
<!-- Node26&#45;&gt;Node15 -->
<g id="edge61" class="edge">
<title>Node26&#45;&gt;Node15</title>
<path fill="none" stroke="midnightblue" d="M996.4,-171.51C926.25,-164.18 801.44,-150.01 695.5,-132 694.26,-131.79 693,-131.57 691.73,-131.34"/>
<polygon fill="midnightblue" stroke="midnightblue" points="692.39,-127.9 681.9,-129.43 691.05,-134.77 692.39,-127.9"/>
</g>
<!-- Node27 -->
<g id="node27" class="node">
<title>Node27</title>
<g id="a_node27"><a xlink:href="include_2ccf_2ds_2hash_8h.html" target="_top" xlink:title=" ">
<polygon fill="white" stroke="black" points="1011.5,-112.5 1011.5,-131.5 1091.5,-131.5 1091.5,-112.5 1011.5,-112.5"/>
<text text-anchor="middle" x="1051.5" y="-119.5" font-family="Helvetica,sans-Serif" font-size="10.00">ccf/ds/hash.h</text>
</a>
</g>
</g>
<!-- Node26&#45;&gt;Node27 -->
<g id="edge30" class="edge">
<title>Node26&#45;&gt;Node27</title>
<path fill="none" stroke="midnightblue" d="M1051.5,-168.08C1051.5,-161.01 1051.5,-150.86 1051.5,-141.99"/>
<polygon fill="midnightblue" stroke="midnightblue" points="1055,-141.75 1051.5,-131.75 1048,-141.75 1055,-141.75"/>
</g>
<!-- Node26&#45;&gt;Node31 -->
<g id="edge63" class="edge">
<title>Node26&#45;&gt;Node31</title>
<path fill="none" stroke="midnightblue" d="M1040.58,-168.38C1019.6,-151.61 972.67,-112.98 937.5,-76 922.94,-60.68 908.04,-41.65 897.95,-28.15"/>
<polygon fill="midnightblue" stroke="midnightblue" points="900.54,-25.77 891.79,-19.8 894.91,-29.93 900.54,-25.77"/>
</g>
<!-- Node34 -->
<g id="node34" class="node">
<title>Node34</title>
<g id="a_node34"><a xlink:href="nonstd_8h.html" target="_top" xlink:title=" ">
<polygon fill="white" stroke="black" points="619.5,-56.5 619.5,-75.5 709.5,-75.5 709.5,-56.5 619.5,-56.5"/>
<text text-anchor="middle" x="664.5" y="-63.5" font-family="Helvetica,sans-Serif" font-size="10.00">ccf/ds/nonstd.h</text>
</a>
</g>
</g>
<!-- Node26&#45;&gt;Node34 -->
<g id="edge39" class="edge">
<title>Node26&#45;&gt;Node34</title>
<path fill="none" stroke="midnightblue" d="M996.49,-171.29C910.59,-162.07 751.93,-143.78 728.5,-132 706.5,-120.94 687.61,-99.34 676.18,-84.08"/>
<polygon fill="midnightblue" stroke="midnightblue" points="679.01,-82.03 670.34,-75.95 673.33,-86.12 679.01,-82.03"/>
</g>
<!-- Node37 -->
<g id="node37" class="node">
<title>Node37</title>
<g id="a_node37"><a xlink:title=" ">
<polygon fill="white" stroke="#bfbfbf" points="1310.5,-0.5 1310.5,-19.5 1354.5,-19.5 1354.5,-0.5 1310.5,-0.5"/>
<text text-anchor="middle" x="1332.5" y="-7.5" font-family="Helvetica,sans-Serif" font-size="10.00">string</text>
</a>
</g>
</g>
<!-- Node26&#45;&gt;Node37 -->
<g id="edge62" class="edge">
<title>Node26&#45;&gt;Node37</title>
<path fill="none" stroke="midnightblue" d="M1075.55,-168.43C1112.07,-155.54 1183.79,-130.67 1245.5,-112 1304.11,-94.26 1341.28,-124.63 1378.5,-76 1391.5,-59.02 1371.99,-38.83 1354.52,-25.5"/>
<polygon fill="midnightblue" stroke="midnightblue" points="1356.42,-22.56 1346.25,-19.56 1352.33,-28.24 1356.42,-22.56"/>
</g>
<!-- Node39 -->
<g id="node39" class="node">
<title>Node39</title>
<g id="a_node39"><a xlink:href="serializer_8h.html" target="_top" xlink:title=" ">
<polygon fill="white" stroke="black" points="737.5,-112.5 737.5,-131.5 807.5,-131.5 807.5,-112.5 737.5,-112.5"/>
<text text-anchor="middle" x="772.5" y="-119.5" font-family="Helvetica,sans-Serif" font-size="10.00">serializer.h</text>
</a>
</g>
</g>
<!-- Node26&#45;&gt;Node39 -->
<g id="edge47" class="edge">
<title>Node26&#45;&gt;Node39</title>
<path fill="none" stroke="midnightblue" d="M1007.29,-168.44C955.43,-158.41 869.92,-141.86 817.66,-131.74"/>
<polygon fill="midnightblue" stroke="midnightblue" points="818.15,-128.27 807.67,-129.81 816.82,-135.14 818.15,-128.27"/>
</g>
<!-- Node26&#45;&gt;Node44 -->
<g id="edge59" class="edge">
<title>Node26&#45;&gt;Node44</title>
<path fill="none" stroke="midnightblue" d="M1087.63,-168.44C1130.66,-158.25 1202.06,-141.34 1244.57,-131.27"/>
<polygon fill="midnightblue" stroke="midnightblue" points="1245.53,-134.64 1254.46,-128.93 1243.92,-127.83 1245.53,-134.64"/>
</g>
<!-- Node28 -->
<g id="node28" class="node">
<title>Node28</title>
<g id="a_node28"><a xlink:href="siphash_8h.html" target="_top" xlink:title=" ">
<polygon fill="white" stroke="black" points="1144,-56.5 1144,-75.5 1239,-75.5 1239,-56.5 1144,-56.5"/>
<text text-anchor="middle" x="1191.5" y="-63.5" font-family="Helvetica,sans-Serif" font-size="10.00">ccf/ds/siphash.h</text>
</a>
</g>
</g>
<!-- Node27&#45;&gt;Node28 -->
<g id="edge31" class="edge">
<title>Node27&#45;&gt;Node28</title>
<path fill="none" stroke="midnightblue" d="M1073.68,-112.44C1096.93,-103.48 1133.65,-89.31 1159.92,-79.18"/>
<polygon fill="midnightblue" stroke="midnightblue" points="1161.35,-82.38 1169.42,-75.52 1158.83,-75.85 1161.35,-82.38"/>
</g>
<!-- Node30 -->
<g id="node30" class="node">
<title>Node30</title>
<g id="a_node30"><a xlink:title=" ">
<polygon fill="white" stroke="#bfbfbf" points="1242.5,-0.5 1242.5,-19.5 1292.5,-19.5 1292.5,-0.5 1242.5,-0.5"/>
<text text-anchor="middle" x="1267.5" y="-7.5" font-family="Helvetica,sans-Serif" font-size="10.00">cstdint</text>
</a>
</g>
</g>
<!-- Node27&#45;&gt;Node30 -->
<g id="edge36" class="edge">
<title>Node27&#45;&gt;Node30</title>
<path fill="none" stroke="midnightblue" d="M1091.91,-116.6C1142.78,-110.27 1226.22,-96.99 1248.5,-76 1261.06,-64.17 1265.46,-44.54 1266.93,-29.94"/>
<polygon fill="midnightblue" stroke="midnightblue" points="1270.45,-29.76 1267.59,-19.56 1263.47,-29.32 1270.45,-29.76"/>
</g>
<!-- Node27&#45;&gt;Node31 -->
<g id="edge38" class="edge">
<title>Node27&#45;&gt;Node31</title>
<path fill="none" stroke="midnightblue" d="M1033.52,-112.35C1016.36,-103.84 990.02,-90.12 968.5,-76 944.78,-60.44 919.36,-39.9 902.99,-26.11"/>
<polygon fill="midnightblue" stroke="midnightblue" points="905.2,-23.39 895.31,-19.57 900.66,-28.72 905.2,-23.39"/>
</g>
<!-- Node32 -->
<g id="node32" class="node">
<title>Node32</title>
<g id="a_node32"><a xlink:title=" ">
<polygon fill="white" stroke="#bfbfbf" points="801.5,-0.5 801.5,-19.5 843.5,-19.5 843.5,-0.5 801.5,-0.5"/>
<text text-anchor="middle" x="822.5" y="-7.5" font-family="Helvetica,sans-Serif" font-size="10.00">array</text>
</a>
</g>
</g>
<!-- Node27&#45;&gt;Node32 -->
<g id="edge35" class="edge">
<title>Node27&#45;&gt;Node32</title>
<path fill="none" stroke="midnightblue" d="M1027.07,-112.47C1003.7,-104.05 967.65,-90.39 937.5,-76 904.39,-60.2 867.76,-38.77 844.93,-24.91"/>
<polygon fill="midnightblue" stroke="midnightblue" points="846.69,-21.88 836.33,-19.65 843.03,-27.85 846.69,-21.88"/>
</g>
<!-- Node33 -->
<g id="node33" class="node">
<title>Node33</title>
<g id="a_node33"><a xlink:title=" ">
<polygon fill="white" stroke="#bfbfbf" points="977,-56.5 977,-75.5 1126,-75.5 1126,-56.5 977,-56.5"/>
<text text-anchor="middle" x="1051.5" y="-63.5" font-family="Helvetica,sans-Serif" font-size="10.00">small_vector/SmallVector.h</text>
</a>
</g>
</g>
<!-- Node27&#45;&gt;Node33 -->
<g id="edge37" class="edge">
<title>Node27&#45;&gt;Node33</title>
<path fill="none" stroke="midnightblue" d="M1051.5,-112.08C1051.5,-105.01 1051.5,-94.86 1051.5,-85.99"/>
<polygon fill="midnightblue" stroke="midnightblue" points="1055,-85.75 1051.5,-75.75 1048,-85.75 1055,-85.75"/>
</g>
<!-- Node29 -->
<g id="node29" class="node">
<title>Node29</title>
<g id="a_node29"><a xlink:title=" ">
<polygon fill="white" stroke="#bfbfbf" points="1165,-0.5 1165,-19.5 1218,-19.5 1218,-0.5 1165,-0.5"/>
<text text-anchor="middle" x="1191.5" y="-7.5" font-family="Helvetica,sans-Serif" font-size="10.00">cstddef</text>
</a>
</g>
</g>
<!-- Node28&#45;&gt;Node29 -->
<g id="edge32" class="edge">
<title>Node28&#45;&gt;Node29</title>
<path fill="none" stroke="midnightblue" d="M1191.5,-56.08C1191.5,-49.01 1191.5,-38.86 1191.5,-29.99"/>
<polygon fill="midnightblue" stroke="midnightblue" points="1195,-29.75 1191.5,-19.75 1188,-29.75 1195,-29.75"/>
</g>
<!-- Node28&#45;&gt;Node30 -->
<g id="edge33" class="edge">
<title>Node28&#45;&gt;Node30</title>
<path fill="none" stroke="midnightblue" d="M1203.71,-56.32C1215.28,-48.11 1232.88,-35.6 1246.66,-25.81"/>
<polygon fill="midnightblue" stroke="midnightblue" points="1248.94,-28.48 1255.07,-19.83 1244.89,-22.77 1248.94,-28.48"/>
</g>
<!-- Node28&#45;&gt;Node31 -->
<g id="edge34" class="edge">
<title>Node28&#45;&gt;Node31</title>
<path fill="none" stroke="midnightblue" d="M1143.69,-56.56C1081.28,-45.55 973.63,-26.55 919.16,-16.94"/>
<polygon fill="midnightblue" stroke="midnightblue" points="919.46,-13.44 909,-15.15 918.24,-20.33 919.46,-13.44"/>
</g>
<!-- Node34&#45;&gt;Node17 -->
<g id="edge45" class="edge">
<title>Node34&#45;&gt;Node17</title>
<path fill="none" stroke="midnightblue" d="M639.78,-56.44C613.65,-47.4 572.24,-33.06 542.92,-22.92"/>
<polygon fill="midnightblue" stroke="midnightblue" points="543.7,-19.48 533.1,-19.52 541.41,-26.1 543.7,-19.48"/>
</g>
<!-- Node34&#45;&gt;Node31 -->
<g id="edge46" class="edge">
<title>Node34&#45;&gt;Node31</title>
<path fill="none" stroke="midnightblue" d="M701.68,-56.46C737.67,-48.12 793.98,-34.85 852.02,-20.06"/>
<polygon fill="midnightblue" stroke="midnightblue" points="852.91,-23.45 861.73,-17.58 851.18,-16.67 852.91,-23.45"/>
</g>
<!-- Node34&#45;&gt;Node32 -->
<g id="edge41" class="edge">
<title>Node34&#45;&gt;Node32</title>
<path fill="none" stroke="midnightblue" d="M689.54,-56.44C717.21,-46.99 761.81,-31.74 791.63,-21.55"/>
<polygon fill="midnightblue" stroke="midnightblue" points="792.8,-24.85 801.13,-18.3 790.53,-18.23 792.8,-24.85"/>
</g>
<!-- Node35 -->
<g id="node35" class="node">
<title>Node35</title>
<g id="a_node35"><a xlink:title=" ">
<polygon fill="white" stroke="#bfbfbf" points="719.5,-0.5 719.5,-19.5 783.5,-19.5 783.5,-0.5 719.5,-0.5"/>
<text text-anchor="middle" x="751.5" y="-7.5" font-family="Helvetica,sans-Serif" font-size="10.00">algorithm</text>
</a>
</g>
</g>
<!-- Node34&#45;&gt;Node35 -->
<g id="edge40" class="edge">
<title>Node34&#45;&gt;Node35</title>
<path fill="none" stroke="midnightblue" d="M678.48,-56.32C692.05,-47.9 712.88,-34.97 728.82,-25.07"/>
<polygon fill="midnightblue" stroke="midnightblue" points="730.91,-27.9 737.56,-19.65 727.21,-21.95 730.91,-27.9"/>
</g>
<!-- Node36 -->
<g id="node36" class="node">
<title>Node36</title>
<g id="a_node36"><a xlink:title=" ">
<polygon fill="white" stroke="#bfbfbf" points="561,-0.5 561,-19.5 610,-19.5 610,-0.5 561,-0.5"/>
<text text-anchor="middle" x="585.5" y="-7.5" font-family="Helvetica,sans-Serif" font-size="10.00">cctype</text>
</a>
</g>
</g>
<!-- Node34&#45;&gt;Node36 -->
<g id="edge42" class="edge">
<title>Node34&#45;&gt;Node36</title>
<path fill="none" stroke="midnightblue" d="M651.81,-56.32C639.6,-47.98 620.92,-35.21 606.5,-25.35"/>
<polygon fill="midnightblue" stroke="midnightblue" points="608.39,-22.41 598.16,-19.65 604.44,-28.19 608.39,-22.41"/>
</g>
<!-- Node34&#45;&gt;Node37 -->
<g id="edge43" class="edge">
<title>Node34&#45;&gt;Node37</title>
<path fill="none" stroke="midnightblue" d="M709.53,-57.14C712.56,-56.72 715.57,-56.33 718.5,-56 973.16,-26.99 1043.94,-63.51 1300.3,-19.81"/>
<polygon fill="midnightblue" stroke="midnightblue" points="1301.03,-23.24 1310.29,-18.09 1299.84,-16.34 1301.03,-23.24"/>
</g>
<!-- Node38 -->
<g id="node38" class="node">
<title>Node38</title>
<g id="a_node38"><a xlink:title=" ">
<polygon fill="white" stroke="#bfbfbf" points="628,-0.5 628,-19.5 701,-19.5 701,-0.5 628,-0.5"/>
<text text-anchor="middle" x="664.5" y="-7.5" font-family="Helvetica,sans-Serif" font-size="10.00">string_view</text>
</a>
</g>
</g>
<!-- Node34&#45;&gt;Node38 -->
<g id="edge44" class="edge">
<title>Node34&#45;&gt;Node38</title>
<path fill="none" stroke="midnightblue" d="M664.5,-56.08C664.5,-49.01 664.5,-38.86 664.5,-29.99"/>
<polygon fill="midnightblue" stroke="midnightblue" points="668,-29.75 664.5,-19.75 661,-29.75 668,-29.75"/>
</g>
<!-- Node39&#45;&gt;Node17 -->
<g id="edge57" class="edge">
<title>Node39&#45;&gt;Node17</title>
<path fill="none" stroke="midnightblue" d="M737.34,-114.38C703.81,-107.35 652.36,-94.65 610.5,-76 579.73,-62.29 547.47,-40.24 527.67,-25.68"/>
<polygon fill="midnightblue" stroke="midnightblue" points="529.6,-22.76 519.5,-19.58 525.41,-28.37 529.6,-22.76"/>
</g>
<!-- Node39&#45;&gt;Node31 -->
<g id="edge58" class="edge">
<title>Node39&#45;&gt;Node31</title>
<path fill="none" stroke="midnightblue" d="M777.78,-112.33C786.05,-99.19 803.01,-73.88 821.5,-56 833.68,-44.22 849.18,-33.24 861.88,-25.07"/>
<polygon fill="midnightblue" stroke="midnightblue" points="863.92,-27.92 870.54,-19.65 860.21,-21.99 863.92,-27.92"/>
</g>
<!-- Node39&#45;&gt;Node34 -->
<g id="edge48" class="edge">
<title>Node39&#45;&gt;Node34</title>
<path fill="none" stroke="midnightblue" d="M755.15,-112.32C737.83,-103.66 710.98,-90.24 691,-80.25"/>
<polygon fill="midnightblue" stroke="midnightblue" points="692.32,-77 681.81,-75.65 689.19,-83.26 692.32,-77"/>
</g>
<!-- Node39&#45;&gt;Node40 -->
<g id="edge49" class="edge">
<title>Node39&#45;&gt;Node40</title>
<path fill="none" stroke="midnightblue" d="M807.75,-117.82C886.7,-110.66 1083.74,-92.61 1248.5,-76 1260.46,-74.79 1273.38,-73.44 1285.41,-72.15"/>
<polygon fill="midnightblue" stroke="midnightblue" points="1286.14,-75.59 1295.71,-71.04 1285.39,-68.63 1286.14,-75.59"/>
</g>
<!-- Node42 -->
<g id="node42" class="node">
<title>Node42</title>
<g id="a_node42"><a xlink:title=" ">
<polygon fill="white" stroke="#bfbfbf" points="55.5,-56.5 55.5,-75.5 113.5,-75.5 113.5,-56.5 55.5,-56.5"/>
<text text-anchor="middle" x="84.5" y="-63.5" font-family="Helvetica,sans-Serif" font-size="10.00">memory</text>
</a>
</g>
</g>
<!-- Node39&#45;&gt;Node42 -->
<g id="edge55" class="edge">
<title>Node39&#45;&gt;Node42</title>
<path fill="none" stroke="midnightblue" d="M737.41,-116.87C722.9,-115.24 705.9,-113.42 690.5,-112 476.84,-92.35 220.2,-75.52 123.71,-69.43"/>
<polygon fill="midnightblue" stroke="midnightblue" points="123.74,-65.93 113.54,-68.79 123.3,-72.91 123.74,-65.93"/>
</g>
<!-- Node43 -->
<g id="node43" class="node">
<title>Node43</title>
<g id="a_node43"><a xlink:title=" ">
<polygon fill="white" stroke="#bfbfbf" points="728,-56.5 728,-75.5 769,-75.5 769,-56.5 728,-56.5"/>
<text text-anchor="middle" x="748.5" y="-63.5" font-family="Helvetica,sans-Serif" font-size="10.00">tuple</text>
</a>
</g>
</g>
<!-- Node39&#45;&gt;Node43 -->
<g id="edge56" class="edge">
<title>Node39&#45;&gt;Node43</title>
<path fill="none" stroke="midnightblue" d="M768.54,-112.08C765.29,-104.77 760.58,-94.18 756.55,-85.1"/>
<polygon fill="midnightblue" stroke="midnightblue" points="759.65,-83.47 752.39,-75.75 753.25,-86.31 759.65,-83.47"/>
</g>
<!-- Node40&#45;&gt;Node25 -->
<g id="edge51" class="edge">
<title>Node40&#45;&gt;Node25</title>
<path fill="none" stroke="midnightblue" d="M1365.78,-56.44C1404.5,-46.49 1468.16,-30.12 1507.58,-19.98"/>
<polygon fill="midnightblue" stroke="midnightblue" points="1508.48,-23.36 1517.29,-17.48 1506.73,-16.58 1508.48,-23.36"/>
</g>
<!-- Node40&#45;&gt;Node30 -->
<g id="edge50" class="edge">
<title>Node40&#45;&gt;Node30</title>
<path fill="none" stroke="midnightblue" d="M1322.06,-56.32C1312.35,-48.26 1297.68,-36.08 1286,-26.37"/>
<polygon fill="midnightblue" stroke="midnightblue" points="1288.06,-23.53 1278.13,-19.83 1283.59,-28.92 1288.06,-23.53"/>
</g>
<!-- Node40&#45;&gt;Node31 -->
<g id="edge54" class="edge">
<title>Node40&#45;&gt;Node31</title>
<path fill="none" stroke="midnightblue" d="M1295.92,-60.58C1210.93,-50.31 1001.12,-24.97 919.11,-15.06"/>
<polygon fill="midnightblue" stroke="midnightblue" points="919.44,-11.57 909.09,-13.85 918.6,-18.52 919.44,-11.57"/>
</g>
<!-- Node40&#45;&gt;Node37 -->
<g id="edge53" class="edge">
<title>Node40&#45;&gt;Node37</title>
<path fill="none" stroke="midnightblue" d="M1332.5,-56.08C1332.5,-49.01 1332.5,-38.86 1332.5,-29.99"/>
<polygon fill="midnightblue" stroke="midnightblue" points="1336,-29.75 1332.5,-19.75 1329,-29.75 1336,-29.75"/>
</g>
<!-- Node40&#45;&gt;Node41 -->
<g id="edge52" class="edge">
<title>Node40&#45;&gt;Node41</title>
<path fill="none" stroke="midnightblue" d="M1346.64,-56.32C1360.37,-47.9 1381.44,-34.97 1397.56,-25.07"/>
<polygon fill="midnightblue" stroke="midnightblue" points="1399.7,-27.87 1406.4,-19.65 1396.04,-21.9 1399.7,-27.87"/>
</g>
<!-- Node51&#45;&gt;Node48 -->
<g id="edge83" class="edge">
<title>Node51&#45;&gt;Node48</title>
<path fill="none" stroke="midnightblue" d="M712.42,-392.08C720.28,-384.22 731.93,-372.57 741.42,-363.08"/>
<polygon fill="midnightblue" stroke="midnightblue" points="744.15,-365.3 748.75,-355.75 739.2,-360.35 744.15,-365.3"/>
</g>
<!-- Node52 -->
<g id="node52" class="node">
<title>Node52</title>
<g id="a_node52"><a xlink:href="proxy_8h.html" target="_top" xlink:title=" ">
<polygon fill="white" stroke="black" points="39.5,-336.5 39.5,-355.5 91.5,-355.5 91.5,-336.5 39.5,-336.5"/>
<text text-anchor="middle" x="65.5" y="-343.5" font-family="Helvetica,sans-Serif" font-size="10.00">proxy.h</text>
</a>
</g>
</g>
<!-- Node51&#45;&gt;Node52 -->
<g id="edge80" class="edge">
<title>Node51&#45;&gt;Node52</title>
<path fill="none" stroke="midnightblue" d="M677.7,-398.82C578,-390.38 217.75,-359.89 101.76,-350.07"/>
<polygon fill="midnightblue" stroke="midnightblue" points="101.88,-346.57 91.62,-349.21 101.29,-353.54 101.88,-346.57"/>
</g>
<!-- Node52&#45;&gt;Node42 -->
<g id="edge81" class="edge">
<title>Node52&#45;&gt;Node42</title>
<path fill="none" stroke="midnightblue" d="M65.5,-336.44C65.5,-317.94 65.5,-272.81 65.5,-235 65.5,-235 65.5,-235 65.5,-177 65.5,-144.49 73.66,-107.35 79.28,-85.61"/>
<polygon fill="midnightblue" stroke="midnightblue" points="82.72,-86.32 81.94,-75.75 75.96,-84.5 82.72,-86.32"/>
</g>
<!-- Node53 -->
<g id="node53" class="node">
<title>Node53</title>
<g id="a_node53"><a xlink:title=" ">
<polygon fill="white" stroke="#bfbfbf" points="0,-280.5 0,-299.5 37,-299.5 37,-280.5 0,-280.5"/>
<text text-anchor="middle" x="18.5" y="-287.5" font-family="Helvetica,sans-Serif" font-size="10.00">uv.h</text>
</a>
</g>
</g>
<!-- Node52&#45;&gt;Node53 -->
<g id="edge82" class="edge">
<title>Node52&#45;&gt;Node53</title>
<path fill="none" stroke="midnightblue" d="M57.74,-336.08C50.96,-328.3 40.96,-316.8 32.74,-307.37"/>
<polygon fill="midnightblue" stroke="midnightblue" points="35.32,-305 26.12,-299.75 30.04,-309.59 35.32,-305"/>
</g>
</g>
</svg>
