<?xml version="1.0" encoding="UTF-8" standalone="no"?>
<!DOCTYPE svg PUBLIC "-//W3C//DTD SVG 1.1//EN"
 "http://www.w3.org/Graphics/SVG/1.1/DTD/svg11.dtd">
<!-- Generated by graphviz version 2.43.0 (0)
 -->
<!-- Title: include/ccf/pal/attestation.h Pages: 1 -->
<svg width="321pt" height="319pt"
 viewBox="0.00 0.00 321.00 319.00" xmlns="http://www.w3.org/2000/svg" xmlns:xlink="http://www.w3.org/1999/xlink">
<g id="graph0" class="graph" transform="scale(1 1) rotate(0) translate(4 315)">
<title>include/ccf/pal/attestation.h</title>
<polygon fill="white" stroke="transparent" points="-4,4 -4,-315 317,-315 317,4 -4,4"/>
<!-- Node1 -->
<g id="node1" class="node">
<title>Node1</title>
<g id="a_node1"><a xlink:title=" ">
<polygon fill="#bfbfbf" stroke="black" points="0,-291.5 0,-310.5 152,-310.5 152,-291.5 0,-291.5"/>
<text text-anchor="middle" x="76" y="-298.5" font-family="Helvetica,sans-Serif" font-size="10.00">include/ccf/pal/attestation.h</text>
</a>
</g>
</g>
<!-- Node2 -->
<g id="node2" class="node">
<title>Node2</title>
<g id="a_node2"><a xlink:href="node__state_8h.html" target="_top" xlink:title=" ">
<polygon fill="white" stroke="black" points="50,-168.5 50,-187.5 174,-187.5 174,-168.5 50,-168.5"/>
<text text-anchor="middle" x="112" y="-175.5" font-family="Helvetica,sans-Serif" font-size="10.00">src/node/node_state.h</text>
</a>
</g>
</g>
<!-- Node1&#45;&gt;Node2 -->
<g id="edge1" class="edge">
<title>Node1&#45;&gt;Node2</title>
<path fill="none" stroke="midnightblue" d="M45.45,-286.56C32.67,-279.22 19.15,-268.77 12,-255 5.65,-242.77 4.52,-235.57 12,-224 24.3,-204.98 46.77,-193.91 67.3,-187.52"/>
<polygon fill="midnightblue" stroke="midnightblue" points="44.04,-289.77 54.52,-291.36 47.32,-283.59 44.04,-289.77"/>
</g>
<!-- Node6 -->
<g id="node6" class="node">
<title>Node6</title>
<g id="a_node6"><a xlink:href="quote_8cpp.html" target="_top" xlink:title=" ">
<polygon fill="white" stroke="black" points="21.5,-230 21.5,-249 130.5,-249 130.5,-230 21.5,-230"/>
<text text-anchor="middle" x="76" y="-237" font-family="Helvetica,sans-Serif" font-size="10.00">src/node/quote.cpp</text>
</a>
</g>
</g>
<!-- Node1&#45;&gt;Node6 -->
<g id="edge6" class="edge">
<title>Node1&#45;&gt;Node6</title>
<path fill="none" stroke="midnightblue" d="M76,-281.32C76,-270.5 76,-257.4 76,-249.01"/>
<polygon fill="midnightblue" stroke="midnightblue" points="72.5,-281.48 76,-291.48 79.5,-281.48 72.5,-281.48"/>
</g>
<!-- Node7 -->
<g id="node7" class="node">
<title>Node7</title>
<g id="a_node7"><a xlink:href="quote__endorsements__client_8h.html" target="_top" xlink:title=" ">
<polygon fill="white" stroke="black" points="149,-224.5 149,-254.5 313,-254.5 313,-224.5 149,-224.5"/>
<text text-anchor="start" x="157" y="-242.5" font-family="Helvetica,sans-Serif" font-size="10.00">src/node/quote_endorsements</text>
<text text-anchor="middle" x="231" y="-231.5" font-family="Helvetica,sans-Serif" font-size="10.00">_client.h</text>
</a>
</g>
</g>
<!-- Node1&#45;&gt;Node7 -->
<g id="edge7" class="edge">
<title>Node1&#45;&gt;Node7</title>
<path fill="none" stroke="midnightblue" d="M107.66,-287.85C132.84,-278.18 168.1,-264.65 194.47,-254.52"/>
<polygon fill="midnightblue" stroke="midnightblue" points="106.29,-284.62 98.21,-291.48 108.8,-291.16 106.29,-284.62"/>
</g>
<!-- Node3 -->
<g id="node3" class="node">
<title>Node3</title>
<g id="a_node3"><a xlink:href="src_2enclave_2enclave_8h.html" target="_top" xlink:title=" ">
<polygon fill="white" stroke="black" points="51,-56.5 51,-75.5 173,-75.5 173,-56.5 51,-56.5"/>
<text text-anchor="middle" x="112" y="-63.5" font-family="Helvetica,sans-Serif" font-size="10.00">src/enclave/enclave.h</text>
</a>
</g>
</g>
<!-- Node2&#45;&gt;Node3 -->
<g id="edge2" class="edge">
<title>Node2&#45;&gt;Node3</title>
<path fill="none" stroke="midnightblue" d="M97.02,-160.47C90.78,-152.48 84.23,-142.38 81,-132 74.39,-110.75 91.96,-87.63 103.28,-75.51"/>
<polygon fill="midnightblue" stroke="midnightblue" points="94.42,-162.81 103.52,-168.23 99.79,-158.32 94.42,-162.81"/>
</g>
<!-- Node5 -->
<g id="node5" class="node">
<title>Node5</title>
<g id="a_node5"><a xlink:href="gov__effects_8h.html" target="_top" xlink:title=" ">
<polygon fill="white" stroke="black" points="90,-112.5 90,-131.5 234,-131.5 234,-112.5 90,-112.5"/>
<text text-anchor="middle" x="162" y="-119.5" font-family="Helvetica,sans-Serif" font-size="10.00">src/node/rpc/gov_effects.h</text>
</a>
</g>
</g>
<!-- Node2&#45;&gt;Node5 -->
<g id="edge4" class="edge">
<title>Node2&#45;&gt;Node5</title>
<path fill="none" stroke="midnightblue" d="M127.08,-160.72C135.89,-151.2 146.67,-139.56 153.9,-131.75"/>
<polygon fill="midnightblue" stroke="midnightblue" points="124.48,-158.37 120.26,-168.08 129.62,-163.12 124.48,-158.37"/>
</g>
<!-- Node4 -->
<g id="node4" class="node">
<title>Node4</title>
<g id="a_node4"><a xlink:href="enclave_2main_8cpp.html" target="_top" xlink:title=" ">
<polygon fill="white" stroke="black" points="52,-0.5 52,-19.5 172,-19.5 172,-0.5 52,-0.5"/>
<text text-anchor="middle" x="112" y="-7.5" font-family="Helvetica,sans-Serif" font-size="10.00">src/enclave/main.cpp</text>
</a>
</g>
</g>
<!-- Node3&#45;&gt;Node4 -->
<g id="edge3" class="edge">
<title>Node3&#45;&gt;Node4</title>
<path fill="none" stroke="midnightblue" d="M112,-45.8C112,-36.91 112,-26.78 112,-19.75"/>
<polygon fill="midnightblue" stroke="midnightblue" points="108.5,-46.08 112,-56.08 115.5,-46.08 108.5,-46.08"/>
</g>
<!-- Node5&#45;&gt;Node3 -->
<g id="edge5" class="edge">
<title>Node5&#45;&gt;Node3</title>
<path fill="none" stroke="midnightblue" d="M146.92,-104.72C138.11,-95.2 127.33,-83.56 120.1,-75.75"/>
<polygon fill="midnightblue" stroke="midnightblue" points="144.38,-107.12 153.74,-112.08 149.52,-102.37 144.38,-107.12"/>
</g>
<!-- Node7&#45;&gt;Node2 -->
<g id="edge8" class="edge">
<title>Node7&#45;&gt;Node2</title>
<path fill="none" stroke="midnightblue" d="M193.59,-219.8C172.09,-209.04 146.09,-196.05 129.32,-187.66"/>
<polygon fill="midnightblue" stroke="midnightblue" points="192.29,-223.06 202.8,-224.4 195.42,-216.8 192.29,-223.06"/>
</g>
</g>
</svg>
