<?xml version="1.0" encoding="UTF-8" standalone="no"?>
<!DOCTYPE svg PUBLIC "-//W3C//DTD SVG 1.1//EN"
 "http://www.w3.org/Graphics/SVG/1.1/DTD/svg11.dtd">
<!-- Generated by graphviz version 2.43.0 (0)
 -->
<!-- Title: include/ccf/base_endpoint_registry.h Pages: 1 -->
<svg width="2714pt" height="475pt"
 viewBox="0.00 0.00 2714.35 475.00" xmlns="http://www.w3.org/2000/svg" xmlns:xlink="http://www.w3.org/1999/xlink">
<g id="graph0" class="graph" transform="scale(1 1) rotate(0) translate(4 471)">
<title>include/ccf/base_endpoint_registry.h</title>
<polygon fill="white" stroke="transparent" points="-4,4 -4,-471 2710.35,-471 2710.35,4 -4,4"/>
<!-- Node1 -->
<g id="node1" class="node">
<title>Node1</title>
<g id="a_node1"><a xlink:title=" ">
<polygon fill="#bfbfbf" stroke="black" points="1684,-436.5 1684,-466.5 1827,-466.5 1827,-436.5 1684,-436.5"/>
<text text-anchor="start" x="1692" y="-454.5" font-family="Helvetica,sans-Serif" font-size="10.00">include/ccf/base_endpoint</text>
<text text-anchor="middle" x="1755.5" y="-443.5" font-family="Helvetica,sans-Serif" font-size="10.00">_registry.h</text>
</a>
</g>
</g>
<!-- Node2 -->
<g id="node2" class="node">
<title>Node2</title>
<g id="a_node2"><a xlink:href="common__endpoint__registry_8h.html" target="_top" xlink:title=" ">
<polygon fill="white" stroke="black" points="1190,-369.5 1190,-399.5 1305,-399.5 1305,-369.5 1190,-369.5"/>
<text text-anchor="start" x="1198" y="-387.5" font-family="Helvetica,sans-Serif" font-size="10.00">include/ccf/common</text>
<text text-anchor="middle" x="1247.5" y="-376.5" font-family="Helvetica,sans-Serif" font-size="10.00">_endpoint_registry.h</text>
</a>
</g>
</g>
<!-- Node1&#45;&gt;Node2 -->
<g id="edge1" class="edge">
<title>Node1&#45;&gt;Node2</title>
<path fill="none" stroke="midnightblue" d="M1673.72,-440.04C1570.43,-426.82 1395.33,-404.41 1305.08,-392.87"/>
<polygon fill="midnightblue" stroke="midnightblue" points="1673.43,-443.53 1683.79,-441.32 1674.32,-436.58 1673.43,-443.53"/>
</g>
<!-- Node5 -->
<g id="node5" class="node">
<title>Node5</title>
<g id="a_node5"><a xlink:href="nobuiltins_8cpp.html" target="_top" xlink:title=" ">
<polygon fill="white" stroke="black" points="0,-235.5 0,-265.5 135,-265.5 135,-235.5 0,-235.5"/>
<text text-anchor="start" x="8" y="-253.5" font-family="Helvetica,sans-Serif" font-size="10.00">samples/apps/nobuiltins</text>
<text text-anchor="middle" x="67.5" y="-242.5" font-family="Helvetica,sans-Serif" font-size="10.00">/nobuiltins.cpp</text>
</a>
</g>
</g>
<!-- Node1&#45;&gt;Node5 -->
<g id="edge37" class="edge">
<title>Node1&#45;&gt;Node5</title>
<path fill="none" stroke="midnightblue" d="M1673.52,-444.36C1561.88,-435.76 1355.85,-419.03 1180.5,-400 718.93,-349.9 603.04,-338.77 144.5,-266 141.41,-265.51 138.25,-264.99 135.07,-264.45"/>
<polygon fill="midnightblue" stroke="midnightblue" points="1673.46,-447.87 1683.69,-445.15 1673.99,-440.89 1673.46,-447.87"/>
</g>
<!-- Node28 -->
<g id="node28" class="node">
<title>Node28</title>
<g id="a_node28"><a xlink:href="ccf__global_8h.html" target="_top" xlink:title=" ">
<polygon fill="white" stroke="black" points="1442,-369.5 1442,-399.5 1553,-399.5 1553,-369.5 1442,-369.5"/>
<text text-anchor="start" x="1450" y="-387.5" font-family="Helvetica,sans-Serif" font-size="10.00">src/apps/js_v8/tmpl</text>
<text text-anchor="middle" x="1497.5" y="-376.5" font-family="Helvetica,sans-Serif" font-size="10.00">/ccf_global.h</text>
</a>
</g>
</g>
<!-- Node1&#45;&gt;Node28 -->
<g id="edge38" class="edge">
<title>Node1&#45;&gt;Node28</title>
<path fill="none" stroke="midnightblue" d="M1689.91,-433.98C1647.62,-423.32 1593.22,-409.62 1553.06,-399.5"/>
<polygon fill="midnightblue" stroke="midnightblue" points="1689.28,-437.43 1699.84,-436.48 1690.99,-430.64 1689.28,-437.43"/>
</g>
<!-- Node30 -->
<g id="node30" class="node">
<title>Node30</title>
<g id="a_node30"><a xlink:href="consensus_8h.html" target="_top" xlink:title=" ">
<polygon fill="white" stroke="black" points="1571,-369.5 1571,-399.5 1682,-399.5 1682,-369.5 1571,-369.5"/>
<text text-anchor="start" x="1579" y="-387.5" font-family="Helvetica,sans-Serif" font-size="10.00">src/apps/js_v8/tmpl</text>
<text text-anchor="middle" x="1626.5" y="-376.5" font-family="Helvetica,sans-Serif" font-size="10.00">/consensus.h</text>
</a>
</g>
</g>
<!-- Node1&#45;&gt;Node30 -->
<g id="edge41" class="edge">
<title>Node1&#45;&gt;Node30</title>
<path fill="none" stroke="midnightblue" d="M1718.49,-431.85C1698.1,-421.58 1673.19,-409.03 1654.44,-399.58"/>
<polygon fill="midnightblue" stroke="midnightblue" points="1717,-435.02 1727.51,-436.4 1720.15,-428.77 1717,-435.02"/>
</g>
<!-- Node32 -->
<g id="node32" class="node">
<title>Node32</title>
<g id="a_node32"><a xlink:href="apps_2js__v8_2tmpl_2request_8h.html" target="_top" xlink:title=" ">
<polygon fill="white" stroke="black" points="1700,-369.5 1700,-399.5 1811,-399.5 1811,-369.5 1700,-369.5"/>
<text text-anchor="start" x="1708" y="-387.5" font-family="Helvetica,sans-Serif" font-size="10.00">src/apps/js_v8/tmpl</text>
<text text-anchor="middle" x="1755.5" y="-376.5" font-family="Helvetica,sans-Serif" font-size="10.00">/request.h</text>
</a>
</g>
</g>
<!-- Node1&#45;&gt;Node32 -->
<g id="edge44" class="edge">
<title>Node1&#45;&gt;Node32</title>
<path fill="none" stroke="midnightblue" d="M1755.5,-426.11C1755.5,-417.15 1755.5,-407.32 1755.5,-399.58"/>
<polygon fill="midnightblue" stroke="midnightblue" points="1752,-426.4 1755.5,-436.4 1759,-426.4 1752,-426.4"/>
</g>
<!-- Node34 -->
<g id="node34" class="node">
<title>Node34</title>
<g id="a_node34"><a xlink:href="request__authn__identity_8cpp.html" target="_top" xlink:title=" ">
<polygon fill="white" stroke="black" points="1922,-302.5 1922,-332.5 2073,-332.5 2073,-302.5 1922,-302.5"/>
<text text-anchor="start" x="1930" y="-320.5" font-family="Helvetica,sans-Serif" font-size="10.00">src/apps/js_v8/tmpl</text>
<text text-anchor="middle" x="1997.5" y="-309.5" font-family="Helvetica,sans-Serif" font-size="10.00">/request_authn_identity.cpp</text>
</a>
</g>
</g>
<!-- Node1&#45;&gt;Node34 -->
<g id="edge47" class="edge">
<title>Node1&#45;&gt;Node34</title>
<path fill="none" stroke="midnightblue" d="M1837.26,-441.14C1892.38,-433.17 1958.55,-419.82 1978.5,-400 1996.43,-382.18 1998.77,-350.93 1998.42,-332.74"/>
<polygon fill="midnightblue" stroke="midnightblue" points="1836.52,-437.71 1827.11,-442.57 1837.5,-444.64 1836.52,-437.71"/>
</g>
<!-- Node35 -->
<g id="node35" class="node">
<title>Node35</title>
<g id="a_node35"><a xlink:href="request__authn__identity_8h.html" target="_top" xlink:title=" ">
<polygon fill="white" stroke="black" points="1829.5,-369.5 1829.5,-399.5 1969.5,-399.5 1969.5,-369.5 1829.5,-369.5"/>
<text text-anchor="start" x="1837.5" y="-387.5" font-family="Helvetica,sans-Serif" font-size="10.00">src/apps/js_v8/tmpl</text>
<text text-anchor="middle" x="1899.5" y="-376.5" font-family="Helvetica,sans-Serif" font-size="10.00">/request_authn_identity.h</text>
</a>
</g>
</g>
<!-- Node1&#45;&gt;Node35 -->
<g id="edge48" class="edge">
<title>Node1&#45;&gt;Node35</title>
<path fill="none" stroke="midnightblue" d="M1795.89,-432.27C1818.82,-421.92 1847.1,-409.15 1868.32,-399.58"/>
<polygon fill="midnightblue" stroke="midnightblue" points="1794.42,-429.09 1786.75,-436.4 1797.3,-435.47 1794.42,-429.09"/>
</g>
<!-- Node36 -->
<g id="node36" class="node">
<title>Node36</title>
<g id="a_node36"><a xlink:href="base__endpoint__registry_8cpp.html" target="_top" xlink:title=" ">
<polygon fill="white" stroke="black" points="2025.5,-369.5 2025.5,-399.5 2151.5,-399.5 2151.5,-369.5 2025.5,-369.5"/>
<text text-anchor="start" x="2033.5" y="-387.5" font-family="Helvetica,sans-Serif" font-size="10.00">src/endpoints/base</text>
<text text-anchor="middle" x="2088.5" y="-376.5" font-family="Helvetica,sans-Serif" font-size="10.00">_endpoint_registry.cpp</text>
</a>
</g>
</g>
<!-- Node1&#45;&gt;Node36 -->
<g id="edge51" class="edge">
<title>Node1&#45;&gt;Node36</title>
<path fill="none" stroke="midnightblue" d="M1837.23,-434.55C1895.3,-423.21 1972.13,-408.21 2025.48,-397.8"/>
<polygon fill="midnightblue" stroke="midnightblue" points="1836.49,-431.12 1827.35,-436.48 1837.83,-438 1836.49,-431.12"/>
</g>
<!-- Node37 -->
<g id="node37" class="node">
<title>Node37</title>
<g id="a_node37"><a xlink:href="wrap_8h.html" target="_top" xlink:title=" ">
<polygon fill="white" stroke="black" points="2141.5,-308 2141.5,-327 2219.5,-327 2219.5,-308 2141.5,-308"/>
<text text-anchor="middle" x="2180.5" y="-315" font-family="Helvetica,sans-Serif" font-size="10.00">src/js/wrap.h</text>
</a>
</g>
</g>
<!-- Node1&#45;&gt;Node37 -->
<g id="edge52" class="edge">
<title>Node1&#45;&gt;Node37</title>
<path fill="none" stroke="midnightblue" d="M1837.27,-450.91C1941.6,-449.69 2114.14,-441.25 2160.5,-400 2181.62,-381.21 2182.21,-344.1 2181.26,-327.22"/>
<polygon fill="midnightblue" stroke="midnightblue" points="1837.05,-447.42 1827.08,-451.01 1837.11,-454.41 1837.05,-447.42"/>
</g>
<!-- Node3 -->
<g id="node3" class="node">
<title>Node3</title>
<g id="a_node3"><a xlink:href="app__interface_8h.html" target="_top" xlink:title=" ">
<polygon fill="white" stroke="black" points="717.5,-308 717.5,-327 865.5,-327 865.5,-308 717.5,-308"/>
<text text-anchor="middle" x="791.5" y="-315" font-family="Helvetica,sans-Serif" font-size="10.00">include/ccf/app_interface.h</text>
</a>
</g>
</g>
<!-- Node2&#45;&gt;Node3 -->
<g id="edge2" class="edge">
<title>Node2&#45;&gt;Node3</title>
<path fill="none" stroke="midnightblue" d="M1179.77,-373.85C1090.84,-361.17 936.11,-339.11 851.31,-327.03"/>
<polygon fill="midnightblue" stroke="midnightblue" points="1179.35,-377.32 1189.75,-375.27 1180.34,-370.39 1179.35,-377.32"/>
</g>
<!-- Node20 -->
<g id="node20" class="node">
<title>Node20</title>
<g id="a_node20"><a xlink:href="common__endpoint__registry_8cpp.html" target="_top" xlink:title=" ">
<polygon fill="white" stroke="black" points="939.5,-302.5 939.5,-332.5 1067.5,-332.5 1067.5,-302.5 939.5,-302.5"/>
<text text-anchor="start" x="947.5" y="-320.5" font-family="Helvetica,sans-Serif" font-size="10.00">src/endpoints/common</text>
<text text-anchor="middle" x="1003.5" y="-309.5" font-family="Helvetica,sans-Serif" font-size="10.00">_endpoint_registry.cpp</text>
</a>
</g>
</g>
<!-- Node2&#45;&gt;Node20 -->
<g id="edge23" class="edge">
<title>Node2&#45;&gt;Node20</title>
<path fill="none" stroke="midnightblue" d="M1185,-366.85C1145.22,-356.25 1094.26,-342.68 1056.47,-332.61"/>
<polygon fill="midnightblue" stroke="midnightblue" points="1184.29,-370.28 1194.86,-369.48 1186.09,-363.52 1184.29,-370.28"/>
</g>
<!-- Node21 -->
<g id="node21" class="node">
<title>Node21</title>
<g id="a_node21"><a xlink:href="acme__challenge__frontend_8h.html" target="_top" xlink:title=" ">
<polygon fill="white" stroke="black" points="1261.5,-302.5 1261.5,-332.5 1401.5,-332.5 1401.5,-302.5 1261.5,-302.5"/>
<text text-anchor="start" x="1269.5" y="-320.5" font-family="Helvetica,sans-Serif" font-size="10.00">src/node/acme_challenge</text>
<text text-anchor="middle" x="1331.5" y="-309.5" font-family="Helvetica,sans-Serif" font-size="10.00">_frontend.h</text>
</a>
</g>
</g>
<!-- Node2&#45;&gt;Node21 -->
<g id="edge24" class="edge">
<title>Node2&#45;&gt;Node21</title>
<path fill="none" stroke="midnightblue" d="M1273.78,-363.17C1286.62,-353.23 1301.76,-341.51 1313.31,-332.58"/>
<polygon fill="midnightblue" stroke="midnightblue" points="1271.49,-360.51 1265.73,-369.4 1275.78,-366.04 1271.49,-360.51"/>
</g>
<!-- Node25 -->
<g id="node25" class="node">
<title>Node25</title>
<g id="a_node25"><a xlink:href="member__frontend_8h.html" target="_top" xlink:title=" ">
<polygon fill="white" stroke="black" points="1866.5,-235.5 1866.5,-265.5 1986.5,-265.5 1986.5,-235.5 1866.5,-235.5"/>
<text text-anchor="start" x="1874.5" y="-253.5" font-family="Helvetica,sans-Serif" font-size="10.00">src/node/rpc/member</text>
<text text-anchor="middle" x="1926.5" y="-242.5" font-family="Helvetica,sans-Serif" font-size="10.00">_frontend.h</text>
</a>
</g>
</g>
<!-- Node2&#45;&gt;Node25 -->
<g id="edge31" class="edge">
<title>Node2&#45;&gt;Node25</title>
<path fill="none" stroke="midnightblue" d="M1306.55,-366.55C1337.69,-357.28 1376.4,-345.21 1410.5,-333 1444.84,-320.7 1451.08,-310.74 1486.5,-302 1647.34,-262.3 1693.74,-291.07 1857.5,-266 1860.4,-265.56 1863.37,-265.07 1866.36,-264.55"/>
<polygon fill="midnightblue" stroke="midnightblue" points="1305.32,-363.27 1296.72,-369.46 1307.31,-369.98 1305.32,-363.27"/>
</g>
<!-- Node26 -->
<g id="node26" class="node">
<title>Node26</title>
<g id="a_node26"><a xlink:href="node__frontend_8h.html" target="_top" xlink:title=" ">
<polygon fill="white" stroke="black" points="1085.5,-308 1085.5,-327 1243.5,-327 1243.5,-308 1085.5,-308"/>
<text text-anchor="middle" x="1164.5" y="-315" font-family="Helvetica,sans-Serif" font-size="10.00">src/node/rpc/node_frontend.h</text>
</a>
</g>
</g>
<!-- Node2&#45;&gt;Node26 -->
<g id="edge33" class="edge">
<title>Node2&#45;&gt;Node26</title>
<path fill="none" stroke="midnightblue" d="M1221.33,-363.01C1205.92,-350.94 1187.24,-336.3 1175.6,-327.19"/>
<polygon fill="midnightblue" stroke="midnightblue" points="1219.46,-365.99 1229.49,-369.4 1223.78,-360.47 1219.46,-365.99"/>
</g>
<!-- Node4 -->
<g id="node4" class="node">
<title>Node4</title>
<g id="a_node4"><a xlink:href="logging_8cpp.html" target="_top" xlink:title=" ">
<polygon fill="white" stroke="black" points="730,-235.5 730,-265.5 853,-265.5 853,-235.5 730,-235.5"/>
<text text-anchor="start" x="738" y="-253.5" font-family="Helvetica,sans-Serif" font-size="10.00">samples/apps/logging</text>
<text text-anchor="middle" x="791.5" y="-242.5" font-family="Helvetica,sans-Serif" font-size="10.00">/logging.cpp</text>
</a>
</g>
</g>
<!-- Node3&#45;&gt;Node4 -->
<g id="edge3" class="edge">
<title>Node3&#45;&gt;Node4</title>
<path fill="none" stroke="midnightblue" d="M791.5,-297.41C791.5,-287.22 791.5,-274.9 791.5,-265.59"/>
<polygon fill="midnightblue" stroke="midnightblue" points="788,-297.73 791.5,-307.73 795,-297.73 788,-297.73"/>
</g>
<!-- Node3&#45;&gt;Node5 -->
<g id="edge4" class="edge">
<title>Node3&#45;&gt;Node5</title>
<path fill="none" stroke="midnightblue" d="M707.32,-312.84C583.58,-306.81 345.47,-292.69 144.5,-266 141.4,-265.59 138.23,-265.13 135.04,-264.65"/>
<polygon fill="midnightblue" stroke="midnightblue" points="707.33,-316.35 717.48,-313.33 707.66,-309.35 707.33,-316.35"/>
</g>
<!-- Node6 -->
<g id="node6" class="node">
<title>Node6</title>
<g id="a_node6"><a xlink:href="executor__auth__policy_8h.html" target="_top" xlink:title=" ">
<polygon fill="white" stroke="black" points="563.5,-235.5 563.5,-265.5 711.5,-265.5 711.5,-235.5 563.5,-235.5"/>
<text text-anchor="start" x="571.5" y="-253.5" font-family="Helvetica,sans-Serif" font-size="10.00">src/apps/external_executor</text>
<text text-anchor="middle" x="637.5" y="-242.5" font-family="Helvetica,sans-Serif" font-size="10.00">/executor_auth_policy.h</text>
</a>
</g>
</g>
<!-- Node3&#45;&gt;Node6 -->
<g id="edge5" class="edge">
<title>Node3&#45;&gt;Node6</title>
<path fill="none" stroke="midnightblue" d="M761.68,-303.91C735.6,-292.91 697.78,-276.94 670.74,-265.53"/>
<polygon fill="midnightblue" stroke="midnightblue" points="760.48,-307.2 771.05,-307.87 763.2,-300.76 760.48,-307.2"/>
</g>
<!-- Node7 -->
<g id="node7" class="node">
<title>Node7</title>
<g id="a_node7"><a xlink:href="external__executor_8cpp.html" target="_top" xlink:title=" ">
<polygon fill="white" stroke="black" points="631.5,-168.5 631.5,-198.5 779.5,-198.5 779.5,-168.5 631.5,-168.5"/>
<text text-anchor="start" x="639.5" y="-186.5" font-family="Helvetica,sans-Serif" font-size="10.00">src/apps/external_executor</text>
<text text-anchor="middle" x="705.5" y="-175.5" font-family="Helvetica,sans-Serif" font-size="10.00">/external_executor.cpp</text>
</a>
</g>
</g>
<!-- Node3&#45;&gt;Node7 -->
<g id="edge7" class="edge">
<title>Node3&#45;&gt;Node7</title>
<path fill="none" stroke="midnightblue" d="M821.31,-303.31C836.29,-294.95 853.02,-282.57 861.5,-266 867.78,-253.73 869.6,-246.14 861.5,-235 842.66,-209.1 810.25,-196.21 779.84,-189.9"/>
<polygon fill="midnightblue" stroke="midnightblue" points="819.56,-300.27 812.3,-307.99 822.79,-306.48 819.56,-300.27"/>
</g>
<!-- Node8 -->
<g id="node8" class="node">
<title>Node8</title>
<g id="a_node8"><a xlink:href="js__generic_8cpp.html" target="_top" xlink:title=" ">
<polygon fill="white" stroke="black" points="906.5,-168.5 906.5,-198.5 1016.5,-198.5 1016.5,-168.5 906.5,-168.5"/>
<text text-anchor="start" x="914.5" y="-186.5" font-family="Helvetica,sans-Serif" font-size="10.00">src/apps/js_generic</text>
<text text-anchor="middle" x="961.5" y="-175.5" font-family="Helvetica,sans-Serif" font-size="10.00">/js_generic.cpp</text>
</a>
</g>
</g>
<!-- Node3&#45;&gt;Node8 -->
<g id="edge8" class="edge">
<title>Node3&#45;&gt;Node8</title>
<path fill="none" stroke="midnightblue" d="M818.54,-303.07C836.29,-293.72 859.63,-280.38 878.5,-266 905.97,-245.07 933.77,-215.74 949.21,-198.57"/>
<polygon fill="midnightblue" stroke="midnightblue" points="816.59,-300.14 809.31,-307.84 819.8,-306.36 816.59,-300.14"/>
</g>
<!-- Node9 -->
<g id="node9" class="node">
<title>Node9</title>
<g id="a_node9"><a xlink:href="js__generic__base_8cpp.html" target="_top" xlink:title=" ">
<polygon fill="white" stroke="black" points="1730.5,-235.5 1730.5,-265.5 1848.5,-265.5 1848.5,-235.5 1730.5,-235.5"/>
<text text-anchor="start" x="1738.5" y="-253.5" font-family="Helvetica,sans-Serif" font-size="10.00">src/apps/js_generic</text>
<text text-anchor="middle" x="1789.5" y="-242.5" font-family="Helvetica,sans-Serif" font-size="10.00">/js_generic_base.cpp</text>
</a>
</g>
</g>
<!-- Node3&#45;&gt;Node9 -->
<g id="edge9" class="edge">
<title>Node3&#45;&gt;Node9</title>
<path fill="none" stroke="midnightblue" d="M875.35,-306.95C893.52,-305.11 912.64,-303.34 930.5,-302 1281.44,-275.73 1372.45,-310.85 1721.5,-266 1724.37,-265.63 1727.31,-265.2 1730.26,-264.73"/>
<polygon fill="midnightblue" stroke="midnightblue" points="874.96,-303.48 865.37,-307.98 875.68,-310.44 874.96,-303.48"/>
</g>
<!-- Node10 -->
<g id="node10" class="node">
<title>Node10</title>
<g id="a_node10"><a xlink:href="js__generic__base_8h.html" target="_top" xlink:title=" ">
<polygon fill="white" stroke="black" points="947.5,-235.5 947.5,-265.5 1057.5,-265.5 1057.5,-235.5 947.5,-235.5"/>
<text text-anchor="start" x="955.5" y="-253.5" font-family="Helvetica,sans-Serif" font-size="10.00">src/apps/js_generic</text>
<text text-anchor="middle" x="1002.5" y="-242.5" font-family="Helvetica,sans-Serif" font-size="10.00">/js_generic_base.h</text>
</a>
</g>
</g>
<!-- Node3&#45;&gt;Node10 -->
<g id="edge10" class="edge">
<title>Node3&#45;&gt;Node10</title>
<path fill="none" stroke="midnightblue" d="M829.1,-304.92C864.88,-293.9 918.77,-277.29 956.96,-265.53"/>
<polygon fill="midnightblue" stroke="midnightblue" points="828.05,-301.58 819.52,-307.87 830.11,-308.27 828.05,-301.58"/>
</g>
<!-- Node11 -->
<g id="node11" class="node">
<title>Node11</title>
<g id="a_node11"><a xlink:href="js__v8_8cpp.html" target="_top" xlink:title=" ">
<polygon fill="white" stroke="black" points="186.5,-174 186.5,-193 320.5,-193 320.5,-174 186.5,-174"/>
<text text-anchor="middle" x="253.5" y="-181" font-family="Helvetica,sans-Serif" font-size="10.00">src/apps/js_v8/js_v8.cpp</text>
</a>
</g>
</g>
<!-- Node3&#45;&gt;Node11 -->
<g id="edge12" class="edge">
<title>Node3&#45;&gt;Node11</title>
<path fill="none" stroke="midnightblue" d="M707.1,-315.57C588.45,-312.93 379.57,-302.99 314.5,-266 284.38,-248.88 264.63,-210.2 257.02,-193.01"/>
<polygon fill="midnightblue" stroke="midnightblue" points="707.16,-319.07 717.23,-315.79 707.31,-312.08 707.16,-319.07"/>
</g>
<!-- Node12 -->
<g id="node12" class="node">
<title>Node12</title>
<g id="a_node12"><a xlink:href="js__v8__base_8cpp.html" target="_top" xlink:title=" ">
<polygon fill="white" stroke="black" points="1598.5,-235.5 1598.5,-265.5 1712.5,-265.5 1712.5,-235.5 1598.5,-235.5"/>
<text text-anchor="start" x="1606.5" y="-253.5" font-family="Helvetica,sans-Serif" font-size="10.00">src/apps/js_v8/js_v8</text>
<text text-anchor="middle" x="1655.5" y="-242.5" font-family="Helvetica,sans-Serif" font-size="10.00">_base.cpp</text>
</a>
</g>
</g>
<!-- Node3&#45;&gt;Node12 -->
<g id="edge13" class="edge">
<title>Node3&#45;&gt;Node12</title>
<path fill="none" stroke="midnightblue" d="M875.93,-307.06C893.92,-305.23 912.83,-303.43 930.5,-302 1206.06,-279.65 1276.37,-293.11 1551.5,-266 1566.74,-264.5 1583.18,-262.42 1598.38,-260.31"/>
<polygon fill="midnightblue" stroke="midnightblue" points="875.33,-303.61 865.74,-308.12 876.05,-310.57 875.33,-303.61"/>
</g>
<!-- Node13 -->
<g id="node13" class="node">
<title>Node13</title>
<g id="a_node13"><a xlink:href="js__v8__base_8h.html" target="_top" xlink:title=" ">
<polygon fill="white" stroke="black" points="153.5,-235.5 153.5,-265.5 267.5,-265.5 267.5,-235.5 153.5,-235.5"/>
<text text-anchor="start" x="161.5" y="-253.5" font-family="Helvetica,sans-Serif" font-size="10.00">src/apps/js_v8/js_v8</text>
<text text-anchor="middle" x="210.5" y="-242.5" font-family="Helvetica,sans-Serif" font-size="10.00">_base.h</text>
</a>
</g>
</g>
<!-- Node3&#45;&gt;Node13 -->
<g id="edge14" class="edge">
<title>Node3&#45;&gt;Node13</title>
<path fill="none" stroke="midnightblue" d="M707.12,-310.81C605.71,-303.36 430.56,-288.54 281.5,-266 277.02,-265.32 272.4,-264.55 267.76,-263.72"/>
<polygon fill="midnightblue" stroke="midnightblue" points="707.07,-314.32 717.3,-311.55 707.58,-307.34 707.07,-314.32"/>
</g>
<!-- Node14 -->
<g id="node14" class="node">
<title>Node14</title>
<g id="a_node14"><a xlink:href="tpcc_8cpp.html" target="_top" xlink:title=" ">
<polygon fill="white" stroke="black" points="324,-241 324,-260 469,-260 469,-241 324,-241"/>
<text text-anchor="middle" x="396.5" y="-248" font-family="Helvetica,sans-Serif" font-size="10.00">src/apps/tpcc/app/tpcc.cpp</text>
</a>
</g>
</g>
<!-- Node3&#45;&gt;Node14 -->
<g id="edge16" class="edge">
<title>Node3&#45;&gt;Node14</title>
<path fill="none" stroke="midnightblue" d="M729.13,-306.32C666.9,-296.16 568.58,-280.06 483.5,-266 471.87,-264.08 459.36,-262 447.56,-260.03"/>
<polygon fill="midnightblue" stroke="midnightblue" points="728.74,-309.81 739.18,-307.96 729.87,-302.9 728.74,-309.81"/>
</g>
<!-- Node15 -->
<g id="node15" class="node">
<title>Node15</title>
<g id="a_node15"><a xlink:href="src_2enclave_2enclave_8h.html" target="_top" xlink:title=" ">
<polygon fill="white" stroke="black" points="1270.5,-56.5 1270.5,-75.5 1392.5,-75.5 1392.5,-56.5 1270.5,-56.5"/>
<text text-anchor="middle" x="1331.5" y="-63.5" font-family="Helvetica,sans-Serif" font-size="10.00">src/enclave/enclave.h</text>
</a>
</g>
</g>
<!-- Node3&#45;&gt;Node15 -->
<g id="edge17" class="edge">
<title>Node3&#45;&gt;Node15</title>
<path fill="none" stroke="midnightblue" d="M706.98,-310.93C641.93,-304.68 559.66,-291.81 538.5,-266 519.48,-242.81 550.87,-178.16 560.5,-168 607.74,-118.16 637.5,-127.07 704.5,-112 811.11,-88.02 1134.58,-74.02 1270.41,-69.06"/>
<polygon fill="midnightblue" stroke="midnightblue" points="706.98,-314.45 717.26,-311.88 707.62,-307.48 706.98,-314.45"/>
</g>
<!-- Node17 -->
<g id="node17" class="node">
<title>Node17</title>
<g id="a_node17"><a xlink:href="no__plugins_8cpp.html" target="_top" xlink:title=" ">
<polygon fill="white" stroke="black" points="1424.5,-241 1424.5,-260 1542.5,-260 1542.5,-241 1424.5,-241"/>
<text text-anchor="middle" x="1483.5" y="-248" font-family="Helvetica,sans-Serif" font-size="10.00">src/js/no_plugins.cpp</text>
</a>
</g>
</g>
<!-- Node3&#45;&gt;Node17 -->
<g id="edge19" class="edge">
<title>Node3&#45;&gt;Node17</title>
<path fill="none" stroke="midnightblue" d="M875.94,-307.29C893.94,-305.44 912.84,-303.58 930.5,-302 1145.35,-282.81 1200.93,-296.25 1414.5,-266 1425.29,-264.47 1436.91,-262.25 1447.49,-260.01"/>
<polygon fill="midnightblue" stroke="midnightblue" points="875.35,-303.83 865.76,-308.34 876.07,-310.79 875.35,-303.83"/>
</g>
<!-- Node19 -->
<g id="node19" class="node">
<title>Node19</title>
<g id="a_node19"><a xlink:href="user__frontend_8h.html" target="_top" xlink:title=" ">
<polygon fill="white" stroke="black" points="714,-112.5 714,-131.5 869,-131.5 869,-112.5 714,-112.5"/>
<text text-anchor="middle" x="791.5" y="-119.5" font-family="Helvetica,sans-Serif" font-size="10.00">src/node/rpc/user_frontend.h</text>
</a>
</g>
</g>
<!-- Node3&#45;&gt;Node19 -->
<g id="edge21" class="edge">
<title>Node3&#45;&gt;Node19</title>
<path fill="none" stroke="midnightblue" d="M707.13,-309.6C647.04,-302.74 573.67,-289.69 554.5,-266 496.07,-193.81 660.91,-149.12 745.23,-131.55"/>
<polygon fill="midnightblue" stroke="midnightblue" points="707.09,-313.12 717.41,-310.73 707.85,-306.16 707.09,-313.12"/>
</g>
<!-- Node6&#45;&gt;Node7 -->
<g id="edge6" class="edge">
<title>Node6&#45;&gt;Node7</title>
<path fill="none" stroke="midnightblue" d="M659.67,-228.31C669.87,-218.56 681.69,-207.26 690.77,-198.58"/>
<polygon fill="midnightblue" stroke="midnightblue" points="657.07,-225.96 652.25,-235.4 661.9,-231.02 657.07,-225.96"/>
</g>
<!-- Node10&#45;&gt;Node8 -->
<g id="edge11" class="edge">
<title>Node10&#45;&gt;Node8</title>
<path fill="none" stroke="midnightblue" d="M988.22,-226.87C982.29,-217.46 975.59,-206.83 970.38,-198.58"/>
<polygon fill="midnightblue" stroke="midnightblue" points="985.31,-228.81 993.6,-235.4 991.23,-225.07 985.31,-228.81"/>
</g>
<!-- Node13&#45;&gt;Node11 -->
<g id="edge15" class="edge">
<title>Node13&#45;&gt;Node11</title>
<path fill="none" stroke="midnightblue" d="M225.4,-226.97C233.1,-215.33 242.06,-201.8 247.75,-193.19"/>
<polygon fill="midnightblue" stroke="midnightblue" points="222.43,-225.12 219.83,-235.4 228.27,-228.99 222.43,-225.12"/>
</g>
<!-- Node16 -->
<g id="node16" class="node">
<title>Node16</title>
<g id="a_node16"><a xlink:href="enclave_2main_8cpp.html" target="_top" xlink:title=" ">
<polygon fill="white" stroke="black" points="1271.5,-0.5 1271.5,-19.5 1391.5,-19.5 1391.5,-0.5 1271.5,-0.5"/>
<text text-anchor="middle" x="1331.5" y="-7.5" font-family="Helvetica,sans-Serif" font-size="10.00">src/enclave/main.cpp</text>
</a>
</g>
</g>
<!-- Node15&#45;&gt;Node16 -->
<g id="edge18" class="edge">
<title>Node15&#45;&gt;Node16</title>
<path fill="none" stroke="midnightblue" d="M1331.5,-45.8C1331.5,-36.91 1331.5,-26.78 1331.5,-19.75"/>
<polygon fill="midnightblue" stroke="midnightblue" points="1328,-46.08 1331.5,-56.08 1335,-46.08 1328,-46.08"/>
</g>
<!-- Node18 -->
<g id="node18" class="node">
<title>Node18</title>
<g id="a_node18"><a xlink:href="wrap_8cpp.html" target="_top" xlink:title=" ">
<polygon fill="white" stroke="black" points="2179,-174 2179,-193 2268,-193 2268,-174 2179,-174"/>
<text text-anchor="middle" x="2223.5" y="-181" font-family="Helvetica,sans-Serif" font-size="10.00">src/js/wrap.cpp</text>
</a>
</g>
</g>
<!-- Node17&#45;&gt;Node18 -->
<g id="edge20" class="edge">
<title>Node17&#45;&gt;Node18</title>
<path fill="none" stroke="midnightblue" d="M1551.47,-239.62C1564.1,-237.95 1577.19,-236.33 1589.5,-235 1810.15,-211.14 2075.15,-193.62 2178.84,-187.19"/>
<polygon fill="midnightblue" stroke="midnightblue" points="1550.91,-236.17 1541.47,-240.97 1551.85,-243.1 1550.91,-236.17"/>
</g>
<!-- Node19&#45;&gt;Node15 -->
<g id="edge22" class="edge">
<title>Node19&#45;&gt;Node15</title>
<path fill="none" stroke="midnightblue" d="M879.22,-112.23C989.1,-101.24 1174.54,-82.7 1270.26,-73.12"/>
<polygon fill="midnightblue" stroke="midnightblue" points="878.76,-108.76 869.16,-113.23 879.45,-115.72 878.76,-108.76"/>
</g>
<!-- Node21&#45;&gt;Node15 -->
<g id="edge25" class="edge">
<title>Node21&#45;&gt;Node15</title>
<path fill="none" stroke="midnightblue" d="M1411.94,-308.49C1467.36,-301.12 1534.03,-287.93 1551.5,-266 1619.04,-181.2 1426.76,-101.31 1356.28,-75.59"/>
<polygon fill="midnightblue" stroke="midnightblue" points="1411.21,-305.06 1401.74,-309.8 1412.1,-312 1411.21,-305.06"/>
</g>
<!-- Node22 -->
<g id="node22" class="node">
<title>Node22</title>
<g id="a_node22"><a xlink:href="ccf__acme__client_8h.html" target="_top" xlink:title=" ">
<polygon fill="white" stroke="black" points="1257,-241 1257,-260 1406,-260 1406,-241 1257,-241"/>
<text text-anchor="middle" x="1331.5" y="-248" font-family="Helvetica,sans-Serif" font-size="10.00">src/node/ccf_acme_client.h</text>
</a>
</g>
</g>
<!-- Node21&#45;&gt;Node22 -->
<g id="edge26" class="edge">
<title>Node21&#45;&gt;Node22</title>
<path fill="none" stroke="midnightblue" d="M1331.5,-292.25C1331.5,-281.02 1331.5,-268.38 1331.5,-260.19"/>
<polygon fill="midnightblue" stroke="midnightblue" points="1328,-292.4 1331.5,-302.4 1335,-292.4 1328,-292.4"/>
</g>
<!-- Node23 -->
<g id="node23" class="node">
<title>Node23</title>
<g id="a_node23"><a xlink:href="node__state_8h.html" target="_top" xlink:title=" ">
<polygon fill="white" stroke="black" points="1269.5,-174 1269.5,-193 1393.5,-193 1393.5,-174 1269.5,-174"/>
<text text-anchor="middle" x="1331.5" y="-181" font-family="Helvetica,sans-Serif" font-size="10.00">src/node/node_state.h</text>
</a>
</g>
</g>
<!-- Node22&#45;&gt;Node23 -->
<g id="edge27" class="edge">
<title>Node22&#45;&gt;Node23</title>
<path fill="none" stroke="midnightblue" d="M1331.5,-230.54C1331.5,-218.17 1331.5,-202.62 1331.5,-193.13"/>
<polygon fill="midnightblue" stroke="midnightblue" points="1328,-230.73 1331.5,-240.73 1335,-230.73 1328,-230.73"/>
</g>
<!-- Node23&#45;&gt;Node15 -->
<g id="edge28" class="edge">
<title>Node23&#45;&gt;Node15</title>
<path fill="none" stroke="midnightblue" d="M1346.31,-165.83C1356.94,-151.8 1368.42,-131.03 1362.5,-112 1358.1,-97.87 1347.55,-84.25 1339.98,-75.77"/>
<polygon fill="midnightblue" stroke="midnightblue" points="1343.56,-163.66 1339.96,-173.62 1348.99,-168.08 1343.56,-163.66"/>
</g>
<!-- Node24 -->
<g id="node24" class="node">
<title>Node24</title>
<g id="a_node24"><a xlink:href="gov__effects_8h.html" target="_top" xlink:title=" ">
<polygon fill="white" stroke="black" points="1209.5,-112.5 1209.5,-131.5 1353.5,-131.5 1353.5,-112.5 1209.5,-112.5"/>
<text text-anchor="middle" x="1281.5" y="-119.5" font-family="Helvetica,sans-Serif" font-size="10.00">src/node/rpc/gov_effects.h</text>
</a>
</g>
</g>
<!-- Node23&#45;&gt;Node24 -->
<g id="edge29" class="edge">
<title>Node23&#45;&gt;Node24</title>
<path fill="none" stroke="midnightblue" d="M1317.78,-166.17C1308.35,-154.95 1296.22,-140.52 1288.65,-131.51"/>
<polygon fill="midnightblue" stroke="midnightblue" points="1315.22,-168.57 1324.34,-173.98 1320.58,-164.07 1315.22,-168.57"/>
</g>
<!-- Node24&#45;&gt;Node15 -->
<g id="edge30" class="edge">
<title>Node24&#45;&gt;Node15</title>
<path fill="none" stroke="midnightblue" d="M1296.58,-104.72C1305.39,-95.2 1316.17,-83.56 1323.4,-75.75"/>
<polygon fill="midnightblue" stroke="midnightblue" points="1293.98,-102.37 1289.76,-112.08 1299.12,-107.12 1293.98,-102.37"/>
</g>
<!-- Node25&#45;&gt;Node15 -->
<g id="edge32" class="edge">
<title>Node25&#45;&gt;Node15</title>
<path fill="none" stroke="midnightblue" d="M1888.44,-231.17C1826.23,-201.9 1698.31,-144.62 1584.5,-112 1520.17,-93.56 1444.37,-81.28 1392.62,-74.27"/>
<polygon fill="midnightblue" stroke="midnightblue" points="1886.95,-234.33 1897.49,-235.44 1889.94,-228.01 1886.95,-234.33"/>
</g>
<!-- Node26&#45;&gt;Node15 -->
<g id="edge34" class="edge">
<title>Node26&#45;&gt;Node15</title>
<path fill="none" stroke="midnightblue" d="M1139.13,-302.51C1126.18,-293.86 1111.69,-281.45 1104.5,-266 1098.69,-253.51 1100.02,-248.03 1104.5,-235 1127.06,-169.43 1144.04,-152.26 1200.5,-112 1226.25,-93.64 1260.11,-82.27 1286.95,-75.55"/>
<polygon fill="midnightblue" stroke="midnightblue" points="1137.39,-305.56 1147.73,-307.89 1141.11,-299.62 1137.39,-305.56"/>
</g>
<!-- Node27 -->
<g id="node27" class="node">
<title>Node27</title>
<g id="a_node27"><a xlink:href="jwt__key__auto__refresh_8h.html" target="_top" xlink:title=" ">
<polygon fill="white" stroke="black" points="1114,-235.5 1114,-265.5 1239,-265.5 1239,-235.5 1114,-235.5"/>
<text text-anchor="start" x="1122" y="-253.5" font-family="Helvetica,sans-Serif" font-size="10.00">src/node/jwt_key_auto</text>
<text text-anchor="middle" x="1176.5" y="-242.5" font-family="Helvetica,sans-Serif" font-size="10.00">_refresh.h</text>
</a>
</g>
</g>
<!-- Node26&#45;&gt;Node27 -->
<g id="edge35" class="edge">
<title>Node26&#45;&gt;Node27</title>
<path fill="none" stroke="midnightblue" d="M1167.96,-297.74C1169.86,-287.49 1172.16,-275 1173.9,-265.59"/>
<polygon fill="midnightblue" stroke="midnightblue" points="1164.49,-297.26 1166.12,-307.73 1171.38,-298.54 1164.49,-297.26"/>
</g>
<!-- Node27&#45;&gt;Node23 -->
<g id="edge36" class="edge">
<title>Node27&#45;&gt;Node23</title>
<path fill="none" stroke="midnightblue" d="M1219.52,-231.46C1249.47,-218.9 1288.04,-202.72 1311.21,-193.01"/>
<polygon fill="midnightblue" stroke="midnightblue" points="1218,-228.3 1210.13,-235.4 1220.71,-234.76 1218,-228.3"/>
</g>
<!-- Node28&#45;&gt;Node12 -->
<g id="edge39" class="edge">
<title>Node28&#45;&gt;Node12</title>
<path fill="none" stroke="midnightblue" d="M1485.94,-359.74C1479.22,-342.14 1474.24,-318.46 1486.5,-302 1493.47,-292.64 1552.11,-276.51 1598.38,-265"/>
<polygon fill="midnightblue" stroke="midnightblue" points="1482.87,-361.45 1489.99,-369.3 1489.31,-358.72 1482.87,-361.45"/>
</g>
<!-- Node29 -->
<g id="node29" class="node">
<title>Node29</title>
<g id="a_node29"><a xlink:href="ccf__global_8cpp.html" target="_top" xlink:title=" ">
<polygon fill="white" stroke="black" points="1496,-302.5 1496,-332.5 1607,-332.5 1607,-302.5 1496,-302.5"/>
<text text-anchor="start" x="1504" y="-320.5" font-family="Helvetica,sans-Serif" font-size="10.00">src/apps/js_v8/tmpl</text>
<text text-anchor="middle" x="1551.5" y="-309.5" font-family="Helvetica,sans-Serif" font-size="10.00">/ccf_global.cpp</text>
</a>
</g>
</g>
<!-- Node28&#45;&gt;Node29 -->
<g id="edge40" class="edge">
<title>Node28&#45;&gt;Node29</title>
<path fill="none" stroke="midnightblue" d="M1515.82,-361.45C1523.75,-351.9 1532.8,-341 1539.81,-332.58"/>
<polygon fill="midnightblue" stroke="midnightblue" points="1512.92,-359.47 1509.22,-369.4 1518.3,-363.94 1512.92,-359.47"/>
</g>
<!-- Node30&#45;&gt;Node29 -->
<g id="edge42" class="edge">
<title>Node30&#45;&gt;Node29</title>
<path fill="none" stroke="midnightblue" d="M1602.38,-362.6C1591.06,-352.78 1577.86,-341.34 1567.74,-332.58"/>
<polygon fill="midnightblue" stroke="midnightblue" points="1600.38,-365.49 1610.23,-369.4 1604.96,-360.2 1600.38,-365.49"/>
</g>
<!-- Node31 -->
<g id="node31" class="node">
<title>Node31</title>
<g id="a_node31"><a xlink:href="apps_2js__v8_2tmpl_2consensus_8cpp.html" target="_top" xlink:title=" ">
<polygon fill="white" stroke="black" points="1625,-302.5 1625,-332.5 1736,-332.5 1736,-302.5 1625,-302.5"/>
<text text-anchor="start" x="1633" y="-320.5" font-family="Helvetica,sans-Serif" font-size="10.00">src/apps/js_v8/tmpl</text>
<text text-anchor="middle" x="1680.5" y="-309.5" font-family="Helvetica,sans-Serif" font-size="10.00">/consensus.cpp</text>
</a>
</g>
</g>
<!-- Node30&#45;&gt;Node31 -->
<g id="edge43" class="edge">
<title>Node30&#45;&gt;Node31</title>
<path fill="none" stroke="midnightblue" d="M1644.82,-361.45C1652.75,-351.9 1661.8,-341 1668.81,-332.58"/>
<polygon fill="midnightblue" stroke="midnightblue" points="1641.92,-359.47 1638.22,-369.4 1647.3,-363.94 1641.92,-359.47"/>
</g>
<!-- Node32&#45;&gt;Node12 -->
<g id="edge45" class="edge">
<title>Node32&#45;&gt;Node12</title>
<path fill="none" stroke="midnightblue" d="M1757.66,-358.77C1757.94,-341.47 1755.72,-318.59 1744.5,-302 1733.26,-285.37 1714.6,-273.58 1697.26,-265.6"/>
<polygon fill="midnightblue" stroke="midnightblue" points="1754.15,-359.05 1757.19,-369.2 1761.14,-359.37 1754.15,-359.05"/>
</g>
<!-- Node33 -->
<g id="node33" class="node">
<title>Node33</title>
<g id="a_node33"><a xlink:href="request_8cpp.html" target="_top" xlink:title=" ">
<polygon fill="white" stroke="black" points="1793,-302.5 1793,-332.5 1904,-332.5 1904,-302.5 1793,-302.5"/>
<text text-anchor="start" x="1801" y="-320.5" font-family="Helvetica,sans-Serif" font-size="10.00">src/apps/js_v8/tmpl</text>
<text text-anchor="middle" x="1848.5" y="-309.5" font-family="Helvetica,sans-Serif" font-size="10.00">/request.cpp</text>
</a>
</g>
</g>
<!-- Node32&#45;&gt;Node33 -->
<g id="edge46" class="edge">
<title>Node32&#45;&gt;Node33</title>
<path fill="none" stroke="midnightblue" d="M1784.19,-363.45C1798.49,-353.45 1815.45,-341.6 1828.36,-332.58"/>
<polygon fill="midnightblue" stroke="midnightblue" points="1781.87,-360.8 1775.68,-369.4 1785.88,-366.54 1781.87,-360.8"/>
</g>
<!-- Node35&#45;&gt;Node33 -->
<g id="edge49" class="edge">
<title>Node35&#45;&gt;Node33</title>
<path fill="none" stroke="midnightblue" d="M1882.2,-361.45C1874.71,-351.9 1866.16,-341 1859.54,-332.58"/>
<polygon fill="midnightblue" stroke="midnightblue" points="1879.51,-363.69 1888.43,-369.4 1885.01,-359.37 1879.51,-363.69"/>
</g>
<!-- Node35&#45;&gt;Node34 -->
<g id="edge50" class="edge">
<title>Node35&#45;&gt;Node34</title>
<path fill="none" stroke="midnightblue" d="M1929.3,-363.73C1944.47,-353.68 1962.54,-341.68 1976.28,-332.58"/>
<polygon fill="midnightblue" stroke="midnightblue" points="1927.16,-360.95 1920.76,-369.4 1931.03,-366.79 1927.16,-360.95"/>
</g>
<!-- Node37&#45;&gt;Node9 -->
<g id="edge53" class="edge">
<title>Node37&#45;&gt;Node9</title>
<path fill="none" stroke="midnightblue" d="M2131.29,-309.15C2054.36,-297.59 1909.05,-275.52 1857.5,-266 1854.65,-265.47 1851.74,-264.92 1848.8,-264.35"/>
<polygon fill="midnightblue" stroke="midnightblue" points="2130.82,-312.61 2141.23,-310.64 2131.86,-305.69 2130.82,-312.61"/>
</g>
<!-- Node37&#45;&gt;Node15 -->
<g id="edge54" class="edge">
<title>Node37&#45;&gt;Node15</title>
<path fill="none" stroke="midnightblue" d="M2229.89,-315.39C2353.45,-312.1 2668.28,-300.4 2699.5,-266 2708.76,-255.8 2708.45,-245.48 2699.5,-235 2613.27,-134 1647.84,-81.83 1392.92,-69.76"/>
<polygon fill="midnightblue" stroke="midnightblue" points="2229.49,-311.9 2219.59,-315.66 2229.67,-318.9 2229.49,-311.9"/>
</g>
<!-- Node37&#45;&gt;Node18 -->
<g id="edge64" class="edge">
<title>Node37&#45;&gt;Node18</title>
<path fill="none" stroke="midnightblue" d="M2183.7,-297.64C2186.83,-280.91 2192.18,-255.95 2199.5,-235 2204.82,-219.79 2213.33,-203.07 2218.66,-193.2"/>
<polygon fill="midnightblue" stroke="midnightblue" points="2180.21,-297.3 2181.9,-307.76 2187.1,-298.53 2180.21,-297.3"/>
</g>
<!-- Node37&#45;&gt;Node23 -->
<g id="edge65" class="edge">
<title>Node37&#45;&gt;Node23</title>
<path fill="none" stroke="midnightblue" d="M2134.8,-305.31C2104.86,-296.91 2065.49,-283.79 2033.5,-266 2014.45,-255.41 2015.74,-243.09 1995.5,-235 1887.2,-191.73 1537.2,-185.3 1393.73,-184.51"/>
<polygon fill="midnightblue" stroke="midnightblue" points="2134,-308.72 2144.57,-307.98 2135.84,-301.97 2134,-308.72"/>
</g>
<!-- Node37&#45;&gt;Node25 -->
<g id="edge66" class="edge">
<title>Node37&#45;&gt;Node25</title>
<path fill="none" stroke="midnightblue" d="M2137.16,-305.41C2094.15,-294.4 2028.1,-277.5 1981.44,-265.56"/>
<polygon fill="midnightblue" stroke="midnightblue" points="2136.48,-308.85 2147.03,-307.94 2138.21,-302.07 2136.48,-308.85"/>
</g>
<!-- Node38 -->
<g id="node38" class="node">
<title>Node38</title>
<g id="a_node38"><a xlink:href="js_2consensus_8cpp.html" target="_top" xlink:title=" ">
<polygon fill="white" stroke="black" points="2208.5,-241 2208.5,-260 2324.5,-260 2324.5,-241 2208.5,-241"/>
<text text-anchor="middle" x="2266.5" y="-248" font-family="Helvetica,sans-Serif" font-size="10.00">src/js/consensus.cpp</text>
</a>
</g>
</g>
<!-- Node37&#45;&gt;Node38 -->
<g id="edge55" class="edge">
<title>Node37&#45;&gt;Node38</title>
<path fill="none" stroke="midnightblue" d="M2200.26,-301.57C2217.23,-288.74 2241.12,-270.69 2255.09,-260.13"/>
<polygon fill="midnightblue" stroke="midnightblue" points="2197.97,-298.91 2192.1,-307.73 2202.19,-304.5 2197.97,-298.91"/>
</g>
<!-- Node39 -->
<g id="node39" class="node">
<title>Node39</title>
<g id="a_node39"><a xlink:href="conv_8cpp.html" target="_top" xlink:title=" ">
<polygon fill="white" stroke="black" points="2488.5,-241 2488.5,-260 2576.5,-260 2576.5,-241 2488.5,-241"/>
<text text-anchor="middle" x="2532.5" y="-248" font-family="Helvetica,sans-Serif" font-size="10.00">src/js/conv.cpp</text>
</a>
</g>
</g>
<!-- Node37&#45;&gt;Node39 -->
<g id="edge57" class="edge">
<title>Node37&#45;&gt;Node39</title>
<path fill="none" stroke="midnightblue" d="M2230.17,-309.66C2289.74,-301.1 2392.45,-285.21 2479.5,-266 2487.32,-264.27 2495.72,-262.12 2503.47,-260"/>
<polygon fill="midnightblue" stroke="midnightblue" points="2229.33,-306.24 2219.92,-311.12 2230.32,-313.17 2229.33,-306.24"/>
</g>
<!-- Node40 -->
<g id="node40" class="node">
<title>Node40</title>
<g id="a_node40"><a xlink:href="js_2crypto_8cpp.html" target="_top" xlink:title=" ">
<polygon fill="white" stroke="black" points="2594.5,-241 2594.5,-260 2690.5,-260 2690.5,-241 2594.5,-241"/>
<text text-anchor="middle" x="2642.5" y="-248" font-family="Helvetica,sans-Serif" font-size="10.00">src/js/crypto.cpp</text>
</a>
</g>
</g>
<!-- Node37&#45;&gt;Node40 -->
<g id="edge59" class="edge">
<title>Node37&#45;&gt;Node40</title>
<path fill="none" stroke="midnightblue" d="M2229.86,-312.35C2306.44,-305.47 2458.32,-290.01 2585.5,-266 2594.13,-264.37 2603.39,-262.2 2611.89,-260.04"/>
<polygon fill="midnightblue" stroke="midnightblue" points="2229.22,-308.9 2219.56,-313.27 2229.84,-315.87 2229.22,-308.9"/>
</g>
<!-- Node41 -->
<g id="node41" class="node">
<title>Node41</title>
<g id="a_node41"><a xlink:href="js_2historical_8cpp.html" target="_top" xlink:title=" ">
<polygon fill="white" stroke="black" points="2042.5,-241 2042.5,-260 2152.5,-260 2152.5,-241 2042.5,-241"/>
<text text-anchor="middle" x="2097.5" y="-248" font-family="Helvetica,sans-Serif" font-size="10.00">src/js/historical.cpp</text>
</a>
</g>
</g>
<!-- Node37&#45;&gt;Node41 -->
<g id="edge61" class="edge">
<title>Node37&#45;&gt;Node41</title>
<path fill="none" stroke="midnightblue" d="M2161.43,-301.57C2145.05,-288.74 2122,-270.69 2108.52,-260.13"/>
<polygon fill="midnightblue" stroke="midnightblue" points="2159.28,-304.32 2169.31,-307.73 2163.59,-298.81 2159.28,-304.32"/>
</g>
<!-- Node42 -->
<g id="node42" class="node">
<title>Node42</title>
<g id="a_node42"><a xlink:href="openenclave_8cpp.html" target="_top" xlink:title=" ">
<polygon fill="white" stroke="black" points="2342.5,-241 2342.5,-260 2470.5,-260 2470.5,-241 2342.5,-241"/>
<text text-anchor="middle" x="2406.5" y="-248" font-family="Helvetica,sans-Serif" font-size="10.00">src/js/openenclave.cpp</text>
</a>
</g>
</g>
<!-- Node37&#45;&gt;Node42 -->
<g id="edge63" class="edge">
<title>Node37&#45;&gt;Node42</title>
<path fill="none" stroke="midnightblue" d="M2220.17,-305.09C2264.88,-292.23 2336.55,-271.62 2376.72,-260.06"/>
<polygon fill="midnightblue" stroke="midnightblue" points="2219.15,-301.74 2210.51,-307.87 2221.09,-308.47 2219.15,-301.74"/>
</g>
<!-- Node38&#45;&gt;Node18 -->
<g id="edge56" class="edge">
<title>Node38&#45;&gt;Node18</title>
<path fill="none" stroke="midnightblue" d="M2254.95,-232.03C2246.62,-219.45 2235.74,-203.01 2229.21,-193.13"/>
<polygon fill="midnightblue" stroke="midnightblue" points="2252.26,-234.32 2260.7,-240.73 2258.1,-230.46 2252.26,-234.32"/>
</g>
<!-- Node39&#45;&gt;Node18 -->
<g id="edge58" class="edge">
<title>Node39&#45;&gt;Node18</title>
<path fill="none" stroke="midnightblue" d="M2493.05,-238.37C2488.49,-237.18 2483.9,-236.03 2479.5,-235 2405.86,-217.69 2319.35,-201.47 2268.11,-192.29"/>
<polygon fill="midnightblue" stroke="midnightblue" points="2492.32,-241.8 2502.88,-240.99 2494.12,-235.03 2492.32,-241.8"/>
</g>
<!-- Node40&#45;&gt;Node18 -->
<g id="edge60" class="edge">
<title>Node40&#45;&gt;Node18</title>
<path fill="none" stroke="midnightblue" d="M2601.46,-238.49C2596.11,-237.22 2590.69,-236.02 2585.5,-235 2472.02,-212.72 2336.65,-196.57 2268.07,-189.11"/>
<polygon fill="midnightblue" stroke="midnightblue" points="2601.03,-241.98 2611.58,-240.97 2602.7,-235.19 2601.03,-241.98"/>
</g>
<!-- Node41&#45;&gt;Node18 -->
<g id="edge62" class="edge">
<title>Node41&#45;&gt;Node18</title>
<path fill="none" stroke="midnightblue" d="M2123.14,-236.27C2148.09,-223.4 2185.3,-204.21 2206.7,-193.17"/>
<polygon fill="midnightblue" stroke="midnightblue" points="2121.51,-233.17 2114.23,-240.87 2124.72,-239.39 2121.51,-233.17"/>
</g>
</g>
</svg>
