<?xml version="1.0" encoding="UTF-8" standalone="no"?>
<!DOCTYPE svg PUBLIC "-//W3C//DTD SVG 1.1//EN"
 "http://www.w3.org/Graphics/SVG/1.1/DTD/svg11.dtd">
<!-- Generated by graphviz version 2.43.0 (0)
 -->
<!-- Title: src/enclave/client_endpoint.h Pages: 1 -->
<!--zoomable 319 -->
<svg id="main" version="1.1" xmlns="http://www.w3.org/2000/svg" xmlns:xlink="http://www.w3.org/1999/xlink" xml:space="preserve" onload="init(evt)">
<style type="text/css"><![CDATA[
.edge:hover path { stroke: red; }
.edge:hover polygon { stroke: red; fill: red; }
]]></style>
<script type="text/javascript"><![CDATA[
var edges = document.getElementsByTagName('g');
if (edges && edges.length) {
  for (var i=0;i<edges.length;i++) {
    if (edges[i].id.substr(0,4)=='edge') {
      edges[i].setAttribute('class','edge');
    }
  }
}
]]></script>
        <defs>
                <circle id="rim" cx="0" cy="0" r="7"/>
                <circle id="rim2" cx="0" cy="0" r="3.5"/>
                <g id="zoomPlus">
                        <use xlink:href="#rim" fill="#404040">
                                <set attributeName="fill" to="#808080" begin="zoomplus.mouseover" end="zoomplus.mouseout"/>
                        </use>
                        <path d="M-4,0h8M0,-4v8" fill="none" stroke="white" stroke-width="1.5" pointer-events="none"/>
                </g>
                <g id="zoomMin">
                        <use xlink:href="#rim" fill="#404040">
                                <set attributeName="fill" to="#808080" begin="zoomminus.mouseover" end="zoomminus.mouseout"/>
                        </use>
                        <path d="M-4,0h8" fill="none" stroke="white" stroke-width="1.5" pointer-events="none"/>
                </g>
                <g id="dirArrow">
                        <path fill="none" stroke="white" stroke-width="1.5" d="M0,-3.0v7 M-2.5,-0.5L0,-3.0L2.5,-0.5"/>
                </g>
               <g id="resetDef">
                       <use xlink:href="#rim2" fill="#404040">
                               <set attributeName="fill" to="#808080" begin="reset.mouseover" end="reset.mouseout"/>
                       </use>
               </g>
        </defs>

<script type="text/javascript">
var viewWidth = 1575;
var viewHeight = 319;
var sectionId = 'dynsection-0';
</script>
<script xlink:href="svgpan.js"/>
<svg id="graph" class="graph">
<g id="viewport">
<title>src/enclave/client_endpoint.h</title>
<polygon fill="white" stroke="transparent" points="-4,4 -4,-315 1571.05,-315 1571.05,4 -4,4"/>
<!-- Node1 -->
<g id="node1" class="node">
<title>Node1</title>
<g id="a_node1"><a xlink:title=" ">
<polygon fill="#bfbfbf" stroke="black" points="578.55,-280.5 578.55,-310.5 680.55,-310.5 680.55,-280.5 578.55,-280.5"/>
<text text-anchor="start" x="586.55" y="-298.5" font-family="Helvetica,sans-Serif" font-size="10.00">src/enclave/client</text>
<text text-anchor="middle" x="629.55" y="-287.5" font-family="Helvetica,sans-Serif" font-size="10.00">_endpoint.h</text>
</a>
</g>
</g>
<!-- Node2 -->
<g id="node2" class="node">
<title>Node2</title>
<g id="a_node2"><a xlink:href="http__builder_8h.html" target="_top" xlink:title=" ">
<polygon fill="white" stroke="black" points="407.55,-112.5 407.55,-131.5 513.55,-131.5 513.55,-112.5 407.55,-112.5"/>
<text text-anchor="middle" x="460.55" y="-119.5" font-family="Helvetica,sans-Serif" font-size="10.00">http/http_builder.h</text>
</a>
</g>
</g>
<!-- Node1&#45;&gt;Node2 -->
<g id="edge1" class="edge">
<title>Node1&#45;&gt;Node2</title>
<path fill="none" stroke="midnightblue" d="M615.72,-280.47C584.62,-248.9 509.3,-172.47 476.39,-139.07"/>
<polygon fill="midnightblue" stroke="midnightblue" points="478.5,-136.23 468.99,-131.56 473.51,-141.14 478.5,-136.23"/>
</g>
<!-- Node17 -->
<g id="node17" class="node">
<title>Node17</title>
<g id="a_node17"><a xlink:href="tls_2msg__types_8h.html" target="_top" xlink:title=" ">
<polygon fill="white" stroke="black" points="628.55,-224.5 628.55,-243.5 722.55,-243.5 722.55,-224.5 628.55,-224.5"/>
<text text-anchor="middle" x="675.55" y="-231.5" font-family="Helvetica,sans-Serif" font-size="10.00">tls/msg_types.h</text>
</a>
</g>
</g>
<!-- Node1&#45;&gt;Node17 -->
<g id="edge20" class="edge">
<title>Node1&#45;&gt;Node17</title>
<path fill="none" stroke="midnightblue" d="M640.45,-280.4C647.14,-271.75 655.73,-260.64 662.74,-251.58"/>
<polygon fill="midnightblue" stroke="midnightblue" points="665.51,-253.71 668.86,-243.66 659.97,-249.43 665.51,-253.71"/>
</g>
<!-- Node3 -->
<g id="node3" class="node">
<title>Node3</title>
<g id="a_node3"><a xlink:href="nonstd_8h.html" target="_top" xlink:title=" ">
<polygon fill="white" stroke="black" points="670.55,-56.5 670.55,-75.5 760.55,-75.5 760.55,-56.5 670.55,-56.5"/>
<text text-anchor="middle" x="715.55" y="-63.5" font-family="Helvetica,sans-Serif" font-size="10.00">ccf/ds/nonstd.h</text>
</a>
</g>
</g>
<!-- Node2&#45;&gt;Node3 -->
<g id="edge2" class="edge">
<title>Node2&#45;&gt;Node3</title>
<path fill="none" stroke="midnightblue" d="M500.96,-112.44C545.54,-103 617.32,-87.8 665.44,-77.61"/>
<polygon fill="midnightblue" stroke="midnightblue" points="666.28,-81.01 675.34,-75.52 664.83,-74.16 666.28,-81.01"/>
</g>
<!-- Node7 -->
<g id="node7" class="node">
<title>Node7</title>
<g id="a_node7"><a xlink:title=" ">
<polygon fill="white" stroke="#bfbfbf" points="515.55,-0.5 515.55,-19.5 559.55,-19.5 559.55,-0.5 515.55,-0.5"/>
<text text-anchor="middle" x="537.55" y="-7.5" font-family="Helvetica,sans-Serif" font-size="10.00">string</text>
</a>
</g>
</g>
<!-- Node2&#45;&gt;Node7 -->
<g id="edge18" class="edge">
<title>Node2&#45;&gt;Node7</title>
<path fill="none" stroke="midnightblue" d="M466.59,-112.37C479.3,-94.22 508.99,-51.8 525.66,-27.99"/>
<polygon fill="midnightblue" stroke="midnightblue" points="528.67,-29.79 531.54,-19.59 522.94,-25.78 528.67,-29.79"/>
</g>
<!-- Node10 -->
<g id="node10" class="node">
<title>Node10</title>
<g id="a_node10"><a xlink:title=" ">
<polygon fill="white" stroke="#bfbfbf" points="1083.05,-0.5 1083.05,-19.5 1130.05,-19.5 1130.05,-0.5 1083.05,-0.5"/>
<text text-anchor="middle" x="1106.55" y="-7.5" font-family="Helvetica,sans-Serif" font-size="10.00">vector</text>
</a>
</g>
</g>
<!-- Node2&#45;&gt;Node10 -->
<g id="edge19" class="edge">
<title>Node2&#45;&gt;Node10</title>
<path fill="none" stroke="midnightblue" d="M513.63,-115.12C575.44,-107.84 680.44,-94.15 769.55,-76 803.78,-69.03 811.42,-63.42 845.55,-56 926.72,-38.36 1023.3,-23.21 1073.13,-15.82"/>
<polygon fill="midnightblue" stroke="midnightblue" points="1073.64,-19.28 1083.02,-14.36 1072.62,-12.35 1073.64,-19.28"/>
</g>
<!-- Node11 -->
<g id="node11" class="node">
<title>Node11</title>
<g id="a_node11"><a xlink:href="http__consts_8h.html" target="_top" xlink:title=" ">
<polygon fill="white" stroke="black" points="19.05,-56.5 19.05,-75.5 118.05,-75.5 118.05,-56.5 19.05,-56.5"/>
<text text-anchor="middle" x="68.55" y="-63.5" font-family="Helvetica,sans-Serif" font-size="10.00">ccf/http_consts.h</text>
</a>
</g>
</g>
<!-- Node2&#45;&gt;Node11 -->
<g id="edge10" class="edge">
<title>Node2&#45;&gt;Node11</title>
<path fill="none" stroke="midnightblue" d="M407.45,-114.11C343.76,-105.78 233.46,-91.15 128.28,-76.08"/>
<polygon fill="midnightblue" stroke="midnightblue" points="128.51,-72.58 118.12,-74.62 127.52,-79.51 128.51,-72.58"/>
</g>
<!-- Node12 -->
<g id="node12" class="node">
<title>Node12</title>
<g id="a_node12"><a xlink:href="http__header__map_8h.html" target="_top" xlink:title=" ">
<polygon fill="white" stroke="black" points="350.55,-56.5 350.55,-75.5 478.55,-75.5 478.55,-56.5 350.55,-56.5"/>
<text text-anchor="middle" x="414.55" y="-63.5" font-family="Helvetica,sans-Serif" font-size="10.00">ccf/http_header_map.h</text>
</a>
</g>
</g>
<!-- Node2&#45;&gt;Node12 -->
<g id="edge11" class="edge">
<title>Node2&#45;&gt;Node12</title>
<path fill="none" stroke="midnightblue" d="M452.96,-112.08C446.33,-104.3 436.53,-92.8 428.49,-83.37"/>
<polygon fill="midnightblue" stroke="midnightblue" points="431.16,-81.09 422.01,-75.75 425.83,-85.63 431.16,-81.09"/>
</g>
<!-- Node13 -->
<g id="node13" class="node">
<title>Node13</title>
<g id="a_node13"><a xlink:title=" ">
<polygon fill="white" stroke="#bfbfbf" points="183.55,-0.5 183.55,-19.5 221.55,-19.5 221.55,-0.5 183.55,-0.5"/>
<text text-anchor="middle" x="202.55" y="-7.5" font-family="Helvetica,sans-Serif" font-size="10.00">map</text>
</a>
</g>
</g>
<!-- Node2&#45;&gt;Node13 -->
<g id="edge17" class="edge">
<title>Node2&#45;&gt;Node13</title>
<path fill="none" stroke="midnightblue" d="M407.34,-119.62C293.77,-116.12 35.82,-105.02 9.55,-76 -38.21,-23.24 108.47,-13.26 173.34,-11.41"/>
<polygon fill="midnightblue" stroke="midnightblue" points="173.45,-14.91 183.36,-11.17 173.28,-7.91 173.45,-14.91"/>
</g>
<!-- Node14 -->
<g id="node14" class="node">
<title>Node14</title>
<g id="a_node14"><a xlink:href="http__status_8h.html" target="_top" xlink:title=" ">
<polygon fill="white" stroke="black" points="136.55,-56.5 136.55,-75.5 234.55,-75.5 234.55,-56.5 136.55,-56.5"/>
<text text-anchor="middle" x="185.55" y="-63.5" font-family="Helvetica,sans-Serif" font-size="10.00">ccf/http_status.h</text>
</a>
</g>
</g>
<!-- Node2&#45;&gt;Node14 -->
<g id="edge14" class="edge">
<title>Node2&#45;&gt;Node14</title>
<path fill="none" stroke="midnightblue" d="M416.98,-112.44C368.7,-102.96 290.84,-87.67 238.94,-77.48"/>
<polygon fill="midnightblue" stroke="midnightblue" points="239.41,-74.01 228.92,-75.52 238.06,-80.88 239.41,-74.01"/>
</g>
<!-- Node15 -->
<g id="node15" class="node">
<title>Node15</title>
<g id="a_node15"><a xlink:title=" ">
<polygon fill="white" stroke="#bfbfbf" points="535.05,-56.5 535.05,-75.5 614.05,-75.5 614.05,-56.5 535.05,-56.5"/>
<text text-anchor="middle" x="574.55" y="-63.5" font-family="Helvetica,sans-Serif" font-size="10.00">fmt/format.h</text>
</a>
</g>
</g>
<!-- Node2&#45;&gt;Node15 -->
<g id="edge15" class="edge">
<title>Node2&#45;&gt;Node15</title>
<path fill="none" stroke="midnightblue" d="M478.62,-112.44C497.13,-103.68 526.13,-89.94 547.41,-79.86"/>
<polygon fill="midnightblue" stroke="midnightblue" points="549.03,-82.96 556.57,-75.52 546.04,-76.63 549.03,-82.96"/>
</g>
<!-- Node16 -->
<g id="node16" class="node">
<title>Node16</title>
<g id="a_node16"><a xlink:title=" ">
<polygon fill="white" stroke="#bfbfbf" points="252.55,-56.5 252.55,-75.5 332.55,-75.5 332.55,-56.5 252.55,-56.5"/>
<text text-anchor="middle" x="292.55" y="-63.5" font-family="Helvetica,sans-Serif" font-size="10.00">llhttp/llhttp.h</text>
</a>
</g>
</g>
<!-- Node2&#45;&gt;Node16 -->
<g id="edge16" class="edge">
<title>Node2&#45;&gt;Node16</title>
<path fill="none" stroke="midnightblue" d="M433.93,-112.44C405.55,-103.32 360.42,-88.81 328.8,-78.65"/>
<polygon fill="midnightblue" stroke="midnightblue" points="329.64,-75.24 319.05,-75.52 327.5,-81.91 329.64,-75.24"/>
</g>
<!-- Node4 -->
<g id="node4" class="node">
<title>Node4</title>
<g id="a_node4"><a xlink:title=" ">
<polygon fill="white" stroke="#bfbfbf" points="669.55,-0.5 669.55,-19.5 733.55,-19.5 733.55,-0.5 669.55,-0.5"/>
<text text-anchor="middle" x="701.55" y="-7.5" font-family="Helvetica,sans-Serif" font-size="10.00">algorithm</text>
</a>
</g>
</g>
<!-- Node3&#45;&gt;Node4 -->
<g id="edge3" class="edge">
<title>Node3&#45;&gt;Node4</title>
<path fill="none" stroke="midnightblue" d="M713.24,-56.08C711.39,-48.93 708.72,-38.64 706.4,-29.69"/>
<polygon fill="midnightblue" stroke="midnightblue" points="709.72,-28.55 703.82,-19.75 702.94,-30.31 709.72,-28.55"/>
</g>
<!-- Node5 -->
<g id="node5" class="node">
<title>Node5</title>
<g id="a_node5"><a xlink:title=" ">
<polygon fill="white" stroke="#bfbfbf" points="819.55,-0.5 819.55,-19.5 861.55,-19.5 861.55,-0.5 819.55,-0.5"/>
<text text-anchor="middle" x="840.55" y="-7.5" font-family="Helvetica,sans-Serif" font-size="10.00">array</text>
</a>
</g>
</g>
<!-- Node3&#45;&gt;Node5 -->
<g id="edge4" class="edge">
<title>Node3&#45;&gt;Node5</title>
<path fill="none" stroke="midnightblue" d="M735.36,-56.44C755.84,-47.6 788.04,-33.69 811.42,-23.59"/>
<polygon fill="midnightblue" stroke="midnightblue" points="813.05,-26.7 820.84,-19.52 810.27,-20.27 813.05,-26.7"/>
</g>
<!-- Node6 -->
<g id="node6" class="node">
<title>Node6</title>
<g id="a_node6"><a xlink:title=" ">
<polygon fill="white" stroke="#bfbfbf" points="752.05,-0.5 752.05,-19.5 801.05,-19.5 801.05,-0.5 752.05,-0.5"/>
<text text-anchor="middle" x="776.55" y="-7.5" font-family="Helvetica,sans-Serif" font-size="10.00">cctype</text>
</a>
</g>
</g>
<!-- Node3&#45;&gt;Node6 -->
<g id="edge5" class="edge">
<title>Node3&#45;&gt;Node6</title>
<path fill="none" stroke="midnightblue" d="M725.35,-56.32C734.37,-48.34 747.96,-36.31 758.87,-26.65"/>
<polygon fill="midnightblue" stroke="midnightblue" points="761.41,-29.08 766.57,-19.83 756.77,-23.84 761.41,-29.08"/>
</g>
<!-- Node3&#45;&gt;Node7 -->
<g id="edge6" class="edge">
<title>Node3&#45;&gt;Node7</title>
<path fill="none" stroke="midnightblue" d="M687.35,-56.44C655.28,-46.71 603.03,-30.86 569.49,-20.69"/>
<polygon fill="midnightblue" stroke="midnightblue" points="570.31,-17.28 559.72,-17.73 568.27,-23.98 570.31,-17.28"/>
</g>
<!-- Node8 -->
<g id="node8" class="node">
<title>Node8</title>
<g id="a_node8"><a xlink:title=" ">
<polygon fill="white" stroke="#bfbfbf" points="578.05,-0.5 578.05,-19.5 651.05,-19.5 651.05,-0.5 578.05,-0.5"/>
<text text-anchor="middle" x="614.55" y="-7.5" font-family="Helvetica,sans-Serif" font-size="10.00">string_view</text>
</a>
</g>
</g>
<!-- Node3&#45;&gt;Node8 -->
<g id="edge7" class="edge">
<title>Node3&#45;&gt;Node8</title>
<path fill="none" stroke="midnightblue" d="M699.33,-56.32C683.2,-47.7 658.25,-34.36 639.59,-24.39"/>
<polygon fill="midnightblue" stroke="midnightblue" points="641.21,-21.28 630.74,-19.65 637.91,-27.46 641.21,-21.28"/>
</g>
<!-- Node9 -->
<g id="node9" class="node">
<title>Node9</title>
<g id="a_node9"><a xlink:title=" ">
<polygon fill="white" stroke="#bfbfbf" points="938.05,-0.5 938.05,-19.5 1007.05,-19.5 1007.05,-0.5 938.05,-0.5"/>
<text text-anchor="middle" x="972.55" y="-7.5" font-family="Helvetica,sans-Serif" font-size="10.00">type_traits</text>
</a>
</g>
</g>
<!-- Node3&#45;&gt;Node9 -->
<g id="edge8" class="edge">
<title>Node3&#45;&gt;Node9</title>
<path fill="none" stroke="midnightblue" d="M756.27,-56.44C803.05,-46.61 879.55,-30.54 927.92,-20.38"/>
<polygon fill="midnightblue" stroke="midnightblue" points="928.72,-23.79 937.79,-18.3 927.28,-16.94 928.72,-23.79"/>
</g>
<!-- Node3&#45;&gt;Node10 -->
<g id="edge9" class="edge">
<title>Node3&#45;&gt;Node10</title>
<path fill="none" stroke="midnightblue" d="M760.64,-58.04C765.34,-57.34 770.04,-56.65 774.55,-56 883.45,-40.32 1012.66,-23.24 1072.73,-15.4"/>
<polygon fill="midnightblue" stroke="midnightblue" points="1073.32,-18.85 1082.78,-14.08 1072.41,-11.91 1073.32,-18.85"/>
</g>
<!-- Node12&#45;&gt;Node7 -->
<g id="edge13" class="edge">
<title>Node12&#45;&gt;Node7</title>
<path fill="none" stroke="midnightblue" d="M434.04,-56.44C454.19,-47.6 485.88,-33.69 508.88,-23.59"/>
<polygon fill="midnightblue" stroke="midnightblue" points="510.4,-26.74 518.15,-19.52 507.59,-20.33 510.4,-26.74"/>
</g>
<!-- Node12&#45;&gt;Node13 -->
<g id="edge12" class="edge">
<title>Node12&#45;&gt;Node13</title>
<path fill="none" stroke="midnightblue" d="M380.96,-56.44C339.87,-45.98 270.98,-28.43 231.92,-18.48"/>
<polygon fill="midnightblue" stroke="midnightblue" points="232.3,-14.96 221.74,-15.89 230.57,-21.75 232.3,-14.96"/>
</g>
<!-- Node18 -->
<g id="node18" class="node">
<title>Node18</title>
<g id="a_node18"><a xlink:href="ring__buffer__types_8h.html" target="_top" xlink:title=" ">
<polygon fill="white" stroke="black" points="706.05,-168.5 706.05,-187.5 831.05,-187.5 831.05,-168.5 706.05,-168.5"/>
<text text-anchor="middle" x="768.55" y="-175.5" font-family="Helvetica,sans-Serif" font-size="10.00">ds/ring_buffer_types.h</text>
</a>
</g>
</g>
<!-- Node17&#45;&gt;Node18 -->
<g id="edge21" class="edge">
<title>Node17&#45;&gt;Node18</title>
<path fill="none" stroke="midnightblue" d="M690.49,-224.32C705.14,-215.82 727.69,-202.73 744.79,-192.8"/>
<polygon fill="midnightblue" stroke="midnightblue" points="746.76,-195.7 753.65,-187.65 743.24,-189.65 746.76,-195.7"/>
</g>
<!-- Node18&#45;&gt;Node3 -->
<g id="edge31" class="edge">
<title>Node18&#45;&gt;Node3</title>
<path fill="none" stroke="midnightblue" d="M760.47,-168.34C752.82,-159.72 741.5,-145.82 734.55,-132 727.13,-117.23 722.13,-99.07 719.13,-85.71"/>
<polygon fill="midnightblue" stroke="midnightblue" points="722.53,-84.87 717.07,-75.79 715.67,-86.29 722.53,-84.87"/>
</g>
<!-- Node18&#45;&gt;Node7 -->
<g id="edge47" class="edge">
<title>Node18&#45;&gt;Node7</title>
<path fill="none" stroke="midnightblue" d="M759.51,-168.37C737.36,-147.47 678.1,-93.15 622.55,-56 604.45,-43.9 582.74,-32.45 565.79,-24.13"/>
<polygon fill="midnightblue" stroke="midnightblue" points="566.95,-20.8 556.42,-19.61 563.9,-27.1 566.95,-20.8"/>
</g>
<!-- Node18&#45;&gt;Node10 -->
<g id="edge48" class="edge">
<title>Node18&#45;&gt;Node10</title>
<path fill="none" stroke="midnightblue" d="M831.35,-172.28C898.78,-166.18 1000.55,-153.67 1032.55,-132 1069.46,-107 1091.18,-56.84 1100.73,-29.61"/>
<polygon fill="midnightblue" stroke="midnightblue" points="1104.16,-30.38 1103.99,-19.79 1097.52,-28.18 1104.16,-30.38"/>
</g>
<!-- Node18&#45;&gt;Node15 -->
<g id="edge45" class="edge">
<title>Node18&#45;&gt;Node15</title>
<path fill="none" stroke="midnightblue" d="M719.85,-168.46C691.45,-161.81 655.95,-150.51 628.55,-132 610.21,-119.6 594.72,-99.23 585.1,-84.59"/>
<polygon fill="midnightblue" stroke="midnightblue" points="587.95,-82.54 579.66,-75.95 582.02,-86.27 587.95,-82.54"/>
</g>
<!-- Node19 -->
<g id="node19" class="node">
<title>Node19</title>
<g id="a_node19"><a xlink:href="include_2ccf_2ds_2hash_8h.html" target="_top" xlink:title=" ">
<polygon fill="white" stroke="black" points="943.55,-112.5 943.55,-131.5 1023.55,-131.5 1023.55,-112.5 943.55,-112.5"/>
<text text-anchor="middle" x="983.55" y="-119.5" font-family="Helvetica,sans-Serif" font-size="10.00">ccf/ds/hash.h</text>
</a>
</g>
</g>
<!-- Node18&#45;&gt;Node19 -->
<g id="edge22" class="edge">
<title>Node18&#45;&gt;Node19</title>
<path fill="none" stroke="midnightblue" d="M802.62,-168.44C839.73,-159.12 899.21,-144.18 939.77,-134"/>
<polygon fill="midnightblue" stroke="midnightblue" points="940.8,-137.35 949.64,-131.52 939.09,-130.56 940.8,-137.35"/>
</g>
<!-- Node24 -->
<g id="node24" class="node">
<title>Node24</title>
<g id="a_node24"><a xlink:href="serializer_8h.html" target="_top" xlink:title=" ">
<polygon fill="white" stroke="black" points="1134.55,-112.5 1134.55,-131.5 1204.55,-131.5 1204.55,-112.5 1134.55,-112.5"/>
<text text-anchor="middle" x="1169.55" y="-119.5" font-family="Helvetica,sans-Serif" font-size="10.00">serializer.h</text>
</a>
</g>
</g>
<!-- Node18&#45;&gt;Node24 -->
<g id="edge32" class="edge">
<title>Node18&#45;&gt;Node24</title>
<path fill="none" stroke="midnightblue" d="M831.33,-170.02C901.85,-161.94 1019.65,-147.7 1120.55,-132 1121.83,-131.8 1123.12,-131.6 1124.42,-131.38"/>
<polygon fill="midnightblue" stroke="midnightblue" points="1125.25,-134.79 1134.53,-129.67 1124.08,-127.89 1125.25,-134.79"/>
</g>
<!-- Node30 -->
<g id="node30" class="node">
<title>Node30</title>
<g id="a_node30"><a xlink:title=" ">
<polygon fill="white" stroke="#bfbfbf" points="743.55,-112.5 743.55,-131.5 793.55,-131.5 793.55,-112.5 743.55,-112.5"/>
<text text-anchor="middle" x="768.55" y="-119.5" font-family="Helvetica,sans-Serif" font-size="10.00">atomic</text>
</a>
</g>
</g>
<!-- Node18&#45;&gt;Node30 -->
<g id="edge44" class="edge">
<title>Node18&#45;&gt;Node30</title>
<path fill="none" stroke="midnightblue" d="M768.55,-168.08C768.55,-161.01 768.55,-150.86 768.55,-141.99"/>
<polygon fill="midnightblue" stroke="midnightblue" points="772.05,-141.75 768.55,-131.75 765.05,-141.75 772.05,-141.75"/>
</g>
<!-- Node31 -->
<g id="node31" class="node">
<title>Node31</title>
<g id="a_node31"><a xlink:title=" ">
<polygon fill="white" stroke="#bfbfbf" points="811.55,-112.5 811.55,-131.5 867.55,-131.5 867.55,-112.5 811.55,-112.5"/>
<text text-anchor="middle" x="839.55" y="-119.5" font-family="Helvetica,sans-Serif" font-size="10.00">optional</text>
</a>
</g>
</g>
<!-- Node18&#45;&gt;Node31 -->
<g id="edge46" class="edge">
<title>Node18&#45;&gt;Node31</title>
<path fill="none" stroke="midnightblue" d="M779.96,-168.32C790.66,-160.18 806.89,-147.84 819.72,-138.09"/>
<polygon fill="midnightblue" stroke="midnightblue" points="822.1,-140.67 827.94,-131.83 817.86,-135.1 822.1,-140.67"/>
</g>
<!-- Node19&#45;&gt;Node5 -->
<g id="edge27" class="edge">
<title>Node19&#45;&gt;Node5</title>
<path fill="none" stroke="midnightblue" d="M943.54,-119.46C911.7,-115.92 868.76,-105.52 845.55,-76 835.4,-63.08 835.15,-43.91 836.84,-29.73"/>
<polygon fill="midnightblue" stroke="midnightblue" points="840.33,-30.08 838.46,-19.65 833.42,-28.97 840.33,-30.08"/>
</g>
<!-- Node19&#45;&gt;Node10 -->
<g id="edge30" class="edge">
<title>Node19&#45;&gt;Node10</title>
<path fill="none" stroke="midnightblue" d="M993.2,-112.37C1013.95,-93.81 1063.04,-49.91 1089.29,-26.44"/>
<polygon fill="midnightblue" stroke="midnightblue" points="1091.82,-28.87 1096.95,-19.59 1087.16,-23.65 1091.82,-28.87"/>
</g>
<!-- Node20 -->
<g id="node20" class="node">
<title>Node20</title>
<g id="a_node20"><a xlink:href="siphash_8h.html" target="_top" xlink:title=" ">
<polygon fill="white" stroke="black" points="1173.05,-56.5 1173.05,-75.5 1268.05,-75.5 1268.05,-56.5 1173.05,-56.5"/>
<text text-anchor="middle" x="1220.55" y="-63.5" font-family="Helvetica,sans-Serif" font-size="10.00">ccf/ds/siphash.h</text>
</a>
</g>
</g>
<!-- Node19&#45;&gt;Node20 -->
<g id="edge23" class="edge">
<title>Node19&#45;&gt;Node20</title>
<path fill="none" stroke="midnightblue" d="M1021.11,-112.44C1062.36,-103.04 1128.7,-87.93 1173.42,-77.74"/>
<polygon fill="midnightblue" stroke="midnightblue" points="1174.2,-81.15 1183.17,-75.52 1172.65,-74.33 1174.2,-81.15"/>
</g>
<!-- Node22 -->
<g id="node22" class="node">
<title>Node22</title>
<g id="a_node22"><a xlink:title=" ">
<polygon fill="white" stroke="#bfbfbf" points="1271.55,-0.5 1271.55,-19.5 1321.55,-19.5 1321.55,-0.5 1271.55,-0.5"/>
<text text-anchor="middle" x="1296.55" y="-7.5" font-family="Helvetica,sans-Serif" font-size="10.00">cstdint</text>
</a>
</g>
</g>
<!-- Node19&#45;&gt;Node22 -->
<g id="edge28" class="edge">
<title>Node19&#45;&gt;Node22</title>
<path fill="none" stroke="midnightblue" d="M1023.62,-117.26C1099.59,-109.83 1258.71,-92.5 1277.55,-76 1290.66,-64.52 1294.96,-44.54 1296.26,-29.76"/>
<polygon fill="midnightblue" stroke="midnightblue" points="1299.76,-29.85 1296.76,-19.69 1292.76,-29.5 1299.76,-29.85"/>
</g>
<!-- Node23 -->
<g id="node23" class="node">
<title>Node23</title>
<g id="a_node23"><a xlink:title=" ">
<polygon fill="white" stroke="#bfbfbf" points="854.05,-56.5 854.05,-75.5 1003.05,-75.5 1003.05,-56.5 854.05,-56.5"/>
<text text-anchor="middle" x="928.55" y="-63.5" font-family="Helvetica,sans-Serif" font-size="10.00">small_vector/SmallVector.h</text>
</a>
</g>
</g>
<!-- Node19&#45;&gt;Node23 -->
<g id="edge29" class="edge">
<title>Node19&#45;&gt;Node23</title>
<path fill="none" stroke="midnightblue" d="M974.47,-112.08C966.38,-104.14 954.36,-92.34 944.64,-82.8"/>
<polygon fill="midnightblue" stroke="midnightblue" points="947.05,-80.26 937.47,-75.75 942.15,-85.25 947.05,-80.26"/>
</g>
<!-- Node20&#45;&gt;Node10 -->
<g id="edge26" class="edge">
<title>Node20&#45;&gt;Node10</title>
<path fill="none" stroke="midnightblue" d="M1202.49,-56.44C1183.98,-47.68 1154.97,-33.94 1133.7,-23.86"/>
<polygon fill="midnightblue" stroke="midnightblue" points="1135.07,-20.63 1124.53,-19.52 1132.07,-26.96 1135.07,-20.63"/>
</g>
<!-- Node21 -->
<g id="node21" class="node">
<title>Node21</title>
<g id="a_node21"><a xlink:title=" ">
<polygon fill="white" stroke="#bfbfbf" points="1194.05,-0.5 1194.05,-19.5 1247.05,-19.5 1247.05,-0.5 1194.05,-0.5"/>
<text text-anchor="middle" x="1220.55" y="-7.5" font-family="Helvetica,sans-Serif" font-size="10.00">cstddef</text>
</a>
</g>
</g>
<!-- Node20&#45;&gt;Node21 -->
<g id="edge24" class="edge">
<title>Node20&#45;&gt;Node21</title>
<path fill="none" stroke="midnightblue" d="M1220.55,-56.08C1220.55,-49.01 1220.55,-38.86 1220.55,-29.99"/>
<polygon fill="midnightblue" stroke="midnightblue" points="1224.05,-29.75 1220.55,-19.75 1217.05,-29.75 1224.05,-29.75"/>
</g>
<!-- Node20&#45;&gt;Node22 -->
<g id="edge25" class="edge">
<title>Node20&#45;&gt;Node22</title>
<path fill="none" stroke="midnightblue" d="M1232.76,-56.32C1244.33,-48.11 1261.93,-35.6 1275.71,-25.81"/>
<polygon fill="midnightblue" stroke="midnightblue" points="1278,-28.48 1284.12,-19.83 1273.94,-22.77 1278,-28.48"/>
</g>
<!-- Node24&#45;&gt;Node3 -->
<g id="edge33" class="edge">
<title>Node24&#45;&gt;Node3</title>
<path fill="none" stroke="midnightblue" d="M1134.31,-116.81C1055.61,-107.45 865.1,-84.79 770.6,-73.55"/>
<polygon fill="midnightblue" stroke="midnightblue" points="771.01,-70.07 760.67,-72.37 770.18,-77.02 771.01,-70.07"/>
</g>
<!-- Node24&#45;&gt;Node9 -->
<g id="edge42" class="edge">
<title>Node24&#45;&gt;Node9</title>
<path fill="none" stroke="midnightblue" d="M1154.09,-112.37C1119.93,-93.29 1037.78,-47.42 996.74,-24.51"/>
<polygon fill="midnightblue" stroke="midnightblue" points="998.38,-21.41 987.94,-19.59 994.96,-27.52 998.38,-21.41"/>
</g>
<!-- Node24&#45;&gt;Node10 -->
<g id="edge43" class="edge">
<title>Node24&#45;&gt;Node10</title>
<path fill="none" stroke="midnightblue" d="M1164.61,-112.37C1154.26,-94.3 1130.14,-52.18 1116.46,-28.31"/>
<polygon fill="midnightblue" stroke="midnightblue" points="1119.48,-26.53 1111.47,-19.59 1113.41,-30.01 1119.48,-26.53"/>
</g>
<!-- Node25 -->
<g id="node25" class="node">
<title>Node25</title>
<g id="a_node25"><a xlink:href="serialized_8h.html" target="_top" xlink:title=" ">
<polygon fill="white" stroke="black" points="1460.05,-56.5 1460.05,-75.5 1533.05,-75.5 1533.05,-56.5 1460.05,-56.5"/>
<text text-anchor="middle" x="1496.55" y="-63.5" font-family="Helvetica,sans-Serif" font-size="10.00">serialized.h</text>
</a>
</g>
</g>
<!-- Node24&#45;&gt;Node25 -->
<g id="edge34" class="edge">
<title>Node24&#45;&gt;Node25</title>
<path fill="none" stroke="midnightblue" d="M1204.8,-115.83C1256.43,-108.16 1355.89,-93 1449.79,-76.27"/>
<polygon fill="midnightblue" stroke="midnightblue" points="1450.51,-79.69 1459.74,-74.48 1449.28,-72.8 1450.51,-79.69"/>
</g>
<!-- Node28 -->
<g id="node28" class="node">
<title>Node28</title>
<g id="a_node28"><a xlink:title=" ">
<polygon fill="white" stroke="#bfbfbf" points="1324.55,-56.5 1324.55,-75.5 1382.55,-75.5 1382.55,-56.5 1324.55,-56.5"/>
<text text-anchor="middle" x="1353.55" y="-63.5" font-family="Helvetica,sans-Serif" font-size="10.00">memory</text>
</a>
</g>
</g>
<!-- Node24&#45;&gt;Node28 -->
<g id="edge40" class="edge">
<title>Node24&#45;&gt;Node28</title>
<path fill="none" stroke="midnightblue" d="M1198.71,-112.44C1230.07,-103.24 1280.08,-88.56 1314.75,-78.39"/>
<polygon fill="midnightblue" stroke="midnightblue" points="1315.92,-81.69 1324.53,-75.52 1313.95,-74.97 1315.92,-81.69"/>
</g>
<!-- Node29 -->
<g id="node29" class="node">
<title>Node29</title>
<g id="a_node29"><a xlink:title=" ">
<polygon fill="white" stroke="#bfbfbf" points="1401.05,-56.5 1401.05,-75.5 1442.05,-75.5 1442.05,-56.5 1401.05,-56.5"/>
<text text-anchor="middle" x="1421.55" y="-63.5" font-family="Helvetica,sans-Serif" font-size="10.00">tuple</text>
</a>
</g>
</g>
<!-- Node24&#45;&gt;Node29 -->
<g id="edge41" class="edge">
<title>Node24&#45;&gt;Node29</title>
<path fill="none" stroke="midnightblue" d="M1204.76,-114.89C1246.76,-107.38 1319.25,-93.71 1390.87,-75.98"/>
<polygon fill="midnightblue" stroke="midnightblue" points="1392.11,-79.27 1400.96,-73.45 1390.41,-72.48 1392.11,-79.27"/>
</g>
<!-- Node25&#45;&gt;Node7 -->
<g id="edge38" class="edge">
<title>Node25&#45;&gt;Node7</title>
<path fill="none" stroke="midnightblue" d="M1459.79,-57.16C1457.01,-56.72 1454.24,-56.32 1451.55,-56 1064.9,-9.74 958.02,-81.96 569.86,-19.78"/>
<polygon fill="midnightblue" stroke="midnightblue" points="570.19,-16.29 559.76,-18.14 569.07,-23.2 570.19,-16.29"/>
</g>
<!-- Node25&#45;&gt;Node10 -->
<g id="edge39" class="edge">
<title>Node25&#45;&gt;Node10</title>
<path fill="none" stroke="midnightblue" d="M1459.75,-57.43C1456.98,-56.92 1454.23,-56.44 1451.55,-56 1392.05,-46.18 1215.47,-24.3 1140.66,-15.15"/>
<polygon fill="midnightblue" stroke="midnightblue" points="1140.74,-11.63 1130.39,-13.9 1139.89,-18.58 1140.74,-11.63"/>
</g>
<!-- Node25&#45;&gt;Node22 -->
<g id="edge35" class="edge">
<title>Node25&#45;&gt;Node22</title>
<path fill="none" stroke="midnightblue" d="M1464.86,-56.44C1428.62,-46.66 1369.44,-30.68 1331.78,-20.51"/>
<polygon fill="midnightblue" stroke="midnightblue" points="1332.33,-17.03 1321.76,-17.81 1330.5,-23.79 1332.33,-17.03"/>
</g>
<!-- Node26 -->
<g id="node26" class="node">
<title>Node26</title>
<g id="a_node26"><a xlink:title=" ">
<polygon fill="white" stroke="#bfbfbf" points="1433.55,-0.5 1433.55,-19.5 1483.55,-19.5 1483.55,-0.5 1433.55,-0.5"/>
<text text-anchor="middle" x="1458.55" y="-7.5" font-family="Helvetica,sans-Serif" font-size="10.00">cstring</text>
</a>
</g>
</g>
<!-- Node25&#45;&gt;Node26 -->
<g id="edge36" class="edge">
<title>Node25&#45;&gt;Node26</title>
<path fill="none" stroke="midnightblue" d="M1490.28,-56.08C1484.91,-48.46 1477.03,-37.26 1470.47,-27.94"/>
<polygon fill="midnightblue" stroke="midnightblue" points="1473.33,-25.91 1464.71,-19.75 1467.6,-29.94 1473.33,-25.91"/>
</g>
<!-- Node27 -->
<g id="node27" class="node">
<title>Node27</title>
<g id="a_node27"><a xlink:title=" ">
<polygon fill="white" stroke="#bfbfbf" points="1502.05,-0.5 1502.05,-19.5 1567.05,-19.5 1567.05,-0.5 1502.05,-0.5"/>
<text text-anchor="middle" x="1534.55" y="-7.5" font-family="Helvetica,sans-Serif" font-size="10.00">stdexcept</text>
</a>
</g>
</g>
<!-- Node25&#45;&gt;Node27 -->
<g id="edge37" class="edge">
<title>Node25&#45;&gt;Node27</title>
<path fill="none" stroke="midnightblue" d="M1502.83,-56.08C1508.19,-48.46 1516.07,-37.26 1522.63,-27.94"/>
<polygon fill="midnightblue" stroke="midnightblue" points="1525.5,-29.94 1528.39,-19.75 1519.78,-25.91 1525.5,-29.94"/>
</g>
</g>
</svg>
        <g id="navigator" transform="translate(0 0)" fill="#404254">
                <rect fill="#f2f5e9" fill-opacity="0.5" stroke="#606060" stroke-width=".5" x="0" y="0" width="60" height="60"/>
                <use id="zoomplus" xlink:href="#zoomPlus" x="17" y="9" onmousedown="handleZoom(evt,'in')"/>
                <use id="zoomminus" xlink:href="#zoomMin" x="42" y="9" onmousedown="handleZoom(evt,'out')"/>
                <use id="reset" xlink:href="#resetDef" x="30" y="36" onmousedown="handleReset()"/>
                <g id="arrowUp" xlink:href="#dirArrow" transform="translate(30 24)" onmousedown="handlePan(0,-1)">
                  <use xlink:href="#rim" fill="#404040">
                        <set attributeName="fill" to="#808080" begin="arrowUp.mouseover" end="arrowUp.mouseout"/>
                  </use>
                  <path fill="none" stroke="white" stroke-width="1.5" d="M0,-3.0v7 M-2.5,-0.5L0,-3.0L2.5,-0.5"/>
                </g>
                <g id="arrowRight" xlink:href="#dirArrow" transform="rotate(90) translate(36 -43)" onmousedown="handlePan(1,0)">
                  <use xlink:href="#rim" fill="#404040">
                        <set attributeName="fill" to="#808080" begin="arrowRight.mouseover" end="arrowRight.mouseout"/>
                  </use>
                  <path fill="none" stroke="white" stroke-width="1.5" d="M0,-3.0v7 M-2.5,-0.5L0,-3.0L2.5,-0.5"/>
                </g>
                <g id="arrowDown" xlink:href="#dirArrow" transform="rotate(180) translate(-30 -48)" onmousedown="handlePan(0,1)">
                  <use xlink:href="#rim" fill="#404040">
                        <set attributeName="fill" to="#808080" begin="arrowDown.mouseover" end="arrowDown.mouseout"/>
                  </use>
                  <path fill="none" stroke="white" stroke-width="1.5" d="M0,-3.0v7 M-2.5,-0.5L0,-3.0L2.5,-0.5"/>
                </g>
                <g id="arrowLeft" xlink:href="#dirArrow" transform="rotate(270) translate(-36 17)" onmousedown="handlePan(-1,0)">
                  <use xlink:href="#rim" fill="#404040">
                        <set attributeName="fill" to="#808080" begin="arrowLeft.mouseover" end="arrowLeft.mouseout"/>
                  </use>
                  <path fill="none" stroke="white" stroke-width="1.5" d="M0,-3.0v7 M-2.5,-0.5L0,-3.0L2.5,-0.5"/>
                </g>
        </g>
        <svg viewBox="0 0 15 15" width="100%" height="30px" preserveAspectRatio="xMaxYMin meet">
         <g id="arrow_out" transform="scale(0.3 0.3)">
          <a xlink:href="client__endpoint_8h__incl_org.svg" target="_base">
           <rect id="button" ry="5" rx="5" y="6" x="6" height="38" width="38"
                fill="#f2f5e9" fill-opacity="0.5" stroke="#606060" stroke-width="1.0"/>
           <path id="arrow"
             d="M 11.500037,31.436501 C 11.940474,20.09759 22.043105,11.32322 32.158766,21.979434 L 37.068811,17.246167 C 37.068811,17.246167 37.088388,32 37.088388,32 L 22.160133,31.978069 C 22.160133,31.978069 26.997745,27.140456 26.997745,27.140456 C 18.528582,18.264221 13.291696,25.230495 11.500037,31.436501 z"
             style="fill:#404040;"/>
          </a>
         </g>
        </svg>
</svg>
