<?xml version="1.0" encoding="UTF-8" standalone="no"?>
<!DOCTYPE svg PUBLIC "-//W3C//DTD SVG 1.1//EN"
 "http://www.w3.org/Graphics/SVG/1.1/DTD/svg11.dtd">
<!-- Generated by graphviz version 2.43.0 (0)
 -->
<!-- Title: include/ccf/service/code_digest.h Pages: 1 -->
<svg width="758pt" height="397pt"
 viewBox="0.00 0.00 758.00 397.00" xmlns="http://www.w3.org/2000/svg" xmlns:xlink="http://www.w3.org/1999/xlink">
<g id="graph0" class="graph" transform="scale(1 1) rotate(0) translate(4 393)">
<title>include/ccf/service/code_digest.h</title>
<polygon fill="white" stroke="transparent" points="-4,4 -4,-393 754,-393 754,4 -4,4"/>
<!-- Node1 -->
<g id="node1" class="node">
<title>Node1</title>
<g id="a_node1"><a xlink:title=" ">
<polygon fill="#bfbfbf" stroke="black" points="290.5,-358.5 290.5,-388.5 397.5,-388.5 397.5,-358.5 290.5,-358.5"/>
<text text-anchor="start" x="298.5" y="-376.5" font-family="Helvetica,sans-Serif" font-size="10.00">include/ccf/service</text>
<text text-anchor="middle" x="344" y="-365.5" font-family="Helvetica,sans-Serif" font-size="10.00">/code_digest.h</text>
</a>
</g>
</g>
<!-- Node2 -->
<g id="node2" class="node">
<title>Node2</title>
<g id="a_node2"><a xlink:href="sha256__hash_8h.html" target="_top" xlink:title=" ">
<polygon fill="white" stroke="black" points="136,-230 136,-249 276,-249 276,-230 136,-230"/>
<text text-anchor="middle" x="206" y="-237" font-family="Helvetica,sans-Serif" font-size="10.00">ccf/crypto/sha256_hash.h</text>
</a>
</g>
</g>
<!-- Node1&#45;&gt;Node2 -->
<g id="edge1" class="edge">
<title>Node1&#45;&gt;Node2</title>
<path fill="none" stroke="midnightblue" d="M328.8,-358.42C317.94,-348.34 303.01,-334.39 290,-322 266.23,-299.36 239.01,-272.83 222.16,-256.35"/>
<polygon fill="midnightblue" stroke="midnightblue" points="224.37,-253.62 214.78,-249.12 219.47,-258.62 224.37,-253.62"/>
</g>
<!-- Node3 -->
<g id="node3" class="node">
<title>Node3</title>
<g id="a_node3"><a xlink:href="json_8h.html" target="_top" xlink:title=" ">
<polygon fill="white" stroke="black" points="230.5,-168.5 230.5,-187.5 307.5,-187.5 307.5,-168.5 230.5,-168.5"/>
<text text-anchor="middle" x="269" y="-175.5" font-family="Helvetica,sans-Serif" font-size="10.00">ccf/ds/json.h</text>
</a>
</g>
</g>
<!-- Node1&#45;&gt;Node3 -->
<g id="edge27" class="edge">
<title>Node1&#45;&gt;Node3</title>
<path fill="none" stroke="midnightblue" d="M338.36,-358.37C334.33,-348.25 328.8,-334.3 324,-322 306.5,-277.16 286.25,-224.25 275.89,-197.09"/>
<polygon fill="midnightblue" stroke="midnightblue" points="279.15,-195.81 272.32,-187.72 272.61,-198.31 279.15,-195.81"/>
</g>
<!-- Node18 -->
<g id="node18" class="node">
<title>Node18</title>
<g id="a_node18"><a xlink:href="hex_8h.html" target="_top" xlink:title=" ">
<polygon fill="white" stroke="black" points="496.5,-112.5 496.5,-131.5 571.5,-131.5 571.5,-112.5 496.5,-112.5"/>
<text text-anchor="middle" x="534" y="-119.5" font-family="Helvetica,sans-Serif" font-size="10.00">ccf/ds/hex.h</text>
</a>
</g>
</g>
<!-- Node1&#45;&gt;Node18 -->
<g id="edge22" class="edge">
<title>Node1&#45;&gt;Node18</title>
<path fill="none" stroke="midnightblue" d="M383.19,-358.37C403.56,-349.82 428.08,-337.56 447,-322 502.42,-276.44 518.31,-257.26 537,-188 541.1,-172.82 539.85,-154.92 537.86,-141.76"/>
<polygon fill="midnightblue" stroke="midnightblue" points="541.25,-140.82 536.04,-131.59 534.36,-142.06 541.25,-140.82"/>
</g>
<!-- Node19 -->
<g id="node19" class="node">
<title>Node19</title>
<g id="a_node19"><a xlink:href="attestation__sev__snp_8h.html" target="_top" xlink:title=" ">
<polygon fill="white" stroke="black" points="332.5,-291.5 332.5,-321.5 437.5,-321.5 437.5,-291.5 332.5,-291.5"/>
<text text-anchor="start" x="340.5" y="-309.5" font-family="Helvetica,sans-Serif" font-size="10.00">ccf/pal/attestation</text>
<text text-anchor="middle" x="385" y="-298.5" font-family="Helvetica,sans-Serif" font-size="10.00">_sev_snp.h</text>
</a>
</g>
</g>
<!-- Node1&#45;&gt;Node19 -->
<g id="edge28" class="edge">
<title>Node1&#45;&gt;Node19</title>
<path fill="none" stroke="midnightblue" d="M352.9,-358.4C358.11,-350.13 364.81,-339.51 370.74,-330.1"/>
<polygon fill="midnightblue" stroke="midnightblue" points="373.75,-331.9 376.12,-321.58 367.83,-328.17 373.75,-331.9"/>
</g>
<!-- Node2&#45;&gt;Node3 -->
<g id="edge2" class="edge">
<title>Node2&#45;&gt;Node3</title>
<path fill="none" stroke="midnightblue" d="M215.03,-229.98C224.76,-220.78 240.46,-205.96 252.42,-194.66"/>
<polygon fill="midnightblue" stroke="midnightblue" points="255.12,-196.92 259.99,-187.51 250.32,-191.83 255.12,-196.92"/>
</g>
<!-- Node10 -->
<g id="node10" class="node">
<title>Node10</title>
<g id="a_node10"><a xlink:title=" ">
<polygon fill="white" stroke="#bfbfbf" points="17,-0.5 17,-19.5 59,-19.5 59,-0.5 17,-0.5"/>
<text text-anchor="middle" x="38" y="-7.5" font-family="Helvetica,sans-Serif" font-size="10.00">array</text>
</a>
</g>
</g>
<!-- Node2&#45;&gt;Node10 -->
<g id="edge19" class="edge">
<title>Node2&#45;&gt;Node10</title>
<path fill="none" stroke="midnightblue" d="M184.83,-229.9C151.6,-215.2 87.81,-181.92 57,-132 37.34,-100.15 35.73,-54.88 36.65,-29.72"/>
<polygon fill="midnightblue" stroke="midnightblue" points="40.15,-29.86 37.19,-19.69 33.16,-29.48 40.15,-29.86"/>
</g>
<!-- Node14 -->
<g id="node14" class="node">
<title>Node14</title>
<g id="a_node14"><a xlink:title=" ">
<polygon fill="white" stroke="#bfbfbf" points="302.5,-56.5 302.5,-75.5 381.5,-75.5 381.5,-56.5 302.5,-56.5"/>
<text text-anchor="middle" x="342" y="-63.5" font-family="Helvetica,sans-Serif" font-size="10.00">fmt/format.h</text>
</a>
</g>
</g>
<!-- Node2&#45;&gt;Node14 -->
<g id="edge21" class="edge">
<title>Node2&#45;&gt;Node14</title>
<path fill="none" stroke="midnightblue" d="M205.43,-229.94C204.42,-207.68 204.79,-147.23 235,-112 249.78,-94.77 272.27,-83.98 292.83,-77.32"/>
<polygon fill="midnightblue" stroke="midnightblue" points="293.83,-80.67 302.41,-74.45 291.83,-73.96 293.83,-80.67"/>
</g>
<!-- Node17 -->
<g id="node17" class="node">
<title>Node17</title>
<g id="a_node17"><a xlink:title=" ">
<polygon fill="white" stroke="#bfbfbf" points="400,-56.5 400,-75.5 440,-75.5 440,-56.5 400,-56.5"/>
<text text-anchor="middle" x="420" y="-63.5" font-family="Helvetica,sans-Serif" font-size="10.00">span</text>
</a>
</g>
</g>
<!-- Node2&#45;&gt;Node17 -->
<g id="edge20" class="edge">
<title>Node2&#45;&gt;Node17</title>
<path fill="none" stroke="midnightblue" d="M276.4,-231.47C309.24,-224.91 346.77,-212.28 373,-188 402.53,-160.66 413.73,-112.58 417.81,-86.01"/>
<polygon fill="midnightblue" stroke="midnightblue" points="421.32,-86.13 419.18,-75.76 414.38,-85.2 421.32,-86.13"/>
</g>
<!-- Node4 -->
<g id="node4" class="node">
<title>Node4</title>
<g id="a_node4"><a xlink:href="include_2ccf_2crypto_2base64_8h.html" target="_top" xlink:title=" ">
<polygon fill="white" stroke="black" points="534,-56.5 534,-75.5 646,-75.5 646,-56.5 534,-56.5"/>
<text text-anchor="middle" x="590" y="-63.5" font-family="Helvetica,sans-Serif" font-size="10.00">ccf/crypto/base64.h</text>
</a>
</g>
</g>
<!-- Node3&#45;&gt;Node4 -->
<g id="edge3" class="edge">
<title>Node3&#45;&gt;Node4</title>
<path fill="none" stroke="midnightblue" d="M307.74,-169.56C310.87,-169.02 313.99,-168.49 317,-168 375.45,-158.54 539.09,-173.82 581,-132 592.95,-120.07 594.08,-100.17 592.91,-85.52"/>
<polygon fill="midnightblue" stroke="midnightblue" points="596.38,-85.07 591.71,-75.56 589.44,-85.91 596.38,-85.07"/>
</g>
<!-- Node7 -->
<g id="node7" class="node">
<title>Node7</title>
<g id="a_node7"><a xlink:href="include_2ccf_2ds_2json__schema_8h.html" target="_top" xlink:title=" ">
<polygon fill="white" stroke="black" points="66.5,-112.5 66.5,-131.5 187.5,-131.5 187.5,-112.5 66.5,-112.5"/>
<text text-anchor="middle" x="127" y="-119.5" font-family="Helvetica,sans-Serif" font-size="10.00">ccf/ds/json_schema.h</text>
</a>
</g>
</g>
<!-- Node3&#45;&gt;Node7 -->
<g id="edge6" class="edge">
<title>Node3&#45;&gt;Node7</title>
<path fill="none" stroke="midnightblue" d="M246.5,-168.44C222.92,-159.48 185.68,-145.31 159.04,-135.18"/>
<polygon fill="midnightblue" stroke="midnightblue" points="159.99,-131.8 149.4,-131.52 157.5,-138.34 159.99,-131.8"/>
</g>
<!-- Node3&#45;&gt;Node14 -->
<g id="edge17" class="edge">
<title>Node3&#45;&gt;Node14</title>
<path fill="none" stroke="midnightblue" d="M278.01,-168.27C286.64,-159.59 299.7,-145.65 309,-132 319.12,-117.15 328.17,-98.77 334.22,-85.35"/>
<polygon fill="midnightblue" stroke="midnightblue" points="337.59,-86.37 338.39,-75.81 331.18,-83.57 337.59,-86.37"/>
</g>
<!-- Node16 -->
<g id="node16" class="node">
<title>Node16</title>
<g id="a_node16"><a xlink:title=" ">
<polygon fill="white" stroke="#bfbfbf" points="244,-112.5 244,-131.5 300,-131.5 300,-112.5 244,-112.5"/>
<text text-anchor="middle" x="272" y="-119.5" font-family="Helvetica,sans-Serif" font-size="10.00">sstream</text>
</a>
</g>
</g>
<!-- Node3&#45;&gt;Node16 -->
<g id="edge18" class="edge">
<title>Node3&#45;&gt;Node16</title>
<path fill="none" stroke="midnightblue" d="M269.5,-168.08C269.89,-161.01 270.45,-150.86 270.95,-141.99"/>
<polygon fill="midnightblue" stroke="midnightblue" points="274.45,-141.93 271.51,-131.75 267.46,-141.54 274.45,-141.93"/>
</g>
<!-- Node5 -->
<g id="node5" class="node">
<title>Node5</title>
<g id="a_node5"><a xlink:title=" ">
<polygon fill="white" stroke="#bfbfbf" points="652,-0.5 652,-19.5 696,-19.5 696,-0.5 652,-0.5"/>
<text text-anchor="middle" x="674" y="-7.5" font-family="Helvetica,sans-Serif" font-size="10.00">string</text>
</a>
</g>
</g>
<!-- Node4&#45;&gt;Node5 -->
<g id="edge4" class="edge">
<title>Node4&#45;&gt;Node5</title>
<path fill="none" stroke="midnightblue" d="M603.5,-56.32C616.6,-47.9 636.71,-34.97 652.11,-25.07"/>
<polygon fill="midnightblue" stroke="midnightblue" points="654.02,-28.01 660.54,-19.65 650.23,-22.12 654.02,-28.01"/>
</g>
<!-- Node6 -->
<g id="node6" class="node">
<title>Node6</title>
<g id="a_node6"><a xlink:title=" ">
<polygon fill="white" stroke="#bfbfbf" points="461.5,-0.5 461.5,-19.5 508.5,-19.5 508.5,-0.5 461.5,-0.5"/>
<text text-anchor="middle" x="485" y="-7.5" font-family="Helvetica,sans-Serif" font-size="10.00">vector</text>
</a>
</g>
</g>
<!-- Node4&#45;&gt;Node6 -->
<g id="edge5" class="edge">
<title>Node4&#45;&gt;Node6</title>
<path fill="none" stroke="midnightblue" d="M573.13,-56.32C556.29,-47.66 530.19,-34.24 510.76,-24.25"/>
<polygon fill="midnightblue" stroke="midnightblue" points="512.32,-21.12 501.83,-19.65 509.12,-27.34 512.32,-21.12"/>
</g>
<!-- Node8 -->
<g id="node8" class="node">
<title>Node8</title>
<g id="a_node8"><a xlink:href="nonstd_8h.html" target="_top" xlink:title=" ">
<polygon fill="white" stroke="black" points="194,-56.5 194,-75.5 284,-75.5 284,-56.5 194,-56.5"/>
<text text-anchor="middle" x="239" y="-63.5" font-family="Helvetica,sans-Serif" font-size="10.00">ccf/ds/nonstd.h</text>
</a>
</g>
</g>
<!-- Node7&#45;&gt;Node8 -->
<g id="edge7" class="edge">
<title>Node7&#45;&gt;Node8</title>
<path fill="none" stroke="midnightblue" d="M144.99,-112.32C163.04,-103.62 191.05,-90.12 211.8,-80.11"/>
<polygon fill="midnightblue" stroke="midnightblue" points="213.56,-83.15 221.05,-75.65 210.52,-76.84 213.56,-83.15"/>
</g>
<!-- Node7&#45;&gt;Node14 -->
<g id="edge15" class="edge">
<title>Node7&#45;&gt;Node14</title>
<path fill="none" stroke="midnightblue" d="M161.07,-112.44C198.18,-103.12 257.66,-88.18 298.21,-78"/>
<polygon fill="midnightblue" stroke="midnightblue" points="299.25,-81.35 308.09,-75.52 297.54,-74.56 299.25,-81.35"/>
</g>
<!-- Node15 -->
<g id="node15" class="node">
<title>Node15</title>
<g id="a_node15"><a xlink:title=" ">
<polygon fill="white" stroke="#bfbfbf" points="66,-56.5 66,-75.5 176,-75.5 176,-56.5 66,-56.5"/>
<text text-anchor="middle" x="121" y="-63.5" font-family="Helvetica,sans-Serif" font-size="10.00">nlohmann/json.hpp</text>
</a>
</g>
</g>
<!-- Node7&#45;&gt;Node15 -->
<g id="edge16" class="edge">
<title>Node7&#45;&gt;Node15</title>
<path fill="none" stroke="midnightblue" d="M126.01,-112.08C125.21,-104.93 124.07,-94.64 123.08,-85.69"/>
<polygon fill="midnightblue" stroke="midnightblue" points="126.56,-85.3 121.97,-75.75 119.6,-86.08 126.56,-85.3"/>
</g>
<!-- Node8&#45;&gt;Node5 -->
<g id="edge11" class="edge">
<title>Node8&#45;&gt;Node5</title>
<path fill="none" stroke="midnightblue" d="M284.3,-57.42C287.58,-56.93 290.84,-56.45 294,-56 422.37,-37.91 575.83,-21.25 641.54,-14.35"/>
<polygon fill="midnightblue" stroke="midnightblue" points="642.1,-17.81 651.68,-13.29 641.37,-10.85 642.1,-17.81"/>
</g>
<!-- Node8&#45;&gt;Node6 -->
<g id="edge14" class="edge">
<title>Node8&#45;&gt;Node6</title>
<path fill="none" stroke="midnightblue" d="M277.98,-56.44C325.87,-45.93 406.3,-28.28 451.52,-18.35"/>
<polygon fill="midnightblue" stroke="midnightblue" points="452.4,-21.74 461.42,-16.18 450.9,-14.9 452.4,-21.74"/>
</g>
<!-- Node9 -->
<g id="node9" class="node">
<title>Node9</title>
<g id="a_node9"><a xlink:title=" ">
<polygon fill="white" stroke="#bfbfbf" points="114,-0.5 114,-19.5 178,-19.5 178,-0.5 114,-0.5"/>
<text text-anchor="middle" x="146" y="-7.5" font-family="Helvetica,sans-Serif" font-size="10.00">algorithm</text>
</a>
</g>
</g>
<!-- Node8&#45;&gt;Node9 -->
<g id="edge8" class="edge">
<title>Node8&#45;&gt;Node9</title>
<path fill="none" stroke="midnightblue" d="M224.06,-56.32C209.41,-47.82 186.87,-34.73 169.76,-24.8"/>
<polygon fill="midnightblue" stroke="midnightblue" points="171.31,-21.65 160.9,-19.65 167.8,-27.7 171.31,-21.65"/>
</g>
<!-- Node8&#45;&gt;Node10 -->
<g id="edge9" class="edge">
<title>Node8&#45;&gt;Node10</title>
<path fill="none" stroke="midnightblue" d="M207.15,-56.44C169.31,-46.28 106.59,-29.43 69.09,-19.35"/>
<polygon fill="midnightblue" stroke="midnightblue" points="69.78,-15.91 59.22,-16.7 67.97,-22.68 69.78,-15.91"/>
</g>
<!-- Node11 -->
<g id="node11" class="node">
<title>Node11</title>
<g id="a_node11"><a xlink:title=" ">
<polygon fill="white" stroke="#bfbfbf" points="196.5,-0.5 196.5,-19.5 245.5,-19.5 245.5,-0.5 196.5,-0.5"/>
<text text-anchor="middle" x="221" y="-7.5" font-family="Helvetica,sans-Serif" font-size="10.00">cctype</text>
</a>
</g>
</g>
<!-- Node8&#45;&gt;Node11 -->
<g id="edge10" class="edge">
<title>Node8&#45;&gt;Node11</title>
<path fill="none" stroke="midnightblue" d="M236.03,-56.08C233.62,-48.85 230.14,-38.41 227.13,-29.4"/>
<polygon fill="midnightblue" stroke="midnightblue" points="230.4,-28.13 223.92,-19.75 223.76,-30.34 230.4,-28.13"/>
</g>
<!-- Node12 -->
<g id="node12" class="node">
<title>Node12</title>
<g id="a_node12"><a xlink:title=" ">
<polygon fill="white" stroke="#bfbfbf" points="263.5,-0.5 263.5,-19.5 336.5,-19.5 336.5,-0.5 263.5,-0.5"/>
<text text-anchor="middle" x="300" y="-7.5" font-family="Helvetica,sans-Serif" font-size="10.00">string_view</text>
</a>
</g>
</g>
<!-- Node8&#45;&gt;Node12 -->
<g id="edge12" class="edge">
<title>Node8&#45;&gt;Node12</title>
<path fill="none" stroke="midnightblue" d="M248.8,-56.32C257.82,-48.34 271.41,-36.31 282.32,-26.65"/>
<polygon fill="midnightblue" stroke="midnightblue" points="284.85,-29.08 290.02,-19.83 280.21,-23.84 284.85,-29.08"/>
</g>
<!-- Node13 -->
<g id="node13" class="node">
<title>Node13</title>
<g id="a_node13"><a xlink:title=" ">
<polygon fill="white" stroke="#bfbfbf" points="354.5,-0.5 354.5,-19.5 423.5,-19.5 423.5,-0.5 354.5,-0.5"/>
<text text-anchor="middle" x="389" y="-7.5" font-family="Helvetica,sans-Serif" font-size="10.00">type_traits</text>
</a>
</g>
</g>
<!-- Node8&#45;&gt;Node13 -->
<g id="edge13" class="edge">
<title>Node8&#45;&gt;Node13</title>
<path fill="none" stroke="midnightblue" d="M262.77,-56.44C287.89,-47.4 327.71,-33.06 355.9,-22.92"/>
<polygon fill="midnightblue" stroke="midnightblue" points="357.12,-26.2 365.34,-19.52 354.75,-19.61 357.12,-26.2"/>
</g>
<!-- Node18&#45;&gt;Node5 -->
<g id="edge25" class="edge">
<title>Node18&#45;&gt;Node5</title>
<path fill="none" stroke="midnightblue" d="M571.71,-116.04C598.46,-110.59 633.32,-99.3 655,-76 666.63,-63.51 671.18,-44.28 672.94,-29.97"/>
<polygon fill="midnightblue" stroke="midnightblue" points="676.45,-30.04 673.83,-19.77 669.47,-29.43 676.45,-30.04"/>
</g>
<!-- Node18&#45;&gt;Node6 -->
<g id="edge26" class="edge">
<title>Node18&#45;&gt;Node6</title>
<path fill="none" stroke="midnightblue" d="M530.16,-112.37C522.18,-94.46 503.67,-52.92 493,-28.95"/>
<polygon fill="midnightblue" stroke="midnightblue" points="496.09,-27.3 488.83,-19.59 489.7,-30.15 496.09,-27.3"/>
</g>
<!-- Node18&#45;&gt;Node14 -->
<g id="edge23" class="edge">
<title>Node18&#45;&gt;Node14</title>
<path fill="none" stroke="midnightblue" d="M503.58,-112.44C470.72,-103.2 418.22,-88.44 382.03,-78.26"/>
<polygon fill="midnightblue" stroke="midnightblue" points="382.85,-74.85 372.28,-75.52 380.96,-81.59 382.85,-74.85"/>
</g>
<!-- Node18&#45;&gt;Node17 -->
<g id="edge24" class="edge">
<title>Node18&#45;&gt;Node17</title>
<path fill="none" stroke="midnightblue" d="M515.94,-112.44C497.43,-103.68 468.42,-89.94 447.14,-79.86"/>
<polygon fill="midnightblue" stroke="midnightblue" points="448.51,-76.63 437.98,-75.52 445.52,-82.96 448.51,-76.63"/>
</g>
<!-- Node19&#45;&gt;Node5 -->
<g id="edge38" class="edge">
<title>Node19&#45;&gt;Node5</title>
<path fill="none" stroke="midnightblue" d="M437.68,-298.46C538.76,-283.46 750,-244.31 750,-179 750,-179 750,-179 750,-121 750,-81.28 716.04,-45.5 693.52,-26.15"/>
<polygon fill="midnightblue" stroke="midnightblue" points="695.48,-23.24 685.54,-19.57 691.02,-28.63 695.48,-23.24"/>
</g>
<!-- Node19&#45;&gt;Node10 -->
<g id="edge36" class="edge">
<title>Node19&#45;&gt;Node10</title>
<path fill="none" stroke="midnightblue" d="M332.27,-299.38C226.83,-285.66 0,-248.12 0,-179 0,-179 0,-179 0,-121 0,-86.81 16.6,-49.76 27.86,-28.57"/>
<polygon fill="midnightblue" stroke="midnightblue" points="30.95,-30.22 32.72,-19.77 24.82,-26.83 30.95,-30.22"/>
</g>
<!-- Node20 -->
<g id="node20" class="node">
<title>Node20</title>
<g id="a_node20"><a xlink:href="attestation__sev__snp__endorsements_8h.html" target="_top" xlink:title=" ">
<polygon fill="white" stroke="black" points="373.5,-224.5 373.5,-254.5 488.5,-254.5 488.5,-224.5 373.5,-224.5"/>
<text text-anchor="start" x="381.5" y="-242.5" font-family="Helvetica,sans-Serif" font-size="10.00">attestation_sev_snp</text>
<text text-anchor="middle" x="431" y="-231.5" font-family="Helvetica,sans-Serif" font-size="10.00">_endorsements.h</text>
</a>
</g>
</g>
<!-- Node19&#45;&gt;Node20 -->
<g id="edge29" class="edge">
<title>Node19&#45;&gt;Node20</title>
<path fill="none" stroke="midnightblue" d="M394.98,-291.4C400.89,-283.05 408.5,-272.29 415.21,-262.81"/>
<polygon fill="midnightblue" stroke="midnightblue" points="418.12,-264.76 421.04,-254.58 412.4,-260.72 418.12,-264.76"/>
</g>
<!-- Node22 -->
<g id="node22" class="node">
<title>Node22</title>
<g id="a_node22"><a xlink:title=" ">
<polygon fill="white" stroke="#bfbfbf" points="326,-168.5 326,-187.5 364,-187.5 364,-168.5 326,-168.5"/>
<text text-anchor="middle" x="345" y="-175.5" font-family="Helvetica,sans-Serif" font-size="10.00">map</text>
</a>
</g>
</g>
<!-- Node19&#45;&gt;Node22 -->
<g id="edge37" class="edge">
<title>Node19&#45;&gt;Node22</title>
<path fill="none" stroke="midnightblue" d="M378.76,-291.08C374.55,-281.07 369.06,-267.36 365,-255 358.63,-235.6 352.87,-212.9 349.19,-197.4"/>
<polygon fill="midnightblue" stroke="midnightblue" points="352.57,-196.48 346.89,-187.53 345.75,-198.06 352.57,-196.48"/>
</g>
<!-- Node20&#45;&gt;Node3 -->
<g id="edge30" class="edge">
<title>Node20&#45;&gt;Node3</title>
<path fill="none" stroke="midnightblue" d="M392.61,-224.4C365.06,-214.28 328.33,-200.79 302.08,-191.15"/>
<polygon fill="midnightblue" stroke="midnightblue" points="303.17,-187.82 292.57,-187.66 300.75,-194.39 303.17,-187.82"/>
</g>
<!-- Node20&#45;&gt;Node5 -->
<g id="edge33" class="edge">
<title>Node20&#45;&gt;Node5</title>
<path fill="none" stroke="midnightblue" d="M476.15,-224.46C535.23,-203.25 635.73,-156.71 674,-76 680.87,-61.5 680.11,-43.06 678.08,-29.52"/>
<polygon fill="midnightblue" stroke="midnightblue" points="681.48,-28.69 676.21,-19.5 674.6,-29.97 681.48,-28.69"/>
</g>
<!-- Node20&#45;&gt;Node6 -->
<g id="edge34" class="edge">
<title>Node20&#45;&gt;Node6</title>
<path fill="none" stroke="midnightblue" d="M434.38,-224.27C443.74,-184.81 470.04,-74.02 480.57,-29.68"/>
<polygon fill="midnightblue" stroke="midnightblue" points="483.98,-30.47 482.88,-19.93 477.17,-28.85 483.98,-30.47"/>
</g>
<!-- Node20&#45;&gt;Node14 -->
<g id="edge35" class="edge">
<title>Node20&#45;&gt;Node14</title>
<path fill="none" stroke="midnightblue" d="M423.72,-224.47C407.61,-193.44 369.01,-119.05 351.24,-84.81"/>
<polygon fill="midnightblue" stroke="midnightblue" points="354.15,-82.82 346.44,-75.56 347.94,-86.05 354.15,-82.82"/>
</g>
<!-- Node21 -->
<g id="node21" class="node">
<title>Node21</title>
<g id="a_node21"><a xlink:title=" ">
<polygon fill="white" stroke="#bfbfbf" points="496,-168.5 496,-187.5 528,-187.5 528,-168.5 496,-168.5"/>
<text text-anchor="middle" x="512" y="-175.5" font-family="Helvetica,sans-Serif" font-size="10.00">list</text>
</a>
</g>
</g>
<!-- Node20&#45;&gt;Node21 -->
<g id="edge31" class="edge">
<title>Node20&#45;&gt;Node21</title>
<path fill="none" stroke="midnightblue" d="M450.2,-224.4C462.82,-215.13 479.29,-203.03 492.06,-193.65"/>
<polygon fill="midnightblue" stroke="midnightblue" points="494.23,-196.4 500.21,-187.66 490.08,-190.76 494.23,-196.4"/>
</g>
<!-- Node20&#45;&gt;Node22 -->
<g id="edge32" class="edge">
<title>Node20&#45;&gt;Node22</title>
<path fill="none" stroke="midnightblue" d="M410.62,-224.4C397.09,-215.04 379.39,-202.79 365.78,-193.38"/>
<polygon fill="midnightblue" stroke="midnightblue" points="367.73,-190.47 357.51,-187.66 363.75,-196.23 367.73,-190.47"/>
</g>
</g>
</svg>
