<?xml version="1.0" encoding="UTF-8" standalone="no"?>
<!DOCTYPE svg PUBLIC "-//W3C//DTD SVG 1.1//EN"
 "http://www.w3.org/Graphics/SVG/1.1/DTD/svg11.dtd">
<!-- Generated by graphviz version 2.43.0 (0)
 -->
<!-- Title: include/ccf/common_endpoint_registry.h Pages: 1 -->
<!--zoomable 419 -->
<svg id="main" version="1.1" xmlns="http://www.w3.org/2000/svg" xmlns:xlink="http://www.w3.org/1999/xlink" xml:space="preserve" onload="init(evt)">
<style type="text/css"><![CDATA[
.edge:hover path { stroke: red; }
.edge:hover polygon { stroke: red; fill: red; }
]]></style>
<script type="text/javascript"><![CDATA[
var edges = document.getElementsByTagName('g');
if (edges && edges.length) {
  for (var i=0;i<edges.length;i++) {
    if (edges[i].id.substr(0,4)=='edge') {
      edges[i].setAttribute('class','edge');
    }
  }
}
]]></script>
        <defs>
                <circle id="rim" cx="0" cy="0" r="7"/>
                <circle id="rim2" cx="0" cy="0" r="3.5"/>
                <g id="zoomPlus">
                        <use xlink:href="#rim" fill="#404040">
                                <set attributeName="fill" to="#808080" begin="zoomplus.mouseover" end="zoomplus.mouseout"/>
                        </use>
                        <path d="M-4,0h8M0,-4v8" fill="none" stroke="white" stroke-width="1.5" pointer-events="none"/>
                </g>
                <g id="zoomMin">
                        <use xlink:href="#rim" fill="#404040">
                                <set attributeName="fill" to="#808080" begin="zoomminus.mouseover" end="zoomminus.mouseout"/>
                        </use>
                        <path d="M-4,0h8" fill="none" stroke="white" stroke-width="1.5" pointer-events="none"/>
                </g>
                <g id="dirArrow">
                        <path fill="none" stroke="white" stroke-width="1.5" d="M0,-3.0v7 M-2.5,-0.5L0,-3.0L2.5,-0.5"/>
                </g>
               <g id="resetDef">
                       <use xlink:href="#rim2" fill="#404040">
                               <set attributeName="fill" to="#808080" begin="reset.mouseover" end="reset.mouseout"/>
                       </use>
               </g>
        </defs>

<script type="text/javascript">
var viewWidth = 2129;
var viewHeight = 419;
var sectionId = 'dynsection-1';
</script>
<script xlink:href="svgpan.js"/>
<svg id="graph" class="graph">
<g id="viewport">
<title>include/ccf/common_endpoint_registry.h</title>
<polygon fill="white" stroke="transparent" points="-4,4 -4,-415 2125,-415 2125,4 -4,4"/>
<!-- Node1 -->
<g id="node1" class="node">
<title>Node1</title>
<g id="a_node1"><a xlink:title=" ">
<polygon fill="#bfbfbf" stroke="black" points="1652.5,-380.5 1652.5,-410.5 1767.5,-410.5 1767.5,-380.5 1652.5,-380.5"/>
<text text-anchor="start" x="1660.5" y="-398.5" font-family="Helvetica,sans-Serif" font-size="10.00">include/ccf/common</text>
<text text-anchor="middle" x="1710" y="-387.5" font-family="Helvetica,sans-Serif" font-size="10.00">_endpoint_registry.h</text>
</a>
</g>
</g>
<!-- Node2 -->
<g id="node2" class="node">
<title>Node2</title>
<g id="a_node2"><a xlink:href="app__interface_8h.html" target="_top" xlink:title=" ">
<polygon fill="white" stroke="black" points="757,-190.5 757,-209.5 905,-209.5 905,-190.5 757,-190.5"/>
<text text-anchor="middle" x="831" y="-197.5" font-family="Helvetica,sans-Serif" font-size="10.00">include/ccf/app_interface.h</text>
</a>
</g>
</g>
<!-- Node1&#45;&gt;Node2 -->
<g id="edge1" class="edge">
<title>Node1&#45;&gt;Node2</title>
<path fill="none" stroke="midnightblue" d="M1642.28,-379.99C1595.54,-369.95 1531.98,-356.25 1476,-344 1245.46,-293.57 968.86,-231.83 869.15,-209.54"/>
<polygon fill="midnightblue" stroke="midnightblue" points="1641.77,-383.46 1652.28,-382.14 1643.24,-376.62 1641.77,-383.46"/>
</g>
<!-- Node19 -->
<g id="node19" class="node">
<title>Node19</title>
<g id="a_node19"><a xlink:href="common__endpoint__registry_8cpp.html" target="_top" xlink:title=" ">
<polygon fill="white" stroke="black" points="1485,-313.5 1485,-343.5 1613,-343.5 1613,-313.5 1485,-313.5"/>
<text text-anchor="start" x="1493" y="-331.5" font-family="Helvetica,sans-Serif" font-size="10.00">src/endpoints/common</text>
<text text-anchor="middle" x="1549" y="-320.5" font-family="Helvetica,sans-Serif" font-size="10.00">_endpoint_registry.cpp</text>
</a>
</g>
</g>
<!-- Node1&#45;&gt;Node19 -->
<g id="edge22" class="edge">
<title>Node1&#45;&gt;Node19</title>
<path fill="none" stroke="midnightblue" d="M1665.52,-376.54C1639.76,-366.14 1607.8,-353.24 1583.87,-343.58"/>
<polygon fill="midnightblue" stroke="midnightblue" points="1664.48,-379.9 1675.07,-380.4 1667.1,-373.41 1664.48,-379.9"/>
</g>
<!-- Node20 -->
<g id="node20" class="node">
<title>Node20</title>
<g id="a_node20"><a xlink:href="acme__challenge__frontend_8h.html" target="_top" xlink:title=" ">
<polygon fill="white" stroke="black" points="1807,-313.5 1807,-343.5 1947,-343.5 1947,-313.5 1807,-313.5"/>
<text text-anchor="start" x="1815" y="-331.5" font-family="Helvetica,sans-Serif" font-size="10.00">src/node/acme_challenge</text>
<text text-anchor="middle" x="1877" y="-320.5" font-family="Helvetica,sans-Serif" font-size="10.00">_frontend.h</text>
</a>
</g>
</g>
<!-- Node1&#45;&gt;Node20 -->
<g id="edge23" class="edge">
<title>Node1&#45;&gt;Node20</title>
<path fill="none" stroke="midnightblue" d="M1755.78,-376.68C1782.56,-366.26 1815.9,-353.28 1840.83,-343.58"/>
<polygon fill="midnightblue" stroke="midnightblue" points="1754.29,-373.51 1746.24,-380.4 1756.83,-380.03 1754.29,-373.51"/>
</g>
<!-- Node24 -->
<g id="node24" class="node">
<title>Node24</title>
<g id="a_node24"><a xlink:href="member__frontend_8h.html" target="_top" xlink:title=" ">
<polygon fill="white" stroke="black" points="2001,-246.5 2001,-276.5 2121,-276.5 2121,-246.5 2001,-246.5"/>
<text text-anchor="start" x="2009" y="-264.5" font-family="Helvetica,sans-Serif" font-size="10.00">src/node/rpc/member</text>
<text text-anchor="middle" x="2061" y="-253.5" font-family="Helvetica,sans-Serif" font-size="10.00">_frontend.h</text>
</a>
</g>
</g>
<!-- Node1&#45;&gt;Node24 -->
<g id="edge30" class="edge">
<title>Node1&#45;&gt;Node24</title>
<path fill="none" stroke="midnightblue" d="M1777.97,-388.95C1828.88,-382.83 1899.21,-370.13 1956,-344 1992.69,-327.12 2028.28,-295.23 2047.13,-276.74"/>
<polygon fill="midnightblue" stroke="midnightblue" points="1777.28,-385.51 1767.74,-390.12 1778.08,-392.46 1777.28,-385.51"/>
</g>
<!-- Node25 -->
<g id="node25" class="node">
<title>Node25</title>
<g id="a_node25"><a xlink:href="node__frontend_8h.html" target="_top" xlink:title=" ">
<polygon fill="white" stroke="black" points="1631,-319 1631,-338 1789,-338 1789,-319 1631,-319"/>
<text text-anchor="middle" x="1710" y="-326" font-family="Helvetica,sans-Serif" font-size="10.00">src/node/rpc/node_frontend.h</text>
</a>
</g>
</g>
<!-- Node1&#45;&gt;Node25 -->
<g id="edge32" class="edge">
<title>Node1&#45;&gt;Node25</title>
<path fill="none" stroke="midnightblue" d="M1710,-370.25C1710,-359.02 1710,-346.38 1710,-338.19"/>
<polygon fill="midnightblue" stroke="midnightblue" points="1706.5,-370.4 1710,-380.4 1713.5,-370.4 1706.5,-370.4"/>
</g>
<!-- Node3 -->
<g id="node3" class="node">
<title>Node3</title>
<g id="a_node3"><a xlink:href="logging_8cpp.html" target="_top" xlink:title=" ">
<polygon fill="white" stroke="black" points="942.5,-123.5 942.5,-153.5 1065.5,-153.5 1065.5,-123.5 942.5,-123.5"/>
<text text-anchor="start" x="950.5" y="-141.5" font-family="Helvetica,sans-Serif" font-size="10.00">samples/apps/logging</text>
<text text-anchor="middle" x="1004" y="-130.5" font-family="Helvetica,sans-Serif" font-size="10.00">/logging.cpp</text>
</a>
</g>
</g>
<!-- Node2&#45;&gt;Node3 -->
<g id="edge2" class="edge">
<title>Node2&#45;&gt;Node3</title>
<path fill="none" stroke="midnightblue" d="M865.59,-187.1C893.74,-177.42 933.53,-163.74 963.23,-153.52"/>
<polygon fill="midnightblue" stroke="midnightblue" points="864.1,-183.91 855.79,-190.48 866.38,-190.53 864.1,-183.91"/>
</g>
<!-- Node4 -->
<g id="node4" class="node">
<title>Node4</title>
<g id="a_node4"><a xlink:href="nobuiltins_8cpp.html" target="_top" xlink:title=" ">
<polygon fill="white" stroke="black" points="1083.5,-123.5 1083.5,-153.5 1218.5,-153.5 1218.5,-123.5 1083.5,-123.5"/>
<text text-anchor="start" x="1091.5" y="-141.5" font-family="Helvetica,sans-Serif" font-size="10.00">samples/apps/nobuiltins</text>
<text text-anchor="middle" x="1151" y="-130.5" font-family="Helvetica,sans-Serif" font-size="10.00">/nobuiltins.cpp</text>
</a>
</g>
</g>
<!-- Node2&#45;&gt;Node4 -->
<g id="edge3" class="edge">
<title>Node2&#45;&gt;Node4</title>
<path fill="none" stroke="midnightblue" d="M887.66,-188.65C937.12,-179.59 1010.83,-166.04 1075,-154 1077.77,-153.48 1080.6,-152.95 1083.46,-152.41"/>
<polygon fill="midnightblue" stroke="midnightblue" points="887,-185.22 877.79,-190.46 888.26,-192.1 887,-185.22"/>
</g>
<!-- Node5 -->
<g id="node5" class="node">
<title>Node5</title>
<g id="a_node5"><a xlink:href="executor__auth__policy_8h.html" target="_top" xlink:title=" ">
<polygon fill="white" stroke="black" points="1237,-123.5 1237,-153.5 1385,-153.5 1385,-123.5 1237,-123.5"/>
<text text-anchor="start" x="1245" y="-141.5" font-family="Helvetica,sans-Serif" font-size="10.00">src/apps/external_executor</text>
<text text-anchor="middle" x="1311" y="-130.5" font-family="Helvetica,sans-Serif" font-size="10.00">/executor_auth_policy.h</text>
</a>
</g>
</g>
<!-- Node2&#45;&gt;Node5 -->
<g id="edge4" class="edge">
<title>Node2&#45;&gt;Node5</title>
<path fill="none" stroke="midnightblue" d="M915.15,-190.94C995.64,-182.89 1120.35,-169.49 1228,-154 1230.9,-153.58 1233.85,-153.14 1236.82,-152.69"/>
<polygon fill="midnightblue" stroke="midnightblue" points="914.67,-187.47 905.07,-191.95 915.37,-194.44 914.67,-187.47"/>
</g>
<!-- Node6 -->
<g id="node6" class="node">
<title>Node6</title>
<g id="a_node6"><a xlink:href="external__executor_8cpp.html" target="_top" xlink:title=" ">
<polygon fill="white" stroke="black" points="1038,-56.5 1038,-86.5 1186,-86.5 1186,-56.5 1038,-56.5"/>
<text text-anchor="start" x="1046" y="-74.5" font-family="Helvetica,sans-Serif" font-size="10.00">src/apps/external_executor</text>
<text text-anchor="middle" x="1112" y="-63.5" font-family="Helvetica,sans-Serif" font-size="10.00">/external_executor.cpp</text>
</a>
</g>
</g>
<!-- Node2&#45;&gt;Node6 -->
<g id="edge6" class="edge">
<title>Node2&#45;&gt;Node6</title>
<path fill="none" stroke="midnightblue" d="M852.34,-184.46C864.89,-175.8 881,-164.47 895,-154 912.73,-140.74 914.3,-133.11 934,-123 966.44,-106.36 1005.1,-94.55 1038.1,-86.55"/>
<polygon fill="midnightblue" stroke="midnightblue" points="850.17,-181.71 843.91,-190.25 854.13,-187.48 850.17,-181.71"/>
</g>
<!-- Node7 -->
<g id="node7" class="node">
<title>Node7</title>
<g id="a_node7"><a xlink:href="js__generic_8cpp.html" target="_top" xlink:title=" ">
<polygon fill="white" stroke="black" points="734,-56.5 734,-86.5 844,-86.5 844,-56.5 734,-56.5"/>
<text text-anchor="start" x="742" y="-74.5" font-family="Helvetica,sans-Serif" font-size="10.00">src/apps/js_generic</text>
<text text-anchor="middle" x="789" y="-63.5" font-family="Helvetica,sans-Serif" font-size="10.00">/js_generic.cpp</text>
</a>
</g>
</g>
<!-- Node2&#45;&gt;Node7 -->
<g id="edge7" class="edge">
<title>Node2&#45;&gt;Node7</title>
<path fill="none" stroke="midnightblue" d="M800.45,-185.56C787.67,-178.22 774.15,-167.77 767,-154 755.58,-132.02 768.83,-103.54 779.15,-86.72"/>
<polygon fill="midnightblue" stroke="midnightblue" points="799.04,-188.77 809.52,-190.36 802.32,-182.59 799.04,-188.77"/>
</g>
<!-- Node8 -->
<g id="node8" class="node">
<title>Node8</title>
<g id="a_node8"><a xlink:href="js__generic__base_8cpp.html" target="_top" xlink:title=" ">
<polygon fill="white" stroke="black" points="0,-123.5 0,-153.5 118,-153.5 118,-123.5 0,-123.5"/>
<text text-anchor="start" x="8" y="-141.5" font-family="Helvetica,sans-Serif" font-size="10.00">src/apps/js_generic</text>
<text text-anchor="middle" x="59" y="-130.5" font-family="Helvetica,sans-Serif" font-size="10.00">/js_generic_base.cpp</text>
</a>
</g>
</g>
<!-- Node2&#45;&gt;Node8 -->
<g id="edge8" class="edge">
<title>Node2&#45;&gt;Node8</title>
<path fill="none" stroke="midnightblue" d="M746.95,-197.16C615.33,-193.48 352.78,-182.91 132,-154 127.52,-153.41 122.89,-152.72 118.25,-151.95"/>
<polygon fill="midnightblue" stroke="midnightblue" points="746.88,-200.66 756.97,-197.44 747.07,-193.66 746.88,-200.66"/>
</g>
<!-- Node9 -->
<g id="node9" class="node">
<title>Node9</title>
<g id="a_node9"><a xlink:href="js__generic__base_8h.html" target="_top" xlink:title=" ">
<polygon fill="white" stroke="black" points="776,-123.5 776,-153.5 886,-153.5 886,-123.5 776,-123.5"/>
<text text-anchor="start" x="784" y="-141.5" font-family="Helvetica,sans-Serif" font-size="10.00">src/apps/js_generic</text>
<text text-anchor="middle" x="831" y="-130.5" font-family="Helvetica,sans-Serif" font-size="10.00">/js_generic_base.h</text>
</a>
</g>
</g>
<!-- Node2&#45;&gt;Node9 -->
<g id="edge9" class="edge">
<title>Node2&#45;&gt;Node9</title>
<path fill="none" stroke="midnightblue" d="M831,-180.23C831,-171.59 831,-161.5 831,-153.52"/>
<polygon fill="midnightblue" stroke="midnightblue" points="827.5,-180.48 831,-190.48 834.5,-180.48 827.5,-180.48"/>
</g>
<!-- Node10 -->
<g id="node10" class="node">
<title>Node10</title>
<g id="a_node10"><a xlink:href="js__v8_8cpp.html" target="_top" xlink:title=" ">
<polygon fill="white" stroke="black" points="122,-62 122,-81 256,-81 256,-62 122,-62"/>
<text text-anchor="middle" x="189" y="-69" font-family="Helvetica,sans-Serif" font-size="10.00">src/apps/js_v8/js_v8.cpp</text>
</a>
</g>
</g>
<!-- Node2&#45;&gt;Node10 -->
<g id="edge11" class="edge">
<title>Node2&#45;&gt;Node10</title>
<path fill="none" stroke="midnightblue" d="M746.69,-199.58C576.34,-199.86 203.92,-195.64 165,-154 145.66,-133.31 168.83,-97.81 181.62,-81.36"/>
<polygon fill="midnightblue" stroke="midnightblue" points="746.88,-203.08 756.88,-199.55 746.87,-196.08 746.88,-203.08"/>
</g>
<!-- Node11 -->
<g id="node11" class="node">
<title>Node11</title>
<g id="a_node11"><a xlink:href="js__v8__base_8cpp.html" target="_top" xlink:title=" ">
<polygon fill="white" stroke="black" points="306,-123.5 306,-153.5 420,-153.5 420,-123.5 306,-123.5"/>
<text text-anchor="start" x="314" y="-141.5" font-family="Helvetica,sans-Serif" font-size="10.00">src/apps/js_v8/js_v8</text>
<text text-anchor="middle" x="363" y="-130.5" font-family="Helvetica,sans-Serif" font-size="10.00">_base.cpp</text>
</a>
</g>
</g>
<!-- Node2&#45;&gt;Node11 -->
<g id="edge12" class="edge">
<title>Node2&#45;&gt;Node11</title>
<path fill="none" stroke="midnightblue" d="M746.74,-192.16C665.16,-184.92 538.14,-172.05 429,-154 426.11,-153.52 423.15,-153 420.17,-152.44"/>
<polygon fill="midnightblue" stroke="midnightblue" points="746.69,-195.67 756.96,-193.05 747.3,-188.69 746.69,-195.67"/>
</g>
<!-- Node12 -->
<g id="node12" class="node">
<title>Node12</title>
<g id="a_node12"><a xlink:href="js__v8__base_8h.html" target="_top" xlink:title=" ">
<polygon fill="white" stroke="black" points="174,-123.5 174,-153.5 288,-153.5 288,-123.5 174,-123.5"/>
<text text-anchor="start" x="182" y="-141.5" font-family="Helvetica,sans-Serif" font-size="10.00">src/apps/js_v8/js_v8</text>
<text text-anchor="middle" x="231" y="-130.5" font-family="Helvetica,sans-Serif" font-size="10.00">_base.h</text>
</a>
</g>
</g>
<!-- Node2&#45;&gt;Node12 -->
<g id="edge13" class="edge">
<title>Node2&#45;&gt;Node12</title>
<path fill="none" stroke="midnightblue" d="M746.5,-195.33C640.89,-189.96 454.8,-177.88 297,-154 294.1,-153.56 291.14,-153.07 288.15,-152.54"/>
<polygon fill="midnightblue" stroke="midnightblue" points="746.62,-198.84 756.78,-195.85 746.97,-191.85 746.62,-198.84"/>
</g>
<!-- Node13 -->
<g id="node13" class="node">
<title>Node13</title>
<g id="a_node13"><a xlink:href="tpcc_8cpp.html" target="_top" xlink:title=" ">
<polygon fill="white" stroke="black" points="574.5,-129 574.5,-148 719.5,-148 719.5,-129 574.5,-129"/>
<text text-anchor="middle" x="647" y="-136" font-family="Helvetica,sans-Serif" font-size="10.00">src/apps/tpcc/app/tpcc.cpp</text>
</a>
</g>
</g>
<!-- Node2&#45;&gt;Node13 -->
<g id="edge15" class="edge">
<title>Node2&#45;&gt;Node13</title>
<path fill="none" stroke="midnightblue" d="M795.07,-187.38C759.3,-175.82 705.26,-158.34 673.31,-148.01"/>
<polygon fill="midnightblue" stroke="midnightblue" points="794.05,-190.73 804.64,-190.48 796.2,-184.07 794.05,-190.73"/>
</g>
<!-- Node14 -->
<g id="node14" class="node">
<title>Node14</title>
<g id="a_node14"><a xlink:href="src_2enclave_2enclave_8h.html" target="_top" xlink:title=" ">
<polygon fill="white" stroke="black" points="1602,-62 1602,-81 1724,-81 1724,-62 1602,-62"/>
<text text-anchor="middle" x="1663" y="-69" font-family="Helvetica,sans-Serif" font-size="10.00">src/enclave/enclave.h</text>
</a>
</g>
</g>
<!-- Node2&#45;&gt;Node14 -->
<g id="edge16" class="edge">
<title>Node2&#45;&gt;Node14</title>
<path fill="none" stroke="midnightblue" d="M915.44,-198.25C1050.66,-196.04 1309.21,-187.44 1394,-154 1414.6,-145.88 1413,-132.51 1433,-123 1486.9,-97.37 1554.13,-84.55 1601.95,-78.26"/>
<polygon fill="midnightblue" stroke="midnightblue" points="915.07,-194.75 905.13,-198.41 915.18,-201.75 915.07,-194.75"/>
</g>
<!-- Node16 -->
<g id="node16" class="node">
<title>Node16</title>
<g id="a_node16"><a xlink:href="no__plugins_8cpp.html" target="_top" xlink:title=" ">
<polygon fill="white" stroke="black" points="438,-129 438,-148 556,-148 556,-129 438,-129"/>
<text text-anchor="middle" x="497" y="-136" font-family="Helvetica,sans-Serif" font-size="10.00">src/js/no_plugins.cpp</text>
</a>
</g>
</g>
<!-- Node2&#45;&gt;Node16 -->
<g id="edge18" class="edge">
<title>Node2&#45;&gt;Node16</title>
<path fill="none" stroke="midnightblue" d="M766.51,-188.88C712.56,-180.22 633.61,-167.11 565,-154 555.51,-152.19 545.32,-150.09 535.78,-148.07"/>
<polygon fill="midnightblue" stroke="midnightblue" points="766.2,-192.37 776.62,-190.49 767.3,-185.46 766.2,-192.37"/>
</g>
<!-- Node18 -->
<g id="node18" class="node">
<title>Node18</title>
<g id="a_node18"><a xlink:href="user__frontend_8h.html" target="_top" xlink:title=" ">
<polygon fill="white" stroke="black" points="1441.5,-129 1441.5,-148 1596.5,-148 1596.5,-129 1441.5,-129"/>
<text text-anchor="middle" x="1519" y="-136" font-family="Helvetica,sans-Serif" font-size="10.00">src/node/rpc/user_frontend.h</text>
</a>
</g>
</g>
<!-- Node2&#45;&gt;Node18 -->
<g id="edge20" class="edge">
<title>Node2&#45;&gt;Node18</title>
<path fill="none" stroke="midnightblue" d="M915.25,-194.79C1030.89,-188.53 1245.16,-175.16 1427,-154 1440.81,-152.39 1455.73,-150.23 1469.44,-148.06"/>
<polygon fill="midnightblue" stroke="midnightblue" points="914.85,-191.31 905.05,-195.34 915.22,-198.3 914.85,-191.31"/>
</g>
<!-- Node5&#45;&gt;Node6 -->
<g id="edge5" class="edge">
<title>Node5&#45;&gt;Node6</title>
<path fill="none" stroke="midnightblue" d="M1258.12,-120.23C1225.93,-109.71 1185.33,-96.45 1155.1,-86.58"/>
<polygon fill="midnightblue" stroke="midnightblue" points="1257.23,-123.62 1267.82,-123.4 1259.4,-116.96 1257.23,-123.62"/>
</g>
<!-- Node9&#45;&gt;Node7 -->
<g id="edge10" class="edge">
<title>Node9&#45;&gt;Node7</title>
<path fill="none" stroke="midnightblue" d="M816.38,-114.87C810.3,-105.46 803.43,-94.83 798.1,-86.58"/>
<polygon fill="midnightblue" stroke="midnightblue" points="813.52,-116.9 821.89,-123.4 819.4,-113.1 813.52,-116.9"/>
</g>
<!-- Node12&#45;&gt;Node10 -->
<g id="edge14" class="edge">
<title>Node12&#45;&gt;Node10</title>
<path fill="none" stroke="midnightblue" d="M216.45,-114.97C208.92,-103.33 200.18,-89.8 194.62,-81.19"/>
<polygon fill="midnightblue" stroke="midnightblue" points="213.52,-116.9 221.89,-123.4 219.4,-113.1 213.52,-116.9"/>
</g>
<!-- Node15 -->
<g id="node15" class="node">
<title>Node15</title>
<g id="a_node15"><a xlink:href="enclave_2main_8cpp.html" target="_top" xlink:title=" ">
<polygon fill="white" stroke="black" points="1603,-0.5 1603,-19.5 1723,-19.5 1723,-0.5 1603,-0.5"/>
<text text-anchor="middle" x="1663" y="-7.5" font-family="Helvetica,sans-Serif" font-size="10.00">src/enclave/main.cpp</text>
</a>
</g>
</g>
<!-- Node14&#45;&gt;Node15 -->
<g id="edge17" class="edge">
<title>Node14&#45;&gt;Node15</title>
<path fill="none" stroke="midnightblue" d="M1663,-51.82C1663,-41 1663,-27.9 1663,-19.51"/>
<polygon fill="midnightblue" stroke="midnightblue" points="1659.5,-51.98 1663,-61.98 1666.5,-51.98 1659.5,-51.98"/>
</g>
<!-- Node17 -->
<g id="node17" class="node">
<title>Node17</title>
<g id="a_node17"><a xlink:href="wrap_8cpp.html" target="_top" xlink:title=" ">
<polygon fill="white" stroke="black" points="452.5,-62 452.5,-81 541.5,-81 541.5,-62 452.5,-62"/>
<text text-anchor="middle" x="497" y="-69" font-family="Helvetica,sans-Serif" font-size="10.00">src/js/wrap.cpp</text>
</a>
</g>
</g>
<!-- Node16&#45;&gt;Node17 -->
<g id="edge19" class="edge">
<title>Node16&#45;&gt;Node17</title>
<path fill="none" stroke="midnightblue" d="M497,-118.54C497,-106.17 497,-90.62 497,-81.13"/>
<polygon fill="midnightblue" stroke="midnightblue" points="493.5,-118.73 497,-128.73 500.5,-118.73 493.5,-118.73"/>
</g>
<!-- Node18&#45;&gt;Node14 -->
<g id="edge21" class="edge">
<title>Node18&#45;&gt;Node14</title>
<path fill="none" stroke="midnightblue" d="M1547.55,-124.61C1576.07,-111.74 1619.12,-92.31 1643.8,-81.17"/>
<polygon fill="midnightblue" stroke="midnightblue" points="1545.8,-121.56 1538.12,-128.87 1548.68,-127.94 1545.8,-121.56"/>
</g>
<!-- Node20&#45;&gt;Node14 -->
<g id="edge24" class="edge">
<title>Node20&#45;&gt;Node14</title>
<path fill="none" stroke="midnightblue" d="M1922.37,-308.49C1935.25,-300.72 1947.74,-290.36 1955,-277 1961.58,-264.9 1959.94,-258.86 1955,-246 1928.57,-177.27 1906.61,-161.76 1844,-123 1807.66,-100.5 1761.12,-87.81 1724.33,-80.77"/>
<polygon fill="midnightblue" stroke="midnightblue" points="1920.48,-305.54 1913.45,-313.46 1923.89,-311.65 1920.48,-305.54"/>
</g>
<!-- Node21 -->
<g id="node21" class="node">
<title>Node21</title>
<g id="a_node21"><a xlink:href="ccf__acme__client_8h.html" target="_top" xlink:title=" ">
<polygon fill="white" stroke="black" points="1796.5,-252 1796.5,-271 1945.5,-271 1945.5,-252 1796.5,-252"/>
<text text-anchor="middle" x="1871" y="-259" font-family="Helvetica,sans-Serif" font-size="10.00">src/node/ccf_acme_client.h</text>
</a>
</g>
</g>
<!-- Node20&#45;&gt;Node21 -->
<g id="edge25" class="edge">
<title>Node20&#45;&gt;Node21</title>
<path fill="none" stroke="midnightblue" d="M1874.76,-303.25C1873.72,-292.02 1872.56,-279.38 1871.8,-271.19"/>
<polygon fill="midnightblue" stroke="midnightblue" points="1871.29,-303.76 1875.7,-313.4 1878.26,-303.12 1871.29,-303.76"/>
</g>
<!-- Node22 -->
<g id="node22" class="node">
<title>Node22</title>
<g id="a_node22"><a xlink:href="node__state_8h.html" target="_top" xlink:title=" ">
<polygon fill="white" stroke="black" points="1677,-190.5 1677,-209.5 1801,-209.5 1801,-190.5 1677,-190.5"/>
<text text-anchor="middle" x="1739" y="-197.5" font-family="Helvetica,sans-Serif" font-size="10.00">src/node/node_state.h</text>
</a>
</g>
</g>
<!-- Node21&#45;&gt;Node22 -->
<g id="edge26" class="edge">
<title>Node21&#45;&gt;Node22</title>
<path fill="none" stroke="midnightblue" d="M1842.89,-247.83C1817.26,-236.28 1780.11,-219.53 1757.88,-209.51"/>
<polygon fill="midnightblue" stroke="midnightblue" points="1841.53,-251.06 1852.09,-251.98 1844.41,-244.67 1841.53,-251.06"/>
</g>
<!-- Node22&#45;&gt;Node14 -->
<g id="edge27" class="edge">
<title>Node22&#45;&gt;Node14</title>
<path fill="none" stroke="midnightblue" d="M1714.22,-184.89C1702.79,-177.17 1690,-166.6 1682,-154 1667.12,-130.57 1663.87,-96.74 1663.18,-81.06"/>
<polygon fill="midnightblue" stroke="midnightblue" points="1712.67,-188.05 1722.99,-190.46 1716.42,-182.14 1712.67,-188.05"/>
</g>
<!-- Node23 -->
<g id="node23" class="node">
<title>Node23</title>
<g id="a_node23"><a xlink:href="gov__effects_8h.html" target="_top" xlink:title=" ">
<polygon fill="white" stroke="black" points="1691,-129 1691,-148 1835,-148 1835,-129 1691,-129"/>
<text text-anchor="middle" x="1763" y="-136" font-family="Helvetica,sans-Serif" font-size="10.00">src/node/rpc/gov_effects.h</text>
</a>
</g>
</g>
<!-- Node22&#45;&gt;Node23 -->
<g id="edge28" class="edge">
<title>Node22&#45;&gt;Node23</title>
<path fill="none" stroke="midnightblue" d="M1746.26,-181C1750.68,-170.05 1756.11,-156.57 1759.57,-148.01"/>
<polygon fill="midnightblue" stroke="midnightblue" points="1742.93,-179.89 1742.44,-190.48 1749.43,-182.51 1742.93,-179.89"/>
</g>
<!-- Node23&#45;&gt;Node14 -->
<g id="edge29" class="edge">
<title>Node23&#45;&gt;Node14</title>
<path fill="none" stroke="midnightblue" d="M1741.11,-123.27C1721.31,-110.4 1692.81,-91.88 1676.27,-81.13"/>
<polygon fill="midnightblue" stroke="midnightblue" points="1739.22,-126.22 1749.51,-128.73 1743.04,-120.35 1739.22,-126.22"/>
</g>
<!-- Node24&#45;&gt;Node14 -->
<g id="edge31" class="edge">
<title>Node24&#45;&gt;Node14</title>
<path fill="none" stroke="midnightblue" d="M2055.26,-236.73C2046.34,-205.27 2025.97,-150.58 1987,-123 1945.76,-93.81 1805.94,-80.82 1724.08,-75.6"/>
<polygon fill="midnightblue" stroke="midnightblue" points="2051.89,-237.68 2057.86,-246.44 2058.65,-235.87 2051.89,-237.68"/>
</g>
<!-- Node25&#45;&gt;Node14 -->
<g id="edge33" class="edge">
<title>Node25&#45;&gt;Node14</title>
<path fill="none" stroke="midnightblue" d="M1682.42,-313.9C1668.46,-305.4 1652.83,-293 1645,-277 1611.32,-208.17 1646.91,-110.71 1659.17,-81.26"/>
<polygon fill="midnightblue" stroke="midnightblue" points="1680.84,-317.03 1691.26,-318.93 1684.3,-310.94 1680.84,-317.03"/>
</g>
<!-- Node26 -->
<g id="node26" class="node">
<title>Node26</title>
<g id="a_node26"><a xlink:href="jwt__key__auto__refresh_8h.html" target="_top" xlink:title=" ">
<polygon fill="white" stroke="black" points="1653.5,-246.5 1653.5,-276.5 1778.5,-276.5 1778.5,-246.5 1653.5,-246.5"/>
<text text-anchor="start" x="1661.5" y="-264.5" font-family="Helvetica,sans-Serif" font-size="10.00">src/node/jwt_key_auto</text>
<text text-anchor="middle" x="1716" y="-253.5" font-family="Helvetica,sans-Serif" font-size="10.00">_refresh.h</text>
</a>
</g>
</g>
<!-- Node25&#45;&gt;Node26 -->
<g id="edge34" class="edge">
<title>Node25&#45;&gt;Node26</title>
<path fill="none" stroke="midnightblue" d="M1711.73,-308.74C1712.68,-298.49 1713.83,-286 1714.7,-276.59"/>
<polygon fill="midnightblue" stroke="midnightblue" points="1708.24,-308.45 1710.81,-318.73 1715.21,-309.1 1708.24,-308.45"/>
</g>
<!-- Node26&#45;&gt;Node22 -->
<g id="edge35" class="edge">
<title>Node26&#45;&gt;Node22</title>
<path fill="none" stroke="midnightblue" d="M1725.12,-236.9C1728.83,-227.3 1732.89,-216.81 1735.65,-209.66"/>
<polygon fill="midnightblue" stroke="midnightblue" points="1721.79,-235.81 1721.45,-246.4 1728.32,-238.33 1721.79,-235.81"/>
</g>
</g>
</svg>
        <g id="navigator" transform="translate(0 0)" fill="#404254">
                <rect fill="#f2f5e9" fill-opacity="0.5" stroke="#606060" stroke-width=".5" x="0" y="0" width="60" height="60"/>
                <use id="zoomplus" xlink:href="#zoomPlus" x="17" y="9" onmousedown="handleZoom(evt,'in')"/>
                <use id="zoomminus" xlink:href="#zoomMin" x="42" y="9" onmousedown="handleZoom(evt,'out')"/>
                <use id="reset" xlink:href="#resetDef" x="30" y="36" onmousedown="handleReset()"/>
                <g id="arrowUp" xlink:href="#dirArrow" transform="translate(30 24)" onmousedown="handlePan(0,-1)">
                  <use xlink:href="#rim" fill="#404040">
                        <set attributeName="fill" to="#808080" begin="arrowUp.mouseover" end="arrowUp.mouseout"/>
                  </use>
                  <path fill="none" stroke="white" stroke-width="1.5" d="M0,-3.0v7 M-2.5,-0.5L0,-3.0L2.5,-0.5"/>
                </g>
                <g id="arrowRight" xlink:href="#dirArrow" transform="rotate(90) translate(36 -43)" onmousedown="handlePan(1,0)">
                  <use xlink:href="#rim" fill="#404040">
                        <set attributeName="fill" to="#808080" begin="arrowRight.mouseover" end="arrowRight.mouseout"/>
                  </use>
                  <path fill="none" stroke="white" stroke-width="1.5" d="M0,-3.0v7 M-2.5,-0.5L0,-3.0L2.5,-0.5"/>
                </g>
                <g id="arrowDown" xlink:href="#dirArrow" transform="rotate(180) translate(-30 -48)" onmousedown="handlePan(0,1)">
                  <use xlink:href="#rim" fill="#404040">
                        <set attributeName="fill" to="#808080" begin="arrowDown.mouseover" end="arrowDown.mouseout"/>
                  </use>
                  <path fill="none" stroke="white" stroke-width="1.5" d="M0,-3.0v7 M-2.5,-0.5L0,-3.0L2.5,-0.5"/>
                </g>
                <g id="arrowLeft" xlink:href="#dirArrow" transform="rotate(270) translate(-36 17)" onmousedown="handlePan(-1,0)">
                  <use xlink:href="#rim" fill="#404040">
                        <set attributeName="fill" to="#808080" begin="arrowLeft.mouseover" end="arrowLeft.mouseout"/>
                  </use>
                  <path fill="none" stroke="white" stroke-width="1.5" d="M0,-3.0v7 M-2.5,-0.5L0,-3.0L2.5,-0.5"/>
                </g>
        </g>
        <svg viewBox="0 0 15 15" width="100%" height="30px" preserveAspectRatio="xMaxYMin meet">
         <g id="arrow_out" transform="scale(0.3 0.3)">
          <a xlink:href="common__endpoint__registry_8h__dep__incl_org.svg" target="_base">
           <rect id="button" ry="5" rx="5" y="6" x="6" height="38" width="38"
                fill="#f2f5e9" fill-opacity="0.5" stroke="#606060" stroke-width="1.0"/>
           <path id="arrow"
             d="M 11.500037,31.436501 C 11.940474,20.09759 22.043105,11.32322 32.158766,21.979434 L 37.068811,17.246167 C 37.068811,17.246167 37.088388,32 37.088388,32 L 22.160133,31.978069 C 22.160133,31.978069 26.997745,27.140456 26.997745,27.140456 C 18.528582,18.264221 13.291696,25.230495 11.500037,31.436501 z"
             style="fill:#404040;"/>
          </a>
         </g>
        </svg>
</svg>
