<?xml version="1.0" encoding="UTF-8" standalone="no"?>
<!DOCTYPE svg PUBLIC "-//W3C//DTD SVG 1.1//EN"
 "http://www.w3.org/Graphics/SVG/1.1/DTD/svg11.dtd">
<!-- Generated by graphviz version 2.43.0 (0)
 -->
<!-- Title: src/kv/committable_tx.h Pages: 1 -->
<svg width="2572pt" height="665pt"
 viewBox="0.00 0.00 2571.98 665.00" xmlns="http://www.w3.org/2000/svg" xmlns:xlink="http://www.w3.org/1999/xlink">
<g id="graph0" class="graph" transform="scale(1 1) rotate(0) translate(4 661)">
<title>src/kv/committable_tx.h</title>
<polygon fill="white" stroke="transparent" points="-4,4 -4,-661 2567.98,-661 2567.98,4 -4,4"/>
<!-- Node1 -->
<g id="node1" class="node">
<title>Node1</title>
<g id="a_node1"><a xlink:title=" ">
<polygon fill="#bfbfbf" stroke="black" points="1830,-637.5 1830,-656.5 1965,-656.5 1965,-637.5 1830,-637.5"/>
<text text-anchor="middle" x="1897.5" y="-644.5" font-family="Helvetica,sans-Serif" font-size="10.00">src/kv/committable_tx.h</text>
</a>
</g>
</g>
<!-- Node2 -->
<g id="node2" class="node">
<title>Node2</title>
<g id="a_node2"><a xlink:href="deserialise_8h.html" target="_top" xlink:title=" ">
<polygon fill="white" stroke="black" points="1842,-576 1842,-595 1953,-595 1953,-576 1842,-576"/>
<text text-anchor="middle" x="1897.5" y="-583" font-family="Helvetica,sans-Serif" font-size="10.00">src/kv/deserialise.h</text>
</a>
</g>
</g>
<!-- Node1&#45;&gt;Node2 -->
<g id="edge1" class="edge">
<title>Node1&#45;&gt;Node2</title>
<path fill="none" stroke="midnightblue" d="M1897.5,-627.32C1897.5,-616.5 1897.5,-603.4 1897.5,-595.01"/>
<polygon fill="midnightblue" stroke="midnightblue" points="1894,-627.48 1897.5,-637.48 1901,-627.48 1894,-627.48"/>
</g>
<!-- Node3 -->
<g id="node3" class="node">
<title>Node3</title>
<g id="a_node3"><a xlink:href="store_8h.html" target="_top" xlink:title=" ">
<polygon fill="white" stroke="black" points="1772,-509 1772,-528 1855,-528 1855,-509 1772,-509"/>
<text text-anchor="middle" x="1813.5" y="-516" font-family="Helvetica,sans-Serif" font-size="10.00">src/kv/store.h</text>
</a>
</g>
</g>
<!-- Node1&#45;&gt;Node3 -->
<g id="edge78" class="edge">
<title>Node1&#45;&gt;Node3</title>
<path fill="none" stroke="midnightblue" d="M1868.97,-632.45C1856,-624.91 1841.57,-614.33 1832.5,-601 1816.9,-578.05 1814,-543.98 1813.53,-528.16"/>
<polygon fill="midnightblue" stroke="midnightblue" points="1867.6,-635.68 1878.05,-637.39 1870.94,-629.54 1867.6,-635.68"/>
</g>
<!-- Node41 -->
<g id="node41" class="node">
<title>Node41</title>
<g id="a_node41"><a xlink:href="endpoint__context__impl_8h.html" target="_top" xlink:title=" ">
<polygon fill="white" stroke="black" points="2205.5,-570.5 2205.5,-600.5 2351.5,-600.5 2351.5,-570.5 2205.5,-570.5"/>
<text text-anchor="start" x="2213.5" y="-588.5" font-family="Helvetica,sans-Serif" font-size="10.00">src/node/endpoint_context</text>
<text text-anchor="middle" x="2278.5" y="-577.5" font-family="Helvetica,sans-Serif" font-size="10.00">_impl.h</text>
</a>
</g>
</g>
<!-- Node1&#45;&gt;Node41 -->
<g id="edge79" class="edge">
<title>Node1&#45;&gt;Node41</title>
<path fill="none" stroke="midnightblue" d="M1962.16,-635.9C2029.57,-625.37 2135.02,-608.91 2205.41,-597.91"/>
<polygon fill="midnightblue" stroke="midnightblue" points="1961.43,-632.47 1952.09,-637.48 1962.51,-639.39 1961.43,-632.47"/>
</g>
<!-- Node2&#45;&gt;Node3 -->
<g id="edge2" class="edge">
<title>Node2&#45;&gt;Node3</title>
<path fill="none" stroke="midnightblue" d="M1878.2,-569.57C1861.62,-556.74 1838.29,-538.69 1824.65,-528.13"/>
<polygon fill="midnightblue" stroke="midnightblue" points="1876.12,-572.38 1886.17,-575.73 1880.4,-566.85 1876.12,-572.38"/>
</g>
<!-- Node4 -->
<g id="node4" class="node">
<title>Node4</title>
<g id="a_node4"><a xlink:href="indexer_8h.html" target="_top" xlink:title=" ">
<polygon fill="white" stroke="black" points="1820,-442 1820,-461 1943,-461 1943,-442 1820,-442"/>
<text text-anchor="middle" x="1881.5" y="-449" font-family="Helvetica,sans-Serif" font-size="10.00">src/indexing/indexer.h</text>
</a>
</g>
</g>
<!-- Node3&#45;&gt;Node4 -->
<g id="edge3" class="edge">
<title>Node3&#45;&gt;Node4</title>
<path fill="none" stroke="midnightblue" d="M1830.24,-501.5C1843.58,-488.75 1861.73,-471.39 1872.47,-461.13"/>
<polygon fill="midnightblue" stroke="midnightblue" points="1827.48,-499.29 1822.67,-508.73 1832.32,-504.35 1827.48,-499.29"/>
</g>
<!-- Node9 -->
<g id="node9" class="node">
<title>Node9</title>
<g id="a_node9"><a xlink:href="visit__each__entry__in__map_8cpp.html" target="_top" xlink:title=" ">
<polygon fill="white" stroke="black" points="1961,-436.5 1961,-466.5 2122,-466.5 2122,-436.5 1961,-436.5"/>
<text text-anchor="start" x="1969" y="-454.5" font-family="Helvetica,sans-Serif" font-size="10.00">src/indexing/strategies</text>
<text text-anchor="middle" x="2041.5" y="-443.5" font-family="Helvetica,sans-Serif" font-size="10.00">/visit_each_entry_in_map.cpp</text>
</a>
</g>
</g>
<!-- Node3&#45;&gt;Node9 -->
<g id="edge9" class="edge">
<title>Node3&#45;&gt;Node9</title>
<path fill="none" stroke="midnightblue" d="M1853.64,-506.06C1892.29,-495.04 1950.85,-478.34 1992.29,-466.53"/>
<polygon fill="midnightblue" stroke="midnightblue" points="1852.43,-502.76 1843.78,-508.87 1854.35,-509.49 1852.43,-502.76"/>
</g>
<!-- Node10 -->
<g id="node10" class="node">
<title>Node10</title>
<g id="a_node10"><a xlink:href="historical__queries_8h.html" target="_top" xlink:title=" ">
<polygon fill="white" stroke="black" points="269.5,-302.5 269.5,-332.5 375.5,-332.5 375.5,-302.5 269.5,-302.5"/>
<text text-anchor="start" x="277.5" y="-320.5" font-family="Helvetica,sans-Serif" font-size="10.00">src/node/historical</text>
<text text-anchor="middle" x="322.5" y="-309.5" font-family="Helvetica,sans-Serif" font-size="10.00">_queries.h</text>
</a>
</g>
</g>
<!-- Node3&#45;&gt;Node10 -->
<g id="edge10" class="edge">
<title>Node3&#45;&gt;Node10</title>
<path fill="none" stroke="midnightblue" d="M1761.79,-514.92C1552.39,-504.16 767.09,-460.51 526.5,-400 461.4,-383.63 389.39,-351.25 350.74,-332.61"/>
<polygon fill="midnightblue" stroke="midnightblue" points="1761.74,-518.42 1771.9,-515.44 1762.09,-511.43 1761.74,-518.42"/>
</g>
<!-- Node12 -->
<g id="node12" class="node">
<title>Node12</title>
<g id="a_node12"><a xlink:href="history_8h.html" target="_top" xlink:title=" ">
<polygon fill="white" stroke="black" points="1127.5,-442 1127.5,-461 1229.5,-461 1229.5,-442 1127.5,-442"/>
<text text-anchor="middle" x="1178.5" y="-449" font-family="Helvetica,sans-Serif" font-size="10.00">src/node/history.h</text>
</a>
</g>
</g>
<!-- Node3&#45;&gt;Node12 -->
<g id="edge14" class="edge">
<title>Node3&#45;&gt;Node12</title>
<path fill="none" stroke="midnightblue" d="M1761.86,-512.21C1642.55,-500 1348.89,-469.94 1229.86,-457.76"/>
<polygon fill="midnightblue" stroke="midnightblue" points="1761.53,-515.7 1771.84,-513.24 1762.24,-508.73 1761.53,-515.7"/>
</g>
<!-- Node14 -->
<g id="node14" class="node">
<title>Node14</title>
<g id="a_node14"><a xlink:href="snapshotter_8h.html" target="_top" xlink:title=" ">
<polygon fill="white" stroke="black" points="1361,-241 1361,-260 1488,-260 1488,-241 1361,-241"/>
<text text-anchor="middle" x="1424.5" y="-248" font-family="Helvetica,sans-Serif" font-size="10.00">src/node/snapshotter.h</text>
</a>
</g>
</g>
<!-- Node3&#45;&gt;Node14 -->
<g id="edge41" class="edge">
<title>Node3&#45;&gt;Node14</title>
<path fill="none" stroke="midnightblue" d="M1761.91,-506.69C1694.98,-490.97 1576.5,-457.25 1489.5,-400 1455.36,-377.53 1442.02,-370.81 1426.5,-333 1416.39,-308.39 1420.05,-275.97 1422.71,-260.49"/>
<polygon fill="midnightblue" stroke="midnightblue" points="1761.27,-510.13 1771.8,-508.97 1762.84,-503.31 1761.27,-510.13"/>
</g>
<!-- Node20 -->
<g id="node20" class="node">
<title>Node20</title>
<g id="a_node20"><a xlink:href="frontend_8h.html" target="_top" xlink:title=" ">
<polygon fill="white" stroke="black" points="2230,-375 2230,-394 2359,-394 2359,-375 2230,-375"/>
<text text-anchor="middle" x="2294.5" y="-382" font-family="Helvetica,sans-Serif" font-size="10.00">src/node/rpc/frontend.h</text>
</a>
</g>
</g>
<!-- Node3&#45;&gt;Node20 -->
<g id="edge27" class="edge">
<title>Node3&#45;&gt;Node20</title>
<path fill="none" stroke="midnightblue" d="M1865.31,-514.15C1929.2,-508.93 2040.49,-496.21 2131.5,-467 2189.94,-448.24 2253.42,-411.11 2280.73,-394.22"/>
<polygon fill="midnightblue" stroke="midnightblue" points="1864.79,-510.68 1855.09,-514.96 1865.34,-517.66 1864.79,-510.68"/>
</g>
<!-- Node27 -->
<g id="node27" class="node">
<title>Node27</title>
<g id="a_node27"><a xlink:href="network__tables_8h.html" target="_top" xlink:title=" ">
<polygon fill="white" stroke="black" points="1689.5,-436.5 1689.5,-466.5 1801.5,-466.5 1801.5,-436.5 1689.5,-436.5"/>
<text text-anchor="start" x="1697.5" y="-454.5" font-family="Helvetica,sans-Serif" font-size="10.00">src/service/network</text>
<text text-anchor="middle" x="1745.5" y="-443.5" font-family="Helvetica,sans-Serif" font-size="10.00">_tables.h</text>
</a>
</g>
</g>
<!-- Node3&#45;&gt;Node27 -->
<g id="edge42" class="edge">
<title>Node3&#45;&gt;Node27</title>
<path fill="none" stroke="midnightblue" d="M1796.88,-501.62C1785.68,-490.91 1771.03,-476.9 1760.24,-466.59"/>
<polygon fill="midnightblue" stroke="midnightblue" points="1794.68,-504.35 1804.33,-508.73 1799.52,-499.29 1794.68,-504.35"/>
</g>
<!-- Node5 -->
<g id="node5" class="node">
<title>Node5</title>
<g id="a_node5"><a xlink:href="node__state_8h.html" target="_top" xlink:title=" ">
<polygon fill="white" stroke="black" points="1584.5,-179.5 1584.5,-198.5 1708.5,-198.5 1708.5,-179.5 1584.5,-179.5"/>
<text text-anchor="middle" x="1646.5" y="-186.5" font-family="Helvetica,sans-Serif" font-size="10.00">src/node/node_state.h</text>
</a>
</g>
</g>
<!-- Node4&#45;&gt;Node5 -->
<g id="edge4" class="edge">
<title>Node4&#45;&gt;Node5</title>
<path fill="none" stroke="midnightblue" d="M1926.63,-439.36C2032.37,-411.29 2280.62,-332.89 2190.5,-235 2158.41,-200.14 1844.43,-192.28 1708.6,-190.51"/>
<polygon fill="midnightblue" stroke="midnightblue" points="1925.64,-436 1916.86,-441.91 1927.42,-442.77 1925.64,-436"/>
</g>
<!-- Node6 -->
<g id="node6" class="node">
<title>Node6</title>
<g id="a_node6"><a xlink:href="src_2enclave_2enclave_8h.html" target="_top" xlink:title=" ">
<polygon fill="white" stroke="black" points="1552.5,-56.5 1552.5,-75.5 1674.5,-75.5 1674.5,-56.5 1552.5,-56.5"/>
<text text-anchor="middle" x="1613.5" y="-63.5" font-family="Helvetica,sans-Serif" font-size="10.00">src/enclave/enclave.h</text>
</a>
</g>
</g>
<!-- Node5&#45;&gt;Node6 -->
<g id="edge5" class="edge">
<title>Node5&#45;&gt;Node6</title>
<path fill="none" stroke="midnightblue" d="M1615.95,-174.56C1603.17,-167.22 1589.65,-156.77 1582.5,-143 1570.28,-119.48 1592.18,-90.02 1605.07,-75.66"/>
<polygon fill="midnightblue" stroke="midnightblue" points="1614.54,-177.77 1625.02,-179.36 1617.82,-171.59 1614.54,-177.77"/>
</g>
<!-- Node8 -->
<g id="node8" class="node">
<title>Node8</title>
<g id="a_node8"><a xlink:href="gov__effects_8h.html" target="_top" xlink:title=" ">
<polygon fill="white" stroke="black" points="1591.5,-118 1591.5,-137 1735.5,-137 1735.5,-118 1591.5,-118"/>
<text text-anchor="middle" x="1663.5" y="-125" font-family="Helvetica,sans-Serif" font-size="10.00">src/node/rpc/gov_effects.h</text>
</a>
</g>
</g>
<!-- Node5&#45;&gt;Node8 -->
<g id="edge7" class="edge">
<title>Node5&#45;&gt;Node8</title>
<path fill="none" stroke="midnightblue" d="M1651.74,-169.66C1654.85,-158.77 1658.65,-145.49 1661.07,-137.01"/>
<polygon fill="midnightblue" stroke="midnightblue" points="1648.32,-168.9 1648.94,-179.48 1655.05,-170.82 1648.32,-168.9"/>
</g>
<!-- Node7 -->
<g id="node7" class="node">
<title>Node7</title>
<g id="a_node7"><a xlink:href="enclave_2main_8cpp.html" target="_top" xlink:title=" ">
<polygon fill="white" stroke="black" points="1553.5,-0.5 1553.5,-19.5 1673.5,-19.5 1673.5,-0.5 1553.5,-0.5"/>
<text text-anchor="middle" x="1613.5" y="-7.5" font-family="Helvetica,sans-Serif" font-size="10.00">src/enclave/main.cpp</text>
</a>
</g>
</g>
<!-- Node6&#45;&gt;Node7 -->
<g id="edge6" class="edge">
<title>Node6&#45;&gt;Node7</title>
<path fill="none" stroke="midnightblue" d="M1613.5,-45.8C1613.5,-36.91 1613.5,-26.78 1613.5,-19.75"/>
<polygon fill="midnightblue" stroke="midnightblue" points="1610,-46.08 1613.5,-56.08 1617,-46.08 1610,-46.08"/>
</g>
<!-- Node8&#45;&gt;Node6 -->
<g id="edge8" class="edge">
<title>Node8&#45;&gt;Node6</title>
<path fill="none" stroke="midnightblue" d="M1649.78,-110.17C1640.35,-98.95 1628.22,-84.52 1620.65,-75.51"/>
<polygon fill="midnightblue" stroke="midnightblue" points="1647.22,-112.57 1656.34,-117.98 1652.58,-108.07 1647.22,-112.57"/>
</g>
<!-- Node10&#45;&gt;Node6 -->
<g id="edge11" class="edge">
<title>Node10&#45;&gt;Node6</title>
<path fill="none" stroke="midnightblue" d="M259.43,-305.47C206.09,-293.39 142.72,-270.83 172.5,-235 363.5,-5.19 536.86,-148.01 833.5,-112 1099.95,-79.66 1420.5,-70.43 1552.34,-67.9"/>
<polygon fill="midnightblue" stroke="midnightblue" points="258.73,-308.9 269.25,-307.6 260.22,-302.06 258.73,-308.9"/>
</g>
<!-- Node11 -->
<g id="node11" class="node">
<title>Node11</title>
<g id="a_node11"><a xlink:href="historical__transaction__fetcher_8h.html" target="_top" xlink:title=" ">
<polygon fill="white" stroke="black" points="0,-112.5 0,-142.5 125,-142.5 125,-112.5 0,-112.5"/>
<text text-anchor="start" x="8" y="-130.5" font-family="Helvetica,sans-Serif" font-size="10.00">src/indexing/historical</text>
<text text-anchor="middle" x="62.5" y="-119.5" font-family="Helvetica,sans-Serif" font-size="10.00">_transaction_fetcher.h</text>
</a>
</g>
</g>
<!-- Node10&#45;&gt;Node11 -->
<g id="edge12" class="edge">
<title>Node10&#45;&gt;Node11</title>
<path fill="none" stroke="midnightblue" d="M259.15,-311.29C221.13,-305.37 173.67,-292.78 139.5,-266 97.51,-233.09 74.81,-170.54 66.38,-142.59"/>
<polygon fill="midnightblue" stroke="midnightblue" points="258.71,-314.76 269.1,-312.72 259.7,-307.83 258.71,-314.76"/>
</g>
<!-- Node11&#45;&gt;Node6 -->
<g id="edge13" class="edge">
<title>Node11&#45;&gt;Node6</title>
<path fill="none" stroke="midnightblue" d="M135.59,-112.45C136.9,-112.29 138.21,-112.14 139.5,-112 419.95,-81.5 1309.86,-70.16 1552.1,-67.6"/>
<polygon fill="midnightblue" stroke="midnightblue" points="134.85,-109.02 125.41,-113.83 135.79,-115.95 134.85,-109.02"/>
</g>
<!-- Node12&#45;&gt;Node5 -->
<g id="edge16" class="edge">
<title>Node12&#45;&gt;Node5</title>
<path fill="none" stroke="midnightblue" d="M1175.05,-431.69C1170.53,-400.82 1166.47,-339.14 1197.5,-302 1231.57,-261.23 1264.44,-290.66 1311.5,-266 1331.42,-255.56 1330.83,-243.87 1351.5,-235 1427.32,-202.47 1522.96,-193 1584.43,-190.48"/>
<polygon fill="midnightblue" stroke="midnightblue" points="1171.65,-432.6 1176.73,-441.9 1178.56,-431.46 1171.65,-432.6"/>
</g>
<!-- Node12&#45;&gt;Node10 -->
<g id="edge15" class="edge">
<title>Node12&#45;&gt;Node10</title>
<path fill="none" stroke="midnightblue" d="M1117.28,-446.82C1022.4,-440.57 834.32,-425.94 676.5,-400 545.11,-378.41 514.22,-363.05 384.5,-333 381.59,-332.33 378.61,-331.63 375.6,-330.93"/>
<polygon fill="midnightblue" stroke="midnightblue" points="1117.07,-450.32 1127.27,-447.47 1117.52,-443.33 1117.07,-450.32"/>
</g>
<!-- Node13 -->
<g id="node13" class="node">
<title>Node13</title>
<g id="a_node13"><a xlink:href="snapshot__serdes_8h.html" target="_top" xlink:title=" ">
<polygon fill="white" stroke="black" points="1206.5,-308 1206.5,-327 1358.5,-327 1358.5,-308 1206.5,-308"/>
<text text-anchor="middle" x="1282.5" y="-315" font-family="Helvetica,sans-Serif" font-size="10.00">src/node/snapshot_serdes.h</text>
</a>
</g>
</g>
<!-- Node12&#45;&gt;Node13 -->
<g id="edge17" class="edge">
<title>Node12&#45;&gt;Node13</title>
<path fill="none" stroke="midnightblue" d="M1191.77,-433.66C1214.2,-405.18 1258.86,-348.5 1275.79,-327.02"/>
<polygon fill="midnightblue" stroke="midnightblue" points="1188.76,-431.82 1185.32,-441.84 1194.26,-436.15 1188.76,-431.82"/>
</g>
<!-- Node15 -->
<g id="node15" class="node">
<title>Node15</title>
<g id="a_node15"><a xlink:href="tx__receipt__impl_8h.html" target="_top" xlink:title=" ">
<polygon fill="white" stroke="black" points="685.5,-369.5 685.5,-399.5 795.5,-399.5 795.5,-369.5 685.5,-369.5"/>
<text text-anchor="start" x="693.5" y="-387.5" font-family="Helvetica,sans-Serif" font-size="10.00">src/node/tx_receipt</text>
<text text-anchor="middle" x="740.5" y="-376.5" font-family="Helvetica,sans-Serif" font-size="10.00">_impl.h</text>
</a>
</g>
</g>
<!-- Node12&#45;&gt;Node15 -->
<g id="edge20" class="edge">
<title>Node12&#45;&gt;Node15</title>
<path fill="none" stroke="midnightblue" d="M1117.32,-441.42C1031.84,-428.73 877.92,-405.89 795.74,-393.7"/>
<polygon fill="midnightblue" stroke="midnightblue" points="1116.99,-444.91 1127.4,-442.92 1118.02,-437.99 1116.99,-444.91"/>
</g>
<!-- Node13&#45;&gt;Node14 -->
<g id="edge18" class="edge">
<title>Node13&#45;&gt;Node14</title>
<path fill="none" stroke="midnightblue" d="M1310.65,-303.61C1338.78,-290.74 1381.23,-271.31 1405.57,-260.17"/>
<polygon fill="midnightblue" stroke="midnightblue" points="1308.99,-300.52 1301.36,-307.87 1311.91,-306.89 1308.99,-300.52"/>
</g>
<!-- Node14&#45;&gt;Node5 -->
<g id="edge19" class="edge">
<title>Node14&#45;&gt;Node5</title>
<path fill="none" stroke="midnightblue" d="M1466.2,-238.32C1509.33,-226.76 1575.71,-208.97 1614.75,-198.51"/>
<polygon fill="midnightblue" stroke="midnightblue" points="1465.06,-235.01 1456.31,-240.98 1466.87,-241.77 1465.06,-235.01"/>
</g>
<!-- Node15&#45;&gt;Node10 -->
<g id="edge24" class="edge">
<title>Node15&#45;&gt;Node10</title>
<path fill="none" stroke="midnightblue" d="M675.14,-376C603.52,-367.36 485.38,-351.91 384.5,-333 381.57,-332.45 378.56,-331.85 375.53,-331.23"/>
<polygon fill="midnightblue" stroke="midnightblue" points="675.02,-379.51 685.36,-377.22 675.85,-372.56 675.02,-379.51"/>
</g>
<!-- Node15&#45;&gt;Node13 -->
<g id="edge26" class="edge">
<title>Node15&#45;&gt;Node13</title>
<path fill="none" stroke="midnightblue" d="M805.91,-375.66C908.25,-363.38 1105.47,-339.73 1211.28,-327.04"/>
<polygon fill="midnightblue" stroke="midnightblue" points="805.22,-372.21 795.7,-376.88 806.05,-379.16 805.22,-372.21"/>
</g>
<!-- Node16 -->
<g id="node16" class="node">
<title>Node16</title>
<g id="a_node16"><a xlink:href="src_2apps_2js__v8_2tmpl_2receipt_8h.html" target="_top" xlink:title=" ">
<polygon fill="white" stroke="black" points="394,-302.5 394,-332.5 505,-332.5 505,-302.5 394,-302.5"/>
<text text-anchor="start" x="402" y="-320.5" font-family="Helvetica,sans-Serif" font-size="10.00">src/apps/js_v8/tmpl</text>
<text text-anchor="middle" x="449.5" y="-309.5" font-family="Helvetica,sans-Serif" font-size="10.00">/receipt.h</text>
</a>
</g>
</g>
<!-- Node15&#45;&gt;Node16 -->
<g id="edge21" class="edge">
<title>Node15&#45;&gt;Node16</title>
<path fill="none" stroke="midnightblue" d="M675.47,-368.97C624.36,-357.56 553.92,-341.82 505.34,-330.97"/>
<polygon fill="midnightblue" stroke="midnightblue" points="674.9,-372.43 685.42,-371.2 676.43,-365.6 674.9,-372.43"/>
</g>
<!-- Node19 -->
<g id="node19" class="node">
<title>Node19</title>
<g id="a_node19"><a xlink:href="historical__queries__adapter_8cpp.html" target="_top" xlink:title=" ">
<polygon fill="white" stroke="black" points="680.5,-302.5 680.5,-332.5 800.5,-332.5 800.5,-302.5 680.5,-302.5"/>
<text text-anchor="start" x="688.5" y="-320.5" font-family="Helvetica,sans-Serif" font-size="10.00">src/node/historical</text>
<text text-anchor="middle" x="740.5" y="-309.5" font-family="Helvetica,sans-Serif" font-size="10.00">_queries_adapter.cpp</text>
</a>
</g>
</g>
<!-- Node15&#45;&gt;Node19 -->
<g id="edge25" class="edge">
<title>Node15&#45;&gt;Node19</title>
<path fill="none" stroke="midnightblue" d="M740.5,-359.11C740.5,-350.15 740.5,-340.32 740.5,-332.58"/>
<polygon fill="midnightblue" stroke="midnightblue" points="737,-359.4 740.5,-369.4 744,-359.4 737,-359.4"/>
</g>
<!-- Node17 -->
<g id="node17" class="node">
<title>Node17</title>
<g id="a_node17"><a xlink:href="historical__state_8cpp.html" target="_top" xlink:title=" ">
<polygon fill="white" stroke="black" points="182,-235.5 182,-265.5 297,-265.5 297,-235.5 182,-235.5"/>
<text text-anchor="start" x="190" y="-253.5" font-family="Helvetica,sans-Serif" font-size="10.00">src/apps/js_v8/tmpl</text>
<text text-anchor="middle" x="239.5" y="-242.5" font-family="Helvetica,sans-Serif" font-size="10.00">/historical_state.cpp</text>
</a>
</g>
</g>
<!-- Node16&#45;&gt;Node17 -->
<g id="edge22" class="edge">
<title>Node16&#45;&gt;Node17</title>
<path fill="none" stroke="midnightblue" d="M394.4,-299.44C360.36,-288.91 317.2,-275.55 285.09,-265.61"/>
<polygon fill="midnightblue" stroke="midnightblue" points="393.6,-302.86 404.19,-302.48 395.67,-296.18 393.6,-302.86"/>
</g>
<!-- Node18 -->
<g id="node18" class="node">
<title>Node18</title>
<g id="a_node18"><a xlink:href="apps_2js__v8_2tmpl_2receipt_8cpp.html" target="_top" xlink:title=" ">
<polygon fill="white" stroke="black" points="315,-235.5 315,-265.5 426,-265.5 426,-235.5 315,-235.5"/>
<text text-anchor="start" x="323" y="-253.5" font-family="Helvetica,sans-Serif" font-size="10.00">src/apps/js_v8/tmpl</text>
<text text-anchor="middle" x="370.5" y="-242.5" font-family="Helvetica,sans-Serif" font-size="10.00">/receipt.cpp</text>
</a>
</g>
</g>
<!-- Node16&#45;&gt;Node18 -->
<g id="edge23" class="edge">
<title>Node16&#45;&gt;Node18</title>
<path fill="none" stroke="midnightblue" d="M424.44,-295.88C412.44,-286.01 398.37,-274.43 387.61,-265.58"/>
<polygon fill="midnightblue" stroke="midnightblue" points="422.41,-298.75 432.36,-302.4 426.86,-293.34 422.41,-298.75"/>
</g>
<!-- Node20&#45;&gt;Node5 -->
<g id="edge32" class="edge">
<title>Node20&#45;&gt;Node5</title>
<path fill="none" stroke="midnightblue" d="M2369.15,-383.37C2462.73,-380.58 2604.92,-366.13 2552.5,-302 2498.96,-236.5 1904.57,-202.35 1708.69,-192.82"/>
<polygon fill="midnightblue" stroke="midnightblue" points="2369.03,-379.87 2359.12,-383.63 2369.21,-386.87 2369.03,-379.87"/>
</g>
<!-- Node21 -->
<g id="node21" class="node">
<title>Node21</title>
<g id="a_node21"><a xlink:href="acme__challenge__frontend_8h.html" target="_top" xlink:title=" ">
<polygon fill="white" stroke="black" points="2229.5,-302.5 2229.5,-332.5 2369.5,-332.5 2369.5,-302.5 2229.5,-302.5"/>
<text text-anchor="start" x="2237.5" y="-320.5" font-family="Helvetica,sans-Serif" font-size="10.00">src/node/acme_challenge</text>
<text text-anchor="middle" x="2299.5" y="-309.5" font-family="Helvetica,sans-Serif" font-size="10.00">_frontend.h</text>
</a>
</g>
</g>
<!-- Node20&#45;&gt;Node21 -->
<g id="edge28" class="edge">
<title>Node20&#45;&gt;Node21</title>
<path fill="none" stroke="midnightblue" d="M2295.94,-364.74C2296.73,-354.49 2297.69,-342 2298.42,-332.59"/>
<polygon fill="midnightblue" stroke="midnightblue" points="2292.45,-364.49 2295.17,-374.73 2299.43,-365.03 2292.45,-364.49"/>
</g>
<!-- Node23 -->
<g id="node23" class="node">
<title>Node23</title>
<g id="a_node23"><a xlink:href="member__frontend_8h.html" target="_top" xlink:title=" ">
<polygon fill="white" stroke="black" points="1712.5,-235.5 1712.5,-265.5 1832.5,-265.5 1832.5,-235.5 1712.5,-235.5"/>
<text text-anchor="start" x="1720.5" y="-253.5" font-family="Helvetica,sans-Serif" font-size="10.00">src/node/rpc/member</text>
<text text-anchor="middle" x="1772.5" y="-242.5" font-family="Helvetica,sans-Serif" font-size="10.00">_frontend.h</text>
</a>
</g>
</g>
<!-- Node20&#45;&gt;Node23 -->
<g id="edge33" class="edge">
<title>Node20&#45;&gt;Node23</title>
<path fill="none" stroke="midnightblue" d="M2269.91,-370.23C2234.74,-351.86 2167.58,-319.04 2106.5,-302 1992.01,-270.06 1958.62,-286.24 1841.5,-266 1838.61,-265.5 1835.65,-264.97 1832.66,-264.41"/>
<polygon fill="midnightblue" stroke="midnightblue" points="2268.47,-373.42 2278.95,-375 2271.74,-367.23 2268.47,-373.42"/>
</g>
<!-- Node24 -->
<g id="node24" class="node">
<title>Node24</title>
<g id="a_node24"><a xlink:href="node__frontend_8h.html" target="_top" xlink:title=" ">
<polygon fill="white" stroke="black" points="1939.5,-308 1939.5,-327 2097.5,-327 2097.5,-308 1939.5,-308"/>
<text text-anchor="middle" x="2018.5" y="-315" font-family="Helvetica,sans-Serif" font-size="10.00">src/node/rpc/node_frontend.h</text>
</a>
</g>
</g>
<!-- Node20&#45;&gt;Node24 -->
<g id="edge35" class="edge">
<title>Node20&#45;&gt;Node24</title>
<path fill="none" stroke="midnightblue" d="M2248.06,-372.56C2193.65,-359.75 2104.63,-338.78 2054.95,-327.08"/>
<polygon fill="midnightblue" stroke="midnightblue" points="2247.6,-376.05 2258.13,-374.94 2249.2,-369.24 2247.6,-376.05"/>
</g>
<!-- Node26 -->
<g id="node26" class="node">
<title>Node26</title>
<g id="a_node26"><a xlink:href="user__frontend_8h.html" target="_top" xlink:title=" ">
<polygon fill="white" stroke="black" points="2388,-308 2388,-327 2543,-327 2543,-308 2388,-308"/>
<text text-anchor="middle" x="2465.5" y="-315" font-family="Helvetica,sans-Serif" font-size="10.00">src/node/rpc/user_frontend.h</text>
</a>
</g>
</g>
<!-- Node20&#45;&gt;Node26 -->
<g id="edge39" class="edge">
<title>Node20&#45;&gt;Node26</title>
<path fill="none" stroke="midnightblue" d="M2326.67,-371.27C2360.61,-358.37 2413.21,-338.38 2442.97,-327.06"/>
<polygon fill="midnightblue" stroke="midnightblue" points="2325.31,-368.04 2317.21,-374.87 2327.8,-374.59 2325.31,-368.04"/>
</g>
<!-- Node21&#45;&gt;Node6 -->
<g id="edge29" class="edge">
<title>Node21&#45;&gt;Node6</title>
<path fill="none" stroke="midnightblue" d="M2281.13,-294.62C2264.78,-276.39 2239.36,-250.93 2212.5,-235 2034.6,-129.5 1787.67,-87.83 1674.53,-73.53"/>
<polygon fill="midnightblue" stroke="midnightblue" points="2278.75,-297.21 2287.97,-302.42 2284.01,-292.6 2278.75,-297.21"/>
</g>
<!-- Node22 -->
<g id="node22" class="node">
<title>Node22</title>
<g id="a_node22"><a xlink:href="ccf__acme__client_8h.html" target="_top" xlink:title=" ">
<polygon fill="white" stroke="black" points="2032,-241 2032,-260 2181,-260 2181,-241 2032,-241"/>
<text text-anchor="middle" x="2106.5" y="-248" font-family="Helvetica,sans-Serif" font-size="10.00">src/node/ccf_acme_client.h</text>
</a>
</g>
</g>
<!-- Node21&#45;&gt;Node22 -->
<g id="edge30" class="edge">
<title>Node21&#45;&gt;Node22</title>
<path fill="none" stroke="midnightblue" d="M2247.86,-299.11C2210.31,-286.46 2161.11,-269.89 2131.76,-260.01"/>
<polygon fill="midnightblue" stroke="midnightblue" points="2247.03,-302.52 2257.62,-302.4 2249.26,-295.89 2247.03,-302.52"/>
</g>
<!-- Node22&#45;&gt;Node5 -->
<g id="edge31" class="edge">
<title>Node22&#45;&gt;Node5</title>
<path fill="none" stroke="midnightblue" d="M2030.45,-239.66C1940.38,-228.01 1792.08,-208.83 1708.6,-198.03"/>
<polygon fill="midnightblue" stroke="midnightblue" points="2030.23,-243.16 2040.59,-240.98 2031.12,-236.22 2030.23,-243.16"/>
</g>
<!-- Node23&#45;&gt;Node6 -->
<g id="edge34" class="edge">
<title>Node23&#45;&gt;Node6</title>
<path fill="none" stroke="midnightblue" d="M1774.35,-225.39C1775.31,-195.2 1772.27,-143.63 1744.5,-112 1726.81,-91.85 1699.68,-80.71 1674.69,-74.57"/>
<polygon fill="midnightblue" stroke="midnightblue" points="1770.85,-225.3 1773.85,-235.46 1777.84,-225.65 1770.85,-225.3"/>
</g>
<!-- Node24&#45;&gt;Node6 -->
<g id="edge36" class="edge">
<title>Node24&#45;&gt;Node6</title>
<path fill="none" stroke="midnightblue" d="M2014.52,-298.12C2009.87,-280.26 2000.67,-253.24 1984.5,-235 1896.92,-136.18 1739.69,-92.13 1661.03,-75.54"/>
<polygon fill="midnightblue" stroke="midnightblue" points="2011.13,-298.98 2016.85,-307.9 2017.93,-297.36 2011.13,-298.98"/>
</g>
<!-- Node25 -->
<g id="node25" class="node">
<title>Node25</title>
<g id="a_node25"><a xlink:href="jwt__key__auto__refresh_8h.html" target="_top" xlink:title=" ">
<polygon fill="white" stroke="black" points="1851,-235.5 1851,-265.5 1976,-265.5 1976,-235.5 1851,-235.5"/>
<text text-anchor="start" x="1859" y="-253.5" font-family="Helvetica,sans-Serif" font-size="10.00">src/node/jwt_key_auto</text>
<text text-anchor="middle" x="1913.5" y="-242.5" font-family="Helvetica,sans-Serif" font-size="10.00">_refresh.h</text>
</a>
</g>
</g>
<!-- Node24&#45;&gt;Node25 -->
<g id="edge37" class="edge">
<title>Node24&#45;&gt;Node25</title>
<path fill="none" stroke="midnightblue" d="M1995.81,-302.45C1978.2,-291.55 1953.89,-276.5 1936.26,-265.59"/>
<polygon fill="midnightblue" stroke="midnightblue" points="1993.99,-305.45 2004.34,-307.73 1997.68,-299.49 1993.99,-305.45"/>
</g>
<!-- Node25&#45;&gt;Node5 -->
<g id="edge38" class="edge">
<title>Node25&#45;&gt;Node5</title>
<path fill="none" stroke="midnightblue" d="M1841.03,-233.35C1790.62,-222.12 1725.41,-207.59 1684.77,-198.53"/>
<polygon fill="midnightblue" stroke="midnightblue" points="1840.38,-236.79 1850.9,-235.55 1841.9,-229.96 1840.38,-236.79"/>
</g>
<!-- Node26&#45;&gt;Node6 -->
<g id="edge40" class="edge">
<title>Node26&#45;&gt;Node6</title>
<path fill="none" stroke="midnightblue" d="M2439.97,-303.3C2366.89,-266.16 2149.69,-160.35 1956.5,-112 1859.64,-87.76 1743.93,-76.02 1674.7,-70.78"/>
<polygon fill="midnightblue" stroke="midnightblue" points="2438.43,-306.44 2448.93,-307.87 2441.62,-300.21 2438.43,-306.44"/>
</g>
<!-- Node27&#45;&gt;Node22 -->
<g id="edge44" class="edge">
<title>Node27&#45;&gt;Node22</title>
<path fill="none" stroke="midnightblue" d="M1811.63,-435.19C1848.92,-426.04 1896.17,-413.57 1937.5,-400 2014.26,-374.79 2061.1,-399.84 2106.5,-333 2121.76,-310.53 2114.13,-275.92 2109.36,-260.02"/>
<polygon fill="midnightblue" stroke="midnightblue" points="1810.78,-431.8 1801.89,-437.56 1812.43,-438.6 1810.78,-431.8"/>
</g>
<!-- Node28 -->
<g id="node28" class="node">
<title>Node28</title>
<g id="a_node28"><a xlink:href="kv__module__loader_8cpp.html" target="_top" xlink:title=" ">
<polygon fill="white" stroke="black" points="1499,-369.5 1499,-399.5 1642,-399.5 1642,-369.5 1499,-369.5"/>
<text text-anchor="start" x="1507" y="-387.5" font-family="Helvetica,sans-Serif" font-size="10.00">src/apps/js_v8/kv_module</text>
<text text-anchor="middle" x="1570.5" y="-376.5" font-family="Helvetica,sans-Serif" font-size="10.00">_loader.cpp</text>
</a>
</g>
</g>
<!-- Node27&#45;&gt;Node28 -->
<g id="edge43" class="edge">
<title>Node27&#45;&gt;Node28</title>
<path fill="none" stroke="midnightblue" d="M1697.9,-432.82C1669.77,-422.37 1634.64,-409.32 1608.4,-399.58"/>
<polygon fill="midnightblue" stroke="midnightblue" points="1696.93,-436.2 1707.53,-436.4 1699.37,-429.63 1696.93,-436.2"/>
</g>
<!-- Node29 -->
<g id="node29" class="node">
<title>Node29</title>
<g id="a_node29"><a xlink:href="network__state_8h.html" target="_top" xlink:title=" ">
<polygon fill="white" stroke="black" points="1660.5,-375 1660.5,-394 1800.5,-394 1800.5,-375 1660.5,-375"/>
<text text-anchor="middle" x="1730.5" y="-382" font-family="Helvetica,sans-Serif" font-size="10.00">src/node/network_state.h</text>
</a>
</g>
</g>
<!-- Node27&#45;&gt;Node29 -->
<g id="edge45" class="edge">
<title>Node27&#45;&gt;Node29</title>
<path fill="none" stroke="midnightblue" d="M1739.98,-426.6C1737.37,-415.28 1734.41,-402.46 1732.51,-394.19"/>
<polygon fill="midnightblue" stroke="midnightblue" points="1736.59,-427.44 1742.25,-436.4 1743.41,-425.87 1736.59,-427.44"/>
</g>
<!-- Node40 -->
<g id="node40" class="node">
<title>Node40</title>
<g id="a_node40"><a xlink:href="genesis__gen_8h.html" target="_top" xlink:title=" ">
<polygon fill="white" stroke="black" points="1818.5,-369.5 1818.5,-399.5 1928.5,-399.5 1928.5,-369.5 1818.5,-369.5"/>
<text text-anchor="start" x="1826.5" y="-387.5" font-family="Helvetica,sans-Serif" font-size="10.00">src/service/genesis</text>
<text text-anchor="middle" x="1873.5" y="-376.5" font-family="Helvetica,sans-Serif" font-size="10.00">_gen.h</text>
</a>
</g>
</g>
<!-- Node27&#45;&gt;Node40 -->
<g id="edge72" class="edge">
<title>Node27&#45;&gt;Node40</title>
<path fill="none" stroke="midnightblue" d="M1782.22,-431.85C1802.46,-421.58 1827.17,-409.03 1845.78,-399.58"/>
<polygon fill="midnightblue" stroke="midnightblue" points="1780.61,-428.75 1773.27,-436.4 1783.78,-434.99 1780.61,-428.75"/>
</g>
<!-- Node29&#45;&gt;Node5 -->
<g id="edge63" class="edge">
<title>Node29&#45;&gt;Node5</title>
<path fill="none" stroke="midnightblue" d="M1679.3,-372.9C1618.48,-360.07 1524.53,-339.37 1519.5,-333 1510.97,-322.18 1513.83,-314.56 1519.5,-302 1542.36,-251.36 1600.69,-214.45 1629.65,-198.59"/>
<polygon fill="midnightblue" stroke="midnightblue" points="1678.63,-376.33 1689.13,-374.97 1680.07,-369.48 1678.63,-376.33"/>
</g>
<!-- Node29&#45;&gt;Node6 -->
<g id="edge46" class="edge">
<title>Node29&#45;&gt;Node6</title>
<path fill="none" stroke="midnightblue" d="M1677.26,-373C1613.85,-360.25 1515.76,-339.61 1510.5,-333 1491.58,-309.25 1498.51,-247.89 1575.5,-112 1583.46,-97.94 1596.07,-84.1 1604.56,-75.55"/>
<polygon fill="midnightblue" stroke="midnightblue" points="1676.62,-376.44 1687.11,-374.98 1678,-369.58 1676.62,-376.44"/>
</g>
<!-- Node29&#45;&gt;Node14 -->
<g id="edge71" class="edge">
<title>Node29&#45;&gt;Node14</title>
<path fill="none" stroke="midnightblue" d="M1673.49,-373.15C1665.76,-371.75 1657.94,-370.34 1650.5,-369 1560.75,-352.87 1516.43,-393.84 1448.5,-333 1427.18,-313.91 1424.39,-276.95 1424.29,-260.17"/>
<polygon fill="midnightblue" stroke="midnightblue" points="1673.09,-376.63 1683.55,-374.97 1674.33,-369.74 1673.09,-376.63"/>
</g>
<!-- Node29&#45;&gt;Node21 -->
<g id="edge62" class="edge">
<title>Node29&#45;&gt;Node21</title>
<path fill="none" stroke="midnightblue" d="M1783.48,-373.18C1792.16,-371.66 1801.07,-370.21 1809.5,-369 1958.29,-347.71 2133.73,-331.85 2229.1,-324"/>
<polygon fill="midnightblue" stroke="midnightblue" points="1782.68,-369.77 1773.45,-374.98 1783.91,-376.66 1782.68,-369.77"/>
</g>
<!-- Node29&#45;&gt;Node24 -->
<g id="edge64" class="edge">
<title>Node29&#45;&gt;Node24</title>
<path fill="none" stroke="midnightblue" d="M1778.25,-372.72C1834.96,-359.92 1928.41,-338.83 1980.47,-327.08"/>
<polygon fill="midnightblue" stroke="midnightblue" points="1777.43,-369.32 1768.45,-374.94 1778.97,-376.15 1777.43,-369.32"/>
</g>
<!-- Node29&#45;&gt;Node26 -->
<g id="edge65" class="edge">
<title>Node29&#45;&gt;Node26</title>
<path fill="none" stroke="midnightblue" d="M1781.63,-373.2C1790.88,-371.6 1800.45,-370.11 1809.5,-369 2061,-338.07 2126.76,-361.87 2378.5,-333 2391.89,-331.46 2406.35,-329.27 2419.57,-327.05"/>
<polygon fill="midnightblue" stroke="midnightblue" points="1780.99,-369.76 1771.77,-374.97 1782.23,-376.65 1780.99,-369.76"/>
</g>
<!-- Node30 -->
<g id="node30" class="node">
<title>Node30</title>
<g id="a_node30"><a xlink:href="wrap_8h.html" target="_top" xlink:title=" ">
<polygon fill="white" stroke="black" points="897.5,-308 897.5,-327 975.5,-327 975.5,-308 897.5,-308"/>
<text text-anchor="middle" x="936.5" y="-315" font-family="Helvetica,sans-Serif" font-size="10.00">src/js/wrap.h</text>
</a>
</g>
</g>
<!-- Node29&#45;&gt;Node30 -->
<g id="edge47" class="edge">
<title>Node29&#45;&gt;Node30</title>
<path fill="none" stroke="midnightblue" d="M1678.39,-373.21C1669.13,-371.62 1659.55,-370.14 1650.5,-369 1518.11,-352.37 1105.39,-328.1 975.83,-320.72"/>
<polygon fill="midnightblue" stroke="midnightblue" points="1677.83,-376.67 1688.28,-374.96 1679.05,-369.77 1677.83,-376.67"/>
</g>
<!-- Node38 -->
<g id="node38" class="node">
<title>Node38</title>
<g id="a_node38"><a xlink:href="secret__broadcast_8h.html" target="_top" xlink:title=" ">
<polygon fill="white" stroke="black" points="1529,-308 1529,-327 1682,-327 1682,-308 1529,-308"/>
<text text-anchor="middle" x="1605.5" y="-315" font-family="Helvetica,sans-Serif" font-size="10.00">src/node/secret_broadcast.h</text>
</a>
</g>
</g>
<!-- Node29&#45;&gt;Node38 -->
<g id="edge66" class="edge">
<title>Node29&#45;&gt;Node38</title>
<path fill="none" stroke="midnightblue" d="M1704.74,-370.1C1679.98,-357.23 1643.31,-338.16 1622.17,-327.17"/>
<polygon fill="midnightblue" stroke="midnightblue" points="1703.41,-373.36 1713.9,-374.87 1706.64,-367.15 1703.41,-373.36"/>
</g>
<!-- Node39 -->
<g id="node39" class="node">
<title>Node39</title>
<g id="a_node39"><a xlink:href="share__manager_8h.html" target="_top" xlink:title=" ">
<polygon fill="white" stroke="black" points="1700,-308 1700,-327 1845,-327 1845,-308 1700,-308"/>
<text text-anchor="middle" x="1772.5" y="-315" font-family="Helvetica,sans-Serif" font-size="10.00">src/node/share_manager.h</text>
</a>
</g>
</g>
<!-- Node29&#45;&gt;Node39 -->
<g id="edge68" class="edge">
<title>Node29&#45;&gt;Node39</title>
<path fill="none" stroke="midnightblue" d="M1741.79,-366.03C1749.92,-353.45 1760.54,-337.01 1766.93,-327.13"/>
<polygon fill="midnightblue" stroke="midnightblue" points="1738.65,-364.44 1736.16,-374.73 1744.53,-368.23 1738.65,-364.44"/>
</g>
<!-- Node30&#45;&gt;Node5 -->
<g id="edge60" class="edge">
<title>Node30&#45;&gt;Node5</title>
<path fill="none" stroke="midnightblue" d="M986.06,-316.36C1053.86,-314.58 1178.18,-305.58 1275.5,-266 1297.32,-257.12 1296.63,-243.75 1318.5,-235 1406.29,-199.89 1516.69,-191.32 1584.39,-189.68"/>
<polygon fill="midnightblue" stroke="midnightblue" points="985.6,-312.87 975.68,-316.59 985.76,-319.87 985.6,-312.87"/>
</g>
<!-- Node30&#45;&gt;Node6 -->
<g id="edge49" class="edge">
<title>Node30&#45;&gt;Node6</title>
<path fill="none" stroke="midnightblue" d="M887.23,-310.79C863.7,-308.09 835.15,-304.84 809.5,-302 734.86,-293.74 523.69,-321.86 473.5,-266 464.29,-255.75 465.34,-246.1 473.5,-235 538.29,-146.84 1324.73,-86.68 1552.23,-71.04"/>
<polygon fill="midnightblue" stroke="midnightblue" points="886.98,-314.29 897.32,-311.96 887.78,-307.33 886.98,-314.29"/>
</g>
<!-- Node30&#45;&gt;Node23 -->
<g id="edge61" class="edge">
<title>Node30&#45;&gt;Node23</title>
<path fill="none" stroke="midnightblue" d="M986.06,-312.65C1131.1,-301.37 1554.43,-268.46 1712.26,-256.18"/>
<polygon fill="midnightblue" stroke="midnightblue" points="985.4,-309.19 975.7,-313.45 985.94,-316.17 985.4,-309.19"/>
</g>
<!-- Node31 -->
<g id="node31" class="node">
<title>Node31</title>
<g id="a_node31"><a xlink:href="js__generic__base_8cpp.html" target="_top" xlink:title=" ">
<polygon fill="white" stroke="black" points="1002.5,-235.5 1002.5,-265.5 1120.5,-265.5 1120.5,-235.5 1002.5,-235.5"/>
<text text-anchor="start" x="1010.5" y="-253.5" font-family="Helvetica,sans-Serif" font-size="10.00">src/apps/js_generic</text>
<text text-anchor="middle" x="1061.5" y="-242.5" font-family="Helvetica,sans-Serif" font-size="10.00">/js_generic_base.cpp</text>
</a>
</g>
</g>
<!-- Node30&#45;&gt;Node31 -->
<g id="edge48" class="edge">
<title>Node30&#45;&gt;Node31</title>
<path fill="none" stroke="midnightblue" d="M962.09,-303.19C983.11,-292.26 1012.83,-276.81 1034.29,-265.65"/>
<polygon fill="midnightblue" stroke="midnightblue" points="960.36,-300.15 953.1,-307.87 963.59,-306.36 960.36,-300.15"/>
</g>
<!-- Node32 -->
<g id="node32" class="node">
<title>Node32</title>
<g id="a_node32"><a xlink:href="js_2consensus_8cpp.html" target="_top" xlink:title=" ">
<polygon fill="white" stroke="black" points="648.5,-241 648.5,-260 764.5,-260 764.5,-241 648.5,-241"/>
<text text-anchor="middle" x="706.5" y="-248" font-family="Helvetica,sans-Serif" font-size="10.00">src/js/consensus.cpp</text>
</a>
</g>
</g>
<!-- Node30&#45;&gt;Node32 -->
<g id="edge50" class="edge">
<title>Node30&#45;&gt;Node32</title>
<path fill="none" stroke="midnightblue" d="M896.13,-305.09C850.63,-292.23 777.69,-271.62 736.8,-260.06"/>
<polygon fill="midnightblue" stroke="midnightblue" points="895.38,-308.52 905.96,-307.87 897.29,-301.78 895.38,-308.52"/>
</g>
<!-- Node33 -->
<g id="node33" class="node">
<title>Node33</title>
<g id="a_node33"><a xlink:href="wrap_8cpp.html" target="_top" xlink:title=" ">
<polygon fill="white" stroke="black" points="662,-179.5 662,-198.5 751,-198.5 751,-179.5 662,-179.5"/>
<text text-anchor="middle" x="706.5" y="-186.5" font-family="Helvetica,sans-Serif" font-size="10.00">src/js/wrap.cpp</text>
</a>
</g>
</g>
<!-- Node30&#45;&gt;Node33 -->
<g id="edge59" class="edge">
<title>Node30&#45;&gt;Node33</title>
<path fill="none" stroke="midnightblue" d="M887.34,-309.82C805.02,-298.39 647.46,-275.43 639.5,-266 630.61,-255.47 633.02,-247.16 639.5,-235 648.79,-217.56 668.17,-205.68 683.71,-198.53"/>
<polygon fill="midnightblue" stroke="midnightblue" points="887.08,-313.31 897.47,-311.22 888.04,-306.38 887.08,-313.31"/>
</g>
<!-- Node34 -->
<g id="node34" class="node">
<title>Node34</title>
<g id="a_node34"><a xlink:href="conv_8cpp.html" target="_top" xlink:title=" ">
<polygon fill="white" stroke="black" points="782.5,-241 782.5,-260 870.5,-260 870.5,-241 782.5,-241"/>
<text text-anchor="middle" x="826.5" y="-248" font-family="Helvetica,sans-Serif" font-size="10.00">src/js/conv.cpp</text>
</a>
</g>
</g>
<!-- Node30&#45;&gt;Node34 -->
<g id="edge52" class="edge">
<title>Node30&#45;&gt;Node34</title>
<path fill="none" stroke="midnightblue" d="M913,-302.62C891.21,-289.74 859.46,-270.98 841.1,-260.13"/>
<polygon fill="midnightblue" stroke="midnightblue" points="911.28,-305.66 921.66,-307.73 914.84,-299.63 911.28,-305.66"/>
</g>
<!-- Node35 -->
<g id="node35" class="node">
<title>Node35</title>
<g id="a_node35"><a xlink:href="js_2crypto_8cpp.html" target="_top" xlink:title=" ">
<polygon fill="white" stroke="black" points="888.5,-241 888.5,-260 984.5,-260 984.5,-241 888.5,-241"/>
<text text-anchor="middle" x="936.5" y="-248" font-family="Helvetica,sans-Serif" font-size="10.00">src/js/crypto.cpp</text>
</a>
</g>
</g>
<!-- Node30&#45;&gt;Node35 -->
<g id="edge54" class="edge">
<title>Node30&#45;&gt;Node35</title>
<path fill="none" stroke="midnightblue" d="M936.5,-297.54C936.5,-285.17 936.5,-269.62 936.5,-260.13"/>
<polygon fill="midnightblue" stroke="midnightblue" points="933,-297.73 936.5,-307.73 940,-297.73 933,-297.73"/>
</g>
<!-- Node36 -->
<g id="node36" class="node">
<title>Node36</title>
<g id="a_node36"><a xlink:href="js_2historical_8cpp.html" target="_top" xlink:title=" ">
<polygon fill="white" stroke="black" points="482.5,-241 482.5,-260 592.5,-260 592.5,-241 482.5,-241"/>
<text text-anchor="middle" x="537.5" y="-248" font-family="Helvetica,sans-Serif" font-size="10.00">src/js/historical.cpp</text>
</a>
</g>
</g>
<!-- Node30&#45;&gt;Node36 -->
<g id="edge56" class="edge">
<title>Node30&#45;&gt;Node36</title>
<path fill="none" stroke="midnightblue" d="M887.36,-309.85C822.76,-300.9 705.83,-284.02 606.5,-266 596.62,-264.21 586,-262.08 576.11,-260.01"/>
<polygon fill="midnightblue" stroke="midnightblue" points="886.88,-313.31 897.27,-311.21 887.84,-306.38 886.88,-313.31"/>
</g>
<!-- Node37 -->
<g id="node37" class="node">
<title>Node37</title>
<g id="a_node37"><a xlink:href="openenclave_8cpp.html" target="_top" xlink:title=" ">
<polygon fill="white" stroke="black" points="1138.5,-241 1138.5,-260 1266.5,-260 1266.5,-241 1138.5,-241"/>
<text text-anchor="middle" x="1202.5" y="-248" font-family="Helvetica,sans-Serif" font-size="10.00">src/js/openenclave.cpp</text>
</a>
</g>
</g>
<!-- Node30&#45;&gt;Node37 -->
<g id="edge58" class="edge">
<title>Node30&#45;&gt;Node37</title>
<path fill="none" stroke="midnightblue" d="M981.58,-305.48C1034.05,-292.66 1119.59,-271.76 1167.37,-260.08"/>
<polygon fill="midnightblue" stroke="midnightblue" points="980.43,-302.16 971.55,-307.94 982.09,-308.96 980.43,-302.16"/>
</g>
<!-- Node32&#45;&gt;Node33 -->
<g id="edge51" class="edge">
<title>Node32&#45;&gt;Node33</title>
<path fill="none" stroke="midnightblue" d="M706.5,-230.82C706.5,-220 706.5,-206.9 706.5,-198.51"/>
<polygon fill="midnightblue" stroke="midnightblue" points="703,-230.98 706.5,-240.98 710,-230.98 703,-230.98"/>
</g>
<!-- Node34&#45;&gt;Node33 -->
<g id="edge53" class="edge">
<title>Node34&#45;&gt;Node33</title>
<path fill="none" stroke="midnightblue" d="M800.32,-236.52C777.05,-224.98 743.7,-208.44 723.66,-198.51"/>
<polygon fill="midnightblue" stroke="midnightblue" points="798.79,-239.67 809.31,-240.98 801.9,-233.4 798.79,-239.67"/>
</g>
<!-- Node35&#45;&gt;Node33 -->
<g id="edge55" class="edge">
<title>Node35&#45;&gt;Node33</title>
<path fill="none" stroke="midnightblue" d="M893.86,-238.47C849.2,-226.91 780.01,-209.02 739.39,-198.51"/>
<polygon fill="midnightblue" stroke="midnightblue" points="892.99,-241.86 903.55,-240.98 894.74,-235.08 892.99,-241.86"/>
</g>
<!-- Node36&#45;&gt;Node33 -->
<g id="edge57" class="edge">
<title>Node36&#45;&gt;Node33</title>
<path fill="none" stroke="midnightblue" d="M571.35,-237.58C604.2,-226.02 653.24,-208.75 682.33,-198.51"/>
<polygon fill="midnightblue" stroke="midnightblue" points="569.98,-234.35 561.71,-240.98 572.31,-240.96 569.98,-234.35"/>
</g>
<!-- Node38&#45;&gt;Node5 -->
<g id="edge67" class="edge">
<title>Node38&#45;&gt;Node5</title>
<path fill="none" stroke="midnightblue" d="M1611.44,-298.17C1620.4,-270.53 1637.03,-219.22 1643.66,-198.76"/>
<polygon fill="midnightblue" stroke="midnightblue" points="1608.07,-297.21 1608.32,-307.81 1614.73,-299.37 1608.07,-297.21"/>
</g>
<!-- Node39&#45;&gt;Node5 -->
<g id="edge69" class="edge">
<title>Node39&#45;&gt;Node5</title>
<path fill="none" stroke="midnightblue" d="M1730.67,-304.47C1709.98,-296.58 1686.15,-284.26 1670.5,-266 1653.39,-246.04 1648.46,-213.84 1647.05,-198.57"/>
<polygon fill="midnightblue" stroke="midnightblue" points="1729.62,-307.81 1740.22,-307.89 1731.99,-301.22 1729.62,-307.81"/>
</g>
<!-- Node39&#45;&gt;Node23 -->
<g id="edge70" class="edge">
<title>Node39&#45;&gt;Node23</title>
<path fill="none" stroke="midnightblue" d="M1772.5,-297.41C1772.5,-287.22 1772.5,-274.9 1772.5,-265.59"/>
<polygon fill="midnightblue" stroke="midnightblue" points="1769,-297.73 1772.5,-307.73 1776,-297.73 1769,-297.73"/>
</g>
<!-- Node40&#45;&gt;Node5 -->
<g id="edge73" class="edge">
<title>Node40&#45;&gt;Node5</title>
<path fill="none" stroke="midnightblue" d="M1873.92,-359.14C1872.89,-340.99 1868.45,-316.88 1853.5,-302 1804.9,-253.64 1760.79,-303.65 1703.5,-266 1677.04,-248.61 1658.21,-214.55 1650.44,-198.61"/>
<polygon fill="midnightblue" stroke="midnightblue" points="1870.43,-359.37 1874.19,-369.27 1877.42,-359.19 1870.43,-359.37"/>
</g>
<!-- Node40&#45;&gt;Node23 -->
<g id="edge74" class="edge">
<title>Node40&#45;&gt;Node23</title>
<path fill="none" stroke="midnightblue" d="M1885.84,-359.91C1893.05,-342.59 1898.72,-319.18 1887.5,-302 1875.04,-282.92 1853.59,-271 1832.57,-263.58"/>
<polygon fill="midnightblue" stroke="midnightblue" points="1882.52,-358.76 1881.54,-369.31 1888.89,-361.67 1882.52,-358.76"/>
</g>
<!-- Node40&#45;&gt;Node24 -->
<g id="edge75" class="edge">
<title>Node40&#45;&gt;Node24</title>
<path fill="none" stroke="midnightblue" d="M1914.11,-365.3C1942.07,-352.76 1977.94,-336.68 1999.52,-327.01"/>
<polygon fill="midnightblue" stroke="midnightblue" points="1912.66,-362.11 1904.96,-369.4 1915.52,-368.5 1912.66,-362.11"/>
</g>
<!-- Node40&#45;&gt;Node38 -->
<g id="edge76" class="edge">
<title>Node40&#45;&gt;Node38</title>
<path fill="none" stroke="midnightblue" d="M1808.34,-367.7C1755.51,-354.88 1683.09,-337.32 1640.6,-327.01"/>
<polygon fill="midnightblue" stroke="midnightblue" points="1807.75,-371.16 1818.3,-370.11 1809.4,-364.35 1807.75,-371.16"/>
</g>
<!-- Node40&#45;&gt;Node39 -->
<g id="edge77" class="edge">
<title>Node40&#45;&gt;Node39</title>
<path fill="none" stroke="midnightblue" d="M1843.16,-363.97C1824.01,-351.65 1800.23,-336.35 1785.72,-327.01"/>
<polygon fill="midnightblue" stroke="midnightblue" points="1841.28,-366.93 1851.58,-369.4 1845.07,-361.04 1841.28,-366.93"/>
</g>
<!-- Node41&#45;&gt;Node20 -->
<g id="edge81" class="edge">
<title>Node41&#45;&gt;Node20</title>
<path fill="none" stroke="midnightblue" d="M2280.47,-559.96C2284.05,-515.43 2291.46,-423.25 2293.79,-394.36"/>
<polygon fill="midnightblue" stroke="midnightblue" points="2276.96,-559.94 2279.65,-570.19 2283.94,-560.5 2276.96,-559.94"/>
</g>
<!-- Node42 -->
<g id="node42" class="node">
<title>Node42</title>
<g id="a_node42"><a xlink:href="external__executor_8cpp.html" target="_top" xlink:title=" ">
<polygon fill="white" stroke="black" points="2306.5,-503.5 2306.5,-533.5 2454.5,-533.5 2454.5,-503.5 2306.5,-503.5"/>
<text text-anchor="start" x="2314.5" y="-521.5" font-family="Helvetica,sans-Serif" font-size="10.00">src/apps/external_executor</text>
<text text-anchor="middle" x="2380.5" y="-510.5" font-family="Helvetica,sans-Serif" font-size="10.00">/external_executor.cpp</text>
</a>
</g>
</g>
<!-- Node41&#45;&gt;Node42 -->
<g id="edge80" class="edge">
<title>Node41&#45;&gt;Node42</title>
<path fill="none" stroke="midnightblue" d="M2309.08,-565.02C2324.95,-554.9 2343.98,-542.77 2358.41,-533.58"/>
<polygon fill="midnightblue" stroke="midnightblue" points="2307.18,-562.07 2300.63,-570.4 2310.95,-567.97 2307.18,-562.07"/>
</g>
</g>
</svg>
