<?xml version="1.0" encoding="UTF-8" standalone="no"?>
<!DOCTYPE svg PUBLIC "-//W3C//DTD SVG 1.1//EN"
 "http://www.w3.org/Graphics/SVG/1.1/DTD/svg11.dtd">
<!-- Generated by graphviz version 2.43.0 (0)
 -->
<!-- Title: src/apps Pages: 1 -->
<svg width="882pt" height="175pt"
 viewBox="0.00 0.00 882.00 175.00" xmlns="http://www.w3.org/2000/svg" xmlns:xlink="http://www.w3.org/1999/xlink">
<g id="graph0" class="graph" transform="scale(1 1) rotate(0) translate(4 171)">
<title>src/apps</title>
<polygon fill="white" stroke="transparent" points="-4,4 -4,-171 878,-171 878,4 -4,4"/>
<g id="clust1" class="cluster">
<title>clusterdir_68267d1309a1af8e8297ef4c3efbcdba</title>
<g id="a_clust1"><a xlink:href="dir_68267d1309a1af8e8297ef4c3efbcdba.html" target="_top" xlink:title="src">
<polygon fill="#edf0f7" stroke="#404040" stroke-dasharray="5,2" points="8,-8 8,-159 810,-159 810,-8 8,-8"/>
<text text-anchor="middle" x="409" y="-147" font-family="Helvetica,sans-Serif" font-size="10.00">src</text>
</a>
</g>
</g>
<g id="clust2" class="cluster">
<title>clusterdir_53adf0b982dc8545998aae3f283a5a58</title>
<g id="a_clust2"><a xlink:href="dir_53adf0b982dc8545998aae3f283a5a58.html" target="_top">
<polygon fill="#edf0f7" stroke="#404040" stroke-width="2" points="246,-80 246,-132 666,-132 666,-80 246,-80"/>
</a>
</g>
</g>
<!-- dir_122f4add68bb94b3fee614989bbbd8f9 -->
<g id="node1" class="node">
<title>dir_122f4add68bb94b3fee614989bbbd8f9</title>
<g id="a_node1"><a xlink:href="dir_122f4add68bb94b3fee614989bbbd8f9.html" target="_top" xlink:title="ds">
<polygon fill="#a2b4d6" stroke="#404040" points="730,-52 676,-52 676,-16 730,-16 730,-52"/>
<text text-anchor="middle" x="703" y="-31.5" font-family="Helvetica,sans-Serif" font-size="10.00">ds</text>
</a>
</g>
</g>
<!-- dir_44454380e89751d088dd05c94905df2f -->
<g id="node2" class="node">
<title>dir_44454380e89751d088dd05c94905df2f</title>
<g id="a_node2"><a xlink:href="dir_44454380e89751d088dd05c94905df2f.html" target="_top" xlink:title="clients">
<polygon fill="#a2b4d6" stroke="red" points="802,-52 748,-52 748,-16 802,-16 802,-52"/>
<text text-anchor="middle" x="775" y="-31.5" font-family="Helvetica,sans-Serif" font-size="10.00">clients</text>
</a>
</g>
</g>
<!-- dir_a2b23ad3d4048fef2ffce6bed40d1385 -->
<g id="node3" class="node">
<title>dir_a2b23ad3d4048fef2ffce6bed40d1385</title>
<g id="a_node3"><a xlink:href="dir_a2b23ad3d4048fef2ffce6bed40d1385.html" target="_top" xlink:title="endpoints">
<polygon fill="#a2b4d6" stroke="red" points="81.5,-52 16.5,-52 16.5,-16 81.5,-16 81.5,-52"/>
<text text-anchor="middle" x="49" y="-31.5" font-family="Helvetica,sans-Serif" font-size="10.00">endpoints</text>
</a>
</g>
</g>
<!-- dir_2d29d7dff7c7baf1180920f6796c23ae -->
<g id="node4" class="node">
<title>dir_2d29d7dff7c7baf1180920f6796c23ae</title>
<g id="a_node4"><a xlink:href="dir_2d29d7dff7c7baf1180920f6796c23ae.html" target="_top" xlink:title="http">
<polygon fill="#a2b4d6" stroke="#404040" points="154,-52 100,-52 100,-16 154,-16 154,-52"/>
<text text-anchor="middle" x="127" y="-31.5" font-family="Helvetica,sans-Serif" font-size="10.00">http</text>
</a>
</g>
</g>
<!-- dir_18ae7af74d885898b85cbb543ae51b63 -->
<g id="node5" class="node">
<title>dir_18ae7af74d885898b85cbb543ae51b63</title>
<g id="a_node5"><a xlink:href="dir_18ae7af74d885898b85cbb543ae51b63.html" target="_top" xlink:title="node">
<polygon fill="#a2b4d6" stroke="red" points="226,-52 172,-52 172,-16 226,-16 226,-52"/>
<text text-anchor="middle" x="199" y="-31.5" font-family="Helvetica,sans-Serif" font-size="10.00">node</text>
</a>
</g>
</g>
<!-- dir_3dcea8250b5ce8d5bc595fbbad3e8f21 -->
<g id="node6" class="node">
<title>dir_3dcea8250b5ce8d5bc595fbbad3e8f21</title>
<g id="a_node6"><a xlink:href="dir_3dcea8250b5ce8d5bc595fbbad3e8f21.html" target="_top" xlink:title="js">
<polygon fill="#a2b4d6" stroke="#404040" points="298,-52 244,-52 244,-16 298,-16 298,-52"/>
<text text-anchor="middle" x="271" y="-31.5" font-family="Helvetica,sans-Serif" font-size="10.00">js</text>
</a>
</g>
</g>
<!-- dir_4c8befd6991d7a2e9d66c427274b8c22 -->
<g id="node7" class="node">
<title>dir_4c8befd6991d7a2e9d66c427274b8c22</title>
<g id="a_node7"><a xlink:href="dir_4c8befd6991d7a2e9d66c427274b8c22.html" target="_top" xlink:title="kv">
<polygon fill="#a2b4d6" stroke="#404040" points="370,-52 316,-52 316,-16 370,-16 370,-52"/>
<text text-anchor="middle" x="343" y="-31.5" font-family="Helvetica,sans-Serif" font-size="10.00">kv</text>
</a>
</g>
</g>
<!-- dir_4f691f982165d1317925cee58b4b4f56 -->
<g id="node8" class="node">
<title>dir_4f691f982165d1317925cee58b4b4f56</title>
<g id="a_node8"><a xlink:href="dir_4f691f982165d1317925cee58b4b4f56.html" target="_top" xlink:title="service">
<polygon fill="#a2b4d6" stroke="red" points="442,-52 388,-52 388,-16 442,-16 442,-52"/>
<text text-anchor="middle" x="415" y="-31.5" font-family="Helvetica,sans-Serif" font-size="10.00">service</text>
</a>
</g>
</g>
<!-- dir_84e79ac80b913c2fb5b9e077744e9498 -->
<g id="node9" class="node">
<title>dir_84e79ac80b913c2fb5b9e077744e9498</title>
<g id="a_node9"><a xlink:href="dir_84e79ac80b913c2fb5b9e077744e9498.html" target="_top" xlink:title="host">
<polygon fill="#a2b4d6" stroke="#404040" points="514,-52 460,-52 460,-16 514,-16 514,-52"/>
<text text-anchor="middle" x="487" y="-31.5" font-family="Helvetica,sans-Serif" font-size="10.00">host</text>
</a>
</g>
</g>
<!-- dir_654fcaaa959505712bb2ecafa3e1042f -->
<g id="node10" class="node">
<title>dir_654fcaaa959505712bb2ecafa3e1042f</title>
<g id="a_node10"><a xlink:href="dir_654fcaaa959505712bb2ecafa3e1042f.html" target="_top" xlink:title="tls">
<polygon fill="#a2b4d6" stroke="#404040" points="586,-52 532,-52 532,-16 586,-16 586,-52"/>
<text text-anchor="middle" x="559" y="-31.5" font-family="Helvetica,sans-Serif" font-size="10.00">tls</text>
</a>
</g>
</g>
<!-- dir_4261af1259721e3e39e0d2dd7354b511 -->
<g id="node11" class="node">
<title>dir_4261af1259721e3e39e0d2dd7354b511</title>
<g id="a_node11"><a xlink:href="dir_4261af1259721e3e39e0d2dd7354b511.html" target="_top" xlink:title="crypto">
<polygon fill="#a2b4d6" stroke="red" points="658,-52 604,-52 604,-16 658,-16 658,-52"/>
<text text-anchor="middle" x="631" y="-31.5" font-family="Helvetica,sans-Serif" font-size="10.00">crypto</text>
</a>
</g>
</g>
<!-- dir_53adf0b982dc8545998aae3f283a5a58 -->
<g id="node12" class="node">
<title>dir_53adf0b982dc8545998aae3f283a5a58</title>
<text text-anchor="middle" x="631" y="-103.5" font-family="Helvetica,sans-Serif" font-size="10.00">apps</text>
</g>
<!-- dir_88d5bc67d447a911ad6eaf93832c9ab4 -->
<g id="node13" class="node">
<title>dir_88d5bc67d447a911ad6eaf93832c9ab4</title>
<g id="a_node13"><a xlink:href="dir_88d5bc67d447a911ad6eaf93832c9ab4.html" target="_top" xlink:title="external_executor">
<polygon fill="#a2b4d6" stroke="#404040" points="358,-124 254,-124 254,-88 358,-88 358,-124"/>
<text text-anchor="middle" x="306" y="-103.5" font-family="Helvetica,sans-Serif" font-size="10.00">external_executor</text>
</a>
</g>
</g>
<!-- dir_88d5bc67d447a911ad6eaf93832c9ab4&#45;&gt;dir_a2b23ad3d4048fef2ffce6bed40d1385 -->
<g id="edge3" class="edge">
<title>dir_88d5bc67d447a911ad6eaf93832c9ab4&#45;&gt;dir_a2b23ad3d4048fef2ffce6bed40d1385</title>
<path fill="none" stroke="black" d="M253.72,-94.31C212.05,-85.29 152.14,-71.22 91.57,-51.95"/>
<polygon fill="black" stroke="black" points="92.44,-48.55 81.85,-48.81 90.29,-55.22 92.44,-48.55"/>
<g id="a_edge3&#45;headlabel"><a xlink:href="dir_000018_000017.html" target="_top" xlink:title="2">
<text text-anchor="middle" x="96.74" y="-44.46" font-family="Helvetica,sans-Serif" font-size="10.00">2</text>
</a>
</g>
</g>
<!-- dir_88d5bc67d447a911ad6eaf93832c9ab4&#45;&gt;dir_2d29d7dff7c7baf1180920f6796c23ae -->
<g id="edge2" class="edge">
<title>dir_88d5bc67d447a911ad6eaf93832c9ab4&#45;&gt;dir_2d29d7dff7c7baf1180920f6796c23ae</title>
<path fill="none" stroke="black" d="M256.62,-87.88C231.04,-78.75 199.2,-66.95 163.24,-51.95"/>
<polygon fill="black" stroke="black" points="164.59,-48.72 154.01,-48.06 161.87,-55.17 164.59,-48.72"/>
<g id="a_edge2&#45;headlabel"><a xlink:href="dir_000018_000020.html" target="_top" xlink:title="1">
<text text-anchor="middle" x="169" y="-44.99" font-family="Helvetica,sans-Serif" font-size="10.00">1</text>
</a>
</g>
</g>
<!-- dir_88d5bc67d447a911ad6eaf93832c9ab4&#45;&gt;dir_18ae7af74d885898b85cbb543ae51b63 -->
<g id="edge1" class="edge">
<title>dir_88d5bc67d447a911ad6eaf93832c9ab4&#45;&gt;dir_18ae7af74d885898b85cbb543ae51b63</title>
<path fill="none" stroke="black" d="M279.82,-87.88C265.96,-78.81 248.76,-67.55 233.79,-57.76"/>
<polygon fill="black" stroke="black" points="235.56,-54.74 225.28,-52.19 231.73,-60.59 235.56,-54.74"/>
<g id="a_edge1&#45;headlabel"><a xlink:href="dir_000018_000033.html" target="_top" xlink:title="1">
<text text-anchor="middle" x="240.12" y="-51.83" font-family="Helvetica,sans-Serif" font-size="10.00">1</text>
</a>
</g>
</g>
<!-- dir_d44c64559bbebec7f509842c48db8b23 -->
<g id="node17" class="node">
<title>dir_d44c64559bbebec7f509842c48db8b23</title>
<g id="a_node17"><a xlink:href="dir_d44c64559bbebec7f509842c48db8b23.html" target="_top" xlink:title="include">
<polygon fill="none" stroke="red" points="874,-52 820,-52 820,-16 874,-16 874,-52"/>
<text text-anchor="middle" x="847" y="-31.5" font-family="Helvetica,sans-Serif" font-size="10.00">include</text>
</a>
</g>
</g>
<!-- dir_88d5bc67d447a911ad6eaf93832c9ab4&#45;&gt;dir_d44c64559bbebec7f509842c48db8b23 -->
<g id="edge4" class="edge">
<title>dir_88d5bc67d447a911ad6eaf93832c9ab4&#45;&gt;dir_d44c64559bbebec7f509842c48db8b23</title>
<path fill="none" stroke="black" d="M342.14,-87.93C350.17,-84.78 358.75,-81.9 367,-80 557.78,-36.18 620.04,-102.65 810.24,-52.64"/>
<polygon fill="black" stroke="black" points="811.24,-56 819.98,-50.01 809.42,-49.24 811.24,-56"/>
<g id="a_edge4&#45;headlabel"><a xlink:href="dir_000018_000022.html" target="_top" xlink:title="15">
<text text-anchor="middle" x="808.51" y="-57.18" font-family="Helvetica,sans-Serif" font-size="10.00">15</text>
</a>
</g>
</g>
<!-- dir_17be9e3e5392a98208079abc1cb5a0b0 -->
<g id="node14" class="node">
<title>dir_17be9e3e5392a98208079abc1cb5a0b0</title>
<g id="a_node14"><a xlink:href="dir_17be9e3e5392a98208079abc1cb5a0b0.html" target="_top" xlink:title="js_generic">
<polygon fill="#a2b4d6" stroke="#404040" points="442,-124 376,-124 376,-88 442,-88 442,-124"/>
<text text-anchor="middle" x="409" y="-103.5" font-family="Helvetica,sans-Serif" font-size="10.00">js_generic</text>
</a>
</g>
</g>
<!-- dir_17be9e3e5392a98208079abc1cb5a0b0&#45;&gt;dir_18ae7af74d885898b85cbb543ae51b63 -->
<g id="edge5" class="edge">
<title>dir_17be9e3e5392a98208079abc1cb5a0b0&#45;&gt;dir_18ae7af74d885898b85cbb543ae51b63</title>
<path fill="none" stroke="black" d="M383.01,-87.76C377.86,-84.85 372.37,-82.1 367,-80 313.99,-59.26 293.89,-69.92 235.89,-51.83"/>
<polygon fill="black" stroke="black" points="236.84,-48.46 226.25,-48.67 234.66,-55.11 236.84,-48.46"/>
<g id="a_edge5&#45;headlabel"><a xlink:href="dir_000026_000033.html" target="_top" xlink:title="1">
<text text-anchor="middle" x="241.14" y="-44.38" font-family="Helvetica,sans-Serif" font-size="10.00">1</text>
</a>
</g>
</g>
<!-- dir_17be9e3e5392a98208079abc1cb5a0b0&#45;&gt;dir_3dcea8250b5ce8d5bc595fbbad3e8f21 -->
<g id="edge6" class="edge">
<title>dir_17be9e3e5392a98208079abc1cb5a0b0&#45;&gt;dir_3dcea8250b5ce8d5bc595fbbad3e8f21</title>
<path fill="none" stroke="black" d="M381.21,-87.93C376.51,-85.2 371.65,-82.46 367,-80 343.43,-67.53 335.18,-64.94 307.41,-52.14"/>
<polygon fill="black" stroke="black" points="308.66,-48.87 298.12,-47.82 305.71,-55.21 308.66,-48.87"/>
<g id="a_edge6&#45;headlabel"><a xlink:href="dir_000026_000025.html" target="_top" xlink:title="1">
<text text-anchor="middle" x="313.12" y="-45.31" font-family="Helvetica,sans-Serif" font-size="10.00">1</text>
</a>
</g>
</g>
<!-- dir_17be9e3e5392a98208079abc1cb5a0b0&#45;&gt;dir_4c8befd6991d7a2e9d66c427274b8c22 -->
<g id="edge7" class="edge">
<title>dir_17be9e3e5392a98208079abc1cb5a0b0&#45;&gt;dir_4c8befd6991d7a2e9d66c427274b8c22</title>
<path fill="none" stroke="black" d="M392.69,-87.7C384.69,-79.22 374.93,-68.86 366.18,-59.58"/>
<polygon fill="black" stroke="black" points="368.53,-56.98 359.13,-52.1 363.44,-61.78 368.53,-56.98"/>
<g id="a_edge7&#45;headlabel"><a xlink:href="dir_000026_000029.html" target="_top" xlink:title="1">
<text text-anchor="middle" x="373.07" y="-55.15" font-family="Helvetica,sans-Serif" font-size="10.00">1</text>
</a>
</g>
</g>
<!-- dir_17be9e3e5392a98208079abc1cb5a0b0&#45;&gt;dir_4f691f982165d1317925cee58b4b4f56 -->
<g id="edge8" class="edge">
<title>dir_17be9e3e5392a98208079abc1cb5a0b0&#45;&gt;dir_4f691f982165d1317925cee58b4b4f56</title>
<path fill="none" stroke="black" d="M410.48,-87.7C411.14,-79.98 411.94,-70.71 412.68,-62.11"/>
<polygon fill="black" stroke="black" points="416.17,-62.37 413.53,-52.1 409.19,-61.77 416.17,-62.37"/>
<g id="a_edge8&#45;headlabel"><a xlink:href="dir_000026_000042.html" target="_top" xlink:title="1">
<text text-anchor="middle" x="418.69" y="-63.69" font-family="Helvetica,sans-Serif" font-size="10.00">1</text>
</a>
</g>
</g>
<!-- dir_17be9e3e5392a98208079abc1cb5a0b0&#45;&gt;dir_d44c64559bbebec7f509842c48db8b23 -->
<g id="edge9" class="edge">
<title>dir_17be9e3e5392a98208079abc1cb5a0b0&#45;&gt;dir_d44c64559bbebec7f509842c48db8b23</title>
<path fill="none" stroke="black" d="M433.42,-87.94C438.98,-84.79 445.01,-81.9 451,-80 602.09,-32.11 656.11,-93.53 810.17,-52.68"/>
<polygon fill="black" stroke="black" points="811.26,-56.01 819.98,-49.98 809.4,-49.26 811.26,-56.01"/>
<g id="a_edge9&#45;headlabel"><a xlink:href="dir_000026_000022.html" target="_top" xlink:title="11">
<text text-anchor="middle" x="808.55" y="-57.2" font-family="Helvetica,sans-Serif" font-size="10.00">11</text>
</a>
</g>
</g>
<!-- dir_5ec96c263edeb1f5d9ccb226980a5a7c -->
<g id="node15" class="node">
<title>dir_5ec96c263edeb1f5d9ccb226980a5a7c</title>
<g id="a_node15"><a xlink:href="dir_5ec96c263edeb1f5d9ccb226980a5a7c.html" target="_top" xlink:title="js_v8">
<polygon fill="#a2b4d6" stroke="#404040" points="514,-124 460,-124 460,-88 514,-88 514,-124"/>
<text text-anchor="middle" x="487" y="-103.5" font-family="Helvetica,sans-Serif" font-size="10.00">js_v8</text>
</a>
</g>
</g>
<!-- dir_5ec96c263edeb1f5d9ccb226980a5a7c&#45;&gt;dir_18ae7af74d885898b85cbb543ae51b63 -->
<g id="edge10" class="edge">
<title>dir_5ec96c263edeb1f5d9ccb226980a5a7c&#45;&gt;dir_18ae7af74d885898b85cbb543ae51b63</title>
<path fill="none" stroke="black" d="M465.86,-87.87C461.2,-84.81 456.11,-81.97 451,-80 363.59,-46.3 330.07,-77.1 235.8,-51.64"/>
<polygon fill="black" stroke="black" points="236.75,-48.27 226.17,-48.91 234.83,-55.01 236.75,-48.27"/>
<g id="a_edge10&#45;headlabel"><a xlink:href="dir_000027_000033.html" target="_top" xlink:title="2">
<text text-anchor="middle" x="240.98" y="-44.02" font-family="Helvetica,sans-Serif" font-size="10.00">2</text>
</a>
</g>
</g>
<!-- dir_5ec96c263edeb1f5d9ccb226980a5a7c&#45;&gt;dir_4c8befd6991d7a2e9d66c427274b8c22 -->
<g id="edge11" class="edge">
<title>dir_5ec96c263edeb1f5d9ccb226980a5a7c&#45;&gt;dir_4c8befd6991d7a2e9d66c427274b8c22</title>
<path fill="none" stroke="black" d="M463.88,-87.77C459.7,-84.99 455.3,-82.29 451,-80 423.17,-65.2 412.34,-65.4 379.42,-51.97"/>
<polygon fill="black" stroke="black" points="380.61,-48.67 370.03,-48.02 377.89,-55.12 380.61,-48.67"/>
<g id="a_edge11&#45;headlabel"><a xlink:href="dir_000027_000029.html" target="_top" xlink:title="2">
<text text-anchor="middle" x="385.02" y="-44.95" font-family="Helvetica,sans-Serif" font-size="10.00">2</text>
</a>
</g>
</g>
<!-- dir_5ec96c263edeb1f5d9ccb226980a5a7c&#45;&gt;dir_4f691f982165d1317925cee58b4b4f56 -->
<g id="edge12" class="edge">
<title>dir_5ec96c263edeb1f5d9ccb226980a5a7c&#45;&gt;dir_4f691f982165d1317925cee58b4b4f56</title>
<path fill="none" stroke="black" d="M469.2,-87.7C460.4,-79.14 449.62,-68.66 440,-59.3"/>
<polygon fill="black" stroke="black" points="442.2,-56.57 432.59,-52.1 437.32,-61.58 442.2,-56.57"/>
<g id="a_edge12&#45;headlabel"><a xlink:href="dir_000027_000042.html" target="_top" xlink:title="2">
<text text-anchor="middle" x="446.76" y="-54.54" font-family="Helvetica,sans-Serif" font-size="10.00">2</text>
</a>
</g>
</g>
<!-- dir_5ec96c263edeb1f5d9ccb226980a5a7c&#45;&gt;dir_84e79ac80b913c2fb5b9e077744e9498 -->
<g id="edge13" class="edge">
<title>dir_5ec96c263edeb1f5d9ccb226980a5a7c&#45;&gt;dir_84e79ac80b913c2fb5b9e077744e9498</title>
<path fill="none" stroke="black" d="M487,-87.7C487,-79.98 487,-70.71 487,-62.11"/>
<polygon fill="black" stroke="black" points="490.5,-62.1 487,-52.1 483.5,-62.1 490.5,-62.1"/>
<g id="a_edge13&#45;headlabel"><a xlink:href="dir_000027_000019.html" target="_top" xlink:title="1">
<text text-anchor="middle" x="493.34" y="-63.2" font-family="Helvetica,sans-Serif" font-size="10.00">1</text>
</a>
</g>
</g>
<!-- dir_5ec96c263edeb1f5d9ccb226980a5a7c&#45;&gt;dir_654fcaaa959505712bb2ecafa3e1042f -->
<g id="edge15" class="edge">
<title>dir_5ec96c263edeb1f5d9ccb226980a5a7c&#45;&gt;dir_654fcaaa959505712bb2ecafa3e1042f</title>
<path fill="none" stroke="black" d="M504.8,-87.7C513.6,-79.14 524.38,-68.66 534,-59.3"/>
<polygon fill="black" stroke="black" points="536.68,-61.58 541.41,-52.1 531.8,-56.57 536.68,-61.58"/>
<g id="a_edge15&#45;headlabel"><a xlink:href="dir_000027_000048.html" target="_top" xlink:title="1">
<text text-anchor="middle" x="536.08" y="-63.63" font-family="Helvetica,sans-Serif" font-size="10.00">1</text>
</a>
</g>
</g>
<!-- dir_5ec96c263edeb1f5d9ccb226980a5a7c&#45;&gt;dir_4261af1259721e3e39e0d2dd7354b511 -->
<g id="edge16" class="edge">
<title>dir_5ec96c263edeb1f5d9ccb226980a5a7c&#45;&gt;dir_4261af1259721e3e39e0d2dd7354b511</title>
<path fill="none" stroke="black" d="M510.12,-87.77C514.3,-84.99 518.7,-82.29 523,-80 550.83,-65.2 561.66,-65.4 594.58,-51.97"/>
<polygon fill="black" stroke="black" points="596.11,-55.12 603.97,-48.02 593.39,-48.67 596.11,-55.12"/>
<g id="a_edge16&#45;headlabel"><a xlink:href="dir_000027_000012.html" target="_top" xlink:title="1">
<text text-anchor="middle" x="593.9" y="-56.63" font-family="Helvetica,sans-Serif" font-size="10.00">1</text>
</a>
</g>
</g>
<!-- dir_5ec96c263edeb1f5d9ccb226980a5a7c&#45;&gt;dir_d44c64559bbebec7f509842c48db8b23 -->
<g id="edge14" class="edge">
<title>dir_5ec96c263edeb1f5d9ccb226980a5a7c&#45;&gt;dir_d44c64559bbebec7f509842c48db8b23</title>
<path fill="none" stroke="black" d="M507.7,-88C512.48,-84.85 517.71,-81.94 523,-80 641.89,-36.41 687.04,-85.99 810.18,-52.71"/>
<polygon fill="black" stroke="black" points="811.3,-56.03 819.96,-49.93 809.39,-49.29 811.3,-56.03"/>
<g id="a_edge14&#45;headlabel"><a xlink:href="dir_000027_000022.html" target="_top" xlink:title="49">
<text text-anchor="middle" x="808.61" y="-57.24" font-family="Helvetica,sans-Serif" font-size="10.00">49</text>
</a>
</g>
</g>
<!-- dir_42c804dea09c572d6c8990717f45801b -->
<g id="node16" class="node">
<title>dir_42c804dea09c572d6c8990717f45801b</title>
<g id="a_node16"><a xlink:href="dir_42c804dea09c572d6c8990717f45801b.html" target="_top" xlink:title="tpcc">
<polygon fill="#a2b4d6" stroke="#404040" points="586,-124 532,-124 532,-88 586,-88 586,-124"/>
<text text-anchor="middle" x="559" y="-103.5" font-family="Helvetica,sans-Serif" font-size="10.00">tpcc</text>
</a>
</g>
</g>
<!-- dir_42c804dea09c572d6c8990717f45801b&#45;&gt;dir_122f4add68bb94b3fee614989bbbd8f9 -->
<g id="edge17" class="edge">
<title>dir_42c804dea09c572d6c8990717f45801b&#45;&gt;dir_122f4add68bb94b3fee614989bbbd8f9</title>
<path fill="none" stroke="black" d="M582.12,-87.77C586.3,-84.99 590.7,-82.29 595,-80 622.83,-65.2 633.66,-65.4 666.58,-51.97"/>
<polygon fill="black" stroke="black" points="668.11,-55.12 675.97,-48.02 665.39,-48.67 668.11,-55.12"/>
<g id="a_edge17&#45;headlabel"><a xlink:href="dir_000050_000014.html" target="_top" xlink:title="2">
<text text-anchor="middle" x="665.9" y="-56.63" font-family="Helvetica,sans-Serif" font-size="10.00">2</text>
</a>
</g>
</g>
<!-- dir_42c804dea09c572d6c8990717f45801b&#45;&gt;dir_44454380e89751d088dd05c94905df2f -->
<g id="edge18" class="edge">
<title>dir_42c804dea09c572d6c8990717f45801b&#45;&gt;dir_44454380e89751d088dd05c94905df2f</title>
<path fill="none" stroke="black" d="M580.63,-87.87C585.18,-84.88 590.09,-82.07 595,-80 652.25,-55.83 674.9,-70.74 738.14,-51.77"/>
<polygon fill="black" stroke="black" points="739.3,-55.08 747.77,-48.72 737.18,-48.4 739.3,-55.08"/>
<g id="a_edge18&#45;headlabel"><a xlink:href="dir_000050_000008.html" target="_top" xlink:title="1">
<text text-anchor="middle" x="736.73" y="-56.37" font-family="Helvetica,sans-Serif" font-size="10.00">1</text>
</a>
</g>
</g>
<!-- dir_42c804dea09c572d6c8990717f45801b&#45;&gt;dir_d44c64559bbebec7f509842c48db8b23 -->
<g id="edge19" class="edge">
<title>dir_42c804dea09c572d6c8990717f45801b&#45;&gt;dir_d44c64559bbebec7f509842c48db8b23</title>
<path fill="none" stroke="black" d="M580.13,-87.87C584.8,-84.8 589.89,-81.97 595,-80 683.55,-45.95 718,-78.8 810.23,-52.76"/>
<polygon fill="black" stroke="black" points="811.36,-56.08 819.94,-49.86 809.36,-49.37 811.36,-56.08"/>
<g id="a_edge19&#45;headlabel"><a xlink:href="dir_000050_000022.html" target="_top" xlink:title="6">
<text text-anchor="middle" x="808.73" y="-57.32" font-family="Helvetica,sans-Serif" font-size="10.00">6</text>
</a>
</g>
</g>
</g>
</svg>
