<?xml version="1.0" encoding="UTF-8" standalone="no"?>
<!DOCTYPE svg PUBLIC "-//W3C//DTD SVG 1.1//EN"
 "http://www.w3.org/Graphics/SVG/1.1/DTD/svg11.dtd">
<!-- Generated by graphviz version 2.43.0 (0)
 -->
<!-- Title: src/http/http2_types.h Pages: 1 -->
<svg width="1083pt" height="196pt"
 viewBox="0.00 0.00 1083.08 196.00" xmlns="http://www.w3.org/2000/svg" xmlns:xlink="http://www.w3.org/1999/xlink">
<g id="graph0" class="graph" transform="scale(1 1) rotate(0) translate(4 192)">
<title>src/http/http2_types.h</title>
<polygon fill="white" stroke="transparent" points="-4,4 -4,-192 1079.08,-192 1079.08,4 -4,4"/>
<!-- Node1 -->
<g id="node1" class="node">
<title>Node1</title>
<g id="a_node1"><a xlink:title=" ">
<polygon fill="#bfbfbf" stroke="black" points="698.58,-168.5 698.58,-187.5 821.58,-187.5 821.58,-168.5 698.58,-168.5"/>
<text text-anchor="middle" x="760.08" y="-175.5" font-family="Helvetica,sans-Serif" font-size="10.00">src/http/http2_types.h</text>
</a>
</g>
</g>
<!-- Node2 -->
<g id="node2" class="node">
<title>Node2</title>
<g id="a_node2"><a xlink:href="http__header__map_8h.html" target="_top" xlink:title=" ">
<polygon fill="white" stroke="black" points="129.08,-56.5 129.08,-75.5 257.08,-75.5 257.08,-56.5 129.08,-56.5"/>
<text text-anchor="middle" x="193.08" y="-63.5" font-family="Helvetica,sans-Serif" font-size="10.00">ccf/http_header_map.h</text>
</a>
</g>
</g>
<!-- Node1&#45;&gt;Node2 -->
<g id="edge1" class="edge">
<title>Node1&#45;&gt;Node2</title>
<path fill="none" stroke="midnightblue" d="M698.33,-173.75C622.74,-168.84 491.19,-157.26 381.08,-132 323.69,-118.83 259.37,-94.38 222.79,-79.51"/>
<polygon fill="midnightblue" stroke="midnightblue" points="223.82,-76.15 213.24,-75.59 221.16,-82.62 223.82,-76.15"/>
</g>
<!-- Node4 -->
<g id="node4" class="node">
<title>Node4</title>
<g id="a_node4"><a xlink:title=" ">
<polygon fill="white" stroke="#bfbfbf" points="112.08,-0.5 112.08,-19.5 156.08,-19.5 156.08,-0.5 112.08,-0.5"/>
<text text-anchor="middle" x="134.08" y="-7.5" font-family="Helvetica,sans-Serif" font-size="10.00">string</text>
</a>
</g>
</g>
<!-- Node1&#45;&gt;Node4 -->
<g id="edge28" class="edge">
<title>Node1&#45;&gt;Node4</title>
<path fill="none" stroke="midnightblue" d="M698.4,-175.5C524.41,-170.97 40.73,-156.25 17.08,-132 -6.52,-107.81 -4.13,-83.8 15.08,-56 34.45,-27.96 73.69,-17.38 101.82,-13.39"/>
<polygon fill="midnightblue" stroke="midnightblue" points="102.48,-16.83 111.99,-12.16 101.65,-9.88 102.48,-16.83"/>
</g>
<!-- Node5 -->
<g id="node5" class="node">
<title>Node5</title>
<g id="a_node5"><a xlink:href="http__status_8h.html" target="_top" xlink:title=" ">
<polygon fill="white" stroke="black" points="711.08,-56.5 711.08,-75.5 809.08,-75.5 809.08,-56.5 711.08,-56.5"/>
<text text-anchor="middle" x="760.08" y="-63.5" font-family="Helvetica,sans-Serif" font-size="10.00">ccf/http_status.h</text>
</a>
</g>
</g>
<!-- Node1&#45;&gt;Node5 -->
<g id="edge4" class="edge">
<title>Node1&#45;&gt;Node5</title>
<path fill="none" stroke="midnightblue" d="M760.08,-168.37C760.08,-150.62 760.08,-109.67 760.08,-85.6"/>
<polygon fill="midnightblue" stroke="midnightblue" points="763.58,-85.59 760.08,-75.59 756.58,-85.59 763.58,-85.59"/>
</g>
<!-- Node6 -->
<g id="node6" class="node">
<title>Node6</title>
<g id="a_node6"><a xlink:href="rest__verb_8h.html" target="_top" xlink:title=" ">
<polygon fill="white" stroke="black" points="26.58,-112.5 26.58,-131.5 115.58,-131.5 115.58,-112.5 26.58,-112.5"/>
<text text-anchor="middle" x="71.08" y="-119.5" font-family="Helvetica,sans-Serif" font-size="10.00">ccf/rest_verb.h</text>
</a>
</g>
</g>
<!-- Node1&#45;&gt;Node6 -->
<g id="edge5" class="edge">
<title>Node1&#45;&gt;Node6</title>
<path fill="none" stroke="midnightblue" d="M698.32,-172.16C565.16,-161.72 252.78,-137.24 126,-127.3"/>
<polygon fill="midnightblue" stroke="midnightblue" points="126,-123.79 115.76,-126.5 125.45,-130.77 126,-123.79"/>
</g>
<!-- Node8 -->
<g id="node8" class="node">
<title>Node8</title>
<g id="a_node8"><a xlink:href="http__builder_8h.html" target="_top" xlink:title=" ">
<polygon fill="white" stroke="black" points="390.58,-112.5 390.58,-131.5 473.58,-131.5 473.58,-112.5 390.58,-112.5"/>
<text text-anchor="middle" x="432.08" y="-119.5" font-family="Helvetica,sans-Serif" font-size="10.00">http_builder.h</text>
</a>
</g>
</g>
<!-- Node1&#45;&gt;Node8 -->
<g id="edge8" class="edge">
<title>Node1&#45;&gt;Node8</title>
<path fill="none" stroke="midnightblue" d="M708.1,-168.44C646.71,-158.34 545.21,-141.63 483.89,-131.53"/>
<polygon fill="midnightblue" stroke="midnightblue" points="484.1,-128.02 473.67,-129.85 482.97,-134.93 484.1,-128.02"/>
</g>
<!-- Node15 -->
<g id="node15" class="node">
<title>Node15</title>
<g id="a_node15"><a xlink:title=" ">
<polygon fill="white" stroke="#bfbfbf" points="618.58,-0.5 618.58,-19.5 665.58,-19.5 665.58,-0.5 618.58,-0.5"/>
<text text-anchor="middle" x="642.08" y="-7.5" font-family="Helvetica,sans-Serif" font-size="10.00">vector</text>
</a>
</g>
</g>
<!-- Node1&#45;&gt;Node15 -->
<g id="edge29" class="edge">
<title>Node1&#45;&gt;Node15</title>
<path fill="none" stroke="midnightblue" d="M770.23,-168.39C793.61,-147.55 847.08,-93.35 818.08,-56 800.8,-33.76 721.98,-20.65 675.88,-14.75"/>
<polygon fill="midnightblue" stroke="midnightblue" points="676.11,-11.25 665.75,-13.51 675.25,-18.2 676.11,-11.25"/>
</g>
<!-- Node18 -->
<g id="node18" class="node">
<title>Node18</title>
<g id="a_node18"><a xlink:title=" ">
<polygon fill="white" stroke="#bfbfbf" points="845.08,-112.5 845.08,-131.5 877.08,-131.5 877.08,-112.5 845.08,-112.5"/>
<text text-anchor="middle" x="861.08" y="-119.5" font-family="Helvetica,sans-Serif" font-size="10.00">list</text>
</a>
</g>
</g>
<!-- Node1&#45;&gt;Node18 -->
<g id="edge25" class="edge">
<title>Node1&#45;&gt;Node18</title>
<path fill="none" stroke="midnightblue" d="M776.3,-168.32C792.43,-159.7 817.38,-146.36 836.04,-136.39"/>
<polygon fill="midnightblue" stroke="midnightblue" points="837.72,-139.46 844.89,-131.65 834.42,-133.28 837.72,-139.46"/>
</g>
<!-- Node19 -->
<g id="node19" class="node">
<title>Node19</title>
<g id="a_node19"><a xlink:title=" ">
<polygon fill="white" stroke="#bfbfbf" points="895.08,-112.5 895.08,-131.5 953.08,-131.5 953.08,-112.5 895.08,-112.5"/>
<text text-anchor="middle" x="924.08" y="-119.5" font-family="Helvetica,sans-Serif" font-size="10.00">memory</text>
</a>
</g>
</g>
<!-- Node1&#45;&gt;Node19 -->
<g id="edge26" class="edge">
<title>Node1&#45;&gt;Node19</title>
<path fill="none" stroke="midnightblue" d="M786.06,-168.44C813.77,-159.32 857.83,-144.81 888.69,-134.65"/>
<polygon fill="midnightblue" stroke="midnightblue" points="889.81,-137.97 898.21,-131.52 887.62,-131.32 889.81,-137.97"/>
</g>
<!-- Node20 -->
<g id="node20" class="node">
<title>Node20</title>
<g id="a_node20"><a xlink:title=" ">
<polygon fill="white" stroke="#bfbfbf" points="971.08,-112.5 971.08,-131.5 1075.08,-131.5 1075.08,-112.5 971.08,-112.5"/>
<text text-anchor="middle" x="1023.08" y="-119.5" font-family="Helvetica,sans-Serif" font-size="10.00">nghttp2/nghttp2.h</text>
</a>
</g>
</g>
<!-- Node1&#45;&gt;Node20 -->
<g id="edge27" class="edge">
<title>Node1&#45;&gt;Node20</title>
<path fill="none" stroke="midnightblue" d="M801.75,-168.44C847.82,-158.98 922.07,-143.74 971.71,-133.55"/>
<polygon fill="midnightblue" stroke="midnightblue" points="972.51,-136.96 981.6,-131.52 971.1,-130.1 972.51,-136.96"/>
</g>
<!-- Node3 -->
<g id="node3" class="node">
<title>Node3</title>
<g id="a_node3"><a xlink:title=" ">
<polygon fill="white" stroke="#bfbfbf" points="174.08,-0.5 174.08,-19.5 212.08,-19.5 212.08,-0.5 174.08,-0.5"/>
<text text-anchor="middle" x="193.08" y="-7.5" font-family="Helvetica,sans-Serif" font-size="10.00">map</text>
</a>
</g>
</g>
<!-- Node2&#45;&gt;Node3 -->
<g id="edge2" class="edge">
<title>Node2&#45;&gt;Node3</title>
<path fill="none" stroke="midnightblue" d="M193.08,-56.08C193.08,-49.01 193.08,-38.86 193.08,-29.99"/>
<polygon fill="midnightblue" stroke="midnightblue" points="196.58,-29.75 193.08,-19.75 189.58,-29.75 196.58,-29.75"/>
</g>
<!-- Node2&#45;&gt;Node4 -->
<g id="edge3" class="edge">
<title>Node2&#45;&gt;Node4</title>
<path fill="none" stroke="midnightblue" d="M183.6,-56.32C174.87,-48.34 161.73,-36.31 151.18,-26.65"/>
<polygon fill="midnightblue" stroke="midnightblue" points="153.47,-24 143.73,-19.83 148.74,-29.17 153.47,-24"/>
</g>
<!-- Node6&#45;&gt;Node4 -->
<g id="edge7" class="edge">
<title>Node6&#45;&gt;Node4</title>
<path fill="none" stroke="midnightblue" d="M56.28,-112.38C37.18,-100.12 7.99,-76.84 22.08,-56 39.79,-29.79 75.56,-18.84 101.93,-14.27"/>
<polygon fill="midnightblue" stroke="midnightblue" points="102.51,-17.73 111.87,-12.77 101.46,-10.81 102.51,-17.73"/>
</g>
<!-- Node7 -->
<g id="node7" class="node">
<title>Node7</title>
<g id="a_node7"><a xlink:title=" ">
<polygon fill="white" stroke="#bfbfbf" points="31.08,-56.5 31.08,-75.5 111.08,-75.5 111.08,-56.5 31.08,-56.5"/>
<text text-anchor="middle" x="71.08" y="-63.5" font-family="Helvetica,sans-Serif" font-size="10.00">llhttp/llhttp.h</text>
</a>
</g>
</g>
<!-- Node6&#45;&gt;Node7 -->
<g id="edge6" class="edge">
<title>Node6&#45;&gt;Node7</title>
<path fill="none" stroke="midnightblue" d="M71.08,-112.08C71.08,-105.01 71.08,-94.86 71.08,-85.99"/>
<polygon fill="midnightblue" stroke="midnightblue" points="74.58,-85.75 71.08,-75.75 67.58,-85.75 74.58,-85.75"/>
</g>
<!-- Node8&#45;&gt;Node2 -->
<g id="edge18" class="edge">
<title>Node8&#45;&gt;Node2</title>
<path fill="none" stroke="midnightblue" d="M394.2,-112.44C352.6,-103.04 285.71,-87.93 240.61,-77.74"/>
<polygon fill="midnightblue" stroke="midnightblue" points="241.29,-74.31 230.77,-75.52 239.75,-81.13 241.29,-74.31"/>
</g>
<!-- Node8&#45;&gt;Node3 -->
<g id="edge22" class="edge">
<title>Node8&#45;&gt;Node3</title>
<path fill="none" stroke="midnightblue" d="M415,-112.29C389.82,-99.54 341.16,-75.2 299.08,-56 273.17,-44.18 243.27,-31.58 221.85,-22.73"/>
<polygon fill="midnightblue" stroke="midnightblue" points="222.94,-19.39 212.36,-18.83 220.27,-25.87 222.94,-19.39"/>
</g>
<!-- Node8&#45;&gt;Node4 -->
<g id="edge23" class="edge">
<title>Node8&#45;&gt;Node4</title>
<path fill="none" stroke="midnightblue" d="M400.69,-112.49C373.26,-104.57 332.67,-91.63 299.08,-76 283.53,-68.76 281.62,-63.25 266.08,-56 248.08,-47.6 198.95,-31.49 165.98,-21"/>
<polygon fill="midnightblue" stroke="midnightblue" points="166.9,-17.62 156.31,-17.94 164.79,-24.29 166.9,-17.62"/>
</g>
<!-- Node8&#45;&gt;Node5 -->
<g id="edge19" class="edge">
<title>Node8&#45;&gt;Node5</title>
<path fill="none" stroke="midnightblue" d="M473.62,-114.16C531.05,-104.71 635.04,-87.59 700.67,-76.78"/>
<polygon fill="midnightblue" stroke="midnightblue" points="701.56,-80.18 710.86,-75.1 700.43,-73.27 701.56,-80.18"/>
</g>
<!-- Node8&#45;&gt;Node7 -->
<g id="edge21" class="edge">
<title>Node8&#45;&gt;Node7</title>
<path fill="none" stroke="midnightblue" d="M390.36,-115.5C332.32,-107.74 223.67,-92.79 121.07,-76.11"/>
<polygon fill="midnightblue" stroke="midnightblue" points="121.6,-72.65 111.16,-74.49 120.47,-79.56 121.6,-72.65"/>
</g>
<!-- Node9 -->
<g id="node9" class="node">
<title>Node9</title>
<g id="a_node9"><a xlink:href="nonstd_8h.html" target="_top" xlink:title=" ">
<polygon fill="white" stroke="black" points="351.08,-56.5 351.08,-75.5 441.08,-75.5 441.08,-56.5 351.08,-56.5"/>
<text text-anchor="middle" x="396.08" y="-63.5" font-family="Helvetica,sans-Serif" font-size="10.00">ccf/ds/nonstd.h</text>
</a>
</g>
</g>
<!-- Node8&#45;&gt;Node9 -->
<g id="edge9" class="edge">
<title>Node8&#45;&gt;Node9</title>
<path fill="none" stroke="midnightblue" d="M426.13,-112.08C421.1,-104.53 413.74,-93.49 407.56,-84.23"/>
<polygon fill="midnightblue" stroke="midnightblue" points="410.37,-82.13 401.91,-75.75 404.54,-86.01 410.37,-82.13"/>
</g>
<!-- Node8&#45;&gt;Node15 -->
<g id="edge24" class="edge">
<title>Node8&#45;&gt;Node15</title>
<path fill="none" stroke="midnightblue" d="M437.12,-112.44C445.77,-98.51 464.78,-71 488.08,-56 493.26,-52.66 565.05,-32.38 608.76,-20.22"/>
<polygon fill="midnightblue" stroke="midnightblue" points="609.72,-23.58 618.41,-17.53 607.84,-16.84 609.72,-23.58"/>
</g>
<!-- Node16 -->
<g id="node16" class="node">
<title>Node16</title>
<g id="a_node16"><a xlink:href="http__consts_8h.html" target="_top" xlink:title=" ">
<polygon fill="white" stroke="black" points="497.58,-56.5 497.58,-75.5 596.58,-75.5 596.58,-56.5 497.58,-56.5"/>
<text text-anchor="middle" x="547.08" y="-63.5" font-family="Helvetica,sans-Serif" font-size="10.00">ccf/http_consts.h</text>
</a>
</g>
</g>
<!-- Node8&#45;&gt;Node16 -->
<g id="edge17" class="edge">
<title>Node8&#45;&gt;Node16</title>
<path fill="none" stroke="midnightblue" d="M450.3,-112.44C468.97,-103.68 498.23,-89.94 519.69,-79.86"/>
<polygon fill="midnightblue" stroke="midnightblue" points="521.37,-82.93 528.94,-75.52 518.4,-76.6 521.37,-82.93"/>
</g>
<!-- Node17 -->
<g id="node17" class="node">
<title>Node17</title>
<g id="a_node17"><a xlink:title=" ">
<polygon fill="white" stroke="#bfbfbf" points="614.58,-56.5 614.58,-75.5 693.58,-75.5 693.58,-56.5 614.58,-56.5"/>
<text text-anchor="middle" x="654.08" y="-63.5" font-family="Helvetica,sans-Serif" font-size="10.00">fmt/format.h</text>
</a>
</g>
</g>
<!-- Node8&#45;&gt;Node17 -->
<g id="edge20" class="edge">
<title>Node8&#45;&gt;Node17</title>
<path fill="none" stroke="midnightblue" d="M467.25,-112.44C505.65,-103.1 567.25,-88.12 609.13,-77.93"/>
<polygon fill="midnightblue" stroke="midnightblue" points="610.17,-81.28 619.06,-75.52 608.52,-74.48 610.17,-81.28"/>
</g>
<!-- Node9&#45;&gt;Node4 -->
<g id="edge13" class="edge">
<title>Node9&#45;&gt;Node4</title>
<path fill="none" stroke="midnightblue" d="M350.67,-57.4C305.99,-49.65 235.68,-36.7 166.16,-20.1"/>
<polygon fill="midnightblue" stroke="midnightblue" points="166.9,-16.68 156.36,-17.73 165.26,-23.48 166.9,-16.68"/>
</g>
<!-- Node10 -->
<g id="node10" class="node">
<title>Node10</title>
<g id="a_node10"><a xlink:title=" ">
<polygon fill="white" stroke="#bfbfbf" points="318.08,-0.5 318.08,-19.5 382.08,-19.5 382.08,-0.5 318.08,-0.5"/>
<text text-anchor="middle" x="350.08" y="-7.5" font-family="Helvetica,sans-Serif" font-size="10.00">algorithm</text>
</a>
</g>
</g>
<!-- Node9&#45;&gt;Node10 -->
<g id="edge10" class="edge">
<title>Node9&#45;&gt;Node10</title>
<path fill="none" stroke="midnightblue" d="M388.48,-56.08C381.85,-48.3 372.05,-36.8 364.02,-27.37"/>
<polygon fill="midnightblue" stroke="midnightblue" points="366.68,-25.09 357.53,-19.75 361.35,-29.63 366.68,-25.09"/>
</g>
<!-- Node11 -->
<g id="node11" class="node">
<title>Node11</title>
<g id="a_node11"><a xlink:title=" ">
<polygon fill="white" stroke="#bfbfbf" points="400.08,-0.5 400.08,-19.5 442.08,-19.5 442.08,-0.5 400.08,-0.5"/>
<text text-anchor="middle" x="421.08" y="-7.5" font-family="Helvetica,sans-Serif" font-size="10.00">array</text>
</a>
</g>
</g>
<!-- Node9&#45;&gt;Node11 -->
<g id="edge11" class="edge">
<title>Node9&#45;&gt;Node11</title>
<path fill="none" stroke="midnightblue" d="M400.2,-56.08C403.59,-48.77 408.49,-38.18 412.69,-29.1"/>
<polygon fill="midnightblue" stroke="midnightblue" points="416,-30.3 417.02,-19.75 409.65,-27.36 416,-30.3"/>
</g>
<!-- Node12 -->
<g id="node12" class="node">
<title>Node12</title>
<g id="a_node12"><a xlink:title=" ">
<polygon fill="white" stroke="#bfbfbf" points="460.58,-0.5 460.58,-19.5 509.58,-19.5 509.58,-0.5 460.58,-0.5"/>
<text text-anchor="middle" x="485.08" y="-7.5" font-family="Helvetica,sans-Serif" font-size="10.00">cctype</text>
</a>
</g>
</g>
<!-- Node9&#45;&gt;Node12 -->
<g id="edge12" class="edge">
<title>Node9&#45;&gt;Node12</title>
<path fill="none" stroke="midnightblue" d="M410.37,-56.32C424.26,-47.9 445.57,-34.97 461.88,-25.07"/>
<polygon fill="midnightblue" stroke="midnightblue" points="464.08,-27.83 470.81,-19.65 460.45,-21.85 464.08,-27.83"/>
</g>
<!-- Node13 -->
<g id="node13" class="node">
<title>Node13</title>
<g id="a_node13"><a xlink:title=" ">
<polygon fill="white" stroke="#bfbfbf" points="527.58,-0.5 527.58,-19.5 600.58,-19.5 600.58,-0.5 527.58,-0.5"/>
<text text-anchor="middle" x="564.08" y="-7.5" font-family="Helvetica,sans-Serif" font-size="10.00">string_view</text>
</a>
</g>
</g>
<!-- Node9&#45;&gt;Node13 -->
<g id="edge14" class="edge">
<title>Node9&#45;&gt;Node13</title>
<path fill="none" stroke="midnightblue" d="M422.7,-56.44C451.08,-47.32 496.21,-32.81 527.83,-22.65"/>
<polygon fill="midnightblue" stroke="midnightblue" points="529.13,-25.91 537.58,-19.52 526.99,-19.24 529.13,-25.91"/>
</g>
<!-- Node14 -->
<g id="node14" class="node">
<title>Node14</title>
<g id="a_node14"><a xlink:title=" ">
<polygon fill="white" stroke="#bfbfbf" points="230.58,-0.5 230.58,-19.5 299.58,-19.5 299.58,-0.5 230.58,-0.5"/>
<text text-anchor="middle" x="265.08" y="-7.5" font-family="Helvetica,sans-Serif" font-size="10.00">type_traits</text>
</a>
</g>
</g>
<!-- Node9&#45;&gt;Node14 -->
<g id="edge15" class="edge">
<title>Node9&#45;&gt;Node14</title>
<path fill="none" stroke="midnightblue" d="M375.32,-56.44C353.76,-47.56 319.81,-33.56 295.28,-23.45"/>
<polygon fill="midnightblue" stroke="midnightblue" points="296.31,-20.09 285.74,-19.52 293.65,-26.56 296.31,-20.09"/>
</g>
<!-- Node9&#45;&gt;Node15 -->
<g id="edge16" class="edge">
<title>Node9&#45;&gt;Node15</title>
<path fill="none" stroke="midnightblue" d="M440.3,-56.44C481.39,-48.3 544.49,-35.37 608.47,-20.04"/>
<polygon fill="midnightblue" stroke="midnightblue" points="609.43,-23.4 618.32,-17.65 607.78,-16.6 609.43,-23.4"/>
</g>
</g>
</svg>
