<?xml version="1.0" encoding="UTF-8" standalone="no"?>
<!DOCTYPE svg PUBLIC "-//W3C//DTD SVG 1.1//EN"
 "http://www.w3.org/Graphics/SVG/1.1/DTD/svg11.dtd">
<!-- Generated by graphviz version 2.43.0 (0)
 -->
<!-- Title: Graphical Class Hierarchy Pages: 1 -->
<svg width="304pt" height="344pt"
 viewBox="0.00 0.00 304.00 344.00" xmlns="http://www.w3.org/2000/svg" xmlns:xlink="http://www.w3.org/1999/xlink">
<g id="graph0" class="graph" transform="scale(1 1) rotate(0) translate(4 340)">
<title>Graphical Class Hierarchy</title>
<polygon fill="white" stroke="transparent" points="-4,4 -4,-340 300,-340 300,4 -4,4"/>
<!-- Node0 -->
<g id="node1" class="node">
<title>Node0</title>
<g id="a_node1"><a xlink:href="classccf_1_1AuthnPolicy.html" target="_top" xlink:title=" ">
<polygon fill="white" stroke="black" points="0,-158.5 0,-177.5 94,-177.5 94,-158.5 0,-158.5"/>
<text text-anchor="middle" x="47" y="-165.5" font-family="Helvetica,sans-Serif" font-size="10.00">ccf::AuthnPolicy</text>
</a>
</g>
</g>
<!-- Node1 -->
<g id="node2" class="node">
<title>Node1</title>
<g id="a_node2"><a xlink:href="classExecutorAuthPolicy.html" target="_top" xlink:title=" ">
<polygon fill="white" stroke="black" points="158,-316.5 158,-335.5 268,-335.5 268,-316.5 158,-316.5"/>
<text text-anchor="middle" x="213" y="-323.5" font-family="Helvetica,sans-Serif" font-size="10.00">ExecutorAuthPolicy</text>
</a>
</g>
</g>
<!-- Node0&#45;&gt;Node1 -->
<g id="edge1" class="edge">
<title>Node0&#45;&gt;Node1</title>
<path fill="none" stroke="midnightblue" d="M53.88,-187.39C64.16,-217.81 88.35,-276.45 130,-307 138.13,-312.96 147.84,-317.09 157.68,-319.94"/>
<polygon fill="midnightblue" stroke="midnightblue" points="57.12,-186.01 50.72,-177.56 50.45,-188.15 57.12,-186.01"/>
</g>
<!-- Node2 -->
<g id="node3" class="node">
<title>Node2</title>
<g id="a_node3"><a xlink:href="classccf_1_1EmptyAuthnPolicy.html" target="_top" xlink:title=" ">
<polygon fill="white" stroke="black" points="150.5,-278.5 150.5,-297.5 275.5,-297.5 275.5,-278.5 150.5,-278.5"/>
<text text-anchor="middle" x="213" y="-285.5" font-family="Helvetica,sans-Serif" font-size="10.00">ccf::EmptyAuthnPolicy</text>
</a>
</g>
</g>
<!-- Node0&#45;&gt;Node2 -->
<g id="edge2" class="edge">
<title>Node0&#45;&gt;Node2</title>
<path fill="none" stroke="midnightblue" d="M57.76,-186.34C70.99,-209.34 96.81,-248.27 130,-269 136.2,-272.87 143.1,-275.95 150.2,-278.41"/>
<polygon fill="midnightblue" stroke="midnightblue" points="60.8,-184.6 52.88,-177.56 54.68,-188 60.8,-184.6"/>
</g>
<!-- Node3 -->
<g id="node4" class="node">
<title>Node3</title>
<g id="a_node4"><a xlink:href="classccf_1_1JwtAuthnPolicy.html" target="_top" xlink:title=" ">
<polygon fill="white" stroke="black" points="158.5,-240.5 158.5,-259.5 267.5,-259.5 267.5,-240.5 158.5,-240.5"/>
<text text-anchor="middle" x="213" y="-247.5" font-family="Helvetica,sans-Serif" font-size="10.00">ccf::JwtAuthnPolicy</text>
</a>
</g>
</g>
<!-- Node0&#45;&gt;Node3 -->
<g id="edge3" class="edge">
<title>Node0&#45;&gt;Node3</title>
<path fill="none" stroke="midnightblue" d="M64.99,-184.61C80.64,-198.98 105.12,-219.24 130,-231 138.85,-235.18 148.69,-238.48 158.39,-241.06"/>
<polygon fill="midnightblue" stroke="midnightblue" points="67.34,-182.02 57.66,-177.71 62.55,-187.11 67.34,-182.02"/>
</g>
<!-- Node4 -->
<g id="node5" class="node">
<title>Node4</title>
<g id="a_node5"><a xlink:href="classccf_1_1MemberCertAuthnPolicy.html" target="_top" xlink:title=" ">
<polygon fill="white" stroke="black" points="135.5,-202.5 135.5,-221.5 290.5,-221.5 290.5,-202.5 135.5,-202.5"/>
<text text-anchor="middle" x="213" y="-209.5" font-family="Helvetica,sans-Serif" font-size="10.00">ccf::MemberCertAuthnPolicy</text>
</a>
</g>
</g>
<!-- Node0&#45;&gt;Node4 -->
<g id="edge4" class="edge">
<title>Node0&#45;&gt;Node4</title>
<path fill="none" stroke="midnightblue" d="M87.37,-180.6C100.84,-184.75 116.02,-189.26 130,-193 142.42,-196.33 155.99,-199.61 168.46,-202.49"/>
<polygon fill="midnightblue" stroke="midnightblue" points="88.05,-177.15 77.46,-177.52 85.97,-183.83 88.05,-177.15"/>
</g>
<!-- Node5 -->
<g id="node6" class="node">
<title>Node5</title>
<g id="a_node6"><a xlink:href="classccf_1_1MemberSignatureAuthnPolicy.html" target="_top" xlink:title=" ">
<polygon fill="white" stroke="black" points="137,-153 137,-183 289,-183 289,-153 137,-153"/>
<text text-anchor="start" x="145" y="-171" font-family="Helvetica,sans-Serif" font-size="10.00">ccf::MemberSignatureAuthn</text>
<text text-anchor="middle" x="213" y="-160" font-family="Helvetica,sans-Serif" font-size="10.00">Policy</text>
</a>
</g>
</g>
<!-- Node0&#45;&gt;Node5 -->
<g id="edge5" class="edge">
<title>Node0&#45;&gt;Node5</title>
<path fill="none" stroke="midnightblue" d="M104.33,-168C114.78,-168 125.84,-168 136.75,-168"/>
<polygon fill="midnightblue" stroke="midnightblue" points="104.12,-164.5 94.12,-168 104.12,-171.5 104.12,-164.5"/>
</g>
<!-- Node6 -->
<g id="node7" class="node">
<title>Node6</title>
<g id="a_node7"><a xlink:href="classccf_1_1NodeCertAuthnPolicy.html" target="_top" xlink:title=" ">
<polygon fill="white" stroke="black" points="143,-114.5 143,-133.5 283,-133.5 283,-114.5 143,-114.5"/>
<text text-anchor="middle" x="213" y="-121.5" font-family="Helvetica,sans-Serif" font-size="10.00">ccf::NodeCertAuthnPolicy</text>
</a>
</g>
</g>
<!-- Node0&#45;&gt;Node6 -->
<g id="edge6" class="edge">
<title>Node0&#45;&gt;Node6</title>
<path fill="none" stroke="midnightblue" d="M89.09,-155.58C102.14,-151.74 116.64,-147.58 130,-144 143.45,-140.39 158.2,-136.71 171.45,-133.5"/>
<polygon fill="midnightblue" stroke="midnightblue" points="88.04,-152.24 79.45,-158.43 90.03,-158.95 88.04,-152.24"/>
</g>
<!-- Node7 -->
<g id="node8" class="node">
<title>Node7</title>
<g id="a_node8"><a xlink:href="classccf_1_1UserCertAuthnPolicy.html" target="_top" xlink:title=" ">
<polygon fill="white" stroke="black" points="144.5,-76.5 144.5,-95.5 281.5,-95.5 281.5,-76.5 144.5,-76.5"/>
<text text-anchor="middle" x="213" y="-83.5" font-family="Helvetica,sans-Serif" font-size="10.00">ccf::UserCertAuthnPolicy</text>
</a>
</g>
</g>
<!-- Node0&#45;&gt;Node7 -->
<g id="edge7" class="edge">
<title>Node0&#45;&gt;Node7</title>
<path fill="none" stroke="midnightblue" d="M64.99,-151.39C80.64,-137.02 105.12,-116.76 130,-105 138.19,-101.13 147.23,-98.02 156.21,-95.53"/>
<polygon fill="midnightblue" stroke="midnightblue" points="62.55,-148.89 57.66,-158.29 67.34,-153.98 62.55,-148.89"/>
</g>
<!-- Node8 -->
<g id="node9" class="node">
<title>Node8</title>
<g id="a_node9"><a xlink:href="classccf_1_1UserSignatureAuthnPolicy.html" target="_top" xlink:title=" ">
<polygon fill="white" stroke="black" points="131.5,-38.5 131.5,-57.5 294.5,-57.5 294.5,-38.5 131.5,-38.5"/>
<text text-anchor="middle" x="213" y="-45.5" font-family="Helvetica,sans-Serif" font-size="10.00">ccf::UserSignatureAuthnPolicy</text>
</a>
</g>
</g>
<!-- Node0&#45;&gt;Node8 -->
<g id="edge8" class="edge">
<title>Node0&#45;&gt;Node8</title>
<path fill="none" stroke="midnightblue" d="M57.76,-149.66C70.99,-126.66 96.81,-87.73 130,-67 136.2,-63.13 143.1,-60.05 150.2,-57.59"/>
<polygon fill="midnightblue" stroke="midnightblue" points="54.68,-148 52.88,-158.44 60.8,-151.4 54.68,-148"/>
</g>
<!-- Node9 -->
<g id="node10" class="node">
<title>Node9</title>
<g id="a_node10"><a xlink:href="classloggingapp_1_1CustomAuthPolicy.html" target="_top" xlink:title=" ">
<polygon fill="white" stroke="black" points="130,-0.5 130,-19.5 296,-19.5 296,-0.5 130,-0.5"/>
<text text-anchor="middle" x="213" y="-7.5" font-family="Helvetica,sans-Serif" font-size="10.00">loggingapp::CustomAuthPolicy</text>
</a>
</g>
</g>
<!-- Node0&#45;&gt;Node9 -->
<g id="edge9" class="edge">
<title>Node0&#45;&gt;Node9</title>
<path fill="none" stroke="midnightblue" d="M53.88,-148.61C64.16,-118.19 88.35,-59.55 130,-29 135.3,-25.11 141.28,-22 147.52,-19.52"/>
<polygon fill="midnightblue" stroke="midnightblue" points="50.45,-147.85 50.72,-158.44 57.12,-149.99 50.45,-147.85"/>
</g>
</g>
</svg>
