<?xml version="1.0" encoding="UTF-8" standalone="no"?>
<!DOCTYPE svg PUBLIC "-//W3C//DTD SVG 1.1//EN"
 "http://www.w3.org/Graphics/SVG/1.1/DTD/svg11.dtd">
<!-- Generated by graphviz version 2.43.0 (0)
 -->
<!-- Title: Graphical Class Hierarchy Pages: 1 -->
<svg width="1056pt" height="230pt"
 viewBox="0.00 0.00 1056.00 230.00" xmlns="http://www.w3.org/2000/svg" xmlns:xlink="http://www.w3.org/1999/xlink">
<g id="graph0" class="graph" transform="scale(1 1) rotate(0) translate(4 226)">
<title>Graphical Class Hierarchy</title>
<polygon fill="white" stroke="transparent" points="-4,4 -4,-226 1052,-226 1052,4 -4,4"/>
<!-- Node0 -->
<g id="node1" class="node">
<title>Node0</title>
<g id="a_node1"><a xlink:href="structccf_1_1endpoints_1_1Endpoint_1_1Installer.html" target="_top" xlink:title=" ">
<polygon fill="white" stroke="black" points="0,-121 0,-151 133,-151 133,-121 0,-121"/>
<text text-anchor="start" x="8" y="-139" font-family="Helvetica,sans-Serif" font-size="10.00">ccf::endpoints::Endpoint</text>
<text text-anchor="middle" x="66.5" y="-128" font-family="Helvetica,sans-Serif" font-size="10.00">::Installer</text>
</a>
</g>
</g>
<!-- Node1 -->
<g id="node2" class="node">
<title>Node1</title>
<g id="a_node2"><a xlink:href="classccf_1_1endpoints_1_1EndpointRegistry.html" target="_top" xlink:title=" ">
<polygon fill="white" stroke="black" points="169,-121 169,-151 302,-151 302,-121 169,-121"/>
<text text-anchor="start" x="177" y="-139" font-family="Helvetica,sans-Serif" font-size="10.00">ccf::endpoints::Endpoint</text>
<text text-anchor="middle" x="235.5" y="-128" font-family="Helvetica,sans-Serif" font-size="10.00">Registry</text>
</a>
</g>
</g>
<!-- Node0&#45;&gt;Node1 -->
<g id="edge1" class="edge">
<title>Node0&#45;&gt;Node1</title>
<path fill="none" stroke="midnightblue" d="M143.07,-136C151.68,-136 160.42,-136 168.89,-136"/>
<polygon fill="midnightblue" stroke="midnightblue" points="143.02,-132.5 133.02,-136 143.02,-139.5 143.02,-132.5"/>
</g>
<!-- Node2 -->
<g id="node3" class="node">
<title>Node2</title>
<g id="a_node3"><a xlink:href="classccf_1_1BaseEndpointRegistry.html" target="_top" xlink:title=" ">
<polygon fill="white" stroke="black" points="338,-126.5 338,-145.5 481,-145.5 481,-126.5 338,-126.5"/>
<text text-anchor="middle" x="409.5" y="-133.5" font-family="Helvetica,sans-Serif" font-size="10.00">ccf::BaseEndpointRegistry</text>
</a>
</g>
</g>
<!-- Node1&#45;&gt;Node2 -->
<g id="edge2" class="edge">
<title>Node1&#45;&gt;Node2</title>
<path fill="none" stroke="midnightblue" d="M312.25,-136C320.72,-136 329.32,-136 337.72,-136"/>
<polygon fill="midnightblue" stroke="midnightblue" points="312.02,-132.5 302.02,-136 312.02,-139.5 312.02,-132.5"/>
</g>
<!-- Node3 -->
<g id="node4" class="node">
<title>Node3</title>
<g id="a_node4"><a xlink:href="classccf_1_1CommonEndpointRegistry.html" target="_top" xlink:title=" ">
<polygon fill="white" stroke="black" points="517,-145.5 517,-164.5 681,-164.5 681,-145.5 517,-145.5"/>
<text text-anchor="middle" x="599" y="-152.5" font-family="Helvetica,sans-Serif" font-size="10.00">ccf::CommonEndpointRegistry</text>
</a>
</g>
</g>
<!-- Node2&#45;&gt;Node3 -->
<g id="edge3" class="edge">
<title>Node2&#45;&gt;Node3</title>
<path fill="none" stroke="midnightblue" d="M491.31,-144.19C499.74,-145.04 508.31,-145.91 516.74,-146.77"/>
<polygon fill="midnightblue" stroke="midnightblue" points="491.42,-140.68 481.12,-143.16 490.71,-147.65 491.42,-140.68"/>
</g>
<!-- Node13 -->
<g id="node14" class="node">
<title>Node13</title>
<g id="a_node14"><a xlink:href="classnobuiltins_1_1NoBuiltinsRegistry.html" target="_top" xlink:title=" ">
<polygon fill="white" stroke="black" points="518.5,-107.5 518.5,-126.5 679.5,-126.5 679.5,-107.5 518.5,-107.5"/>
<text text-anchor="middle" x="599" y="-114.5" font-family="Helvetica,sans-Serif" font-size="10.00">nobuiltins::NoBuiltinsRegistry</text>
</a>
</g>
</g>
<!-- Node2&#45;&gt;Node13 -->
<g id="edge13" class="edge">
<title>Node2&#45;&gt;Node13</title>
<path fill="none" stroke="midnightblue" d="M491.19,-127.82C500.18,-126.91 509.34,-125.98 518.33,-125.07"/>
<polygon fill="midnightblue" stroke="midnightblue" points="490.71,-124.35 481.12,-128.84 491.42,-131.32 490.71,-124.35"/>
</g>
<!-- Node4 -->
<g id="node5" class="node">
<title>Node4</title>
<g id="a_node5"><a xlink:href="classccf_1_1ACMERpcEndpoints.html" target="_top" xlink:title=" ">
<polygon fill="white" stroke="black" points="722.5,-202.5 722.5,-221.5 853.5,-221.5 853.5,-202.5 722.5,-202.5"/>
<text text-anchor="middle" x="788" y="-209.5" font-family="Helvetica,sans-Serif" font-size="10.00">ccf::ACMERpcEndpoints</text>
</a>
</g>
</g>
<!-- Node3&#45;&gt;Node4 -->
<g id="edge4" class="edge">
<title>Node3&#45;&gt;Node4</title>
<path fill="none" stroke="midnightblue" d="M637.9,-167.83C660.73,-175.43 690.43,-185.09 717,-193 727.86,-196.24 739.74,-199.54 750.57,-202.48"/>
<polygon fill="midnightblue" stroke="midnightblue" points="638.84,-164.45 628.25,-164.6 636.62,-171.09 638.84,-164.45"/>
</g>
<!-- Node5 -->
<g id="node6" class="node">
<title>Node5</title>
<g id="a_node6"><a xlink:href="classccf_1_1MemberEndpoints.html" target="_top" xlink:title=" ">
<polygon fill="white" stroke="black" points="725.5,-164.5 725.5,-183.5 850.5,-183.5 850.5,-164.5 725.5,-164.5"/>
<text text-anchor="middle" x="788" y="-171.5" font-family="Helvetica,sans-Serif" font-size="10.00">ccf::MemberEndpoints</text>
</a>
</g>
</g>
<!-- Node3&#45;&gt;Node5 -->
<g id="edge5" class="edge">
<title>Node3&#45;&gt;Node5</title>
<path fill="none" stroke="midnightblue" d="M691.3,-164.28C702.82,-165.45 714.39,-166.62 725.3,-167.73"/>
<polygon fill="midnightblue" stroke="midnightblue" points="691.51,-160.78 681.21,-163.25 690.8,-167.74 691.51,-160.78"/>
</g>
<!-- Node6 -->
<g id="node7" class="node">
<title>Node6</title>
<g id="a_node7"><a xlink:href="classccf_1_1NodeEndpoints.html" target="_top" xlink:title=" ">
<polygon fill="white" stroke="black" points="733,-126.5 733,-145.5 843,-145.5 843,-126.5 733,-126.5"/>
<text text-anchor="middle" x="788" y="-133.5" font-family="Helvetica,sans-Serif" font-size="10.00">ccf::NodeEndpoints</text>
</a>
</g>
</g>
<!-- Node3&#45;&gt;Node6 -->
<g id="edge6" class="edge">
<title>Node3&#45;&gt;Node6</title>
<path fill="none" stroke="midnightblue" d="M691.48,-145.71C705.62,-144.27 719.83,-142.83 732.8,-141.51"/>
<polygon fill="midnightblue" stroke="midnightblue" points="690.8,-142.26 681.21,-146.75 691.51,-149.22 690.8,-142.26"/>
</g>
<!-- Node7 -->
<g id="node8" class="node">
<title>Node7</title>
<g id="a_node8"><a xlink:href="classccf_1_1UserEndpointRegistry.html" target="_top" xlink:title=" ">
<polygon fill="white" stroke="black" points="717,-88.5 717,-107.5 859,-107.5 859,-88.5 717,-88.5"/>
<text text-anchor="middle" x="788" y="-95.5" font-family="Helvetica,sans-Serif" font-size="10.00">ccf::UserEndpointRegistry</text>
</a>
</g>
</g>
<!-- Node3&#45;&gt;Node7 -->
<g id="edge7" class="edge">
<title>Node3&#45;&gt;Node7</title>
<path fill="none" stroke="midnightblue" d="M659.72,-142.83C666.97,-140.81 674.21,-138.54 681,-136 697.94,-129.66 700.17,-123.63 717,-117 726.14,-113.4 736.21,-110.23 745.79,-107.56"/>
<polygon fill="midnightblue" stroke="midnightblue" points="658.64,-139.49 649.86,-145.42 660.42,-146.26 658.64,-139.49"/>
</g>
<!-- Node8 -->
<g id="node9" class="node">
<title>Node8</title>
<g id="a_node9"><a xlink:href="classccfapp_1_1JSHandlers.html" target="_top" xlink:title=" ">
<polygon fill="white" stroke="black" points="918,-164.5 918,-183.5 1025,-183.5 1025,-164.5 918,-164.5"/>
<text text-anchor="middle" x="971.5" y="-171.5" font-family="Helvetica,sans-Serif" font-size="10.00">ccfapp::JSHandlers</text>
</a>
</g>
</g>
<!-- Node7&#45;&gt;Node8 -->
<g id="edge8" class="edge">
<title>Node7&#45;&gt;Node8</title>
<path fill="none" stroke="midnightblue" d="M847.42,-111.17C851.45,-112.88 855.35,-114.82 859,-117 878.97,-128.94 874.92,-143.25 895,-155 902,-159.1 909.87,-162.32 917.81,-164.85"/>
<polygon fill="midnightblue" stroke="midnightblue" points="848.45,-107.81 837.86,-107.54 845.97,-114.36 848.45,-107.81"/>
</g>
<!-- Node9 -->
<g id="node10" class="node">
<title>Node9</title>
<g id="a_node10"><a xlink:href="classccfapp_1_1TpccHandlers.html" target="_top" xlink:title=" ">
<polygon fill="white" stroke="black" points="911,-126.5 911,-145.5 1032,-145.5 1032,-126.5 911,-126.5"/>
<text text-anchor="middle" x="971.5" y="-133.5" font-family="Helvetica,sans-Serif" font-size="10.00">ccfapp::TpccHandlers</text>
</a>
</g>
</g>
<!-- Node7&#45;&gt;Node9 -->
<g id="edge9" class="edge">
<title>Node7&#45;&gt;Node9</title>
<path fill="none" stroke="midnightblue" d="M844.79,-109.68C870.53,-115.07 900.7,-121.39 925.03,-126.48"/>
<polygon fill="midnightblue" stroke="midnightblue" points="845.31,-106.21 834.8,-107.59 843.87,-113.06 845.31,-106.21"/>
</g>
<!-- Node10 -->
<g id="node11" class="node">
<title>Node10</title>
<g id="a_node11"><a xlink:href="classccfapp_1_1V8Handlers.html" target="_top" xlink:title=" ">
<polygon fill="white" stroke="black" points="916,-88.5 916,-107.5 1027,-107.5 1027,-88.5 916,-88.5"/>
<text text-anchor="middle" x="971.5" y="-95.5" font-family="Helvetica,sans-Serif" font-size="10.00">ccfapp::V8Handlers</text>
</a>
</g>
</g>
<!-- Node7&#45;&gt;Node10 -->
<g id="edge10" class="edge">
<title>Node7&#45;&gt;Node10</title>
<path fill="none" stroke="midnightblue" d="M869.44,-98C885.18,-98 901.34,-98 915.99,-98"/>
<polygon fill="midnightblue" stroke="midnightblue" points="869.17,-94.5 859.17,-98 869.17,-101.5 869.17,-94.5"/>
</g>
<!-- Node11 -->
<g id="node12" class="node">
<title>Node11</title>
<g id="a_node12"><a xlink:href="classexternalexecutor_1_1EndpointRegistry.html" target="_top" xlink:title=" ">
<polygon fill="white" stroke="black" points="897.5,-39 897.5,-69 1045.5,-69 1045.5,-39 897.5,-39"/>
<text text-anchor="start" x="905.5" y="-57" font-family="Helvetica,sans-Serif" font-size="10.00">externalexecutor::Endpoint</text>
<text text-anchor="middle" x="971.5" y="-46" font-family="Helvetica,sans-Serif" font-size="10.00">Registry</text>
</a>
</g>
</g>
<!-- Node7&#45;&gt;Node11 -->
<g id="edge11" class="edge">
<title>Node7&#45;&gt;Node11</title>
<path fill="none" stroke="midnightblue" d="M838.31,-86.04C859.91,-80.81 885.48,-74.61 908.36,-69.07"/>
<polygon fill="midnightblue" stroke="midnightblue" points="837.28,-82.7 828.38,-88.45 838.93,-89.5 837.28,-82.7"/>
</g>
<!-- Node12 -->
<g id="node13" class="node">
<title>Node12</title>
<g id="a_node13"><a xlink:href="classloggingapp_1_1LoggerHandlers.html" target="_top" xlink:title=" ">
<polygon fill="white" stroke="black" points="895,-0.5 895,-19.5 1048,-19.5 1048,-0.5 895,-0.5"/>
<text text-anchor="middle" x="971.5" y="-7.5" font-family="Helvetica,sans-Serif" font-size="10.00">loggingapp::LoggerHandlers</text>
</a>
</g>
</g>
<!-- Node7&#45;&gt;Node12 -->
<g id="edge12" class="edge">
<title>Node7&#45;&gt;Node12</title>
<path fill="none" stroke="midnightblue" d="M808.91,-82.14C829.39,-66.54 862.78,-43.07 895,-29 903.67,-25.21 913.24,-22.08 922.58,-19.52"/>
<polygon fill="midnightblue" stroke="midnightblue" points="806.72,-79.4 800.96,-88.29 811.01,-84.94 806.72,-79.4"/>
</g>
</g>
</svg>
