<?xml version="1.0" encoding="UTF-8" standalone="no"?>
<!DOCTYPE svg PUBLIC "-//W3C//DTD SVG 1.1//EN"
 "http://www.w3.org/Graphics/SVG/1.1/DTD/svg11.dtd">
<!-- Generated by graphviz version 2.43.0 (0)
 -->
<!-- Title: src/ds/messaging.h Pages: 1 -->
<svg width="1820pt" height="308pt"
 viewBox="0.00 0.00 1820.00 308.00" xmlns="http://www.w3.org/2000/svg" xmlns:xlink="http://www.w3.org/1999/xlink">
<g id="graph0" class="graph" transform="scale(1 1) rotate(0) translate(4 304)">
<title>src/ds/messaging.h</title>
<polygon fill="white" stroke="transparent" points="-4,4 -4,-304 1816,-304 1816,4 -4,4"/>
<!-- Node1 -->
<g id="node1" class="node">
<title>Node1</title>
<g id="a_node1"><a xlink:title=" ">
<polygon fill="#bfbfbf" stroke="black" points="1422.5,-280.5 1422.5,-299.5 1532.5,-299.5 1532.5,-280.5 1422.5,-280.5"/>
<text text-anchor="middle" x="1477.5" y="-287.5" font-family="Helvetica,sans-Serif" font-size="10.00">src/ds/messaging.h</text>
</a>
</g>
</g>
<!-- Node2 -->
<g id="node2" class="node">
<title>Node2</title>
<g id="a_node2"><a xlink:href="logger_8h.html" target="_top" xlink:title=" ">
<polygon fill="white" stroke="black" points="1222,-224.5 1222,-243.5 1309,-243.5 1309,-224.5 1222,-224.5"/>
<text text-anchor="middle" x="1265.5" y="-231.5" font-family="Helvetica,sans-Serif" font-size="10.00">ccf/ds/logger.h</text>
</a>
</g>
</g>
<!-- Node1&#45;&gt;Node2 -->
<g id="edge1" class="edge">
<title>Node1&#45;&gt;Node2</title>
<path fill="none" stroke="midnightblue" d="M1443.91,-280.44C1407.31,-271.12 1348.66,-256.18 1308.67,-246"/>
<polygon fill="midnightblue" stroke="midnightblue" points="1309.49,-242.59 1298.93,-243.52 1307.76,-249.38 1309.49,-242.59"/>
</g>
<!-- Node9 -->
<g id="node9" class="node">
<title>Node9</title>
<g id="a_node9"><a xlink:title=" ">
<polygon fill="white" stroke="#bfbfbf" points="1610.5,-112.5 1610.5,-131.5 1648.5,-131.5 1648.5,-112.5 1610.5,-112.5"/>
<text text-anchor="middle" x="1629.5" y="-119.5" font-family="Helvetica,sans-Serif" font-size="10.00">map</text>
</a>
</g>
</g>
<!-- Node1&#45;&gt;Node9 -->
<g id="edge62" class="edge">
<title>Node1&#45;&gt;Node9</title>
<path fill="none" stroke="midnightblue" d="M1498.73,-280.43C1530.69,-266.31 1590.52,-234.99 1619.5,-188 1628.02,-174.18 1630.16,-155.66 1630.38,-141.93"/>
<polygon fill="midnightblue" stroke="midnightblue" points="1633.88,-141.66 1630.21,-131.72 1626.88,-141.78 1633.88,-141.66"/>
</g>
<!-- Node17 -->
<g id="node17" class="node">
<title>Node17</title>
<g id="a_node17"><a xlink:href="ring__buffer_8h.html" target="_top" xlink:title=" ">
<polygon fill="white" stroke="black" points="762,-224.5 762,-243.5 839,-243.5 839,-224.5 762,-224.5"/>
<text text-anchor="middle" x="800.5" y="-231.5" font-family="Helvetica,sans-Serif" font-size="10.00">ring_buffer.h</text>
</a>
</g>
</g>
<!-- Node1&#45;&gt;Node17 -->
<g id="edge18" class="edge">
<title>Node1&#45;&gt;Node17</title>
<path fill="none" stroke="midnightblue" d="M1422.39,-284.6C1293.1,-274.29 972.02,-248.68 849.28,-238.89"/>
<polygon fill="midnightblue" stroke="midnightblue" points="849.3,-235.38 839.06,-238.08 848.75,-242.36 849.3,-235.38"/>
</g>
<!-- Node36 -->
<g id="node36" class="node">
<title>Node36</title>
<g id="a_node36"><a xlink:title=" ">
<polygon fill="white" stroke="#bfbfbf" points="1339,-0.5 1339,-19.5 1404,-19.5 1404,-0.5 1339,-0.5"/>
<text text-anchor="middle" x="1371.5" y="-7.5" font-family="Helvetica,sans-Serif" font-size="10.00">stdexcept</text>
</a>
</g>
</g>
<!-- Node1&#45;&gt;Node36 -->
<g id="edge63" class="edge">
<title>Node1&#45;&gt;Node36</title>
<path fill="none" stroke="midnightblue" d="M1532.67,-282.31C1591.56,-271.73 1676.5,-245.02 1676.5,-179 1676.5,-179 1676.5,-179 1676.5,-121 1676.5,-65.88 1498.02,-30.72 1414.12,-17.24"/>
<polygon fill="midnightblue" stroke="midnightblue" points="1414.56,-13.76 1404.14,-15.67 1413.47,-20.68 1414.56,-13.76"/>
</g>
<!-- Node39 -->
<g id="node39" class="node">
<title>Node39</title>
<g id="a_node39"><a xlink:title=" ">
<polygon fill="white" stroke="#bfbfbf" points="666.5,-112.5 666.5,-131.5 716.5,-131.5 716.5,-112.5 666.5,-112.5"/>
<text text-anchor="middle" x="691.5" y="-119.5" font-family="Helvetica,sans-Serif" font-size="10.00">atomic</text>
</a>
</g>
</g>
<!-- Node1&#45;&gt;Node39 -->
<g id="edge60" class="edge">
<title>Node1&#45;&gt;Node39</title>
<path fill="none" stroke="midnightblue" d="M1422.47,-288.71C1262.92,-287.42 807.94,-280.55 752.5,-244 716.77,-220.44 701.01,-169.25 694.89,-141.61"/>
<polygon fill="midnightblue" stroke="midnightblue" points="698.29,-140.76 692.88,-131.66 691.43,-142.15 698.29,-140.76"/>
</g>
<!-- Node41 -->
<g id="node41" class="node">
<title>Node41</title>
<g id="a_node41"><a xlink:title=" ">
<polygon fill="white" stroke="#bfbfbf" points="1705,-224.5 1705,-243.5 1812,-243.5 1812,-224.5 1705,-224.5"/>
<text text-anchor="middle" x="1758.5" y="-231.5" font-family="Helvetica,sans-Serif" font-size="10.00">condition_variable</text>
</a>
</g>
</g>
<!-- Node1&#45;&gt;Node41 -->
<g id="edge61" class="edge">
<title>Node1&#45;&gt;Node41</title>
<path fill="none" stroke="midnightblue" d="M1522.03,-280.44C1571.46,-270.94 1651.25,-255.61 1704.28,-245.42"/>
<polygon fill="midnightblue" stroke="midnightblue" points="1705.02,-248.84 1714.18,-243.52 1703.7,-241.97 1705.02,-248.84"/>
</g>
<!-- Node3 -->
<g id="node3" class="node">
<title>Node3</title>
<g id="a_node3"><a xlink:href="enum__formatter_8h.html" target="_top" xlink:title=" ">
<polygon fill="white" stroke="black" points="1030.5,-168.5 1030.5,-187.5 1166.5,-187.5 1166.5,-168.5 1030.5,-168.5"/>
<text text-anchor="middle" x="1098.5" y="-175.5" font-family="Helvetica,sans-Serif" font-size="10.00">ccf/ds/enum_formatter.h</text>
</a>
</g>
</g>
<!-- Node2&#45;&gt;Node3 -->
<g id="edge2" class="edge">
<title>Node2&#45;&gt;Node3</title>
<path fill="none" stroke="midnightblue" d="M1239.04,-224.44C1210.82,-215.32 1165.96,-200.81 1134.53,-190.65"/>
<polygon fill="midnightblue" stroke="midnightblue" points="1135.43,-187.26 1124.84,-187.52 1133.28,-193.92 1135.43,-187.26"/>
</g>
<!-- Node4 -->
<g id="node4" class="node">
<title>Node4</title>
<g id="a_node4"><a xlink:title=" ">
<polygon fill="white" stroke="#bfbfbf" points="1095,-112.5 1095,-131.5 1174,-131.5 1174,-112.5 1095,-112.5"/>
<text text-anchor="middle" x="1134.5" y="-119.5" font-family="Helvetica,sans-Serif" font-size="10.00">fmt/format.h</text>
</a>
</g>
</g>
<!-- Node2&#45;&gt;Node4 -->
<g id="edge12" class="edge">
<title>Node2&#45;&gt;Node4</title>
<path fill="none" stroke="midnightblue" d="M1309.07,-232.09C1377.5,-229.17 1498.22,-217.13 1455.5,-168 1437.98,-147.85 1270.02,-132.85 1184.3,-126.43"/>
<polygon fill="midnightblue" stroke="midnightblue" points="1184.5,-122.94 1174.27,-125.69 1183.99,-129.92 1184.5,-122.94"/>
</g>
<!-- Node5 -->
<g id="node5" class="node">
<title>Node5</title>
<g id="a_node5"><a xlink:href="thread__ids_8h.html" target="_top" xlink:title=" ">
<polygon fill="white" stroke="black" points="1502.5,-168.5 1502.5,-187.5 1610.5,-187.5 1610.5,-168.5 1502.5,-168.5"/>
<text text-anchor="middle" x="1556.5" y="-175.5" font-family="Helvetica,sans-Serif" font-size="10.00">ccf/ds/thread_ids.h</text>
</a>
</g>
</g>
<!-- Node2&#45;&gt;Node5 -->
<g id="edge4" class="edge">
<title>Node2&#45;&gt;Node5</title>
<path fill="none" stroke="midnightblue" d="M1309.07,-224.92C1359.96,-215.47 1444.31,-199.82 1500.15,-189.46"/>
<polygon fill="midnightblue" stroke="midnightblue" points="1501.03,-192.85 1510.23,-187.59 1499.76,-185.97 1501.03,-192.85"/>
</g>
<!-- Node11 -->
<g id="node11" class="node">
<title>Node11</title>
<g id="a_node11"><a xlink:title=" ">
<polygon fill="white" stroke="#bfbfbf" points="933,-168.5 933,-187.5 1012,-187.5 1012,-168.5 933,-168.5"/>
<text text-anchor="middle" x="972.5" y="-175.5" font-family="Helvetica,sans-Serif" font-size="10.00">fmt/chrono.h</text>
</a>
</g>
</g>
<!-- Node2&#45;&gt;Node11 -->
<g id="edge11" class="edge">
<title>Node2&#45;&gt;Node11</title>
<path fill="none" stroke="midnightblue" d="M1221.95,-224.97C1168.52,-215.13 1078.16,-198.47 1022.11,-188.14"/>
<polygon fill="midnightblue" stroke="midnightblue" points="1022.52,-184.66 1012.06,-186.29 1021.26,-191.54 1022.52,-184.66"/>
</g>
<!-- Node12 -->
<g id="node12" class="node">
<title>Node12</title>
<g id="a_node12"><a xlink:title=" ">
<polygon fill="white" stroke="#bfbfbf" points="1184.5,-168.5 1184.5,-187.5 1244.5,-187.5 1244.5,-168.5 1184.5,-168.5"/>
<text text-anchor="middle" x="1214.5" y="-175.5" font-family="Helvetica,sans-Serif" font-size="10.00">iostream</text>
</a>
</g>
</g>
<!-- Node2&#45;&gt;Node12 -->
<g id="edge13" class="edge">
<title>Node2&#45;&gt;Node12</title>
<path fill="none" stroke="midnightblue" d="M1257.08,-224.08C1249.65,-216.22 1238.65,-204.57 1229.69,-195.08"/>
<polygon fill="midnightblue" stroke="midnightblue" points="1232.18,-192.62 1222.76,-187.75 1227.09,-197.42 1232.18,-192.62"/>
</g>
<!-- Node13 -->
<g id="node13" class="node">
<title>Node13</title>
<g id="a_node13"><a xlink:title=" ">
<polygon fill="white" stroke="#bfbfbf" points="1262.5,-168.5 1262.5,-187.5 1372.5,-187.5 1372.5,-168.5 1262.5,-168.5"/>
<text text-anchor="middle" x="1317.5" y="-175.5" font-family="Helvetica,sans-Serif" font-size="10.00">nlohmann/json.hpp</text>
</a>
</g>
</g>
<!-- Node2&#45;&gt;Node13 -->
<g id="edge14" class="edge">
<title>Node2&#45;&gt;Node13</title>
<path fill="none" stroke="midnightblue" d="M1274.09,-224.08C1281.66,-216.22 1292.88,-204.57 1302.01,-195.08"/>
<polygon fill="midnightblue" stroke="midnightblue" points="1304.66,-197.38 1309.07,-187.75 1299.62,-192.53 1304.66,-197.38"/>
</g>
<!-- Node14 -->
<g id="node14" class="node">
<title>Node14</title>
<g id="a_node14"><a xlink:title=" ">
<polygon fill="white" stroke="#bfbfbf" points="734.5,-112.5 734.5,-131.5 790.5,-131.5 790.5,-112.5 734.5,-112.5"/>
<text text-anchor="middle" x="762.5" y="-119.5" font-family="Helvetica,sans-Serif" font-size="10.00">optional</text>
</a>
</g>
</g>
<!-- Node2&#45;&gt;Node14 -->
<g id="edge15" class="edge">
<title>Node2&#45;&gt;Node14</title>
<path fill="none" stroke="midnightblue" d="M1221.85,-232.62C1123.74,-231.11 888.94,-223.78 819.5,-188 798.73,-177.3 782.14,-155.57 772.33,-140.19"/>
<polygon fill="midnightblue" stroke="midnightblue" points="775.29,-138.33 767.12,-131.59 769.3,-141.95 775.29,-138.33"/>
</g>
<!-- Node15 -->
<g id="node15" class="node">
<title>Node15</title>
<g id="a_node15"><a xlink:title=" ">
<polygon fill="white" stroke="#bfbfbf" points="1390.5,-168.5 1390.5,-187.5 1446.5,-187.5 1446.5,-168.5 1390.5,-168.5"/>
<text text-anchor="middle" x="1418.5" y="-175.5" font-family="Helvetica,sans-Serif" font-size="10.00">sstream</text>
</a>
</g>
</g>
<!-- Node2&#45;&gt;Node15 -->
<g id="edge16" class="edge">
<title>Node2&#45;&gt;Node15</title>
<path fill="none" stroke="midnightblue" d="M1289.74,-224.44C1315.37,-215.4 1355.99,-201.06 1384.74,-190.92"/>
<polygon fill="midnightblue" stroke="midnightblue" points="1386.11,-194.15 1394.37,-187.52 1383.78,-187.54 1386.11,-194.15"/>
</g>
<!-- Node16 -->
<g id="node16" class="node">
<title>Node16</title>
<g id="a_node16"><a xlink:title=" ">
<polygon fill="white" stroke="#bfbfbf" points="320,-0.5 320,-19.5 389,-19.5 389,-0.5 320,-0.5"/>
<text text-anchor="middle" x="354.5" y="-7.5" font-family="Helvetica,sans-Serif" font-size="10.00">type_traits</text>
</a>
</g>
</g>
<!-- Node2&#45;&gt;Node16 -->
<g id="edge17" class="edge">
<title>Node2&#45;&gt;Node16</title>
<path fill="none" stroke="midnightblue" d="M1221.99,-231.99C1075.6,-228.35 606.61,-214.71 544.5,-188 462.03,-152.53 392.9,-65.15 366.26,-28.08"/>
<polygon fill="midnightblue" stroke="midnightblue" points="369.04,-25.95 360.41,-19.8 363.32,-29.98 369.04,-25.95"/>
</g>
<!-- Node3&#45;&gt;Node4 -->
<g id="edge3" class="edge">
<title>Node3&#45;&gt;Node4</title>
<path fill="none" stroke="midnightblue" d="M1104.44,-168.08C1109.48,-160.53 1116.84,-149.49 1123.01,-140.23"/>
<polygon fill="midnightblue" stroke="midnightblue" points="1126.03,-142.01 1128.67,-131.75 1120.21,-138.13 1126.03,-142.01"/>
</g>
<!-- Node5&#45;&gt;Node4 -->
<g id="edge5" class="edge">
<title>Node5&#45;&gt;Node4</title>
<path fill="none" stroke="midnightblue" d="M1502.31,-169.8C1497.64,-169.19 1492.99,-168.58 1488.5,-168 1379.95,-153.92 1252.62,-137.84 1184.13,-129.23"/>
<polygon fill="midnightblue" stroke="midnightblue" points="1184.42,-125.74 1174.06,-127.96 1183.55,-132.68 1184.42,-125.74"/>
</g>
<!-- Node6 -->
<g id="node6" class="node">
<title>Node6</title>
<g id="a_node6"><a xlink:title=" ">
<polygon fill="white" stroke="#bfbfbf" points="1360.5,-112.5 1360.5,-131.5 1446.5,-131.5 1446.5,-112.5 1360.5,-112.5"/>
<text text-anchor="middle" x="1403.5" y="-119.5" font-family="Helvetica,sans-Serif" font-size="10.00">fmt/ostream.h</text>
</a>
</g>
</g>
<!-- Node5&#45;&gt;Node6 -->
<g id="edge6" class="edge">
<title>Node5&#45;&gt;Node6</title>
<path fill="none" stroke="midnightblue" d="M1532.26,-168.44C1506.63,-159.4 1466.01,-145.06 1437.26,-134.92"/>
<polygon fill="midnightblue" stroke="midnightblue" points="1438.22,-131.54 1427.63,-131.52 1435.89,-138.15 1438.22,-131.54"/>
</g>
<!-- Node7 -->
<g id="node7" class="node">
<title>Node7</title>
<g id="a_node7"><a xlink:title=" ">
<polygon fill="white" stroke="#bfbfbf" points="1465,-112.5 1465,-131.5 1526,-131.5 1526,-112.5 1465,-112.5"/>
<text text-anchor="middle" x="1495.5" y="-119.5" font-family="Helvetica,sans-Serif" font-size="10.00">fmt/std.h</text>
</a>
</g>
</g>
<!-- Node5&#45;&gt;Node7 -->
<g id="edge7" class="edge">
<title>Node5&#45;&gt;Node7</title>
<path fill="none" stroke="midnightblue" d="M1546.7,-168.32C1537.68,-160.34 1524.09,-148.31 1513.18,-138.65"/>
<polygon fill="midnightblue" stroke="midnightblue" points="1515.29,-135.84 1505.48,-131.83 1510.65,-141.08 1515.29,-135.84"/>
</g>
<!-- Node8 -->
<g id="node8" class="node">
<title>Node8</title>
<g id="a_node8"><a xlink:title=" ">
<polygon fill="white" stroke="#bfbfbf" points="1262.5,-112.5 1262.5,-131.5 1306.5,-131.5 1306.5,-112.5 1262.5,-112.5"/>
<text text-anchor="middle" x="1284.5" y="-119.5" font-family="Helvetica,sans-Serif" font-size="10.00">limits</text>
</a>
</g>
</g>
<!-- Node5&#45;&gt;Node8 -->
<g id="edge8" class="edge">
<title>Node5&#45;&gt;Node8</title>
<path fill="none" stroke="midnightblue" d="M1513.4,-168.44C1458.69,-157.58 1365.57,-139.09 1316.67,-129.39"/>
<polygon fill="midnightblue" stroke="midnightblue" points="1317.14,-125.91 1306.65,-127.4 1315.78,-132.78 1317.14,-125.91"/>
</g>
<!-- Node5&#45;&gt;Node9 -->
<g id="edge9" class="edge">
<title>Node5&#45;&gt;Node9</title>
<path fill="none" stroke="midnightblue" d="M1568.23,-168.32C1579.34,-160.11 1596.24,-147.6 1609.48,-137.81"/>
<polygon fill="midnightblue" stroke="midnightblue" points="1611.6,-140.59 1617.56,-131.83 1607.44,-134.97 1611.6,-140.59"/>
</g>
<!-- Node10 -->
<g id="node10" class="node">
<title>Node10</title>
<g id="a_node10"><a xlink:title=" ">
<polygon fill="white" stroke="#bfbfbf" points="1544.5,-112.5 1544.5,-131.5 1592.5,-131.5 1592.5,-112.5 1544.5,-112.5"/>
<text text-anchor="middle" x="1568.5" y="-119.5" font-family="Helvetica,sans-Serif" font-size="10.00">thread</text>
</a>
</g>
</g>
<!-- Node5&#45;&gt;Node10 -->
<g id="edge10" class="edge">
<title>Node5&#45;&gt;Node10</title>
<path fill="none" stroke="midnightblue" d="M1558.48,-168.08C1560.07,-160.93 1562.36,-150.64 1564.35,-141.69"/>
<polygon fill="midnightblue" stroke="midnightblue" points="1567.8,-142.27 1566.56,-131.75 1560.97,-140.75 1567.8,-142.27"/>
</g>
<!-- Node18 -->
<g id="node18" class="node">
<title>Node18</title>
<g id="a_node18"><a xlink:href="mem_8h.html" target="_top" xlink:title=" ">
<polygon fill="white" stroke="black" points="828.5,-168.5 828.5,-187.5 914.5,-187.5 914.5,-168.5 828.5,-168.5"/>
<text text-anchor="middle" x="871.5" y="-175.5" font-family="Helvetica,sans-Serif" font-size="10.00">ccf/pal/mem.h</text>
</a>
</g>
</g>
<!-- Node17&#45;&gt;Node18 -->
<g id="edge19" class="edge">
<title>Node17&#45;&gt;Node18</title>
<path fill="none" stroke="midnightblue" d="M811.91,-224.32C822.61,-216.18 838.84,-203.84 851.66,-194.09"/>
<polygon fill="midnightblue" stroke="midnightblue" points="854.04,-196.67 859.89,-187.83 849.81,-191.1 854.04,-196.67"/>
</g>
<!-- Node20 -->
<g id="node20" class="node">
<title>Node20</title>
<g id="a_node20"><a xlink:title=" ">
<polygon fill="white" stroke="#bfbfbf" points="966.5,-0.5 966.5,-19.5 1016.5,-19.5 1016.5,-0.5 966.5,-0.5"/>
<text text-anchor="middle" x="991.5" y="-7.5" font-family="Helvetica,sans-Serif" font-size="10.00">cstring</text>
</a>
</g>
</g>
<!-- Node17&#45;&gt;Node20 -->
<g id="edge58" class="edge">
<title>Node17&#45;&gt;Node20</title>
<path fill="none" stroke="midnightblue" d="M800.52,-224.29C801.07,-202.26 805.62,-143.8 837.5,-112 874.82,-74.78 908.8,-108.24 950.5,-76 966.3,-63.78 977.64,-43.63 984.33,-29"/>
<polygon fill="midnightblue" stroke="midnightblue" points="987.67,-30.09 988.38,-19.52 981.24,-27.34 987.67,-30.09"/>
</g>
<!-- Node21 -->
<g id="node21" class="node">
<title>Node21</title>
<g id="a_node21"><a xlink:href="ring__buffer__types_8h.html" target="_top" xlink:title=" ">
<polygon fill="white" stroke="black" points="553.5,-168.5 553.5,-187.5 663.5,-187.5 663.5,-168.5 553.5,-168.5"/>
<text text-anchor="middle" x="608.5" y="-175.5" font-family="Helvetica,sans-Serif" font-size="10.00">ring_buffer_types.h</text>
</a>
</g>
</g>
<!-- Node17&#45;&gt;Node21 -->
<g id="edge23" class="edge">
<title>Node17&#45;&gt;Node21</title>
<path fill="none" stroke="midnightblue" d="M770.08,-224.44C737.22,-215.2 684.72,-200.44 648.53,-190.26"/>
<polygon fill="midnightblue" stroke="midnightblue" points="649.35,-186.85 638.78,-187.52 647.46,-193.59 649.35,-186.85"/>
</g>
<!-- Node40 -->
<g id="node40" class="node">
<title>Node40</title>
<g id="a_node40"><a xlink:title=" ">
<polygon fill="white" stroke="#bfbfbf" points="337,-168.5 337,-187.5 402,-187.5 402,-168.5 337,-168.5"/>
<text text-anchor="middle" x="369.5" y="-175.5" font-family="Helvetica,sans-Serif" font-size="10.00">functional</text>
</a>
</g>
</g>
<!-- Node17&#45;&gt;Node40 -->
<g id="edge59" class="edge">
<title>Node17&#45;&gt;Node40</title>
<path fill="none" stroke="midnightblue" d="M761.95,-229.42C692.62,-222.76 542.38,-207.4 416.5,-188 415.04,-187.77 413.55,-187.54 412.05,-187.29"/>
<polygon fill="midnightblue" stroke="midnightblue" points="412.51,-183.82 402.06,-185.55 411.32,-190.71 412.51,-183.82"/>
</g>
<!-- Node18&#45;&gt;Node8 -->
<g id="edge22" class="edge">
<title>Node18&#45;&gt;Node8</title>
<path fill="none" stroke="midnightblue" d="M914.6,-169.38C917.61,-168.9 920.6,-168.43 923.5,-168 1044.56,-149.99 1189.2,-133.46 1252.35,-126.49"/>
<polygon fill="midnightblue" stroke="midnightblue" points="1252.92,-129.95 1262.47,-125.38 1252.15,-122.99 1252.92,-129.95"/>
</g>
<!-- Node19 -->
<g id="node19" class="node">
<title>Node19</title>
<g id="a_node19"><a xlink:title=" ">
<polygon fill="white" stroke="#bfbfbf" points="847,-112.5 847,-131.5 900,-131.5 900,-112.5 847,-112.5"/>
<text text-anchor="middle" x="873.5" y="-119.5" font-family="Helvetica,sans-Serif" font-size="10.00">stdlib.h</text>
</a>
</g>
</g>
<!-- Node18&#45;&gt;Node19 -->
<g id="edge20" class="edge">
<title>Node18&#45;&gt;Node19</title>
<path fill="none" stroke="midnightblue" d="M871.83,-168.08C872.09,-161.01 872.47,-150.86 872.8,-141.99"/>
<polygon fill="midnightblue" stroke="midnightblue" points="876.3,-141.87 873.18,-131.75 869.31,-141.61 876.3,-141.87"/>
</g>
<!-- Node18&#45;&gt;Node20 -->
<g id="edge21" class="edge">
<title>Node18&#45;&gt;Node20</title>
<path fill="none" stroke="midnightblue" d="M892.69,-168.46C924.1,-154.48 981.85,-123.45 1005.5,-76 1012.89,-61.18 1007.6,-42.56 1001.52,-29.05"/>
<polygon fill="midnightblue" stroke="midnightblue" points="1004.53,-27.24 996.92,-19.87 998.27,-30.38 1004.53,-27.24"/>
</g>
<!-- Node21&#45;&gt;Node4 -->
<g id="edge54" class="edge">
<title>Node21&#45;&gt;Node4</title>
<path fill="none" stroke="midnightblue" d="M663.8,-171.32C766.72,-160.76 986.14,-138.23 1084.73,-128.11"/>
<polygon fill="midnightblue" stroke="midnightblue" points="1085.14,-131.59 1094.73,-127.08 1084.42,-124.62 1085.14,-131.59"/>
</g>
<!-- Node21&#45;&gt;Node14 -->
<g id="edge55" class="edge">
<title>Node21&#45;&gt;Node14</title>
<path fill="none" stroke="midnightblue" d="M632.9,-168.44C658.7,-159.4 699.58,-145.06 728.52,-134.92"/>
<polygon fill="midnightblue" stroke="midnightblue" points="729.93,-138.13 738.21,-131.52 727.62,-131.52 729.93,-138.13"/>
</g>
<!-- Node22 -->
<g id="node22" class="node">
<title>Node22</title>
<g id="a_node22"><a xlink:href="include_2ccf_2ds_2hash_8h.html" target="_top" xlink:title=" ">
<polygon fill="white" stroke="black" points="568.5,-112.5 568.5,-131.5 648.5,-131.5 648.5,-112.5 568.5,-112.5"/>
<text text-anchor="middle" x="608.5" y="-119.5" font-family="Helvetica,sans-Serif" font-size="10.00">ccf/ds/hash.h</text>
</a>
</g>
</g>
<!-- Node21&#45;&gt;Node22 -->
<g id="edge24" class="edge">
<title>Node21&#45;&gt;Node22</title>
<path fill="none" stroke="midnightblue" d="M608.5,-168.08C608.5,-161.01 608.5,-150.86 608.5,-141.99"/>
<polygon fill="midnightblue" stroke="midnightblue" points="612,-141.75 608.5,-131.75 605,-141.75 612,-141.75"/>
</g>
<!-- Node26 -->
<g id="node26" class="node">
<title>Node26</title>
<g id="a_node26"><a xlink:title=" ">
<polygon fill="white" stroke="#bfbfbf" points="597,-0.5 597,-19.5 644,-19.5 644,-0.5 597,-0.5"/>
<text text-anchor="middle" x="620.5" y="-7.5" font-family="Helvetica,sans-Serif" font-size="10.00">vector</text>
</a>
</g>
</g>
<!-- Node21&#45;&gt;Node26 -->
<g id="edge57" class="edge">
<title>Node21&#45;&gt;Node26</title>
<path fill="none" stroke="midnightblue" d="M594.26,-168.36C563.77,-148.74 497.06,-99.16 524.5,-56 538.14,-34.54 565.01,-23.14 586.86,-17.19"/>
<polygon fill="midnightblue" stroke="midnightblue" points="587.91,-20.53 596.79,-14.75 586.24,-13.74 587.91,-20.53"/>
</g>
<!-- Node29 -->
<g id="node29" class="node">
<title>Node29</title>
<g id="a_node29"><a xlink:href="nonstd_8h.html" target="_top" xlink:title=" ">
<polygon fill="white" stroke="black" points="100.5,-56.5 100.5,-75.5 190.5,-75.5 190.5,-56.5 100.5,-56.5"/>
<text text-anchor="middle" x="145.5" y="-63.5" font-family="Helvetica,sans-Serif" font-size="10.00">ccf/ds/nonstd.h</text>
</a>
</g>
</g>
<!-- Node21&#45;&gt;Node29 -->
<g id="edge33" class="edge">
<title>Node21&#45;&gt;Node29</title>
<path fill="none" stroke="midnightblue" d="M553.36,-172.43C492.96,-166.55 393.62,-154.34 310.5,-132 260.38,-118.53 204.73,-94.62 172.56,-79.85"/>
<polygon fill="midnightblue" stroke="midnightblue" points="173.9,-76.62 163.36,-75.59 170.96,-82.97 173.9,-76.62"/>
</g>
<!-- Node32 -->
<g id="node32" class="node">
<title>Node32</title>
<g id="a_node32"><a xlink:title=" ">
<polygon fill="white" stroke="#bfbfbf" points="67.5,-0.5 67.5,-19.5 111.5,-19.5 111.5,-0.5 67.5,-0.5"/>
<text text-anchor="middle" x="89.5" y="-7.5" font-family="Helvetica,sans-Serif" font-size="10.00">string</text>
</a>
</g>
</g>
<!-- Node21&#45;&gt;Node32 -->
<g id="edge56" class="edge">
<title>Node21&#45;&gt;Node32</title>
<path fill="none" stroke="midnightblue" d="M553.24,-173.97C481.65,-169.17 353.35,-157.6 246.5,-132 175.27,-114.93 134.5,-135.3 91.5,-76 81.88,-62.73 82.53,-43.61 84.89,-29.53"/>
<polygon fill="midnightblue" stroke="midnightblue" points="88.36,-30.05 86.99,-19.54 81.51,-28.61 88.36,-30.05"/>
</g>
<!-- Node34 -->
<g id="node34" class="node">
<title>Node34</title>
<g id="a_node34"><a xlink:href="serializer_8h.html" target="_top" xlink:title=" ">
<polygon fill="white" stroke="black" points="319.5,-112.5 319.5,-131.5 389.5,-131.5 389.5,-112.5 319.5,-112.5"/>
<text text-anchor="middle" x="354.5" y="-119.5" font-family="Helvetica,sans-Serif" font-size="10.00">serializer.h</text>
</a>
</g>
</g>
<!-- Node21&#45;&gt;Node34 -->
<g id="edge41" class="edge">
<title>Node21&#45;&gt;Node34</title>
<path fill="none" stroke="midnightblue" d="M568.25,-168.44C522.38,-158.69 447.58,-142.79 399.73,-132.62"/>
<polygon fill="midnightblue" stroke="midnightblue" points="400.16,-129.13 389.65,-130.47 398.7,-135.98 400.16,-129.13"/>
</g>
<!-- Node21&#45;&gt;Node39 -->
<g id="edge53" class="edge">
<title>Node21&#45;&gt;Node39</title>
<path fill="none" stroke="midnightblue" d="M621.84,-168.32C634.66,-159.98 654.28,-147.21 669.44,-137.35"/>
<polygon fill="midnightblue" stroke="midnightblue" points="671.72,-140.04 678.2,-131.65 667.91,-134.17 671.72,-140.04"/>
</g>
<!-- Node23 -->
<g id="node23" class="node">
<title>Node23</title>
<g id="a_node23"><a xlink:href="siphash_8h.html" target="_top" xlink:title=" ">
<polygon fill="white" stroke="black" points="739,-56.5 739,-75.5 834,-75.5 834,-56.5 739,-56.5"/>
<text text-anchor="middle" x="786.5" y="-63.5" font-family="Helvetica,sans-Serif" font-size="10.00">ccf/ds/siphash.h</text>
</a>
</g>
</g>
<!-- Node22&#45;&gt;Node23 -->
<g id="edge25" class="edge">
<title>Node22&#45;&gt;Node23</title>
<path fill="none" stroke="midnightblue" d="M636.7,-112.44C666.91,-103.28 715.01,-88.69 748.53,-78.52"/>
<polygon fill="midnightblue" stroke="midnightblue" points="749.87,-81.77 758.43,-75.52 747.84,-75.07 749.87,-81.77"/>
</g>
<!-- Node25 -->
<g id="node25" class="node">
<title>Node25</title>
<g id="a_node25"><a xlink:title=" ">
<polygon fill="white" stroke="#bfbfbf" points="863.5,-0.5 863.5,-19.5 913.5,-19.5 913.5,-0.5 863.5,-0.5"/>
<text text-anchor="middle" x="888.5" y="-7.5" font-family="Helvetica,sans-Serif" font-size="10.00">cstdint</text>
</a>
</g>
</g>
<!-- Node22&#45;&gt;Node25 -->
<g id="edge30" class="edge">
<title>Node22&#45;&gt;Node25</title>
<path fill="none" stroke="midnightblue" d="M648.58,-113.46C651.6,-112.95 654.59,-112.46 657.5,-112 718.6,-102.41 892.69,-122.48 933.5,-76 947.59,-59.96 927.94,-39.41 910.36,-25.76"/>
<polygon fill="midnightblue" stroke="midnightblue" points="912.18,-22.76 902.04,-19.66 908.04,-28.4 912.18,-22.76"/>
</g>
<!-- Node22&#45;&gt;Node26 -->
<g id="edge32" class="edge">
<title>Node22&#45;&gt;Node26</title>
<path fill="none" stroke="midnightblue" d="M640.68,-112.49C659.04,-105.8 680.52,-94.45 691.5,-76 704.46,-54.23 677.16,-35.44 652.75,-23.75"/>
<polygon fill="midnightblue" stroke="midnightblue" points="654.17,-20.55 643.62,-19.62 651.29,-26.93 654.17,-20.55"/>
</g>
<!-- Node27 -->
<g id="node27" class="node">
<title>Node27</title>
<g id="a_node27"><a xlink:title=" ">
<polygon fill="white" stroke="#bfbfbf" points="446.5,-0.5 446.5,-19.5 488.5,-19.5 488.5,-0.5 446.5,-0.5"/>
<text text-anchor="middle" x="467.5" y="-7.5" font-family="Helvetica,sans-Serif" font-size="10.00">array</text>
</a>
</g>
</g>
<!-- Node22&#45;&gt;Node27 -->
<g id="edge29" class="edge">
<title>Node22&#45;&gt;Node27</title>
<path fill="none" stroke="midnightblue" d="M587.92,-112.5C570.11,-104.57 544.19,-91.64 524.5,-76 506.95,-62.06 490.49,-42.27 479.81,-28.2"/>
<polygon fill="midnightblue" stroke="midnightblue" points="482.43,-25.86 473.67,-19.89 476.8,-30.02 482.43,-25.86"/>
</g>
<!-- Node28 -->
<g id="node28" class="node">
<title>Node28</title>
<g id="a_node28"><a xlink:title=" ">
<polygon fill="white" stroke="#bfbfbf" points="534,-56.5 534,-75.5 683,-75.5 683,-56.5 534,-56.5"/>
<text text-anchor="middle" x="608.5" y="-63.5" font-family="Helvetica,sans-Serif" font-size="10.00">small_vector/SmallVector.h</text>
</a>
</g>
</g>
<!-- Node22&#45;&gt;Node28 -->
<g id="edge31" class="edge">
<title>Node22&#45;&gt;Node28</title>
<path fill="none" stroke="midnightblue" d="M608.5,-112.08C608.5,-105.01 608.5,-94.86 608.5,-85.99"/>
<polygon fill="midnightblue" stroke="midnightblue" points="612,-85.75 608.5,-75.75 605,-85.75 612,-85.75"/>
</g>
<!-- Node24 -->
<g id="node24" class="node">
<title>Node24</title>
<g id="a_node24"><a xlink:title=" ">
<polygon fill="white" stroke="#bfbfbf" points="760,-0.5 760,-19.5 813,-19.5 813,-0.5 760,-0.5"/>
<text text-anchor="middle" x="786.5" y="-7.5" font-family="Helvetica,sans-Serif" font-size="10.00">cstddef</text>
</a>
</g>
</g>
<!-- Node23&#45;&gt;Node24 -->
<g id="edge26" class="edge">
<title>Node23&#45;&gt;Node24</title>
<path fill="none" stroke="midnightblue" d="M786.5,-56.08C786.5,-49.01 786.5,-38.86 786.5,-29.99"/>
<polygon fill="midnightblue" stroke="midnightblue" points="790,-29.75 786.5,-19.75 783,-29.75 790,-29.75"/>
</g>
<!-- Node23&#45;&gt;Node25 -->
<g id="edge27" class="edge">
<title>Node23&#45;&gt;Node25</title>
<path fill="none" stroke="midnightblue" d="M802.89,-56.32C819.17,-47.7 844.37,-34.36 863.22,-24.39"/>
<polygon fill="midnightblue" stroke="midnightblue" points="864.95,-27.43 872.15,-19.65 861.68,-21.24 864.95,-27.43"/>
</g>
<!-- Node23&#45;&gt;Node26 -->
<g id="edge28" class="edge">
<title>Node23&#45;&gt;Node26</title>
<path fill="none" stroke="midnightblue" d="M760.2,-56.44C731.41,-47.08 685.18,-32.04 653.86,-21.85"/>
<polygon fill="midnightblue" stroke="midnightblue" points="654.85,-18.49 644.26,-18.73 652.69,-25.15 654.85,-18.49"/>
</g>
<!-- Node29&#45;&gt;Node16 -->
<g id="edge39" class="edge">
<title>Node29&#45;&gt;Node16</title>
<path fill="none" stroke="midnightblue" d="M178.62,-56.44C214.62,-47.14 272.27,-32.25 311.69,-22.06"/>
<polygon fill="midnightblue" stroke="midnightblue" points="312.73,-25.41 321.54,-19.52 310.98,-18.63 312.73,-25.41"/>
</g>
<!-- Node29&#45;&gt;Node26 -->
<g id="edge40" class="edge">
<title>Node29&#45;&gt;Node26</title>
<path fill="none" stroke="midnightblue" d="M190.55,-57.29C193.58,-56.83 196.58,-56.4 199.5,-56 342.9,-36.4 514.75,-20.33 586.47,-13.96"/>
<polygon fill="midnightblue" stroke="midnightblue" points="587.05,-17.42 596.7,-13.05 586.43,-10.44 587.05,-17.42"/>
</g>
<!-- Node29&#45;&gt;Node27 -->
<g id="edge35" class="edge">
<title>Node29&#45;&gt;Node27</title>
<path fill="none" stroke="midnightblue" d="M190.61,-57.43C256.93,-46.31 379.05,-25.83 436.32,-16.23"/>
<polygon fill="midnightblue" stroke="midnightblue" points="436.95,-19.67 446.23,-14.57 435.79,-12.77 436.95,-19.67"/>
</g>
<!-- Node30 -->
<g id="node30" class="node">
<title>Node30</title>
<g id="a_node30"><a xlink:title=" ">
<polygon fill="white" stroke="#bfbfbf" points="221.5,-0.5 221.5,-19.5 285.5,-19.5 285.5,-0.5 221.5,-0.5"/>
<text text-anchor="middle" x="253.5" y="-7.5" font-family="Helvetica,sans-Serif" font-size="10.00">algorithm</text>
</a>
</g>
</g>
<!-- Node29&#45;&gt;Node30 -->
<g id="edge34" class="edge">
<title>Node29&#45;&gt;Node30</title>
<path fill="none" stroke="midnightblue" d="M162.85,-56.32C180.17,-47.66 207.02,-34.24 227,-24.25"/>
<polygon fill="midnightblue" stroke="midnightblue" points="228.81,-27.26 236.19,-19.65 225.68,-21 228.81,-27.26"/>
</g>
<!-- Node31 -->
<g id="node31" class="node">
<title>Node31</title>
<g id="a_node31"><a xlink:title=" ">
<polygon fill="white" stroke="#bfbfbf" points="0,-0.5 0,-19.5 49,-19.5 49,-0.5 0,-0.5"/>
<text text-anchor="middle" x="24.5" y="-7.5" font-family="Helvetica,sans-Serif" font-size="10.00">cctype</text>
</a>
</g>
</g>
<!-- Node29&#45;&gt;Node31 -->
<g id="edge36" class="edge">
<title>Node29&#45;&gt;Node31</title>
<path fill="none" stroke="midnightblue" d="M126.33,-56.44C106.59,-47.64 75.61,-33.81 53.01,-23.72"/>
<polygon fill="midnightblue" stroke="midnightblue" points="54.14,-20.4 43.58,-19.52 51.29,-26.79 54.14,-20.4"/>
</g>
<!-- Node29&#45;&gt;Node32 -->
<g id="edge37" class="edge">
<title>Node29&#45;&gt;Node32</title>
<path fill="none" stroke="midnightblue" d="M136.5,-56.32C128.31,-48.42 115.99,-36.55 106.03,-26.94"/>
<polygon fill="midnightblue" stroke="midnightblue" points="108.29,-24.26 98.66,-19.83 103.43,-29.29 108.29,-24.26"/>
</g>
<!-- Node33 -->
<g id="node33" class="node">
<title>Node33</title>
<g id="a_node33"><a xlink:title=" ">
<polygon fill="white" stroke="#bfbfbf" points="130,-0.5 130,-19.5 203,-19.5 203,-0.5 130,-0.5"/>
<text text-anchor="middle" x="166.5" y="-7.5" font-family="Helvetica,sans-Serif" font-size="10.00">string_view</text>
</a>
</g>
</g>
<!-- Node29&#45;&gt;Node33 -->
<g id="edge38" class="edge">
<title>Node29&#45;&gt;Node33</title>
<path fill="none" stroke="midnightblue" d="M148.97,-56.08C151.81,-48.77 155.93,-38.18 159.46,-29.1"/>
<polygon fill="midnightblue" stroke="midnightblue" points="162.73,-30.34 163.1,-19.75 156.21,-27.8 162.73,-30.34"/>
</g>
<!-- Node34&#45;&gt;Node16 -->
<g id="edge51" class="edge">
<title>Node34&#45;&gt;Node16</title>
<path fill="none" stroke="midnightblue" d="M354.5,-112.37C354.5,-94.62 354.5,-53.67 354.5,-29.6"/>
<polygon fill="midnightblue" stroke="midnightblue" points="358,-29.59 354.5,-19.59 351,-29.59 358,-29.59"/>
</g>
<!-- Node34&#45;&gt;Node26 -->
<g id="edge52" class="edge">
<title>Node34&#45;&gt;Node26</title>
<path fill="none" stroke="midnightblue" d="M365.24,-112.38C382.88,-98.62 419.53,-71.64 454.5,-56 498.35,-36.39 552.63,-23.66 586.93,-16.9"/>
<polygon fill="midnightblue" stroke="midnightblue" points="587.73,-20.31 596.89,-15 586.41,-13.44 587.73,-20.31"/>
</g>
<!-- Node34&#45;&gt;Node29 -->
<g id="edge42" class="edge">
<title>Node34&#45;&gt;Node29</title>
<path fill="none" stroke="midnightblue" d="M321.38,-112.44C285.38,-103.14 227.73,-88.25 188.31,-78.06"/>
<polygon fill="midnightblue" stroke="midnightblue" points="189.02,-74.63 178.46,-75.52 187.27,-81.41 189.02,-74.63"/>
</g>
<!-- Node35 -->
<g id="node35" class="node">
<title>Node35</title>
<g id="a_node35"><a xlink:href="serialized_8h.html" target="_top" xlink:title=" ">
<polygon fill="white" stroke="black" points="852,-56.5 852,-75.5 925,-75.5 925,-56.5 852,-56.5"/>
<text text-anchor="middle" x="888.5" y="-63.5" font-family="Helvetica,sans-Serif" font-size="10.00">serialized.h</text>
</a>
</g>
</g>
<!-- Node34&#45;&gt;Node35 -->
<g id="edge43" class="edge">
<title>Node34&#45;&gt;Node35</title>
<path fill="none" stroke="midnightblue" d="M389.55,-118.99C468.45,-114.2 666.13,-100.75 841.95,-75.93"/>
<polygon fill="midnightblue" stroke="midnightblue" points="842.49,-79.39 851.9,-74.51 841.5,-72.46 842.49,-79.39"/>
</g>
<!-- Node37 -->
<g id="node37" class="node">
<title>Node37</title>
<g id="a_node37"><a xlink:title=" ">
<polygon fill="white" stroke="#bfbfbf" points="268.5,-56.5 268.5,-75.5 326.5,-75.5 326.5,-56.5 268.5,-56.5"/>
<text text-anchor="middle" x="297.5" y="-63.5" font-family="Helvetica,sans-Serif" font-size="10.00">memory</text>
</a>
</g>
</g>
<!-- Node34&#45;&gt;Node37 -->
<g id="edge49" class="edge">
<title>Node34&#45;&gt;Node37</title>
<path fill="none" stroke="midnightblue" d="M345.34,-112.32C337,-104.42 324.47,-92.55 314.32,-82.94"/>
<polygon fill="midnightblue" stroke="midnightblue" points="316.49,-80.17 306.82,-75.83 311.68,-85.25 316.49,-80.17"/>
</g>
<!-- Node38 -->
<g id="node38" class="node">
<title>Node38</title>
<g id="a_node38"><a xlink:title=" ">
<polygon fill="white" stroke="#bfbfbf" points="209,-56.5 209,-75.5 250,-75.5 250,-56.5 209,-56.5"/>
<text text-anchor="middle" x="229.5" y="-63.5" font-family="Helvetica,sans-Serif" font-size="10.00">tuple</text>
</a>
</g>
</g>
<!-- Node34&#45;&gt;Node38 -->
<g id="edge50" class="edge">
<title>Node34&#45;&gt;Node38</title>
<path fill="none" stroke="midnightblue" d="M334.69,-112.44C314.21,-103.6 282.02,-89.69 258.64,-79.59"/>
<polygon fill="midnightblue" stroke="midnightblue" points="259.78,-76.27 249.21,-75.52 257.01,-82.7 259.78,-76.27"/>
</g>
<!-- Node35&#45;&gt;Node20 -->
<g id="edge45" class="edge">
<title>Node35&#45;&gt;Node20</title>
<path fill="none" stroke="midnightblue" d="M905.05,-56.32C921.49,-47.7 946.93,-34.36 965.97,-24.39"/>
<polygon fill="midnightblue" stroke="midnightblue" points="967.76,-27.4 974.99,-19.65 964.51,-21.2 967.76,-27.4"/>
</g>
<!-- Node35&#45;&gt;Node25 -->
<g id="edge44" class="edge">
<title>Node35&#45;&gt;Node25</title>
<path fill="none" stroke="midnightblue" d="M888.5,-56.08C888.5,-49.01 888.5,-38.86 888.5,-29.99"/>
<polygon fill="midnightblue" stroke="midnightblue" points="892,-29.75 888.5,-19.75 885,-29.75 892,-29.75"/>
</g>
<!-- Node35&#45;&gt;Node26 -->
<g id="edge48" class="edge">
<title>Node35&#45;&gt;Node26</title>
<path fill="none" stroke="midnightblue" d="M851.8,-57.6C799.6,-47.09 704.67,-27.96 654.18,-17.79"/>
<polygon fill="midnightblue" stroke="midnightblue" points="654.61,-14.3 644.12,-15.76 653.23,-21.16 654.61,-14.3"/>
</g>
<!-- Node35&#45;&gt;Node32 -->
<g id="edge47" class="edge">
<title>Node35&#45;&gt;Node32</title>
<path fill="none" stroke="midnightblue" d="M851.92,-57.35C848.74,-56.84 845.57,-56.37 842.5,-56 526.85,-17.45 439.15,-72.01 121.65,-19.78"/>
<polygon fill="midnightblue" stroke="midnightblue" points="122.15,-16.31 111.71,-18.12 121,-23.22 122.15,-16.31"/>
</g>
<!-- Node35&#45;&gt;Node36 -->
<g id="edge46" class="edge">
<title>Node35&#45;&gt;Node36</title>
<path fill="none" stroke="midnightblue" d="M925.2,-60.9C1013.05,-51.08 1235.06,-26.25 1328.74,-15.78"/>
<polygon fill="midnightblue" stroke="midnightblue" points="1329.17,-19.25 1338.72,-14.66 1328.4,-12.3 1329.17,-19.25"/>
</g>
</g>
</svg>
