<?xml version="1.0" encoding="UTF-8" standalone="no"?>
<!DOCTYPE svg PUBLIC "-//W3C//DTD SVG 1.1//EN"
 "http://www.w3.org/Graphics/SVG/1.1/DTD/svg11.dtd">
<!-- Generated by graphviz version 2.43.0 (0)
 -->
<!-- Title: src/ds/non_blocking.h Pages: 1 -->
<svg width="1130pt" height="308pt"
 viewBox="0.00 0.00 1129.97 308.00" xmlns="http://www.w3.org/2000/svg" xmlns:xlink="http://www.w3.org/1999/xlink">
<g id="graph0" class="graph" transform="scale(1 1) rotate(0) translate(4 304)">
<title>src/ds/non_blocking.h</title>
<polygon fill="white" stroke="transparent" points="-4,4 -4,-304 1125.97,-304 1125.97,4 -4,4"/>
<!-- Node1 -->
<g id="node1" class="node">
<title>Node1</title>
<g id="a_node1"><a xlink:title=" ">
<polygon fill="#bfbfbf" stroke="black" points="947.47,-280.5 947.47,-299.5 1069.47,-299.5 1069.47,-280.5 947.47,-280.5"/>
<text text-anchor="middle" x="1008.47" y="-287.5" font-family="Helvetica,sans-Serif" font-size="10.00">src/ds/non_blocking.h</text>
</a>
</g>
</g>
<!-- Node2 -->
<g id="node2" class="node">
<title>Node2</title>
<g id="a_node2"><a xlink:href="ring__buffer_8h.html" target="_top" xlink:title=" ">
<polygon fill="white" stroke="black" points="179.97,-224.5 179.97,-243.5 256.97,-243.5 256.97,-224.5 179.97,-224.5"/>
<text text-anchor="middle" x="218.47" y="-231.5" font-family="Helvetica,sans-Serif" font-size="10.00">ring_buffer.h</text>
</a>
</g>
</g>
<!-- Node1&#45;&gt;Node2 -->
<g id="edge1" class="edge">
<title>Node1&#45;&gt;Node2</title>
<path fill="none" stroke="midnightblue" d="M947.13,-287.48C820.49,-283.84 521.07,-272.73 271.47,-244 270.17,-243.85 268.85,-243.69 267.51,-243.52"/>
<polygon fill="midnightblue" stroke="midnightblue" points="267.58,-239.99 257.19,-242.07 266.6,-246.93 267.58,-239.99"/>
</g>
<!-- Node12 -->
<g id="node12" class="node">
<title>Node12</title>
<g id="a_node12"><a xlink:title=" ">
<polygon fill="white" stroke="#bfbfbf" points="332.97,-0.5 332.97,-19.5 379.97,-19.5 379.97,-0.5 332.97,-0.5"/>
<text text-anchor="middle" x="356.47" y="-7.5" font-family="Helvetica,sans-Serif" font-size="10.00">vector</text>
</a>
</g>
</g>
<!-- Node1&#45;&gt;Node12 -->
<g id="edge46" class="edge">
<title>Node1&#45;&gt;Node12</title>
<path fill="none" stroke="midnightblue" d="M947.45,-286.11C773.15,-277.05 285.47,-245.74 285.47,-179 285.47,-179 285.47,-179 285.47,-121 285.47,-82.1 317.2,-46.05 338.24,-26.43"/>
<polygon fill="midnightblue" stroke="midnightblue" points="340.58,-29.02 345.69,-19.74 335.91,-23.81 340.58,-29.02"/>
</g>
<!-- Node24 -->
<g id="node24" class="node">
<title>Node24</title>
<g id="a_node24"><a xlink:title=" ">
<polygon fill="white" stroke="#bfbfbf" points="975.47,-56.5 975.47,-75.5 1033.47,-75.5 1033.47,-56.5 975.47,-56.5"/>
<text text-anchor="middle" x="1004.47" y="-63.5" font-family="Helvetica,sans-Serif" font-size="10.00">memory</text>
</a>
</g>
</g>
<!-- Node1&#45;&gt;Node24 -->
<g id="edge45" class="edge">
<title>Node1&#45;&gt;Node24</title>
<path fill="none" stroke="midnightblue" d="M1008.31,-280.3C1007.72,-247.63 1005.64,-131.87 1004.81,-85.96"/>
<polygon fill="midnightblue" stroke="midnightblue" points="1008.31,-85.82 1004.63,-75.88 1001.31,-85.95 1008.31,-85.82"/>
</g>
<!-- Node27 -->
<g id="node27" class="node">
<title>Node27</title>
<g id="a_node27"><a xlink:title=" ">
<polygon fill="white" stroke="#bfbfbf" points="1036.97,-112.5 1036.97,-131.5 1115.97,-131.5 1115.97,-112.5 1036.97,-112.5"/>
<text text-anchor="middle" x="1076.47" y="-119.5" font-family="Helvetica,sans-Serif" font-size="10.00">fmt/format.h</text>
</a>
</g>
</g>
<!-- Node1&#45;&gt;Node27 -->
<g id="edge44" class="edge">
<title>Node1&#45;&gt;Node27</title>
<path fill="none" stroke="midnightblue" d="M1012.13,-280.08C1022.88,-253.83 1054.54,-176.55 1069.05,-141.12"/>
<polygon fill="midnightblue" stroke="midnightblue" points="1072.41,-142.15 1072.96,-131.57 1065.93,-139.5 1072.41,-142.15"/>
</g>
<!-- Node30 -->
<g id="node30" class="node">
<title>Node30</title>
<g id="a_node30"><a xlink:title=" ">
<polygon fill="white" stroke="#bfbfbf" points="1074.97,-224.5 1074.97,-243.5 1121.97,-243.5 1121.97,-224.5 1074.97,-224.5"/>
<text text-anchor="middle" x="1098.47" y="-231.5" font-family="Helvetica,sans-Serif" font-size="10.00">deque</text>
</a>
</g>
</g>
<!-- Node1&#45;&gt;Node30 -->
<g id="edge43" class="edge">
<title>Node1&#45;&gt;Node30</title>
<path fill="none" stroke="midnightblue" d="M1022.93,-280.32C1036.97,-271.9 1058.52,-258.97 1075.01,-249.07"/>
<polygon fill="midnightblue" stroke="midnightblue" points="1077.27,-251.8 1084.05,-243.65 1073.67,-245.8 1077.27,-251.8"/>
</g>
<!-- Node3 -->
<g id="node3" class="node">
<title>Node3</title>
<g id="a_node3"><a xlink:href="mem_8h.html" target="_top" xlink:title=" ">
<polygon fill="white" stroke="black" points="77.47,-168.5 77.47,-187.5 163.47,-187.5 163.47,-168.5 77.47,-168.5"/>
<text text-anchor="middle" x="120.47" y="-175.5" font-family="Helvetica,sans-Serif" font-size="10.00">ccf/pal/mem.h</text>
</a>
</g>
</g>
<!-- Node2&#45;&gt;Node3 -->
<g id="edge2" class="edge">
<title>Node2&#45;&gt;Node3</title>
<path fill="none" stroke="midnightblue" d="M202.72,-224.32C187.15,-215.74 163.09,-202.49 145.01,-192.52"/>
<polygon fill="midnightblue" stroke="midnightblue" points="146.62,-189.42 136.18,-187.65 143.25,-195.55 146.62,-189.42"/>
</g>
<!-- Node5 -->
<g id="node5" class="node">
<title>Node5</title>
<g id="a_node5"><a xlink:title=" ">
<polygon fill="white" stroke="#bfbfbf" points="70.47,-0.5 70.47,-19.5 120.47,-19.5 120.47,-0.5 70.47,-0.5"/>
<text text-anchor="middle" x="95.47" y="-7.5" font-family="Helvetica,sans-Serif" font-size="10.00">cstring</text>
</a>
</g>
</g>
<!-- Node2&#45;&gt;Node5 -->
<g id="edge41" class="edge">
<title>Node2&#45;&gt;Node5</title>
<path fill="none" stroke="midnightblue" d="M179.84,-229.2C126.86,-221.54 34.77,-198.78 4.47,-132 -15.19,-88.68 38.43,-46.14 71.54,-24.92"/>
<polygon fill="midnightblue" stroke="midnightblue" points="73.6,-27.76 80.26,-19.52 69.92,-21.81 73.6,-27.76"/>
</g>
<!-- Node7 -->
<g id="node7" class="node">
<title>Node7</title>
<g id="a_node7"><a xlink:href="ring__buffer__types_8h.html" target="_top" xlink:title=" ">
<polygon fill="white" stroke="black" points="678.47,-168.5 678.47,-187.5 788.47,-187.5 788.47,-168.5 678.47,-168.5"/>
<text text-anchor="middle" x="733.47" y="-175.5" font-family="Helvetica,sans-Serif" font-size="10.00">ring_buffer_types.h</text>
</a>
</g>
</g>
<!-- Node2&#45;&gt;Node7 -->
<g id="edge6" class="edge">
<title>Node2&#45;&gt;Node7</title>
<path fill="none" stroke="midnightblue" d="M257.18,-228.94C344.88,-219.75 559.52,-197.24 668.18,-185.85"/>
<polygon fill="midnightblue" stroke="midnightblue" points="668.77,-189.3 678.35,-184.78 668.04,-182.34 668.77,-189.3"/>
</g>
<!-- Node29 -->
<g id="node29" class="node">
<title>Node29</title>
<g id="a_node29"><a xlink:title=" ">
<polygon fill="white" stroke="#bfbfbf" points="806.97,-168.5 806.97,-187.5 871.97,-187.5 871.97,-168.5 806.97,-168.5"/>
<text text-anchor="middle" x="839.47" y="-175.5" font-family="Helvetica,sans-Serif" font-size="10.00">functional</text>
</a>
</g>
</g>
<!-- Node2&#45;&gt;Node29 -->
<g id="edge42" class="edge">
<title>Node2&#45;&gt;Node29</title>
<path fill="none" stroke="midnightblue" d="M257.29,-231.77C349.28,-228.48 587.81,-217.71 796.61,-187.93"/>
<polygon fill="midnightblue" stroke="midnightblue" points="797.13,-191.39 806.53,-186.49 796.13,-184.46 797.13,-191.39"/>
</g>
<!-- Node4 -->
<g id="node4" class="node">
<title>Node4</title>
<g id="a_node4"><a xlink:title=" ">
<polygon fill="white" stroke="#bfbfbf" points="13.97,-112.5 13.97,-131.5 66.97,-131.5 66.97,-112.5 13.97,-112.5"/>
<text text-anchor="middle" x="40.47" y="-119.5" font-family="Helvetica,sans-Serif" font-size="10.00">stdlib.h</text>
</a>
</g>
</g>
<!-- Node3&#45;&gt;Node4 -->
<g id="edge3" class="edge">
<title>Node3&#45;&gt;Node4</title>
<path fill="none" stroke="midnightblue" d="M107.62,-168.32C95.25,-159.98 76.34,-147.21 61.73,-137.35"/>
<polygon fill="midnightblue" stroke="midnightblue" points="63.54,-134.35 53.29,-131.65 59.62,-140.15 63.54,-134.35"/>
</g>
<!-- Node3&#45;&gt;Node5 -->
<g id="edge4" class="edge">
<title>Node3&#45;&gt;Node5</title>
<path fill="none" stroke="midnightblue" d="M119.13,-168.08C115.19,-141.95 103.63,-65.21 98.27,-29.58"/>
<polygon fill="midnightblue" stroke="midnightblue" points="101.71,-28.94 96.76,-19.57 94.79,-29.98 101.71,-28.94"/>
</g>
<!-- Node6 -->
<g id="node6" class="node">
<title>Node6</title>
<g id="a_node6"><a xlink:title=" ">
<polygon fill="white" stroke="#bfbfbf" points="123.47,-112.5 123.47,-131.5 167.47,-131.5 167.47,-112.5 123.47,-112.5"/>
<text text-anchor="middle" x="145.47" y="-119.5" font-family="Helvetica,sans-Serif" font-size="10.00">limits</text>
</a>
</g>
</g>
<!-- Node3&#45;&gt;Node6 -->
<g id="edge5" class="edge">
<title>Node3&#45;&gt;Node6</title>
<path fill="none" stroke="midnightblue" d="M124.6,-168.08C127.98,-160.77 132.89,-150.18 137.09,-141.1"/>
<polygon fill="midnightblue" stroke="midnightblue" points="140.39,-142.3 141.42,-131.75 134.04,-139.36 140.39,-142.3"/>
</g>
<!-- Node8 -->
<g id="node8" class="node">
<title>Node8</title>
<g id="a_node8"><a xlink:href="include_2ccf_2ds_2hash_8h.html" target="_top" xlink:title=" ">
<polygon fill="white" stroke="black" points="420.47,-112.5 420.47,-131.5 500.47,-131.5 500.47,-112.5 420.47,-112.5"/>
<text text-anchor="middle" x="460.47" y="-119.5" font-family="Helvetica,sans-Serif" font-size="10.00">ccf/ds/hash.h</text>
</a>
</g>
</g>
<!-- Node7&#45;&gt;Node8 -->
<g id="edge7" class="edge">
<title>Node7&#45;&gt;Node8</title>
<path fill="none" stroke="midnightblue" d="M690.21,-168.44C641.44,-158.8 562.26,-143.13 510.77,-132.95"/>
<polygon fill="midnightblue" stroke="midnightblue" points="511.34,-129.5 500.86,-130.99 509.99,-136.36 511.34,-129.5"/>
</g>
<!-- Node7&#45;&gt;Node12 -->
<g id="edge40" class="edge">
<title>Node7&#45;&gt;Node12</title>
<path fill="none" stroke="midnightblue" d="M678.26,-174.05C598.62,-168.99 456.16,-156.75 411.47,-132 383.04,-116.26 377.43,-105.8 364.47,-76 358.16,-61.49 356.34,-43.53 356,-30.18"/>
<polygon fill="midnightblue" stroke="midnightblue" points="359.5,-29.82 356.01,-19.82 352.5,-29.82 359.5,-29.82"/>
</g>
<!-- Node15 -->
<g id="node15" class="node">
<title>Node15</title>
<g id="a_node15"><a xlink:href="nonstd_8h.html" target="_top" xlink:title=" ">
<polygon fill="white" stroke="black" points="724.47,-56.5 724.47,-75.5 814.47,-75.5 814.47,-56.5 724.47,-56.5"/>
<text text-anchor="middle" x="769.47" y="-63.5" font-family="Helvetica,sans-Serif" font-size="10.00">ccf/ds/nonstd.h</text>
</a>
</g>
</g>
<!-- Node7&#45;&gt;Node15 -->
<g id="edge16" class="edge">
<title>Node7&#45;&gt;Node15</title>
<path fill="none" stroke="midnightblue" d="M728.75,-168.23C722.53,-155.39 713.26,-130.95 721.47,-112 726.74,-99.84 737.09,-89.46 746.84,-81.74"/>
<polygon fill="midnightblue" stroke="midnightblue" points="749.11,-84.41 755.1,-75.67 744.97,-78.77 749.11,-84.41"/>
</g>
<!-- Node18 -->
<g id="node18" class="node">
<title>Node18</title>
<g id="a_node18"><a xlink:title=" ">
<polygon fill="white" stroke="#bfbfbf" points="739.47,-0.5 739.47,-19.5 783.47,-19.5 783.47,-0.5 739.47,-0.5"/>
<text text-anchor="middle" x="761.47" y="-7.5" font-family="Helvetica,sans-Serif" font-size="10.00">string</text>
</a>
</g>
</g>
<!-- Node7&#45;&gt;Node18 -->
<g id="edge39" class="edge">
<title>Node7&#45;&gt;Node18</title>
<path fill="none" stroke="midnightblue" d="M757.88,-168.41C774.81,-161.23 796.55,-149.33 809.47,-132 824.8,-111.43 820.34,-101.46 823.47,-76 824.56,-67.18 827.51,-63.92 823.47,-56 816.47,-42.27 803.1,-31.75 790.57,-24.35"/>
<polygon fill="midnightblue" stroke="midnightblue" points="792.15,-21.22 781.69,-19.51 788.8,-27.37 792.15,-21.22"/>
</g>
<!-- Node21 -->
<g id="node21" class="node">
<title>Node21</title>
<g id="a_node21"><a xlink:href="serializer_8h.html" target="_top" xlink:title=" ">
<polygon fill="white" stroke="black" points="730.47,-112.5 730.47,-131.5 800.47,-131.5 800.47,-112.5 730.47,-112.5"/>
<text text-anchor="middle" x="765.47" y="-119.5" font-family="Helvetica,sans-Serif" font-size="10.00">serializer.h</text>
</a>
</g>
</g>
<!-- Node7&#45;&gt;Node21 -->
<g id="edge24" class="edge">
<title>Node7&#45;&gt;Node21</title>
<path fill="none" stroke="midnightblue" d="M738.75,-168.08C743.18,-160.61 749.63,-149.72 755.09,-140.52"/>
<polygon fill="midnightblue" stroke="midnightblue" points="758.2,-142.14 760.28,-131.75 752.18,-138.57 758.2,-142.14"/>
</g>
<!-- Node26 -->
<g id="node26" class="node">
<title>Node26</title>
<g id="a_node26"><a xlink:title=" ">
<polygon fill="white" stroke="#bfbfbf" points="856.47,-112.5 856.47,-131.5 906.47,-131.5 906.47,-112.5 856.47,-112.5"/>
<text text-anchor="middle" x="881.47" y="-119.5" font-family="Helvetica,sans-Serif" font-size="10.00">atomic</text>
</a>
</g>
</g>
<!-- Node7&#45;&gt;Node26 -->
<g id="edge36" class="edge">
<title>Node7&#45;&gt;Node26</title>
<path fill="none" stroke="midnightblue" d="M756.92,-168.44C781.6,-159.44 820.66,-145.19 848.45,-135.05"/>
<polygon fill="midnightblue" stroke="midnightblue" points="849.93,-138.23 858.13,-131.52 847.53,-131.66 849.93,-138.23"/>
</g>
<!-- Node7&#45;&gt;Node27 -->
<g id="edge37" class="edge">
<title>Node7&#45;&gt;Node27</title>
<path fill="none" stroke="midnightblue" d="M787.82,-168.44C853.49,-158.1 963.06,-140.85 1026.64,-130.85"/>
<polygon fill="midnightblue" stroke="midnightblue" points="1027.48,-134.26 1036.81,-129.24 1026.39,-127.34 1027.48,-134.26"/>
</g>
<!-- Node28 -->
<g id="node28" class="node">
<title>Node28</title>
<g id="a_node28"><a xlink:title=" ">
<polygon fill="white" stroke="#bfbfbf" points="924.47,-112.5 924.47,-131.5 980.47,-131.5 980.47,-112.5 924.47,-112.5"/>
<text text-anchor="middle" x="952.47" y="-119.5" font-family="Helvetica,sans-Serif" font-size="10.00">optional</text>
</a>
</g>
</g>
<!-- Node7&#45;&gt;Node28 -->
<g id="edge38" class="edge">
<title>Node7&#45;&gt;Node28</title>
<path fill="none" stroke="midnightblue" d="M768.17,-168.44C807.98,-158.63 873.04,-142.59 914.26,-132.42"/>
<polygon fill="midnightblue" stroke="midnightblue" points="915.33,-135.76 924.2,-129.97 913.65,-128.97 915.33,-135.76"/>
</g>
<!-- Node9 -->
<g id="node9" class="node">
<title>Node9</title>
<g id="a_node9"><a xlink:href="siphash_8h.html" target="_top" xlink:title=" ">
<polygon fill="white" stroke="black" points="161.97,-56.5 161.97,-75.5 256.97,-75.5 256.97,-56.5 161.97,-56.5"/>
<text text-anchor="middle" x="209.47" y="-63.5" font-family="Helvetica,sans-Serif" font-size="10.00">ccf/ds/siphash.h</text>
</a>
</g>
</g>
<!-- Node8&#45;&gt;Node9 -->
<g id="edge8" class="edge">
<title>Node8&#45;&gt;Node9</title>
<path fill="none" stroke="midnightblue" d="M420.7,-112.44C376.91,-103.02 306.46,-87.87 259.09,-77.68"/>
<polygon fill="midnightblue" stroke="midnightblue" points="259.57,-74.2 249.06,-75.52 258.1,-81.04 259.57,-74.2"/>
</g>
<!-- Node11 -->
<g id="node11" class="node">
<title>Node11</title>
<g id="a_node11"><a xlink:title=" ">
<polygon fill="white" stroke="#bfbfbf" points="161.47,-0.5 161.47,-19.5 211.47,-19.5 211.47,-0.5 161.47,-0.5"/>
<text text-anchor="middle" x="186.47" y="-7.5" font-family="Helvetica,sans-Serif" font-size="10.00">cstdint</text>
</a>
</g>
</g>
<!-- Node8&#45;&gt;Node11 -->
<g id="edge13" class="edge">
<title>Node8&#45;&gt;Node11</title>
<path fill="none" stroke="midnightblue" d="M420.18,-121.33C344.72,-121.01 186.62,-115.5 152.47,-76 139.68,-61.21 154.47,-40.77 168.35,-26.79"/>
<polygon fill="midnightblue" stroke="midnightblue" points="170.93,-29.17 175.79,-19.76 166.12,-24.08 170.93,-29.17"/>
</g>
<!-- Node8&#45;&gt;Node12 -->
<g id="edge15" class="edge">
<title>Node8&#45;&gt;Node12</title>
<path fill="none" stroke="midnightblue" d="M436.48,-112.44C419.11,-105.15 396.18,-93.12 381.47,-76 370.03,-62.69 363.52,-43.57 360.04,-29.51"/>
<polygon fill="midnightblue" stroke="midnightblue" points="363.41,-28.55 357.85,-19.53 356.57,-30.05 363.41,-28.55"/>
</g>
<!-- Node13 -->
<g id="node13" class="node">
<title>Node13</title>
<g id="a_node13"><a xlink:title=" ">
<polygon fill="white" stroke="#bfbfbf" points="515.47,-0.5 515.47,-19.5 557.47,-19.5 557.47,-0.5 515.47,-0.5"/>
<text text-anchor="middle" x="536.47" y="-7.5" font-family="Helvetica,sans-Serif" font-size="10.00">array</text>
</a>
</g>
</g>
<!-- Node8&#45;&gt;Node13 -->
<g id="edge12" class="edge">
<title>Node8&#45;&gt;Node13</title>
<path fill="none" stroke="midnightblue" d="M466.43,-112.37C478.98,-94.22 508.28,-51.8 524.73,-27.99"/>
<polygon fill="midnightblue" stroke="midnightblue" points="527.73,-29.81 530.53,-19.59 521.97,-25.83 527.73,-29.81"/>
</g>
<!-- Node14 -->
<g id="node14" class="node">
<title>Node14</title>
<g id="a_node14"><a xlink:title=" ">
<polygon fill="white" stroke="#bfbfbf" points="556.97,-56.5 556.97,-75.5 705.97,-75.5 705.97,-56.5 556.97,-56.5"/>
<text text-anchor="middle" x="631.47" y="-63.5" font-family="Helvetica,sans-Serif" font-size="10.00">small_vector/SmallVector.h</text>
</a>
</g>
</g>
<!-- Node8&#45;&gt;Node14 -->
<g id="edge14" class="edge">
<title>Node8&#45;&gt;Node14</title>
<path fill="none" stroke="midnightblue" d="M487.57,-112.44C516.46,-103.32 562.39,-88.81 594.58,-78.65"/>
<polygon fill="midnightblue" stroke="midnightblue" points="596.02,-81.87 604.5,-75.52 593.91,-75.19 596.02,-81.87"/>
</g>
<!-- Node10 -->
<g id="node10" class="node">
<title>Node10</title>
<g id="a_node10"><a xlink:title=" ">
<polygon fill="white" stroke="#bfbfbf" points="229.97,-0.5 229.97,-19.5 282.97,-19.5 282.97,-0.5 229.97,-0.5"/>
<text text-anchor="middle" x="256.47" y="-7.5" font-family="Helvetica,sans-Serif" font-size="10.00">cstddef</text>
</a>
</g>
</g>
<!-- Node9&#45;&gt;Node10 -->
<g id="edge9" class="edge">
<title>Node9&#45;&gt;Node10</title>
<path fill="none" stroke="midnightblue" d="M217.23,-56.08C224.01,-48.3 234.01,-36.8 242.23,-27.37"/>
<polygon fill="midnightblue" stroke="midnightblue" points="244.93,-29.59 248.85,-19.75 239.65,-25 244.93,-29.59"/>
</g>
<!-- Node9&#45;&gt;Node11 -->
<g id="edge10" class="edge">
<title>Node9&#45;&gt;Node11</title>
<path fill="none" stroke="midnightblue" d="M205.67,-56.08C202.56,-48.77 198.05,-38.18 194.18,-29.1"/>
<polygon fill="midnightblue" stroke="midnightblue" points="197.34,-27.58 190.2,-19.75 190.9,-30.32 197.34,-27.58"/>
</g>
<!-- Node9&#45;&gt;Node12 -->
<g id="edge11" class="edge">
<title>Node9&#45;&gt;Node12</title>
<path fill="none" stroke="midnightblue" d="M232.76,-56.44C257.28,-47.44 296.07,-33.19 323.67,-23.05"/>
<polygon fill="midnightblue" stroke="midnightblue" points="325.11,-26.25 333.29,-19.52 322.69,-19.68 325.11,-26.25"/>
</g>
<!-- Node15&#45;&gt;Node12 -->
<g id="edge23" class="edge">
<title>Node15&#45;&gt;Node12</title>
<path fill="none" stroke="midnightblue" d="M724.42,-57.3C721.39,-56.84 718.39,-56.4 715.47,-56 574.32,-36.46 534.45,-46.77 390.27,-19.85"/>
<polygon fill="midnightblue" stroke="midnightblue" points="390.64,-16.36 380.16,-17.94 389.33,-23.24 390.64,-16.36"/>
</g>
<!-- Node15&#45;&gt;Node13 -->
<g id="edge18" class="edge">
<title>Node15&#45;&gt;Node13</title>
<path fill="none" stroke="midnightblue" d="M732.55,-56.44C686.91,-45.87 610.06,-28.05 567.38,-18.16"/>
<polygon fill="midnightblue" stroke="midnightblue" points="568.09,-14.74 557.56,-15.89 566.51,-21.56 568.09,-14.74"/>
</g>
<!-- Node16 -->
<g id="node16" class="node">
<title>Node16</title>
<g id="a_node16"><a xlink:title=" ">
<polygon fill="white" stroke="#bfbfbf" points="589.47,-0.5 589.47,-19.5 653.47,-19.5 653.47,-0.5 589.47,-0.5"/>
<text text-anchor="middle" x="621.47" y="-7.5" font-family="Helvetica,sans-Serif" font-size="10.00">algorithm</text>
</a>
</g>
</g>
<!-- Node15&#45;&gt;Node16 -->
<g id="edge17" class="edge">
<title>Node15&#45;&gt;Node16</title>
<path fill="none" stroke="midnightblue" d="M746.02,-56.44C721.34,-47.44 682.28,-33.19 654.49,-23.05"/>
<polygon fill="midnightblue" stroke="midnightblue" points="655.41,-19.66 644.81,-19.52 653.01,-26.23 655.41,-19.66"/>
</g>
<!-- Node17 -->
<g id="node17" class="node">
<title>Node17</title>
<g id="a_node17"><a xlink:title=" ">
<polygon fill="white" stroke="#bfbfbf" points="671.97,-0.5 671.97,-19.5 720.97,-19.5 720.97,-0.5 671.97,-0.5"/>
<text text-anchor="middle" x="696.47" y="-7.5" font-family="Helvetica,sans-Serif" font-size="10.00">cctype</text>
</a>
</g>
</g>
<!-- Node15&#45;&gt;Node17 -->
<g id="edge19" class="edge">
<title>Node15&#45;&gt;Node17</title>
<path fill="none" stroke="midnightblue" d="M757.74,-56.32C746.63,-48.11 729.73,-35.6 716.49,-25.81"/>
<polygon fill="midnightblue" stroke="midnightblue" points="718.53,-22.97 708.41,-19.83 714.37,-28.59 718.53,-22.97"/>
</g>
<!-- Node15&#45;&gt;Node18 -->
<g id="edge20" class="edge">
<title>Node15&#45;&gt;Node18</title>
<path fill="none" stroke="midnightblue" d="M768.15,-56.08C767.09,-48.93 765.56,-38.64 764.24,-29.69"/>
<polygon fill="midnightblue" stroke="midnightblue" points="767.69,-29.13 762.77,-19.75 760.77,-30.16 767.69,-29.13"/>
</g>
<!-- Node19 -->
<g id="node19" class="node">
<title>Node19</title>
<g id="a_node19"><a xlink:title=" ">
<polygon fill="white" stroke="#bfbfbf" points="801.97,-0.5 801.97,-19.5 874.97,-19.5 874.97,-0.5 801.97,-0.5"/>
<text text-anchor="middle" x="838.47" y="-7.5" font-family="Helvetica,sans-Serif" font-size="10.00">string_view</text>
</a>
</g>
</g>
<!-- Node15&#45;&gt;Node19 -->
<g id="edge21" class="edge">
<title>Node15&#45;&gt;Node19</title>
<path fill="none" stroke="midnightblue" d="M780.56,-56.32C790.96,-48.18 806.73,-35.84 819.19,-26.09"/>
<polygon fill="midnightblue" stroke="midnightblue" points="821.46,-28.75 827.18,-19.83 817.15,-23.24 821.46,-28.75"/>
</g>
<!-- Node20 -->
<g id="node20" class="node">
<title>Node20</title>
<g id="a_node20"><a xlink:title=" ">
<polygon fill="white" stroke="#bfbfbf" points="892.97,-0.5 892.97,-19.5 961.97,-19.5 961.97,-0.5 892.97,-0.5"/>
<text text-anchor="middle" x="927.47" y="-7.5" font-family="Helvetica,sans-Serif" font-size="10.00">type_traits</text>
</a>
</g>
</g>
<!-- Node15&#45;&gt;Node20 -->
<g id="edge22" class="edge">
<title>Node15&#45;&gt;Node20</title>
<path fill="none" stroke="midnightblue" d="M794.51,-56.44C821.09,-47.36 863.28,-32.94 892.99,-22.78"/>
<polygon fill="midnightblue" stroke="midnightblue" points="894.22,-26.06 902.55,-19.52 891.96,-19.44 894.22,-26.06"/>
</g>
<!-- Node21&#45;&gt;Node12 -->
<g id="edge35" class="edge">
<title>Node21&#45;&gt;Node12</title>
<path fill="none" stroke="midnightblue" d="M730.21,-115.05C687.01,-107.46 611.77,-93.21 548.47,-76 491.11,-60.41 425.86,-37.09 388.1,-23.04"/>
<polygon fill="midnightblue" stroke="midnightblue" points="389.25,-19.73 378.66,-19.5 386.8,-26.29 389.25,-19.73"/>
</g>
<!-- Node21&#45;&gt;Node15 -->
<g id="edge25" class="edge">
<title>Node21&#45;&gt;Node15</title>
<path fill="none" stroke="midnightblue" d="M766.13,-112.08C766.65,-105.01 767.41,-94.86 768.06,-85.99"/>
<polygon fill="midnightblue" stroke="midnightblue" points="771.57,-85.98 768.82,-75.75 764.59,-85.47 771.57,-85.98"/>
</g>
<!-- Node21&#45;&gt;Node20 -->
<g id="edge34" class="edge">
<title>Node21&#45;&gt;Node20</title>
<path fill="none" stroke="midnightblue" d="M778.18,-112.37C805.98,-93.49 872.41,-48.38 906.5,-25.24"/>
<polygon fill="midnightblue" stroke="midnightblue" points="908.51,-28.1 914.82,-19.59 904.58,-22.31 908.51,-28.1"/>
</g>
<!-- Node22 -->
<g id="node22" class="node">
<title>Node22</title>
<g id="a_node22"><a xlink:href="serialized_8h.html" target="_top" xlink:title=" ">
<polygon fill="white" stroke="black" points="389.97,-56.5 389.97,-75.5 462.97,-75.5 462.97,-56.5 389.97,-56.5"/>
<text text-anchor="middle" x="426.47" y="-63.5" font-family="Helvetica,sans-Serif" font-size="10.00">serialized.h</text>
</a>
</g>
</g>
<!-- Node21&#45;&gt;Node22 -->
<g id="edge26" class="edge">
<title>Node21&#45;&gt;Node22</title>
<path fill="none" stroke="midnightblue" d="M730.41,-115.75C676.15,-107.57 568.58,-91.15 477.47,-76 476.03,-75.76 474.57,-75.51 473.09,-75.27"/>
<polygon fill="midnightblue" stroke="midnightblue" points="473.67,-71.81 463.23,-73.58 472.49,-78.71 473.67,-71.81"/>
</g>
<!-- Node21&#45;&gt;Node24 -->
<g id="edge32" class="edge">
<title>Node21&#45;&gt;Node24</title>
<path fill="none" stroke="midnightblue" d="M800.48,-113.09C844.48,-103.15 919.76,-86.14 965.53,-75.8"/>
<polygon fill="midnightblue" stroke="midnightblue" points="966.4,-79.19 975.38,-73.57 964.86,-72.36 966.4,-79.19"/>
</g>
<!-- Node25 -->
<g id="node25" class="node">
<title>Node25</title>
<g id="a_node25"><a xlink:title=" ">
<polygon fill="white" stroke="#bfbfbf" points="908.97,-56.5 908.97,-75.5 949.97,-75.5 949.97,-56.5 908.97,-56.5"/>
<text text-anchor="middle" x="929.47" y="-63.5" font-family="Helvetica,sans-Serif" font-size="10.00">tuple</text>
</a>
</g>
</g>
<!-- Node21&#45;&gt;Node25 -->
<g id="edge33" class="edge">
<title>Node21&#45;&gt;Node25</title>
<path fill="none" stroke="midnightblue" d="M791.46,-112.44C820.67,-102.82 868.05,-87.22 898.99,-77.04"/>
<polygon fill="midnightblue" stroke="midnightblue" points="900.39,-80.26 908.8,-73.81 898.21,-73.61 900.39,-80.26"/>
</g>
<!-- Node22&#45;&gt;Node5 -->
<g id="edge28" class="edge">
<title>Node22&#45;&gt;Node5</title>
<path fill="none" stroke="midnightblue" d="M389.78,-59.01C325.66,-48.55 194.02,-27.08 130.84,-16.77"/>
<polygon fill="midnightblue" stroke="midnightblue" points="131.02,-13.25 120.58,-15.1 129.89,-20.16 131.02,-13.25"/>
</g>
<!-- Node22&#45;&gt;Node11 -->
<g id="edge27" class="edge">
<title>Node22&#45;&gt;Node11</title>
<path fill="none" stroke="midnightblue" d="M389.89,-57.51C350.64,-49.37 286.22,-35.68 221.63,-20.2"/>
<polygon fill="midnightblue" stroke="midnightblue" points="222.23,-16.75 211.69,-17.81 220.59,-23.55 222.23,-16.75"/>
</g>
<!-- Node22&#45;&gt;Node12 -->
<g id="edge31" class="edge">
<title>Node22&#45;&gt;Node12</title>
<path fill="none" stroke="midnightblue" d="M415.22,-56.32C404.67,-48.18 388.67,-35.84 376.03,-26.09"/>
<polygon fill="midnightblue" stroke="midnightblue" points="377.98,-23.17 367.92,-19.83 373.7,-28.71 377.98,-23.17"/>
</g>
<!-- Node22&#45;&gt;Node18 -->
<g id="edge30" class="edge">
<title>Node22&#45;&gt;Node18</title>
<path fill="none" stroke="midnightblue" d="M463.26,-61.19C518.93,-55.06 627.99,-41.68 729.42,-19.98"/>
<polygon fill="midnightblue" stroke="midnightblue" points="730.18,-23.4 739.21,-17.85 728.7,-16.56 730.18,-23.4"/>
</g>
<!-- Node23 -->
<g id="node23" class="node">
<title>Node23</title>
<g id="a_node23"><a xlink:title=" ">
<polygon fill="white" stroke="#bfbfbf" points="397.97,-0.5 397.97,-19.5 462.97,-19.5 462.97,-0.5 397.97,-0.5"/>
<text text-anchor="middle" x="430.47" y="-7.5" font-family="Helvetica,sans-Serif" font-size="10.00">stdexcept</text>
</a>
</g>
</g>
<!-- Node22&#45;&gt;Node23 -->
<g id="edge29" class="edge">
<title>Node22&#45;&gt;Node23</title>
<path fill="none" stroke="midnightblue" d="M427.13,-56.08C427.65,-49.01 428.41,-38.86 429.06,-29.99"/>
<polygon fill="midnightblue" stroke="midnightblue" points="432.57,-29.98 429.82,-19.75 425.59,-29.47 432.57,-29.98"/>
</g>
</g>
</svg>
