<?xml version="1.0" encoding="UTF-8" standalone="no"?>
<!DOCTYPE svg PUBLIC "-//W3C//DTD SVG 1.1//EN"
 "http://www.w3.org/Graphics/SVG/1.1/DTD/svg11.dtd">
<!-- Generated by graphviz version 2.43.0 (0)
 -->
<!-- Title: src/host/process_launcher.h Pages: 1 -->
<svg width="1792pt" height="476pt"
 viewBox="0.00 0.00 1791.51 476.00" xmlns="http://www.w3.org/2000/svg" xmlns:xlink="http://www.w3.org/1999/xlink">
<g id="graph0" class="graph" transform="scale(1 1) rotate(0) translate(4 472)">
<title>src/host/process_launcher.h</title>
<polygon fill="white" stroke="transparent" points="-4,4 -4,-472 1787.51,-472 1787.51,4 -4,4"/>
<!-- Node1 -->
<g id="node1" class="node">
<title>Node1</title>
<g id="a_node1"><a xlink:title=" ">
<polygon fill="#bfbfbf" stroke="black" points="1472.5,-448.5 1472.5,-467.5 1623.5,-467.5 1623.5,-448.5 1472.5,-448.5"/>
<text text-anchor="middle" x="1548" y="-455.5" font-family="Helvetica,sans-Serif" font-size="10.00">src/host/process_launcher.h</text>
</a>
</g>
</g>
<!-- Node2 -->
<g id="node2" class="node">
<title>Node2</title>
<g id="a_node2"><a xlink:href="messaging_8h.html" target="_top" xlink:title=" ">
<polygon fill="white" stroke="black" points="699.5,-280.5 699.5,-299.5 792.5,-299.5 792.5,-280.5 699.5,-280.5"/>
<text text-anchor="middle" x="746" y="-287.5" font-family="Helvetica,sans-Serif" font-size="10.00">ds/messaging.h</text>
</a>
</g>
</g>
<!-- Node1&#45;&gt;Node2 -->
<g id="edge1" class="edge">
<title>Node1&#45;&gt;Node2</title>
<path fill="none" stroke="midnightblue" d="M1506.85,-448.48C1372.33,-420.64 945.73,-332.34 797.42,-301.64"/>
<polygon fill="midnightblue" stroke="midnightblue" points="797.73,-298.13 787.23,-299.53 796.31,-304.99 797.73,-298.13"/>
</g>
<!-- Node43 -->
<g id="node43" class="node">
<title>Node43</title>
<g id="a_node43"><a xlink:href="interface_8h.html" target="_top" xlink:title=" ">
<polygon fill="white" stroke="black" points="1391,-392.5 1391,-411.5 1501,-411.5 1501,-392.5 1391,-392.5"/>
<text text-anchor="middle" x="1446" y="-399.5" font-family="Helvetica,sans-Serif" font-size="10.00">enclave/interface.h</text>
</a>
</g>
</g>
<!-- Node1&#45;&gt;Node43 -->
<g id="edge65" class="edge">
<title>Node1&#45;&gt;Node43</title>
<path fill="none" stroke="midnightblue" d="M1531.61,-448.32C1515.33,-439.7 1490.13,-426.36 1471.28,-416.39"/>
<polygon fill="midnightblue" stroke="midnightblue" points="1472.82,-413.24 1462.35,-411.65 1469.55,-419.43 1472.82,-413.24"/>
</g>
<!-- Node45 -->
<g id="node45" class="node">
<title>Node45</title>
<g id="a_node45"><a xlink:title=" ">
<polygon fill="white" stroke="#bfbfbf" points="1427.5,-280.5 1427.5,-299.5 1520.5,-299.5 1520.5,-280.5 1427.5,-280.5"/>
<text text-anchor="middle" x="1474" y="-287.5" font-family="Helvetica,sans-Serif" font-size="10.00">unordered_map</text>
</a>
</g>
</g>
<!-- Node1&#45;&gt;Node45 -->
<g id="edge77" class="edge">
<title>Node1&#45;&gt;Node45</title>
<path fill="none" stroke="midnightblue" d="M1550.69,-448.37C1556.65,-427.48 1568.9,-373.17 1548,-336 1539.78,-321.38 1524.67,-310.95 1510.24,-303.85"/>
<polygon fill="midnightblue" stroke="midnightblue" points="1511.48,-300.57 1500.93,-299.64 1508.6,-306.95 1511.48,-300.57"/>
</g>
<!-- Node46 -->
<g id="node46" class="node">
<title>Node46</title>
<g id="a_node46"><a xlink:title=" ">
<polygon fill="white" stroke="#bfbfbf" points="1489,-336.5 1489,-355.5 1539,-355.5 1539,-336.5 1489,-336.5"/>
<text text-anchor="middle" x="1514" y="-343.5" font-family="Helvetica,sans-Serif" font-size="10.00">chrono</text>
</a>
</g>
</g>
<!-- Node1&#45;&gt;Node46 -->
<g id="edge75" class="edge">
<title>Node1&#45;&gt;Node46</title>
<path fill="none" stroke="midnightblue" d="M1545.33,-448.37C1539.82,-430.54 1527.07,-389.3 1519.65,-365.27"/>
<polygon fill="midnightblue" stroke="midnightblue" points="1522.95,-364.11 1516.66,-355.59 1516.26,-366.18 1522.95,-364.11"/>
</g>
<!-- Node47 -->
<g id="node47" class="node">
<title>Node47</title>
<g id="a_node47"><a xlink:title=" ">
<polygon fill="white" stroke="#bfbfbf" points="1595.5,-392.5 1595.5,-411.5 1642.5,-411.5 1642.5,-392.5 1595.5,-392.5"/>
<text text-anchor="middle" x="1619" y="-399.5" font-family="Helvetica,sans-Serif" font-size="10.00">queue</text>
</a>
</g>
</g>
<!-- Node1&#45;&gt;Node47 -->
<g id="edge76" class="edge">
<title>Node1&#45;&gt;Node47</title>
<path fill="none" stroke="midnightblue" d="M1559.41,-448.32C1570.11,-440.18 1586.34,-427.84 1599.16,-418.09"/>
<polygon fill="midnightblue" stroke="midnightblue" points="1601.54,-420.67 1607.39,-411.83 1597.31,-415.1 1601.54,-420.67"/>
</g>
<!-- Node48 -->
<g id="node48" class="node">
<title>Node48</title>
<g id="a_node48"><a xlink:title=" ">
<polygon fill="white" stroke="#bfbfbf" points="1660.5,-392.5 1660.5,-411.5 1697.5,-411.5 1697.5,-392.5 1660.5,-392.5"/>
<text text-anchor="middle" x="1679" y="-399.5" font-family="Helvetica,sans-Serif" font-size="10.00">uv.h</text>
</a>
</g>
</g>
<!-- Node1&#45;&gt;Node48 -->
<g id="edge78" class="edge">
<title>Node1&#45;&gt;Node48</title>
<path fill="none" stroke="midnightblue" d="M1568.76,-448.44C1590.95,-439.3 1626.27,-424.74 1650.93,-414.57"/>
<polygon fill="midnightblue" stroke="midnightblue" points="1652.55,-417.69 1660.46,-410.64 1649.88,-411.22 1652.55,-417.69"/>
</g>
<!-- Node3 -->
<g id="node3" class="node">
<title>Node3</title>
<g id="a_node3"><a xlink:href="logger_8h.html" target="_top" xlink:title=" ">
<polygon fill="white" stroke="black" points="481.5,-224.5 481.5,-243.5 568.5,-243.5 568.5,-224.5 481.5,-224.5"/>
<text text-anchor="middle" x="525" y="-231.5" font-family="Helvetica,sans-Serif" font-size="10.00">ccf/ds/logger.h</text>
</a>
</g>
</g>
<!-- Node2&#45;&gt;Node3 -->
<g id="edge2" class="edge">
<title>Node2&#45;&gt;Node3</title>
<path fill="none" stroke="midnightblue" d="M710.98,-280.44C672.75,-271.1 611.43,-256.12 569.74,-245.93"/>
<polygon fill="midnightblue" stroke="midnightblue" points="570.4,-242.49 559.85,-243.52 568.74,-249.29 570.4,-242.49"/>
</g>
<!-- Node10 -->
<g id="node10" class="node">
<title>Node10</title>
<g id="a_node10"><a xlink:title=" ">
<polygon fill="white" stroke="#bfbfbf" points="28,-112.5 28,-131.5 66,-131.5 66,-112.5 28,-112.5"/>
<text text-anchor="middle" x="47" y="-119.5" font-family="Helvetica,sans-Serif" font-size="10.00">map</text>
</a>
</g>
</g>
<!-- Node2&#45;&gt;Node10 -->
<g id="edge63" class="edge">
<title>Node2&#45;&gt;Node10</title>
<path fill="none" stroke="midnightblue" d="M699.48,-287.6C564.47,-282.68 175.86,-262.24 77,-188 62.27,-176.94 54.54,-156.9 50.64,-141.98"/>
<polygon fill="midnightblue" stroke="midnightblue" points="53.96,-140.8 48.36,-131.81 47.13,-142.33 53.96,-140.8"/>
</g>
<!-- Node18 -->
<g id="node18" class="node">
<title>Node18</title>
<g id="a_node18"><a xlink:href="ring__buffer_8h.html" target="_top" xlink:title=" ">
<polygon fill="white" stroke="black" points="957.5,-224.5 957.5,-243.5 1034.5,-243.5 1034.5,-224.5 957.5,-224.5"/>
<text text-anchor="middle" x="996" y="-231.5" font-family="Helvetica,sans-Serif" font-size="10.00">ring_buffer.h</text>
</a>
</g>
</g>
<!-- Node2&#45;&gt;Node18 -->
<g id="edge19" class="edge">
<title>Node2&#45;&gt;Node18</title>
<path fill="none" stroke="midnightblue" d="M785.61,-280.44C829.48,-270.97 900.23,-255.69 947.41,-245.5"/>
<polygon fill="midnightblue" stroke="midnightblue" points="948.36,-248.87 957.39,-243.34 946.88,-242.03 948.36,-248.87"/>
</g>
<!-- Node37 -->
<g id="node37" class="node">
<title>Node37</title>
<g id="a_node37"><a xlink:title=" ">
<polygon fill="white" stroke="#bfbfbf" points="768.5,-0.5 768.5,-19.5 833.5,-19.5 833.5,-0.5 768.5,-0.5"/>
<text text-anchor="middle" x="801" y="-7.5" font-family="Helvetica,sans-Serif" font-size="10.00">stdexcept</text>
</a>
</g>
</g>
<!-- Node2&#45;&gt;Node37 -->
<g id="edge64" class="edge">
<title>Node2&#45;&gt;Node37</title>
<path fill="none" stroke="midnightblue" d="M699.13,-287.33C578.52,-282.72 259.74,-268.53 157,-244 83.54,-226.46 0,-254.52 0,-179 0,-179 0,-179 0,-121 0,-38.39 635.73,-34.56 758.42,-19.86"/>
<polygon fill="midnightblue" stroke="midnightblue" points="758.97,-23.31 768.38,-18.45 757.99,-16.38 758.97,-23.31"/>
</g>
<!-- Node40 -->
<g id="node40" class="node">
<title>Node40</title>
<g id="a_node40"><a xlink:title=" ">
<polygon fill="white" stroke="#bfbfbf" points="1051,-112.5 1051,-131.5 1101,-131.5 1101,-112.5 1051,-112.5"/>
<text text-anchor="middle" x="1076" y="-119.5" font-family="Helvetica,sans-Serif" font-size="10.00">atomic</text>
</a>
</g>
</g>
<!-- Node2&#45;&gt;Node40 -->
<g id="edge61" class="edge">
<title>Node2&#45;&gt;Node40</title>
<path fill="none" stroke="midnightblue" d="M792.52,-285.22C864.8,-278.82 1000.29,-264.48 1044,-244 1077.92,-228.1 1091.65,-222.18 1107,-188 1114.48,-171.35 1103.34,-152.54 1092.39,-139.46"/>
<polygon fill="midnightblue" stroke="midnightblue" points="1094.73,-136.83 1085.42,-131.77 1089.54,-141.53 1094.73,-136.83"/>
</g>
<!-- Node42 -->
<g id="node42" class="node">
<title>Node42</title>
<g id="a_node42"><a xlink:title=" ">
<polygon fill="white" stroke="#bfbfbf" points="688.5,-224.5 688.5,-243.5 795.5,-243.5 795.5,-224.5 688.5,-224.5"/>
<text text-anchor="middle" x="742" y="-231.5" font-family="Helvetica,sans-Serif" font-size="10.00">condition_variable</text>
</a>
</g>
</g>
<!-- Node2&#45;&gt;Node42 -->
<g id="edge62" class="edge">
<title>Node2&#45;&gt;Node42</title>
<path fill="none" stroke="midnightblue" d="M745.34,-280.08C744.82,-273.01 744.06,-262.86 743.41,-253.99"/>
<polygon fill="midnightblue" stroke="midnightblue" points="746.88,-253.47 742.65,-243.75 739.9,-253.98 746.88,-253.47"/>
</g>
<!-- Node4 -->
<g id="node4" class="node">
<title>Node4</title>
<g id="a_node4"><a xlink:href="enum__formatter_8h.html" target="_top" xlink:title=" ">
<polygon fill="white" stroke="black" points="660,-168.5 660,-187.5 796,-187.5 796,-168.5 660,-168.5"/>
<text text-anchor="middle" x="728" y="-175.5" font-family="Helvetica,sans-Serif" font-size="10.00">ccf/ds/enum_formatter.h</text>
</a>
</g>
</g>
<!-- Node3&#45;&gt;Node4 -->
<g id="edge3" class="edge">
<title>Node3&#45;&gt;Node4</title>
<path fill="none" stroke="midnightblue" d="M557.17,-224.44C592.06,-215.16 647.89,-200.31 686.17,-190.13"/>
<polygon fill="midnightblue" stroke="midnightblue" points="687.22,-193.47 695.98,-187.52 685.42,-186.7 687.22,-193.47"/>
</g>
<!-- Node5 -->
<g id="node5" class="node">
<title>Node5</title>
<g id="a_node5"><a xlink:title=" ">
<polygon fill="white" stroke="#bfbfbf" points="688.5,-112.5 688.5,-131.5 767.5,-131.5 767.5,-112.5 688.5,-112.5"/>
<text text-anchor="middle" x="728" y="-119.5" font-family="Helvetica,sans-Serif" font-size="10.00">fmt/format.h</text>
</a>
</g>
</g>
<!-- Node3&#45;&gt;Node5 -->
<g id="edge13" class="edge">
<title>Node3&#45;&gt;Node5</title>
<path fill="none" stroke="midnightblue" d="M542.31,-224.42C560.14,-215.51 588.67,-201.09 613,-188 644.95,-170.81 681.33,-150.04 704.46,-136.68"/>
<polygon fill="midnightblue" stroke="midnightblue" points="706.32,-139.65 713.22,-131.61 702.82,-133.59 706.32,-139.65"/>
</g>
<!-- Node6 -->
<g id="node6" class="node">
<title>Node6</title>
<g id="a_node6"><a xlink:href="thread__ids_8h.html" target="_top" xlink:title=" ">
<polygon fill="white" stroke="black" points="119,-168.5 119,-187.5 227,-187.5 227,-168.5 119,-168.5"/>
<text text-anchor="middle" x="173" y="-175.5" font-family="Helvetica,sans-Serif" font-size="10.00">ccf/ds/thread_ids.h</text>
</a>
</g>
</g>
<!-- Node3&#45;&gt;Node6 -->
<g id="edge5" class="edge">
<title>Node3&#45;&gt;Node6</title>
<path fill="none" stroke="midnightblue" d="M481.48,-226.32C420.21,-216.92 308.09,-199.72 237.22,-188.85"/>
<polygon fill="midnightblue" stroke="midnightblue" points="237.49,-185.35 227.07,-187.29 236.42,-192.27 237.49,-185.35"/>
</g>
<!-- Node12 -->
<g id="node12" class="node">
<title>Node12</title>
<g id="a_node12"><a xlink:title=" ">
<polygon fill="white" stroke="#bfbfbf" points="245.5,-168.5 245.5,-187.5 324.5,-187.5 324.5,-168.5 245.5,-168.5"/>
<text text-anchor="middle" x="285" y="-175.5" font-family="Helvetica,sans-Serif" font-size="10.00">fmt/chrono.h</text>
</a>
</g>
</g>
<!-- Node3&#45;&gt;Node12 -->
<g id="edge12" class="edge">
<title>Node3&#45;&gt;Node12</title>
<path fill="none" stroke="midnightblue" d="M486.97,-224.44C445.19,-215.04 378.02,-199.93 332.73,-189.74"/>
<polygon fill="midnightblue" stroke="midnightblue" points="333.38,-186.3 322.85,-187.52 331.84,-193.13 333.38,-186.3"/>
</g>
<!-- Node13 -->
<g id="node13" class="node">
<title>Node13</title>
<g id="a_node13"><a xlink:title=" ">
<polygon fill="white" stroke="#bfbfbf" points="342,-168.5 342,-187.5 402,-187.5 402,-168.5 342,-168.5"/>
<text text-anchor="middle" x="372" y="-175.5" font-family="Helvetica,sans-Serif" font-size="10.00">iostream</text>
</a>
</g>
</g>
<!-- Node3&#45;&gt;Node13 -->
<g id="edge14" class="edge">
<title>Node3&#45;&gt;Node13</title>
<path fill="none" stroke="midnightblue" d="M500.76,-224.44C475.13,-215.4 434.51,-201.06 405.76,-190.92"/>
<polygon fill="midnightblue" stroke="midnightblue" points="406.72,-187.54 396.13,-187.52 404.39,-194.15 406.72,-187.54"/>
</g>
<!-- Node14 -->
<g id="node14" class="node">
<title>Node14</title>
<g id="a_node14"><a xlink:title=" ">
<polygon fill="white" stroke="#bfbfbf" points="420,-168.5 420,-187.5 530,-187.5 530,-168.5 420,-168.5"/>
<text text-anchor="middle" x="475" y="-175.5" font-family="Helvetica,sans-Serif" font-size="10.00">nlohmann/json.hpp</text>
</a>
</g>
</g>
<!-- Node3&#45;&gt;Node14 -->
<g id="edge15" class="edge">
<title>Node3&#45;&gt;Node14</title>
<path fill="none" stroke="midnightblue" d="M516.74,-224.08C509.54,-216.3 498.89,-204.8 490.15,-195.37"/>
<polygon fill="midnightblue" stroke="midnightblue" points="492.47,-192.71 483.1,-187.75 487.33,-197.47 492.47,-192.71"/>
</g>
<!-- Node15 -->
<g id="node15" class="node">
<title>Node15</title>
<g id="a_node15"><a xlink:title=" ">
<polygon fill="white" stroke="#bfbfbf" points="977,-112.5 977,-131.5 1033,-131.5 1033,-112.5 977,-112.5"/>
<text text-anchor="middle" x="1005" y="-119.5" font-family="Helvetica,sans-Serif" font-size="10.00">optional</text>
</a>
</g>
</g>
<!-- Node3&#45;&gt;Node15 -->
<g id="edge16" class="edge">
<title>Node3&#45;&gt;Node15</title>
<path fill="none" stroke="midnightblue" d="M568.55,-230.04C680.19,-222.3 968.98,-201.09 985,-188 998.55,-176.93 1003.12,-156.89 1004.56,-141.98"/>
<polygon fill="midnightblue" stroke="midnightblue" points="1008.06,-141.99 1005.15,-131.81 1001.07,-141.59 1008.06,-141.99"/>
</g>
<!-- Node16 -->
<g id="node16" class="node">
<title>Node16</title>
<g id="a_node16"><a xlink:title=" ">
<polygon fill="white" stroke="#bfbfbf" points="548,-168.5 548,-187.5 604,-187.5 604,-168.5 548,-168.5"/>
<text text-anchor="middle" x="576" y="-175.5" font-family="Helvetica,sans-Serif" font-size="10.00">sstream</text>
</a>
</g>
</g>
<!-- Node3&#45;&gt;Node16 -->
<g id="edge17" class="edge">
<title>Node3&#45;&gt;Node16</title>
<path fill="none" stroke="midnightblue" d="M533.42,-224.08C540.85,-216.22 551.85,-204.57 560.81,-195.08"/>
<polygon fill="midnightblue" stroke="midnightblue" points="563.41,-197.42 567.74,-187.75 558.32,-192.62 563.41,-197.42"/>
</g>
<!-- Node17 -->
<g id="node17" class="node">
<title>Node17</title>
<g id="a_node17"><a xlink:title=" ">
<polygon fill="white" stroke="#bfbfbf" points="681.5,-0.5 681.5,-19.5 750.5,-19.5 750.5,-0.5 681.5,-0.5"/>
<text text-anchor="middle" x="716" y="-7.5" font-family="Helvetica,sans-Serif" font-size="10.00">type_traits</text>
</a>
</g>
</g>
<!-- Node3&#45;&gt;Node17 -->
<g id="edge18" class="edge">
<title>Node3&#45;&gt;Node17</title>
<path fill="none" stroke="midnightblue" d="M481.41,-231.5C379.91,-227.57 134.5,-215.31 110,-188 99.44,-176.23 87.87,-140.13 113,-112 187.12,-29.04 544.11,-14.22 671.07,-11.58"/>
<polygon fill="midnightblue" stroke="midnightblue" points="671.29,-15.07 681.22,-11.38 671.16,-8.07 671.29,-15.07"/>
</g>
<!-- Node4&#45;&gt;Node5 -->
<g id="edge4" class="edge">
<title>Node4&#45;&gt;Node5</title>
<path fill="none" stroke="midnightblue" d="M728,-168.08C728,-161.01 728,-150.86 728,-141.99"/>
<polygon fill="midnightblue" stroke="midnightblue" points="731.5,-141.75 728,-131.75 724.5,-141.75 731.5,-141.75"/>
</g>
<!-- Node6&#45;&gt;Node5 -->
<g id="edge6" class="edge">
<title>Node6&#45;&gt;Node5</title>
<path fill="none" stroke="midnightblue" d="M227.1,-169.21C230.45,-168.78 233.77,-168.38 237,-168 398.13,-149.3 589.75,-133.63 678.43,-126.75"/>
<polygon fill="midnightblue" stroke="midnightblue" points="678.77,-130.23 688.47,-125.97 678.23,-123.25 678.77,-130.23"/>
</g>
<!-- Node7 -->
<g id="node7" class="node">
<title>Node7</title>
<g id="a_node7"><a xlink:title=" ">
<polygon fill="white" stroke="#bfbfbf" points="122,-112.5 122,-131.5 208,-131.5 208,-112.5 122,-112.5"/>
<text text-anchor="middle" x="165" y="-119.5" font-family="Helvetica,sans-Serif" font-size="10.00">fmt/ostream.h</text>
</a>
</g>
</g>
<!-- Node6&#45;&gt;Node7 -->
<g id="edge7" class="edge">
<title>Node6&#45;&gt;Node7</title>
<path fill="none" stroke="midnightblue" d="M171.68,-168.08C170.62,-160.93 169.09,-150.64 167.77,-141.69"/>
<polygon fill="midnightblue" stroke="midnightblue" points="171.22,-141.13 166.3,-131.75 164.3,-142.16 171.22,-141.13"/>
</g>
<!-- Node8 -->
<g id="node8" class="node">
<title>Node8</title>
<g id="a_node8"><a xlink:title=" ">
<polygon fill="white" stroke="#bfbfbf" points="226.5,-112.5 226.5,-131.5 287.5,-131.5 287.5,-112.5 226.5,-112.5"/>
<text text-anchor="middle" x="257" y="-119.5" font-family="Helvetica,sans-Serif" font-size="10.00">fmt/std.h</text>
</a>
</g>
</g>
<!-- Node6&#45;&gt;Node8 -->
<g id="edge8" class="edge">
<title>Node6&#45;&gt;Node8</title>
<path fill="none" stroke="midnightblue" d="M186.5,-168.32C199.6,-159.9 219.71,-146.97 235.11,-137.07"/>
<polygon fill="midnightblue" stroke="midnightblue" points="237.02,-140.01 243.54,-131.65 233.23,-134.12 237.02,-140.01"/>
</g>
<!-- Node9 -->
<g id="node9" class="node">
<title>Node9</title>
<g id="a_node9"><a xlink:title=" ">
<polygon fill="white" stroke="#bfbfbf" points="502,-112.5 502,-131.5 546,-131.5 546,-112.5 502,-112.5"/>
<text text-anchor="middle" x="524" y="-119.5" font-family="Helvetica,sans-Serif" font-size="10.00">limits</text>
</a>
</g>
</g>
<!-- Node6&#45;&gt;Node9 -->
<g id="edge9" class="edge">
<title>Node6&#45;&gt;Node9</title>
<path fill="none" stroke="midnightblue" d="M227.07,-168.68C301.09,-157.29 431.62,-137.21 491.87,-127.94"/>
<polygon fill="midnightblue" stroke="midnightblue" points="492.58,-131.37 501.94,-126.39 491.52,-124.46 492.58,-131.37"/>
</g>
<!-- Node6&#45;&gt;Node10 -->
<g id="edge10" class="edge">
<title>Node6&#45;&gt;Node10</title>
<path fill="none" stroke="midnightblue" d="M153.03,-168.44C132.15,-159.49 99.17,-145.36 75.54,-135.23"/>
<polygon fill="midnightblue" stroke="midnightblue" points="76.62,-131.89 66.05,-131.16 73.86,-138.32 76.62,-131.89"/>
</g>
<!-- Node11 -->
<g id="node11" class="node">
<title>Node11</title>
<g id="a_node11"><a xlink:title=" ">
<polygon fill="white" stroke="#bfbfbf" points="306,-112.5 306,-131.5 354,-131.5 354,-112.5 306,-112.5"/>
<text text-anchor="middle" x="330" y="-119.5" font-family="Helvetica,sans-Serif" font-size="10.00">thread</text>
</a>
</g>
</g>
<!-- Node6&#45;&gt;Node11 -->
<g id="edge11" class="edge">
<title>Node6&#45;&gt;Node11</title>
<path fill="none" stroke="midnightblue" d="M197.88,-168.44C224.44,-159.31 266.71,-144.77 296.26,-134.6"/>
<polygon fill="midnightblue" stroke="midnightblue" points="297.44,-137.9 305.76,-131.34 295.16,-131.28 297.44,-137.9"/>
</g>
<!-- Node19 -->
<g id="node19" class="node">
<title>Node19</title>
<g id="a_node19"><a xlink:href="mem_8h.html" target="_top" xlink:title=" ">
<polygon fill="white" stroke="black" points="890,-168.5 890,-187.5 976,-187.5 976,-168.5 890,-168.5"/>
<text text-anchor="middle" x="933" y="-175.5" font-family="Helvetica,sans-Serif" font-size="10.00">ccf/pal/mem.h</text>
</a>
</g>
</g>
<!-- Node18&#45;&gt;Node19 -->
<g id="edge20" class="edge">
<title>Node18&#45;&gt;Node19</title>
<path fill="none" stroke="midnightblue" d="M985.88,-224.32C976.47,-216.26 962.26,-204.08 950.93,-194.37"/>
<polygon fill="midnightblue" stroke="midnightblue" points="953.18,-191.68 943.31,-187.83 948.62,-197 953.18,-191.68"/>
</g>
<!-- Node21 -->
<g id="node21" class="node">
<title>Node21</title>
<g id="a_node21"><a xlink:title=" ">
<polygon fill="white" stroke="#bfbfbf" points="852,-0.5 852,-19.5 902,-19.5 902,-0.5 852,-0.5"/>
<text text-anchor="middle" x="877" y="-7.5" font-family="Helvetica,sans-Serif" font-size="10.00">cstring</text>
</a>
</g>
</g>
<!-- Node18&#45;&gt;Node21 -->
<g id="edge59" class="edge">
<title>Node18&#45;&gt;Node21</title>
<path fill="none" stroke="midnightblue" d="M957.39,-228.64C931.32,-223.51 898.58,-212.33 881,-188 846.4,-140.11 861.5,-64.36 871.17,-29.58"/>
<polygon fill="midnightblue" stroke="midnightblue" points="874.58,-30.39 874.06,-19.81 867.87,-28.41 874.58,-30.39"/>
</g>
<!-- Node22 -->
<g id="node22" class="node">
<title>Node22</title>
<g id="a_node22"><a xlink:href="ring__buffer__types_8h.html" target="_top" xlink:title=" ">
<polygon fill="white" stroke="black" points="1154,-168.5 1154,-187.5 1264,-187.5 1264,-168.5 1154,-168.5"/>
<text text-anchor="middle" x="1209" y="-175.5" font-family="Helvetica,sans-Serif" font-size="10.00">ring_buffer_types.h</text>
</a>
</g>
</g>
<!-- Node18&#45;&gt;Node22 -->
<g id="edge24" class="edge">
<title>Node18&#45;&gt;Node22</title>
<path fill="none" stroke="midnightblue" d="M1029.75,-224.44C1066.52,-215.12 1125.45,-200.18 1165.62,-190"/>
<polygon fill="midnightblue" stroke="midnightblue" points="1166.57,-193.37 1175.41,-187.52 1164.85,-186.58 1166.57,-193.37"/>
</g>
<!-- Node41 -->
<g id="node41" class="node">
<title>Node41</title>
<g id="a_node41"><a xlink:title=" ">
<polygon fill="white" stroke="#bfbfbf" points="1032.5,-168.5 1032.5,-187.5 1097.5,-187.5 1097.5,-168.5 1032.5,-168.5"/>
<text text-anchor="middle" x="1065" y="-175.5" font-family="Helvetica,sans-Serif" font-size="10.00">functional</text>
</a>
</g>
</g>
<!-- Node18&#45;&gt;Node41 -->
<g id="edge60" class="edge">
<title>Node18&#45;&gt;Node41</title>
<path fill="none" stroke="midnightblue" d="M1007.09,-224.32C1017.49,-216.18 1033.26,-203.84 1045.72,-194.09"/>
<polygon fill="midnightblue" stroke="midnightblue" points="1047.99,-196.75 1053.71,-187.83 1043.68,-191.24 1047.99,-196.75"/>
</g>
<!-- Node19&#45;&gt;Node9 -->
<g id="edge23" class="edge">
<title>Node19&#45;&gt;Node9</title>
<path fill="none" stroke="midnightblue" d="M889.62,-171.27C807.12,-160.38 629.36,-136.91 556.33,-127.27"/>
<polygon fill="midnightblue" stroke="midnightblue" points="556.71,-123.79 546.34,-125.95 555.8,-130.73 556.71,-123.79"/>
</g>
<!-- Node20 -->
<g id="node20" class="node">
<title>Node20</title>
<g id="a_node20"><a xlink:title=" ">
<polygon fill="white" stroke="#bfbfbf" points="905.5,-112.5 905.5,-131.5 958.5,-131.5 958.5,-112.5 905.5,-112.5"/>
<text text-anchor="middle" x="932" y="-119.5" font-family="Helvetica,sans-Serif" font-size="10.00">stdlib.h</text>
</a>
</g>
</g>
<!-- Node19&#45;&gt;Node20 -->
<g id="edge21" class="edge">
<title>Node19&#45;&gt;Node20</title>
<path fill="none" stroke="midnightblue" d="M932.83,-168.08C932.7,-161.01 932.52,-150.86 932.35,-141.99"/>
<polygon fill="midnightblue" stroke="midnightblue" points="935.85,-141.68 932.16,-131.75 928.85,-141.81 935.85,-141.68"/>
</g>
<!-- Node19&#45;&gt;Node21 -->
<g id="edge22" class="edge">
<title>Node19&#45;&gt;Node21</title>
<path fill="none" stroke="midnightblue" d="M923.72,-168.29C915.33,-159.85 903.35,-146.26 897,-132 881.88,-98.09 878.08,-54.23 877.19,-29.71"/>
<polygon fill="midnightblue" stroke="midnightblue" points="880.69,-29.55 876.96,-19.64 873.69,-29.72 880.69,-29.55"/>
</g>
<!-- Node22&#45;&gt;Node5 -->
<g id="edge55" class="edge">
<title>Node22&#45;&gt;Node5</title>
<path fill="none" stroke="midnightblue" d="M1153.82,-170.81C1059.37,-160.2 868.17,-138.74 777.65,-128.57"/>
<polygon fill="midnightblue" stroke="midnightblue" points="777.97,-125.09 767.65,-127.45 777.19,-132.04 777.97,-125.09"/>
</g>
<!-- Node22&#45;&gt;Node15 -->
<g id="edge56" class="edge">
<title>Node22&#45;&gt;Node15</title>
<path fill="none" stroke="midnightblue" d="M1176.68,-168.44C1140.37,-158.83 1081.51,-143.25 1043.03,-133.07"/>
<polygon fill="midnightblue" stroke="midnightblue" points="1043.79,-129.65 1033.23,-130.47 1042,-136.42 1043.79,-129.65"/>
</g>
<!-- Node23 -->
<g id="node23" class="node">
<title>Node23</title>
<g id="a_node23"><a xlink:href="include_2ccf_2ds_2hash_8h.html" target="_top" xlink:title=" ">
<polygon fill="white" stroke="black" points="1501,-112.5 1501,-131.5 1581,-131.5 1581,-112.5 1501,-112.5"/>
<text text-anchor="middle" x="1541" y="-119.5" font-family="Helvetica,sans-Serif" font-size="10.00">ccf/ds/hash.h</text>
</a>
</g>
</g>
<!-- Node22&#45;&gt;Node23 -->
<g id="edge25" class="edge">
<title>Node22&#45;&gt;Node23</title>
<path fill="none" stroke="midnightblue" d="M1261.61,-168.44C1324.48,-158.22 1428.92,-141.23 1490.74,-131.18"/>
<polygon fill="midnightblue" stroke="midnightblue" points="1491.34,-134.62 1500.65,-129.56 1490.22,-127.71 1491.34,-134.62"/>
</g>
<!-- Node27 -->
<g id="node27" class="node">
<title>Node27</title>
<g id="a_node27"><a xlink:title=" ">
<polygon fill="white" stroke="#bfbfbf" points="1341.5,-0.5 1341.5,-19.5 1388.5,-19.5 1388.5,-0.5 1341.5,-0.5"/>
<text text-anchor="middle" x="1365" y="-7.5" font-family="Helvetica,sans-Serif" font-size="10.00">vector</text>
</a>
</g>
</g>
<!-- Node22&#45;&gt;Node27 -->
<g id="edge58" class="edge">
<title>Node22&#45;&gt;Node27</title>
<path fill="none" stroke="midnightblue" d="M1222.76,-168.48C1247.3,-152.74 1299.13,-116.94 1332,-76 1343.49,-61.69 1352.55,-42.73 1358.25,-28.98"/>
<polygon fill="midnightblue" stroke="midnightblue" points="1361.52,-30.24 1361.94,-19.65 1355.01,-27.67 1361.52,-30.24"/>
</g>
<!-- Node30 -->
<g id="node30" class="node">
<title>Node30</title>
<g id="a_node30"><a xlink:href="nonstd_8h.html" target="_top" xlink:title=" ">
<polygon fill="white" stroke="black" points="943,-56.5 943,-75.5 1033,-75.5 1033,-56.5 943,-56.5"/>
<text text-anchor="middle" x="988" y="-63.5" font-family="Helvetica,sans-Serif" font-size="10.00">ccf/ds/nonstd.h</text>
</a>
</g>
</g>
<!-- Node22&#45;&gt;Node30 -->
<g id="edge34" class="edge">
<title>Node22&#45;&gt;Node30</title>
<path fill="none" stroke="midnightblue" d="M1197.64,-168.29C1179.75,-154.88 1143.59,-128.95 1110,-112 1083.07,-98.42 1051.03,-86.76 1026.53,-78.71"/>
<polygon fill="midnightblue" stroke="midnightblue" points="1027.47,-75.33 1016.88,-75.59 1025.32,-82 1027.47,-75.33"/>
</g>
<!-- Node33 -->
<g id="node33" class="node">
<title>Node33</title>
<g id="a_node33"><a xlink:title=" ">
<polygon fill="white" stroke="#bfbfbf" points="1175,-0.5 1175,-19.5 1219,-19.5 1219,-0.5 1175,-0.5"/>
<text text-anchor="middle" x="1197" y="-7.5" font-family="Helvetica,sans-Serif" font-size="10.00">string</text>
</a>
</g>
</g>
<!-- Node22&#45;&gt;Node33 -->
<g id="edge57" class="edge">
<title>Node22&#45;&gt;Node33</title>
<path fill="none" stroke="midnightblue" d="M1216.15,-168.36C1222.77,-159.76 1232.16,-145.87 1236,-132 1238.37,-123.43 1238.14,-120.63 1236,-112 1231.65,-94.44 1223.91,-92.72 1217,-76 1210.66,-60.66 1205.25,-42.56 1201.66,-29.36"/>
<polygon fill="midnightblue" stroke="midnightblue" points="1205.02,-28.37 1199.09,-19.59 1198.25,-30.15 1205.02,-28.37"/>
</g>
<!-- Node35 -->
<g id="node35" class="node">
<title>Node35</title>
<g id="a_node35"><a xlink:href="serializer_8h.html" target="_top" xlink:title=" ">
<polygon fill="white" stroke="black" points="1157,-112.5 1157,-131.5 1227,-131.5 1227,-112.5 1157,-112.5"/>
<text text-anchor="middle" x="1192" y="-119.5" font-family="Helvetica,sans-Serif" font-size="10.00">serializer.h</text>
</a>
</g>
</g>
<!-- Node22&#45;&gt;Node35 -->
<g id="edge42" class="edge">
<title>Node22&#45;&gt;Node35</title>
<path fill="none" stroke="midnightblue" d="M1206.19,-168.08C1203.92,-160.85 1200.63,-150.41 1197.79,-141.4"/>
<polygon fill="midnightblue" stroke="midnightblue" points="1201.1,-140.24 1194.75,-131.75 1194.42,-142.34 1201.1,-140.24"/>
</g>
<!-- Node22&#45;&gt;Node40 -->
<g id="edge54" class="edge">
<title>Node22&#45;&gt;Node40</title>
<path fill="none" stroke="midnightblue" d="M1187.93,-168.44C1165.94,-159.52 1131.27,-145.44 1106.34,-135.32"/>
<polygon fill="midnightblue" stroke="midnightblue" points="1107.56,-132.04 1096.98,-131.52 1104.92,-138.52 1107.56,-132.04"/>
</g>
<!-- Node24 -->
<g id="node24" class="node">
<title>Node24</title>
<g id="a_node24"><a xlink:href="siphash_8h.html" target="_top" xlink:title=" ">
<polygon fill="white" stroke="black" points="1673.5,-56.5 1673.5,-75.5 1768.5,-75.5 1768.5,-56.5 1673.5,-56.5"/>
<text text-anchor="middle" x="1721" y="-63.5" font-family="Helvetica,sans-Serif" font-size="10.00">ccf/ds/siphash.h</text>
</a>
</g>
</g>
<!-- Node23&#45;&gt;Node24 -->
<g id="edge26" class="edge">
<title>Node23&#45;&gt;Node24</title>
<path fill="none" stroke="midnightblue" d="M1569.52,-112.44C1600.07,-103.28 1648.71,-88.69 1682.6,-78.52"/>
<polygon fill="midnightblue" stroke="midnightblue" points="1684.04,-81.74 1692.61,-75.52 1682.03,-75.04 1684.04,-81.74"/>
</g>
<!-- Node26 -->
<g id="node26" class="node">
<title>Node26</title>
<g id="a_node26"><a xlink:title=" ">
<polygon fill="white" stroke="#bfbfbf" points="1731,-0.5 1731,-19.5 1781,-19.5 1781,-0.5 1731,-0.5"/>
<text text-anchor="middle" x="1756" y="-7.5" font-family="Helvetica,sans-Serif" font-size="10.00">cstdint</text>
</a>
</g>
</g>
<!-- Node23&#45;&gt;Node26 -->
<g id="edge31" class="edge">
<title>Node23&#45;&gt;Node26</title>
<path fill="none" stroke="midnightblue" d="M1581.36,-119.34C1642.35,-115.88 1753.49,-105.6 1778,-76 1789.47,-62.15 1779.77,-42.04 1769.87,-27.86"/>
<polygon fill="midnightblue" stroke="midnightblue" points="1772.39,-25.39 1763.56,-19.53 1766.81,-29.61 1772.39,-25.39"/>
</g>
<!-- Node23&#45;&gt;Node27 -->
<g id="edge33" class="edge">
<title>Node23&#45;&gt;Node27</title>
<path fill="none" stroke="midnightblue" d="M1555.41,-112.38C1574.77,-99.73 1605,-75.53 1589,-56 1565.39,-27.17 1455.77,-16.42 1399.12,-12.74"/>
<polygon fill="midnightblue" stroke="midnightblue" points="1399.05,-9.23 1388.86,-12.11 1398.63,-16.22 1399.05,-9.23"/>
</g>
<!-- Node28 -->
<g id="node28" class="node">
<title>Node28</title>
<g id="a_node28"><a xlink:title=" ">
<polygon fill="white" stroke="#bfbfbf" points="1259,-0.5 1259,-19.5 1301,-19.5 1301,-0.5 1259,-0.5"/>
<text text-anchor="middle" x="1280" y="-7.5" font-family="Helvetica,sans-Serif" font-size="10.00">array</text>
</a>
</g>
</g>
<!-- Node23&#45;&gt;Node28 -->
<g id="edge30" class="edge">
<title>Node23&#45;&gt;Node28</title>
<path fill="none" stroke="midnightblue" d="M1516.65,-112.34C1492.47,-103.61 1454.41,-89.53 1422,-76 1381.49,-59.09 1335.42,-37.57 1307.03,-24.03"/>
<polygon fill="midnightblue" stroke="midnightblue" points="1308.29,-20.76 1297.76,-19.6 1305.27,-27.07 1308.29,-20.76"/>
</g>
<!-- Node29 -->
<g id="node29" class="node">
<title>Node29</title>
<g id="a_node29"><a xlink:title=" ">
<polygon fill="white" stroke="#bfbfbf" points="1430.5,-56.5 1430.5,-75.5 1579.5,-75.5 1579.5,-56.5 1430.5,-56.5"/>
<text text-anchor="middle" x="1505" y="-63.5" font-family="Helvetica,sans-Serif" font-size="10.00">small_vector/SmallVector.h</text>
</a>
</g>
</g>
<!-- Node23&#45;&gt;Node29 -->
<g id="edge32" class="edge">
<title>Node23&#45;&gt;Node29</title>
<path fill="none" stroke="midnightblue" d="M1535.06,-112.08C1530.02,-104.53 1522.66,-93.49 1516.49,-84.23"/>
<polygon fill="midnightblue" stroke="midnightblue" points="1519.29,-82.13 1510.83,-75.75 1513.47,-86.01 1519.29,-82.13"/>
</g>
<!-- Node25 -->
<g id="node25" class="node">
<title>Node25</title>
<g id="a_node25"><a xlink:title=" ">
<polygon fill="white" stroke="#bfbfbf" points="1659.5,-0.5 1659.5,-19.5 1712.5,-19.5 1712.5,-0.5 1659.5,-0.5"/>
<text text-anchor="middle" x="1686" y="-7.5" font-family="Helvetica,sans-Serif" font-size="10.00">cstddef</text>
</a>
</g>
</g>
<!-- Node24&#45;&gt;Node25 -->
<g id="edge27" class="edge">
<title>Node24&#45;&gt;Node25</title>
<path fill="none" stroke="midnightblue" d="M1715.22,-56.08C1710.33,-48.53 1703.17,-37.49 1697.17,-28.23"/>
<polygon fill="midnightblue" stroke="midnightblue" points="1700.05,-26.24 1691.67,-19.75 1694.17,-30.05 1700.05,-26.24"/>
</g>
<!-- Node24&#45;&gt;Node26 -->
<g id="edge28" class="edge">
<title>Node24&#45;&gt;Node26</title>
<path fill="none" stroke="midnightblue" d="M1726.78,-56.08C1731.67,-48.53 1738.83,-37.49 1744.83,-28.23"/>
<polygon fill="midnightblue" stroke="midnightblue" points="1747.83,-30.05 1750.33,-19.75 1741.95,-26.24 1747.83,-30.05"/>
</g>
<!-- Node24&#45;&gt;Node27 -->
<g id="edge29" class="edge">
<title>Node24&#45;&gt;Node27</title>
<path fill="none" stroke="midnightblue" d="M1673.36,-57.77C1600.31,-46.69 1462.43,-25.78 1398.77,-16.12"/>
<polygon fill="midnightblue" stroke="midnightblue" points="1399.27,-12.66 1388.86,-14.62 1398.22,-19.58 1399.27,-12.66"/>
</g>
<!-- Node30&#45;&gt;Node17 -->
<g id="edge40" class="edge">
<title>Node30&#45;&gt;Node17</title>
<path fill="none" stroke="midnightblue" d="M944.27,-56.46C900.42,-47.88 830.7,-34.18 760.49,-20.09"/>
<polygon fill="midnightblue" stroke="midnightblue" points="761.08,-16.64 750.58,-18.1 759.7,-23.5 761.08,-16.64"/>
</g>
<!-- Node30&#45;&gt;Node27 -->
<g id="edge41" class="edge">
<title>Node30&#45;&gt;Node27</title>
<path fill="none" stroke="midnightblue" d="M1033.06,-57.38C1036.09,-56.9 1039.09,-56.44 1042,-56 1160.84,-38.12 1191.13,-37.71 1310,-20 1316.94,-18.97 1324.37,-17.79 1331.45,-16.65"/>
<polygon fill="midnightblue" stroke="midnightblue" points="1332.17,-20.08 1341.47,-15 1331.04,-13.17 1332.17,-20.08"/>
</g>
<!-- Node30&#45;&gt;Node28 -->
<g id="edge36" class="edge">
<title>Node30&#45;&gt;Node28</title>
<path fill="none" stroke="midnightblue" d="M1033.3,-56.62C1093.25,-45.54 1197.36,-26.28 1249.04,-16.72"/>
<polygon fill="midnightblue" stroke="midnightblue" points="1249.75,-20.15 1258.95,-14.89 1248.48,-13.27 1249.75,-20.15"/>
</g>
<!-- Node31 -->
<g id="node31" class="node">
<title>Node31</title>
<g id="a_node31"><a xlink:title=" ">
<polygon fill="white" stroke="#bfbfbf" points="920,-0.5 920,-19.5 984,-19.5 984,-0.5 920,-0.5"/>
<text text-anchor="middle" x="952" y="-7.5" font-family="Helvetica,sans-Serif" font-size="10.00">algorithm</text>
</a>
</g>
</g>
<!-- Node30&#45;&gt;Node31 -->
<g id="edge35" class="edge">
<title>Node30&#45;&gt;Node31</title>
<path fill="none" stroke="midnightblue" d="M982.06,-56.08C977.02,-48.53 969.66,-37.49 963.49,-28.23"/>
<polygon fill="midnightblue" stroke="midnightblue" points="966.29,-26.13 957.83,-19.75 960.47,-30.01 966.29,-26.13"/>
</g>
<!-- Node32 -->
<g id="node32" class="node">
<title>Node32</title>
<g id="a_node32"><a xlink:title=" ">
<polygon fill="white" stroke="#bfbfbf" points="1002.5,-0.5 1002.5,-19.5 1051.5,-19.5 1051.5,-0.5 1002.5,-0.5"/>
<text text-anchor="middle" x="1027" y="-7.5" font-family="Helvetica,sans-Serif" font-size="10.00">cctype</text>
</a>
</g>
</g>
<!-- Node30&#45;&gt;Node32 -->
<g id="edge37" class="edge">
<title>Node30&#45;&gt;Node32</title>
<path fill="none" stroke="midnightblue" d="M994.44,-56.08C999.95,-48.46 1008.03,-37.26 1014.76,-27.94"/>
<polygon fill="midnightblue" stroke="midnightblue" points="1017.66,-29.91 1020.68,-19.75 1011.99,-25.81 1017.66,-29.91"/>
</g>
<!-- Node30&#45;&gt;Node33 -->
<g id="edge38" class="edge">
<title>Node30&#45;&gt;Node33</title>
<path fill="none" stroke="midnightblue" d="M1021.12,-56.44C1060.63,-46.23 1126.24,-29.28 1165.18,-19.22"/>
<polygon fill="midnightblue" stroke="midnightblue" points="1166.13,-22.59 1174.94,-16.7 1164.38,-15.81 1166.13,-22.59"/>
</g>
<!-- Node34 -->
<g id="node34" class="node">
<title>Node34</title>
<g id="a_node34"><a xlink:title=" ">
<polygon fill="white" stroke="#bfbfbf" points="1069.5,-0.5 1069.5,-19.5 1142.5,-19.5 1142.5,-0.5 1069.5,-0.5"/>
<text text-anchor="middle" x="1106" y="-7.5" font-family="Helvetica,sans-Serif" font-size="10.00">string_view</text>
</a>
</g>
</g>
<!-- Node30&#45;&gt;Node34 -->
<g id="edge39" class="edge">
<title>Node30&#45;&gt;Node34</title>
<path fill="none" stroke="midnightblue" d="M1006.7,-56.44C1025.94,-47.64 1056.15,-33.81 1078.2,-23.72"/>
<polygon fill="midnightblue" stroke="midnightblue" points="1079.75,-26.86 1087.39,-19.52 1076.84,-20.5 1079.75,-26.86"/>
</g>
<!-- Node35&#45;&gt;Node17 -->
<g id="edge52" class="edge">
<title>Node35&#45;&gt;Node17</title>
<path fill="none" stroke="midnightblue" d="M1156.68,-116.18C1106.74,-109.06 1012.78,-94.55 934,-76 868.52,-60.58 793.66,-36.9 750.89,-22.78"/>
<polygon fill="midnightblue" stroke="midnightblue" points="751.84,-19.41 741.25,-19.58 749.63,-26.05 751.84,-19.41"/>
</g>
<!-- Node35&#45;&gt;Node27 -->
<g id="edge53" class="edge">
<title>Node35&#45;&gt;Node27</title>
<path fill="none" stroke="midnightblue" d="M1226.09,-112.49C1250.39,-105.34 1283.04,-93.46 1308,-76 1326.56,-63.01 1343.05,-42.74 1353.46,-28.3"/>
<polygon fill="midnightblue" stroke="midnightblue" points="1356.55,-29.98 1359.38,-19.78 1350.8,-25.99 1356.55,-29.98"/>
</g>
<!-- Node35&#45;&gt;Node30 -->
<g id="edge43" class="edge">
<title>Node35&#45;&gt;Node30</title>
<path fill="none" stroke="midnightblue" d="M1159.68,-112.44C1124.61,-103.16 1068.5,-88.31 1030.04,-78.13"/>
<polygon fill="midnightblue" stroke="midnightblue" points="1030.74,-74.69 1020.17,-75.52 1028.94,-81.46 1030.74,-74.69"/>
</g>
<!-- Node36 -->
<g id="node36" class="node">
<title>Node36</title>
<g id="a_node36"><a xlink:href="serialized_8h.html" target="_top" xlink:title=" ">
<polygon fill="white" stroke="black" points="1225.5,-56.5 1225.5,-75.5 1298.5,-75.5 1298.5,-56.5 1225.5,-56.5"/>
<text text-anchor="middle" x="1262" y="-63.5" font-family="Helvetica,sans-Serif" font-size="10.00">serialized.h</text>
</a>
</g>
</g>
<!-- Node35&#45;&gt;Node36 -->
<g id="edge44" class="edge">
<title>Node35&#45;&gt;Node36</title>
<path fill="none" stroke="midnightblue" d="M1203.25,-112.32C1213.8,-104.18 1229.8,-91.84 1242.44,-82.09"/>
<polygon fill="midnightblue" stroke="midnightblue" points="1244.77,-84.71 1250.55,-75.83 1240.49,-79.17 1244.77,-84.71"/>
</g>
<!-- Node38 -->
<g id="node38" class="node">
<title>Node38</title>
<g id="a_node38"><a xlink:title=" ">
<polygon fill="white" stroke="#bfbfbf" points="1051,-56.5 1051,-75.5 1109,-75.5 1109,-56.5 1051,-56.5"/>
<text text-anchor="middle" x="1080" y="-63.5" font-family="Helvetica,sans-Serif" font-size="10.00">memory</text>
</a>
</g>
</g>
<!-- Node35&#45;&gt;Node38 -->
<g id="edge50" class="edge">
<title>Node35&#45;&gt;Node38</title>
<path fill="none" stroke="midnightblue" d="M1174.01,-112.32C1155.96,-103.62 1127.95,-90.12 1107.2,-80.11"/>
<polygon fill="midnightblue" stroke="midnightblue" points="1108.48,-76.84 1097.95,-75.65 1105.44,-83.15 1108.48,-76.84"/>
</g>
<!-- Node39 -->
<g id="node39" class="node">
<title>Node39</title>
<g id="a_node39"><a xlink:title=" ">
<polygon fill="white" stroke="#bfbfbf" points="1127.5,-56.5 1127.5,-75.5 1168.5,-75.5 1168.5,-56.5 1127.5,-56.5"/>
<text text-anchor="middle" x="1148" y="-63.5" font-family="Helvetica,sans-Serif" font-size="10.00">tuple</text>
</a>
</g>
</g>
<!-- Node35&#45;&gt;Node39 -->
<g id="edge51" class="edge">
<title>Node35&#45;&gt;Node39</title>
<path fill="none" stroke="midnightblue" d="M1184.73,-112.08C1178.46,-104.38 1169.21,-93.03 1161.57,-83.65"/>
<polygon fill="midnightblue" stroke="midnightblue" points="1164.16,-81.29 1155.13,-75.75 1158.73,-85.71 1164.16,-81.29"/>
</g>
<!-- Node36&#45;&gt;Node21 -->
<g id="edge46" class="edge">
<title>Node36&#45;&gt;Node21</title>
<path fill="none" stroke="midnightblue" d="M1225.3,-60.91C1151.49,-52.6 986.42,-33.5 912.04,-19.93"/>
<polygon fill="midnightblue" stroke="midnightblue" points="912.64,-16.48 902.17,-18.06 911.34,-23.36 912.64,-16.48"/>
</g>
<!-- Node36&#45;&gt;Node26 -->
<g id="edge45" class="edge">
<title>Node36&#45;&gt;Node26</title>
<path fill="none" stroke="midnightblue" d="M1298.65,-63.42C1375.32,-59.7 1558.32,-48.55 1720.68,-19.96"/>
<polygon fill="midnightblue" stroke="midnightblue" points="1721.62,-23.35 1730.85,-18.14 1720.39,-16.46 1721.62,-23.35"/>
</g>
<!-- Node36&#45;&gt;Node27 -->
<g id="edge49" class="edge">
<title>Node36&#45;&gt;Node27</title>
<path fill="none" stroke="midnightblue" d="M1278.55,-56.32C1294.99,-47.7 1320.43,-34.36 1339.47,-24.39"/>
<polygon fill="midnightblue" stroke="midnightblue" points="1341.26,-27.4 1348.49,-19.65 1338.01,-21.2 1341.26,-27.4"/>
</g>
<!-- Node36&#45;&gt;Node33 -->
<g id="edge48" class="edge">
<title>Node36&#45;&gt;Node33</title>
<path fill="none" stroke="midnightblue" d="M1251.56,-56.32C1241.85,-48.26 1227.18,-36.08 1215.5,-26.37"/>
<polygon fill="midnightblue" stroke="midnightblue" points="1217.56,-23.53 1207.63,-19.83 1213.09,-28.92 1217.56,-23.53"/>
</g>
<!-- Node36&#45;&gt;Node37 -->
<g id="edge47" class="edge">
<title>Node36&#45;&gt;Node37</title>
<path fill="none" stroke="midnightblue" d="M1225.3,-61.06C1133.13,-51.18 896,-25.75 843.89,-19.65"/>
<polygon fill="midnightblue" stroke="midnightblue" points="844.31,-16.17 833.95,-18.4 843.44,-23.12 844.31,-16.17"/>
</g>
<!-- Node43&#45;&gt;Node22 -->
<g id="edge72" class="edge">
<title>Node43&#45;&gt;Node22</title>
<path fill="none" stroke="midnightblue" d="M1436.71,-392.3C1400.94,-358.8 1271.86,-237.88 1225.62,-194.57"/>
<polygon fill="midnightblue" stroke="midnightblue" points="1227.92,-191.92 1218.23,-187.64 1223.13,-197.03 1227.92,-191.92"/>
</g>
<!-- Node43&#45;&gt;Node27 -->
<g id="edge74" class="edge">
<title>Node43&#45;&gt;Node27</title>
<path fill="none" stroke="midnightblue" d="M1449.07,-392.24C1454.04,-378.98 1464.82,-353.51 1480,-336 1497.94,-315.31 1513.54,-321.88 1530,-300 1577.66,-236.64 1566.39,-207.69 1590,-132 1600.25,-99.13 1626.99,-82.49 1605,-56 1579.2,-24.92 1458.83,-15.18 1398.97,-12.23"/>
<polygon fill="midnightblue" stroke="midnightblue" points="1399.03,-8.72 1388.88,-11.76 1398.71,-15.72 1399.03,-8.72"/>
</g>
<!-- Node44 -->
<g id="node44" class="node">
<title>Node44</title>
<g id="a_node44"><a xlink:href="oversized_8h.html" target="_top" xlink:title=" ">
<polygon fill="white" stroke="black" points="1249.5,-336.5 1249.5,-355.5 1336.5,-355.5 1336.5,-336.5 1249.5,-336.5"/>
<text text-anchor="middle" x="1293" y="-343.5" font-family="Helvetica,sans-Serif" font-size="10.00">ds/oversized.h</text>
</a>
</g>
</g>
<!-- Node43&#45;&gt;Node44 -->
<g id="edge66" class="edge">
<title>Node43&#45;&gt;Node44</title>
<path fill="none" stroke="midnightblue" d="M1421.76,-392.44C1396.13,-383.4 1355.51,-369.06 1326.76,-358.92"/>
<polygon fill="midnightblue" stroke="midnightblue" points="1327.72,-355.54 1317.13,-355.52 1325.39,-362.15 1327.72,-355.54"/>
</g>
<!-- Node43&#45;&gt;Node46 -->
<g id="edge73" class="edge">
<title>Node43&#45;&gt;Node46</title>
<path fill="none" stroke="midnightblue" d="M1456.93,-392.32C1467.17,-384.18 1482.72,-371.84 1495,-362.09"/>
<polygon fill="midnightblue" stroke="midnightblue" points="1497.22,-364.79 1502.88,-355.83 1492.87,-359.31 1497.22,-364.79"/>
</g>
<!-- Node44&#45;&gt;Node2 -->
<g id="edge67" class="edge">
<title>Node44&#45;&gt;Node2</title>
<path fill="none" stroke="midnightblue" d="M1249.3,-341.62C1164.48,-334.9 971.65,-318.89 810,-300 807.65,-299.73 805.25,-299.43 802.83,-299.13"/>
<polygon fill="midnightblue" stroke="midnightblue" points="803.17,-295.65 792.8,-297.84 802.27,-302.59 803.17,-295.65"/>
</g>
<!-- Node44&#45;&gt;Node5 -->
<g id="edge70" class="edge">
<title>Node44&#45;&gt;Node5</title>
<path fill="none" stroke="midnightblue" d="M1254.82,-336.44C1218.22,-328 1161.5,-314.32 1113,-300 1039.13,-278.2 1019.48,-275.05 949,-244 909.6,-226.64 800.09,-164.42 751.61,-136.6"/>
<polygon fill="midnightblue" stroke="midnightblue" points="753.19,-133.47 742.77,-131.52 749.7,-139.54 753.19,-133.47"/>
</g>
<!-- Node44&#45;&gt;Node18 -->
<g id="edge68" class="edge">
<title>Node44&#45;&gt;Node18</title>
<path fill="none" stroke="midnightblue" d="M1269.69,-336.37C1217.1,-316.89 1089.09,-269.48 1028.64,-247.09"/>
<polygon fill="midnightblue" stroke="midnightblue" points="1029.79,-243.78 1019.2,-243.59 1027.36,-250.35 1029.79,-243.78"/>
</g>
<!-- Node44&#45;&gt;Node36 -->
<g id="edge69" class="edge">
<title>Node44&#45;&gt;Node36</title>
<path fill="none" stroke="midnightblue" d="M1292.04,-336.38C1287.73,-297.7 1270.12,-139.79 1264.06,-85.47"/>
<polygon fill="midnightblue" stroke="midnightblue" points="1267.54,-85.07 1262.95,-75.52 1260.58,-85.85 1267.54,-85.07"/>
</g>
<!-- Node44&#45;&gt;Node45 -->
<g id="edge71" class="edge">
<title>Node44&#45;&gt;Node45</title>
<path fill="none" stroke="midnightblue" d="M1321.68,-336.44C1352.53,-327.24 1401.73,-312.56 1435.83,-302.39"/>
<polygon fill="midnightblue" stroke="midnightblue" points="1436.87,-305.73 1445.45,-299.52 1434.87,-299.02 1436.87,-305.73"/>
</g>
</g>
</svg>
