<?xml version="1.0" encoding="UTF-8" standalone="no"?>
<!DOCTYPE svg PUBLIC "-//W3C//DTD SVG 1.1//EN"
 "http://www.w3.org/Graphics/SVG/1.1/DTD/svg11.dtd">
<!-- Generated by graphviz version 2.43.0 (0)
 -->
<!-- Title: src/quic/quic_endpoint.h Pages: 1 -->
<svg width="1994pt" height="364pt"
 viewBox="0.00 0.00 1993.74 364.00" xmlns="http://www.w3.org/2000/svg" xmlns:xlink="http://www.w3.org/1999/xlink">
<g id="graph0" class="graph" transform="scale(1 1) rotate(0) translate(4 360)">
<title>src/quic/quic_endpoint.h</title>
<polygon fill="white" stroke="transparent" points="-4,4 -4,-360 1989.74,-360 1989.74,4 -4,4"/>
<!-- Node1 -->
<g id="node1" class="node">
<title>Node1</title>
<g id="a_node1"><a xlink:title=" ">
<polygon fill="#bfbfbf" stroke="black" points="864.74,-336.5 864.74,-355.5 998.74,-355.5 998.74,-336.5 864.74,-336.5"/>
<text text-anchor="middle" x="931.74" y="-343.5" font-family="Helvetica,sans-Serif" font-size="10.00">src/quic/quic_endpoint.h</text>
</a>
</g>
</g>
<!-- Node2 -->
<g id="node2" class="node">
<title>Node2</title>
<g id="a_node2"><a xlink:href="logger_8h.html" target="_top" xlink:title=" ">
<polygon fill="white" stroke="black" points="613.24,-168.5 613.24,-187.5 700.24,-187.5 700.24,-168.5 613.24,-168.5"/>
<text text-anchor="middle" x="656.74" y="-175.5" font-family="Helvetica,sans-Serif" font-size="10.00">ccf/ds/logger.h</text>
</a>
</g>
</g>
<!-- Node1&#45;&gt;Node2 -->
<g id="edge1" class="edge">
<title>Node1&#45;&gt;Node2</title>
<path fill="none" stroke="midnightblue" d="M869.27,-336.45C811.08,-325.21 725.97,-299.87 675.74,-244 664.32,-231.31 659.75,-212.1 657.92,-197.86"/>
<polygon fill="midnightblue" stroke="midnightblue" points="661.39,-197.34 656.97,-187.72 654.42,-198 661.39,-197.34"/>
</g>
<!-- Node17 -->
<g id="node17" class="node">
<title>Node17</title>
<g id="a_node17"><a xlink:href="messaging_8h.html" target="_top" xlink:title=" ">
<polygon fill="white" stroke="black" points="363.24,-280.5 363.24,-299.5 456.24,-299.5 456.24,-280.5 363.24,-280.5"/>
<text text-anchor="middle" x="409.74" y="-287.5" font-family="Helvetica,sans-Serif" font-size="10.00">ds/messaging.h</text>
</a>
</g>
</g>
<!-- Node1&#45;&gt;Node17 -->
<g id="edge18" class="edge">
<title>Node1&#45;&gt;Node17</title>
<path fill="none" stroke="midnightblue" d="M864.56,-338.05C760.82,-327.32 563.46,-306.9 466.45,-296.87"/>
<polygon fill="midnightblue" stroke="midnightblue" points="466.56,-293.36 456.25,-295.81 465.84,-300.32 466.56,-293.36"/>
</g>
<!-- Node18 -->
<g id="node18" class="node">
<title>Node18</title>
<g id="a_node18"><a xlink:href="ring__buffer_8h.html" target="_top" xlink:title=" ">
<polygon fill="white" stroke="black" points="48.24,-224.5 48.24,-243.5 125.24,-243.5 125.24,-224.5 48.24,-224.5"/>
<text text-anchor="middle" x="86.74" y="-231.5" font-family="Helvetica,sans-Serif" font-size="10.00">ring_buffer.h</text>
</a>
</g>
</g>
<!-- Node1&#45;&gt;Node18 -->
<g id="edge68" class="edge">
<title>Node1&#45;&gt;Node18</title>
<path fill="none" stroke="midnightblue" d="M864.57,-343.28C756.39,-339.72 537.12,-329.26 353.74,-300 271.14,-286.82 176.46,-261.21 124.97,-246.37"/>
<polygon fill="midnightblue" stroke="midnightblue" points="125.85,-242.98 115.27,-243.56 123.9,-249.71 125.85,-242.98"/>
</g>
<!-- Node43 -->
<g id="node43" class="node">
<title>Node43</title>
<g id="a_node43"><a xlink:href="pending__io_8h.html" target="_top" xlink:title=" ">
<polygon fill="white" stroke="black" points="1007.24,-280.5 1007.24,-299.5 1100.24,-299.5 1100.24,-280.5 1007.24,-280.5"/>
<text text-anchor="middle" x="1053.74" y="-287.5" font-family="Helvetica,sans-Serif" font-size="10.00">ds/pending_io.h</text>
</a>
</g>
</g>
<!-- Node1&#45;&gt;Node43 -->
<g id="edge66" class="edge">
<title>Node1&#45;&gt;Node43</title>
<path fill="none" stroke="midnightblue" d="M951.07,-336.44C971.06,-327.6 1002.48,-313.69 1025.3,-303.59"/>
<polygon fill="midnightblue" stroke="midnightblue" points="1026.77,-306.76 1034.5,-299.52 1023.93,-300.36 1026.77,-306.76"/>
</g>
<!-- Node45 -->
<g id="node45" class="node">
<title>Node45</title>
<g id="a_node45"><a xlink:href="thread__messaging_8h.html" target="_top" xlink:title=" ">
<polygon fill="white" stroke="black" points="820.74,-280.5 820.74,-299.5 950.74,-299.5 950.74,-280.5 820.74,-280.5"/>
<text text-anchor="middle" x="885.74" y="-287.5" font-family="Helvetica,sans-Serif" font-size="10.00">ds/thread_messaging.h</text>
</a>
</g>
</g>
<!-- Node1&#45;&gt;Node45 -->
<g id="edge69" class="edge">
<title>Node1&#45;&gt;Node45</title>
<path fill="none" stroke="midnightblue" d="M924.14,-336.08C917.51,-328.3 907.72,-316.8 899.68,-307.37"/>
<polygon fill="midnightblue" stroke="midnightblue" points="902.34,-305.09 893.19,-299.75 897.01,-309.63 902.34,-305.09"/>
</g>
<!-- Node48 -->
<g id="node48" class="node">
<title>Node48</title>
<g id="a_node48"><a xlink:href="src_2enclave_2endpoint_8h.html" target="_top" xlink:title=" ">
<polygon fill="white" stroke="black" points="1118.74,-280.5 1118.74,-299.5 1228.74,-299.5 1228.74,-280.5 1118.74,-280.5"/>
<text text-anchor="middle" x="1173.74" y="-287.5" font-family="Helvetica,sans-Serif" font-size="10.00">enclave/endpoint.h</text>
</a>
</g>
</g>
<!-- Node1&#45;&gt;Node48 -->
<g id="edge77" class="edge">
<title>Node1&#45;&gt;Node48</title>
<path fill="none" stroke="midnightblue" d="M970.08,-336.44C1012.21,-327.04 1079.94,-311.93 1125.61,-301.74"/>
<polygon fill="midnightblue" stroke="midnightblue" points="1126.57,-305.11 1135.57,-299.52 1125.05,-298.28 1126.57,-305.11"/>
</g>
<!-- Node49 -->
<g id="node49" class="node">
<title>Node49</title>
<g id="a_node49"><a xlink:href="quic_2msg__types_8h.html" target="_top" xlink:title=" ">
<polygon fill="white" stroke="black" points="1014.74,-224.5 1014.74,-243.5 1116.74,-243.5 1116.74,-224.5 1014.74,-224.5"/>
<text text-anchor="middle" x="1065.74" y="-231.5" font-family="Helvetica,sans-Serif" font-size="10.00">quic/msg_types.h</text>
</a>
</g>
</g>
<!-- Node1&#45;&gt;Node49 -->
<g id="edge80" class="edge">
<title>Node1&#45;&gt;Node49</title>
<path fill="none" stroke="midnightblue" d="M939.95,-336.07C952.15,-323.04 976.07,-298.36 998.74,-280 1012.71,-268.68 1029.52,-257.39 1042.81,-248.96"/>
<polygon fill="midnightblue" stroke="midnightblue" points="1044.74,-251.88 1051.36,-243.61 1041.03,-245.94 1044.74,-251.88"/>
</g>
<!-- Node50 -->
<g id="node50" class="node">
<title>Node50</title>
<g id="a_node50"><a xlink:title=" ">
<polygon fill="white" stroke="#bfbfbf" points="1247.24,-280.5 1247.24,-299.5 1312.24,-299.5 1312.24,-280.5 1247.24,-280.5"/>
<text text-anchor="middle" x="1279.74" y="-287.5" font-family="Helvetica,sans-Serif" font-size="10.00">exception</text>
</a>
</g>
</g>
<!-- Node1&#45;&gt;Node50 -->
<g id="edge82" class="edge">
<title>Node1&#45;&gt;Node50</title>
<path fill="none" stroke="midnightblue" d="M998.2,-336.5C1058.07,-328.54 1148.73,-315.79 1237.27,-299.98"/>
<polygon fill="midnightblue" stroke="midnightblue" points="1238,-303.4 1247.22,-298.19 1236.76,-296.51 1238,-303.4"/>
</g>
<!-- Node3 -->
<g id="node3" class="node">
<title>Node3</title>
<g id="a_node3"><a xlink:href="enum__formatter_8h.html" target="_top" xlink:title=" ">
<polygon fill="white" stroke="black" points="634.74,-112.5 634.74,-131.5 770.74,-131.5 770.74,-112.5 634.74,-112.5"/>
<text text-anchor="middle" x="702.74" y="-119.5" font-family="Helvetica,sans-Serif" font-size="10.00">ccf/ds/enum_formatter.h</text>
</a>
</g>
</g>
<!-- Node2&#45;&gt;Node3 -->
<g id="edge2" class="edge">
<title>Node2&#45;&gt;Node3</title>
<path fill="none" stroke="midnightblue" d="M664.33,-168.08C670.96,-160.3 680.76,-148.8 688.79,-139.37"/>
<polygon fill="midnightblue" stroke="midnightblue" points="691.46,-141.63 695.28,-131.75 686.13,-137.09 691.46,-141.63"/>
</g>
<!-- Node4 -->
<g id="node4" class="node">
<title>Node4</title>
<g id="a_node4"><a xlink:title=" ">
<polygon fill="white" stroke="#bfbfbf" points="663.24,-56.5 663.24,-75.5 742.24,-75.5 742.24,-56.5 663.24,-56.5"/>
<text text-anchor="middle" x="702.74" y="-63.5" font-family="Helvetica,sans-Serif" font-size="10.00">fmt/format.h</text>
</a>
</g>
</g>
<!-- Node2&#45;&gt;Node4 -->
<g id="edge12" class="edge">
<title>Node2&#45;&gt;Node4</title>
<path fill="none" stroke="midnightblue" d="M612.97,-176.82C497.86,-175.6 198.78,-167.15 248.74,-112 262.18,-97.16 537.58,-77.69 652.77,-70.16"/>
<polygon fill="midnightblue" stroke="midnightblue" points="653.33,-73.63 663.08,-69.49 652.87,-66.65 653.33,-73.63"/>
</g>
<!-- Node5 -->
<g id="node5" class="node">
<title>Node5</title>
<g id="a_node5"><a xlink:href="thread__ids_8h.html" target="_top" xlink:title=" ">
<polygon fill="white" stroke="black" points="788.74,-112.5 788.74,-131.5 896.74,-131.5 896.74,-112.5 788.74,-112.5"/>
<text text-anchor="middle" x="842.74" y="-119.5" font-family="Helvetica,sans-Serif" font-size="10.00">ccf/ds/thread_ids.h</text>
</a>
</g>
</g>
<!-- Node2&#45;&gt;Node5 -->
<g id="edge4" class="edge">
<title>Node2&#45;&gt;Node5</title>
<path fill="none" stroke="midnightblue" d="M686.21,-168.44C717.91,-159.24 768.47,-144.56 803.51,-134.39"/>
<polygon fill="midnightblue" stroke="midnightblue" points="804.77,-137.67 813.4,-131.52 802.82,-130.94 804.77,-137.67"/>
</g>
<!-- Node11 -->
<g id="node11" class="node">
<title>Node11</title>
<g id="a_node11"><a xlink:title=" ">
<polygon fill="white" stroke="#bfbfbf" points="258.24,-112.5 258.24,-131.5 337.24,-131.5 337.24,-112.5 258.24,-112.5"/>
<text text-anchor="middle" x="297.74" y="-119.5" font-family="Helvetica,sans-Serif" font-size="10.00">fmt/chrono.h</text>
</a>
</g>
</g>
<!-- Node2&#45;&gt;Node11 -->
<g id="edge11" class="edge">
<title>Node2&#45;&gt;Node11</title>
<path fill="none" stroke="midnightblue" d="M613.13,-171.27C554.82,-163.49 448.03,-148.78 347.31,-132.21"/>
<polygon fill="midnightblue" stroke="midnightblue" points="347.7,-128.73 337.27,-130.55 346.56,-135.63 347.7,-128.73"/>
</g>
<!-- Node12 -->
<g id="node12" class="node">
<title>Node12</title>
<g id="a_node12"><a xlink:title=" ">
<polygon fill="white" stroke="#bfbfbf" points="354.74,-112.5 354.74,-131.5 414.74,-131.5 414.74,-112.5 354.74,-112.5"/>
<text text-anchor="middle" x="384.74" y="-119.5" font-family="Helvetica,sans-Serif" font-size="10.00">iostream</text>
</a>
</g>
</g>
<!-- Node2&#45;&gt;Node12 -->
<g id="edge13" class="edge">
<title>Node2&#45;&gt;Node12</title>
<path fill="none" stroke="midnightblue" d="M612.84,-169.01C568.04,-160.75 496.25,-147.21 424.99,-132.21"/>
<polygon fill="midnightblue" stroke="midnightblue" points="425.45,-128.73 414.95,-130.08 424.01,-135.58 425.45,-128.73"/>
</g>
<!-- Node13 -->
<g id="node13" class="node">
<title>Node13</title>
<g id="a_node13"><a xlink:title=" ">
<polygon fill="white" stroke="#bfbfbf" points="432.74,-112.5 432.74,-131.5 542.74,-131.5 542.74,-112.5 432.74,-112.5"/>
<text text-anchor="middle" x="487.74" y="-119.5" font-family="Helvetica,sans-Serif" font-size="10.00">nlohmann/json.hpp</text>
</a>
</g>
</g>
<!-- Node2&#45;&gt;Node13 -->
<g id="edge14" class="edge">
<title>Node2&#45;&gt;Node13</title>
<path fill="none" stroke="midnightblue" d="M629.96,-168.44C601.4,-159.32 556,-144.81 524.2,-134.65"/>
<polygon fill="midnightblue" stroke="midnightblue" points="524.98,-131.23 514.39,-131.52 522.85,-137.89 524.98,-131.23"/>
</g>
<!-- Node14 -->
<g id="node14" class="node">
<title>Node14</title>
<g id="a_node14"><a xlink:title=" ">
<polygon fill="white" stroke="#bfbfbf" points="914.74,-112.5 914.74,-131.5 970.74,-131.5 970.74,-112.5 914.74,-112.5"/>
<text text-anchor="middle" x="942.74" y="-119.5" font-family="Helvetica,sans-Serif" font-size="10.00">optional</text>
</a>
</g>
</g>
<!-- Node2&#45;&gt;Node14 -->
<g id="edge15" class="edge">
<title>Node2&#45;&gt;Node14</title>
<path fill="none" stroke="midnightblue" d="M700.52,-169.9C748.33,-161.97 827.36,-148.33 904.6,-132.14"/>
<polygon fill="midnightblue" stroke="midnightblue" points="905.43,-135.55 914.49,-130.05 903.99,-128.7 905.43,-135.55"/>
</g>
<!-- Node15 -->
<g id="node15" class="node">
<title>Node15</title>
<g id="a_node15"><a xlink:title=" ">
<polygon fill="white" stroke="#bfbfbf" points="560.74,-112.5 560.74,-131.5 616.74,-131.5 616.74,-112.5 560.74,-112.5"/>
<text text-anchor="middle" x="588.74" y="-119.5" font-family="Helvetica,sans-Serif" font-size="10.00">sstream</text>
</a>
</g>
</g>
<!-- Node2&#45;&gt;Node15 -->
<g id="edge16" class="edge">
<title>Node2&#45;&gt;Node15</title>
<path fill="none" stroke="midnightblue" d="M645.81,-168.32C635.56,-160.18 620.02,-147.84 607.74,-138.09"/>
<polygon fill="midnightblue" stroke="midnightblue" points="609.87,-135.31 599.86,-131.83 605.52,-140.79 609.87,-135.31"/>
</g>
<!-- Node16 -->
<g id="node16" class="node">
<title>Node16</title>
<g id="a_node16"><a xlink:title=" ">
<polygon fill="white" stroke="#bfbfbf" points="1032.24,-0.5 1032.24,-19.5 1101.24,-19.5 1101.24,-0.5 1032.24,-0.5"/>
<text text-anchor="middle" x="1066.74" y="-7.5" font-family="Helvetica,sans-Serif" font-size="10.00">type_traits</text>
</a>
</g>
</g>
<!-- Node2&#45;&gt;Node16 -->
<g id="edge17" class="edge">
<title>Node2&#45;&gt;Node16</title>
<path fill="none" stroke="midnightblue" d="M700.28,-175.14C777.25,-171.18 933.56,-159.86 979.74,-132 1020.22,-107.57 1047.24,-56.36 1059.39,-29.05"/>
<polygon fill="midnightblue" stroke="midnightblue" points="1062.73,-30.13 1063.43,-19.56 1056.29,-27.39 1062.73,-30.13"/>
</g>
<!-- Node3&#45;&gt;Node4 -->
<g id="edge3" class="edge">
<title>Node3&#45;&gt;Node4</title>
<path fill="none" stroke="midnightblue" d="M702.74,-112.08C702.74,-105.01 702.74,-94.86 702.74,-85.99"/>
<polygon fill="midnightblue" stroke="midnightblue" points="706.24,-85.75 702.74,-75.75 699.24,-85.75 706.24,-85.75"/>
</g>
<!-- Node5&#45;&gt;Node4 -->
<g id="edge5" class="edge">
<title>Node5&#45;&gt;Node4</title>
<path fill="none" stroke="midnightblue" d="M820.55,-112.44C797.31,-103.48 760.59,-89.31 734.32,-79.18"/>
<polygon fill="midnightblue" stroke="midnightblue" points="735.41,-75.85 724.82,-75.52 732.89,-82.38 735.41,-75.85"/>
</g>
<!-- Node6 -->
<g id="node6" class="node">
<title>Node6</title>
<g id="a_node6"><a xlink:title=" ">
<polygon fill="white" stroke="#bfbfbf" points="826.74,-56.5 826.74,-75.5 912.74,-75.5 912.74,-56.5 826.74,-56.5"/>
<text text-anchor="middle" x="869.74" y="-63.5" font-family="Helvetica,sans-Serif" font-size="10.00">fmt/ostream.h</text>
</a>
</g>
</g>
<!-- Node5&#45;&gt;Node6 -->
<g id="edge6" class="edge">
<title>Node5&#45;&gt;Node6</title>
<path fill="none" stroke="midnightblue" d="M847.2,-112.08C850.89,-104.69 856.26,-93.95 860.83,-84.81"/>
<polygon fill="midnightblue" stroke="midnightblue" points="864.02,-86.26 865.36,-75.75 857.76,-83.13 864.02,-86.26"/>
</g>
<!-- Node7 -->
<g id="node7" class="node">
<title>Node7</title>
<g id="a_node7"><a xlink:title=" ">
<polygon fill="white" stroke="#bfbfbf" points="931.24,-56.5 931.24,-75.5 992.24,-75.5 992.24,-56.5 931.24,-56.5"/>
<text text-anchor="middle" x="961.74" y="-63.5" font-family="Helvetica,sans-Serif" font-size="10.00">fmt/std.h</text>
</a>
</g>
</g>
<!-- Node5&#45;&gt;Node7 -->
<g id="edge7" class="edge">
<title>Node5&#45;&gt;Node7</title>
<path fill="none" stroke="midnightblue" d="M861.59,-112.44C881,-103.64 911.47,-89.81 933.7,-79.72"/>
<polygon fill="midnightblue" stroke="midnightblue" points="935.31,-82.84 942.97,-75.52 932.42,-76.46 935.31,-82.84"/>
</g>
<!-- Node8 -->
<g id="node8" class="node">
<title>Node8</title>
<g id="a_node8"><a xlink:title=" ">
<polygon fill="white" stroke="#bfbfbf" points="272.74,-56.5 272.74,-75.5 316.74,-75.5 316.74,-56.5 272.74,-56.5"/>
<text text-anchor="middle" x="294.74" y="-63.5" font-family="Helvetica,sans-Serif" font-size="10.00">limits</text>
</a>
</g>
</g>
<!-- Node5&#45;&gt;Node8 -->
<g id="edge8" class="edge">
<title>Node5&#45;&gt;Node8</title>
<path fill="none" stroke="midnightblue" d="M788.46,-113.07C785.51,-112.7 782.59,-112.34 779.74,-112 609.69,-91.98 405.23,-75.48 327.17,-69.45"/>
<polygon fill="midnightblue" stroke="midnightblue" points="327.25,-65.95 317.01,-68.67 326.72,-72.93 327.25,-65.95"/>
</g>
<!-- Node9 -->
<g id="node9" class="node">
<title>Node9</title>
<g id="a_node9"><a xlink:title=" ">
<polygon fill="white" stroke="#bfbfbf" points="515.74,-56.5 515.74,-75.5 553.74,-75.5 553.74,-56.5 515.74,-56.5"/>
<text text-anchor="middle" x="534.74" y="-63.5" font-family="Helvetica,sans-Serif" font-size="10.00">map</text>
</a>
</g>
</g>
<!-- Node5&#45;&gt;Node9 -->
<g id="edge9" class="edge">
<title>Node5&#45;&gt;Node9</title>
<path fill="none" stroke="midnightblue" d="M793.93,-112.44C729.19,-101.09 616.92,-81.41 563.97,-72.13"/>
<polygon fill="midnightblue" stroke="midnightblue" points="564.36,-68.64 553.91,-70.36 563.15,-75.54 564.36,-68.64"/>
</g>
<!-- Node10 -->
<g id="node10" class="node">
<title>Node10</title>
<g id="a_node10"><a xlink:title=" ">
<polygon fill="white" stroke="#bfbfbf" points="760.74,-56.5 760.74,-75.5 808.74,-75.5 808.74,-56.5 760.74,-56.5"/>
<text text-anchor="middle" x="784.74" y="-63.5" font-family="Helvetica,sans-Serif" font-size="10.00">thread</text>
</a>
</g>
</g>
<!-- Node5&#45;&gt;Node10 -->
<g id="edge10" class="edge">
<title>Node5&#45;&gt;Node10</title>
<path fill="none" stroke="midnightblue" d="M833.42,-112.32C824.84,-104.34 811.92,-92.31 801.55,-82.65"/>
<polygon fill="midnightblue" stroke="midnightblue" points="803.93,-80.09 794.22,-75.83 799.16,-85.21 803.93,-80.09"/>
</g>
<!-- Node17&#45;&gt;Node2 -->
<g id="edge19" class="edge">
<title>Node17&#45;&gt;Node2</title>
<path fill="none" stroke="midnightblue" d="M409.75,-280.38C410.26,-266.36 413.43,-238.71 429.74,-224 454.64,-201.53 543.63,-189.23 602.51,-183.39"/>
<polygon fill="midnightblue" stroke="midnightblue" points="603.15,-186.84 612.77,-182.41 602.48,-179.88 603.15,-186.84"/>
</g>
<!-- Node17&#45;&gt;Node9 -->
<g id="edge64" class="edge">
<title>Node17&#45;&gt;Node9</title>
<path fill="none" stroke="midnightblue" d="M389.6,-280.48C333.18,-255.5 181.43,-179.87 239.74,-112 273.79,-72.35 437.42,-67.25 505.21,-66.87"/>
<polygon fill="midnightblue" stroke="midnightblue" points="505.62,-70.36 515.61,-66.84 505.6,-63.36 505.62,-70.36"/>
</g>
<!-- Node17&#45;&gt;Node18 -->
<g id="edge20" class="edge">
<title>Node17&#45;&gt;Node18</title>
<path fill="none" stroke="midnightblue" d="M362.9,-281.24C309.05,-272.3 218,-257.17 139.74,-244 138.44,-243.78 137.13,-243.56 135.81,-243.34"/>
<polygon fill="midnightblue" stroke="midnightblue" points="135.96,-239.82 125.52,-241.6 134.8,-246.72 135.96,-239.82"/>
</g>
<!-- Node37 -->
<g id="node37" class="node">
<title>Node37</title>
<g id="a_node37"><a xlink:title=" ">
<polygon fill="white" stroke="#bfbfbf" points="539.24,-0.5 539.24,-19.5 604.24,-19.5 604.24,-0.5 539.24,-0.5"/>
<text text-anchor="middle" x="571.74" y="-7.5" font-family="Helvetica,sans-Serif" font-size="10.00">stdexcept</text>
</a>
</g>
</g>
<!-- Node17&#45;&gt;Node37 -->
<g id="edge65" class="edge">
<title>Node17&#45;&gt;Node37</title>
<path fill="none" stroke="midnightblue" d="M369.45,-280.46C297.36,-263.99 153.74,-225.38 153.74,-179 153.74,-179 153.74,-179 153.74,-121 153.74,-44.02 422.22,-19.78 528.84,-13.18"/>
<polygon fill="midnightblue" stroke="midnightblue" points="529.16,-16.67 538.94,-12.58 528.75,-9.68 529.16,-16.67"/>
</g>
<!-- Node40 -->
<g id="node40" class="node">
<title>Node40</title>
<g id="a_node40"><a xlink:title=" ">
<polygon fill="white" stroke="#bfbfbf" points="1064.74,-112.5 1064.74,-131.5 1114.74,-131.5 1114.74,-112.5 1064.74,-112.5"/>
<text text-anchor="middle" x="1089.74" y="-119.5" font-family="Helvetica,sans-Serif" font-size="10.00">atomic</text>
</a>
</g>
</g>
<!-- Node17&#45;&gt;Node40 -->
<g id="edge62" class="edge">
<title>Node17&#45;&gt;Node40</title>
<path fill="none" stroke="midnightblue" d="M456.46,-287.3C528.26,-283.82 669.61,-273.52 785.74,-244 813.67,-236.9 988.38,-165.01 1059.59,-135.52"/>
<polygon fill="midnightblue" stroke="midnightblue" points="1061.02,-138.71 1068.92,-131.65 1058.34,-132.24 1061.02,-138.71"/>
</g>
<!-- Node42 -->
<g id="node42" class="node">
<title>Node42</title>
<g id="a_node42"><a xlink:title=" ">
<polygon fill="white" stroke="#bfbfbf" points="438.24,-224.5 438.24,-243.5 545.24,-243.5 545.24,-224.5 438.24,-224.5"/>
<text text-anchor="middle" x="491.74" y="-231.5" font-family="Helvetica,sans-Serif" font-size="10.00">condition_variable</text>
</a>
</g>
</g>
<!-- Node17&#45;&gt;Node42 -->
<g id="edge63" class="edge">
<title>Node17&#45;&gt;Node42</title>
<path fill="none" stroke="midnightblue" d="M422.91,-280.32C435.58,-271.98 454.97,-259.21 469.94,-249.35"/>
<polygon fill="midnightblue" stroke="midnightblue" points="472.17,-252.08 478.59,-243.65 468.32,-246.23 472.17,-252.08"/>
</g>
<!-- Node19 -->
<g id="node19" class="node">
<title>Node19</title>
<g id="a_node19"><a xlink:href="mem_8h.html" target="_top" xlink:title=" ">
<polygon fill="white" stroke="black" points="39.74,-112.5 39.74,-131.5 125.74,-131.5 125.74,-112.5 39.74,-112.5"/>
<text text-anchor="middle" x="82.74" y="-119.5" font-family="Helvetica,sans-Serif" font-size="10.00">ccf/pal/mem.h</text>
</a>
</g>
</g>
<!-- Node18&#45;&gt;Node19 -->
<g id="edge21" class="edge">
<title>Node18&#45;&gt;Node19</title>
<path fill="none" stroke="midnightblue" d="M89.53,-224.17C93.12,-211.66 98.58,-188.08 95.74,-168 94.47,-159.04 91.85,-149.37 89.29,-141.3"/>
<polygon fill="midnightblue" stroke="midnightblue" points="92.6,-140.16 86.08,-131.8 85.97,-142.4 92.6,-140.16"/>
</g>
<!-- Node21 -->
<g id="node21" class="node">
<title>Node21</title>
<g id="a_node21"><a xlink:title=" ">
<polygon fill="white" stroke="#bfbfbf" points="12.74,-0.5 12.74,-19.5 62.74,-19.5 62.74,-0.5 12.74,-0.5"/>
<text text-anchor="middle" x="37.74" y="-7.5" font-family="Helvetica,sans-Serif" font-size="10.00">cstring</text>
</a>
</g>
</g>
<!-- Node18&#45;&gt;Node21 -->
<g id="edge60" class="edge">
<title>Node18&#45;&gt;Node21</title>
<path fill="none" stroke="midnightblue" d="M59.81,-224.36C43.02,-217.41 22.76,-205.82 12.74,-188 -16.49,-136.03 12.23,-62.37 28.39,-28.85"/>
<polygon fill="midnightblue" stroke="midnightblue" points="31.57,-30.32 32.92,-19.81 25.31,-27.18 31.57,-30.32"/>
</g>
<!-- Node22 -->
<g id="node22" class="node">
<title>Node22</title>
<g id="a_node22"><a xlink:href="ring__buffer__types_8h.html" target="_top" xlink:title=" ">
<polygon fill="white" stroke="black" points="1060.74,-168.5 1060.74,-187.5 1170.74,-187.5 1170.74,-168.5 1060.74,-168.5"/>
<text text-anchor="middle" x="1115.74" y="-175.5" font-family="Helvetica,sans-Serif" font-size="10.00">ring_buffer_types.h</text>
</a>
</g>
</g>
<!-- Node18&#45;&gt;Node22 -->
<g id="edge25" class="edge">
<title>Node18&#45;&gt;Node22</title>
<path fill="none" stroke="midnightblue" d="M125.51,-230.97C280.29,-222.84 855.04,-192.68 1050.32,-182.43"/>
<polygon fill="midnightblue" stroke="midnightblue" points="1050.63,-185.92 1060.43,-181.9 1050.26,-178.93 1050.63,-185.92"/>
</g>
<!-- Node41 -->
<g id="node41" class="node">
<title>Node41</title>
<g id="a_node41"><a xlink:title=" ">
<polygon fill="white" stroke="#bfbfbf" points="22.24,-168.5 22.24,-187.5 87.24,-187.5 87.24,-168.5 22.24,-168.5"/>
<text text-anchor="middle" x="54.74" y="-175.5" font-family="Helvetica,sans-Serif" font-size="10.00">functional</text>
</a>
</g>
</g>
<!-- Node18&#45;&gt;Node41 -->
<g id="edge61" class="edge">
<title>Node18&#45;&gt;Node41</title>
<path fill="none" stroke="midnightblue" d="M81.45,-224.08C77.03,-216.61 70.57,-205.72 65.12,-196.52"/>
<polygon fill="midnightblue" stroke="midnightblue" points="68.03,-194.57 59.92,-187.75 62.01,-198.14 68.03,-194.57"/>
</g>
<!-- Node19&#45;&gt;Node8 -->
<g id="edge24" class="edge">
<title>Node19&#45;&gt;Node8</title>
<path fill="none" stroke="midnightblue" d="M116.33,-112.44C156.52,-102.21 223.31,-85.19 262.77,-75.14"/>
<polygon fill="midnightblue" stroke="midnightblue" points="263.83,-78.48 272.66,-72.62 262.1,-71.7 263.83,-78.48"/>
</g>
<!-- Node20 -->
<g id="node20" class="node">
<title>Node20</title>
<g id="a_node20"><a xlink:title=" ">
<polygon fill="white" stroke="#bfbfbf" points="66.24,-56.5 66.24,-75.5 119.24,-75.5 119.24,-56.5 66.24,-56.5"/>
<text text-anchor="middle" x="92.74" y="-63.5" font-family="Helvetica,sans-Serif" font-size="10.00">stdlib.h</text>
</a>
</g>
</g>
<!-- Node19&#45;&gt;Node20 -->
<g id="edge22" class="edge">
<title>Node19&#45;&gt;Node20</title>
<path fill="none" stroke="midnightblue" d="M84.39,-112.08C85.71,-104.93 87.62,-94.64 89.28,-85.69"/>
<polygon fill="midnightblue" stroke="midnightblue" points="92.74,-86.22 91.12,-75.75 85.85,-84.95 92.74,-86.22"/>
</g>
<!-- Node19&#45;&gt;Node21 -->
<g id="edge23" class="edge">
<title>Node19&#45;&gt;Node21</title>
<path fill="none" stroke="midnightblue" d="M76.91,-112.36C71.15,-103.53 62.41,-89.27 56.74,-76 50.24,-60.8 45.14,-42.68 41.87,-29.44"/>
<polygon fill="midnightblue" stroke="midnightblue" points="45.26,-28.57 39.57,-19.64 38.45,-30.18 45.26,-28.57"/>
</g>
<!-- Node22&#45;&gt;Node4 -->
<g id="edge56" class="edge">
<title>Node22&#45;&gt;Node4</title>
<path fill="none" stroke="midnightblue" d="M1101.22,-168.32C1076.95,-154.21 1026.22,-126.44 979.74,-112 884.83,-82.51 854.74,-92.58 752.43,-76.04"/>
<polygon fill="midnightblue" stroke="midnightblue" points="752.74,-72.54 742.3,-74.35 751.59,-79.45 752.74,-72.54"/>
</g>
<!-- Node22&#45;&gt;Node14 -->
<g id="edge57" class="edge">
<title>Node22&#45;&gt;Node14</title>
<path fill="none" stroke="midnightblue" d="M1088.32,-168.44C1058.97,-159.28 1012.22,-144.69 979.64,-134.52"/>
<polygon fill="midnightblue" stroke="midnightblue" points="980.61,-131.16 970.02,-131.52 978.52,-137.84 980.61,-131.16"/>
</g>
<!-- Node23 -->
<g id="node23" class="node">
<title>Node23</title>
<g id="a_node23"><a xlink:href="include_2ccf_2ds_2hash_8h.html" target="_top" xlink:title=" ">
<polygon fill="white" stroke="black" points="1513.74,-112.5 1513.74,-131.5 1593.74,-131.5 1593.74,-112.5 1513.74,-112.5"/>
<text text-anchor="middle" x="1553.74" y="-119.5" font-family="Helvetica,sans-Serif" font-size="10.00">ccf/ds/hash.h</text>
</a>
</g>
</g>
<!-- Node22&#45;&gt;Node23 -->
<g id="edge26" class="edge">
<title>Node22&#45;&gt;Node23</title>
<path fill="none" stroke="midnightblue" d="M1170.77,-170.22C1256.48,-159.65 1420.59,-139.41 1503.36,-129.21"/>
<polygon fill="midnightblue" stroke="midnightblue" points="1504.03,-132.66 1513.52,-127.96 1503.17,-125.71 1504.03,-132.66"/>
</g>
<!-- Node27 -->
<g id="node27" class="node">
<title>Node27</title>
<g id="a_node27"><a xlink:title=" ">
<polygon fill="white" stroke="#bfbfbf" points="1587.24,-0.5 1587.24,-19.5 1634.24,-19.5 1634.24,-0.5 1587.24,-0.5"/>
<text text-anchor="middle" x="1610.74" y="-7.5" font-family="Helvetica,sans-Serif" font-size="10.00">vector</text>
</a>
</g>
</g>
<!-- Node22&#45;&gt;Node27 -->
<g id="edge59" class="edge">
<title>Node22&#45;&gt;Node27</title>
<path fill="none" stroke="midnightblue" d="M1170.99,-174.08C1340.56,-164.53 1844.86,-131.66 1890.74,-76 1896.39,-69.14 1896.5,-62.77 1890.74,-56 1859.44,-19.27 1711.92,-12.41 1644.5,-11.2"/>
<polygon fill="midnightblue" stroke="midnightblue" points="1644.45,-7.7 1634.4,-11.06 1644.34,-14.7 1644.45,-7.7"/>
</g>
<!-- Node30 -->
<g id="node30" class="node">
<title>Node30</title>
<g id="a_node30"><a xlink:href="nonstd_8h.html" target="_top" xlink:title=" ">
<polygon fill="white" stroke="black" points="1359.74,-56.5 1359.74,-75.5 1449.74,-75.5 1449.74,-56.5 1359.74,-56.5"/>
<text text-anchor="middle" x="1404.74" y="-63.5" font-family="Helvetica,sans-Serif" font-size="10.00">ccf/ds/nonstd.h</text>
</a>
</g>
</g>
<!-- Node22&#45;&gt;Node30 -->
<g id="edge35" class="edge">
<title>Node22&#45;&gt;Node30</title>
<path fill="none" stroke="midnightblue" d="M1152.76,-168.5C1185.18,-160.57 1233.3,-147.64 1273.74,-132 1312.37,-117.06 1354.97,-94.76 1380.79,-80.55"/>
<polygon fill="midnightblue" stroke="midnightblue" points="1382.78,-83.45 1389.82,-75.53 1379.38,-77.33 1382.78,-83.45"/>
</g>
<!-- Node33 -->
<g id="node33" class="node">
<title>Node33</title>
<g id="a_node33"><a xlink:title=" ">
<polygon fill="white" stroke="#bfbfbf" points="1155.74,-0.5 1155.74,-19.5 1199.74,-19.5 1199.74,-0.5 1155.74,-0.5"/>
<text text-anchor="middle" x="1177.74" y="-7.5" font-family="Helvetica,sans-Serif" font-size="10.00">string</text>
</a>
</g>
</g>
<!-- Node22&#45;&gt;Node33 -->
<g id="edge58" class="edge">
<title>Node22&#45;&gt;Node33</title>
<path fill="none" stroke="midnightblue" d="M1117.72,-168.43C1119.7,-159.42 1122.61,-144.8 1123.74,-132 1123.74,-132 1123.74,-56 1123.74,-56 1129.78,-43.09 1141.55,-32.6 1152.56,-25"/>
<polygon fill="midnightblue" stroke="midnightblue" points="1154.56,-27.87 1161.1,-19.54 1150.79,-21.97 1154.56,-27.87"/>
</g>
<!-- Node35 -->
<g id="node35" class="node">
<title>Node35</title>
<g id="a_node35"><a xlink:href="serializer_8h.html" target="_top" xlink:title=" ">
<polygon fill="white" stroke="black" points="1194.74,-112.5 1194.74,-131.5 1264.74,-131.5 1264.74,-112.5 1194.74,-112.5"/>
<text text-anchor="middle" x="1229.74" y="-119.5" font-family="Helvetica,sans-Serif" font-size="10.00">serializer.h</text>
</a>
</g>
</g>
<!-- Node22&#45;&gt;Node35 -->
<g id="edge43" class="edge">
<title>Node22&#45;&gt;Node35</title>
<path fill="none" stroke="midnightblue" d="M1133.8,-168.44C1152.31,-159.68 1181.32,-145.94 1202.59,-135.86"/>
<polygon fill="midnightblue" stroke="midnightblue" points="1204.22,-138.96 1211.76,-131.52 1201.22,-132.63 1204.22,-138.96"/>
</g>
<!-- Node22&#45;&gt;Node40 -->
<g id="edge55" class="edge">
<title>Node22&#45;&gt;Node40</title>
<path fill="none" stroke="midnightblue" d="M1111.44,-168.08C1107.88,-160.69 1102.71,-149.95 1098.31,-140.81"/>
<polygon fill="midnightblue" stroke="midnightblue" points="1101.44,-139.24 1093.95,-131.75 1095.13,-142.28 1101.44,-139.24"/>
</g>
<!-- Node24 -->
<g id="node24" class="node">
<title>Node24</title>
<g id="a_node24"><a xlink:href="siphash_8h.html" target="_top" xlink:title=" ">
<polygon fill="white" stroke="black" points="1786.24,-56.5 1786.24,-75.5 1881.24,-75.5 1881.24,-56.5 1786.24,-56.5"/>
<text text-anchor="middle" x="1833.74" y="-63.5" font-family="Helvetica,sans-Serif" font-size="10.00">ccf/ds/siphash.h</text>
</a>
</g>
</g>
<!-- Node23&#45;&gt;Node24 -->
<g id="edge27" class="edge">
<title>Node23&#45;&gt;Node24</title>
<path fill="none" stroke="midnightblue" d="M1593.85,-113.26C1642.58,-103.87 1724.99,-87.97 1779.38,-77.48"/>
<polygon fill="midnightblue" stroke="midnightblue" points="1780.38,-80.85 1789.54,-75.52 1779.05,-73.98 1780.38,-80.85"/>
</g>
<!-- Node26 -->
<g id="node26" class="node">
<title>Node26</title>
<g id="a_node26"><a xlink:title=" ">
<polygon fill="white" stroke="#bfbfbf" points="1518.74,-0.5 1518.74,-19.5 1568.74,-19.5 1568.74,-0.5 1518.74,-0.5"/>
<text text-anchor="middle" x="1543.74" y="-7.5" font-family="Helvetica,sans-Serif" font-size="10.00">cstdint</text>
</a>
</g>
</g>
<!-- Node23&#45;&gt;Node26 -->
<g id="edge32" class="edge">
<title>Node23&#45;&gt;Node26</title>
<path fill="none" stroke="midnightblue" d="M1552.95,-112.37C1551.34,-94.62 1547.62,-53.67 1545.43,-29.6"/>
<polygon fill="midnightblue" stroke="midnightblue" points="1548.91,-29.23 1544.52,-19.59 1541.94,-29.87 1548.91,-29.23"/>
</g>
<!-- Node23&#45;&gt;Node27 -->
<g id="edge34" class="edge">
<title>Node23&#45;&gt;Node27</title>
<path fill="none" stroke="midnightblue" d="M1558.21,-112.37C1567.53,-94.38 1589.21,-52.55 1601.6,-28.63"/>
<polygon fill="midnightblue" stroke="midnightblue" points="1604.79,-30.08 1606.28,-19.59 1598.58,-26.86 1604.79,-30.08"/>
</g>
<!-- Node28 -->
<g id="node28" class="node">
<title>Node28</title>
<g id="a_node28"><a xlink:title=" ">
<polygon fill="white" stroke="#bfbfbf" points="1458.74,-0.5 1458.74,-19.5 1500.74,-19.5 1500.74,-0.5 1458.74,-0.5"/>
<text text-anchor="middle" x="1479.74" y="-7.5" font-family="Helvetica,sans-Serif" font-size="10.00">array</text>
</a>
</g>
</g>
<!-- Node23&#45;&gt;Node28 -->
<g id="edge31" class="edge">
<title>Node23&#45;&gt;Node28</title>
<path fill="none" stroke="midnightblue" d="M1547.93,-112.37C1535.72,-94.22 1507.18,-51.8 1491.17,-27.99"/>
<polygon fill="midnightblue" stroke="midnightblue" points="1494,-25.94 1485.52,-19.59 1488.19,-29.84 1494,-25.94"/>
</g>
<!-- Node29 -->
<g id="node29" class="node">
<title>Node29</title>
<g id="a_node29"><a xlink:title=" ">
<polygon fill="white" stroke="#bfbfbf" points="1619.24,-56.5 1619.24,-75.5 1768.24,-75.5 1768.24,-56.5 1619.24,-56.5"/>
<text text-anchor="middle" x="1693.74" y="-63.5" font-family="Helvetica,sans-Serif" font-size="10.00">small_vector/SmallVector.h</text>
</a>
</g>
</g>
<!-- Node23&#45;&gt;Node29 -->
<g id="edge33" class="edge">
<title>Node23&#45;&gt;Node29</title>
<path fill="none" stroke="midnightblue" d="M1575.92,-112.44C1599.17,-103.48 1635.89,-89.31 1662.15,-79.18"/>
<polygon fill="midnightblue" stroke="midnightblue" points="1663.59,-82.38 1671.66,-75.52 1661.07,-75.85 1663.59,-82.38"/>
</g>
<!-- Node25 -->
<g id="node25" class="node">
<title>Node25</title>
<g id="a_node25"><a xlink:title=" ">
<polygon fill="white" stroke="#bfbfbf" points="1883.24,-0.5 1883.24,-19.5 1936.24,-19.5 1936.24,-0.5 1883.24,-0.5"/>
<text text-anchor="middle" x="1909.74" y="-7.5" font-family="Helvetica,sans-Serif" font-size="10.00">cstddef</text>
</a>
</g>
</g>
<!-- Node24&#45;&gt;Node25 -->
<g id="edge28" class="edge">
<title>Node24&#45;&gt;Node25</title>
<path fill="none" stroke="midnightblue" d="M1845.95,-56.32C1857.51,-48.11 1875.11,-35.6 1888.9,-25.81"/>
<polygon fill="midnightblue" stroke="midnightblue" points="1891.18,-28.48 1897.3,-19.83 1887.12,-22.77 1891.18,-28.48"/>
</g>
<!-- Node24&#45;&gt;Node26 -->
<g id="edge29" class="edge">
<title>Node24&#45;&gt;Node26</title>
<path fill="none" stroke="midnightblue" d="M1786.19,-57.06C1723.73,-46.55 1617.46,-28.38 1578.74,-20 1578.64,-19.98 1578.54,-19.96 1578.44,-19.94"/>
<polygon fill="midnightblue" stroke="midnightblue" points="1579.45,-16.58 1568.92,-17.72 1577.86,-23.4 1579.45,-16.58"/>
</g>
<!-- Node24&#45;&gt;Node27 -->
<g id="edge30" class="edge">
<title>Node24&#45;&gt;Node27</title>
<path fill="none" stroke="midnightblue" d="M1798.4,-56.44C1756.06,-46.19 1685.64,-29.14 1644.16,-19.09"/>
<polygon fill="midnightblue" stroke="midnightblue" points="1644.82,-15.65 1634.28,-16.7 1643.17,-22.46 1644.82,-15.65"/>
</g>
<!-- Node30&#45;&gt;Node16 -->
<g id="edge41" class="edge">
<title>Node30&#45;&gt;Node16</title>
<path fill="none" stroke="midnightblue" d="M1359.66,-57.46C1356.64,-56.96 1353.64,-56.47 1350.74,-56 1266.08,-42.24 1167.14,-26.68 1111.22,-17.94"/>
<polygon fill="midnightblue" stroke="midnightblue" points="1111.71,-14.47 1101.29,-16.38 1110.63,-21.39 1111.71,-14.47"/>
</g>
<!-- Node30&#45;&gt;Node27 -->
<g id="edge42" class="edge">
<title>Node30&#45;&gt;Node27</title>
<path fill="none" stroke="midnightblue" d="M1437.93,-56.49C1470.81,-48.03 1522.84,-34.58 1577.15,-20.13"/>
<polygon fill="midnightblue" stroke="midnightblue" points="1578.19,-23.48 1586.95,-17.52 1576.39,-16.71 1578.19,-23.48"/>
</g>
<!-- Node30&#45;&gt;Node28 -->
<g id="edge37" class="edge">
<title>Node30&#45;&gt;Node28</title>
<path fill="none" stroke="midnightblue" d="M1416.79,-56.32C1428.2,-48.11 1445.57,-35.6 1459.17,-25.81"/>
<polygon fill="midnightblue" stroke="midnightblue" points="1461.4,-28.52 1467.47,-19.83 1457.31,-22.84 1461.4,-28.52"/>
</g>
<!-- Node31 -->
<g id="node31" class="node">
<title>Node31</title>
<g id="a_node31"><a xlink:title=" ">
<polygon fill="white" stroke="#bfbfbf" points="1217.74,-0.5 1217.74,-19.5 1281.74,-19.5 1281.74,-0.5 1217.74,-0.5"/>
<text text-anchor="middle" x="1249.74" y="-7.5" font-family="Helvetica,sans-Serif" font-size="10.00">algorithm</text>
</a>
</g>
</g>
<!-- Node30&#45;&gt;Node31 -->
<g id="edge36" class="edge">
<title>Node30&#45;&gt;Node31</title>
<path fill="none" stroke="midnightblue" d="M1380.18,-56.44C1354.21,-47.4 1313.07,-33.06 1283.94,-22.92"/>
<polygon fill="midnightblue" stroke="midnightblue" points="1284.78,-19.5 1274.18,-19.52 1282.47,-26.11 1284.78,-19.5"/>
</g>
<!-- Node32 -->
<g id="node32" class="node">
<title>Node32</title>
<g id="a_node32"><a xlink:title=" ">
<polygon fill="white" stroke="#bfbfbf" points="1300.24,-0.5 1300.24,-19.5 1349.24,-19.5 1349.24,-0.5 1300.24,-0.5"/>
<text text-anchor="middle" x="1324.74" y="-7.5" font-family="Helvetica,sans-Serif" font-size="10.00">cctype</text>
</a>
</g>
</g>
<!-- Node30&#45;&gt;Node32 -->
<g id="edge38" class="edge">
<title>Node30&#45;&gt;Node32</title>
<path fill="none" stroke="midnightblue" d="M1391.88,-56.32C1379.52,-47.98 1360.61,-35.21 1346,-25.35"/>
<polygon fill="midnightblue" stroke="midnightblue" points="1347.8,-22.35 1337.56,-19.65 1343.89,-28.15 1347.8,-22.35"/>
</g>
<!-- Node30&#45;&gt;Node33 -->
<g id="edge39" class="edge">
<title>Node30&#45;&gt;Node33</title>
<path fill="none" stroke="midnightblue" d="M1364.41,-56.44C1326.76,-48.3 1268.81,-35.37 1209.89,-20.2"/>
<polygon fill="midnightblue" stroke="midnightblue" points="1210.6,-16.76 1200.05,-17.64 1208.85,-23.54 1210.6,-16.76"/>
</g>
<!-- Node34 -->
<g id="node34" class="node">
<title>Node34</title>
<g id="a_node34"><a xlink:title=" ">
<polygon fill="white" stroke="#bfbfbf" points="1367.24,-0.5 1367.24,-19.5 1440.24,-19.5 1440.24,-0.5 1367.24,-0.5"/>
<text text-anchor="middle" x="1403.74" y="-7.5" font-family="Helvetica,sans-Serif" font-size="10.00">string_view</text>
</a>
</g>
</g>
<!-- Node30&#45;&gt;Node34 -->
<g id="edge40" class="edge">
<title>Node30&#45;&gt;Node34</title>
<path fill="none" stroke="midnightblue" d="M1404.57,-56.08C1404.44,-49.01 1404.25,-38.86 1404.09,-29.99"/>
<polygon fill="midnightblue" stroke="midnightblue" points="1407.58,-29.68 1403.9,-19.75 1400.58,-29.81 1407.58,-29.68"/>
</g>
<!-- Node35&#45;&gt;Node16 -->
<g id="edge53" class="edge">
<title>Node35&#45;&gt;Node16</title>
<path fill="none" stroke="midnightblue" d="M1200.02,-112.38C1177.69,-105 1147.06,-92.87 1123.74,-76 1105.38,-62.72 1088.86,-42.51 1078.38,-28.15"/>
<polygon fill="midnightblue" stroke="midnightblue" points="1081.04,-25.85 1072.42,-19.69 1075.32,-29.88 1081.04,-25.85"/>
</g>
<!-- Node35&#45;&gt;Node27 -->
<g id="edge54" class="edge">
<title>Node35&#45;&gt;Node27</title>
<path fill="none" stroke="midnightblue" d="M1264.83,-116.44C1310.25,-110.02 1391.56,-96.71 1458.74,-76 1504.32,-61.95 1554.79,-38.74 1584.58,-24.19"/>
<polygon fill="midnightblue" stroke="midnightblue" points="1586.44,-27.18 1593.86,-19.62 1583.34,-20.9 1586.44,-27.18"/>
</g>
<!-- Node35&#45;&gt;Node30 -->
<g id="edge44" class="edge">
<title>Node35&#45;&gt;Node30</title>
<path fill="none" stroke="midnightblue" d="M1257.47,-112.44C1287.16,-103.28 1334.45,-88.69 1367.41,-78.52"/>
<polygon fill="midnightblue" stroke="midnightblue" points="1368.61,-81.81 1377.14,-75.52 1366.55,-75.12 1368.61,-81.81"/>
</g>
<!-- Node36 -->
<g id="node36" class="node">
<title>Node36</title>
<g id="a_node36"><a xlink:href="serialized_8h.html" target="_top" xlink:title=" ">
<polygon fill="white" stroke="black" points="1268.24,-56.5 1268.24,-75.5 1341.24,-75.5 1341.24,-56.5 1268.24,-56.5"/>
<text text-anchor="middle" x="1304.74" y="-63.5" font-family="Helvetica,sans-Serif" font-size="10.00">serialized.h</text>
</a>
</g>
</g>
<!-- Node35&#45;&gt;Node36 -->
<g id="edge45" class="edge">
<title>Node35&#45;&gt;Node36</title>
<path fill="none" stroke="midnightblue" d="M1241.79,-112.32C1253.2,-104.11 1270.57,-91.6 1284.17,-81.81"/>
<polygon fill="midnightblue" stroke="midnightblue" points="1286.4,-84.52 1292.47,-75.83 1282.31,-78.84 1286.4,-84.52"/>
</g>
<!-- Node38 -->
<g id="node38" class="node">
<title>Node38</title>
<g id="a_node38"><a xlink:title=" ">
<polygon fill="white" stroke="#bfbfbf" points="1132.74,-56.5 1132.74,-75.5 1190.74,-75.5 1190.74,-56.5 1132.74,-56.5"/>
<text text-anchor="middle" x="1161.74" y="-63.5" font-family="Helvetica,sans-Serif" font-size="10.00">memory</text>
</a>
</g>
</g>
<!-- Node35&#45;&gt;Node38 -->
<g id="edge51" class="edge">
<title>Node35&#45;&gt;Node38</title>
<path fill="none" stroke="midnightblue" d="M1218.81,-112.32C1208.56,-104.18 1193.02,-91.84 1180.74,-82.09"/>
<polygon fill="midnightblue" stroke="midnightblue" points="1182.87,-79.31 1172.86,-75.83 1178.52,-84.79 1182.87,-79.31"/>
</g>
<!-- Node39 -->
<g id="node39" class="node">
<title>Node39</title>
<g id="a_node39"><a xlink:title=" ">
<polygon fill="white" stroke="#bfbfbf" points="1209.24,-56.5 1209.24,-75.5 1250.24,-75.5 1250.24,-56.5 1209.24,-56.5"/>
<text text-anchor="middle" x="1229.74" y="-63.5" font-family="Helvetica,sans-Serif" font-size="10.00">tuple</text>
</a>
</g>
</g>
<!-- Node35&#45;&gt;Node39 -->
<g id="edge52" class="edge">
<title>Node35&#45;&gt;Node39</title>
<path fill="none" stroke="midnightblue" d="M1229.74,-112.08C1229.74,-105.01 1229.74,-94.86 1229.74,-85.99"/>
<polygon fill="midnightblue" stroke="midnightblue" points="1233.24,-85.75 1229.74,-75.75 1226.24,-85.75 1233.24,-85.75"/>
</g>
<!-- Node36&#45;&gt;Node21 -->
<g id="edge47" class="edge">
<title>Node36&#45;&gt;Node21</title>
<path fill="none" stroke="midnightblue" d="M1267.98,-57.15C1265.2,-56.71 1262.43,-56.32 1259.74,-56 1020.95,-27.91 248.06,-14.3 73.15,-11.54"/>
<polygon fill="midnightblue" stroke="midnightblue" points="73.01,-8.03 62.96,-11.38 72.9,-15.03 73.01,-8.03"/>
</g>
<!-- Node36&#45;&gt;Node26 -->
<g id="edge46" class="edge">
<title>Node36&#45;&gt;Node26</title>
<path fill="none" stroke="midnightblue" d="M1341.51,-57.42C1380.61,-49.26 1444.5,-35.6 1508.64,-20.19"/>
<polygon fill="midnightblue" stroke="midnightblue" points="1509.62,-23.56 1518.52,-17.8 1507.97,-16.75 1509.62,-23.56"/>
</g>
<!-- Node36&#45;&gt;Node27 -->
<g id="edge50" class="edge">
<title>Node36&#45;&gt;Node27</title>
<path fill="none" stroke="midnightblue" d="M1341.37,-57.71C1344.54,-57.12 1347.69,-56.54 1350.74,-56 1448.18,-38.75 1476.14,-41.29 1577.02,-19.94"/>
<polygon fill="midnightblue" stroke="midnightblue" points="1577.97,-23.32 1587.02,-17.8 1576.51,-16.47 1577.97,-23.32"/>
</g>
<!-- Node36&#45;&gt;Node33 -->
<g id="edge49" class="edge">
<title>Node36&#45;&gt;Node33</title>
<path fill="none" stroke="midnightblue" d="M1284.61,-56.44C1263.71,-47.56 1230.8,-33.56 1207.02,-23.45"/>
<polygon fill="midnightblue" stroke="midnightblue" points="1208.34,-20.21 1197.77,-19.52 1205.6,-26.65 1208.34,-20.21"/>
</g>
<!-- Node36&#45;&gt;Node37 -->
<g id="edge48" class="edge">
<title>Node36&#45;&gt;Node37</title>
<path fill="none" stroke="midnightblue" d="M1267.97,-57.23C1265.19,-56.77 1262.42,-56.35 1259.74,-56 1017.13,-23.95 723.23,-14.39 614.69,-11.84"/>
<polygon fill="midnightblue" stroke="midnightblue" points="614.55,-8.34 604.48,-11.61 614.39,-15.33 614.55,-8.34"/>
</g>
<!-- Node44 -->
<g id="node44" class="node">
<title>Node44</title>
<g id="a_node44"><a xlink:title=" ">
<polygon fill="white" stroke="#bfbfbf" points="1135.24,-224.5 1135.24,-243.5 1212.24,-243.5 1212.24,-224.5 1135.24,-224.5"/>
<text text-anchor="middle" x="1173.74" y="-231.5" font-family="Helvetica,sans-Serif" font-size="10.00">sys/socket.h</text>
</a>
</g>
</g>
<!-- Node43&#45;&gt;Node44 -->
<g id="edge67" class="edge">
<title>Node43&#45;&gt;Node44</title>
<path fill="none" stroke="midnightblue" d="M1072.75,-280.44C1092.32,-271.64 1123.04,-257.81 1145.47,-247.72"/>
<polygon fill="midnightblue" stroke="midnightblue" points="1147.13,-250.81 1154.81,-243.52 1144.26,-244.43 1147.13,-250.81"/>
</g>
<!-- Node45&#45;&gt;Node2 -->
<g id="edge72" class="edge">
<title>Node45&#45;&gt;Node2</title>
<path fill="none" stroke="midnightblue" d="M874.57,-280.45C856.64,-267.02 819.94,-240.78 785.74,-224 757.35,-210.08 723.55,-198.45 697.67,-190.51"/>
<polygon fill="midnightblue" stroke="midnightblue" points="698.39,-187.07 687.81,-187.54 696.38,-193.77 698.39,-187.07"/>
</g>
<!-- Node45&#45;&gt;Node5 -->
<g id="edge73" class="edge">
<title>Node45&#45;&gt;Node5</title>
<path fill="none" stroke="midnightblue" d="M883.42,-280.08C876.66,-253.95 856.78,-177.21 847.55,-141.58"/>
<polygon fill="midnightblue" stroke="midnightblue" points="850.85,-140.37 844.96,-131.57 844.08,-142.13 850.85,-140.37"/>
</g>
<!-- Node45&#45;&gt;Node25 -->
<g id="edge76" class="edge">
<title>Node45&#45;&gt;Node25</title>
<path fill="none" stroke="midnightblue" d="M950.85,-283.35C1187.15,-262.73 1985.74,-192.08 1985.74,-179 1985.74,-179 1985.74,-179 1985.74,-121 1985.74,-81.28 1951.77,-45.5 1929.25,-26.15"/>
<polygon fill="midnightblue" stroke="midnightblue" points="1931.22,-23.24 1921.28,-19.57 1926.76,-28.63 1931.22,-23.24"/>
</g>
<!-- Node45&#45;&gt;Node40 -->
<g id="edge74" class="edge">
<title>Node45&#45;&gt;Node40</title>
<path fill="none" stroke="midnightblue" d="M891.4,-280.3C900.24,-267.12 918.34,-241.76 937.74,-224 977.98,-187.16 1032.85,-154.19 1064.47,-136.54"/>
<polygon fill="midnightblue" stroke="midnightblue" points="1066.42,-139.46 1073.49,-131.57 1063.04,-133.33 1066.42,-139.46"/>
</g>
<!-- Node46 -->
<g id="node46" class="node">
<title>Node46</title>
<g id="a_node46"><a xlink:href="ccf__assert_8h.html" target="_top" xlink:title=" ">
<polygon fill="white" stroke="black" points="684.74,-224.5 684.74,-243.5 776.74,-243.5 776.74,-224.5 684.74,-224.5"/>
<text text-anchor="middle" x="730.74" y="-231.5" font-family="Helvetica,sans-Serif" font-size="10.00">ccf/ccf_assert.h</text>
</a>
</g>
</g>
<!-- Node45&#45;&gt;Node46 -->
<g id="edge70" class="edge">
<title>Node45&#45;&gt;Node46</title>
<path fill="none" stroke="midnightblue" d="M861.18,-280.44C835.21,-271.4 794.07,-257.06 764.94,-246.92"/>
<polygon fill="midnightblue" stroke="midnightblue" points="765.78,-243.5 755.18,-243.52 763.47,-250.11 765.78,-243.5"/>
</g>
<!-- Node47 -->
<g id="node47" class="node">
<title>Node47</title>
<g id="a_node47"><a xlink:title=" ">
<polygon fill="white" stroke="#bfbfbf" points="946.74,-224.5 946.74,-243.5 996.74,-243.5 996.74,-224.5 946.74,-224.5"/>
<text text-anchor="middle" x="971.74" y="-231.5" font-family="Helvetica,sans-Serif" font-size="10.00">chrono</text>
</a>
</g>
</g>
<!-- Node45&#45;&gt;Node47 -->
<g id="edge75" class="edge">
<title>Node45&#45;&gt;Node47</title>
<path fill="none" stroke="midnightblue" d="M899.55,-280.32C912.97,-271.9 933.56,-258.97 949.32,-249.07"/>
<polygon fill="midnightblue" stroke="midnightblue" points="951.35,-251.94 957.95,-243.65 947.62,-246.01 951.35,-251.94"/>
</g>
<!-- Node46&#45;&gt;Node2 -->
<g id="edge71" class="edge">
<title>Node46&#45;&gt;Node2</title>
<path fill="none" stroke="midnightblue" d="M718.85,-224.32C707.59,-216.11 690.45,-203.6 677.03,-193.81"/>
<polygon fill="midnightblue" stroke="midnightblue" points="678.98,-190.9 668.84,-187.83 674.86,-196.56 678.98,-190.9"/>
</g>
<!-- Node48&#45;&gt;Node27 -->
<g id="edge79" class="edge">
<title>Node48&#45;&gt;Node27</title>
<path fill="none" stroke="midnightblue" d="M1228.78,-281.36C1405.61,-256.79 1947.74,-181.27 1947.74,-179 1947.74,-179 1947.74,-179 1947.74,-121 1947.74,-86.84 1935.32,-74.7 1906.74,-56 1864.11,-28.1 1713.23,-16.55 1644.86,-12.66"/>
<polygon fill="midnightblue" stroke="midnightblue" points="1644.8,-9.15 1634.62,-12.1 1644.41,-16.14 1644.8,-9.15"/>
</g>
<!-- Node48&#45;&gt;Node44 -->
<g id="edge78" class="edge">
<title>Node48&#45;&gt;Node44</title>
<path fill="none" stroke="midnightblue" d="M1173.74,-280.08C1173.74,-273.01 1173.74,-262.86 1173.74,-253.99"/>
<polygon fill="midnightblue" stroke="midnightblue" points="1177.24,-253.75 1173.74,-243.75 1170.24,-253.75 1177.24,-253.75"/>
</g>
<!-- Node49&#45;&gt;Node22 -->
<g id="edge81" class="edge">
<title>Node49&#45;&gt;Node22</title>
<path fill="none" stroke="midnightblue" d="M1073.99,-224.08C1081.2,-216.3 1091.85,-204.8 1100.58,-195.37"/>
<polygon fill="midnightblue" stroke="midnightblue" points="1103.41,-197.47 1107.63,-187.75 1098.27,-192.71 1103.41,-197.47"/>
</g>
</g>
</svg>
