<?xml version="1.0" encoding="UTF-8" standalone="no"?>
<!DOCTYPE svg PUBLIC "-//W3C//DTD SVG 1.1//EN"
 "http://www.w3.org/Graphics/SVG/1.1/DTD/svg11.dtd">
<!-- Generated by graphviz version 2.43.0 (0)
 -->
<!-- Title: include/ccf/node/quote.h Pages: 1 -->
<!--zoomable 442 -->
<svg id="main" version="1.1" xmlns="http://www.w3.org/2000/svg" xmlns:xlink="http://www.w3.org/1999/xlink" xml:space="preserve" onload="init(evt)">
<style type="text/css"><![CDATA[
.edge:hover path { stroke: red; }
.edge:hover polygon { stroke: red; fill: red; }
]]></style>
<script type="text/javascript"><![CDATA[
var edges = document.getElementsByTagName('g');
if (edges && edges.length) {
  for (var i=0;i<edges.length;i++) {
    if (edges[i].id.substr(0,4)=='edge') {
      edges[i].setAttribute('class','edge');
    }
  }
}
]]></script>
        <defs>
                <circle id="rim" cx="0" cy="0" r="7"/>
                <circle id="rim2" cx="0" cy="0" r="3.5"/>
                <g id="zoomPlus">
                        <use xlink:href="#rim" fill="#404040">
                                <set attributeName="fill" to="#808080" begin="zoomplus.mouseover" end="zoomplus.mouseout"/>
                        </use>
                        <path d="M-4,0h8M0,-4v8" fill="none" stroke="white" stroke-width="1.5" pointer-events="none"/>
                </g>
                <g id="zoomMin">
                        <use xlink:href="#rim" fill="#404040">
                                <set attributeName="fill" to="#808080" begin="zoomminus.mouseover" end="zoomminus.mouseout"/>
                        </use>
                        <path d="M-4,0h8" fill="none" stroke="white" stroke-width="1.5" pointer-events="none"/>
                </g>
                <g id="dirArrow">
                        <path fill="none" stroke="white" stroke-width="1.5" d="M0,-3.0v7 M-2.5,-0.5L0,-3.0L2.5,-0.5"/>
                </g>
               <g id="resetDef">
                       <use xlink:href="#rim2" fill="#404040">
                               <set attributeName="fill" to="#808080" begin="reset.mouseover" end="reset.mouseout"/>
                       </use>
               </g>
        </defs>

<script type="text/javascript">
var viewWidth = 1888;
var viewHeight = 442;
var sectionId = 'dynsection-0';
</script>
<script xlink:href="svgpan.js"/>
<svg id="graph" class="graph">
<g id="viewport">
<title>include/ccf/node/quote.h</title>
<polygon fill="white" stroke="transparent" points="-4,4 -4,-438 1883.5,-438 1883.5,4 -4,4"/>
<!-- Node1 -->
<g id="node1" class="node">
<title>Node1</title>
<g id="a_node1"><a xlink:title=" ">
<polygon fill="#bfbfbf" stroke="black" points="305.5,-414.5 305.5,-433.5 441.5,-433.5 441.5,-414.5 305.5,-414.5"/>
<text text-anchor="middle" x="373.5" y="-421.5" font-family="Helvetica,sans-Serif" font-size="10.00">include/ccf/node/quote.h</text>
</a>
</g>
</g>
<!-- Node2 -->
<g id="node2" class="node">
<title>Node2</title>
<g id="a_node2"><a xlink:href="ccf__deprecated_8h.html" target="_top" xlink:title=" ">
<polygon fill="white" stroke="black" points="0,-358.5 0,-377.5 117,-377.5 117,-358.5 0,-358.5"/>
<text text-anchor="middle" x="58.5" y="-365.5" font-family="Helvetica,sans-Serif" font-size="10.00">ccf/ccf_deprecated.h</text>
</a>
</g>
</g>
<!-- Node1&#45;&gt;Node2 -->
<g id="edge1" class="edge">
<title>Node1&#45;&gt;Node2</title>
<path fill="none" stroke="midnightblue" d="M323.59,-414.44C267.83,-404.89 177.61,-389.42 118.17,-379.23"/>
<polygon fill="midnightblue" stroke="midnightblue" points="118.63,-375.76 108.18,-377.52 117.44,-382.66 118.63,-375.76"/>
</g>
<!-- Node3 -->
<g id="node3" class="node">
<title>Node3</title>
<g id="a_node3"><a xlink:href="quote__info_8h.html" target="_top" xlink:title=" ">
<polygon fill="white" stroke="black" points="198,-230 198,-249 307,-249 307,-230 198,-230"/>
<text text-anchor="middle" x="252.5" y="-237" font-family="Helvetica,sans-Serif" font-size="10.00">ccf/ds/quote_info.h</text>
</a>
</g>
</g>
<!-- Node1&#45;&gt;Node3 -->
<g id="edge2" class="edge">
<title>Node1&#45;&gt;Node3</title>
<path fill="none" stroke="midnightblue" d="M367.66,-414.2C348.78,-385.71 289.08,-295.68 263.89,-257.68"/>
<polygon fill="midnightblue" stroke="midnightblue" points="266.72,-255.61 258.28,-249.21 260.89,-259.48 266.72,-255.61"/>
</g>
<!-- Node7 -->
<g id="node7" class="node">
<title>Node7</title>
<g id="a_node7"><a xlink:title=" ">
<polygon fill="white" stroke="#bfbfbf" points="236,-0.5 236,-19.5 283,-19.5 283,-0.5 236,-0.5"/>
<text text-anchor="middle" x="259.5" y="-7.5" font-family="Helvetica,sans-Serif" font-size="10.00">vector</text>
</a>
</g>
</g>
<!-- Node1&#45;&gt;Node7 -->
<g id="edge79" class="edge">
<title>Node1&#45;&gt;Node7</title>
<path fill="none" stroke="midnightblue" d="M305.4,-417.03C238.22,-406.96 145.5,-379.94 145.5,-307.5 145.5,-307.5 145.5,-307.5 145.5,-121 145.5,-74.11 196.05,-40.89 229.83,-23.93"/>
<polygon fill="midnightblue" stroke="midnightblue" points="231.37,-27.07 238.86,-19.58 228.33,-20.77 231.37,-27.07"/>
</g>
<!-- Node18 -->
<g id="node18" class="node">
<title>Node18</title>
<g id="a_node18"><a xlink:href="code__digest_8h.html" target="_top" xlink:title=" ">
<polygon fill="white" stroke="black" points="401.5,-358.5 401.5,-377.5 541.5,-377.5 541.5,-358.5 401.5,-358.5"/>
<text text-anchor="middle" x="471.5" y="-365.5" font-family="Helvetica,sans-Serif" font-size="10.00">ccf/service/code_digest.h</text>
</a>
</g>
</g>
<!-- Node1&#45;&gt;Node18 -->
<g id="edge21" class="edge">
<title>Node1&#45;&gt;Node18</title>
<path fill="none" stroke="midnightblue" d="M389.25,-414.32C404.82,-405.74 428.88,-392.49 446.96,-382.52"/>
<polygon fill="midnightblue" stroke="midnightblue" points="448.72,-385.55 455.79,-377.65 445.35,-379.42 448.72,-385.55"/>
</g>
<!-- Node26 -->
<g id="node26" class="node">
<title>Node26</title>
<g id="a_node26"><a xlink:href="tx_8h.html" target="_top" xlink:title=" ">
<polygon fill="white" stroke="black" points="1223,-297 1223,-316 1276,-316 1276,-297 1223,-297"/>
<text text-anchor="middle" x="1249.5" y="-304" font-family="Helvetica,sans-Serif" font-size="10.00">ccf/tx.h</text>
</a>
</g>
</g>
<!-- Node1&#45;&gt;Node26 -->
<g id="edge44" class="edge">
<title>Node1&#45;&gt;Node26</title>
<path fill="none" stroke="midnightblue" d="M438.27,-414.46C610.92,-391.7 1078.18,-330.09 1212.76,-312.34"/>
<polygon fill="midnightblue" stroke="midnightblue" points="1213.5,-315.78 1222.95,-311 1212.58,-308.84 1213.5,-315.78"/>
</g>
<!-- Node37 -->
<g id="node37" class="node">
<title>Node37</title>
<g id="a_node37"><a xlink:title=" ">
<polygon fill="white" stroke="#bfbfbf" points="1803.5,-112.5 1803.5,-131.5 1859.5,-131.5 1859.5,-112.5 1803.5,-112.5"/>
<text text-anchor="middle" x="1831.5" y="-119.5" font-family="Helvetica,sans-Serif" font-size="10.00">optional</text>
</a>
</g>
</g>
<!-- Node1&#45;&gt;Node37 -->
<g id="edge78" class="edge">
<title>Node1&#45;&gt;Node37</title>
<path fill="none" stroke="midnightblue" d="M441.63,-421.39C735.46,-414.02 1879.5,-380.64 1879.5,-307.5 1879.5,-307.5 1879.5,-307.5 1879.5,-238.5 1879.5,-201.24 1857.93,-162.03 1843.71,-140.23"/>
<polygon fill="midnightblue" stroke="midnightblue" points="1846.48,-138.08 1837.97,-131.76 1840.68,-142 1846.48,-138.08"/>
</g>
<!-- Node4 -->
<g id="node4" class="node">
<title>Node4</title>
<g id="a_node4"><a xlink:href="json_8h.html" target="_top" xlink:title=" ">
<polygon fill="white" stroke="black" points="531,-168.5 531,-187.5 608,-187.5 608,-168.5 531,-168.5"/>
<text text-anchor="middle" x="569.5" y="-175.5" font-family="Helvetica,sans-Serif" font-size="10.00">ccf/ds/json.h</text>
</a>
</g>
</g>
<!-- Node3&#45;&gt;Node4 -->
<g id="edge3" class="edge">
<title>Node3&#45;&gt;Node4</title>
<path fill="none" stroke="midnightblue" d="M297.92,-229.98C356.99,-218.89 459.78,-199.59 520.54,-188.19"/>
<polygon fill="midnightblue" stroke="midnightblue" points="521.46,-191.58 530.65,-186.29 520.17,-184.7 521.46,-191.58"/>
</g>
<!-- Node3&#45;&gt;Node7 -->
<g id="edge20" class="edge">
<title>Node3&#45;&gt;Node7</title>
<path fill="none" stroke="midnightblue" d="M241.08,-229.93C230.09,-220.9 214.19,-205.56 207.5,-188 186.62,-133.18 183.11,-109.36 207.5,-56 213.28,-43.36 224.55,-32.91 235.13,-25.27"/>
<polygon fill="midnightblue" stroke="midnightblue" points="237.35,-28 243.72,-19.53 233.46,-22.18 237.35,-28"/>
</g>
<!-- Node5 -->
<g id="node5" class="node">
<title>Node5</title>
<g id="a_node5"><a xlink:href="include_2ccf_2crypto_2base64_8h.html" target="_top" xlink:title=" ">
<polygon fill="white" stroke="black" points="421.5,-56.5 421.5,-75.5 533.5,-75.5 533.5,-56.5 421.5,-56.5"/>
<text text-anchor="middle" x="477.5" y="-63.5" font-family="Helvetica,sans-Serif" font-size="10.00">ccf/crypto/base64.h</text>
</a>
</g>
</g>
<!-- Node4&#45;&gt;Node5 -->
<g id="edge4" class="edge">
<title>Node4&#45;&gt;Node5</title>
<path fill="none" stroke="midnightblue" d="M561.7,-168.49C553.54,-159.53 540.42,-144.94 529.5,-132 515.87,-115.84 500.84,-96.93 490.46,-83.69"/>
<polygon fill="midnightblue" stroke="midnightblue" points="493.01,-81.26 484.09,-75.53 487.49,-85.56 493.01,-81.26"/>
</g>
<!-- Node8 -->
<g id="node8" class="node">
<title>Node8</title>
<g id="a_node8"><a xlink:href="include_2ccf_2ds_2json__schema_8h.html" target="_top" xlink:title=" ">
<polygon fill="white" stroke="black" points="572,-112.5 572,-131.5 693,-131.5 693,-112.5 572,-112.5"/>
<text text-anchor="middle" x="632.5" y="-119.5" font-family="Helvetica,sans-Serif" font-size="10.00">ccf/ds/json_schema.h</text>
</a>
</g>
</g>
<!-- Node4&#45;&gt;Node8 -->
<g id="edge7" class="edge">
<title>Node4&#45;&gt;Node8</title>
<path fill="none" stroke="midnightblue" d="M579.62,-168.32C589.03,-160.26 603.24,-148.08 614.57,-138.37"/>
<polygon fill="midnightblue" stroke="midnightblue" points="616.88,-141 622.19,-131.83 612.32,-135.68 616.88,-141"/>
</g>
<!-- Node15 -->
<g id="node15" class="node">
<title>Node15</title>
<g id="a_node15"><a xlink:title=" ">
<polygon fill="white" stroke="#bfbfbf" points="698,-56.5 698,-75.5 777,-75.5 777,-56.5 698,-56.5"/>
<text text-anchor="middle" x="737.5" y="-63.5" font-family="Helvetica,sans-Serif" font-size="10.00">fmt/format.h</text>
</a>
</g>
</g>
<!-- Node4&#45;&gt;Node15 -->
<g id="edge18" class="edge">
<title>Node4&#45;&gt;Node15</title>
<path fill="none" stroke="midnightblue" d="M565.11,-168.38C558.92,-154.86 549.7,-128.5 562.5,-112 570.32,-101.91 638.96,-86.46 687.9,-76.54"/>
<polygon fill="midnightblue" stroke="midnightblue" points="688.59,-79.97 697.71,-74.57 687.22,-73.11 688.59,-79.97"/>
</g>
<!-- Node17 -->
<g id="node17" class="node">
<title>Node17</title>
<g id="a_node17"><a xlink:title=" ">
<polygon fill="white" stroke="#bfbfbf" points="863.5,-112.5 863.5,-131.5 919.5,-131.5 919.5,-112.5 863.5,-112.5"/>
<text text-anchor="middle" x="891.5" y="-119.5" font-family="Helvetica,sans-Serif" font-size="10.00">sstream</text>
</a>
</g>
</g>
<!-- Node4&#45;&gt;Node17 -->
<g id="edge19" class="edge">
<title>Node4&#45;&gt;Node17</title>
<path fill="none" stroke="midnightblue" d="M608.02,-170.54C670.04,-160.14 791.31,-139.8 853.19,-129.42"/>
<polygon fill="midnightblue" stroke="midnightblue" points="854.03,-132.83 863.31,-127.73 852.87,-125.93 854.03,-132.83"/>
</g>
<!-- Node6 -->
<g id="node6" class="node">
<title>Node6</title>
<g id="a_node6"><a xlink:title=" ">
<polygon fill="white" stroke="#bfbfbf" points="783.5,-0.5 783.5,-19.5 827.5,-19.5 827.5,-0.5 783.5,-0.5"/>
<text text-anchor="middle" x="805.5" y="-7.5" font-family="Helvetica,sans-Serif" font-size="10.00">string</text>
</a>
</g>
</g>
<!-- Node5&#45;&gt;Node6 -->
<g id="edge5" class="edge">
<title>Node5&#45;&gt;Node6</title>
<path fill="none" stroke="midnightblue" d="M529.47,-56.44C597.86,-45.18 716.04,-25.73 772.98,-16.35"/>
<polygon fill="midnightblue" stroke="midnightblue" points="773.9,-19.75 783.19,-14.67 772.76,-12.84 773.9,-19.75"/>
</g>
<!-- Node5&#45;&gt;Node7 -->
<g id="edge6" class="edge">
<title>Node5&#45;&gt;Node7</title>
<path fill="none" stroke="midnightblue" d="M441.27,-56.5C405.96,-48.15 350.51,-34.85 293.23,-20.13"/>
<polygon fill="midnightblue" stroke="midnightblue" points="293.83,-16.67 283.27,-17.57 292.08,-23.45 293.83,-16.67"/>
</g>
<!-- Node9 -->
<g id="node9" class="node">
<title>Node9</title>
<g id="a_node9"><a xlink:href="nonstd_8h.html" target="_top" xlink:title=" ">
<polygon fill="white" stroke="black" points="551.5,-56.5 551.5,-75.5 641.5,-75.5 641.5,-56.5 551.5,-56.5"/>
<text text-anchor="middle" x="596.5" y="-63.5" font-family="Helvetica,sans-Serif" font-size="10.00">ccf/ds/nonstd.h</text>
</a>
</g>
</g>
<!-- Node8&#45;&gt;Node9 -->
<g id="edge8" class="edge">
<title>Node8&#45;&gt;Node9</title>
<path fill="none" stroke="midnightblue" d="M626.56,-112.08C621.52,-104.53 614.16,-93.49 607.99,-84.23"/>
<polygon fill="midnightblue" stroke="midnightblue" points="610.79,-82.13 602.33,-75.75 604.97,-86.01 610.79,-82.13"/>
</g>
<!-- Node8&#45;&gt;Node15 -->
<g id="edge16" class="edge">
<title>Node8&#45;&gt;Node15</title>
<path fill="none" stroke="midnightblue" d="M649.37,-112.32C666.21,-103.66 692.31,-90.24 711.74,-80.25"/>
<polygon fill="midnightblue" stroke="midnightblue" points="713.38,-83.34 720.67,-75.65 710.18,-77.12 713.38,-83.34"/>
</g>
<!-- Node16 -->
<g id="node16" class="node">
<title>Node16</title>
<g id="a_node16"><a xlink:title=" ">
<polygon fill="white" stroke="#bfbfbf" points="1167.5,-56.5 1167.5,-75.5 1277.5,-75.5 1277.5,-56.5 1167.5,-56.5"/>
<text text-anchor="middle" x="1222.5" y="-63.5" font-family="Helvetica,sans-Serif" font-size="10.00">nlohmann/json.hpp</text>
</a>
</g>
</g>
<!-- Node8&#45;&gt;Node16 -->
<g id="edge17" class="edge">
<title>Node8&#45;&gt;Node16</title>
<path fill="none" stroke="midnightblue" d="M693.14,-115.45C804.89,-105.22 1042.39,-83.48 1157.4,-72.96"/>
<polygon fill="midnightblue" stroke="midnightblue" points="1157.83,-76.43 1167.47,-72.04 1157.19,-69.46 1157.83,-76.43"/>
</g>
<!-- Node9&#45;&gt;Node6 -->
<g id="edge12" class="edge">
<title>Node9&#45;&gt;Node6</title>
<path fill="none" stroke="midnightblue" d="M629.62,-56.44C669.13,-46.23 734.74,-29.28 773.68,-19.22"/>
<polygon fill="midnightblue" stroke="midnightblue" points="774.63,-22.59 783.44,-16.7 772.88,-15.81 774.63,-22.59"/>
</g>
<!-- Node9&#45;&gt;Node7 -->
<g id="edge15" class="edge">
<title>Node9&#45;&gt;Node7</title>
<path fill="none" stroke="midnightblue" d="M551.43,-57.41C548.41,-56.93 545.41,-56.45 542.5,-56 434.71,-39.26 404.13,-42.6 293.12,-19.89"/>
<polygon fill="midnightblue" stroke="midnightblue" points="293.71,-16.44 283.21,-17.84 292.29,-23.3 293.71,-16.44"/>
</g>
<!-- Node10 -->
<g id="node10" class="node">
<title>Node10</title>
<g id="a_node10"><a xlink:title=" ">
<polygon fill="white" stroke="#bfbfbf" points="601.5,-0.5 601.5,-19.5 665.5,-19.5 665.5,-0.5 601.5,-0.5"/>
<text text-anchor="middle" x="633.5" y="-7.5" font-family="Helvetica,sans-Serif" font-size="10.00">algorithm</text>
</a>
</g>
</g>
<!-- Node9&#45;&gt;Node10 -->
<g id="edge9" class="edge">
<title>Node9&#45;&gt;Node10</title>
<path fill="none" stroke="midnightblue" d="M602.61,-56.08C607.78,-48.53 615.35,-37.49 621.69,-28.23"/>
<polygon fill="midnightblue" stroke="midnightblue" points="624.74,-29.98 627.5,-19.75 618.96,-26.02 624.74,-29.98"/>
</g>
<!-- Node11 -->
<g id="node11" class="node">
<title>Node11</title>
<g id="a_node11"><a xlink:title=" ">
<polygon fill="white" stroke="#bfbfbf" points="301.5,-0.5 301.5,-19.5 343.5,-19.5 343.5,-0.5 301.5,-0.5"/>
<text text-anchor="middle" x="322.5" y="-7.5" font-family="Helvetica,sans-Serif" font-size="10.00">array</text>
</a>
</g>
</g>
<!-- Node9&#45;&gt;Node11 -->
<g id="edge10" class="edge">
<title>Node9&#45;&gt;Node11</title>
<path fill="none" stroke="midnightblue" d="M553.08,-56.44C497.55,-45.5 402.73,-26.81 353.78,-17.17"/>
<polygon fill="midnightblue" stroke="midnightblue" points="354.27,-13.69 343.78,-15.19 352.92,-20.56 354.27,-13.69"/>
</g>
<!-- Node12 -->
<g id="node12" class="node">
<title>Node12</title>
<g id="a_node12"><a xlink:title=" ">
<polygon fill="white" stroke="#bfbfbf" points="534,-0.5 534,-19.5 583,-19.5 583,-0.5 534,-0.5"/>
<text text-anchor="middle" x="558.5" y="-7.5" font-family="Helvetica,sans-Serif" font-size="10.00">cctype</text>
</a>
</g>
</g>
<!-- Node9&#45;&gt;Node12 -->
<g id="edge11" class="edge">
<title>Node9&#45;&gt;Node12</title>
<path fill="none" stroke="midnightblue" d="M590.23,-56.08C584.86,-48.46 576.98,-37.26 570.42,-27.94"/>
<polygon fill="midnightblue" stroke="midnightblue" points="573.28,-25.91 564.66,-19.75 567.55,-29.94 573.28,-25.91"/>
</g>
<!-- Node13 -->
<g id="node13" class="node">
<title>Node13</title>
<g id="a_node13"><a xlink:title=" ">
<polygon fill="white" stroke="#bfbfbf" points="1520,-0.5 1520,-19.5 1593,-19.5 1593,-0.5 1520,-0.5"/>
<text text-anchor="middle" x="1556.5" y="-7.5" font-family="Helvetica,sans-Serif" font-size="10.00">string_view</text>
</a>
</g>
</g>
<!-- Node9&#45;&gt;Node13 -->
<g id="edge13" class="edge">
<title>Node9&#45;&gt;Node13</title>
<path fill="none" stroke="midnightblue" d="M641.85,-60.15C656.71,-58.67 673.3,-57.14 688.5,-56 1001.66,-32.58 1379.3,-17.5 1509.62,-12.68"/>
<polygon fill="midnightblue" stroke="midnightblue" points="1509.79,-16.17 1519.66,-12.31 1509.54,-9.18 1509.79,-16.17"/>
</g>
<!-- Node14 -->
<g id="node14" class="node">
<title>Node14</title>
<g id="a_node14"><a xlink:title=" ">
<polygon fill="white" stroke="#bfbfbf" points="1237,-0.5 1237,-19.5 1306,-19.5 1306,-0.5 1237,-0.5"/>
<text text-anchor="middle" x="1271.5" y="-7.5" font-family="Helvetica,sans-Serif" font-size="10.00">type_traits</text>
</a>
</g>
</g>
<!-- Node9&#45;&gt;Node14 -->
<g id="edge14" class="edge">
<title>Node9&#45;&gt;Node14</title>
<path fill="none" stroke="midnightblue" d="M641.87,-60.38C656.73,-58.91 673.31,-57.33 688.5,-56 889.26,-38.43 1129.24,-21.05 1226.88,-14.13"/>
<polygon fill="midnightblue" stroke="midnightblue" points="1227.25,-17.61 1236.98,-13.42 1226.76,-10.63 1227.25,-17.61"/>
</g>
<!-- Node18&#45;&gt;Node4 -->
<g id="edge32" class="edge">
<title>Node18&#45;&gt;Node4</title>
<path fill="none" stroke="midnightblue" d="M479.28,-358.41C495.09,-340.53 531.07,-297.4 550.5,-255 558.98,-236.49 564.04,-213.65 566.78,-197.86"/>
<polygon fill="midnightblue" stroke="midnightblue" points="570.27,-198.21 568.38,-187.78 563.35,-197.11 570.27,-198.21"/>
</g>
<!-- Node19 -->
<g id="node19" class="node">
<title>Node19</title>
<g id="a_node19"><a xlink:href="sha256__hash_8h.html" target="_top" xlink:title=" ">
<polygon fill="white" stroke="black" points="401.5,-230 401.5,-249 541.5,-249 541.5,-230 401.5,-230"/>
<text text-anchor="middle" x="471.5" y="-237" font-family="Helvetica,sans-Serif" font-size="10.00">ccf/crypto/sha256_hash.h</text>
</a>
</g>
</g>
<!-- Node18&#45;&gt;Node19 -->
<g id="edge22" class="edge">
<title>Node18&#45;&gt;Node19</title>
<path fill="none" stroke="midnightblue" d="M471.5,-358.31C471.5,-337.99 471.5,-287.05 471.5,-259.28"/>
<polygon fill="midnightblue" stroke="midnightblue" points="475,-259.26 471.5,-249.26 468,-259.26 475,-259.26"/>
</g>
<!-- Node21 -->
<g id="node21" class="node">
<title>Node21</title>
<g id="a_node21"><a xlink:href="hex_8h.html" target="_top" xlink:title=" ">
<polygon fill="white" stroke="black" points="364,-112.5 364,-131.5 439,-131.5 439,-112.5 364,-112.5"/>
<text text-anchor="middle" x="401.5" y="-119.5" font-family="Helvetica,sans-Serif" font-size="10.00">ccf/ds/hex.h</text>
</a>
</g>
</g>
<!-- Node18&#45;&gt;Node21 -->
<g id="edge27" class="edge">
<title>Node18&#45;&gt;Node21</title>
<path fill="none" stroke="midnightblue" d="M462.57,-358.49C445.02,-341.06 406.53,-299.23 392.5,-255 380.16,-216.09 389.29,-167.6 396.03,-141.57"/>
<polygon fill="midnightblue" stroke="midnightblue" points="399.49,-142.17 398.78,-131.6 392.75,-140.3 399.49,-142.17"/>
</g>
<!-- Node22 -->
<g id="node22" class="node">
<title>Node22</title>
<g id="a_node22"><a xlink:href="attestation__sev__snp_8h.html" target="_top" xlink:title=" ">
<polygon fill="white" stroke="black" points="659,-291.5 659,-321.5 764,-321.5 764,-291.5 659,-291.5"/>
<text text-anchor="start" x="667" y="-309.5" font-family="Helvetica,sans-Serif" font-size="10.00">ccf/pal/attestation</text>
<text text-anchor="middle" x="711.5" y="-298.5" font-family="Helvetica,sans-Serif" font-size="10.00">_sev_snp.h</text>
</a>
</g>
</g>
<!-- Node18&#45;&gt;Node22 -->
<g id="edge33" class="edge">
<title>Node18&#45;&gt;Node22</title>
<path fill="none" stroke="midnightblue" d="M505.89,-358.48C543.08,-349.25 603.16,-334.36 648.8,-323.04"/>
<polygon fill="midnightblue" stroke="midnightblue" points="649.73,-326.42 658.6,-320.62 648.05,-319.62 649.73,-326.42"/>
</g>
<!-- Node19&#45;&gt;Node4 -->
<g id="edge23" class="edge">
<title>Node19&#45;&gt;Node4</title>
<path fill="none" stroke="midnightblue" d="M485.54,-229.98C501.55,-220.25 527.95,-204.23 546.87,-192.74"/>
<polygon fill="midnightblue" stroke="midnightblue" points="548.75,-195.69 555.49,-187.51 545.12,-189.71 548.75,-195.69"/>
</g>
<!-- Node19&#45;&gt;Node11 -->
<g id="edge24" class="edge">
<title>Node19&#45;&gt;Node11</title>
<path fill="none" stroke="midnightblue" d="M456.81,-229.91C422.76,-208.94 339.63,-151.28 316.5,-76 311.82,-60.77 314.09,-42.66 317.09,-29.42"/>
<polygon fill="midnightblue" stroke="midnightblue" points="320.51,-30.19 319.64,-19.63 313.73,-28.42 320.51,-30.19"/>
</g>
<!-- Node19&#45;&gt;Node15 -->
<g id="edge26" class="edge">
<title>Node19&#45;&gt;Node15</title>
<path fill="none" stroke="midnightblue" d="M474.44,-229.82C482.72,-206.71 508.56,-143.36 552.5,-112 563.57,-104.1 636.82,-87.77 687.76,-77.1"/>
<polygon fill="midnightblue" stroke="midnightblue" points="688.55,-80.52 697.63,-75.05 687.12,-73.66 688.55,-80.52"/>
</g>
<!-- Node20 -->
<g id="node20" class="node">
<title>Node20</title>
<g id="a_node20"><a xlink:title=" ">
<polygon fill="white" stroke="#bfbfbf" points="325.5,-56.5 325.5,-75.5 365.5,-75.5 365.5,-56.5 325.5,-56.5"/>
<text text-anchor="middle" x="345.5" y="-63.5" font-family="Helvetica,sans-Serif" font-size="10.00">span</text>
</a>
</g>
</g>
<!-- Node19&#45;&gt;Node20 -->
<g id="edge25" class="edge">
<title>Node19&#45;&gt;Node20</title>
<path fill="none" stroke="midnightblue" d="M456.63,-229.87C430.94,-214.09 378.7,-177.93 354.5,-132 346.95,-117.67 345.01,-99.21 344.78,-85.62"/>
<polygon fill="midnightblue" stroke="midnightblue" points="348.28,-85.6 344.9,-75.56 341.28,-85.51 348.28,-85.6"/>
</g>
<!-- Node21&#45;&gt;Node6 -->
<g id="edge30" class="edge">
<title>Node21&#45;&gt;Node6</title>
<path fill="none" stroke="midnightblue" d="M439.2,-114.34C507.59,-102.23 645.51,-77.72 650.5,-76 668.55,-69.79 671.12,-63.88 688.5,-56 716.77,-43.18 749.85,-30.68 773.62,-22.12"/>
<polygon fill="midnightblue" stroke="midnightblue" points="774.95,-25.36 783.19,-18.7 772.59,-18.77 774.95,-25.36"/>
</g>
<!-- Node21&#45;&gt;Node7 -->
<g id="edge31" class="edge">
<title>Node21&#45;&gt;Node7</title>
<path fill="none" stroke="midnightblue" d="M400.11,-112.2C397.48,-98.43 390.56,-71.73 374.5,-56 362.58,-44.32 322.64,-30.21 293.16,-20.94"/>
<polygon fill="midnightblue" stroke="midnightblue" points="293.82,-17.48 283.24,-17.88 291.76,-24.17 293.82,-17.48"/>
</g>
<!-- Node21&#45;&gt;Node15 -->
<g id="edge28" class="edge">
<title>Node21&#45;&gt;Node15</title>
<path fill="none" stroke="midnightblue" d="M439.26,-114.39C444.05,-113.57 448.89,-112.76 453.5,-112 555.59,-95.18 581.36,-92.51 683.5,-76 684.97,-75.76 686.45,-75.52 687.96,-75.28"/>
<polygon fill="midnightblue" stroke="midnightblue" points="688.69,-78.7 697.99,-73.63 687.55,-71.8 688.69,-78.7"/>
</g>
<!-- Node21&#45;&gt;Node20 -->
<g id="edge29" class="edge">
<title>Node21&#45;&gt;Node20</title>
<path fill="none" stroke="midnightblue" d="M392.5,-112.32C384.31,-104.42 371.99,-92.55 362.03,-82.94"/>
<polygon fill="midnightblue" stroke="midnightblue" points="364.29,-80.26 354.66,-75.83 359.43,-85.29 364.29,-80.26"/>
</g>
<!-- Node22&#45;&gt;Node6 -->
<g id="edge43" class="edge">
<title>Node22&#45;&gt;Node6</title>
<path fill="none" stroke="midnightblue" d="M738.82,-291.37C752.67,-282.76 768.44,-270.43 777.5,-255 820.9,-181.08 813.41,-72.79 808.18,-29.69"/>
<polygon fill="midnightblue" stroke="midnightblue" points="811.65,-29.23 806.88,-19.77 804.71,-30.14 811.65,-29.23"/>
</g>
<!-- Node22&#45;&gt;Node11 -->
<g id="edge41" class="edge">
<title>Node22&#45;&gt;Node11</title>
<path fill="none" stroke="midnightblue" d="M658.93,-302.89C579.6,-298.01 434.1,-285.15 392.5,-255 321.65,-203.64 324.75,-162.34 310.5,-76 307.9,-60.25 311.67,-42.44 315.65,-29.44"/>
<polygon fill="midnightblue" stroke="midnightblue" points="319.02,-30.41 318.91,-19.81 312.39,-28.16 319.02,-30.41"/>
</g>
<!-- Node23 -->
<g id="node23" class="node">
<title>Node23</title>
<g id="a_node23"><a xlink:href="attestation__sev__snp__endorsements_8h.html" target="_top" xlink:title=" ">
<polygon fill="white" stroke="black" points="654,-224.5 654,-254.5 769,-254.5 769,-224.5 654,-224.5"/>
<text text-anchor="start" x="662" y="-242.5" font-family="Helvetica,sans-Serif" font-size="10.00">attestation_sev_snp</text>
<text text-anchor="middle" x="711.5" y="-231.5" font-family="Helvetica,sans-Serif" font-size="10.00">_endorsements.h</text>
</a>
</g>
</g>
<!-- Node22&#45;&gt;Node23 -->
<g id="edge34" class="edge">
<title>Node22&#45;&gt;Node23</title>
<path fill="none" stroke="midnightblue" d="M711.5,-291.4C711.5,-283.64 711.5,-273.81 711.5,-264.86"/>
<polygon fill="midnightblue" stroke="midnightblue" points="715,-264.58 711.5,-254.58 708,-264.58 715,-264.58"/>
</g>
<!-- Node25 -->
<g id="node25" class="node">
<title>Node25</title>
<g id="a_node25"><a xlink:title=" ">
<polygon fill="white" stroke="#bfbfbf" points="1311.5,-56.5 1311.5,-75.5 1349.5,-75.5 1349.5,-56.5 1311.5,-56.5"/>
<text text-anchor="middle" x="1330.5" y="-63.5" font-family="Helvetica,sans-Serif" font-size="10.00">map</text>
</a>
</g>
</g>
<!-- Node22&#45;&gt;Node25 -->
<g id="edge42" class="edge">
<title>Node22&#45;&gt;Node25</title>
<path fill="none" stroke="midnightblue" d="M764.28,-303.6C900.87,-298.31 1258.51,-282.01 1304.5,-255 1361.37,-221.6 1368.21,-195.07 1387.5,-132 1390.1,-123.5 1391.38,-120 1387.5,-112 1381.1,-98.8 1368.75,-88.3 1357.17,-80.78"/>
<polygon fill="midnightblue" stroke="midnightblue" points="1358.95,-77.77 1348.58,-75.61 1355.34,-83.77 1358.95,-77.77"/>
</g>
<!-- Node23&#45;&gt;Node4 -->
<g id="edge35" class="edge">
<title>Node23&#45;&gt;Node4</title>
<path fill="none" stroke="midnightblue" d="M677.85,-224.4C654.02,-214.42 622.35,-201.15 599.41,-191.53"/>
<polygon fill="midnightblue" stroke="midnightblue" points="600.74,-188.29 590.16,-187.66 598.03,-194.75 600.74,-188.29"/>
</g>
<!-- Node23&#45;&gt;Node6 -->
<g id="edge38" class="edge">
<title>Node23&#45;&gt;Node6</title>
<path fill="none" stroke="midnightblue" d="M718.31,-224.39C723.17,-214.29 729.81,-200.34 735.5,-188 758.31,-138.49 766.34,-127.03 785.5,-76 791.34,-60.46 796.8,-42.38 800.53,-29.24"/>
<polygon fill="midnightblue" stroke="midnightblue" points="803.92,-30.1 803.23,-19.52 797.18,-28.22 803.92,-30.1"/>
</g>
<!-- Node23&#45;&gt;Node7 -->
<g id="edge39" class="edge">
<title>Node23&#45;&gt;Node7</title>
<path fill="none" stroke="midnightblue" d="M653.71,-232.72C578.72,-222.82 446.6,-196.95 354.5,-132 314.82,-104.02 283.59,-54.77 268.82,-28.56"/>
<polygon fill="midnightblue" stroke="midnightblue" points="271.86,-26.82 263.98,-19.74 265.72,-30.19 271.86,-26.82"/>
</g>
<!-- Node23&#45;&gt;Node15 -->
<g id="edge40" class="edge">
<title>Node23&#45;&gt;Node15</title>
<path fill="none" stroke="midnightblue" d="M713.63,-224.47C718.29,-193.7 729.42,-120.33 734.66,-85.7"/>
<polygon fill="midnightblue" stroke="midnightblue" points="738.16,-85.97 736.2,-75.56 731.24,-84.92 738.16,-85.97"/>
</g>
<!-- Node24 -->
<g id="node24" class="node">
<title>Node24</title>
<g id="a_node24"><a xlink:title=" ">
<polygon fill="white" stroke="#bfbfbf" points="952.5,-168.5 952.5,-187.5 984.5,-187.5 984.5,-168.5 952.5,-168.5"/>
<text text-anchor="middle" x="968.5" y="-175.5" font-family="Helvetica,sans-Serif" font-size="10.00">list</text>
</a>
</g>
</g>
<!-- Node23&#45;&gt;Node24 -->
<g id="edge36" class="edge">
<title>Node23&#45;&gt;Node24</title>
<path fill="none" stroke="midnightblue" d="M769.18,-225.15C823.38,-212.6 902.04,-194.39 942.42,-185.04"/>
<polygon fill="midnightblue" stroke="midnightblue" points="943.33,-188.42 952.29,-182.75 941.76,-181.6 943.33,-188.42"/>
</g>
<!-- Node23&#45;&gt;Node25 -->
<g id="edge37" class="edge">
<title>Node23&#45;&gt;Node25</title>
<path fill="none" stroke="midnightblue" d="M769.17,-237.8C898.09,-235.56 1205.79,-226.23 1301.5,-188 1338.5,-173.22 1354.24,-167.91 1371.5,-132 1380.13,-114.04 1364.74,-94.91 1350.41,-82.09"/>
<polygon fill="midnightblue" stroke="midnightblue" points="1352.64,-79.4 1342.73,-75.67 1348.15,-84.77 1352.64,-79.4"/>
</g>
<!-- Node26&#45;&gt;Node6 -->
<g id="edge77" class="edge">
<title>Node26&#45;&gt;Node6</title>
<path fill="none" stroke="midnightblue" d="M1233.27,-296.77C1202.67,-278.99 1139.5,-235.46 1139.5,-179 1139.5,-179 1139.5,-179 1139.5,-121 1139.5,-57.84 921.33,-24.92 837.65,-14.62"/>
<polygon fill="midnightblue" stroke="midnightblue" points="838.02,-11.14 827.67,-13.42 837.18,-18.09 838.02,-11.14"/>
</g>
<!-- Node26&#45;&gt;Node19 -->
<g id="edge63" class="edge">
<title>Node26&#45;&gt;Node19</title>
<path fill="none" stroke="midnightblue" d="M1222.96,-303.29C1138.48,-296.25 868.22,-273.71 644.5,-255 614.27,-252.47 581.08,-249.69 551.92,-247.25"/>
<polygon fill="midnightblue" stroke="midnightblue" points="552.04,-243.74 541.78,-246.4 551.46,-250.72 552.04,-243.74"/>
</g>
<!-- Node26&#45;&gt;Node24 -->
<g id="edge73" class="edge">
<title>Node26&#45;&gt;Node24</title>
<path fill="none" stroke="midnightblue" d="M1227.37,-296.98C1202.42,-287.27 1160.75,-270.69 1125.5,-255 1078.57,-234.11 1024.89,-207.53 994.02,-191.98"/>
<polygon fill="midnightblue" stroke="midnightblue" points="995.34,-188.72 984.84,-187.34 992.18,-194.97 995.34,-188.72"/>
</g>
<!-- Node26&#45;&gt;Node25 -->
<g id="edge74" class="edge">
<title>Node26&#45;&gt;Node25</title>
<path fill="none" stroke="midnightblue" d="M1276.34,-303.86C1332.5,-299.82 1459.42,-287.25 1485.5,-255 1504.85,-231.08 1543.18,-192.07 1480.5,-112 1447.49,-69.83 1416.02,-90.19 1359.45,-75.97"/>
<polygon fill="midnightblue" stroke="midnightblue" points="1360.33,-72.58 1349.76,-73.26 1358.45,-79.33 1360.33,-72.58"/>
</g>
<!-- Node27 -->
<g id="node27" class="node">
<title>Node27</title>
<g id="a_node27"><a xlink:href="ccf__assert_8h.html" target="_top" xlink:title=" ">
<polygon fill="white" stroke="black" points="1203.5,-230 1203.5,-249 1295.5,-249 1295.5,-230 1203.5,-230"/>
<text text-anchor="middle" x="1249.5" y="-237" font-family="Helvetica,sans-Serif" font-size="10.00">ccf/ccf_assert.h</text>
</a>
</g>
</g>
<!-- Node26&#45;&gt;Node27 -->
<g id="edge45" class="edge">
<title>Node26&#45;&gt;Node27</title>
<path fill="none" stroke="midnightblue" d="M1249.5,-296.73C1249.5,-287.18 1249.5,-271.62 1249.5,-259.28"/>
<polygon fill="midnightblue" stroke="midnightblue" points="1253,-259.13 1249.5,-249.13 1246,-259.13 1253,-259.13"/>
</g>
<!-- Node26&#45;&gt;Node37 -->
<g id="edge76" class="edge">
<title>Node26&#45;&gt;Node37</title>
<path fill="none" stroke="midnightblue" d="M1276.1,-303.9C1337.78,-299.75 1495.03,-286.69 1622.5,-255 1706.15,-234.21 1742.31,-247.69 1804.5,-188 1817.43,-175.59 1824.4,-156.08 1828,-141.66"/>
<polygon fill="midnightblue" stroke="midnightblue" points="1831.44,-142.35 1830.14,-131.84 1824.6,-140.86 1831.44,-142.35"/>
</g>
<!-- Node38 -->
<g id="node38" class="node">
<title>Node38</title>
<g id="a_node38"><a xlink:href="tx__id_8h.html" target="_top" xlink:title=" ">
<polygon fill="white" stroke="black" points="1546,-230 1546,-249 1613,-249 1613,-230 1546,-230"/>
<text text-anchor="middle" x="1579.5" y="-237" font-family="Helvetica,sans-Serif" font-size="10.00">ccf/tx_id.h</text>
</a>
</g>
</g>
<!-- Node26&#45;&gt;Node38 -->
<g id="edge64" class="edge">
<title>Node26&#45;&gt;Node38</title>
<path fill="none" stroke="midnightblue" d="M1276.31,-300.9C1324.79,-292.5 1430.19,-273.77 1518.5,-255 1524.02,-253.83 1529.81,-252.53 1535.53,-251.22"/>
<polygon fill="midnightblue" stroke="midnightblue" points="1536.75,-254.53 1545.69,-248.84 1535.15,-247.71 1536.75,-254.53"/>
</g>
<!-- Node41 -->
<g id="node41" class="node">
<title>Node41</title>
<g id="a_node41"><a xlink:title=" ">
<polygon fill="white" stroke="#bfbfbf" points="1418.5,-230 1418.5,-249 1476.5,-249 1476.5,-230 1418.5,-230"/>
<text text-anchor="middle" x="1447.5" y="-237" font-family="Helvetica,sans-Serif" font-size="10.00">memory</text>
</a>
</g>
</g>
<!-- Node26&#45;&gt;Node41 -->
<g id="edge75" class="edge">
<title>Node26&#45;&gt;Node41</title>
<path fill="none" stroke="midnightblue" d="M1276.13,-296.92C1307.03,-286.93 1359.5,-269.92 1404.5,-255 1407.08,-254.15 1409.74,-253.26 1412.41,-252.37"/>
<polygon fill="midnightblue" stroke="midnightblue" points="1413.68,-255.63 1422.05,-249.13 1411.45,-248.99 1413.68,-255.63"/>
</g>
<!-- Node28 -->
<g id="node28" class="node">
<title>Node28</title>
<g id="a_node28"><a xlink:href="logger_8h.html" target="_top" xlink:title=" ">
<polygon fill="white" stroke="black" points="1206,-168.5 1206,-187.5 1293,-187.5 1293,-168.5 1206,-168.5"/>
<text text-anchor="middle" x="1249.5" y="-175.5" font-family="Helvetica,sans-Serif" font-size="10.00">ccf/ds/logger.h</text>
</a>
</g>
</g>
<!-- Node27&#45;&gt;Node28 -->
<g id="edge46" class="edge">
<title>Node27&#45;&gt;Node28</title>
<path fill="none" stroke="midnightblue" d="M1249.5,-229.98C1249.5,-221.58 1249.5,-208.48 1249.5,-197.66"/>
<polygon fill="midnightblue" stroke="midnightblue" points="1253,-197.51 1249.5,-187.51 1246,-197.51 1253,-197.51"/>
</g>
<!-- Node28&#45;&gt;Node14 -->
<g id="edge62" class="edge">
<title>Node28&#45;&gt;Node14</title>
<path fill="none" stroke="midnightblue" d="M1293.04,-177.66C1384.96,-178.2 1594.86,-174.58 1649.5,-132 1670.47,-115.66 1665.76,-102.15 1670.5,-76 1672.09,-67.25 1676.42,-62.63 1670.5,-56 1647.2,-29.93 1415.31,-17.08 1316.12,-12.74"/>
<polygon fill="midnightblue" stroke="midnightblue" points="1316.25,-9.25 1306.11,-12.32 1315.95,-16.24 1316.25,-9.25"/>
</g>
<!-- Node28&#45;&gt;Node15 -->
<g id="edge57" class="edge">
<title>Node28&#45;&gt;Node15</title>
<path fill="none" stroke="midnightblue" d="M1205.81,-170.15C1127.1,-157.78 969.33,-132.94 966.5,-132 948.39,-125.98 946.38,-118.69 928.5,-112 881.93,-94.58 826.37,-82.4 787.22,-75.14"/>
<polygon fill="midnightblue" stroke="midnightblue" points="787.6,-71.65 777.13,-73.31 786.35,-78.54 787.6,-71.65"/>
</g>
<!-- Node28&#45;&gt;Node16 -->
<g id="edge59" class="edge">
<title>Node28&#45;&gt;Node16</title>
<path fill="none" stroke="midnightblue" d="M1233.17,-168.39C1220.54,-160.72 1204,-148.21 1196.5,-132 1189.03,-115.87 1198.58,-96.95 1208.15,-83.7"/>
<polygon fill="midnightblue" stroke="midnightblue" points="1211.13,-85.56 1214.56,-75.54 1205.63,-81.24 1211.13,-85.56"/>
</g>
<!-- Node28&#45;&gt;Node17 -->
<g id="edge61" class="edge">
<title>Node28&#45;&gt;Node17</title>
<path fill="none" stroke="midnightblue" d="M1205.81,-170.15C1200.98,-169.41 1196.14,-168.68 1191.5,-168 1076.96,-151.12 1047.51,-152.14 933.5,-132 932.26,-131.78 931,-131.55 929.73,-131.31"/>
<polygon fill="midnightblue" stroke="midnightblue" points="930.4,-127.88 919.91,-129.38 929.05,-134.75 930.4,-127.88"/>
</g>
<!-- Node29 -->
<g id="node29" class="node">
<title>Node29</title>
<g id="a_node29"><a xlink:href="enum__formatter_8h.html" target="_top" xlink:title=" ">
<polygon fill="white" stroke="black" points="975.5,-112.5 975.5,-131.5 1111.5,-131.5 1111.5,-112.5 975.5,-112.5"/>
<text text-anchor="middle" x="1043.5" y="-119.5" font-family="Helvetica,sans-Serif" font-size="10.00">ccf/ds/enum_formatter.h</text>
</a>
</g>
</g>
<!-- Node28&#45;&gt;Node29 -->
<g id="edge47" class="edge">
<title>Node28&#45;&gt;Node29</title>
<path fill="none" stroke="midnightblue" d="M1216.86,-168.44C1181.45,-159.16 1124.79,-144.31 1085.95,-134.13"/>
<polygon fill="midnightblue" stroke="midnightblue" points="1086.55,-130.67 1075.99,-131.52 1084.77,-137.44 1086.55,-130.67"/>
</g>
<!-- Node30 -->
<g id="node30" class="node">
<title>Node30</title>
<g id="a_node30"><a xlink:href="thread__ids_8h.html" target="_top" xlink:title=" ">
<polygon fill="white" stroke="black" points="1532.5,-112.5 1532.5,-131.5 1640.5,-131.5 1640.5,-112.5 1532.5,-112.5"/>
<text text-anchor="middle" x="1586.5" y="-119.5" font-family="Helvetica,sans-Serif" font-size="10.00">ccf/ds/thread_ids.h</text>
</a>
</g>
</g>
<!-- Node28&#45;&gt;Node30 -->
<g id="edge49" class="edge">
<title>Node28&#45;&gt;Node30</title>
<path fill="none" stroke="midnightblue" d="M1293.21,-170C1351.82,-160.6 1456.26,-143.87 1523.4,-133.11"/>
<polygon fill="midnightblue" stroke="midnightblue" points="1524.11,-136.54 1533.43,-131.5 1523.01,-129.63 1524.11,-136.54"/>
</g>
<!-- Node35 -->
<g id="node35" class="node">
<title>Node35</title>
<g id="a_node35"><a xlink:title=" ">
<polygon fill="white" stroke="#bfbfbf" points="1206,-112.5 1206,-131.5 1285,-131.5 1285,-112.5 1206,-112.5"/>
<text text-anchor="middle" x="1245.5" y="-119.5" font-family="Helvetica,sans-Serif" font-size="10.00">fmt/chrono.h</text>
</a>
</g>
</g>
<!-- Node28&#45;&gt;Node35 -->
<g id="edge56" class="edge">
<title>Node28&#45;&gt;Node35</title>
<path fill="none" stroke="midnightblue" d="M1248.84,-168.08C1248.32,-161.01 1247.56,-150.86 1246.91,-141.99"/>
<polygon fill="midnightblue" stroke="midnightblue" points="1250.38,-141.47 1246.15,-131.75 1243.4,-141.98 1250.38,-141.47"/>
</g>
<!-- Node36 -->
<g id="node36" class="node">
<title>Node36</title>
<g id="a_node36"><a xlink:title=" ">
<polygon fill="white" stroke="#bfbfbf" points="1302.5,-112.5 1302.5,-131.5 1362.5,-131.5 1362.5,-112.5 1302.5,-112.5"/>
<text text-anchor="middle" x="1332.5" y="-119.5" font-family="Helvetica,sans-Serif" font-size="10.00">iostream</text>
</a>
</g>
</g>
<!-- Node28&#45;&gt;Node36 -->
<g id="edge58" class="edge">
<title>Node28&#45;&gt;Node36</title>
<path fill="none" stroke="midnightblue" d="M1262.84,-168.32C1275.66,-159.98 1295.28,-147.21 1310.44,-137.35"/>
<polygon fill="midnightblue" stroke="midnightblue" points="1312.72,-140.04 1319.2,-131.65 1308.91,-134.17 1312.72,-140.04"/>
</g>
<!-- Node28&#45;&gt;Node37 -->
<g id="edge60" class="edge">
<title>Node28&#45;&gt;Node37</title>
<path fill="none" stroke="midnightblue" d="M1293.24,-172.94C1403.14,-162.74 1689.43,-136.18 1793.22,-126.55"/>
<polygon fill="midnightblue" stroke="midnightblue" points="1793.62,-130.03 1803.25,-125.62 1792.97,-123.06 1793.62,-130.03"/>
</g>
<!-- Node29&#45;&gt;Node15 -->
<g id="edge48" class="edge">
<title>Node29&#45;&gt;Node15</title>
<path fill="none" stroke="midnightblue" d="M995.01,-112.44C938.1,-102.4 844.23,-85.83 786.91,-75.72"/>
<polygon fill="midnightblue" stroke="midnightblue" points="787.46,-72.26 777,-73.97 786.24,-79.16 787.46,-72.26"/>
</g>
<!-- Node30&#45;&gt;Node15 -->
<g id="edge50" class="edge">
<title>Node30&#45;&gt;Node15</title>
<path fill="none" stroke="midnightblue" d="M1532.42,-117.56C1377.98,-107.74 936.44,-79.65 787.36,-70.17"/>
<polygon fill="midnightblue" stroke="midnightblue" points="787.34,-66.66 777.14,-69.52 786.9,-73.65 787.34,-66.66"/>
</g>
<!-- Node30&#45;&gt;Node25 -->
<g id="edge54" class="edge">
<title>Node30&#45;&gt;Node25</title>
<path fill="none" stroke="midnightblue" d="M1534.04,-112.43C1489.85,-104.81 1424.8,-92.66 1359.72,-76.08"/>
<polygon fill="midnightblue" stroke="midnightblue" points="1360.25,-72.6 1349.69,-73.49 1358.5,-79.38 1360.25,-72.6"/>
</g>
<!-- Node31 -->
<g id="node31" class="node">
<title>Node31</title>
<g id="a_node31"><a xlink:title=" ">
<polygon fill="white" stroke="#bfbfbf" points="1367.5,-56.5 1367.5,-75.5 1453.5,-75.5 1453.5,-56.5 1367.5,-56.5"/>
<text text-anchor="middle" x="1410.5" y="-63.5" font-family="Helvetica,sans-Serif" font-size="10.00">fmt/ostream.h</text>
</a>
</g>
</g>
<!-- Node30&#45;&gt;Node31 -->
<g id="edge51" class="edge">
<title>Node30&#45;&gt;Node31</title>
<path fill="none" stroke="midnightblue" d="M1558.61,-112.44C1528.75,-103.28 1481.19,-88.69 1448.04,-78.52"/>
<polygon fill="midnightblue" stroke="midnightblue" points="1448.84,-75.1 1438.26,-75.52 1446.79,-81.8 1448.84,-75.1"/>
</g>
<!-- Node32 -->
<g id="node32" class="node">
<title>Node32</title>
<g id="a_node32"><a xlink:title=" ">
<polygon fill="white" stroke="#bfbfbf" points="1472,-56.5 1472,-75.5 1533,-75.5 1533,-56.5 1472,-56.5"/>
<text text-anchor="middle" x="1502.5" y="-63.5" font-family="Helvetica,sans-Serif" font-size="10.00">fmt/std.h</text>
</a>
</g>
</g>
<!-- Node30&#45;&gt;Node32 -->
<g id="edge52" class="edge">
<title>Node30&#45;&gt;Node32</title>
<path fill="none" stroke="midnightblue" d="M1573,-112.32C1559.9,-103.9 1539.79,-90.97 1524.39,-81.07"/>
<polygon fill="midnightblue" stroke="midnightblue" points="1526.27,-78.12 1515.96,-75.65 1522.48,-84.01 1526.27,-78.12"/>
</g>
<!-- Node33 -->
<g id="node33" class="node">
<title>Node33</title>
<g id="a_node33"><a xlink:title=" ">
<polygon fill="white" stroke="#bfbfbf" points="1551.5,-56.5 1551.5,-75.5 1595.5,-75.5 1595.5,-56.5 1551.5,-56.5"/>
<text text-anchor="middle" x="1573.5" y="-63.5" font-family="Helvetica,sans-Serif" font-size="10.00">limits</text>
</a>
</g>
</g>
<!-- Node30&#45;&gt;Node33 -->
<g id="edge53" class="edge">
<title>Node30&#45;&gt;Node33</title>
<path fill="none" stroke="midnightblue" d="M1584.35,-112.08C1582.63,-104.93 1580.15,-94.64 1578,-85.69"/>
<polygon fill="midnightblue" stroke="midnightblue" points="1581.35,-84.65 1575.61,-75.75 1574.54,-86.29 1581.35,-84.65"/>
</g>
<!-- Node34 -->
<g id="node34" class="node">
<title>Node34</title>
<g id="a_node34"><a xlink:title=" ">
<polygon fill="white" stroke="#bfbfbf" points="1613.5,-56.5 1613.5,-75.5 1661.5,-75.5 1661.5,-56.5 1613.5,-56.5"/>
<text text-anchor="middle" x="1637.5" y="-63.5" font-family="Helvetica,sans-Serif" font-size="10.00">thread</text>
</a>
</g>
</g>
<!-- Node30&#45;&gt;Node34 -->
<g id="edge55" class="edge">
<title>Node30&#45;&gt;Node34</title>
<path fill="none" stroke="midnightblue" d="M1594.92,-112.08C1602.35,-104.22 1613.35,-92.57 1622.31,-83.08"/>
<polygon fill="midnightblue" stroke="midnightblue" points="1624.91,-85.42 1629.24,-75.75 1619.82,-80.62 1624.91,-85.42"/>
</g>
<!-- Node38&#45;&gt;Node4 -->
<g id="edge65" class="edge">
<title>Node38&#45;&gt;Node4</title>
<path fill="none" stroke="midnightblue" d="M1545.67,-232.41C1527.83,-229.42 1505.54,-226.03 1485.5,-224 1155.12,-190.49 755.07,-181.71 618.16,-179.61"/>
<polygon fill="midnightblue" stroke="midnightblue" points="618.05,-176.11 608,-179.46 617.95,-183.11 618.05,-176.11"/>
</g>
<!-- Node38&#45;&gt;Node6 -->
<g id="edge71" class="edge">
<title>Node38&#45;&gt;Node6</title>
<path fill="none" stroke="midnightblue" d="M1580.12,-229.91C1581.51,-215.81 1585.91,-187.37 1599.5,-168 1615.22,-145.58 1632.87,-153.75 1649.5,-132 1670.79,-104.16 1694.63,-81.42 1670.5,-56 1641.31,-25.25 991.89,-13.75 837.99,-11.45"/>
<polygon fill="midnightblue" stroke="midnightblue" points="837.83,-7.95 827.78,-11.3 837.73,-14.95 837.83,-7.95"/>
</g>
<!-- Node38&#45;&gt;Node13 -->
<g id="edge72" class="edge">
<title>Node38&#45;&gt;Node13</title>
<path fill="none" stroke="midnightblue" d="M1601.66,-229.9C1607.14,-227.88 1613.01,-225.79 1618.5,-224 1677.54,-204.76 1759.89,-228.63 1746.5,-168 1734.28,-112.65 1729.79,-91.37 1685.5,-56 1661.67,-36.97 1629.24,-25.7 1602.85,-19.2"/>
<polygon fill="midnightblue" stroke="midnightblue" points="1603.6,-15.78 1593.07,-16.94 1602.02,-22.6 1603.6,-15.78"/>
</g>
<!-- Node38&#45;&gt;Node15 -->
<g id="edge68" class="edge">
<title>Node38&#45;&gt;Node15</title>
<path fill="none" stroke="midnightblue" d="M1545.6,-233.03C1527.74,-230.2 1505.45,-226.78 1485.5,-224 1345.15,-204.44 988.34,-178.55 854.5,-132 818.43,-119.45 780.45,-96.23 757.88,-81.2"/>
<polygon fill="midnightblue" stroke="midnightblue" points="759.72,-78.22 749.47,-75.51 755.79,-84.02 759.72,-78.22"/>
</g>
<!-- Node38&#45;&gt;Node16 -->
<g id="edge69" class="edge">
<title>Node38&#45;&gt;Node16</title>
<path fill="none" stroke="midnightblue" d="M1567.89,-229.97C1537.24,-207.78 1451,-147.49 1371.5,-112 1338.69,-97.35 1299.77,-85.78 1269.93,-78.04"/>
<polygon fill="midnightblue" stroke="midnightblue" points="1270.74,-74.64 1260.18,-75.57 1269.01,-81.42 1270.74,-74.64"/>
</g>
<!-- Node38&#45;&gt;Node37 -->
<g id="edge70" class="edge">
<title>Node38&#45;&gt;Node37</title>
<path fill="none" stroke="midnightblue" d="M1613.24,-236.52C1655.22,-232.67 1727.7,-221.33 1779.5,-188 1798.04,-176.07 1812.95,-155.27 1821.98,-140.41"/>
<polygon fill="midnightblue" stroke="midnightblue" points="1825.06,-142.07 1827.03,-131.66 1819,-138.57 1825.06,-142.07"/>
</g>
<!-- Node39 -->
<g id="node39" class="node">
<title>Node39</title>
<g id="a_node39"><a xlink:title=" ">
<polygon fill="white" stroke="#bfbfbf" points="1608,-168.5 1608,-187.5 1669,-187.5 1669,-168.5 1608,-168.5"/>
<text text-anchor="middle" x="1638.5" y="-175.5" font-family="Helvetica,sans-Serif" font-size="10.00">charconv</text>
</a>
</g>
</g>
<!-- Node38&#45;&gt;Node39 -->
<g id="edge66" class="edge">
<title>Node38&#45;&gt;Node39</title>
<path fill="none" stroke="midnightblue" d="M1587.95,-229.98C1597.07,-220.78 1611.77,-205.96 1622.98,-194.66"/>
<polygon fill="midnightblue" stroke="midnightblue" points="1625.51,-197.07 1630.06,-187.51 1620.54,-192.15 1625.51,-197.07"/>
</g>
<!-- Node40 -->
<g id="node40" class="node">
<title>Node40</title>
<g id="a_node40"><a xlink:title=" ">
<polygon fill="white" stroke="#bfbfbf" points="1687.5,-168.5 1687.5,-187.5 1737.5,-187.5 1737.5,-168.5 1687.5,-168.5"/>
<text text-anchor="middle" x="1712.5" y="-175.5" font-family="Helvetica,sans-Serif" font-size="10.00">cstdint</text>
</a>
</g>
</g>
<!-- Node38&#45;&gt;Node40 -->
<g id="edge67" class="edge">
<title>Node38&#45;&gt;Node40</title>
<path fill="none" stroke="midnightblue" d="M1598.56,-229.98C1620.97,-219.95 1658.41,-203.2 1684.21,-191.65"/>
<polygon fill="midnightblue" stroke="midnightblue" points="1685.78,-194.79 1693.48,-187.51 1682.92,-188.4 1685.78,-194.79"/>
</g>
</g>
</svg>
        <g id="navigator" transform="translate(0 0)" fill="#404254">
                <rect fill="#f2f5e9" fill-opacity="0.5" stroke="#606060" stroke-width=".5" x="0" y="0" width="60" height="60"/>
                <use id="zoomplus" xlink:href="#zoomPlus" x="17" y="9" onmousedown="handleZoom(evt,'in')"/>
                <use id="zoomminus" xlink:href="#zoomMin" x="42" y="9" onmousedown="handleZoom(evt,'out')"/>
                <use id="reset" xlink:href="#resetDef" x="30" y="36" onmousedown="handleReset()"/>
                <g id="arrowUp" xlink:href="#dirArrow" transform="translate(30 24)" onmousedown="handlePan(0,-1)">
                  <use xlink:href="#rim" fill="#404040">
                        <set attributeName="fill" to="#808080" begin="arrowUp.mouseover" end="arrowUp.mouseout"/>
                  </use>
                  <path fill="none" stroke="white" stroke-width="1.5" d="M0,-3.0v7 M-2.5,-0.5L0,-3.0L2.5,-0.5"/>
                </g>
                <g id="arrowRight" xlink:href="#dirArrow" transform="rotate(90) translate(36 -43)" onmousedown="handlePan(1,0)">
                  <use xlink:href="#rim" fill="#404040">
                        <set attributeName="fill" to="#808080" begin="arrowRight.mouseover" end="arrowRight.mouseout"/>
                  </use>
                  <path fill="none" stroke="white" stroke-width="1.5" d="M0,-3.0v7 M-2.5,-0.5L0,-3.0L2.5,-0.5"/>
                </g>
                <g id="arrowDown" xlink:href="#dirArrow" transform="rotate(180) translate(-30 -48)" onmousedown="handlePan(0,1)">
                  <use xlink:href="#rim" fill="#404040">
                        <set attributeName="fill" to="#808080" begin="arrowDown.mouseover" end="arrowDown.mouseout"/>
                  </use>
                  <path fill="none" stroke="white" stroke-width="1.5" d="M0,-3.0v7 M-2.5,-0.5L0,-3.0L2.5,-0.5"/>
                </g>
                <g id="arrowLeft" xlink:href="#dirArrow" transform="rotate(270) translate(-36 17)" onmousedown="handlePan(-1,0)">
                  <use xlink:href="#rim" fill="#404040">
                        <set attributeName="fill" to="#808080" begin="arrowLeft.mouseover" end="arrowLeft.mouseout"/>
                  </use>
                  <path fill="none" stroke="white" stroke-width="1.5" d="M0,-3.0v7 M-2.5,-0.5L0,-3.0L2.5,-0.5"/>
                </g>
        </g>
        <svg viewBox="0 0 15 15" width="100%" height="30px" preserveAspectRatio="xMaxYMin meet">
         <g id="arrow_out" transform="scale(0.3 0.3)">
          <a xlink:href="quote_8h__incl_org.svg" target="_base">
           <rect id="button" ry="5" rx="5" y="6" x="6" height="38" width="38"
                fill="#f2f5e9" fill-opacity="0.5" stroke="#606060" stroke-width="1.0"/>
           <path id="arrow"
             d="M 11.500037,31.436501 C 11.940474,20.09759 22.043105,11.32322 32.158766,21.979434 L 37.068811,17.246167 C 37.068811,17.246167 37.088388,32 37.088388,32 L 22.160133,31.978069 C 22.160133,31.978069 26.997745,27.140456 26.997745,27.140456 C 18.528582,18.264221 13.291696,25.230495 11.500037,31.436501 z"
             style="fill:#404040;"/>
          </a>
         </g>
        </svg>
</svg>
