<?xml version="1.0" encoding="UTF-8" standalone="no"?>
<!DOCTYPE svg PUBLIC "-//W3C//DTD SVG 1.1//EN"
 "http://www.w3.org/Graphics/SVG/1.1/DTD/svg11.dtd">
<!-- Generated by graphviz version 2.43.0 (0)
 -->
<!-- Title: src/ds/ring_buffer.h Pages: 1 -->
<svg width="1107pt" height="252pt"
 viewBox="0.00 0.00 1106.53 252.00" xmlns="http://www.w3.org/2000/svg" xmlns:xlink="http://www.w3.org/1999/xlink">
<g id="graph0" class="graph" transform="scale(1 1) rotate(0) translate(4 248)">
<title>src/ds/ring_buffer.h</title>
<polygon fill="white" stroke="transparent" points="-4,4 -4,-248 1102.53,-248 1102.53,4 -4,4"/>
<!-- Node1 -->
<g id="node1" class="node">
<title>Node1</title>
<g id="a_node1"><a xlink:title=" ">
<polygon fill="#bfbfbf" stroke="black" points="260.53,-224.5 260.53,-243.5 369.53,-243.5 369.53,-224.5 260.53,-224.5"/>
<text text-anchor="middle" x="315.03" y="-231.5" font-family="Helvetica,sans-Serif" font-size="10.00">src/ds/ring_buffer.h</text>
</a>
</g>
</g>
<!-- Node2 -->
<g id="node2" class="node">
<title>Node2</title>
<g id="a_node2"><a xlink:href="mem_8h.html" target="_top" xlink:title=" ">
<polygon fill="white" stroke="black" points="19.03,-168.5 19.03,-187.5 105.03,-187.5 105.03,-168.5 19.03,-168.5"/>
<text text-anchor="middle" x="62.03" y="-175.5" font-family="Helvetica,sans-Serif" font-size="10.00">ccf/pal/mem.h</text>
</a>
</g>
</g>
<!-- Node1&#45;&gt;Node2 -->
<g id="edge1" class="edge">
<title>Node1&#45;&gt;Node2</title>
<path fill="none" stroke="midnightblue" d="M274.94,-224.44C230.72,-215 159.49,-199.8 111.75,-189.61"/>
<polygon fill="midnightblue" stroke="midnightblue" points="112.44,-186.18 101.93,-187.52 110.98,-193.03 112.44,-186.18"/>
</g>
<!-- Node4 -->
<g id="node4" class="node">
<title>Node4</title>
<g id="a_node4"><a xlink:title=" ">
<polygon fill="white" stroke="#bfbfbf" points="131.03,-0.5 131.03,-19.5 181.03,-19.5 181.03,-0.5 131.03,-0.5"/>
<text text-anchor="middle" x="156.03" y="-7.5" font-family="Helvetica,sans-Serif" font-size="10.00">cstring</text>
</a>
</g>
</g>
<!-- Node1&#45;&gt;Node4 -->
<g id="edge40" class="edge">
<title>Node1&#45;&gt;Node4</title>
<path fill="none" stroke="midnightblue" d="M304.52,-224.26C278.61,-202.17 211.16,-141.15 175.03,-76 167.01,-61.54 162.07,-43.35 159.25,-29.9"/>
<polygon fill="midnightblue" stroke="midnightblue" points="162.65,-29.06 157.35,-19.89 155.77,-30.37 162.65,-29.06"/>
</g>
<!-- Node6 -->
<g id="node6" class="node">
<title>Node6</title>
<g id="a_node6"><a xlink:href="ring__buffer__types_8h.html" target="_top" xlink:title=" ">
<polygon fill="white" stroke="black" points="429.03,-168.5 429.03,-187.5 539.03,-187.5 539.03,-168.5 429.03,-168.5"/>
<text text-anchor="middle" x="484.03" y="-175.5" font-family="Helvetica,sans-Serif" font-size="10.00">ring_buffer_types.h</text>
</a>
</g>
</g>
<!-- Node1&#45;&gt;Node6 -->
<g id="edge5" class="edge">
<title>Node1&#45;&gt;Node6</title>
<path fill="none" stroke="midnightblue" d="M341.81,-224.44C370.36,-215.32 415.76,-200.81 447.57,-190.65"/>
<polygon fill="midnightblue" stroke="midnightblue" points="448.92,-193.89 457.38,-187.52 446.79,-187.23 448.92,-193.89"/>
</g>
<!-- Node28 -->
<g id="node28" class="node">
<title>Node28</title>
<g id="a_node28"><a xlink:title=" ">
<polygon fill="white" stroke="#bfbfbf" points="557.53,-168.5 557.53,-187.5 622.53,-187.5 622.53,-168.5 557.53,-168.5"/>
<text text-anchor="middle" x="590.03" y="-175.5" font-family="Helvetica,sans-Serif" font-size="10.00">functional</text>
</a>
</g>
</g>
<!-- Node1&#45;&gt;Node28 -->
<g id="edge41" class="edge">
<title>Node1&#45;&gt;Node28</title>
<path fill="none" stroke="midnightblue" d="M360.63,-224.48C405.52,-216.02 476.32,-202.52 547.45,-188.08"/>
<polygon fill="midnightblue" stroke="midnightblue" points="548.38,-191.47 557.49,-186.04 546.99,-184.61 548.38,-191.47"/>
</g>
<!-- Node3 -->
<g id="node3" class="node">
<title>Node3</title>
<g id="a_node3"><a xlink:title=" ">
<polygon fill="white" stroke="#bfbfbf" points="12.53,-112.5 12.53,-131.5 65.53,-131.5 65.53,-112.5 12.53,-112.5"/>
<text text-anchor="middle" x="39.03" y="-119.5" font-family="Helvetica,sans-Serif" font-size="10.00">stdlib.h</text>
</a>
</g>
</g>
<!-- Node2&#45;&gt;Node3 -->
<g id="edge2" class="edge">
<title>Node2&#45;&gt;Node3</title>
<path fill="none" stroke="midnightblue" d="M58.23,-168.08C55.12,-160.77 50.61,-150.18 46.74,-141.1"/>
<polygon fill="midnightblue" stroke="midnightblue" points="49.9,-139.58 42.76,-131.75 43.46,-142.32 49.9,-139.58"/>
</g>
<!-- Node2&#45;&gt;Node4 -->
<g id="edge3" class="edge">
<title>Node2&#45;&gt;Node4</title>
<path fill="none" stroke="midnightblue" d="M43.88,-168.45C22.24,-156.99 -9.53,-135.35 3.03,-112 27.95,-65.69 84.44,-37.08 121.37,-22.62"/>
<polygon fill="midnightblue" stroke="midnightblue" points="122.64,-25.88 130.76,-19.08 120.17,-19.33 122.64,-25.88"/>
</g>
<!-- Node5 -->
<g id="node5" class="node">
<title>Node5</title>
<g id="a_node5"><a xlink:title=" ">
<polygon fill="white" stroke="#bfbfbf" points="84.03,-112.5 84.03,-131.5 128.03,-131.5 128.03,-112.5 84.03,-112.5"/>
<text text-anchor="middle" x="106.03" y="-119.5" font-family="Helvetica,sans-Serif" font-size="10.00">limits</text>
</a>
</g>
</g>
<!-- Node2&#45;&gt;Node5 -->
<g id="edge4" class="edge">
<title>Node2&#45;&gt;Node5</title>
<path fill="none" stroke="midnightblue" d="M69.3,-168.08C75.58,-160.38 84.82,-149.03 92.46,-139.65"/>
<polygon fill="midnightblue" stroke="midnightblue" points="95.3,-141.71 98.9,-131.75 89.87,-137.29 95.3,-141.71"/>
</g>
<!-- Node7 -->
<g id="node7" class="node">
<title>Node7</title>
<g id="a_node7"><a xlink:href="include_2ccf_2ds_2hash_8h.html" target="_top" xlink:title=" ">
<polygon fill="white" stroke="black" points="236.03,-112.5 236.03,-131.5 316.03,-131.5 316.03,-112.5 236.03,-112.5"/>
<text text-anchor="middle" x="276.03" y="-119.5" font-family="Helvetica,sans-Serif" font-size="10.00">ccf/ds/hash.h</text>
</a>
</g>
</g>
<!-- Node6&#45;&gt;Node7 -->
<g id="edge6" class="edge">
<title>Node6&#45;&gt;Node7</title>
<path fill="none" stroke="midnightblue" d="M451.07,-168.44C415.24,-159.14 357.87,-144.25 318.64,-134.06"/>
<polygon fill="midnightblue" stroke="midnightblue" points="319.39,-130.64 308.84,-131.52 317.64,-137.42 319.39,-130.64"/>
</g>
<!-- Node11 -->
<g id="node11" class="node">
<title>Node11</title>
<g id="a_node11"><a xlink:title=" ">
<polygon fill="white" stroke="#bfbfbf" points="517.53,-0.5 517.53,-19.5 564.53,-19.5 564.53,-0.5 517.53,-0.5"/>
<text text-anchor="middle" x="541.03" y="-7.5" font-family="Helvetica,sans-Serif" font-size="10.00">vector</text>
</a>
</g>
</g>
<!-- Node6&#45;&gt;Node11 -->
<g id="edge39" class="edge">
<title>Node6&#45;&gt;Node11</title>
<path fill="none" stroke="midnightblue" d="M514.28,-168.49C532.16,-161.73 553.33,-150.29 564.03,-132 583.29,-99.07 564.53,-53.27 551.4,-28.53"/>
<polygon fill="midnightblue" stroke="midnightblue" points="554.33,-26.61 546.4,-19.59 548.22,-30.03 554.33,-26.61"/>
</g>
<!-- Node14 -->
<g id="node14" class="node">
<title>Node14</title>
<g id="a_node14"><a xlink:href="nonstd_8h.html" target="_top" xlink:title=" ">
<polygon fill="white" stroke="black" points="784.03,-56.5 784.03,-75.5 874.03,-75.5 874.03,-56.5 784.03,-56.5"/>
<text text-anchor="middle" x="829.03" y="-63.5" font-family="Helvetica,sans-Serif" font-size="10.00">ccf/ds/nonstd.h</text>
</a>
</g>
</g>
<!-- Node6&#45;&gt;Node14 -->
<g id="edge15" class="edge">
<title>Node6&#45;&gt;Node14</title>
<path fill="none" stroke="midnightblue" d="M537.48,-168.49C604.91,-157.58 714.29,-139.19 732.03,-132 762.36,-119.71 793.01,-97.07 811.52,-82.03"/>
<polygon fill="midnightblue" stroke="midnightblue" points="813.89,-84.6 819.35,-75.52 809.42,-79.22 813.89,-84.6"/>
</g>
<!-- Node17 -->
<g id="node17" class="node">
<title>Node17</title>
<g id="a_node17"><a xlink:title=" ">
<polygon fill="white" stroke="#bfbfbf" points="666.03,-0.5 666.03,-19.5 710.03,-19.5 710.03,-0.5 666.03,-0.5"/>
<text text-anchor="middle" x="688.03" y="-7.5" font-family="Helvetica,sans-Serif" font-size="10.00">string</text>
</a>
</g>
</g>
<!-- Node6&#45;&gt;Node17 -->
<g id="edge38" class="edge">
<title>Node6&#45;&gt;Node17</title>
<path fill="none" stroke="midnightblue" d="M511.67,-168.48C550.63,-155.08 621.36,-125.37 661.03,-76 672.02,-62.32 679.18,-43.53 683.34,-29.67"/>
<polygon fill="midnightblue" stroke="midnightblue" points="686.78,-30.38 686.06,-19.81 680.03,-28.52 686.78,-30.38"/>
</g>
<!-- Node20 -->
<g id="node20" class="node">
<title>Node20</title>
<g id="a_node20"><a xlink:href="serializer_8h.html" target="_top" xlink:title=" ">
<polygon fill="white" stroke="black" points="794.03,-112.5 794.03,-131.5 864.03,-131.5 864.03,-112.5 794.03,-112.5"/>
<text text-anchor="middle" x="829.03" y="-119.5" font-family="Helvetica,sans-Serif" font-size="10.00">serializer.h</text>
</a>
</g>
</g>
<!-- Node6&#45;&gt;Node20 -->
<g id="edge23" class="edge">
<title>Node6&#45;&gt;Node20</title>
<path fill="none" stroke="midnightblue" d="M539.04,-168.69C597.57,-159.8 692.89,-145.2 775.03,-132 777.89,-131.54 780.83,-131.06 783.8,-130.58"/>
<polygon fill="midnightblue" stroke="midnightblue" points="784.59,-134 793.89,-128.92 783.46,-127.09 784.59,-134"/>
</g>
<!-- Node25 -->
<g id="node25" class="node">
<title>Node25</title>
<g id="a_node25"><a xlink:title=" ">
<polygon fill="white" stroke="#bfbfbf" points="334.03,-112.5 334.03,-131.5 384.03,-131.5 384.03,-112.5 334.03,-112.5"/>
<text text-anchor="middle" x="359.03" y="-119.5" font-family="Helvetica,sans-Serif" font-size="10.00">atomic</text>
</a>
</g>
</g>
<!-- Node6&#45;&gt;Node25 -->
<g id="edge35" class="edge">
<title>Node6&#45;&gt;Node25</title>
<path fill="none" stroke="midnightblue" d="M464.23,-168.44C443.74,-159.6 411.55,-145.69 388.17,-135.59"/>
<polygon fill="midnightblue" stroke="midnightblue" points="389.31,-132.27 378.75,-131.52 386.54,-138.7 389.31,-132.27"/>
</g>
<!-- Node26 -->
<g id="node26" class="node">
<title>Node26</title>
<g id="a_node26"><a xlink:title=" ">
<polygon fill="white" stroke="#bfbfbf" points="402.53,-112.5 402.53,-131.5 481.53,-131.5 481.53,-112.5 402.53,-112.5"/>
<text text-anchor="middle" x="442.03" y="-119.5" font-family="Helvetica,sans-Serif" font-size="10.00">fmt/format.h</text>
</a>
</g>
</g>
<!-- Node6&#45;&gt;Node26 -->
<g id="edge36" class="edge">
<title>Node6&#45;&gt;Node26</title>
<path fill="none" stroke="midnightblue" d="M477.1,-168.08C471.1,-160.38 462.28,-149.03 454.98,-139.65"/>
<polygon fill="midnightblue" stroke="midnightblue" points="457.74,-137.5 448.84,-131.75 452.21,-141.79 457.74,-137.5"/>
</g>
<!-- Node27 -->
<g id="node27" class="node">
<title>Node27</title>
<g id="a_node27"><a xlink:title=" ">
<polygon fill="white" stroke="#bfbfbf" points="499.03,-112.5 499.03,-131.5 555.03,-131.5 555.03,-112.5 499.03,-112.5"/>
<text text-anchor="middle" x="527.03" y="-119.5" font-family="Helvetica,sans-Serif" font-size="10.00">optional</text>
</a>
</g>
</g>
<!-- Node6&#45;&gt;Node27 -->
<g id="edge37" class="edge">
<title>Node6&#45;&gt;Node27</title>
<path fill="none" stroke="midnightblue" d="M491.13,-168.08C497.27,-160.38 506.3,-149.03 513.77,-139.65"/>
<polygon fill="midnightblue" stroke="midnightblue" points="516.57,-141.75 520.06,-131.75 511.1,-137.39 516.57,-141.75"/>
</g>
<!-- Node8 -->
<g id="node8" class="node">
<title>Node8</title>
<g id="a_node8"><a xlink:href="siphash_8h.html" target="_top" xlink:title=" ">
<polygon fill="white" stroke="black" points="184.53,-56.5 184.53,-75.5 279.53,-75.5 279.53,-56.5 184.53,-56.5"/>
<text text-anchor="middle" x="232.03" y="-63.5" font-family="Helvetica,sans-Serif" font-size="10.00">ccf/ds/siphash.h</text>
</a>
</g>
</g>
<!-- Node7&#45;&gt;Node8 -->
<g id="edge7" class="edge">
<title>Node7&#45;&gt;Node8</title>
<path fill="none" stroke="midnightblue" d="M268.77,-112.08C262.49,-104.38 253.24,-93.03 245.6,-83.65"/>
<polygon fill="midnightblue" stroke="midnightblue" points="248.19,-81.29 239.16,-75.75 242.77,-85.71 248.19,-81.29"/>
</g>
<!-- Node10 -->
<g id="node10" class="node">
<title>Node10</title>
<g id="a_node10"><a xlink:title=" ">
<polygon fill="white" stroke="#bfbfbf" points="283.03,-0.5 283.03,-19.5 333.03,-19.5 333.03,-0.5 283.03,-0.5"/>
<text text-anchor="middle" x="308.03" y="-7.5" font-family="Helvetica,sans-Serif" font-size="10.00">cstdint</text>
</a>
</g>
</g>
<!-- Node7&#45;&gt;Node10 -->
<g id="edge12" class="edge">
<title>Node7&#45;&gt;Node10</title>
<path fill="none" stroke="midnightblue" d="M278.54,-112.37C283.73,-94.54 295.73,-53.3 302.72,-29.27"/>
<polygon fill="midnightblue" stroke="midnightblue" points="306.1,-30.17 305.53,-19.59 299.38,-28.22 306.1,-30.17"/>
</g>
<!-- Node7&#45;&gt;Node11 -->
<g id="edge14" class="edge">
<title>Node7&#45;&gt;Node11</title>
<path fill="none" stroke="midnightblue" d="M285.14,-112.48C300.45,-98.61 332.84,-71.18 365.03,-56 411.77,-33.97 470.76,-21.7 507.19,-15.73"/>
<polygon fill="midnightblue" stroke="midnightblue" points="507.95,-19.15 517.28,-14.14 506.86,-12.24 507.95,-19.15"/>
</g>
<!-- Node12 -->
<g id="node12" class="node">
<title>Node12</title>
<g id="a_node12"><a xlink:title=" ">
<polygon fill="white" stroke="#bfbfbf" points="728.03,-0.5 728.03,-19.5 770.03,-19.5 770.03,-0.5 728.03,-0.5"/>
<text text-anchor="middle" x="749.03" y="-7.5" font-family="Helvetica,sans-Serif" font-size="10.00">array</text>
</a>
</g>
</g>
<!-- Node7&#45;&gt;Node12 -->
<g id="edge11" class="edge">
<title>Node7&#45;&gt;Node12</title>
<path fill="none" stroke="midnightblue" d="M316.1,-113.39C319.12,-112.89 322.12,-112.42 325.03,-112 473.66,-90.42 521.09,-130.51 661.03,-76 689.37,-64.96 716.68,-42.31 733.16,-26.89"/>
<polygon fill="midnightblue" stroke="midnightblue" points="735.97,-29.04 740.75,-19.58 731.12,-24 735.97,-29.04"/>
</g>
<!-- Node13 -->
<g id="node13" class="node">
<title>Node13</title>
<g id="a_node13"><a xlink:title=" ">
<polygon fill="white" stroke="#bfbfbf" points="373.53,-56.5 373.53,-75.5 522.53,-75.5 522.53,-56.5 373.53,-56.5"/>
<text text-anchor="middle" x="448.03" y="-63.5" font-family="Helvetica,sans-Serif" font-size="10.00">small_vector/SmallVector.h</text>
</a>
</g>
</g>
<!-- Node7&#45;&gt;Node13 -->
<g id="edge13" class="edge">
<title>Node7&#45;&gt;Node13</title>
<path fill="none" stroke="midnightblue" d="M303.29,-112.44C332.47,-103.28 378.95,-88.69 411.34,-78.52"/>
<polygon fill="midnightblue" stroke="midnightblue" points="412.41,-81.85 420.91,-75.52 410.32,-75.17 412.41,-81.85"/>
</g>
<!-- Node9 -->
<g id="node9" class="node">
<title>Node9</title>
<g id="a_node9"><a xlink:title=" ">
<polygon fill="white" stroke="#bfbfbf" points="205.53,-0.5 205.53,-19.5 258.53,-19.5 258.53,-0.5 205.53,-0.5"/>
<text text-anchor="middle" x="232.03" y="-7.5" font-family="Helvetica,sans-Serif" font-size="10.00">cstddef</text>
</a>
</g>
</g>
<!-- Node8&#45;&gt;Node9 -->
<g id="edge8" class="edge">
<title>Node8&#45;&gt;Node9</title>
<path fill="none" stroke="midnightblue" d="M232.03,-56.08C232.03,-49.01 232.03,-38.86 232.03,-29.99"/>
<polygon fill="midnightblue" stroke="midnightblue" points="235.53,-29.75 232.03,-19.75 228.53,-29.75 235.53,-29.75"/>
</g>
<!-- Node8&#45;&gt;Node10 -->
<g id="edge9" class="edge">
<title>Node8&#45;&gt;Node10</title>
<path fill="none" stroke="midnightblue" d="M244.24,-56.32C255.81,-48.11 273.41,-35.6 287.19,-25.81"/>
<polygon fill="midnightblue" stroke="midnightblue" points="289.47,-28.48 295.6,-19.83 285.42,-22.77 289.47,-28.48"/>
</g>
<!-- Node8&#45;&gt;Node11 -->
<g id="edge10" class="edge">
<title>Node8&#45;&gt;Node11</title>
<path fill="none" stroke="midnightblue" d="M279.64,-56.68C342.62,-45.67 452.08,-26.55 507.22,-16.91"/>
<polygon fill="midnightblue" stroke="midnightblue" points="507.93,-20.34 517.18,-15.17 506.73,-13.44 507.93,-20.34"/>
</g>
<!-- Node14&#45;&gt;Node11 -->
<g id="edge22" class="edge">
<title>Node14&#45;&gt;Node11</title>
<path fill="none" stroke="midnightblue" d="M783.84,-57.54C725.72,-47.86 626.98,-31.11 574.84,-19.97"/>
<polygon fill="midnightblue" stroke="midnightblue" points="575.28,-16.48 564.76,-17.75 573.77,-23.32 575.28,-16.48"/>
</g>
<!-- Node14&#45;&gt;Node12 -->
<g id="edge17" class="edge">
<title>Node14&#45;&gt;Node12</title>
<path fill="none" stroke="midnightblue" d="M816.18,-56.32C803.82,-47.98 784.9,-35.21 770.29,-25.35"/>
<polygon fill="midnightblue" stroke="midnightblue" points="772.1,-22.35 761.85,-19.65 768.18,-28.15 772.1,-22.35"/>
</g>
<!-- Node15 -->
<g id="node15" class="node">
<title>Node15</title>
<g id="a_node15"><a xlink:title=" ">
<polygon fill="white" stroke="#bfbfbf" points="880.03,-0.5 880.03,-19.5 944.03,-19.5 944.03,-0.5 880.03,-0.5"/>
<text text-anchor="middle" x="912.03" y="-7.5" font-family="Helvetica,sans-Serif" font-size="10.00">algorithm</text>
</a>
</g>
</g>
<!-- Node14&#45;&gt;Node15 -->
<g id="edge16" class="edge">
<title>Node14&#45;&gt;Node15</title>
<path fill="none" stroke="midnightblue" d="M842.37,-56.32C855.19,-47.98 874.82,-35.21 889.97,-25.35"/>
<polygon fill="midnightblue" stroke="midnightblue" points="892.26,-28.04 898.73,-19.65 888.44,-22.17 892.26,-28.04"/>
</g>
<!-- Node16 -->
<g id="node16" class="node">
<title>Node16</title>
<g id="a_node16"><a xlink:title=" ">
<polygon fill="white" stroke="#bfbfbf" points="962.53,-0.5 962.53,-19.5 1011.53,-19.5 1011.53,-0.5 962.53,-0.5"/>
<text text-anchor="middle" x="987.03" y="-7.5" font-family="Helvetica,sans-Serif" font-size="10.00">cctype</text>
</a>
</g>
</g>
<!-- Node14&#45;&gt;Node16 -->
<g id="edge18" class="edge">
<title>Node14&#45;&gt;Node16</title>
<path fill="none" stroke="midnightblue" d="M854.07,-56.44C880.73,-47.33 923.09,-32.85 952.82,-22.69"/>
<polygon fill="midnightblue" stroke="midnightblue" points="954.04,-25.97 962.37,-19.43 951.78,-19.35 954.04,-25.97"/>
</g>
<!-- Node14&#45;&gt;Node17 -->
<g id="edge19" class="edge">
<title>Node14&#45;&gt;Node17</title>
<path fill="none" stroke="midnightblue" d="M806.69,-56.44C783.28,-47.48 746.3,-33.31 719.84,-23.18"/>
<polygon fill="midnightblue" stroke="midnightblue" points="720.86,-19.82 710.27,-19.52 718.36,-26.36 720.86,-19.82"/>
</g>
<!-- Node18 -->
<g id="node18" class="node">
<title>Node18</title>
<g id="a_node18"><a xlink:title=" ">
<polygon fill="white" stroke="#bfbfbf" points="788.53,-0.5 788.53,-19.5 861.53,-19.5 861.53,-0.5 788.53,-0.5"/>
<text text-anchor="middle" x="825.03" y="-7.5" font-family="Helvetica,sans-Serif" font-size="10.00">string_view</text>
</a>
</g>
</g>
<!-- Node14&#45;&gt;Node18 -->
<g id="edge20" class="edge">
<title>Node14&#45;&gt;Node18</title>
<path fill="none" stroke="midnightblue" d="M828.37,-56.08C827.85,-49.01 827.1,-38.86 826.44,-29.99"/>
<polygon fill="midnightblue" stroke="midnightblue" points="829.91,-29.47 825.68,-19.75 822.93,-29.98 829.91,-29.47"/>
</g>
<!-- Node19 -->
<g id="node19" class="node">
<title>Node19</title>
<g id="a_node19"><a xlink:title=" ">
<polygon fill="white" stroke="#bfbfbf" points="1029.53,-0.5 1029.53,-19.5 1098.53,-19.5 1098.53,-0.5 1029.53,-0.5"/>
<text text-anchor="middle" x="1064.03" y="-7.5" font-family="Helvetica,sans-Serif" font-size="10.00">type_traits</text>
</a>
</g>
</g>
<!-- Node14&#45;&gt;Node19 -->
<g id="edge21" class="edge">
<title>Node14&#45;&gt;Node19</title>
<path fill="none" stroke="midnightblue" d="M866.27,-56.44C907.81,-46.9 975,-31.46 1019.34,-21.27"/>
<polygon fill="midnightblue" stroke="midnightblue" points="1020.31,-24.64 1029.27,-18.99 1018.74,-17.82 1020.31,-24.64"/>
</g>
<!-- Node20&#45;&gt;Node11 -->
<g id="edge34" class="edge">
<title>Node20&#45;&gt;Node11</title>
<path fill="none" stroke="midnightblue" d="M807.04,-112.41C774.98,-99.9 713.49,-75.98 661.03,-56 631.43,-44.72 597.63,-32.07 573.47,-23.06"/>
<polygon fill="midnightblue" stroke="midnightblue" points="574.66,-19.77 564.06,-19.56 572.21,-26.33 574.66,-19.77"/>
</g>
<!-- Node20&#45;&gt;Node14 -->
<g id="edge24" class="edge">
<title>Node20&#45;&gt;Node14</title>
<path fill="none" stroke="midnightblue" d="M829.03,-112.08C829.03,-105.01 829.03,-94.86 829.03,-85.99"/>
<polygon fill="midnightblue" stroke="midnightblue" points="832.53,-85.75 829.03,-75.75 825.53,-85.75 832.53,-85.75"/>
</g>
<!-- Node20&#45;&gt;Node19 -->
<g id="edge33" class="edge">
<title>Node20&#45;&gt;Node19</title>
<path fill="none" stroke="midnightblue" d="M838.86,-112.48C855,-98.85 888.61,-72.06 921.03,-56 952.53,-40.39 990.6,-28.73 1019.54,-21.19"/>
<polygon fill="midnightblue" stroke="midnightblue" points="1020.54,-24.55 1029.37,-18.7 1018.81,-17.76 1020.54,-24.55"/>
</g>
<!-- Node21 -->
<g id="node21" class="node">
<title>Node21</title>
<g id="a_node21"><a xlink:href="serialized_8h.html" target="_top" xlink:title=" ">
<polygon fill="white" stroke="black" points="578.53,-56.5 578.53,-75.5 651.53,-75.5 651.53,-56.5 578.53,-56.5"/>
<text text-anchor="middle" x="615.03" y="-63.5" font-family="Helvetica,sans-Serif" font-size="10.00">serialized.h</text>
</a>
</g>
</g>
<!-- Node20&#45;&gt;Node21 -->
<g id="edge25" class="edge">
<title>Node20&#45;&gt;Node21</title>
<path fill="none" stroke="midnightblue" d="M795.12,-112.44C758.18,-103.12 698.98,-88.18 658.61,-78"/>
<polygon fill="midnightblue" stroke="midnightblue" points="659.33,-74.57 648.78,-75.52 657.62,-81.36 659.33,-74.57"/>
</g>
<!-- Node23 -->
<g id="node23" class="node">
<title>Node23</title>
<g id="a_node23"><a xlink:title=" ">
<polygon fill="white" stroke="#bfbfbf" points="930.03,-56.5 930.03,-75.5 988.03,-75.5 988.03,-56.5 930.03,-56.5"/>
<text text-anchor="middle" x="959.03" y="-63.5" font-family="Helvetica,sans-Serif" font-size="10.00">memory</text>
</a>
</g>
</g>
<!-- Node20&#45;&gt;Node23 -->
<g id="edge31" class="edge">
<title>Node20&#45;&gt;Node23</title>
<path fill="none" stroke="midnightblue" d="M849.63,-112.44C871.03,-103.56 904.71,-89.56 929.06,-79.45"/>
<polygon fill="midnightblue" stroke="midnightblue" points="930.64,-82.58 938.53,-75.52 927.95,-76.12 930.64,-82.58"/>
</g>
<!-- Node24 -->
<g id="node24" class="node">
<title>Node24</title>
<g id="a_node24"><a xlink:title=" ">
<polygon fill="white" stroke="#bfbfbf" points="1006.53,-56.5 1006.53,-75.5 1047.53,-75.5 1047.53,-56.5 1006.53,-56.5"/>
<text text-anchor="middle" x="1027.03" y="-63.5" font-family="Helvetica,sans-Serif" font-size="10.00">tuple</text>
</a>
</g>
</g>
<!-- Node20&#45;&gt;Node24 -->
<g id="edge32" class="edge">
<title>Node20&#45;&gt;Node24</title>
<path fill="none" stroke="midnightblue" d="M861.95,-112.49C893.89,-104.17 943.96,-90.94 996.55,-76.07"/>
<polygon fill="midnightblue" stroke="midnightblue" points="997.73,-79.38 1006.4,-73.28 995.82,-72.64 997.73,-79.38"/>
</g>
<!-- Node21&#45;&gt;Node4 -->
<g id="edge27" class="edge">
<title>Node21&#45;&gt;Node4</title>
<path fill="none" stroke="midnightblue" d="M578.26,-61C563.84,-59.44 547.16,-57.63 532.03,-56 382.71,-39.9 344.2,-44.52 196.03,-20 194.54,-19.75 193.02,-19.49 191.49,-19.2"/>
<polygon fill="midnightblue" stroke="midnightblue" points="191.83,-15.7 181.34,-17.15 190.45,-22.56 191.83,-15.7"/>
</g>
<!-- Node21&#45;&gt;Node10 -->
<g id="edge26" class="edge">
<title>Node21&#45;&gt;Node10</title>
<path fill="none" stroke="midnightblue" d="M578.31,-58.54C518.7,-48.06 401.68,-27.47 343.14,-17.17"/>
<polygon fill="midnightblue" stroke="midnightblue" points="343.7,-13.72 333.25,-15.44 342.49,-20.62 343.7,-13.72"/>
</g>
<!-- Node21&#45;&gt;Node11 -->
<g id="edge30" class="edge">
<title>Node21&#45;&gt;Node11</title>
<path fill="none" stroke="midnightblue" d="M603.14,-56.32C591.88,-48.11 574.75,-35.6 561.32,-25.81"/>
<polygon fill="midnightblue" stroke="midnightblue" points="563.28,-22.9 553.14,-19.83 559.15,-28.56 563.28,-22.9"/>
</g>
<!-- Node21&#45;&gt;Node17 -->
<g id="edge29" class="edge">
<title>Node21&#45;&gt;Node17</title>
<path fill="none" stroke="midnightblue" d="M626.76,-56.32C637.87,-48.11 654.77,-35.6 668.02,-25.81"/>
<polygon fill="midnightblue" stroke="midnightblue" points="670.13,-28.59 676.09,-19.83 665.97,-22.97 670.13,-28.59"/>
</g>
<!-- Node22 -->
<g id="node22" class="node">
<title>Node22</title>
<g id="a_node22"><a xlink:title=" ">
<polygon fill="white" stroke="#bfbfbf" points="582.53,-0.5 582.53,-19.5 647.53,-19.5 647.53,-0.5 582.53,-0.5"/>
<text text-anchor="middle" x="615.03" y="-7.5" font-family="Helvetica,sans-Serif" font-size="10.00">stdexcept</text>
</a>
</g>
</g>
<!-- Node21&#45;&gt;Node22 -->
<g id="edge28" class="edge">
<title>Node21&#45;&gt;Node22</title>
<path fill="none" stroke="midnightblue" d="M615.03,-56.08C615.03,-49.01 615.03,-38.86 615.03,-29.99"/>
<polygon fill="midnightblue" stroke="midnightblue" points="618.53,-29.75 615.03,-19.75 611.53,-29.75 618.53,-29.75"/>
</g>
</g>
</svg>
