<?xml version="1.0" encoding="UTF-8" standalone="no"?>
<!DOCTYPE svg PUBLIC "-//W3C//DTD SVG 1.1//EN"
 "http://www.w3.org/Graphics/SVG/1.1/DTD/svg11.dtd">
<!-- Generated by graphviz version 2.43.0 (0)
 -->
<!-- Title: src/enclave/rpc_map.h Pages: 1 -->
<svg width="2054pt" height="498pt"
 viewBox="0.00 0.00 2053.53 498.00" xmlns="http://www.w3.org/2000/svg" xmlns:xlink="http://www.w3.org/1999/xlink">
<g id="graph0" class="graph" transform="scale(1 1) rotate(0) translate(4 494)">
<title>src/enclave/rpc_map.h</title>
<polygon fill="white" stroke="transparent" points="-4,4 -4,-494 2049.53,-494 2049.53,4 -4,4"/>
<!-- Node1 -->
<g id="node1" class="node">
<title>Node1</title>
<g id="a_node1"><a xlink:title=" ">
<polygon fill="#bfbfbf" stroke="black" points="416.53,-470.5 416.53,-489.5 542.53,-489.5 542.53,-470.5 416.53,-470.5"/>
<text text-anchor="middle" x="479.53" y="-477.5" font-family="Helvetica,sans-Serif" font-size="10.00">src/enclave/rpc_map.h</text>
</a>
</g>
</g>
<!-- Node2 -->
<g id="node2" class="node">
<title>Node2</title>
<g id="a_node2"><a xlink:href="actors_8h.html" target="_top" xlink:title=" ">
<polygon fill="white" stroke="black" points="14.03,-56.5 14.03,-75.5 87.03,-75.5 87.03,-56.5 14.03,-56.5"/>
<text text-anchor="middle" x="50.53" y="-63.5" font-family="Helvetica,sans-Serif" font-size="10.00">ccf/actors.h</text>
</a>
</g>
</g>
<!-- Node1&#45;&gt;Node2 -->
<g id="edge1" class="edge">
<title>Node1&#45;&gt;Node2</title>
<path fill="none" stroke="midnightblue" d="M416.39,-474.04C307.17,-463.72 94.53,-435.13 94.53,-369 94.53,-369 94.53,-369 94.53,-182.5 94.53,-145.66 74.74,-106.28 61.7,-84.34"/>
<polygon fill="midnightblue" stroke="midnightblue" points="64.51,-82.23 56.29,-75.56 58.56,-85.91 64.51,-82.23"/>
</g>
<!-- Node5 -->
<g id="node5" class="node">
<title>Node5</title>
<g id="a_node5"><a xlink:href="rpc__handler_8h.html" target="_top" xlink:title=" ">
<polygon fill="white" stroke="black" points="1019.53,-414.5 1019.53,-433.5 1101.53,-433.5 1101.53,-414.5 1019.53,-414.5"/>
<text text-anchor="middle" x="1060.53" y="-421.5" font-family="Helvetica,sans-Serif" font-size="10.00">rpc_handler.h</text>
</a>
</g>
</g>
<!-- Node1&#45;&gt;Node5 -->
<g id="edge4" class="edge">
<title>Node1&#45;&gt;Node5</title>
<path fill="none" stroke="midnightblue" d="M542.54,-473.14C658.25,-462.39 902.49,-439.69 1009.02,-429.79"/>
<polygon fill="midnightblue" stroke="midnightblue" points="1009.56,-433.25 1019.2,-428.84 1008.92,-426.28 1009.56,-433.25"/>
</g>
<!-- Node3 -->
<g id="node3" class="node">
<title>Node3</title>
<g id="a_node3"><a xlink:title=" ">
<polygon fill="white" stroke="#bfbfbf" points="25.53,-0.5 25.53,-19.5 75.53,-19.5 75.53,-0.5 25.53,-0.5"/>
<text text-anchor="middle" x="50.53" y="-7.5" font-family="Helvetica,sans-Serif" font-size="10.00">cstdint</text>
</a>
</g>
</g>
<!-- Node2&#45;&gt;Node3 -->
<g id="edge2" class="edge">
<title>Node2&#45;&gt;Node3</title>
<path fill="none" stroke="midnightblue" d="M50.53,-56.08C50.53,-49.01 50.53,-38.86 50.53,-29.99"/>
<polygon fill="midnightblue" stroke="midnightblue" points="54.03,-29.75 50.53,-19.75 47.03,-29.75 54.03,-29.75"/>
</g>
<!-- Node4 -->
<g id="node4" class="node">
<title>Node4</title>
<g id="a_node4"><a xlink:title=" ">
<polygon fill="white" stroke="#bfbfbf" points="763.53,-0.5 763.53,-19.5 807.53,-19.5 807.53,-0.5 763.53,-0.5"/>
<text text-anchor="middle" x="785.53" y="-7.5" font-family="Helvetica,sans-Serif" font-size="10.00">string</text>
</a>
</g>
</g>
<!-- Node2&#45;&gt;Node4 -->
<g id="edge3" class="edge">
<title>Node2&#45;&gt;Node4</title>
<path fill="none" stroke="midnightblue" d="M87.12,-57.4C90.3,-56.88 93.47,-56.4 96.53,-56 348.03,-23.32 654.42,-13.92 753.2,-11.64"/>
<polygon fill="midnightblue" stroke="midnightblue" points="753.5,-15.14 763.42,-11.42 753.35,-8.14 753.5,-15.14"/>
</g>
<!-- Node6 -->
<g id="node6" class="node">
<title>Node6</title>
<g id="a_node6"><a xlink:href="pem_8h.html" target="_top" xlink:title=" ">
<polygon fill="white" stroke="black" points="1429.53,-241 1429.53,-260 1527.53,-260 1527.53,-241 1429.53,-241"/>
<text text-anchor="middle" x="1478.53" y="-248" font-family="Helvetica,sans-Serif" font-size="10.00">ccf/crypto/pem.h</text>
</a>
</g>
</g>
<!-- Node5&#45;&gt;Node6 -->
<g id="edge5" class="edge">
<title>Node5&#45;&gt;Node6</title>
<path fill="none" stroke="midnightblue" d="M1056.13,-414.37C1049.92,-400.84 1040.69,-374.46 1053.53,-358 1098.25,-300.69 1313.11,-269.59 1419.12,-257.51"/>
<polygon fill="midnightblue" stroke="midnightblue" points="1419.79,-260.96 1429.34,-256.37 1419.01,-254 1419.79,-260.96"/>
</g>
<!-- Node9 -->
<g id="node9" class="node">
<title>Node9</title>
<g id="a_node9"><a xlink:title=" ">
<polygon fill="white" stroke="#bfbfbf" points="1767.03,-0.5 1767.03,-19.5 1814.03,-19.5 1814.03,-0.5 1767.03,-0.5"/>
<text text-anchor="middle" x="1790.53" y="-7.5" font-family="Helvetica,sans-Serif" font-size="10.00">vector</text>
</a>
</g>
</g>
<!-- Node5&#45;&gt;Node9 -->
<g id="edge85" class="edge">
<title>Node5&#45;&gt;Node9</title>
<path fill="none" stroke="midnightblue" d="M1101.6,-422.8C1288.02,-421.36 2045.53,-409.57 2045.53,-313 2045.53,-313 2045.53,-313 2045.53,-121 2045.53,-87.98 2036.14,-75.56 2009.53,-56 1980.5,-34.66 1878.43,-20.61 1824.5,-14.5"/>
<polygon fill="midnightblue" stroke="midnightblue" points="1824.72,-11 1814.4,-13.38 1823.95,-17.96 1824.72,-11"/>
</g>
<!-- Node24 -->
<g id="node24" class="node">
<title>Node24</title>
<g id="a_node24"><a xlink:href="tx_8h.html" target="_top" xlink:title=" ">
<polygon fill="white" stroke="black" points="843.03,-302.5 843.03,-321.5 896.03,-321.5 896.03,-302.5 843.03,-302.5"/>
<text text-anchor="middle" x="869.53" y="-309.5" font-family="Helvetica,sans-Serif" font-size="10.00">ccf/tx.h</text>
</a>
</g>
</g>
<!-- Node5&#45;&gt;Node24 -->
<g id="edge29" class="edge">
<title>Node5&#45;&gt;Node24</title>
<path fill="none" stroke="midnightblue" d="M1045.55,-414.37C1012.49,-395.33 933.11,-349.62 893.23,-326.65"/>
<polygon fill="midnightblue" stroke="midnightblue" points="894.86,-323.55 884.45,-321.59 891.37,-329.62 894.86,-323.55"/>
</g>
<!-- Node31 -->
<g id="node31" class="node">
<title>Node31</title>
<g id="a_node31"><a xlink:title=" ">
<polygon fill="white" stroke="#bfbfbf" points="411.53,-56.5 411.53,-75.5 455.53,-75.5 455.53,-56.5 411.53,-56.5"/>
<text text-anchor="middle" x="433.53" y="-63.5" font-family="Helvetica,sans-Serif" font-size="10.00">limits</text>
</a>
</g>
</g>
<!-- Node5&#45;&gt;Node31 -->
<g id="edge83" class="edge">
<title>Node5&#45;&gt;Node31</title>
<path fill="none" stroke="midnightblue" d="M1019.29,-421C867.76,-413.1 350.53,-381.14 350.53,-313 350.53,-313 350.53,-313 350.53,-249.5 350.53,-183.29 396.36,-114.71 419.91,-83.84"/>
<polygon fill="midnightblue" stroke="midnightblue" points="422.76,-85.87 426.17,-75.84 417.25,-81.56 422.76,-85.87"/>
</g>
<!-- Node41 -->
<g id="node41" class="node">
<title>Node41</title>
<g id="a_node41"><a xlink:href="forwarder__types_8h.html" target="_top" xlink:title=" ">
<polygon fill="white" stroke="black" points="1313.03,-358.5 1313.03,-377.5 1418.03,-377.5 1418.03,-358.5 1313.03,-358.5"/>
<text text-anchor="middle" x="1365.53" y="-365.5" font-family="Helvetica,sans-Serif" font-size="10.00">forwarder_types.h</text>
</a>
</g>
</g>
<!-- Node5&#45;&gt;Node41 -->
<g id="edge67" class="edge">
<title>Node5&#45;&gt;Node41</title>
<path fill="none" stroke="midnightblue" d="M1101.67,-415.72C1154.62,-406.34 1246.96,-389.99 1307.16,-379.33"/>
<polygon fill="midnightblue" stroke="midnightblue" points="1308.04,-382.73 1317.27,-377.54 1306.82,-375.84 1308.04,-382.73"/>
</g>
<!-- Node49 -->
<g id="node49" class="node">
<title>Node49</title>
<g id="a_node49"><a xlink:title=" ">
<polygon fill="white" stroke="#bfbfbf" points="1062.53,-358.5 1062.53,-377.5 1112.53,-377.5 1112.53,-358.5 1062.53,-358.5"/>
<text text-anchor="middle" x="1087.53" y="-365.5" font-family="Helvetica,sans-Serif" font-size="10.00">chrono</text>
</a>
</g>
</g>
<!-- Node5&#45;&gt;Node49 -->
<g id="edge82" class="edge">
<title>Node5&#45;&gt;Node49</title>
<path fill="none" stroke="midnightblue" d="M1064.99,-414.08C1068.69,-406.69 1074.06,-395.95 1078.63,-386.81"/>
<polygon fill="midnightblue" stroke="midnightblue" points="1081.82,-388.26 1083.16,-377.75 1075.55,-385.13 1081.82,-388.26"/>
</g>
<!-- Node50 -->
<g id="node50" class="node">
<title>Node50</title>
<g id="a_node50"><a xlink:title=" ">
<polygon fill="white" stroke="#bfbfbf" points="1131.03,-358.5 1131.03,-377.5 1184.03,-377.5 1184.03,-358.5 1131.03,-358.5"/>
<text text-anchor="middle" x="1157.53" y="-365.5" font-family="Helvetica,sans-Serif" font-size="10.00">stdint.h</text>
</a>
</g>
</g>
<!-- Node5&#45;&gt;Node50 -->
<g id="edge84" class="edge">
<title>Node5&#45;&gt;Node50</title>
<path fill="none" stroke="midnightblue" d="M1076.12,-414.32C1091.53,-405.74 1115.35,-392.49 1133.24,-382.52"/>
<polygon fill="midnightblue" stroke="midnightblue" points="1134.95,-385.58 1141.99,-377.65 1131.55,-379.46 1134.95,-385.58"/>
</g>
<!-- Node7 -->
<g id="node7" class="node">
<title>Node7</title>
<g id="a_node7"><a xlink:href="json_8h.html" target="_top" xlink:title=" ">
<polygon fill="white" stroke="black" points="1146.03,-174 1146.03,-193 1223.03,-193 1223.03,-174 1146.03,-174"/>
<text text-anchor="middle" x="1184.53" y="-181" font-family="Helvetica,sans-Serif" font-size="10.00">ccf/ds/json.h</text>
</a>
</g>
</g>
<!-- Node6&#45;&gt;Node7 -->
<g id="edge6" class="edge">
<title>Node6&#45;&gt;Node7</title>
<path fill="none" stroke="midnightblue" d="M1439.8,-240.94C1386.69,-229.2 1291.3,-208.11 1233.37,-195.3"/>
<polygon fill="midnightblue" stroke="midnightblue" points="1233.88,-191.82 1223.36,-193.08 1232.36,-198.66 1233.88,-191.82"/>
</g>
<!-- Node6&#45;&gt;Node9 -->
<g id="edge28" class="edge">
<title>Node6&#45;&gt;Node9</title>
<path fill="none" stroke="midnightblue" d="M1527.62,-246.17C1564.91,-241.22 1615.27,-229.01 1648.53,-199 1699.58,-152.94 1661.55,-107.11 1707.53,-56 1721,-41.03 1740.67,-30.06 1757.47,-22.7"/>
<polygon fill="midnightblue" stroke="midnightblue" points="1759.06,-25.83 1766.97,-18.78 1756.39,-19.36 1759.06,-25.83"/>
</g>
<!-- Node15 -->
<g id="node15" class="node">
<title>Node15</title>
<g id="a_node15"><a xlink:title=" ">
<polygon fill="white" stroke="#bfbfbf" points="1393.03,-0.5 1393.03,-19.5 1466.03,-19.5 1466.03,-0.5 1393.03,-0.5"/>
<text text-anchor="middle" x="1429.53" y="-7.5" font-family="Helvetica,sans-Serif" font-size="10.00">string_view</text>
</a>
</g>
</g>
<!-- Node6&#45;&gt;Node15 -->
<g id="edge27" class="edge">
<title>Node6&#45;&gt;Node15</title>
<path fill="none" stroke="midnightblue" d="M1527.58,-247.66C1562.79,-243.46 1608.01,-231.53 1631.53,-199 1639.61,-187.83 1637.59,-180.38 1631.53,-168 1621.59,-147.67 1499.44,-60.2 1450.05,-25.38"/>
<polygon fill="midnightblue" stroke="midnightblue" points="1451.91,-22.41 1441.72,-19.52 1447.89,-28.13 1451.91,-22.41"/>
</g>
<!-- Node20 -->
<g id="node20" class="node">
<title>Node20</title>
<g id="a_node20"><a xlink:title=" ">
<polygon fill="white" stroke="#bfbfbf" points="1489.53,-174 1489.53,-193 1539.53,-193 1539.53,-174 1489.53,-174"/>
<text text-anchor="middle" x="1514.53" y="-181" font-family="Helvetica,sans-Serif" font-size="10.00">cstring</text>
</a>
</g>
</g>
<!-- Node6&#45;&gt;Node20 -->
<g id="edge23" class="edge">
<title>Node6&#45;&gt;Node20</title>
<path fill="none" stroke="midnightblue" d="M1483.39,-240.73C1488.84,-230.89 1497.83,-214.66 1504.75,-202.16"/>
<polygon fill="midnightblue" stroke="midnightblue" points="1507.97,-203.57 1509.75,-193.13 1501.85,-200.18 1507.97,-203.57"/>
</g>
<!-- Node21 -->
<g id="node21" class="node">
<title>Node21</title>
<g id="a_node21"><a xlink:title=" ">
<polygon fill="white" stroke="#bfbfbf" points="1558.03,-174 1558.03,-193 1623.03,-193 1623.03,-174 1558.03,-174"/>
<text text-anchor="middle" x="1590.53" y="-181" font-family="Helvetica,sans-Serif" font-size="10.00">exception</text>
</a>
</g>
</g>
<!-- Node6&#45;&gt;Node21 -->
<g id="edge24" class="edge">
<title>Node6&#45;&gt;Node21</title>
<path fill="none" stroke="midnightblue" d="M1493.64,-240.73C1512.45,-229.82 1544.79,-211.05 1566.89,-198.22"/>
<polygon fill="midnightblue" stroke="midnightblue" points="1568.78,-201.17 1575.67,-193.13 1565.26,-195.12 1568.78,-201.17"/>
</g>
<!-- Node22 -->
<g id="node22" class="node">
<title>Node22</title>
<g id="a_node22"><a xlink:title=" ">
<polygon fill="white" stroke="#bfbfbf" points="1413.53,-174 1413.53,-193 1471.53,-193 1471.53,-174 1413.53,-174"/>
<text text-anchor="middle" x="1442.53" y="-181" font-family="Helvetica,sans-Serif" font-size="10.00">memory</text>
</a>
</g>
</g>
<!-- Node6&#45;&gt;Node22 -->
<g id="edge25" class="edge">
<title>Node6&#45;&gt;Node22</title>
<path fill="none" stroke="midnightblue" d="M1473.68,-240.73C1468.23,-230.89 1459.24,-214.66 1452.31,-202.16"/>
<polygon fill="midnightblue" stroke="midnightblue" points="1455.22,-200.18 1447.31,-193.13 1449.09,-203.57 1455.22,-200.18"/>
</g>
<!-- Node23 -->
<g id="node23" class="node">
<title>Node23</title>
<g id="a_node23"><a xlink:title=" ">
<polygon fill="white" stroke="#bfbfbf" points="1355.53,-174 1355.53,-193 1395.53,-193 1395.53,-174 1355.53,-174"/>
<text text-anchor="middle" x="1375.53" y="-181" font-family="Helvetica,sans-Serif" font-size="10.00">span</text>
</a>
</g>
</g>
<!-- Node6&#45;&gt;Node23 -->
<g id="edge26" class="edge">
<title>Node6&#45;&gt;Node23</title>
<path fill="none" stroke="midnightblue" d="M1464.64,-240.73C1447.5,-229.92 1418.13,-211.38 1397.82,-198.57"/>
<polygon fill="midnightblue" stroke="midnightblue" points="1399.53,-195.5 1389.2,-193.13 1395.79,-201.42 1399.53,-195.5"/>
</g>
<!-- Node8 -->
<g id="node8" class="node">
<title>Node8</title>
<g id="a_node8"><a xlink:href="include_2ccf_2crypto_2base64_8h.html" target="_top" xlink:title=" ">
<polygon fill="white" stroke="black" points="1289.53,-56.5 1289.53,-75.5 1401.53,-75.5 1401.53,-56.5 1289.53,-56.5"/>
<text text-anchor="middle" x="1345.53" y="-63.5" font-family="Helvetica,sans-Serif" font-size="10.00">ccf/crypto/base64.h</text>
</a>
</g>
</g>
<!-- Node7&#45;&gt;Node8 -->
<g id="edge7" class="edge">
<title>Node7&#45;&gt;Node8</title>
<path fill="none" stroke="midnightblue" d="M1215.63,-173.97C1222.82,-172 1230.44,-169.92 1237.53,-168 1297.05,-151.86 1334.01,-180.94 1371.53,-132 1382.68,-117.46 1371.69,-97.51 1360.76,-83.56"/>
<polygon fill="midnightblue" stroke="midnightblue" points="1363.29,-81.13 1354.17,-75.75 1357.95,-85.65 1363.29,-81.13"/>
</g>
<!-- Node10 -->
<g id="node10" class="node">
<title>Node10</title>
<g id="a_node10"><a xlink:href="include_2ccf_2ds_2json__schema_8h.html" target="_top" xlink:title=" ">
<polygon fill="white" stroke="black" points="1242.03,-112.5 1242.03,-131.5 1363.03,-131.5 1363.03,-112.5 1242.03,-112.5"/>
<text text-anchor="middle" x="1302.53" y="-119.5" font-family="Helvetica,sans-Serif" font-size="10.00">ccf/ds/json_schema.h</text>
</a>
</g>
</g>
<!-- Node7&#45;&gt;Node10 -->
<g id="edge10" class="edge">
<title>Node7&#45;&gt;Node10</title>
<path fill="none" stroke="midnightblue" d="M1201.44,-173.98C1221.07,-164.08 1253.66,-147.64 1276.52,-136.12"/>
<polygon fill="midnightblue" stroke="midnightblue" points="1278.3,-139.14 1285.66,-131.51 1275.15,-132.89 1278.3,-139.14"/>
</g>
<!-- Node17 -->
<g id="node17" class="node">
<title>Node17</title>
<g id="a_node17"><a xlink:title=" ">
<polygon fill="white" stroke="#bfbfbf" points="1062.03,-56.5 1062.03,-75.5 1141.03,-75.5 1141.03,-56.5 1062.03,-56.5"/>
<text text-anchor="middle" x="1101.53" y="-63.5" font-family="Helvetica,sans-Serif" font-size="10.00">fmt/format.h</text>
</a>
</g>
</g>
<!-- Node7&#45;&gt;Node17 -->
<g id="edge21" class="edge">
<title>Node7&#45;&gt;Node17</title>
<path fill="none" stroke="midnightblue" d="M1189.11,-173.94C1195.93,-159.87 1206.75,-131.48 1194.53,-112 1184.66,-96.25 1167.53,-85.87 1150.64,-79.11"/>
<polygon fill="midnightblue" stroke="midnightblue" points="1151.38,-75.65 1140.79,-75.52 1148.99,-82.23 1151.38,-75.65"/>
</g>
<!-- Node19 -->
<g id="node19" class="node">
<title>Node19</title>
<g id="a_node19"><a xlink:title=" ">
<polygon fill="white" stroke="#bfbfbf" points="1129.53,-112.5 1129.53,-131.5 1185.53,-131.5 1185.53,-112.5 1129.53,-112.5"/>
<text text-anchor="middle" x="1157.53" y="-119.5" font-family="Helvetica,sans-Serif" font-size="10.00">sstream</text>
</a>
</g>
</g>
<!-- Node7&#45;&gt;Node19 -->
<g id="edge22" class="edge">
<title>Node7&#45;&gt;Node19</title>
<path fill="none" stroke="midnightblue" d="M1180.66,-173.98C1176.73,-165.32 1170.53,-151.65 1165.54,-140.65"/>
<polygon fill="midnightblue" stroke="midnightblue" points="1168.71,-139.17 1161.39,-131.51 1162.34,-142.06 1168.71,-139.17"/>
</g>
<!-- Node8&#45;&gt;Node4 -->
<g id="edge8" class="edge">
<title>Node8&#45;&gt;Node4</title>
<path fill="none" stroke="midnightblue" d="M1289.53,-59.6C1173.36,-48.4 909.34,-22.94 817.63,-14.1"/>
<polygon fill="midnightblue" stroke="midnightblue" points="817.86,-10.6 807.57,-13.12 817.19,-17.57 817.86,-10.6"/>
</g>
<!-- Node8&#45;&gt;Node9 -->
<g id="edge9" class="edge">
<title>Node8&#45;&gt;Node9</title>
<path fill="none" stroke="midnightblue" d="M1401.89,-58.16C1495.71,-46.78 1681.07,-24.28 1756.95,-15.07"/>
<polygon fill="midnightblue" stroke="midnightblue" points="1757.41,-18.55 1766.91,-13.87 1756.56,-11.6 1757.41,-18.55"/>
</g>
<!-- Node11 -->
<g id="node11" class="node">
<title>Node11</title>
<g id="a_node11"><a xlink:href="nonstd_8h.html" target="_top" xlink:title=" ">
<polygon fill="white" stroke="black" points="1533.53,-56.5 1533.53,-75.5 1623.53,-75.5 1623.53,-56.5 1533.53,-56.5"/>
<text text-anchor="middle" x="1578.53" y="-63.5" font-family="Helvetica,sans-Serif" font-size="10.00">ccf/ds/nonstd.h</text>
</a>
</g>
</g>
<!-- Node10&#45;&gt;Node11 -->
<g id="edge11" class="edge">
<title>Node10&#45;&gt;Node11</title>
<path fill="none" stroke="midnightblue" d="M1346.27,-112.44C1394.72,-102.96 1472.86,-87.67 1524.95,-77.48"/>
<polygon fill="midnightblue" stroke="midnightblue" points="1525.86,-80.87 1535,-75.52 1524.52,-74 1525.86,-80.87"/>
</g>
<!-- Node10&#45;&gt;Node17 -->
<g id="edge19" class="edge">
<title>Node10&#45;&gt;Node17</title>
<path fill="none" stroke="midnightblue" d="M1270.68,-112.44C1236.13,-103.16 1180.85,-88.31 1142.95,-78.13"/>
<polygon fill="midnightblue" stroke="midnightblue" points="1143.8,-74.73 1133.23,-75.52 1141.98,-81.49 1143.8,-74.73"/>
</g>
<!-- Node18 -->
<g id="node18" class="node">
<title>Node18</title>
<g id="a_node18"><a xlink:title=" ">
<polygon fill="white" stroke="#bfbfbf" points="933.53,-56.5 933.53,-75.5 1043.53,-75.5 1043.53,-56.5 933.53,-56.5"/>
<text text-anchor="middle" x="988.53" y="-63.5" font-family="Helvetica,sans-Serif" font-size="10.00">nlohmann/json.hpp</text>
</a>
</g>
</g>
<!-- Node10&#45;&gt;Node18 -->
<g id="edge20" class="edge">
<title>Node10&#45;&gt;Node18</title>
<path fill="none" stroke="midnightblue" d="M1252.78,-112.44C1197.2,-102.89 1107.27,-87.42 1048.02,-77.23"/>
<polygon fill="midnightblue" stroke="midnightblue" points="1048.5,-73.76 1038.05,-75.52 1047.32,-80.66 1048.5,-73.76"/>
</g>
<!-- Node11&#45;&gt;Node4 -->
<g id="edge15" class="edge">
<title>Node11&#45;&gt;Node4</title>
<path fill="none" stroke="midnightblue" d="M1533.16,-60.53C1516.88,-58.99 1498.39,-57.33 1481.53,-56 1225.88,-35.88 916.89,-18.25 817.77,-12.76"/>
<polygon fill="midnightblue" stroke="midnightblue" points="817.96,-9.27 807.79,-12.21 817.58,-16.26 817.96,-9.27"/>
</g>
<!-- Node11&#45;&gt;Node9 -->
<g id="edge18" class="edge">
<title>Node11&#45;&gt;Node9</title>
<path fill="none" stroke="midnightblue" d="M1612.12,-56.44C1651.86,-46.32 1717.61,-29.57 1757.23,-19.48"/>
<polygon fill="midnightblue" stroke="midnightblue" points="1758.12,-22.87 1766.94,-17.01 1756.39,-16.09 1758.12,-22.87"/>
</g>
<!-- Node12 -->
<g id="node12" class="node">
<title>Node12</title>
<g id="a_node12"><a xlink:title=" ">
<polygon fill="white" stroke="#bfbfbf" points="1551.53,-0.5 1551.53,-19.5 1615.53,-19.5 1615.53,-0.5 1551.53,-0.5"/>
<text text-anchor="middle" x="1583.53" y="-7.5" font-family="Helvetica,sans-Serif" font-size="10.00">algorithm</text>
</a>
</g>
</g>
<!-- Node11&#45;&gt;Node12 -->
<g id="edge12" class="edge">
<title>Node11&#45;&gt;Node12</title>
<path fill="none" stroke="midnightblue" d="M1579.36,-56.08C1580.01,-49.01 1580.95,-38.86 1581.77,-29.99"/>
<polygon fill="midnightblue" stroke="midnightblue" points="1585.29,-30.03 1582.72,-19.75 1578.32,-29.39 1585.29,-30.03"/>
</g>
<!-- Node13 -->
<g id="node13" class="node">
<title>Node13</title>
<g id="a_node13"><a xlink:title=" ">
<polygon fill="white" stroke="#bfbfbf" points="1633.53,-0.5 1633.53,-19.5 1675.53,-19.5 1675.53,-0.5 1633.53,-0.5"/>
<text text-anchor="middle" x="1654.53" y="-7.5" font-family="Helvetica,sans-Serif" font-size="10.00">array</text>
</a>
</g>
</g>
<!-- Node11&#45;&gt;Node13 -->
<g id="edge13" class="edge">
<title>Node11&#45;&gt;Node13</title>
<path fill="none" stroke="midnightblue" d="M1590.74,-56.32C1602.31,-48.11 1619.91,-35.6 1633.69,-25.81"/>
<polygon fill="midnightblue" stroke="midnightblue" points="1635.98,-28.48 1642.1,-19.83 1631.92,-22.77 1635.98,-28.48"/>
</g>
<!-- Node14 -->
<g id="node14" class="node">
<title>Node14</title>
<g id="a_node14"><a xlink:title=" ">
<polygon fill="white" stroke="#bfbfbf" points="1484.03,-0.5 1484.03,-19.5 1533.03,-19.5 1533.03,-0.5 1484.03,-0.5"/>
<text text-anchor="middle" x="1508.53" y="-7.5" font-family="Helvetica,sans-Serif" font-size="10.00">cctype</text>
</a>
</g>
</g>
<!-- Node11&#45;&gt;Node14 -->
<g id="edge14" class="edge">
<title>Node11&#45;&gt;Node14</title>
<path fill="none" stroke="midnightblue" d="M1567.29,-56.32C1556.74,-48.18 1540.73,-35.84 1528.09,-26.09"/>
<polygon fill="midnightblue" stroke="midnightblue" points="1530.04,-23.17 1519.98,-19.83 1525.76,-28.71 1530.04,-23.17"/>
</g>
<!-- Node11&#45;&gt;Node15 -->
<g id="edge16" class="edge">
<title>Node11&#45;&gt;Node15</title>
<path fill="none" stroke="midnightblue" d="M1554.92,-56.44C1530.07,-47.44 1490.76,-33.19 1462.78,-23.05"/>
<polygon fill="midnightblue" stroke="midnightblue" points="1463.63,-19.63 1453.03,-19.52 1461.24,-26.21 1463.63,-19.63"/>
</g>
<!-- Node16 -->
<g id="node16" class="node">
<title>Node16</title>
<g id="a_node16"><a xlink:title=" ">
<polygon fill="white" stroke="#bfbfbf" points="1146.03,-0.5 1146.03,-19.5 1215.03,-19.5 1215.03,-0.5 1146.03,-0.5"/>
<text text-anchor="middle" x="1180.53" y="-7.5" font-family="Helvetica,sans-Serif" font-size="10.00">type_traits</text>
</a>
</g>
</g>
<!-- Node11&#45;&gt;Node16 -->
<g id="edge17" class="edge">
<title>Node11&#45;&gt;Node16</title>
<path fill="none" stroke="midnightblue" d="M1533.26,-58.86C1456.5,-48.44 1301.7,-27.44 1225.28,-17.07"/>
<polygon fill="midnightblue" stroke="midnightblue" points="1225.42,-13.56 1215.04,-15.68 1224.48,-20.49 1225.42,-13.56"/>
</g>
<!-- Node24&#45;&gt;Node4 -->
<g id="edge66" class="edge">
<title>Node24&#45;&gt;Node4</title>
<path fill="none" stroke="midnightblue" d="M842.86,-310.36C762.28,-306.76 524.26,-283.29 482.53,-132 451.3,-18.76 669.51,-9.58 753.52,-10.18"/>
<polygon fill="midnightblue" stroke="midnightblue" points="753.49,-13.68 763.53,-10.31 753.57,-6.68 753.49,-13.68"/>
</g>
<!-- Node24&#45;&gt;Node22 -->
<g id="edge64" class="edge">
<title>Node24&#45;&gt;Node22</title>
<path fill="none" stroke="midnightblue" d="M896.1,-309.06C972.85,-303.27 1193.79,-285.34 1263.53,-266 1321.93,-249.81 1385.39,-216.89 1418.83,-198.23"/>
<polygon fill="midnightblue" stroke="midnightblue" points="1420.83,-201.11 1427.82,-193.15 1417.39,-195.02 1420.83,-201.11"/>
</g>
<!-- Node25 -->
<g id="node25" class="node">
<title>Node25</title>
<g id="a_node25"><a xlink:href="ccf__assert_8h.html" target="_top" xlink:title=" ">
<polygon fill="white" stroke="black" points="731.53,-241 731.53,-260 823.53,-260 823.53,-241 731.53,-241"/>
<text text-anchor="middle" x="777.53" y="-248" font-family="Helvetica,sans-Serif" font-size="10.00">ccf/ccf_assert.h</text>
</a>
</g>
</g>
<!-- Node24&#45;&gt;Node25 -->
<g id="edge30" class="edge">
<title>Node24&#45;&gt;Node25</title>
<path fill="none" stroke="midnightblue" d="M856.35,-302.48C841.46,-292.84 816.99,-277.02 799.26,-265.55"/>
<polygon fill="midnightblue" stroke="midnightblue" points="800.99,-262.5 790.69,-260.01 797.19,-268.38 800.99,-262.5"/>
</g>
<!-- Node32 -->
<g id="node32" class="node">
<title>Node32</title>
<g id="a_node32"><a xlink:title=" ">
<polygon fill="white" stroke="#bfbfbf" points="105.53,-56.5 105.53,-75.5 143.53,-75.5 143.53,-56.5 105.53,-56.5"/>
<text text-anchor="middle" x="124.53" y="-63.5" font-family="Helvetica,sans-Serif" font-size="10.00">map</text>
</a>
</g>
</g>
<!-- Node24&#45;&gt;Node32 -->
<g id="edge63" class="edge">
<title>Node24&#45;&gt;Node32</title>
<path fill="none" stroke="midnightblue" d="M842.8,-310.64C752.06,-309.09 456.64,-301.39 369.53,-266 266.43,-224.1 172.71,-123.43 138.39,-83.61"/>
<polygon fill="midnightblue" stroke="midnightblue" points="140.95,-81.23 131.81,-75.88 135.62,-85.77 140.95,-81.23"/>
</g>
<!-- Node36 -->
<g id="node36" class="node">
<title>Node36</title>
<g id="a_node36"><a xlink:title=" ">
<polygon fill="white" stroke="#bfbfbf" points="941.53,-112.5 941.53,-131.5 997.53,-131.5 997.53,-112.5 941.53,-112.5"/>
<text text-anchor="middle" x="969.53" y="-119.5" font-family="Helvetica,sans-Serif" font-size="10.00">optional</text>
</a>
</g>
</g>
<!-- Node24&#45;&gt;Node36 -->
<g id="edge65" class="edge">
<title>Node24&#45;&gt;Node36</title>
<path fill="none" stroke="midnightblue" d="M871.01,-302.27C875.3,-278.85 889.37,-213.32 919.53,-168 927.24,-156.42 938.6,-145.87 948.54,-137.91"/>
<polygon fill="midnightblue" stroke="midnightblue" points="950.97,-140.46 956.79,-131.61 946.72,-134.9 950.97,-140.46"/>
</g>
<!-- Node37 -->
<g id="node37" class="node">
<title>Node37</title>
<g id="a_node37"><a xlink:href="sha256__hash_8h.html" target="_top" xlink:title=" ">
<polygon fill="white" stroke="black" points="1114.53,-241 1114.53,-260 1254.53,-260 1254.53,-241 1114.53,-241"/>
<text text-anchor="middle" x="1184.53" y="-248" font-family="Helvetica,sans-Serif" font-size="10.00">ccf/crypto/sha256_hash.h</text>
</a>
</g>
</g>
<!-- Node24&#45;&gt;Node37 -->
<g id="edge48" class="edge">
<title>Node24&#45;&gt;Node37</title>
<path fill="none" stroke="midnightblue" d="M896.12,-305.98C947.4,-296.29 1060.95,-274.84 1129.28,-261.94"/>
<polygon fill="midnightblue" stroke="midnightblue" points="1130.25,-265.32 1139.43,-260.02 1128.95,-258.44 1130.25,-265.32"/>
</g>
<!-- Node38 -->
<g id="node38" class="node">
<title>Node38</title>
<g id="a_node38"><a xlink:href="tx__id_8h.html" target="_top" xlink:title=" ">
<polygon fill="white" stroke="black" points="933.03,-241 933.03,-260 1000.03,-260 1000.03,-241 933.03,-241"/>
<text text-anchor="middle" x="966.53" y="-248" font-family="Helvetica,sans-Serif" font-size="10.00">ccf/tx_id.h</text>
</a>
</g>
</g>
<!-- Node24&#45;&gt;Node38 -->
<g id="edge53" class="edge">
<title>Node24&#45;&gt;Node38</title>
<path fill="none" stroke="midnightblue" d="M883.43,-302.48C899.21,-292.8 925.17,-276.87 943.88,-265.39"/>
<polygon fill="midnightblue" stroke="midnightblue" points="945.97,-268.22 952.66,-260.01 942.31,-262.25 945.97,-268.22"/>
</g>
<!-- Node40 -->
<g id="node40" class="node">
<title>Node40</title>
<g id="a_node40"><a xlink:title=" ">
<polygon fill="white" stroke="#bfbfbf" points="378.53,-241 378.53,-260 410.53,-260 410.53,-241 378.53,-241"/>
<text text-anchor="middle" x="394.53" y="-248" font-family="Helvetica,sans-Serif" font-size="10.00">list</text>
</a>
</g>
</g>
<!-- Node24&#45;&gt;Node40 -->
<g id="edge62" class="edge">
<title>Node24&#45;&gt;Node40</title>
<path fill="none" stroke="midnightblue" d="M842.85,-311.5C772.81,-312.14 578.46,-309.51 424.53,-266 422.65,-265.47 420.75,-264.83 418.86,-264.11"/>
<polygon fill="midnightblue" stroke="midnightblue" points="420.26,-260.9 409.7,-260.1 417.45,-267.31 420.26,-260.9"/>
</g>
<!-- Node26 -->
<g id="node26" class="node">
<title>Node26</title>
<g id="a_node26"><a xlink:href="logger_8h.html" target="_top" xlink:title=" ">
<polygon fill="white" stroke="black" points="697.03,-174 697.03,-193 784.03,-193 784.03,-174 697.03,-174"/>
<text text-anchor="middle" x="740.53" y="-181" font-family="Helvetica,sans-Serif" font-size="10.00">ccf/ds/logger.h</text>
</a>
</g>
</g>
<!-- Node25&#45;&gt;Node26 -->
<g id="edge31" class="edge">
<title>Node25&#45;&gt;Node26</title>
<path fill="none" stroke="midnightblue" d="M772.54,-240.73C766.94,-230.89 757.7,-214.66 750.59,-202.16"/>
<polygon fill="midnightblue" stroke="midnightblue" points="753.43,-200.09 745.44,-193.13 747.35,-203.55 753.43,-200.09"/>
</g>
<!-- Node26&#45;&gt;Node16 -->
<g id="edge47" class="edge">
<title>Node26&#45;&gt;Node16</title>
<path fill="none" stroke="midnightblue" d="M735.98,-173.68C729.24,-159.24 718.79,-130.33 732.53,-112 780.86,-47.56 1032,-21.92 1135.68,-13.98"/>
<polygon fill="midnightblue" stroke="midnightblue" points="1136.12,-17.46 1145.83,-13.22 1135.6,-10.48 1136.12,-17.46"/>
</g>
<!-- Node26&#45;&gt;Node17 -->
<g id="edge42" class="edge">
<title>Node26&#45;&gt;Node17</title>
<path fill="none" stroke="midnightblue" d="M742.47,-173.85C746.39,-158.57 756.78,-126.99 778.53,-112 826.82,-78.71 977.47,-84.88 1051.99,-75.83"/>
<polygon fill="midnightblue" stroke="midnightblue" points="1052.56,-79.28 1061.98,-74.44 1051.6,-72.35 1052.56,-79.28"/>
</g>
<!-- Node26&#45;&gt;Node18 -->
<g id="edge44" class="edge">
<title>Node26&#45;&gt;Node18</title>
<path fill="none" stroke="midnightblue" d="M738.15,-173.86C734.67,-159.16 730.16,-129.2 745.53,-112 768.67,-86.11 859.67,-74.97 923.48,-70.28"/>
<polygon fill="midnightblue" stroke="midnightblue" points="923.75,-73.77 933.48,-69.58 923.26,-66.79 923.75,-73.77"/>
</g>
<!-- Node26&#45;&gt;Node19 -->
<g id="edge46" class="edge">
<title>Node26&#45;&gt;Node19</title>
<path fill="none" stroke="midnightblue" d="M784.37,-176.24C866.35,-164.55 1041.59,-139.54 1119.19,-128.47"/>
<polygon fill="midnightblue" stroke="midnightblue" points="1120.07,-131.88 1129.47,-127 1119.08,-124.95 1120.07,-131.88"/>
</g>
<!-- Node27 -->
<g id="node27" class="node">
<title>Node27</title>
<g id="a_node27"><a xlink:href="enum__formatter_8h.html" target="_top" xlink:title=" ">
<polygon fill="white" stroke="black" points="787.53,-112.5 787.53,-131.5 923.53,-131.5 923.53,-112.5 787.53,-112.5"/>
<text text-anchor="middle" x="855.53" y="-119.5" font-family="Helvetica,sans-Serif" font-size="10.00">ccf/ds/enum_formatter.h</text>
</a>
</g>
</g>
<!-- Node26&#45;&gt;Node27 -->
<g id="edge32" class="edge">
<title>Node26&#45;&gt;Node27</title>
<path fill="none" stroke="midnightblue" d="M757.01,-173.98C776.14,-164.08 807.91,-147.64 830.18,-136.12"/>
<polygon fill="midnightblue" stroke="midnightblue" points="831.81,-139.21 839.09,-131.51 828.6,-133 831.81,-139.21"/>
</g>
<!-- Node28 -->
<g id="node28" class="node">
<title>Node28</title>
<g id="a_node28"><a xlink:href="thread__ids_8h.html" target="_top" xlink:title=" ">
<polygon fill="white" stroke="black" points="236.53,-112.5 236.53,-131.5 344.53,-131.5 344.53,-112.5 236.53,-112.5"/>
<text text-anchor="middle" x="290.53" y="-119.5" font-family="Helvetica,sans-Serif" font-size="10.00">ccf/ds/thread_ids.h</text>
</a>
</g>
</g>
<!-- Node26&#45;&gt;Node28 -->
<g id="edge34" class="edge">
<title>Node26&#45;&gt;Node28</title>
<path fill="none" stroke="midnightblue" d="M696.98,-176.74C617.36,-166.21 447.98,-143.82 354.98,-131.52"/>
<polygon fill="midnightblue" stroke="midnightblue" points="355.23,-128.02 344.86,-130.18 354.31,-134.96 355.23,-128.02"/>
</g>
<!-- Node34 -->
<g id="node34" class="node">
<title>Node34</title>
<g id="a_node34"><a xlink:title=" ">
<polygon fill="white" stroke="#bfbfbf" points="499.03,-112.5 499.03,-131.5 578.03,-131.5 578.03,-112.5 499.03,-112.5"/>
<text text-anchor="middle" x="538.53" y="-119.5" font-family="Helvetica,sans-Serif" font-size="10.00">fmt/chrono.h</text>
</a>
</g>
</g>
<!-- Node26&#45;&gt;Node34 -->
<g id="edge41" class="edge">
<title>Node26&#45;&gt;Node34</title>
<path fill="none" stroke="midnightblue" d="M711.59,-173.98C676.27,-163.57 616.4,-145.94 577.17,-134.38"/>
<polygon fill="midnightblue" stroke="midnightblue" points="578,-130.98 567.42,-131.51 576.02,-137.69 578,-130.98"/>
</g>
<!-- Node35 -->
<g id="node35" class="node">
<title>Node35</title>
<g id="a_node35"><a xlink:title=" ">
<polygon fill="white" stroke="#bfbfbf" points="595.53,-112.5 595.53,-131.5 655.53,-131.5 655.53,-112.5 595.53,-112.5"/>
<text text-anchor="middle" x="625.53" y="-119.5" font-family="Helvetica,sans-Serif" font-size="10.00">iostream</text>
</a>
</g>
</g>
<!-- Node26&#45;&gt;Node35 -->
<g id="edge43" class="edge">
<title>Node26&#45;&gt;Node35</title>
<path fill="none" stroke="midnightblue" d="M724.06,-173.98C704.93,-164.08 673.16,-147.64 650.88,-136.12"/>
<polygon fill="midnightblue" stroke="midnightblue" points="652.47,-133 641.98,-131.51 649.25,-139.21 652.47,-133"/>
</g>
<!-- Node26&#45;&gt;Node36 -->
<g id="edge45" class="edge">
<title>Node26&#45;&gt;Node36</title>
<path fill="none" stroke="midnightblue" d="M773.34,-173.98C815.22,-163.09 887.52,-144.31 931.69,-132.83"/>
<polygon fill="midnightblue" stroke="midnightblue" points="932.67,-136.19 941.47,-130.29 930.91,-129.42 932.67,-136.19"/>
</g>
<!-- Node27&#45;&gt;Node17 -->
<g id="edge33" class="edge">
<title>Node27&#45;&gt;Node17</title>
<path fill="none" stroke="midnightblue" d="M894.51,-112.44C937.43,-103.02 1006.48,-87.87 1052.9,-77.68"/>
<polygon fill="midnightblue" stroke="midnightblue" points="1053.72,-81.08 1062.74,-75.52 1052.22,-74.24 1053.72,-81.08"/>
</g>
<!-- Node28&#45;&gt;Node17 -->
<g id="edge35" class="edge">
<title>Node28&#45;&gt;Node17</title>
<path fill="none" stroke="midnightblue" d="M344.72,-118.19C501.25,-110.01 948.91,-86.23 1051.92,-75.8"/>
<polygon fill="midnightblue" stroke="midnightblue" points="1052.46,-79.26 1062.02,-74.69 1051.69,-72.31 1052.46,-79.26"/>
</g>
<!-- Node29 -->
<g id="node29" class="node">
<title>Node29</title>
<g id="a_node29"><a xlink:title=" ">
<polygon fill="white" stroke="#bfbfbf" points="161.53,-56.5 161.53,-75.5 247.53,-75.5 247.53,-56.5 161.53,-56.5"/>
<text text-anchor="middle" x="204.53" y="-63.5" font-family="Helvetica,sans-Serif" font-size="10.00">fmt/ostream.h</text>
</a>
</g>
</g>
<!-- Node28&#45;&gt;Node29 -->
<g id="edge36" class="edge">
<title>Node28&#45;&gt;Node29</title>
<path fill="none" stroke="midnightblue" d="M276.72,-112.32C263.3,-103.9 242.71,-90.97 226.95,-81.07"/>
<polygon fill="midnightblue" stroke="midnightblue" points="228.65,-78.01 218.32,-75.65 224.92,-83.94 228.65,-78.01"/>
</g>
<!-- Node30 -->
<g id="node30" class="node">
<title>Node30</title>
<g id="a_node30"><a xlink:title=" ">
<polygon fill="white" stroke="#bfbfbf" points="266.03,-56.5 266.03,-75.5 327.03,-75.5 327.03,-56.5 266.03,-56.5"/>
<text text-anchor="middle" x="296.53" y="-63.5" font-family="Helvetica,sans-Serif" font-size="10.00">fmt/std.h</text>
</a>
</g>
</g>
<!-- Node28&#45;&gt;Node30 -->
<g id="edge37" class="edge">
<title>Node28&#45;&gt;Node30</title>
<path fill="none" stroke="midnightblue" d="M291.52,-112.08C292.32,-104.93 293.46,-94.64 294.46,-85.69"/>
<polygon fill="midnightblue" stroke="midnightblue" points="297.93,-86.08 295.56,-75.75 290.98,-85.3 297.93,-86.08"/>
</g>
<!-- Node28&#45;&gt;Node31 -->
<g id="edge38" class="edge">
<title>Node28&#45;&gt;Node31</title>
<path fill="none" stroke="midnightblue" d="M313.19,-112.44C337.07,-103.42 374.88,-89.15 401.74,-79"/>
<polygon fill="midnightblue" stroke="midnightblue" points="403.33,-82.15 411.45,-75.34 400.86,-75.6 403.33,-82.15"/>
</g>
<!-- Node28&#45;&gt;Node32 -->
<g id="edge39" class="edge">
<title>Node28&#45;&gt;Node32</title>
<path fill="none" stroke="midnightblue" d="M264.23,-112.44C234.17,-102.66 185.1,-86.7 153.84,-76.53"/>
<polygon fill="midnightblue" stroke="midnightblue" points="154.56,-73.09 143.97,-73.32 152.4,-79.74 154.56,-73.09"/>
</g>
<!-- Node33 -->
<g id="node33" class="node">
<title>Node33</title>
<g id="a_node33"><a xlink:title=" ">
<polygon fill="white" stroke="#bfbfbf" points="345.53,-56.5 345.53,-75.5 393.53,-75.5 393.53,-56.5 345.53,-56.5"/>
<text text-anchor="middle" x="369.53" y="-63.5" font-family="Helvetica,sans-Serif" font-size="10.00">thread</text>
</a>
</g>
</g>
<!-- Node28&#45;&gt;Node33 -->
<g id="edge40" class="edge">
<title>Node28&#45;&gt;Node33</title>
<path fill="none" stroke="midnightblue" d="M303.23,-112.32C315.43,-103.98 334.11,-91.21 348.54,-81.35"/>
<polygon fill="midnightblue" stroke="midnightblue" points="350.59,-84.19 356.87,-75.65 346.64,-78.41 350.59,-84.19"/>
</g>
<!-- Node37&#45;&gt;Node7 -->
<g id="edge49" class="edge">
<title>Node37&#45;&gt;Node7</title>
<path fill="none" stroke="midnightblue" d="M1184.53,-240.73C1184.53,-231.18 1184.53,-215.62 1184.53,-203.28"/>
<polygon fill="midnightblue" stroke="midnightblue" points="1188.03,-203.13 1184.53,-193.13 1181.03,-203.13 1188.03,-203.13"/>
</g>
<!-- Node37&#45;&gt;Node13 -->
<g id="edge50" class="edge">
<title>Node37&#45;&gt;Node13</title>
<path fill="none" stroke="midnightblue" d="M1199.8,-240.81C1228.1,-224.94 1290.88,-190.79 1346.53,-168 1470.1,-117.4 1537.4,-169.7 1632.53,-76 1644.86,-63.86 1650.28,-44.58 1652.66,-30.17"/>
<polygon fill="midnightblue" stroke="midnightblue" points="1656.18,-30.25 1654,-19.88 1649.24,-29.35 1656.18,-30.25"/>
</g>
<!-- Node37&#45;&gt;Node17 -->
<g id="edge52" class="edge">
<title>Node37&#45;&gt;Node17</title>
<path fill="none" stroke="midnightblue" d="M1173.74,-240.99C1162.77,-231.78 1146.09,-216.11 1136.53,-199 1115.88,-162.04 1107.01,-112.42 1103.53,-85.78"/>
<polygon fill="midnightblue" stroke="midnightblue" points="1106.98,-85.1 1102.32,-75.58 1100.03,-85.92 1106.98,-85.1"/>
</g>
<!-- Node37&#45;&gt;Node23 -->
<g id="edge51" class="edge">
<title>Node37&#45;&gt;Node23</title>
<path fill="none" stroke="midnightblue" d="M1213.74,-240.98C1245.48,-231.52 1297.54,-215.42 1341.53,-199 1343.19,-198.38 1344.88,-197.73 1346.58,-197.06"/>
<polygon fill="midnightblue" stroke="midnightblue" points="1348.32,-200.13 1356.24,-193.09 1345.66,-193.65 1348.32,-200.13"/>
</g>
<!-- Node38&#45;&gt;Node3 -->
<g id="edge56" class="edge">
<title>Node38&#45;&gt;Node3</title>
<path fill="none" stroke="midnightblue" d="M932.78,-245.76C832.62,-234.66 542.75,-202.44 522.53,-199 289.25,-159.37 150.06,-262.58 4.53,-76 -8.62,-59.14 10.92,-38.92 28.44,-25.56"/>
<polygon fill="midnightblue" stroke="midnightblue" points="30.66,-28.28 36.73,-19.6 26.57,-22.6 30.66,-28.28"/>
</g>
<!-- Node38&#45;&gt;Node4 -->
<g id="edge60" class="edge">
<title>Node38&#45;&gt;Node4</title>
<path fill="none" stroke="midnightblue" d="M932.69,-245.02C879.85,-237.65 774.75,-221.52 687.53,-199 597.58,-175.77 543.68,-207.49 489.53,-132 456.06,-85.33 670.04,-35.06 753.35,-17.5"/>
<polygon fill="midnightblue" stroke="midnightblue" points="754.22,-20.89 763.29,-15.42 752.79,-14.04 754.22,-20.89"/>
</g>
<!-- Node38&#45;&gt;Node7 -->
<g id="edge54" class="edge">
<title>Node38&#45;&gt;Node7</title>
<path fill="none" stroke="midnightblue" d="M995.48,-240.87C1034.19,-229.33 1102.92,-208.84 1145.98,-196"/>
<polygon fill="midnightblue" stroke="midnightblue" points="1147.23,-199.28 1155.81,-193.06 1145.23,-192.57 1147.23,-199.28"/>
</g>
<!-- Node38&#45;&gt;Node15 -->
<g id="edge61" class="edge">
<title>Node38&#45;&gt;Node15</title>
<path fill="none" stroke="midnightblue" d="M1000.06,-247.65C1051.67,-243.82 1152.84,-232.37 1231.53,-199 1253.56,-189.66 1254.11,-178.64 1275.53,-168 1322.74,-144.55 1350.05,-168.02 1388.53,-132 1417.45,-104.93 1425.97,-56.75 1428.48,-30.08"/>
<polygon fill="midnightblue" stroke="midnightblue" points="1432,-30.03 1429.25,-19.79 1425.02,-29.51 1432,-30.03"/>
</g>
<!-- Node38&#45;&gt;Node17 -->
<g id="edge57" class="edge">
<title>Node38&#45;&gt;Node17</title>
<path fill="none" stroke="midnightblue" d="M978.43,-240.76C990.7,-231.36 1009.9,-215.52 1023.53,-199 1054.19,-161.84 1080.48,-111.25 1093.26,-84.79"/>
<polygon fill="midnightblue" stroke="midnightblue" points="1096.49,-86.15 1097.61,-75.62 1090.16,-83.15 1096.49,-86.15"/>
</g>
<!-- Node38&#45;&gt;Node18 -->
<g id="edge58" class="edge">
<title>Node38&#45;&gt;Node18</title>
<path fill="none" stroke="midnightblue" d="M976.05,-240.93C985.57,-231.66 999.61,-215.94 1005.53,-199 1018.29,-162.5 1013.85,-149.97 1006.53,-112 1004.74,-102.7 1001.05,-92.89 997.47,-84.8"/>
<polygon fill="midnightblue" stroke="midnightblue" points="1000.59,-83.21 993.15,-75.66 994.26,-86.2 1000.59,-83.21"/>
</g>
<!-- Node38&#45;&gt;Node36 -->
<g id="edge59" class="edge">
<title>Node38&#45;&gt;Node36</title>
<path fill="none" stroke="midnightblue" d="M956.72,-241C946.92,-231.79 932.49,-216.11 926.53,-199 922,-185.99 921.41,-180.79 926.53,-168 931.21,-156.33 940.52,-145.97 949.29,-138.14"/>
<polygon fill="midnightblue" stroke="midnightblue" points="951.58,-140.78 957.04,-131.7 947.11,-135.4 951.58,-140.78"/>
</g>
<!-- Node39 -->
<g id="node39" class="node">
<title>Node39</title>
<g id="a_node39"><a xlink:title=" ">
<polygon fill="white" stroke="#bfbfbf" points="936.03,-174 936.03,-193 997.03,-193 997.03,-174 936.03,-174"/>
<text text-anchor="middle" x="966.53" y="-181" font-family="Helvetica,sans-Serif" font-size="10.00">charconv</text>
</a>
</g>
</g>
<!-- Node38&#45;&gt;Node39 -->
<g id="edge55" class="edge">
<title>Node38&#45;&gt;Node39</title>
<path fill="none" stroke="midnightblue" d="M966.53,-240.73C966.53,-231.18 966.53,-215.62 966.53,-203.28"/>
<polygon fill="midnightblue" stroke="midnightblue" points="970.03,-203.13 966.53,-193.13 963.03,-203.13 970.03,-203.13"/>
</g>
<!-- Node41&#45;&gt;Node9 -->
<g id="edge81" class="edge">
<title>Node41&#45;&gt;Node9</title>
<path fill="none" stroke="midnightblue" d="M1418.07,-363.09C1571.4,-350.97 2007.53,-311.24 2007.53,-251.5 2007.53,-251.5 2007.53,-251.5 2007.53,-121 2007.53,-90.77 2009.68,-76.57 1987.53,-56 1964.07,-34.21 1873.93,-20.62 1824.11,-14.61"/>
<polygon fill="midnightblue" stroke="midnightblue" points="1824.47,-11.13 1814.13,-13.44 1823.66,-18.08 1824.47,-11.13"/>
</g>
<!-- Node42 -->
<g id="node42" class="node">
<title>Node42</title>
<g id="a_node42"><a xlink:href="entity__id_8h.html" target="_top" xlink:title=" ">
<polygon fill="white" stroke="black" points="1322.53,-302.5 1322.53,-321.5 1408.53,-321.5 1408.53,-302.5 1322.53,-302.5"/>
<text text-anchor="middle" x="1365.53" y="-309.5" font-family="Helvetica,sans-Serif" font-size="10.00">ccf/entity_id.h</text>
</a>
</g>
</g>
<!-- Node41&#45;&gt;Node42 -->
<g id="edge68" class="edge">
<title>Node41&#45;&gt;Node42</title>
<path fill="none" stroke="midnightblue" d="M1365.53,-358.08C1365.53,-351.01 1365.53,-340.86 1365.53,-331.99"/>
<polygon fill="midnightblue" stroke="midnightblue" points="1369.03,-331.75 1365.53,-321.75 1362.03,-331.75 1369.03,-331.75"/>
</g>
<!-- Node42&#45;&gt;Node4 -->
<g id="edge80" class="edge">
<title>Node42&#45;&gt;Node4</title>
<path fill="none" stroke="midnightblue" d="M1361.33,-302.47C1350.66,-279.53 1324.87,-215.1 1346.53,-168 1356.81,-145.66 1374.28,-152.03 1388.53,-132 1408.91,-103.34 1434.49,-81.74 1410.53,-56 1390.14,-34.09 942.88,-16.59 817.78,-12.11"/>
<polygon fill="midnightblue" stroke="midnightblue" points="817.8,-8.61 807.68,-11.76 817.55,-15.61 817.8,-8.61"/>
</g>
<!-- Node42&#45;&gt;Node7 -->
<g id="edge69" class="edge">
<title>Node42&#45;&gt;Node7</title>
<path fill="none" stroke="midnightblue" d="M1354.4,-302.3C1335.86,-287.89 1297.33,-258.35 1263.53,-235 1244.95,-222.16 1223.3,-208.4 1207.37,-198.49"/>
<polygon fill="midnightblue" stroke="midnightblue" points="1209.06,-195.43 1198.72,-193.14 1205.38,-201.38 1209.06,-195.43"/>
</g>
<!-- Node43 -->
<g id="node43" class="node">
<title>Node43</title>
<g id="a_node43"><a xlink:href="blit__serialiser_8h.html" target="_top" xlink:title=" ">
<polygon fill="white" stroke="black" points="1678.03,-235.5 1678.03,-265.5 1777.03,-265.5 1777.03,-235.5 1678.03,-235.5"/>
<text text-anchor="start" x="1686.03" y="-253.5" font-family="Helvetica,sans-Serif" font-size="10.00">ccf/kv/serialisers</text>
<text text-anchor="middle" x="1727.53" y="-242.5" font-family="Helvetica,sans-Serif" font-size="10.00">/blit_serialiser.h</text>
</a>
</g>
</g>
<!-- Node42&#45;&gt;Node43 -->
<g id="edge70" class="edge">
<title>Node42&#45;&gt;Node43</title>
<path fill="none" stroke="midnightblue" d="M1408.84,-303.88C1473.36,-293.28 1594.95,-273.29 1667.86,-261.31"/>
<polygon fill="midnightblue" stroke="midnightblue" points="1668.51,-264.75 1677.81,-259.67 1667.37,-257.84 1668.51,-264.75"/>
</g>
<!-- Node43&#45;&gt;Node11 -->
<g id="edge71" class="edge">
<title>Node43&#45;&gt;Node11</title>
<path fill="none" stroke="midnightblue" d="M1717.25,-235.46C1705.16,-219.06 1684.33,-191.21 1665.53,-168 1640.81,-137.47 1610.62,-103.02 1593.09,-83.27"/>
<polygon fill="midnightblue" stroke="midnightblue" points="1595.66,-80.9 1586.4,-75.76 1590.44,-85.56 1595.66,-80.9"/>
</g>
<!-- Node44 -->
<g id="node44" class="node">
<title>Node44</title>
<g id="a_node44"><a xlink:href="serialised__entry_8h.html" target="_top" xlink:title=" ">
<polygon fill="white" stroke="black" points="1756.03,-168.5 1756.03,-198.5 1861.03,-198.5 1861.03,-168.5 1756.03,-168.5"/>
<text text-anchor="start" x="1764.03" y="-186.5" font-family="Helvetica,sans-Serif" font-size="10.00">ccf/kv/serialisers</text>
<text text-anchor="middle" x="1808.53" y="-175.5" font-family="Helvetica,sans-Serif" font-size="10.00">/serialised_entry.h</text>
</a>
</g>
</g>
<!-- Node43&#45;&gt;Node44 -->
<g id="edge72" class="edge">
<title>Node43&#45;&gt;Node44</title>
<path fill="none" stroke="midnightblue" d="M1745.11,-235.4C1756.15,-226.54 1770.57,-214.96 1782.88,-205.09"/>
<polygon fill="midnightblue" stroke="midnightblue" points="1785.38,-207.56 1790.99,-198.58 1781,-202.11 1785.38,-207.56"/>
</g>
<!-- Node45 -->
<g id="node45" class="node">
<title>Node45</title>
<g id="a_node45"><a xlink:href="byte__vector_8h.html" target="_top" xlink:title=" ">
<polygon fill="white" stroke="black" points="1756.53,-112.5 1756.53,-131.5 1856.53,-131.5 1856.53,-112.5 1756.53,-112.5"/>
<text text-anchor="middle" x="1806.53" y="-119.5" font-family="Helvetica,sans-Serif" font-size="10.00">ccf/byte_vector.h</text>
</a>
</g>
</g>
<!-- Node44&#45;&gt;Node45 -->
<g id="edge73" class="edge">
<title>Node44&#45;&gt;Node45</title>
<path fill="none" stroke="midnightblue" d="M1808.06,-168.4C1807.79,-160.47 1807.46,-150.46 1807.17,-141.86"/>
<polygon fill="midnightblue" stroke="midnightblue" points="1810.66,-141.53 1806.82,-131.66 1803.66,-141.77 1810.66,-141.53"/>
</g>
<!-- Node45&#45;&gt;Node17 -->
<g id="edge78" class="edge">
<title>Node45&#45;&gt;Node17</title>
<path fill="none" stroke="midnightblue" d="M1756.4,-117.16C1626.53,-107.21 1280.36,-80.7 1151.11,-70.8"/>
<polygon fill="midnightblue" stroke="midnightblue" points="1151.34,-67.3 1141.1,-70.03 1150.8,-74.28 1151.34,-67.3"/>
</g>
<!-- Node46 -->
<g id="node46" class="node">
<title>Node46</title>
<g id="a_node46"><a xlink:href="siphash_8h.html" target="_top" xlink:title=" ">
<polygon fill="white" stroke="black" points="1884.03,-56.5 1884.03,-75.5 1979.03,-75.5 1979.03,-56.5 1884.03,-56.5"/>
<text text-anchor="middle" x="1931.53" y="-63.5" font-family="Helvetica,sans-Serif" font-size="10.00">ccf/ds/siphash.h</text>
</a>
</g>
</g>
<!-- Node45&#45;&gt;Node46 -->
<g id="edge74" class="edge">
<title>Node45&#45;&gt;Node46</title>
<path fill="none" stroke="midnightblue" d="M1826.34,-112.44C1846.82,-103.6 1879.02,-89.69 1902.4,-79.59"/>
<polygon fill="midnightblue" stroke="midnightblue" points="1904.03,-82.7 1911.82,-75.52 1901.25,-76.27 1904.03,-82.7"/>
</g>
<!-- Node48 -->
<g id="node48" class="node">
<title>Node48</title>
<g id="a_node48"><a xlink:title=" ">
<polygon fill="white" stroke="#bfbfbf" points="1717.03,-56.5 1717.03,-75.5 1866.03,-75.5 1866.03,-56.5 1717.03,-56.5"/>
<text text-anchor="middle" x="1791.53" y="-63.5" font-family="Helvetica,sans-Serif" font-size="10.00">small_vector/SmallVector.h</text>
</a>
</g>
</g>
<!-- Node45&#45;&gt;Node48 -->
<g id="edge79" class="edge">
<title>Node45&#45;&gt;Node48</title>
<path fill="none" stroke="midnightblue" d="M1804.06,-112.08C1802.05,-104.85 1799.15,-94.41 1796.64,-85.4"/>
<polygon fill="midnightblue" stroke="midnightblue" points="1800.01,-84.45 1793.96,-75.75 1793.27,-86.32 1800.01,-84.45"/>
</g>
<!-- Node46&#45;&gt;Node3 -->
<g id="edge76" class="edge">
<title>Node46&#45;&gt;Node3</title>
<path fill="none" stroke="midnightblue" d="M1884.01,-57.02C1880.81,-56.63 1877.63,-56.28 1874.53,-56 1690.35,-39.26 324.28,-15.61 85.95,-11.59"/>
<polygon fill="midnightblue" stroke="midnightblue" points="85.83,-8.09 75.77,-11.42 85.71,-15.09 85.83,-8.09"/>
</g>
<!-- Node46&#45;&gt;Node9 -->
<g id="edge77" class="edge">
<title>Node46&#45;&gt;Node9</title>
<path fill="none" stroke="midnightblue" d="M1909.19,-56.44C1885.78,-47.48 1848.8,-33.31 1822.34,-23.18"/>
<polygon fill="midnightblue" stroke="midnightblue" points="1823.36,-19.82 1812.77,-19.52 1820.86,-26.36 1823.36,-19.82"/>
</g>
<!-- Node47 -->
<g id="node47" class="node">
<title>Node47</title>
<g id="a_node47"><a xlink:title=" ">
<polygon fill="white" stroke="#bfbfbf" points="1905.03,-0.5 1905.03,-19.5 1958.03,-19.5 1958.03,-0.5 1905.03,-0.5"/>
<text text-anchor="middle" x="1931.53" y="-7.5" font-family="Helvetica,sans-Serif" font-size="10.00">cstddef</text>
</a>
</g>
</g>
<!-- Node46&#45;&gt;Node47 -->
<g id="edge75" class="edge">
<title>Node46&#45;&gt;Node47</title>
<path fill="none" stroke="midnightblue" d="M1931.53,-56.08C1931.53,-49.01 1931.53,-38.86 1931.53,-29.99"/>
<polygon fill="midnightblue" stroke="midnightblue" points="1935.03,-29.75 1931.53,-19.75 1928.03,-29.75 1935.03,-29.75"/>
</g>
</g>
</svg>
