<?xml version="1.0" encoding="UTF-8" standalone="no"?>
<!DOCTYPE svg PUBLIC "-//W3C//DTD SVG 1.1//EN"
 "http://www.w3.org/Graphics/SVG/1.1/DTD/svg11.dtd">
<!-- Generated by graphviz version 2.43.0 (0)
 -->
<!-- Title: include/ccf/rpc_context.h Pages: 1 -->
<!--zoomable 375 -->
<svg id="main" version="1.1" xmlns="http://www.w3.org/2000/svg" xmlns:xlink="http://www.w3.org/1999/xlink" xml:space="preserve" onload="init(evt)">
<style type="text/css"><![CDATA[
.edge:hover path { stroke: red; }
.edge:hover polygon { stroke: red; fill: red; }
]]></style>
<script type="text/javascript"><![CDATA[
var edges = document.getElementsByTagName('g');
if (edges && edges.length) {
  for (var i=0;i<edges.length;i++) {
    if (edges[i].id.substr(0,4)=='edge') {
      edges[i].setAttribute('class','edge');
    }
  }
}
]]></script>
        <defs>
                <circle id="rim" cx="0" cy="0" r="7"/>
                <circle id="rim2" cx="0" cy="0" r="3.5"/>
                <g id="zoomPlus">
                        <use xlink:href="#rim" fill="#404040">
                                <set attributeName="fill" to="#808080" begin="zoomplus.mouseover" end="zoomplus.mouseout"/>
                        </use>
                        <path d="M-4,0h8M0,-4v8" fill="none" stroke="white" stroke-width="1.5" pointer-events="none"/>
                </g>
                <g id="zoomMin">
                        <use xlink:href="#rim" fill="#404040">
                                <set attributeName="fill" to="#808080" begin="zoomminus.mouseover" end="zoomminus.mouseout"/>
                        </use>
                        <path d="M-4,0h8" fill="none" stroke="white" stroke-width="1.5" pointer-events="none"/>
                </g>
                <g id="dirArrow">
                        <path fill="none" stroke="white" stroke-width="1.5" d="M0,-3.0v7 M-2.5,-0.5L0,-3.0L2.5,-0.5"/>
                </g>
               <g id="resetDef">
                       <use xlink:href="#rim2" fill="#404040">
                               <set attributeName="fill" to="#808080" begin="reset.mouseover" end="reset.mouseout"/>
                       </use>
               </g>
        </defs>

<script type="text/javascript">
var viewWidth = 1232;
var viewHeight = 375;
var sectionId = 'dynsection-0';
</script>
<script xlink:href="svgpan.js"/>
<svg id="graph" class="graph">
<g id="viewport">
<title>include/ccf/rpc_context.h</title>
<polygon fill="white" stroke="transparent" points="-4,4 -4,-371 1227.5,-371 1227.5,4 -4,4"/>
<!-- Node1 -->
<g id="node1" class="node">
<title>Node1</title>
<g id="a_node1"><a xlink:title=" ">
<polygon fill="#bfbfbf" stroke="black" points="645,-347.5 645,-366.5 783,-366.5 783,-347.5 645,-347.5"/>
<text text-anchor="middle" x="714" y="-354.5" font-family="Helvetica,sans-Serif" font-size="10.00">include/ccf/rpc_context.h</text>
</a>
</g>
</g>
<!-- Node2 -->
<g id="node2" class="node">
<title>Node2</title>
<g id="a_node2"><a xlink:href="claims__digest_8h.html" target="_top" xlink:title=" ">
<polygon fill="white" stroke="black" points="57,-286 57,-305 167,-305 167,-286 57,-286"/>
<text text-anchor="middle" x="112" y="-293" font-family="Helvetica,sans-Serif" font-size="10.00">ccf/claims_digest.h</text>
</a>
</g>
</g>
<!-- Node1&#45;&gt;Node2 -->
<g id="edge1" class="edge">
<title>Node1&#45;&gt;Node2</title>
<path fill="none" stroke="midnightblue" d="M644.68,-351.5C546.1,-344.74 359.84,-330.63 202,-311 191.99,-309.76 181.38,-308.23 171.1,-306.64"/>
<polygon fill="midnightblue" stroke="midnightblue" points="171.38,-303.15 160.95,-305.04 170.29,-310.06 171.38,-303.15"/>
</g>
<!-- Node7 -->
<g id="node7" class="node">
<title>Node7</title>
<g id="a_node7"><a xlink:title=" ">
<polygon fill="white" stroke="#bfbfbf" points="543.5,-0.5 543.5,-19.5 590.5,-19.5 590.5,-0.5 543.5,-0.5"/>
<text text-anchor="middle" x="567" y="-7.5" font-family="Helvetica,sans-Serif" font-size="10.00">vector</text>
</a>
</g>
</g>
<!-- Node1&#45;&gt;Node7 -->
<g id="edge48" class="edge">
<title>Node1&#45;&gt;Node7</title>
<path fill="none" stroke="midnightblue" d="M714.26,-347.16C714.98,-321.3 717,-243.54 717,-179 717,-179 717,-179 717,-121 717,-63.63 644.76,-32.91 600.54,-19.48"/>
<polygon fill="midnightblue" stroke="midnightblue" points="601.35,-16.07 590.77,-16.65 599.4,-22.79 601.35,-16.07"/>
</g>
<!-- Node19 -->
<g id="node19" class="node">
<title>Node19</title>
<g id="a_node19"><a xlink:href="frame__format_8h.html" target="_top" xlink:title=" ">
<polygon fill="white" stroke="black" points="996,-286 996,-305 1106,-305 1106,-286 996,-286"/>
<text text-anchor="middle" x="1051" y="-293" font-family="Helvetica,sans-Serif" font-size="10.00">ccf/frame_format.h</text>
</a>
</g>
</g>
<!-- Node1&#45;&gt;Node19 -->
<g id="edge23" class="edge">
<title>Node1&#45;&gt;Node19</title>
<path fill="none" stroke="midnightblue" d="M771.96,-347.47C827.35,-339.07 913.1,-325.45 987,-311 992.87,-309.85 999.03,-308.56 1005.11,-307.24"/>
<polygon fill="midnightblue" stroke="midnightblue" points="1006.19,-310.59 1015.2,-305.01 1004.68,-303.75 1006.19,-310.59"/>
</g>
<!-- Node20 -->
<g id="node20" class="node">
<title>Node20</title>
<g id="a_node20"><a xlink:href="http__consts_8h.html" target="_top" xlink:title=" ">
<polygon fill="white" stroke="black" points="1124.5,-286 1124.5,-305 1223.5,-305 1223.5,-286 1124.5,-286"/>
<text text-anchor="middle" x="1174" y="-293" font-family="Helvetica,sans-Serif" font-size="10.00">ccf/http_consts.h</text>
</a>
</g>
</g>
<!-- Node1&#45;&gt;Node20 -->
<g id="edge24" class="edge">
<title>Node1&#45;&gt;Node20</title>
<path fill="none" stroke="midnightblue" d="M783.22,-350.97C863.46,-344.5 999.48,-331.59 1115,-311 1120.79,-309.97 1126.85,-308.7 1132.8,-307.34"/>
<polygon fill="midnightblue" stroke="midnightblue" points="1133.7,-310.73 1142.62,-305.01 1132.08,-303.92 1133.7,-310.73"/>
</g>
<!-- Node21 -->
<g id="node21" class="node">
<title>Node21</title>
<g id="a_node21"><a xlink:href="http__header__map_8h.html" target="_top" xlink:title=" ">
<polygon fill="white" stroke="black" points="850,-286 850,-305 978,-305 978,-286 850,-286"/>
<text text-anchor="middle" x="914" y="-293" font-family="Helvetica,sans-Serif" font-size="10.00">ccf/http_header_map.h</text>
</a>
</g>
</g>
<!-- Node1&#45;&gt;Node21 -->
<g id="edge25" class="edge">
<title>Node1&#45;&gt;Node21</title>
<path fill="none" stroke="midnightblue" d="M742.66,-347.48C777.56,-337.09 836.65,-319.51 875.5,-307.95"/>
<polygon fill="midnightblue" stroke="midnightblue" points="876.81,-311.22 885.4,-305.01 874.82,-304.51 876.81,-311.22"/>
</g>
<!-- Node23 -->
<g id="node23" class="node">
<title>Node23</title>
<g id="a_node23"><a xlink:href="odata__error_8h.html" target="_top" xlink:title=" ">
<polygon fill="white" stroke="black" points="211,-286 211,-305 309,-305 309,-286 211,-286"/>
<text text-anchor="middle" x="260" y="-293" font-family="Helvetica,sans-Serif" font-size="10.00">ccf/odata_error.h</text>
</a>
</g>
</g>
<!-- Node1&#45;&gt;Node23 -->
<g id="edge28" class="edge">
<title>Node1&#45;&gt;Node23</title>
<path fill="none" stroke="midnightblue" d="M648.95,-347.48C560.72,-335.91 404.36,-315.42 319.24,-304.26"/>
<polygon fill="midnightblue" stroke="midnightblue" points="319.59,-300.78 309.22,-302.95 318.68,-307.72 319.59,-300.78"/>
</g>
<!-- Node25 -->
<g id="node25" class="node">
<title>Node25</title>
<g id="a_node25"><a xlink:href="rest__verb_8h.html" target="_top" xlink:title=" ">
<polygon fill="white" stroke="black" points="742.5,-286 742.5,-305 831.5,-305 831.5,-286 742.5,-286"/>
<text text-anchor="middle" x="787" y="-293" font-family="Helvetica,sans-Serif" font-size="10.00">ccf/rest_verb.h</text>
</a>
</g>
</g>
<!-- Node1&#45;&gt;Node25 -->
<g id="edge31" class="edge">
<title>Node1&#45;&gt;Node25</title>
<path fill="none" stroke="midnightblue" d="M724.46,-347.48C735.95,-338.11 754.63,-322.88 768.59,-311.51"/>
<polygon fill="midnightblue" stroke="midnightblue" points="771.02,-314.04 776.56,-305.01 766.6,-308.61 771.02,-314.04"/>
</g>
<!-- Node27 -->
<g id="node27" class="node">
<title>Node27</title>
<g id="a_node27"><a xlink:href="signed__req_8h.html" target="_top" xlink:title=" ">
<polygon fill="white" stroke="black" points="453,-280.5 453,-310.5 557,-310.5 557,-280.5 453,-280.5"/>
<text text-anchor="start" x="461" y="-298.5" font-family="Helvetica,sans-Serif" font-size="10.00">ccf/service/signed</text>
<text text-anchor="middle" x="505" y="-287.5" font-family="Helvetica,sans-Serif" font-size="10.00">_req.h</text>
</a>
</g>
</g>
<!-- Node1&#45;&gt;Node27 -->
<g id="edge34" class="edge">
<title>Node1&#45;&gt;Node27</title>
<path fill="none" stroke="midnightblue" d="M684.06,-347.48C652.84,-338.59 603.1,-324.43 563.96,-313.29"/>
<polygon fill="midnightblue" stroke="midnightblue" points="564.83,-309.89 554.26,-310.52 562.92,-316.63 564.83,-309.89"/>
</g>
<!-- Node29 -->
<g id="node29" class="node">
<title>Node29</title>
<g id="a_node29"><a xlink:href="tx__id_8h.html" target="_top" xlink:title=" ">
<polygon fill="white" stroke="black" points="503.5,-224.5 503.5,-243.5 570.5,-243.5 570.5,-224.5 503.5,-224.5"/>
<text text-anchor="middle" x="537" y="-231.5" font-family="Helvetica,sans-Serif" font-size="10.00">ccf/tx_id.h</text>
</a>
</g>
</g>
<!-- Node1&#45;&gt;Node29 -->
<g id="edge39" class="edge">
<title>Node1&#45;&gt;Node29</title>
<path fill="none" stroke="midnightblue" d="M701.55,-347.49C671.67,-327.06 595.57,-275.04 558.27,-249.54"/>
<polygon fill="midnightblue" stroke="midnightblue" points="559.9,-246.42 549.67,-243.66 555.95,-252.19 559.9,-246.42"/>
</g>
<!-- Node3 -->
<g id="node3" class="node">
<title>Node3</title>
<g id="a_node3"><a xlink:href="sha256__hash_8h.html" target="_top" xlink:title=" ">
<polygon fill="white" stroke="black" points="15,-224.5 15,-243.5 155,-243.5 155,-224.5 15,-224.5"/>
<text text-anchor="middle" x="85" y="-231.5" font-family="Helvetica,sans-Serif" font-size="10.00">ccf/crypto/sha256_hash.h</text>
</a>
</g>
</g>
<!-- Node2&#45;&gt;Node3 -->
<g id="edge2" class="edge">
<title>Node2&#45;&gt;Node3</title>
<path fill="none" stroke="midnightblue" d="M108.13,-285.98C104.2,-277.32 98,-263.65 93.01,-252.65"/>
<polygon fill="midnightblue" stroke="midnightblue" points="96.18,-251.17 88.86,-243.51 89.81,-254.06 96.18,-251.17"/>
</g>
<!-- Node4 -->
<g id="node4" class="node">
<title>Node4</title>
<g id="a_node4"><a xlink:href="json_8h.html" target="_top" xlink:title=" ">
<polygon fill="white" stroke="black" points="155.5,-168.5 155.5,-187.5 232.5,-187.5 232.5,-168.5 155.5,-168.5"/>
<text text-anchor="middle" x="194" y="-175.5" font-family="Helvetica,sans-Serif" font-size="10.00">ccf/ds/json.h</text>
</a>
</g>
</g>
<!-- Node3&#45;&gt;Node4 -->
<g id="edge3" class="edge">
<title>Node3&#45;&gt;Node4</title>
<path fill="none" stroke="midnightblue" d="M102.51,-224.32C120.07,-215.62 147.33,-202.12 167.53,-192.11"/>
<polygon fill="midnightblue" stroke="midnightblue" points="169.12,-195.23 176.53,-187.65 166.02,-188.96 169.12,-195.23"/>
</g>
<!-- Node11 -->
<g id="node11" class="node">
<title>Node11</title>
<g id="a_node11"><a xlink:title=" ">
<polygon fill="white" stroke="#bfbfbf" points="82,-0.5 82,-19.5 124,-19.5 124,-0.5 82,-0.5"/>
<text text-anchor="middle" x="103" y="-7.5" font-family="Helvetica,sans-Serif" font-size="10.00">array</text>
</a>
</g>
</g>
<!-- Node3&#45;&gt;Node11 -->
<g id="edge20" class="edge">
<title>Node3&#45;&gt;Node11</title>
<path fill="none" stroke="midnightblue" d="M85.71,-224.3C88.35,-191.63 97.74,-75.87 101.46,-29.96"/>
<polygon fill="midnightblue" stroke="midnightblue" points="104.96,-30.13 102.28,-19.88 97.98,-29.57 104.96,-30.13"/>
</g>
<!-- Node15 -->
<g id="node15" class="node">
<title>Node15</title>
<g id="a_node15"><a xlink:title=" ">
<polygon fill="white" stroke="#bfbfbf" points="117.5,-56.5 117.5,-75.5 196.5,-75.5 196.5,-56.5 117.5,-56.5"/>
<text text-anchor="middle" x="157" y="-63.5" font-family="Helvetica,sans-Serif" font-size="10.00">fmt/format.h</text>
</a>
</g>
</g>
<!-- Node3&#45;&gt;Node15 -->
<g id="edge22" class="edge">
<title>Node3&#45;&gt;Node15</title>
<path fill="none" stroke="midnightblue" d="M88.87,-224.08C100.25,-197.83 133.78,-120.55 149.14,-85.12"/>
<polygon fill="midnightblue" stroke="midnightblue" points="152.52,-86.14 153.28,-75.57 146.09,-83.35 152.52,-86.14"/>
</g>
<!-- Node18 -->
<g id="node18" class="node">
<title>Node18</title>
<g id="a_node18"><a xlink:title=" ">
<polygon fill="white" stroke="#bfbfbf" points="0,-168.5 0,-187.5 40,-187.5 40,-168.5 0,-168.5"/>
<text text-anchor="middle" x="20" y="-175.5" font-family="Helvetica,sans-Serif" font-size="10.00">span</text>
</a>
</g>
</g>
<!-- Node3&#45;&gt;Node18 -->
<g id="edge21" class="edge">
<title>Node3&#45;&gt;Node18</title>
<path fill="none" stroke="midnightblue" d="M74.56,-224.32C64.85,-216.26 50.18,-204.08 38.5,-194.37"/>
<polygon fill="midnightblue" stroke="midnightblue" points="40.56,-191.53 30.63,-187.83 36.09,-196.92 40.56,-191.53"/>
</g>
<!-- Node5 -->
<g id="node5" class="node">
<title>Node5</title>
<g id="a_node5"><a xlink:href="include_2ccf_2crypto_2base64_8h.html" target="_top" xlink:title=" ">
<polygon fill="white" stroke="black" points="501,-56.5 501,-75.5 613,-75.5 613,-56.5 501,-56.5"/>
<text text-anchor="middle" x="557" y="-63.5" font-family="Helvetica,sans-Serif" font-size="10.00">ccf/crypto/base64.h</text>
</a>
</g>
</g>
<!-- Node4&#45;&gt;Node5 -->
<g id="edge4" class="edge">
<title>Node4&#45;&gt;Node5</title>
<path fill="none" stroke="midnightblue" d="M232.62,-171.87C277.28,-165.32 352.64,-152.32 415,-132 457.66,-118.1 504.51,-95.01 532.3,-80.42"/>
<polygon fill="midnightblue" stroke="midnightblue" points="534.1,-83.42 541.3,-75.64 530.82,-77.24 534.1,-83.42"/>
</g>
<!-- Node8 -->
<g id="node8" class="node">
<title>Node8</title>
<g id="a_node8"><a xlink:href="include_2ccf_2ds_2json__schema_8h.html" target="_top" xlink:title=" ">
<polygon fill="white" stroke="black" points="284.5,-112.5 284.5,-131.5 405.5,-131.5 405.5,-112.5 284.5,-112.5"/>
<text text-anchor="middle" x="345" y="-119.5" font-family="Helvetica,sans-Serif" font-size="10.00">ccf/ds/json_schema.h</text>
</a>
</g>
</g>
<!-- Node4&#45;&gt;Node8 -->
<g id="edge7" class="edge">
<title>Node4&#45;&gt;Node8</title>
<path fill="none" stroke="midnightblue" d="M217.93,-168.44C243.22,-159.4 283.3,-145.06 311.68,-134.92"/>
<polygon fill="midnightblue" stroke="midnightblue" points="312.95,-138.18 321.19,-131.52 310.59,-131.59 312.95,-138.18"/>
</g>
<!-- Node4&#45;&gt;Node15 -->
<g id="edge18" class="edge">
<title>Node4&#45;&gt;Node15</title>
<path fill="none" stroke="midnightblue" d="M186.09,-168.46C178.72,-159.93 168.11,-146.09 163,-132 157.63,-117.17 156.32,-99.24 156.25,-85.98"/>
<polygon fill="midnightblue" stroke="midnightblue" points="159.76,-85.78 156.43,-75.71 152.76,-85.65 159.76,-85.78"/>
</g>
<!-- Node17 -->
<g id="node17" class="node">
<title>Node17</title>
<g id="a_node17"><a xlink:title=" ">
<polygon fill="white" stroke="#bfbfbf" points="172,-112.5 172,-131.5 228,-131.5 228,-112.5 172,-112.5"/>
<text text-anchor="middle" x="200" y="-119.5" font-family="Helvetica,sans-Serif" font-size="10.00">sstream</text>
</a>
</g>
</g>
<!-- Node4&#45;&gt;Node17 -->
<g id="edge19" class="edge">
<title>Node4&#45;&gt;Node17</title>
<path fill="none" stroke="midnightblue" d="M194.99,-168.08C195.79,-160.93 196.93,-150.64 197.92,-141.69"/>
<polygon fill="midnightblue" stroke="midnightblue" points="201.4,-142.08 199.03,-131.75 194.44,-141.3 201.4,-142.08"/>
</g>
<!-- Node6 -->
<g id="node6" class="node">
<title>Node6</title>
<g id="a_node6"><a xlink:title=" ">
<polygon fill="white" stroke="#bfbfbf" points="619,-0.5 619,-19.5 663,-19.5 663,-0.5 619,-0.5"/>
<text text-anchor="middle" x="641" y="-7.5" font-family="Helvetica,sans-Serif" font-size="10.00">string</text>
</a>
</g>
</g>
<!-- Node5&#45;&gt;Node6 -->
<g id="edge5" class="edge">
<title>Node5&#45;&gt;Node6</title>
<path fill="none" stroke="midnightblue" d="M570.5,-56.32C583.6,-47.9 603.71,-34.97 619.11,-25.07"/>
<polygon fill="midnightblue" stroke="midnightblue" points="621.02,-28.01 627.54,-19.65 617.23,-22.12 621.02,-28.01"/>
</g>
<!-- Node5&#45;&gt;Node7 -->
<g id="edge6" class="edge">
<title>Node5&#45;&gt;Node7</title>
<path fill="none" stroke="midnightblue" d="M558.65,-56.08C559.98,-48.93 561.88,-38.64 563.54,-29.69"/>
<polygon fill="midnightblue" stroke="midnightblue" points="567,-30.22 565.38,-19.75 560.12,-28.95 567,-30.22"/>
</g>
<!-- Node9 -->
<g id="node9" class="node">
<title>Node9</title>
<g id="a_node9"><a xlink:href="nonstd_8h.html" target="_top" xlink:title=" ">
<polygon fill="white" stroke="black" points="227,-56.5 227,-75.5 317,-75.5 317,-56.5 227,-56.5"/>
<text text-anchor="middle" x="272" y="-63.5" font-family="Helvetica,sans-Serif" font-size="10.00">ccf/ds/nonstd.h</text>
</a>
</g>
</g>
<!-- Node8&#45;&gt;Node9 -->
<g id="edge8" class="edge">
<title>Node8&#45;&gt;Node9</title>
<path fill="none" stroke="midnightblue" d="M333.27,-112.32C322.16,-104.11 305.26,-91.6 292.02,-81.81"/>
<polygon fill="midnightblue" stroke="midnightblue" points="294.06,-78.97 283.94,-75.83 289.9,-84.59 294.06,-78.97"/>
</g>
<!-- Node8&#45;&gt;Node15 -->
<g id="edge16" class="edge">
<title>Node8&#45;&gt;Node15</title>
<path fill="none" stroke="midnightblue" d="M315.21,-112.44C283.17,-103.24 232.07,-88.56 196.65,-78.39"/>
<polygon fill="midnightblue" stroke="midnightblue" points="197.23,-74.91 186.65,-75.52 195.29,-81.64 197.23,-74.91"/>
</g>
<!-- Node16 -->
<g id="node16" class="node">
<title>Node16</title>
<g id="a_node16"><a xlink:title=" ">
<polygon fill="white" stroke="#bfbfbf" points="335,-56.5 335,-75.5 445,-75.5 445,-56.5 335,-56.5"/>
<text text-anchor="middle" x="390" y="-63.5" font-family="Helvetica,sans-Serif" font-size="10.00">nlohmann/json.hpp</text>
</a>
</g>
</g>
<!-- Node8&#45;&gt;Node16 -->
<g id="edge17" class="edge">
<title>Node8&#45;&gt;Node16</title>
<path fill="none" stroke="midnightblue" d="M352.43,-112.08C358.85,-104.38 368.31,-93.03 376.12,-83.65"/>
<polygon fill="midnightblue" stroke="midnightblue" points="378.99,-85.67 382.71,-75.75 373.62,-81.19 378.99,-85.67"/>
</g>
<!-- Node9&#45;&gt;Node6 -->
<g id="edge12" class="edge">
<title>Node9&#45;&gt;Node6</title>
<path fill="none" stroke="midnightblue" d="M317.06,-57.37C320.09,-56.9 323.09,-56.43 326,-56 447.48,-37.9 479.02,-41.19 600,-20 602.89,-19.49 605.89,-18.92 608.89,-18.32"/>
<polygon fill="midnightblue" stroke="midnightblue" points="609.88,-21.69 618.94,-16.21 608.43,-14.84 609.88,-21.69"/>
</g>
<!-- Node9&#45;&gt;Node7 -->
<g id="edge15" class="edge">
<title>Node9&#45;&gt;Node7</title>
<path fill="none" stroke="midnightblue" d="M317.13,-56.74C376.74,-45.83 480.39,-26.85 533.51,-17.13"/>
<polygon fill="midnightblue" stroke="midnightblue" points="534.23,-20.56 543.43,-15.31 532.97,-13.67 534.23,-20.56"/>
</g>
<!-- Node10 -->
<g id="node10" class="node">
<title>Node10</title>
<g id="a_node10"><a xlink:title=" ">
<polygon fill="white" stroke="#bfbfbf" points="240,-0.5 240,-19.5 304,-19.5 304,-0.5 240,-0.5"/>
<text text-anchor="middle" x="272" y="-7.5" font-family="Helvetica,sans-Serif" font-size="10.00">algorithm</text>
</a>
</g>
</g>
<!-- Node9&#45;&gt;Node10 -->
<g id="edge9" class="edge">
<title>Node9&#45;&gt;Node10</title>
<path fill="none" stroke="midnightblue" d="M272,-56.08C272,-49.01 272,-38.86 272,-29.99"/>
<polygon fill="midnightblue" stroke="midnightblue" points="275.5,-29.75 272,-19.75 268.5,-29.75 275.5,-29.75"/>
</g>
<!-- Node9&#45;&gt;Node11 -->
<g id="edge10" class="edge">
<title>Node9&#45;&gt;Node11</title>
<path fill="none" stroke="midnightblue" d="M245.22,-56.44C214.9,-46.76 165.59,-31 133.73,-20.82"/>
<polygon fill="midnightblue" stroke="midnightblue" points="134.64,-17.43 124.05,-17.73 132.51,-24.1 134.64,-17.43"/>
</g>
<!-- Node12 -->
<g id="node12" class="node">
<title>Node12</title>
<g id="a_node12"><a xlink:title=" ">
<polygon fill="white" stroke="#bfbfbf" points="322.5,-0.5 322.5,-19.5 371.5,-19.5 371.5,-0.5 322.5,-0.5"/>
<text text-anchor="middle" x="347" y="-7.5" font-family="Helvetica,sans-Serif" font-size="10.00">cctype</text>
</a>
</g>
</g>
<!-- Node9&#45;&gt;Node12 -->
<g id="edge11" class="edge">
<title>Node9&#45;&gt;Node12</title>
<path fill="none" stroke="midnightblue" d="M284.05,-56.32C295.46,-48.11 312.83,-35.6 326.43,-25.81"/>
<polygon fill="midnightblue" stroke="midnightblue" points="328.66,-28.52 334.73,-19.83 324.57,-22.84 328.66,-28.52"/>
</g>
<!-- Node13 -->
<g id="node13" class="node">
<title>Node13</title>
<g id="a_node13"><a xlink:title=" ">
<polygon fill="white" stroke="#bfbfbf" points="413.5,-0.5 413.5,-19.5 486.5,-19.5 486.5,-0.5 413.5,-0.5"/>
<text text-anchor="middle" x="450" y="-7.5" font-family="Helvetica,sans-Serif" font-size="10.00">string_view</text>
</a>
</g>
</g>
<!-- Node9&#45;&gt;Node13 -->
<g id="edge13" class="edge">
<title>Node9&#45;&gt;Node13</title>
<path fill="none" stroke="midnightblue" d="M300.2,-56.44C330.41,-47.28 378.51,-32.69 412.03,-22.52"/>
<polygon fill="midnightblue" stroke="midnightblue" points="413.37,-25.77 421.93,-19.52 411.34,-19.07 413.37,-25.77"/>
</g>
<!-- Node14 -->
<g id="node14" class="node">
<title>Node14</title>
<g id="a_node14"><a xlink:title=" ">
<polygon fill="white" stroke="#bfbfbf" points="152.5,-0.5 152.5,-19.5 221.5,-19.5 221.5,-0.5 152.5,-0.5"/>
<text text-anchor="middle" x="187" y="-7.5" font-family="Helvetica,sans-Serif" font-size="10.00">type_traits</text>
</a>
</g>
</g>
<!-- Node9&#45;&gt;Node14 -->
<g id="edge14" class="edge">
<title>Node9&#45;&gt;Node14</title>
<path fill="none" stroke="midnightblue" d="M258.34,-56.32C245.08,-47.9 224.73,-34.97 209.15,-25.07"/>
<polygon fill="midnightblue" stroke="midnightblue" points="210.94,-22.06 200.62,-19.65 207.19,-27.97 210.94,-22.06"/>
</g>
<!-- Node21&#45;&gt;Node6 -->
<g id="edge27" class="edge">
<title>Node21&#45;&gt;Node6</title>
<path fill="none" stroke="midnightblue" d="M918.31,-285.76C927.26,-266.8 947,-220.29 947,-179 947,-179 947,-179 947,-121 947,-63.31 751.95,-27.62 673.3,-15.58"/>
<polygon fill="midnightblue" stroke="midnightblue" points="673.42,-12.05 663.01,-14.03 672.38,-18.98 673.42,-12.05"/>
</g>
<!-- Node22 -->
<g id="node22" class="node">
<title>Node22</title>
<g id="a_node22"><a xlink:title=" ">
<polygon fill="white" stroke="#bfbfbf" points="881,-224.5 881,-243.5 919,-243.5 919,-224.5 881,-224.5"/>
<text text-anchor="middle" x="900" y="-231.5" font-family="Helvetica,sans-Serif" font-size="10.00">map</text>
</a>
</g>
</g>
<!-- Node21&#45;&gt;Node22 -->
<g id="edge26" class="edge">
<title>Node21&#45;&gt;Node22</title>
<path fill="none" stroke="midnightblue" d="M911.99,-285.98C910,-277.49 906.87,-264.2 904.31,-253.32"/>
<polygon fill="midnightblue" stroke="midnightblue" points="907.7,-252.44 902,-243.51 900.89,-254.04 907.7,-252.44"/>
</g>
<!-- Node23&#45;&gt;Node4 -->
<g id="edge29" class="edge">
<title>Node23&#45;&gt;Node4</title>
<path fill="none" stroke="midnightblue" d="M245.1,-285.99C231.42,-277.31 211.84,-262.51 202,-244 194.41,-229.72 192.79,-211.25 192.84,-197.65"/>
<polygon fill="midnightblue" stroke="midnightblue" points="196.34,-197.69 193.18,-187.57 189.34,-197.45 196.34,-197.69"/>
</g>
<!-- Node24 -->
<g id="node24" class="node">
<title>Node24</title>
<g id="a_node24"><a xlink:href="http__status_8h.html" target="_top" xlink:title=" ">
<polygon fill="white" stroke="black" points="211,-224.5 211,-243.5 309,-243.5 309,-224.5 211,-224.5"/>
<text text-anchor="middle" x="260" y="-231.5" font-family="Helvetica,sans-Serif" font-size="10.00">ccf/http_status.h</text>
</a>
</g>
</g>
<!-- Node23&#45;&gt;Node24 -->
<g id="edge30" class="edge">
<title>Node23&#45;&gt;Node24</title>
<path fill="none" stroke="midnightblue" d="M260,-285.98C260,-277.58 260,-264.48 260,-253.66"/>
<polygon fill="midnightblue" stroke="midnightblue" points="263.5,-253.51 260,-243.51 256.5,-253.51 263.5,-253.51"/>
</g>
<!-- Node25&#45;&gt;Node6 -->
<g id="edge33" class="edge">
<title>Node25&#45;&gt;Node6</title>
<path fill="none" stroke="midnightblue" d="M797.48,-285.9C808.14,-276.61 824.41,-260.87 834,-244 848.88,-217.84 853,-209.1 853,-179 853,-179 853,-179 853,-121 853,-41.01 732.61,-19.11 673.27,-13.17"/>
<polygon fill="midnightblue" stroke="midnightblue" points="673.56,-9.69 663.29,-12.27 672.93,-16.66 673.56,-9.69"/>
</g>
<!-- Node26 -->
<g id="node26" class="node">
<title>Node26</title>
<g id="a_node26"><a xlink:title=" ">
<polygon fill="white" stroke="#bfbfbf" points="745,-224.5 745,-243.5 825,-243.5 825,-224.5 745,-224.5"/>
<text text-anchor="middle" x="785" y="-231.5" font-family="Helvetica,sans-Serif" font-size="10.00">llhttp/llhttp.h</text>
</a>
</g>
</g>
<!-- Node25&#45;&gt;Node26 -->
<g id="edge32" class="edge">
<title>Node25&#45;&gt;Node26</title>
<path fill="none" stroke="midnightblue" d="M786.71,-285.98C786.43,-277.58 785.99,-264.48 785.63,-253.66"/>
<polygon fill="midnightblue" stroke="midnightblue" points="789.12,-253.39 785.29,-243.51 782.12,-253.62 789.12,-253.39"/>
</g>
<!-- Node27&#45;&gt;Node4 -->
<g id="edge37" class="edge">
<title>Node27&#45;&gt;Node4</title>
<path fill="none" stroke="midnightblue" d="M499.23,-280.29C491.8,-263.92 477.25,-237.52 456,-224 455.44,-223.64 318.44,-200.23 242.8,-187.32"/>
<polygon fill="midnightblue" stroke="midnightblue" points="243,-183.81 232.56,-185.57 241.82,-190.71 243,-183.81"/>
</g>
<!-- Node27&#45;&gt;Node7 -->
<g id="edge38" class="edge">
<title>Node27&#45;&gt;Node7</title>
<path fill="none" stroke="midnightblue" d="M557.21,-283.25C608.46,-268.76 679,-238.1 679,-179 679,-179 679,-179 679,-121 679,-74.61 629.49,-41.28 596.31,-24.15"/>
<polygon fill="midnightblue" stroke="midnightblue" points="597.54,-20.86 587.02,-19.56 594.43,-27.13 597.54,-20.86"/>
</g>
<!-- Node28 -->
<g id="node28" class="node">
<title>Node28</title>
<g id="a_node28"><a xlink:href="md__type_8h.html" target="_top" xlink:title=" ">
<polygon fill="white" stroke="black" points="327.5,-224.5 327.5,-243.5 446.5,-243.5 446.5,-224.5 327.5,-224.5"/>
<text text-anchor="middle" x="387" y="-231.5" font-family="Helvetica,sans-Serif" font-size="10.00">ccf/crypto/md_type.h</text>
</a>
</g>
</g>
<!-- Node27&#45;&gt;Node28 -->
<g id="edge35" class="edge">
<title>Node27&#45;&gt;Node28</title>
<path fill="none" stroke="midnightblue" d="M477.04,-280.4C457.68,-270.64 432.09,-257.74 413.14,-248.18"/>
<polygon fill="midnightblue" stroke="midnightblue" points="414.67,-245.04 404.17,-243.66 411.52,-251.29 414.67,-245.04"/>
</g>
<!-- Node28&#45;&gt;Node4 -->
<g id="edge36" class="edge">
<title>Node28&#45;&gt;Node4</title>
<path fill="none" stroke="midnightblue" d="M356.42,-224.44C323.39,-215.2 270.61,-200.44 234.23,-190.26"/>
<polygon fill="midnightblue" stroke="midnightblue" points="235.01,-186.84 224.44,-187.52 233.13,-193.58 235.01,-186.84"/>
</g>
<!-- Node29&#45;&gt;Node4 -->
<g id="edge40" class="edge">
<title>Node29&#45;&gt;Node4</title>
<path fill="none" stroke="midnightblue" d="M503.46,-226.54C498.61,-225.66 493.68,-224.79 489,-224 381.76,-205.98 354.39,-205.1 247,-188 245.7,-187.79 244.39,-187.58 243.06,-187.37"/>
<polygon fill="midnightblue" stroke="midnightblue" points="243.21,-183.84 232.77,-185.68 242.07,-190.75 243.21,-183.84"/>
</g>
<!-- Node29&#45;&gt;Node6 -->
<g id="edge46" class="edge">
<title>Node29&#45;&gt;Node6</title>
<path fill="none" stroke="midnightblue" d="M568.81,-224.4C587.43,-217.64 609.64,-206.25 622,-188 655.17,-139.03 649.37,-64.37 644.32,-29.79"/>
<polygon fill="midnightblue" stroke="midnightblue" points="647.74,-29.01 642.7,-19.69 640.83,-30.12 647.74,-29.01"/>
</g>
<!-- Node29&#45;&gt;Node13 -->
<g id="edge47" class="edge">
<title>Node29&#45;&gt;Node13</title>
<path fill="none" stroke="midnightblue" d="M533.59,-224.3C520.73,-191.49 475.04,-74.88 457.2,-29.38"/>
<polygon fill="midnightblue" stroke="midnightblue" points="460.39,-27.92 453.48,-19.88 453.87,-30.47 460.39,-27.92"/>
</g>
<!-- Node29&#45;&gt;Node15 -->
<g id="edge43" class="edge">
<title>Node29&#45;&gt;Node15</title>
<path fill="none" stroke="midnightblue" d="M503.45,-226.29C457.87,-216.92 378.97,-199.76 352,-188 295.85,-163.51 289.29,-143.93 237,-112 218.98,-101 198.18,-89.33 182.31,-80.63"/>
<polygon fill="midnightblue" stroke="midnightblue" points="183.59,-77.34 173.13,-75.63 180.24,-83.49 183.59,-77.34"/>
</g>
<!-- Node29&#45;&gt;Node16 -->
<g id="edge44" class="edge">
<title>Node29&#45;&gt;Node16</title>
<path fill="none" stroke="midnightblue" d="M503.38,-226.64C455.04,-217.17 370.72,-199.25 362,-188 335.38,-153.67 407.75,-145.69 415,-132 423.36,-116.22 413.76,-97.02 404.13,-83.6"/>
<polygon fill="midnightblue" stroke="midnightblue" points="406.9,-81.45 398,-75.7 401.37,-85.74 406.9,-81.45"/>
</g>
<!-- Node30 -->
<g id="node30" class="node">
<title>Node30</title>
<g id="a_node30"><a xlink:title=" ">
<polygon fill="white" stroke="#bfbfbf" points="551.5,-168.5 551.5,-187.5 612.5,-187.5 612.5,-168.5 551.5,-168.5"/>
<text text-anchor="middle" x="582" y="-175.5" font-family="Helvetica,sans-Serif" font-size="10.00">charconv</text>
</a>
</g>
</g>
<!-- Node29&#45;&gt;Node30 -->
<g id="edge41" class="edge">
<title>Node29&#45;&gt;Node30</title>
<path fill="none" stroke="midnightblue" d="M544.43,-224.08C550.85,-216.38 560.31,-205.03 568.12,-195.65"/>
<polygon fill="midnightblue" stroke="midnightblue" points="570.99,-197.67 574.71,-187.75 565.62,-193.19 570.99,-197.67"/>
</g>
<!-- Node31 -->
<g id="node31" class="node">
<title>Node31</title>
<g id="a_node31"><a xlink:title=" ">
<polygon fill="white" stroke="#bfbfbf" points="371,-168.5 371,-187.5 421,-187.5 421,-168.5 371,-168.5"/>
<text text-anchor="middle" x="396" y="-175.5" font-family="Helvetica,sans-Serif" font-size="10.00">cstdint</text>
</a>
</g>
</g>
<!-- Node29&#45;&gt;Node31 -->
<g id="edge42" class="edge">
<title>Node29&#45;&gt;Node31</title>
<path fill="none" stroke="midnightblue" d="M514.66,-224.44C491.25,-215.48 454.26,-201.31 427.81,-191.18"/>
<polygon fill="midnightblue" stroke="midnightblue" points="428.83,-187.82 418.24,-187.52 426.32,-194.36 428.83,-187.82"/>
</g>
<!-- Node32 -->
<g id="node32" class="node">
<title>Node32</title>
<g id="a_node32"><a xlink:title=" ">
<polygon fill="white" stroke="#bfbfbf" points="439,-168.5 439,-187.5 495,-187.5 495,-168.5 439,-168.5"/>
<text text-anchor="middle" x="467" y="-175.5" font-family="Helvetica,sans-Serif" font-size="10.00">optional</text>
</a>
</g>
</g>
<!-- Node29&#45;&gt;Node32 -->
<g id="edge45" class="edge">
<title>Node29&#45;&gt;Node32</title>
<path fill="none" stroke="midnightblue" d="M525.75,-224.32C515.2,-216.18 499.2,-203.84 486.56,-194.09"/>
<polygon fill="midnightblue" stroke="midnightblue" points="488.51,-191.17 478.45,-187.83 484.23,-196.71 488.51,-191.17"/>
</g>
</g>
</svg>
        <g id="navigator" transform="translate(0 0)" fill="#404254">
                <rect fill="#f2f5e9" fill-opacity="0.5" stroke="#606060" stroke-width=".5" x="0" y="0" width="60" height="60"/>
                <use id="zoomplus" xlink:href="#zoomPlus" x="17" y="9" onmousedown="handleZoom(evt,'in')"/>
                <use id="zoomminus" xlink:href="#zoomMin" x="42" y="9" onmousedown="handleZoom(evt,'out')"/>
                <use id="reset" xlink:href="#resetDef" x="30" y="36" onmousedown="handleReset()"/>
                <g id="arrowUp" xlink:href="#dirArrow" transform="translate(30 24)" onmousedown="handlePan(0,-1)">
                  <use xlink:href="#rim" fill="#404040">
                        <set attributeName="fill" to="#808080" begin="arrowUp.mouseover" end="arrowUp.mouseout"/>
                  </use>
                  <path fill="none" stroke="white" stroke-width="1.5" d="M0,-3.0v7 M-2.5,-0.5L0,-3.0L2.5,-0.5"/>
                </g>
                <g id="arrowRight" xlink:href="#dirArrow" transform="rotate(90) translate(36 -43)" onmousedown="handlePan(1,0)">
                  <use xlink:href="#rim" fill="#404040">
                        <set attributeName="fill" to="#808080" begin="arrowRight.mouseover" end="arrowRight.mouseout"/>
                  </use>
                  <path fill="none" stroke="white" stroke-width="1.5" d="M0,-3.0v7 M-2.5,-0.5L0,-3.0L2.5,-0.5"/>
                </g>
                <g id="arrowDown" xlink:href="#dirArrow" transform="rotate(180) translate(-30 -48)" onmousedown="handlePan(0,1)">
                  <use xlink:href="#rim" fill="#404040">
                        <set attributeName="fill" to="#808080" begin="arrowDown.mouseover" end="arrowDown.mouseout"/>
                  </use>
                  <path fill="none" stroke="white" stroke-width="1.5" d="M0,-3.0v7 M-2.5,-0.5L0,-3.0L2.5,-0.5"/>
                </g>
                <g id="arrowLeft" xlink:href="#dirArrow" transform="rotate(270) translate(-36 17)" onmousedown="handlePan(-1,0)">
                  <use xlink:href="#rim" fill="#404040">
                        <set attributeName="fill" to="#808080" begin="arrowLeft.mouseover" end="arrowLeft.mouseout"/>
                  </use>
                  <path fill="none" stroke="white" stroke-width="1.5" d="M0,-3.0v7 M-2.5,-0.5L0,-3.0L2.5,-0.5"/>
                </g>
        </g>
        <svg viewBox="0 0 15 15" width="100%" height="30px" preserveAspectRatio="xMaxYMin meet">
         <g id="arrow_out" transform="scale(0.3 0.3)">
          <a xlink:href="rpc__context_8h__incl_org.svg" target="_base">
           <rect id="button" ry="5" rx="5" y="6" x="6" height="38" width="38"
                fill="#f2f5e9" fill-opacity="0.5" stroke="#606060" stroke-width="1.0"/>
           <path id="arrow"
             d="M 11.500037,31.436501 C 11.940474,20.09759 22.043105,11.32322 32.158766,21.979434 L 37.068811,17.246167 C 37.068811,17.246167 37.088388,32 37.088388,32 L 22.160133,31.978069 C 22.160133,31.978069 26.997745,27.140456 26.997745,27.140456 C 18.528582,18.264221 13.291696,25.230495 11.500037,31.436501 z"
             style="fill:#404040;"/>
          </a>
         </g>
        </svg>
</svg>
