<?xml version="1.0" encoding="UTF-8" standalone="no"?>
<!DOCTYPE svg PUBLIC "-//W3C//DTD SVG 1.1//EN"
 "http://www.w3.org/Graphics/SVG/1.1/DTD/svg11.dtd">
<!-- Generated by graphviz version 2.43.0 (0)
 -->
<!-- Title: src/node/rpc/rpc_context_impl.h Pages: 1 -->
<!--zoomable 442 -->
<svg id="main" version="1.1" xmlns="http://www.w3.org/2000/svg" xmlns:xlink="http://www.w3.org/1999/xlink" xml:space="preserve" onload="init(evt)">
<style type="text/css"><![CDATA[
.edge:hover path { stroke: red; }
.edge:hover polygon { stroke: red; fill: red; }
]]></style>
<script type="text/javascript"><![CDATA[
var edges = document.getElementsByTagName('g');
if (edges && edges.length) {
  for (var i=0;i<edges.length;i++) {
    if (edges[i].id.substr(0,4)=='edge') {
      edges[i].setAttribute('class','edge');
    }
  }
}
]]></script>
        <defs>
                <circle id="rim" cx="0" cy="0" r="7"/>
                <circle id="rim2" cx="0" cy="0" r="3.5"/>
                <g id="zoomPlus">
                        <use xlink:href="#rim" fill="#404040">
                                <set attributeName="fill" to="#808080" begin="zoomplus.mouseover" end="zoomplus.mouseout"/>
                        </use>
                        <path d="M-4,0h8M0,-4v8" fill="none" stroke="white" stroke-width="1.5" pointer-events="none"/>
                </g>
                <g id="zoomMin">
                        <use xlink:href="#rim" fill="#404040">
                                <set attributeName="fill" to="#808080" begin="zoomminus.mouseover" end="zoomminus.mouseout"/>
                        </use>
                        <path d="M-4,0h8" fill="none" stroke="white" stroke-width="1.5" pointer-events="none"/>
                </g>
                <g id="dirArrow">
                        <path fill="none" stroke="white" stroke-width="1.5" d="M0,-3.0v7 M-2.5,-0.5L0,-3.0L2.5,-0.5"/>
                </g>
               <g id="resetDef">
                       <use xlink:href="#rim2" fill="#404040">
                               <set attributeName="fill" to="#808080" begin="reset.mouseover" end="reset.mouseout"/>
                       </use>
               </g>
        </defs>

<script type="text/javascript">
var viewWidth = 1685;
var viewHeight = 442;
var sectionId = 'dynsection-0';
</script>
<script xlink:href="svgpan.js"/>
<svg id="graph" class="graph">
<g id="viewport">
<title>src/node/rpc/rpc_context_impl.h</title>
<polygon fill="white" stroke="transparent" points="-4,4 -4,-438 1681,-438 1681,4 -4,4"/>
<!-- Node1 -->
<g id="node1" class="node">
<title>Node1</title>
<g id="a_node1"><a xlink:title=" ">
<polygon fill="#bfbfbf" stroke="black" points="603,-403.5 603,-433.5 739,-433.5 739,-403.5 603,-403.5"/>
<text text-anchor="start" x="611" y="-421.5" font-family="Helvetica,sans-Serif" font-size="10.00">src/node/rpc/rpc_context</text>
<text text-anchor="middle" x="671" y="-410.5" font-family="Helvetica,sans-Serif" font-size="10.00">_impl.h</text>
</a>
</g>
</g>
<!-- Node2 -->
<g id="node2" class="node">
<title>Node2</title>
<g id="a_node2"><a xlink:href="rpc__context_8h.html" target="_top" xlink:title=" ">
<polygon fill="white" stroke="black" points="483,-347.5 483,-366.5 583,-366.5 583,-347.5 483,-347.5"/>
<text text-anchor="middle" x="533" y="-354.5" font-family="Helvetica,sans-Serif" font-size="10.00">ccf/rpc_context.h</text>
</a>
</g>
</g>
<!-- Node1&#45;&gt;Node2 -->
<g id="edge1" class="edge">
<title>Node1&#45;&gt;Node2</title>
<path fill="none" stroke="midnightblue" d="M638.3,-403.4C615.25,-393.46 584.64,-380.26 562.37,-370.66"/>
<polygon fill="midnightblue" stroke="midnightblue" points="563.65,-367.4 553.08,-366.66 560.88,-373.83 563.65,-367.4"/>
</g>
<!-- Node34 -->
<g id="node34" class="node">
<title>Node34</title>
<g id="a_node34"><a xlink:href="claims_8h.html" target="_top" xlink:title=" ">
<polygon fill="white" stroke="black" points="815.5,-347.5 815.5,-366.5 918.5,-366.5 918.5,-347.5 815.5,-347.5"/>
<text text-anchor="middle" x="867" y="-354.5" font-family="Helvetica,sans-Serif" font-size="10.00">node/rpc/claims.h</text>
</a>
</g>
</g>
<!-- Node1&#45;&gt;Node34 -->
<g id="edge50" class="edge">
<title>Node1&#45;&gt;Node34</title>
<path fill="none" stroke="midnightblue" d="M717.45,-403.4C751.46,-393.07 797.06,-379.23 828.93,-369.56"/>
<polygon fill="midnightblue" stroke="midnightblue" points="830.21,-372.82 838.77,-366.57 828.18,-366.13 830.21,-372.82"/>
</g>
<!-- Node3 -->
<g id="node3" class="node">
<title>Node3</title>
<g id="a_node3"><a xlink:href="claims__digest_8h.html" target="_top" xlink:title=" ">
<polygon fill="white" stroke="black" points="812,-286 812,-305 922,-305 922,-286 812,-286"/>
<text text-anchor="middle" x="867" y="-293" font-family="Helvetica,sans-Serif" font-size="10.00">ccf/claims_digest.h</text>
</a>
</g>
</g>
<!-- Node2&#45;&gt;Node3 -->
<g id="edge2" class="edge">
<title>Node2&#45;&gt;Node3</title>
<path fill="none" stroke="midnightblue" d="M583.41,-348.04C636.8,-339.47 723.5,-325.15 798,-311 804.31,-309.8 810.94,-308.48 817.48,-307.15"/>
<polygon fill="midnightblue" stroke="midnightblue" points="818.56,-310.5 827.65,-305.05 817.14,-303.64 818.56,-310.5"/>
</g>
<!-- Node8 -->
<g id="node8" class="node">
<title>Node8</title>
<g id="a_node8"><a xlink:title=" ">
<polygon fill="white" stroke="#bfbfbf" points="14.5,-0.5 14.5,-19.5 61.5,-19.5 61.5,-0.5 14.5,-0.5"/>
<text text-anchor="middle" x="38" y="-7.5" font-family="Helvetica,sans-Serif" font-size="10.00">vector</text>
</a>
</g>
</g>
<!-- Node2&#45;&gt;Node8 -->
<g id="edge49" class="edge">
<title>Node2&#45;&gt;Node8</title>
<path fill="none" stroke="midnightblue" d="M482.86,-355.22C350.17,-351.8 0,-333.45 0,-235 0,-235 0,-235 0,-121 0,-86.81 16.6,-49.76 27.86,-28.57"/>
<polygon fill="midnightblue" stroke="midnightblue" points="30.95,-30.22 32.72,-19.77 24.82,-26.83 30.95,-30.22"/>
</g>
<!-- Node20 -->
<g id="node20" class="node">
<title>Node20</title>
<g id="a_node20"><a xlink:href="frame__format_8h.html" target="_top" xlink:title=" ">
<polygon fill="white" stroke="black" points="295,-286 295,-305 405,-305 405,-286 295,-286"/>
<text text-anchor="middle" x="350" y="-293" font-family="Helvetica,sans-Serif" font-size="10.00">ccf/frame_format.h</text>
</a>
</g>
</g>
<!-- Node2&#45;&gt;Node20 -->
<g id="edge24" class="edge">
<title>Node2&#45;&gt;Node20</title>
<path fill="none" stroke="midnightblue" d="M506.78,-347.48C474.98,-337.14 421.23,-319.66 385.68,-308.1"/>
<polygon fill="midnightblue" stroke="midnightblue" points="386.76,-304.77 376.17,-305.01 384.6,-311.43 386.76,-304.77"/>
</g>
<!-- Node21 -->
<g id="node21" class="node">
<title>Node21</title>
<g id="a_node21"><a xlink:href="http__consts_8h.html" target="_top" xlink:title=" ">
<polygon fill="white" stroke="black" points="423.5,-286 423.5,-305 522.5,-305 522.5,-286 423.5,-286"/>
<text text-anchor="middle" x="473" y="-293" font-family="Helvetica,sans-Serif" font-size="10.00">ccf/http_consts.h</text>
</a>
</g>
</g>
<!-- Node2&#45;&gt;Node21 -->
<g id="edge25" class="edge">
<title>Node2&#45;&gt;Node21</title>
<path fill="none" stroke="midnightblue" d="M524.4,-347.48C515.14,-338.28 500.18,-323.46 488.79,-312.16"/>
<polygon fill="midnightblue" stroke="midnightblue" points="491.15,-309.57 481.58,-305.01 486.22,-314.54 491.15,-309.57"/>
</g>
<!-- Node22 -->
<g id="node22" class="node">
<title>Node22</title>
<g id="a_node22"><a xlink:href="http__header__map_8h.html" target="_top" xlink:title=" ">
<polygon fill="white" stroke="black" points="1287,-112.5 1287,-131.5 1415,-131.5 1415,-112.5 1287,-112.5"/>
<text text-anchor="middle" x="1351" y="-119.5" font-family="Helvetica,sans-Serif" font-size="10.00">ccf/http_header_map.h</text>
</a>
</g>
</g>
<!-- Node2&#45;&gt;Node22 -->
<g id="edge26" class="edge">
<title>Node2&#45;&gt;Node22</title>
<path fill="none" stroke="midnightblue" d="M583.2,-352.67C630.96,-348.02 703.93,-336.98 762,-311 782.85,-301.67 782.48,-290.04 803,-280 838.35,-262.7 1107.23,-199.03 1145,-188 1205.19,-170.42 1274.64,-148.07 1315.57,-134.69"/>
<polygon fill="midnightblue" stroke="midnightblue" points="1316.68,-138.01 1325.09,-131.57 1314.5,-131.36 1316.68,-138.01"/>
</g>
<!-- Node24 -->
<g id="node24" class="node">
<title>Node24</title>
<g id="a_node24"><a xlink:href="odata__error_8h.html" target="_top" xlink:title=" ">
<polygon fill="white" stroke="black" points="179,-286 179,-305 277,-305 277,-286 179,-286"/>
<text text-anchor="middle" x="228" y="-293" font-family="Helvetica,sans-Serif" font-size="10.00">ccf/odata_error.h</text>
</a>
</g>
</g>
<!-- Node2&#45;&gt;Node24 -->
<g id="edge29" class="edge">
<title>Node2&#45;&gt;Node24</title>
<path fill="none" stroke="midnightblue" d="M482.67,-347.81C432.62,-339.44 353.74,-325.62 286,-311 280.93,-309.91 275.63,-308.69 270.38,-307.43"/>
<polygon fill="midnightblue" stroke="midnightblue" points="270.97,-303.97 260.43,-305 269.31,-310.77 270.97,-303.97"/>
</g>
<!-- Node26 -->
<g id="node26" class="node">
<title>Node26</title>
<g id="a_node26"><a xlink:href="rest__verb_8h.html" target="_top" xlink:title=" ">
<polygon fill="white" stroke="black" points="663.5,-286 663.5,-305 752.5,-305 752.5,-286 663.5,-286"/>
<text text-anchor="middle" x="708" y="-293" font-family="Helvetica,sans-Serif" font-size="10.00">ccf/rest_verb.h</text>
</a>
</g>
</g>
<!-- Node2&#45;&gt;Node26 -->
<g id="edge32" class="edge">
<title>Node2&#45;&gt;Node26</title>
<path fill="none" stroke="midnightblue" d="M558.07,-347.48C588.35,-337.18 639.44,-319.81 673.44,-308.25"/>
<polygon fill="midnightblue" stroke="midnightblue" points="674.63,-311.54 682.97,-305.01 672.38,-304.91 674.63,-311.54"/>
</g>
<!-- Node28 -->
<g id="node28" class="node">
<title>Node28</title>
<g id="a_node28"><a xlink:href="signed__req_8h.html" target="_top" xlink:title=" ">
<polygon fill="white" stroke="black" points="541,-280.5 541,-310.5 645,-310.5 645,-280.5 541,-280.5"/>
<text text-anchor="start" x="549" y="-298.5" font-family="Helvetica,sans-Serif" font-size="10.00">ccf/service/signed</text>
<text text-anchor="middle" x="593" y="-287.5" font-family="Helvetica,sans-Serif" font-size="10.00">_req.h</text>
</a>
</g>
</g>
<!-- Node2&#45;&gt;Node28 -->
<g id="edge35" class="edge">
<title>Node2&#45;&gt;Node28</title>
<path fill="none" stroke="midnightblue" d="M541.6,-347.48C549.42,-339.72 561.29,-327.94 571.66,-317.66"/>
<polygon fill="midnightblue" stroke="midnightblue" points="574.22,-320.05 578.86,-310.52 569.29,-315.08 574.22,-320.05"/>
</g>
<!-- Node30 -->
<g id="node30" class="node">
<title>Node30</title>
<g id="a_node30"><a xlink:href="tx__id_8h.html" target="_top" xlink:title=" ">
<polygon fill="white" stroke="black" points="228.5,-224.5 228.5,-243.5 295.5,-243.5 295.5,-224.5 228.5,-224.5"/>
<text text-anchor="middle" x="262" y="-231.5" font-family="Helvetica,sans-Serif" font-size="10.00">ccf/tx_id.h</text>
</a>
</g>
</g>
<!-- Node2&#45;&gt;Node30 -->
<g id="edge40" class="edge">
<title>Node2&#45;&gt;Node30</title>
<path fill="none" stroke="midnightblue" d="M482.66,-353.4C387.83,-347.99 190.37,-334.05 170,-311 160.88,-300.68 162.71,-291.69 170,-280 180.77,-262.74 200.3,-251.92 218.6,-245.23"/>
<polygon fill="midnightblue" stroke="midnightblue" points="219.9,-248.48 228.29,-242.01 217.69,-241.84 219.9,-248.48"/>
</g>
<!-- Node4 -->
<g id="node4" class="node">
<title>Node4</title>
<g id="a_node4"><a xlink:href="sha256__hash_8h.html" target="_top" xlink:title=" ">
<polygon fill="white" stroke="black" points="775,-224.5 775,-243.5 915,-243.5 915,-224.5 775,-224.5"/>
<text text-anchor="middle" x="845" y="-231.5" font-family="Helvetica,sans-Serif" font-size="10.00">ccf/crypto/sha256_hash.h</text>
</a>
</g>
</g>
<!-- Node3&#45;&gt;Node4 -->
<g id="edge3" class="edge">
<title>Node3&#45;&gt;Node4</title>
<path fill="none" stroke="midnightblue" d="M863.85,-285.98C860.68,-277.4 855.7,-263.93 851.65,-252.98"/>
<polygon fill="midnightblue" stroke="midnightblue" points="854.9,-251.67 848.15,-243.51 848.33,-254.1 854.9,-251.67"/>
</g>
<!-- Node5 -->
<g id="node5" class="node">
<title>Node5</title>
<g id="a_node5"><a xlink:href="json_8h.html" target="_top" xlink:title=" ">
<polygon fill="white" stroke="black" points="525.5,-168.5 525.5,-187.5 602.5,-187.5 602.5,-168.5 525.5,-168.5"/>
<text text-anchor="middle" x="564" y="-175.5" font-family="Helvetica,sans-Serif" font-size="10.00">ccf/ds/json.h</text>
</a>
</g>
</g>
<!-- Node4&#45;&gt;Node5 -->
<g id="edge4" class="edge">
<title>Node4&#45;&gt;Node5</title>
<path fill="none" stroke="midnightblue" d="M800.47,-224.44C749.3,-214.61 665.58,-198.52 612.71,-188.36"/>
<polygon fill="midnightblue" stroke="midnightblue" points="613.37,-184.92 602.89,-186.47 612.05,-191.8 613.37,-184.92"/>
</g>
<!-- Node12 -->
<g id="node12" class="node">
<title>Node12</title>
<g id="a_node12"><a xlink:title=" ">
<polygon fill="white" stroke="#bfbfbf" points="1048,-0.5 1048,-19.5 1090,-19.5 1090,-0.5 1048,-0.5"/>
<text text-anchor="middle" x="1069" y="-7.5" font-family="Helvetica,sans-Serif" font-size="10.00">array</text>
</a>
</g>
</g>
<!-- Node4&#45;&gt;Node12 -->
<g id="edge21" class="edge">
<title>Node4&#45;&gt;Node12</title>
<path fill="none" stroke="midnightblue" d="M912.78,-224.49C1009.92,-210.74 1181.1,-180.22 1218,-132 1256.81,-81.28 1154.01,-38.69 1099.87,-20.48"/>
<polygon fill="midnightblue" stroke="midnightblue" points="1100.65,-17.05 1090.06,-17.27 1098.47,-23.71 1100.65,-17.05"/>
</g>
<!-- Node16 -->
<g id="node16" class="node">
<title>Node16</title>
<g id="a_node16"><a xlink:title=" ">
<polygon fill="white" stroke="#bfbfbf" points="664.5,-56.5 664.5,-75.5 743.5,-75.5 743.5,-56.5 664.5,-56.5"/>
<text text-anchor="middle" x="704" y="-63.5" font-family="Helvetica,sans-Serif" font-size="10.00">fmt/format.h</text>
</a>
</g>
</g>
<!-- Node4&#45;&gt;Node16 -->
<g id="edge23" class="edge">
<title>Node4&#45;&gt;Node16</title>
<path fill="none" stroke="midnightblue" d="M829.35,-224.31C803.33,-209.05 751.26,-174.96 723,-132 713.81,-118.03 708.97,-99.53 706.48,-85.84"/>
<polygon fill="midnightblue" stroke="midnightblue" points="709.89,-85.02 704.9,-75.67 702.98,-86.09 709.89,-85.02"/>
</g>
<!-- Node19 -->
<g id="node19" class="node">
<title>Node19</title>
<g id="a_node19"><a xlink:title=" ">
<polygon fill="white" stroke="#bfbfbf" points="825,-168.5 825,-187.5 865,-187.5 865,-168.5 825,-168.5"/>
<text text-anchor="middle" x="845" y="-175.5" font-family="Helvetica,sans-Serif" font-size="10.00">span</text>
</a>
</g>
</g>
<!-- Node4&#45;&gt;Node19 -->
<g id="edge22" class="edge">
<title>Node4&#45;&gt;Node19</title>
<path fill="none" stroke="midnightblue" d="M845,-224.08C845,-217.01 845,-206.86 845,-197.99"/>
<polygon fill="midnightblue" stroke="midnightblue" points="848.5,-197.75 845,-187.75 841.5,-197.75 848.5,-197.75"/>
</g>
<!-- Node6 -->
<g id="node6" class="node">
<title>Node6</title>
<g id="a_node6"><a xlink:href="include_2ccf_2crypto_2base64_8h.html" target="_top" xlink:title=" ">
<polygon fill="white" stroke="black" points="104,-56.5 104,-75.5 216,-75.5 216,-56.5 104,-56.5"/>
<text text-anchor="middle" x="160" y="-63.5" font-family="Helvetica,sans-Serif" font-size="10.00">ccf/crypto/base64.h</text>
</a>
</g>
</g>
<!-- Node5&#45;&gt;Node6 -->
<g id="edge5" class="edge">
<title>Node5&#45;&gt;Node6</title>
<path fill="none" stroke="midnightblue" d="M525.37,-169.79C483.76,-161.73 415.75,-147.74 358,-132 299.24,-115.98 232.14,-92.92 193.08,-79.01"/>
<polygon fill="midnightblue" stroke="midnightblue" points="194.13,-75.67 183.54,-75.59 191.77,-82.26 194.13,-75.67"/>
</g>
<!-- Node9 -->
<g id="node9" class="node">
<title>Node9</title>
<g id="a_node9"><a xlink:href="include_2ccf_2ds_2json__schema_8h.html" target="_top" xlink:title=" ">
<polygon fill="white" stroke="black" points="366.5,-112.5 366.5,-131.5 487.5,-131.5 487.5,-112.5 366.5,-112.5"/>
<text text-anchor="middle" x="427" y="-119.5" font-family="Helvetica,sans-Serif" font-size="10.00">ccf/ds/json_schema.h</text>
</a>
</g>
</g>
<!-- Node5&#45;&gt;Node9 -->
<g id="edge8" class="edge">
<title>Node5&#45;&gt;Node9</title>
<path fill="none" stroke="midnightblue" d="M542.29,-168.44C519.65,-159.52 483.93,-145.44 458.25,-135.32"/>
<polygon fill="midnightblue" stroke="midnightblue" points="459.19,-131.93 448.61,-131.52 456.63,-138.44 459.19,-131.93"/>
</g>
<!-- Node5&#45;&gt;Node16 -->
<g id="edge19" class="edge">
<title>Node5&#45;&gt;Node16</title>
<path fill="none" stroke="midnightblue" d="M574.99,-168.37C598.81,-149.65 655.44,-105.15 685.12,-81.83"/>
<polygon fill="midnightblue" stroke="midnightblue" points="687.36,-84.52 693.07,-75.59 683.04,-79.02 687.36,-84.52"/>
</g>
<!-- Node18 -->
<g id="node18" class="node">
<title>Node18</title>
<g id="a_node18"><a xlink:title=" ">
<polygon fill="white" stroke="#bfbfbf" points="732,-112.5 732,-131.5 788,-131.5 788,-112.5 732,-112.5"/>
<text text-anchor="middle" x="760" y="-119.5" font-family="Helvetica,sans-Serif" font-size="10.00">sstream</text>
</a>
</g>
</g>
<!-- Node5&#45;&gt;Node18 -->
<g id="edge20" class="edge">
<title>Node5&#45;&gt;Node18</title>
<path fill="none" stroke="midnightblue" d="M595.06,-168.44C629.49,-158.96 685.05,-143.65 722.04,-133.46"/>
<polygon fill="midnightblue" stroke="midnightblue" points="723.24,-136.76 731.95,-130.73 721.38,-130.01 723.24,-136.76"/>
</g>
<!-- Node7 -->
<g id="node7" class="node">
<title>Node7</title>
<g id="a_node7"><a xlink:title=" ">
<polygon fill="white" stroke="#bfbfbf" points="330,-0.5 330,-19.5 374,-19.5 374,-0.5 330,-0.5"/>
<text text-anchor="middle" x="352" y="-7.5" font-family="Helvetica,sans-Serif" font-size="10.00">string</text>
</a>
</g>
</g>
<!-- Node6&#45;&gt;Node7 -->
<g id="edge6" class="edge">
<title>Node6&#45;&gt;Node7</title>
<path fill="none" stroke="midnightblue" d="M190.42,-56.44C225.74,-46.51 283.75,-30.2 319.81,-20.05"/>
<polygon fill="midnightblue" stroke="midnightblue" points="321.12,-23.32 329.8,-17.24 319.23,-16.58 321.12,-23.32"/>
</g>
<!-- Node6&#45;&gt;Node8 -->
<g id="edge7" class="edge">
<title>Node6&#45;&gt;Node8</title>
<path fill="none" stroke="midnightblue" d="M140.67,-56.44C120.68,-47.6 89.26,-33.69 66.44,-23.59"/>
<polygon fill="midnightblue" stroke="midnightblue" points="67.8,-20.36 57.24,-19.52 64.97,-26.76 67.8,-20.36"/>
</g>
<!-- Node10 -->
<g id="node10" class="node">
<title>Node10</title>
<g id="a_node10"><a xlink:href="nonstd_8h.html" target="_top" xlink:title=" ">
<polygon fill="white" stroke="black" points="234,-56.5 234,-75.5 324,-75.5 324,-56.5 234,-56.5"/>
<text text-anchor="middle" x="279" y="-63.5" font-family="Helvetica,sans-Serif" font-size="10.00">ccf/ds/nonstd.h</text>
</a>
</g>
</g>
<!-- Node9&#45;&gt;Node10 -->
<g id="edge9" class="edge">
<title>Node9&#45;&gt;Node10</title>
<path fill="none" stroke="midnightblue" d="M403.55,-112.44C378.87,-103.44 339.81,-89.19 312.02,-79.05"/>
<polygon fill="midnightblue" stroke="midnightblue" points="312.94,-75.66 302.34,-75.52 310.54,-82.23 312.94,-75.66"/>
</g>
<!-- Node9&#45;&gt;Node16 -->
<g id="edge17" class="edge">
<title>Node9&#45;&gt;Node16</title>
<path fill="none" stroke="midnightblue" d="M470.89,-112.44C520.8,-102.71 602.12,-86.86 654.32,-76.69"/>
<polygon fill="midnightblue" stroke="midnightblue" points="655.21,-80.08 664.35,-74.73 653.87,-73.21 655.21,-80.08"/>
</g>
<!-- Node17 -->
<g id="node17" class="node">
<title>Node17</title>
<g id="a_node17"><a xlink:title=" ">
<polygon fill="white" stroke="#bfbfbf" points="380,-56.5 380,-75.5 490,-75.5 490,-56.5 380,-56.5"/>
<text text-anchor="middle" x="435" y="-63.5" font-family="Helvetica,sans-Serif" font-size="10.00">nlohmann/json.hpp</text>
</a>
</g>
</g>
<!-- Node9&#45;&gt;Node17 -->
<g id="edge18" class="edge">
<title>Node9&#45;&gt;Node17</title>
<path fill="none" stroke="midnightblue" d="M428.32,-112.08C429.38,-104.93 430.91,-94.64 432.23,-85.69"/>
<polygon fill="midnightblue" stroke="midnightblue" points="435.7,-86.16 433.7,-75.75 428.78,-85.13 435.7,-86.16"/>
</g>
<!-- Node10&#45;&gt;Node7 -->
<g id="edge13" class="edge">
<title>Node10&#45;&gt;Node7</title>
<path fill="none" stroke="midnightblue" d="M290.73,-56.32C301.84,-48.11 318.74,-35.6 331.98,-25.81"/>
<polygon fill="midnightblue" stroke="midnightblue" points="334.1,-28.59 340.06,-19.83 329.94,-22.97 334.1,-28.59"/>
</g>
<!-- Node10&#45;&gt;Node8 -->
<g id="edge16" class="edge">
<title>Node10&#45;&gt;Node8</title>
<path fill="none" stroke="midnightblue" d="M239.07,-56.46C197.9,-47.59 131.88,-33.19 75,-20 73.94,-19.75 72.86,-19.5 71.77,-19.25"/>
<polygon fill="midnightblue" stroke="midnightblue" points="72.41,-15.8 61.87,-16.89 70.78,-22.61 72.41,-15.8"/>
</g>
<!-- Node11 -->
<g id="node11" class="node">
<title>Node11</title>
<g id="a_node11"><a xlink:title=" ">
<polygon fill="white" stroke="#bfbfbf" points="176,-0.5 176,-19.5 240,-19.5 240,-0.5 176,-0.5"/>
<text text-anchor="middle" x="208" y="-7.5" font-family="Helvetica,sans-Serif" font-size="10.00">algorithm</text>
</a>
</g>
</g>
<!-- Node10&#45;&gt;Node11 -->
<g id="edge10" class="edge">
<title>Node10&#45;&gt;Node11</title>
<path fill="none" stroke="midnightblue" d="M267.59,-56.32C256.89,-48.18 240.66,-35.84 227.84,-26.09"/>
<polygon fill="midnightblue" stroke="midnightblue" points="229.69,-23.1 219.61,-19.83 225.46,-28.67 229.69,-23.1"/>
</g>
<!-- Node10&#45;&gt;Node12 -->
<g id="edge11" class="edge">
<title>Node10&#45;&gt;Node12</title>
<path fill="none" stroke="midnightblue" d="M324.36,-60.26C339.22,-58.79 355.8,-57.23 371,-56 628.24,-35.13 939.45,-17.9 1037.71,-12.65"/>
<polygon fill="midnightblue" stroke="midnightblue" points="1038.05,-16.13 1047.85,-12.11 1037.68,-9.14 1038.05,-16.13"/>
</g>
<!-- Node13 -->
<g id="node13" class="node">
<title>Node13</title>
<g id="a_node13"><a xlink:title=" ">
<polygon fill="white" stroke="#bfbfbf" points="258.5,-0.5 258.5,-19.5 307.5,-19.5 307.5,-0.5 258.5,-0.5"/>
<text text-anchor="middle" x="283" y="-7.5" font-family="Helvetica,sans-Serif" font-size="10.00">cctype</text>
</a>
</g>
</g>
<!-- Node10&#45;&gt;Node13 -->
<g id="edge12" class="edge">
<title>Node10&#45;&gt;Node13</title>
<path fill="none" stroke="midnightblue" d="M279.66,-56.08C280.18,-49.01 280.94,-38.86 281.59,-29.99"/>
<polygon fill="midnightblue" stroke="midnightblue" points="285.1,-29.98 282.35,-19.75 278.12,-29.47 285.1,-29.98"/>
</g>
<!-- Node14 -->
<g id="node14" class="node">
<title>Node14</title>
<g id="a_node14"><a xlink:title=" ">
<polygon fill="white" stroke="#bfbfbf" points="84.5,-0.5 84.5,-19.5 157.5,-19.5 157.5,-0.5 84.5,-0.5"/>
<text text-anchor="middle" x="121" y="-7.5" font-family="Helvetica,sans-Serif" font-size="10.00">string_view</text>
</a>
</g>
</g>
<!-- Node10&#45;&gt;Node14 -->
<g id="edge14" class="edge">
<title>Node10&#45;&gt;Node14</title>
<path fill="none" stroke="midnightblue" d="M253.96,-56.44C227.38,-47.36 185.19,-32.94 155.48,-22.78"/>
<polygon fill="midnightblue" stroke="midnightblue" points="156.51,-19.44 145.92,-19.52 154.25,-26.06 156.51,-19.44"/>
</g>
<!-- Node15 -->
<g id="node15" class="node">
<title>Node15</title>
<g id="a_node15"><a xlink:title=" ">
<polygon fill="white" stroke="#bfbfbf" points="770.5,-0.5 770.5,-19.5 839.5,-19.5 839.5,-0.5 770.5,-0.5"/>
<text text-anchor="middle" x="805" y="-7.5" font-family="Helvetica,sans-Serif" font-size="10.00">type_traits</text>
</a>
</g>
</g>
<!-- Node10&#45;&gt;Node15 -->
<g id="edge15" class="edge">
<title>Node10&#45;&gt;Node15</title>
<path fill="none" stroke="midnightblue" d="M324.3,-60.35C423.94,-50.12 661.13,-25.77 760.25,-15.59"/>
<polygon fill="midnightblue" stroke="midnightblue" points="760.66,-19.07 770.25,-14.57 759.94,-12.11 760.66,-19.07"/>
</g>
<!-- Node22&#45;&gt;Node7 -->
<g id="edge28" class="edge">
<title>Node22&#45;&gt;Node7</title>
<path fill="none" stroke="midnightblue" d="M1286.99,-113.95C1094.55,-92.76 525.81,-30.14 384.21,-14.55"/>
<polygon fill="midnightblue" stroke="midnightblue" points="384.35,-11.04 374.03,-13.43 383.58,-18 384.35,-11.04"/>
</g>
<!-- Node23 -->
<g id="node23" class="node">
<title>Node23</title>
<g id="a_node23"><a xlink:title=" ">
<polygon fill="white" stroke="#bfbfbf" points="1327,-56.5 1327,-75.5 1365,-75.5 1365,-56.5 1327,-56.5"/>
<text text-anchor="middle" x="1346" y="-63.5" font-family="Helvetica,sans-Serif" font-size="10.00">map</text>
</a>
</g>
</g>
<!-- Node22&#45;&gt;Node23 -->
<g id="edge27" class="edge">
<title>Node22&#45;&gt;Node23</title>
<path fill="none" stroke="midnightblue" d="M1350.17,-112.08C1349.52,-105.01 1348.58,-94.86 1347.76,-85.99"/>
<polygon fill="midnightblue" stroke="midnightblue" points="1351.22,-85.39 1346.81,-75.75 1344.25,-86.03 1351.22,-85.39"/>
</g>
<!-- Node24&#45;&gt;Node5 -->
<g id="edge30" class="edge">
<title>Node24&#45;&gt;Node5</title>
<path fill="none" stroke="midnightblue" d="M252.98,-285.91C312.15,-265.57 460.96,-214.42 529.03,-191.02"/>
<polygon fill="midnightblue" stroke="midnightblue" points="530.54,-194.2 538.86,-187.64 528.26,-187.58 530.54,-194.2"/>
</g>
<!-- Node25 -->
<g id="node25" class="node">
<title>Node25</title>
<g id="a_node25"><a xlink:href="http__status_8h.html" target="_top" xlink:title=" ">
<polygon fill="white" stroke="black" points="28,-224.5 28,-243.5 126,-243.5 126,-224.5 28,-224.5"/>
<text text-anchor="middle" x="77" y="-231.5" font-family="Helvetica,sans-Serif" font-size="10.00">ccf/http_status.h</text>
</a>
</g>
</g>
<!-- Node24&#45;&gt;Node25 -->
<g id="edge31" class="edge">
<title>Node24&#45;&gt;Node25</title>
<path fill="none" stroke="midnightblue" d="M206.37,-285.98C180.58,-275.81 137.29,-258.76 107.96,-247.2"/>
<polygon fill="midnightblue" stroke="midnightblue" points="109.18,-243.92 98.59,-243.51 106.62,-250.43 109.18,-243.92"/>
</g>
<!-- Node26&#45;&gt;Node7 -->
<g id="edge34" class="edge">
<title>Node26&#45;&gt;Node7</title>
<path fill="none" stroke="midnightblue" d="M697.33,-285.83C686.42,-276.49 669.62,-260.7 659,-244 625.35,-191.06 650.88,-158.71 609,-112 548.99,-45.08 439.02,-22.01 384.47,-14.45"/>
<polygon fill="midnightblue" stroke="midnightblue" points="384.69,-10.95 374.32,-13.14 383.79,-17.89 384.69,-10.95"/>
</g>
<!-- Node27 -->
<g id="node27" class="node">
<title>Node27</title>
<g id="a_node27"><a xlink:title=" ">
<polygon fill="white" stroke="#bfbfbf" points="668,-224.5 668,-243.5 748,-243.5 748,-224.5 668,-224.5"/>
<text text-anchor="middle" x="708" y="-231.5" font-family="Helvetica,sans-Serif" font-size="10.00">llhttp/llhttp.h</text>
</a>
</g>
</g>
<!-- Node26&#45;&gt;Node27 -->
<g id="edge33" class="edge">
<title>Node26&#45;&gt;Node27</title>
<path fill="none" stroke="midnightblue" d="M708,-285.98C708,-277.58 708,-264.48 708,-253.66"/>
<polygon fill="midnightblue" stroke="midnightblue" points="711.5,-253.51 708,-243.51 704.5,-253.51 711.5,-253.51"/>
</g>
<!-- Node28&#45;&gt;Node5 -->
<g id="edge38" class="edge">
<title>Node28&#45;&gt;Node5</title>
<path fill="none" stroke="midnightblue" d="M589.44,-280.34C584.22,-259.53 574.46,-220.66 568.67,-197.58"/>
<polygon fill="midnightblue" stroke="midnightblue" points="572.01,-196.52 566.18,-187.67 565.22,-198.22 572.01,-196.52"/>
</g>
<!-- Node28&#45;&gt;Node8 -->
<g id="edge39" class="edge">
<title>Node28&#45;&gt;Node8</title>
<path fill="none" stroke="midnightblue" d="M540.84,-281.67C537.86,-281.07 534.89,-280.51 532,-280 430.83,-262.2 145.97,-265.89 79,-188 39.46,-142.02 36.19,-65.27 37.01,-29.9"/>
<polygon fill="midnightblue" stroke="midnightblue" points="40.52,-29.72 37.39,-19.6 33.52,-29.46 40.52,-29.72"/>
</g>
<!-- Node29 -->
<g id="node29" class="node">
<title>Node29</title>
<g id="a_node29"><a xlink:href="md__type_8h.html" target="_top" xlink:title=" ">
<polygon fill="white" stroke="black" points="445.5,-224.5 445.5,-243.5 564.5,-243.5 564.5,-224.5 445.5,-224.5"/>
<text text-anchor="middle" x="505" y="-231.5" font-family="Helvetica,sans-Serif" font-size="10.00">ccf/crypto/md_type.h</text>
</a>
</g>
</g>
<!-- Node28&#45;&gt;Node29 -->
<g id="edge36" class="edge">
<title>Node28&#45;&gt;Node29</title>
<path fill="none" stroke="midnightblue" d="M572.15,-280.4C558.3,-271.04 540.19,-258.79 526.26,-249.38"/>
<polygon fill="midnightblue" stroke="midnightblue" points="528.05,-246.36 517.8,-243.66 524.13,-252.16 528.05,-246.36"/>
</g>
<!-- Node29&#45;&gt;Node5 -->
<g id="edge37" class="edge">
<title>Node29&#45;&gt;Node5</title>
<path fill="none" stroke="midnightblue" d="M514.48,-224.32C523.2,-216.34 536.34,-204.31 546.9,-194.65"/>
<polygon fill="midnightblue" stroke="midnightblue" points="549.33,-197.17 554.35,-187.83 544.61,-192 549.33,-197.17"/>
</g>
<!-- Node30&#45;&gt;Node5 -->
<g id="edge41" class="edge">
<title>Node30&#45;&gt;Node5</title>
<path fill="none" stroke="midnightblue" d="M295.76,-226.96C349.27,-217.39 453.78,-198.71 515.37,-187.7"/>
<polygon fill="midnightblue" stroke="midnightblue" points="516.01,-191.14 525.24,-185.93 514.78,-184.25 516.01,-191.14"/>
</g>
<!-- Node30&#45;&gt;Node7 -->
<g id="edge47" class="edge">
<title>Node30&#45;&gt;Node7</title>
<path fill="none" stroke="midnightblue" d="M265.33,-224.08C270.08,-211.47 279.22,-187.77 288,-168 306.47,-126.4 316.55,-118.44 333,-76 338.97,-60.58 344.12,-42.49 347.54,-29.31"/>
<polygon fill="midnightblue" stroke="midnightblue" points="350.95,-30.12 349.99,-19.57 344.16,-28.41 350.95,-30.12"/>
</g>
<!-- Node30&#45;&gt;Node14 -->
<g id="edge48" class="edge">
<title>Node30&#45;&gt;Node14</title>
<path fill="none" stroke="midnightblue" d="M228.35,-228.76C184.39,-222.45 111.12,-209.03 95,-188 59.32,-141.43 79.81,-112.67 95,-56 97.65,-46.1 103.07,-36.13 108.27,-28.1"/>
<polygon fill="midnightblue" stroke="midnightblue" points="111.29,-29.89 114.11,-19.68 105.54,-25.91 111.29,-29.89"/>
</g>
<!-- Node30&#45;&gt;Node16 -->
<g id="edge44" class="edge">
<title>Node30&#45;&gt;Node16</title>
<path fill="none" stroke="midnightblue" d="M283.31,-224.5C324.87,-207.77 419.45,-169 497,-132 514.22,-123.78 517.22,-118.94 535,-112 573.96,-96.78 619.92,-84.91 654.07,-77.19"/>
<polygon fill="midnightblue" stroke="midnightblue" points="655.27,-80.51 664.27,-74.93 653.75,-73.68 655.27,-80.51"/>
</g>
<!-- Node30&#45;&gt;Node17 -->
<g id="edge45" class="edge">
<title>Node30&#45;&gt;Node17</title>
<path fill="none" stroke="midnightblue" d="M267.16,-224.49C280.25,-203.4 316.68,-147.84 358,-112 372.72,-99.23 391.58,-88.14 406.95,-80.16"/>
<polygon fill="midnightblue" stroke="midnightblue" points="408.64,-83.23 416,-75.61 405.5,-76.98 408.64,-83.23"/>
</g>
<!-- Node31 -->
<g id="node31" class="node">
<title>Node31</title>
<g id="a_node31"><a xlink:title=" ">
<polygon fill="white" stroke="#bfbfbf" points="172.5,-168.5 172.5,-187.5 233.5,-187.5 233.5,-168.5 172.5,-168.5"/>
<text text-anchor="middle" x="203" y="-175.5" font-family="Helvetica,sans-Serif" font-size="10.00">charconv</text>
</a>
</g>
</g>
<!-- Node30&#45;&gt;Node31 -->
<g id="edge42" class="edge">
<title>Node30&#45;&gt;Node31</title>
<path fill="none" stroke="midnightblue" d="M252.52,-224.32C243.8,-216.34 230.66,-204.31 220.1,-194.65"/>
<polygon fill="midnightblue" stroke="midnightblue" points="222.39,-192 212.65,-187.83 217.67,-197.17 222.39,-192"/>
</g>
<!-- Node32 -->
<g id="node32" class="node">
<title>Node32</title>
<g id="a_node32"><a xlink:title=" ">
<polygon fill="white" stroke="#bfbfbf" points="104,-168.5 104,-187.5 154,-187.5 154,-168.5 104,-168.5"/>
<text text-anchor="middle" x="129" y="-175.5" font-family="Helvetica,sans-Serif" font-size="10.00">cstdint</text>
</a>
</g>
</g>
<!-- Node30&#45;&gt;Node32 -->
<g id="edge43" class="edge">
<title>Node30&#45;&gt;Node32</title>
<path fill="none" stroke="midnightblue" d="M240.93,-224.44C218.94,-215.52 184.27,-201.44 159.34,-191.32"/>
<polygon fill="midnightblue" stroke="midnightblue" points="160.56,-188.04 149.98,-187.52 157.92,-194.52 160.56,-188.04"/>
</g>
<!-- Node33 -->
<g id="node33" class="node">
<title>Node33</title>
<g id="a_node33"><a xlink:title=" ">
<polygon fill="white" stroke="#bfbfbf" points="544,-112.5 544,-131.5 600,-131.5 600,-112.5 544,-112.5"/>
<text text-anchor="middle" x="572" y="-119.5" font-family="Helvetica,sans-Serif" font-size="10.00">optional</text>
</a>
</g>
</g>
<!-- Node30&#45;&gt;Node33 -->
<g id="edge46" class="edge">
<title>Node30&#45;&gt;Node33</title>
<path fill="none" stroke="midnightblue" d="M295.67,-229.71C338.3,-224.67 413.38,-212.9 473,-188 503.6,-175.22 534.94,-152.74 553.94,-137.86"/>
<polygon fill="midnightblue" stroke="midnightblue" points="556.13,-140.59 561.76,-131.62 551.76,-135.12 556.13,-140.59"/>
</g>
<!-- Node34&#45;&gt;Node3 -->
<g id="edge51" class="edge">
<title>Node34&#45;&gt;Node3</title>
<path fill="none" stroke="midnightblue" d="M867,-347.48C867,-339.08 867,-325.98 867,-315.16"/>
<polygon fill="midnightblue" stroke="midnightblue" points="870.5,-315.01 867,-305.01 863.5,-315.01 870.5,-315.01"/>
</g>
<!-- Node35 -->
<g id="node35" class="node">
<title>Node35</title>
<g id="a_node35"><a xlink:href="logger_8h.html" target="_top" xlink:title=" ">
<polygon fill="white" stroke="black" points="906.5,-168.5 906.5,-187.5 993.5,-187.5 993.5,-168.5 906.5,-168.5"/>
<text text-anchor="middle" x="950" y="-175.5" font-family="Helvetica,sans-Serif" font-size="10.00">ccf/ds/logger.h</text>
</a>
</g>
</g>
<!-- Node34&#45;&gt;Node35 -->
<g id="edge52" class="edge">
<title>Node34&#45;&gt;Node35</title>
<path fill="none" stroke="midnightblue" d="M886.85,-347.42C901.53,-339.99 920.7,-327.79 931,-311 952.72,-275.6 953.33,-225 951.75,-197.89"/>
<polygon fill="midnightblue" stroke="midnightblue" points="955.23,-197.52 950.99,-187.81 948.25,-198.05 955.23,-197.52"/>
</g>
<!-- Node35&#45;&gt;Node15 -->
<g id="edge68" class="edge">
<title>Node35&#45;&gt;Node15</title>
<path fill="none" stroke="midnightblue" d="M993.69,-175.7C1058.66,-172.75 1175.93,-163.14 1202,-132 1207.71,-125.18 1207.46,-119.02 1202,-112 1158.72,-56.33 944.25,-26.3 849.79,-15.59"/>
<polygon fill="midnightblue" stroke="midnightblue" points="850.02,-12.1 839.69,-14.47 849.25,-19.05 850.02,-12.1"/>
</g>
<!-- Node35&#45;&gt;Node16 -->
<g id="edge63" class="edge">
<title>Node35&#45;&gt;Node16</title>
<path fill="none" stroke="midnightblue" d="M935.95,-168.47C913.9,-155.29 869.6,-129.67 830,-112 800.88,-99.01 766.76,-87.01 741.37,-78.67"/>
<polygon fill="midnightblue" stroke="midnightblue" points="742.35,-75.31 731.76,-75.56 740.19,-81.97 742.35,-75.31"/>
</g>
<!-- Node35&#45;&gt;Node17 -->
<g id="edge65" class="edge">
<title>Node35&#45;&gt;Node17</title>
<path fill="none" stroke="midnightblue" d="M922.71,-168.39C897.99,-160.21 860.83,-146.96 830,-132 814.57,-124.51 813.2,-117.63 797,-112 697.44,-77.42 574.34,-68.78 500.38,-66.97"/>
<polygon fill="midnightblue" stroke="midnightblue" points="500.35,-63.47 490.28,-66.76 500.2,-70.47 500.35,-63.47"/>
</g>
<!-- Node35&#45;&gt;Node18 -->
<g id="edge67" class="edge">
<title>Node35&#45;&gt;Node18</title>
<path fill="none" stroke="midnightblue" d="M919.89,-168.44C886.8,-159.04 833.58,-143.91 797.73,-133.72"/>
<polygon fill="midnightblue" stroke="midnightblue" points="798.68,-130.36 788.11,-130.99 796.77,-137.09 798.68,-130.36"/>
</g>
<!-- Node35&#45;&gt;Node33 -->
<g id="edge66" class="edge">
<title>Node35&#45;&gt;Node33</title>
<path fill="none" stroke="midnightblue" d="M906.27,-170.75C831.78,-160.11 681.46,-138.64 610.61,-128.52"/>
<polygon fill="midnightblue" stroke="midnightblue" points="610.74,-125 600.35,-127.05 609.75,-131.93 610.74,-125"/>
</g>
<!-- Node36 -->
<g id="node36" class="node">
<title>Node36</title>
<g id="a_node36"><a xlink:href="enum__formatter_8h.html" target="_top" xlink:title=" ">
<polygon fill="white" stroke="black" points="882,-112.5 882,-131.5 1018,-131.5 1018,-112.5 882,-112.5"/>
<text text-anchor="middle" x="950" y="-119.5" font-family="Helvetica,sans-Serif" font-size="10.00">ccf/ds/enum_formatter.h</text>
</a>
</g>
</g>
<!-- Node35&#45;&gt;Node36 -->
<g id="edge53" class="edge">
<title>Node35&#45;&gt;Node36</title>
<path fill="none" stroke="midnightblue" d="M950,-168.08C950,-161.01 950,-150.86 950,-141.99"/>
<polygon fill="midnightblue" stroke="midnightblue" points="953.5,-141.75 950,-131.75 946.5,-141.75 953.5,-141.75"/>
</g>
<!-- Node37 -->
<g id="node37" class="node">
<title>Node37</title>
<g id="a_node37"><a xlink:href="thread__ids_8h.html" target="_top" xlink:title=" ">
<polygon fill="white" stroke="black" points="1433,-112.5 1433,-131.5 1541,-131.5 1541,-112.5 1433,-112.5"/>
<text text-anchor="middle" x="1487" y="-119.5" font-family="Helvetica,sans-Serif" font-size="10.00">ccf/ds/thread_ids.h</text>
</a>
</g>
</g>
<!-- Node35&#45;&gt;Node37 -->
<g id="edge55" class="edge">
<title>Node35&#45;&gt;Node37</title>
<path fill="none" stroke="midnightblue" d="M993.53,-173.56C1075.39,-166.94 1258.09,-151.45 1422.43,-132.14"/>
<polygon fill="midnightblue" stroke="midnightblue" points="1423.21,-135.57 1432.73,-130.92 1422.38,-128.62 1423.21,-135.57"/>
</g>
<!-- Node42 -->
<g id="node42" class="node">
<title>Node42</title>
<g id="a_node42"><a xlink:title=" ">
<polygon fill="white" stroke="#bfbfbf" points="1036.5,-112.5 1036.5,-131.5 1115.5,-131.5 1115.5,-112.5 1036.5,-112.5"/>
<text text-anchor="middle" x="1076" y="-119.5" font-family="Helvetica,sans-Serif" font-size="10.00">fmt/chrono.h</text>
</a>
</g>
</g>
<!-- Node35&#45;&gt;Node42 -->
<g id="edge62" class="edge">
<title>Node35&#45;&gt;Node42</title>
<path fill="none" stroke="midnightblue" d="M969.97,-168.44C990.61,-159.6 1023.06,-145.69 1046.63,-135.59"/>
<polygon fill="midnightblue" stroke="midnightblue" points="1048.32,-138.67 1056.13,-131.52 1045.56,-132.24 1048.32,-138.67"/>
</g>
<!-- Node43 -->
<g id="node43" class="node">
<title>Node43</title>
<g id="a_node43"><a xlink:title=" ">
<polygon fill="white" stroke="#bfbfbf" points="1133,-112.5 1133,-131.5 1193,-131.5 1193,-112.5 1133,-112.5"/>
<text text-anchor="middle" x="1163" y="-119.5" font-family="Helvetica,sans-Serif" font-size="10.00">iostream</text>
</a>
</g>
</g>
<!-- Node35&#45;&gt;Node43 -->
<g id="edge64" class="edge">
<title>Node35&#45;&gt;Node43</title>
<path fill="none" stroke="midnightblue" d="M983.75,-168.44C1021.6,-158.85 1082.93,-143.3 1123.12,-133.11"/>
<polygon fill="midnightblue" stroke="midnightblue" points="1124.02,-136.49 1132.85,-130.64 1122.3,-129.71 1124.02,-136.49"/>
</g>
<!-- Node36&#45;&gt;Node16 -->
<g id="edge54" class="edge">
<title>Node36&#45;&gt;Node16</title>
<path fill="none" stroke="midnightblue" d="M911.02,-112.44C868.11,-103.02 799.05,-87.87 752.63,-77.68"/>
<polygon fill="midnightblue" stroke="midnightblue" points="753.31,-74.24 742.8,-75.52 751.81,-81.08 753.31,-74.24"/>
</g>
<!-- Node37&#45;&gt;Node16 -->
<g id="edge56" class="edge">
<title>Node37&#45;&gt;Node16</title>
<path fill="none" stroke="midnightblue" d="M1432.74,-112.97C1429.78,-112.62 1426.86,-112.29 1424,-112 1172.75,-86.24 870.55,-73.14 753.58,-68.74"/>
<polygon fill="midnightblue" stroke="midnightblue" points="753.63,-65.24 743.5,-68.37 753.37,-72.23 753.63,-65.24"/>
</g>
<!-- Node37&#45;&gt;Node23 -->
<g id="edge60" class="edge">
<title>Node37&#45;&gt;Node23</title>
<path fill="none" stroke="midnightblue" d="M1464.66,-112.44C1440.28,-103.11 1401.2,-88.14 1374.6,-77.95"/>
<polygon fill="midnightblue" stroke="midnightblue" points="1375.66,-74.61 1365.07,-74.3 1373.16,-81.15 1375.66,-74.61"/>
</g>
<!-- Node38 -->
<g id="node38" class="node">
<title>Node38</title>
<g id="a_node38"><a xlink:title=" ">
<polygon fill="white" stroke="#bfbfbf" points="1449,-56.5 1449,-75.5 1535,-75.5 1535,-56.5 1449,-56.5"/>
<text text-anchor="middle" x="1492" y="-63.5" font-family="Helvetica,sans-Serif" font-size="10.00">fmt/ostream.h</text>
</a>
</g>
</g>
<!-- Node37&#45;&gt;Node38 -->
<g id="edge57" class="edge">
<title>Node37&#45;&gt;Node38</title>
<path fill="none" stroke="midnightblue" d="M1487.83,-112.08C1488.48,-105.01 1489.42,-94.86 1490.24,-85.99"/>
<polygon fill="midnightblue" stroke="midnightblue" points="1493.75,-86.03 1491.19,-75.75 1486.78,-85.39 1493.75,-86.03"/>
</g>
<!-- Node39 -->
<g id="node39" class="node">
<title>Node39</title>
<g id="a_node39"><a xlink:title=" ">
<polygon fill="white" stroke="#bfbfbf" points="1553.5,-56.5 1553.5,-75.5 1614.5,-75.5 1614.5,-56.5 1553.5,-56.5"/>
<text text-anchor="middle" x="1584" y="-63.5" font-family="Helvetica,sans-Serif" font-size="10.00">fmt/std.h</text>
</a>
</g>
</g>
<!-- Node37&#45;&gt;Node39 -->
<g id="edge58" class="edge">
<title>Node37&#45;&gt;Node39</title>
<path fill="none" stroke="midnightblue" d="M1502.58,-112.32C1518,-103.74 1541.81,-90.49 1559.71,-80.52"/>
<polygon fill="midnightblue" stroke="midnightblue" points="1561.42,-83.58 1568.45,-75.65 1558.01,-77.46 1561.42,-83.58"/>
</g>
<!-- Node40 -->
<g id="node40" class="node">
<title>Node40</title>
<g id="a_node40"><a xlink:title=" ">
<polygon fill="white" stroke="#bfbfbf" points="1633,-56.5 1633,-75.5 1677,-75.5 1677,-56.5 1633,-56.5"/>
<text text-anchor="middle" x="1655" y="-63.5" font-family="Helvetica,sans-Serif" font-size="10.00">limits</text>
</a>
</g>
</g>
<!-- Node37&#45;&gt;Node40 -->
<g id="edge59" class="edge">
<title>Node37&#45;&gt;Node40</title>
<path fill="none" stroke="midnightblue" d="M1513.62,-112.44C1543.34,-102.89 1591.42,-87.44 1623.12,-77.25"/>
<polygon fill="midnightblue" stroke="midnightblue" points="1624.35,-80.53 1632.8,-74.14 1622.21,-73.86 1624.35,-80.53"/>
</g>
<!-- Node41 -->
<g id="node41" class="node">
<title>Node41</title>
<g id="a_node41"><a xlink:title=" ">
<polygon fill="white" stroke="#bfbfbf" points="1383,-56.5 1383,-75.5 1431,-75.5 1431,-56.5 1383,-56.5"/>
<text text-anchor="middle" x="1407" y="-63.5" font-family="Helvetica,sans-Serif" font-size="10.00">thread</text>
</a>
</g>
</g>
<!-- Node37&#45;&gt;Node41 -->
<g id="edge61" class="edge">
<title>Node37&#45;&gt;Node41</title>
<path fill="none" stroke="midnightblue" d="M1474.15,-112.32C1461.78,-103.98 1442.87,-91.21 1428.26,-81.35"/>
<polygon fill="midnightblue" stroke="midnightblue" points="1430.07,-78.35 1419.82,-75.65 1426.15,-84.15 1430.07,-78.35"/>
</g>
</g>
</svg>
        <g id="navigator" transform="translate(0 0)" fill="#404254">
                <rect fill="#f2f5e9" fill-opacity="0.5" stroke="#606060" stroke-width=".5" x="0" y="0" width="60" height="60"/>
                <use id="zoomplus" xlink:href="#zoomPlus" x="17" y="9" onmousedown="handleZoom(evt,'in')"/>
                <use id="zoomminus" xlink:href="#zoomMin" x="42" y="9" onmousedown="handleZoom(evt,'out')"/>
                <use id="reset" xlink:href="#resetDef" x="30" y="36" onmousedown="handleReset()"/>
                <g id="arrowUp" xlink:href="#dirArrow" transform="translate(30 24)" onmousedown="handlePan(0,-1)">
                  <use xlink:href="#rim" fill="#404040">
                        <set attributeName="fill" to="#808080" begin="arrowUp.mouseover" end="arrowUp.mouseout"/>
                  </use>
                  <path fill="none" stroke="white" stroke-width="1.5" d="M0,-3.0v7 M-2.5,-0.5L0,-3.0L2.5,-0.5"/>
                </g>
                <g id="arrowRight" xlink:href="#dirArrow" transform="rotate(90) translate(36 -43)" onmousedown="handlePan(1,0)">
                  <use xlink:href="#rim" fill="#404040">
                        <set attributeName="fill" to="#808080" begin="arrowRight.mouseover" end="arrowRight.mouseout"/>
                  </use>
                  <path fill="none" stroke="white" stroke-width="1.5" d="M0,-3.0v7 M-2.5,-0.5L0,-3.0L2.5,-0.5"/>
                </g>
                <g id="arrowDown" xlink:href="#dirArrow" transform="rotate(180) translate(-30 -48)" onmousedown="handlePan(0,1)">
                  <use xlink:href="#rim" fill="#404040">
                        <set attributeName="fill" to="#808080" begin="arrowDown.mouseover" end="arrowDown.mouseout"/>
                  </use>
                  <path fill="none" stroke="white" stroke-width="1.5" d="M0,-3.0v7 M-2.5,-0.5L0,-3.0L2.5,-0.5"/>
                </g>
                <g id="arrowLeft" xlink:href="#dirArrow" transform="rotate(270) translate(-36 17)" onmousedown="handlePan(-1,0)">
                  <use xlink:href="#rim" fill="#404040">
                        <set attributeName="fill" to="#808080" begin="arrowLeft.mouseover" end="arrowLeft.mouseout"/>
                  </use>
                  <path fill="none" stroke="white" stroke-width="1.5" d="M0,-3.0v7 M-2.5,-0.5L0,-3.0L2.5,-0.5"/>
                </g>
        </g>
        <svg viewBox="0 0 15 15" width="100%" height="30px" preserveAspectRatio="xMaxYMin meet">
         <g id="arrow_out" transform="scale(0.3 0.3)">
          <a xlink:href="rpc__context__impl_8h__incl_org.svg" target="_base">
           <rect id="button" ry="5" rx="5" y="6" x="6" height="38" width="38"
                fill="#f2f5e9" fill-opacity="0.5" stroke="#606060" stroke-width="1.0"/>
           <path id="arrow"
             d="M 11.500037,31.436501 C 11.940474,20.09759 22.043105,11.32322 32.158766,21.979434 L 37.068811,17.246167 C 37.068811,17.246167 37.088388,32 37.088388,32 L 22.160133,31.978069 C 22.160133,31.978069 26.997745,27.140456 26.997745,27.140456 C 18.528582,18.264221 13.291696,25.230495 11.500037,31.436501 z"
             style="fill:#404040;"/>
          </a>
         </g>
        </svg>
</svg>
