<?xml version="1.0" encoding="UTF-8" standalone="no"?>
<!DOCTYPE svg PUBLIC "-//W3C//DTD SVG 1.1//EN"
 "http://www.w3.org/Graphics/SVG/1.1/DTD/svg11.dtd">
<!-- Generated by graphviz version 2.43.0 (0)
 -->
<!-- Title: src/node/rpc/rpc_context_impl.h Pages: 1 -->
<!--zoomable 587 -->
<svg id="main" version="1.1" xmlns="http://www.w3.org/2000/svg" xmlns:xlink="http://www.w3.org/1999/xlink" xml:space="preserve" onload="init(evt)">
<style type="text/css"><![CDATA[
.edge:hover path { stroke: red; }
.edge:hover polygon { stroke: red; fill: red; }
]]></style>
<script type="text/javascript"><![CDATA[
var edges = document.getElementsByTagName('g');
if (edges && edges.length) {
  for (var i=0;i<edges.length;i++) {
    if (edges[i].id.substr(0,4)=='edge') {
      edges[i].setAttribute('class','edge');
    }
  }
}
]]></script>
        <defs>
                <circle id="rim" cx="0" cy="0" r="7"/>
                <circle id="rim2" cx="0" cy="0" r="3.5"/>
                <g id="zoomPlus">
                        <use xlink:href="#rim" fill="#404040">
                                <set attributeName="fill" to="#808080" begin="zoomplus.mouseover" end="zoomplus.mouseout"/>
                        </use>
                        <path d="M-4,0h8M0,-4v8" fill="none" stroke="white" stroke-width="1.5" pointer-events="none"/>
                </g>
                <g id="zoomMin">
                        <use xlink:href="#rim" fill="#404040">
                                <set attributeName="fill" to="#808080" begin="zoomminus.mouseover" end="zoomminus.mouseout"/>
                        </use>
                        <path d="M-4,0h8" fill="none" stroke="white" stroke-width="1.5" pointer-events="none"/>
                </g>
                <g id="dirArrow">
                        <path fill="none" stroke="white" stroke-width="1.5" d="M0,-3.0v7 M-2.5,-0.5L0,-3.0L2.5,-0.5"/>
                </g>
               <g id="resetDef">
                       <use xlink:href="#rim2" fill="#404040">
                               <set attributeName="fill" to="#808080" begin="reset.mouseover" end="reset.mouseout"/>
                       </use>
               </g>
        </defs>

<script type="text/javascript">
var viewWidth = 1079;
var viewHeight = 587;
var sectionId = 'dynsection-1';
</script>
<script xlink:href="svgpan.js"/>
<svg id="graph" class="graph">
<g id="viewport">
<title>src/node/rpc/rpc_context_impl.h</title>
<polygon fill="white" stroke="transparent" points="-4,4 -4,-583 1075.23,-583 1075.23,4 -4,4"/>
<!-- Node1 -->
<g id="node1" class="node">
<title>Node1</title>
<g id="a_node1"><a xlink:title=" ">
<polygon fill="#bfbfbf" stroke="black" points="194,-548.5 194,-578.5 330,-578.5 330,-548.5 194,-548.5"/>
<text text-anchor="start" x="202" y="-566.5" font-family="Helvetica,sans-Serif" font-size="10.00">src/node/rpc/rpc_context</text>
<text text-anchor="middle" x="262" y="-555.5" font-family="Helvetica,sans-Serif" font-size="10.00">_impl.h</text>
</a>
</g>
</g>
<!-- Node2 -->
<g id="node2" class="node">
<title>Node2</title>
<g id="a_node2"><a xlink:href="js__generic__base_8cpp.html" target="_top" xlink:title=" ">
<polygon fill="white" stroke="black" points="0,-481.5 0,-511.5 118,-511.5 118,-481.5 0,-481.5"/>
<text text-anchor="start" x="8" y="-499.5" font-family="Helvetica,sans-Serif" font-size="10.00">src/apps/js_generic</text>
<text text-anchor="middle" x="59" y="-488.5" font-family="Helvetica,sans-Serif" font-size="10.00">/js_generic_base.cpp</text>
</a>
</g>
</g>
<!-- Node1&#45;&gt;Node2 -->
<g id="edge1" class="edge">
<title>Node1&#45;&gt;Node2</title>
<path fill="none" stroke="midnightblue" d="M208.06,-545.23C175.22,-534.71 133.8,-521.45 102.96,-511.58"/>
<polygon fill="midnightblue" stroke="midnightblue" points="207.36,-548.68 217.95,-548.4 209.5,-542.01 207.36,-548.68"/>
</g>
<!-- Node3 -->
<g id="node3" class="node">
<title>Node3</title>
<g id="a_node3"><a xlink:href="js__v8__base_8cpp.html" target="_top" xlink:title=" ">
<polygon fill="white" stroke="black" points="136,-481.5 136,-511.5 250,-511.5 250,-481.5 136,-481.5"/>
<text text-anchor="start" x="144" y="-499.5" font-family="Helvetica,sans-Serif" font-size="10.00">src/apps/js_v8/js_v8</text>
<text text-anchor="middle" x="193" y="-488.5" font-family="Helvetica,sans-Serif" font-size="10.00">_base.cpp</text>
</a>
</g>
</g>
<!-- Node1&#45;&gt;Node3 -->
<g id="edge2" class="edge">
<title>Node1&#45;&gt;Node3</title>
<path fill="none" stroke="midnightblue" d="M239.51,-541.31C229.16,-531.56 217.16,-520.26 207.94,-511.58"/>
<polygon fill="midnightblue" stroke="midnightblue" points="237.35,-544.09 247.03,-548.4 242.15,-538.99 237.35,-544.09"/>
</g>
<!-- Node4 -->
<g id="node4" class="node">
<title>Node4</title>
<g id="a_node4"><a xlink:href="endpoint__registry_8cpp.html" target="_top" xlink:title=" ">
<polygon fill="white" stroke="black" points="268,-481.5 268,-511.5 396,-511.5 396,-481.5 268,-481.5"/>
<text text-anchor="start" x="276" y="-499.5" font-family="Helvetica,sans-Serif" font-size="10.00">src/endpoints/endpoint</text>
<text text-anchor="middle" x="332" y="-488.5" font-family="Helvetica,sans-Serif" font-size="10.00">_registry.cpp</text>
</a>
</g>
</g>
<!-- Node1&#45;&gt;Node4 -->
<g id="edge3" class="edge">
<title>Node1&#45;&gt;Node4</title>
<path fill="none" stroke="midnightblue" d="M284.82,-541.31C295.32,-531.56 307.49,-520.26 316.84,-511.58"/>
<polygon fill="midnightblue" stroke="midnightblue" points="282.14,-539.03 277.19,-548.4 286.9,-544.16 282.14,-539.03"/>
</g>
<!-- Node5 -->
<g id="node5" class="node">
<title>Node5</title>
<g id="a_node5"><a xlink:href="http__rpc__context_8h.html" target="_top" xlink:title=" ">
<polygon fill="white" stroke="black" points="414.5,-487 414.5,-506 561.5,-506 561.5,-487 414.5,-487"/>
<text text-anchor="middle" x="488" y="-494" font-family="Helvetica,sans-Serif" font-size="10.00">src/http/http_rpc_context.h</text>
</a>
</g>
</g>
<!-- Node1&#45;&gt;Node5 -->
<g id="edge4" class="edge">
<title>Node1&#45;&gt;Node5</title>
<path fill="none" stroke="midnightblue" d="M320.51,-545.67C364.68,-532.97 423.45,-516.06 458.35,-506.03"/>
<polygon fill="midnightblue" stroke="midnightblue" points="319.4,-542.35 310.76,-548.48 321.34,-549.08 319.4,-542.35"/>
</g>
<!-- Node6 -->
<g id="node6" class="node">
<title>Node6</title>
<g id="a_node6"><a xlink:href="http2_8h.html" target="_top" xlink:title=" ">
<polygon fill="white" stroke="black" points="442.5,-425.5 442.5,-444.5 533.5,-444.5 533.5,-425.5 442.5,-425.5"/>
<text text-anchor="middle" x="488" y="-432.5" font-family="Helvetica,sans-Serif" font-size="10.00">src/http/http2.h</text>
</a>
</g>
</g>
<!-- Node5&#45;&gt;Node6 -->
<g id="edge5" class="edge">
<title>Node5&#45;&gt;Node6</title>
<path fill="none" stroke="midnightblue" d="M488,-476.82C488,-466 488,-452.9 488,-444.51"/>
<polygon fill="midnightblue" stroke="midnightblue" points="484.5,-476.98 488,-486.98 491.5,-476.98 484.5,-476.98"/>
</g>
<!-- Node7 -->
<g id="node7" class="node">
<title>Node7</title>
<g id="a_node7"><a xlink:href="http2__endpoint_8h.html" target="_top" xlink:title=" ">
<polygon fill="white" stroke="black" points="394.5,-369.5 394.5,-388.5 533.5,-388.5 533.5,-369.5 394.5,-369.5"/>
<text text-anchor="middle" x="464" y="-376.5" font-family="Helvetica,sans-Serif" font-size="10.00">src/http/http2_endpoint.h</text>
</a>
</g>
</g>
<!-- Node5&#45;&gt;Node7 -->
<g id="edge20" class="edge">
<title>Node5&#45;&gt;Node7</title>
<path fill="none" stroke="midnightblue" d="M465.44,-481.21C453.69,-472.37 440.46,-459.88 434,-445 425.19,-424.71 443.14,-401.21 454.89,-388.77"/>
<polygon fill="midnightblue" stroke="midnightblue" points="463.43,-484.07 473.62,-486.98 467.47,-478.35 463.43,-484.07"/>
</g>
<!-- Node16 -->
<g id="node16" class="node">
<title>Node16</title>
<g id="a_node16"><a xlink:href="http__endpoint_8h.html" target="_top" xlink:title=" ">
<polygon fill="white" stroke="black" points="243.5,-369.5 243.5,-388.5 376.5,-388.5 376.5,-369.5 243.5,-369.5"/>
<text text-anchor="middle" x="310" y="-376.5" font-family="Helvetica,sans-Serif" font-size="10.00">src/http/http_endpoint.h</text>
</a>
</g>
</g>
<!-- Node5&#45;&gt;Node16 -->
<g id="edge21" class="edge">
<title>Node5&#45;&gt;Node16</title>
<path fill="none" stroke="midnightblue" d="M465.99,-481.22C428.68,-457.01 354.09,-408.61 323.53,-388.78"/>
<polygon fill="midnightblue" stroke="midnightblue" points="464.33,-484.31 474.62,-486.82 468.14,-478.44 464.33,-484.31"/>
</g>
<!-- Node17 -->
<g id="node17" class="node">
<title>Node17</title>
<g id="a_node17"><a xlink:href="jwt__key__auto__refresh_8h.html" target="_top" xlink:title=" ">
<polygon fill="white" stroke="black" points="628.5,-235.5 628.5,-265.5 753.5,-265.5 753.5,-235.5 628.5,-235.5"/>
<text text-anchor="start" x="636.5" y="-253.5" font-family="Helvetica,sans-Serif" font-size="10.00">src/node/jwt_key_auto</text>
<text text-anchor="middle" x="691" y="-242.5" font-family="Helvetica,sans-Serif" font-size="10.00">_refresh.h</text>
</a>
</g>
</g>
<!-- Node5&#45;&gt;Node17 -->
<g id="edge23" class="edge">
<title>Node5&#45;&gt;Node17</title>
<path fill="none" stroke="midnightblue" d="M507.6,-480.33C518.86,-470.97 532.76,-458.24 543,-445 587.03,-388.06 571.34,-355.93 619,-302 632.04,-287.24 650.22,-274.53 665.05,-265.56"/>
<polygon fill="midnightblue" stroke="midnightblue" points="505.18,-477.79 499.6,-486.79 509.58,-483.23 505.18,-477.79"/>
</g>
<!-- Node18 -->
<g id="node18" class="node">
<title>Node18</title>
<g id="a_node18"><a xlink:href="forwarder_8h.html" target="_top" xlink:title=" ">
<polygon fill="white" stroke="black" points="798,-425.5 798,-444.5 932,-444.5 932,-425.5 798,-425.5"/>
<text text-anchor="middle" x="865" y="-432.5" font-family="Helvetica,sans-Serif" font-size="10.00">src/node/rpc/forwarder.h</text>
</a>
</g>
</g>
<!-- Node5&#45;&gt;Node18 -->
<g id="edge25" class="edge">
<title>Node5&#45;&gt;Node18</title>
<path fill="none" stroke="midnightblue" d="M551.99,-485.4C624.87,-473.9 742.69,-455.3 811.09,-444.51"/>
<polygon fill="midnightblue" stroke="midnightblue" points="551.35,-481.96 542.01,-486.98 552.44,-488.87 551.35,-481.96"/>
</g>
<!-- Node6&#45;&gt;Node7 -->
<g id="edge6" class="edge">
<title>Node6&#45;&gt;Node7</title>
<path fill="none" stroke="midnightblue" d="M479.86,-415.69C475.82,-406.59 471.12,-396.01 467.89,-388.75"/>
<polygon fill="midnightblue" stroke="midnightblue" points="476.78,-417.37 484.04,-425.08 483.17,-414.52 476.78,-417.37"/>
</g>
<!-- Node8 -->
<g id="node8" class="node">
<title>Node8</title>
<g id="a_node8"><a xlink:href="rpc__sessions_8h.html" target="_top" xlink:title=" ">
<polygon fill="white" stroke="black" points="237,-308 237,-327 383,-327 383,-308 237,-308"/>
<text text-anchor="middle" x="310" y="-315" font-family="Helvetica,sans-Serif" font-size="10.00">src/enclave/rpc_sessions.h</text>
</a>
</g>
</g>
<!-- Node7&#45;&gt;Node8 -->
<g id="edge7" class="edge">
<title>Node7&#45;&gt;Node8</title>
<path fill="none" stroke="midnightblue" d="M432.38,-365.78C402.45,-354.22 358.31,-337.16 332.02,-327.01"/>
<polygon fill="midnightblue" stroke="midnightblue" points="431.35,-369.14 441.94,-369.48 433.87,-362.61 431.35,-369.14"/>
</g>
<!-- Node9 -->
<g id="node9" class="node">
<title>Node9</title>
<g id="a_node9"><a xlink:href="src_2enclave_2enclave_8h.html" target="_top" xlink:title=" ">
<polygon fill="white" stroke="black" points="740,-56.5 740,-75.5 862,-75.5 862,-56.5 740,-56.5"/>
<text text-anchor="middle" x="801" y="-63.5" font-family="Helvetica,sans-Serif" font-size="10.00">src/enclave/enclave.h</text>
</a>
</g>
</g>
<!-- Node8&#45;&gt;Node9 -->
<g id="edge8" class="edge">
<title>Node8&#45;&gt;Node9</title>
<path fill="none" stroke="midnightblue" d="M226.46,-315.62C136.96,-311.63 13.72,-295.47 61,-235 145.09,-127.46 578.03,-83.93 739.86,-71.26"/>
<polygon fill="midnightblue" stroke="midnightblue" points="226.52,-319.13 236.65,-316.03 226.8,-312.13 226.52,-319.13"/>
</g>
<!-- Node11 -->
<g id="node11" class="node">
<title>Node11</title>
<g id="a_node11"><a xlink:href="ccf__acme__client_8h.html" target="_top" xlink:title=" ">
<polygon fill="white" stroke="black" points="423.5,-241 423.5,-260 572.5,-260 572.5,-241 423.5,-241"/>
<text text-anchor="middle" x="498" y="-248" font-family="Helvetica,sans-Serif" font-size="10.00">src/node/ccf_acme_client.h</text>
</a>
</g>
</g>
<!-- Node8&#45;&gt;Node11 -->
<g id="edge10" class="edge">
<title>Node8&#45;&gt;Node11</title>
<path fill="none" stroke="midnightblue" d="M344.89,-304.44C382.19,-291.54 440.37,-271.42 473.23,-260.06"/>
<polygon fill="midnightblue" stroke="midnightblue" points="343.27,-301.29 334.96,-307.87 345.56,-307.91 343.27,-301.29"/>
</g>
<!-- Node12 -->
<g id="node12" class="node">
<title>Node12</title>
<g id="a_node12"><a xlink:href="node__state_8h.html" target="_top" xlink:title=" ">
<polygon fill="white" stroke="black" points="446,-174 446,-193 570,-193 570,-174 446,-174"/>
<text text-anchor="middle" x="508" y="-181" font-family="Helvetica,sans-Serif" font-size="10.00">src/node/node_state.h</text>
</a>
</g>
</g>
<!-- Node8&#45;&gt;Node12 -->
<g id="edge15" class="edge">
<title>Node8&#45;&gt;Node12</title>
<path fill="none" stroke="midnightblue" d="M330.04,-301.71C343.43,-291.75 361.39,-278.24 377,-266 394.15,-252.55 396.9,-247.14 415,-235 439.87,-218.32 470.77,-202.41 489.94,-193.05"/>
<polygon fill="midnightblue" stroke="midnightblue" points="327.91,-298.93 321.97,-307.7 332.08,-304.55 327.91,-298.93"/>
</g>
<!-- Node14 -->
<g id="node14" class="node">
<title>Node14</title>
<g id="a_node14"><a xlink:href="quote__endorsements__client_8h.html" target="_top" xlink:title=" ">
<polygon fill="white" stroke="black" points="70,-235.5 70,-265.5 234,-265.5 234,-235.5 70,-235.5"/>
<text text-anchor="start" x="78" y="-253.5" font-family="Helvetica,sans-Serif" font-size="10.00">src/node/quote_endorsements</text>
<text text-anchor="middle" x="152" y="-242.5" font-family="Helvetica,sans-Serif" font-size="10.00">_client.h</text>
</a>
</g>
</g>
<!-- Node8&#45;&gt;Node14 -->
<g id="edge16" class="edge">
<title>Node8&#45;&gt;Node14</title>
<path fill="none" stroke="midnightblue" d="M279.76,-304.06C252.99,-293.05 213.97,-276.99 186.1,-265.53"/>
<polygon fill="midnightblue" stroke="midnightblue" points="278.44,-307.3 289.02,-307.87 281.1,-300.83 278.44,-307.3"/>
</g>
<!-- Node15 -->
<g id="node15" class="node">
<title>Node15</title>
<g id="a_node15"><a xlink:href="resharing_8h.html" target="_top" xlink:title=" ">
<polygon fill="white" stroke="black" points="252,-241 252,-260 368,-260 368,-241 252,-241"/>
<text text-anchor="middle" x="310" y="-248" font-family="Helvetica,sans-Serif" font-size="10.00">src/node/resharing.h</text>
</a>
</g>
</g>
<!-- Node8&#45;&gt;Node15 -->
<g id="edge18" class="edge">
<title>Node8&#45;&gt;Node15</title>
<path fill="none" stroke="midnightblue" d="M310,-297.54C310,-285.17 310,-269.62 310,-260.13"/>
<polygon fill="midnightblue" stroke="midnightblue" points="306.5,-297.73 310,-307.73 313.5,-297.73 306.5,-297.73"/>
</g>
<!-- Node10 -->
<g id="node10" class="node">
<title>Node10</title>
<g id="a_node10"><a xlink:href="enclave_2main_8cpp.html" target="_top" xlink:title=" ">
<polygon fill="white" stroke="black" points="741,-0.5 741,-19.5 861,-19.5 861,-0.5 741,-0.5"/>
<text text-anchor="middle" x="801" y="-7.5" font-family="Helvetica,sans-Serif" font-size="10.00">src/enclave/main.cpp</text>
</a>
</g>
</g>
<!-- Node9&#45;&gt;Node10 -->
<g id="edge9" class="edge">
<title>Node9&#45;&gt;Node10</title>
<path fill="none" stroke="midnightblue" d="M801,-45.8C801,-36.91 801,-26.78 801,-19.75"/>
<polygon fill="midnightblue" stroke="midnightblue" points="797.5,-46.08 801,-56.08 804.5,-46.08 797.5,-46.08"/>
</g>
<!-- Node11&#45;&gt;Node12 -->
<g id="edge11" class="edge">
<title>Node11&#45;&gt;Node12</title>
<path fill="none" stroke="midnightblue" d="M500.92,-230.54C502.82,-218.17 505.21,-202.62 506.67,-193.13"/>
<polygon fill="midnightblue" stroke="midnightblue" points="497.41,-230.32 499.35,-240.73 504.33,-231.38 497.41,-230.32"/>
</g>
<!-- Node12&#45;&gt;Node9 -->
<g id="edge12" class="edge">
<title>Node12&#45;&gt;Node9</title>
<path fill="none" stroke="midnightblue" d="M522.56,-165.85C537.75,-149.57 563.07,-125.35 590,-112 637.15,-88.63 696.1,-77.36 739.7,-71.94"/>
<polygon fill="midnightblue" stroke="midnightblue" points="519.72,-163.78 515.59,-173.54 524.9,-168.48 519.72,-163.78"/>
</g>
<!-- Node13 -->
<g id="node13" class="node">
<title>Node13</title>
<g id="a_node13"><a xlink:href="gov__effects_8h.html" target="_top" xlink:title=" ">
<polygon fill="white" stroke="black" points="599,-112.5 599,-131.5 743,-131.5 743,-112.5 599,-112.5"/>
<text text-anchor="middle" x="671" y="-119.5" font-family="Helvetica,sans-Serif" font-size="10.00">src/node/rpc/gov_effects.h</text>
</a>
</g>
</g>
<!-- Node12&#45;&gt;Node13 -->
<g id="edge13" class="edge">
<title>Node12&#45;&gt;Node13</title>
<path fill="none" stroke="midnightblue" d="M541.06,-170.43C572.74,-158.87 619.75,-141.71 647.69,-131.51"/>
<polygon fill="midnightblue" stroke="midnightblue" points="539.55,-167.26 531.35,-173.98 541.95,-173.83 539.55,-167.26"/>
</g>
<!-- Node13&#45;&gt;Node9 -->
<g id="edge14" class="edge">
<title>Node13&#45;&gt;Node9</title>
<path fill="none" stroke="midnightblue" d="M701.09,-108.5C725.46,-98.38 759.14,-84.39 780.5,-75.52"/>
<polygon fill="midnightblue" stroke="midnightblue" points="699.49,-105.38 691.6,-112.44 702.18,-111.84 699.49,-105.38"/>
</g>
<!-- Node14&#45;&gt;Node12 -->
<g id="edge17" class="edge">
<title>Node14&#45;&gt;Node12</title>
<path fill="none" stroke="midnightblue" d="M238.96,-233.62C309.06,-220.82 404.94,-203.32 461.29,-193.03"/>
<polygon fill="midnightblue" stroke="midnightblue" points="238.02,-230.24 228.81,-235.48 239.27,-237.12 238.02,-230.24"/>
</g>
<!-- Node15&#45;&gt;Node12 -->
<g id="edge19" class="edge">
<title>Node15&#45;&gt;Node12</title>
<path fill="none" stroke="midnightblue" d="M346,-237.68C385.24,-224.8 447.09,-204.5 481.91,-193.06"/>
<polygon fill="midnightblue" stroke="midnightblue" points="344.7,-234.42 336.29,-240.87 346.89,-241.07 344.7,-234.42"/>
</g>
<!-- Node16&#45;&gt;Node8 -->
<g id="edge22" class="edge">
<title>Node16&#45;&gt;Node8</title>
<path fill="none" stroke="midnightblue" d="M310,-359.32C310,-348.5 310,-335.4 310,-327.01"/>
<polygon fill="midnightblue" stroke="midnightblue" points="306.5,-359.48 310,-369.48 313.5,-359.48 306.5,-359.48"/>
</g>
<!-- Node17&#45;&gt;Node12 -->
<g id="edge24" class="edge">
<title>Node17&#45;&gt;Node12</title>
<path fill="none" stroke="midnightblue" d="M641.58,-231.95C606.04,-219.32 559.66,-202.85 531.95,-193.01"/>
<polygon fill="midnightblue" stroke="midnightblue" points="640.7,-235.35 651.29,-235.4 643.04,-228.75 640.7,-235.35"/>
</g>
<!-- Node18&#45;&gt;Node9 -->
<g id="edge26" class="edge">
<title>Node18&#45;&gt;Node9</title>
<path fill="none" stroke="midnightblue" d="M937.69,-423.34C996.64,-410.1 1070,-381.06 1070,-318.5 1070,-318.5 1070,-318.5 1070,-182.5 1070,-150.05 1074.9,-133.95 1051,-112 1024.08,-87.28 927.22,-75.71 862.27,-70.62"/>
<polygon fill="midnightblue" stroke="midnightblue" points="936.67,-419.98 927.62,-425.49 938.13,-426.83 936.67,-419.98"/>
</g>
<!-- Node19 -->
<g id="node19" class="node">
<title>Node19</title>
<g id="a_node19"><a xlink:href="frontend_8h.html" target="_top" xlink:title=" ">
<polygon fill="white" stroke="black" points="800.5,-369.5 800.5,-388.5 929.5,-388.5 929.5,-369.5 800.5,-369.5"/>
<text text-anchor="middle" x="865" y="-376.5" font-family="Helvetica,sans-Serif" font-size="10.00">src/node/rpc/frontend.h</text>
</a>
</g>
</g>
<!-- Node18&#45;&gt;Node19 -->
<g id="edge27" class="edge">
<title>Node18&#45;&gt;Node19</title>
<path fill="none" stroke="midnightblue" d="M865,-414.8C865,-405.91 865,-395.78 865,-388.75"/>
<polygon fill="midnightblue" stroke="midnightblue" points="861.5,-415.08 865,-425.08 868.5,-415.08 861.5,-415.08"/>
</g>
<!-- Node19&#45;&gt;Node12 -->
<g id="edge31" class="edge">
<title>Node19&#45;&gt;Node12</title>
<path fill="none" stroke="midnightblue" d="M790.23,-372.37C727.63,-366.23 644.54,-354.31 619,-333 583.25,-303.17 610.78,-271.59 582,-235 567.1,-216.05 543.11,-201.54 526.51,-193.03"/>
<polygon fill="midnightblue" stroke="midnightblue" points="790.2,-375.88 800.48,-373.34 790.86,-368.91 790.2,-375.88"/>
</g>
<!-- Node20 -->
<g id="node20" class="node">
<title>Node20</title>
<g id="a_node20"><a xlink:href="acme__challenge__frontend_8h.html" target="_top" xlink:title=" ">
<polygon fill="white" stroke="black" points="628,-302.5 628,-332.5 768,-332.5 768,-302.5 628,-302.5"/>
<text text-anchor="start" x="636" y="-320.5" font-family="Helvetica,sans-Serif" font-size="10.00">src/node/acme_challenge</text>
<text text-anchor="middle" x="698" y="-309.5" font-family="Helvetica,sans-Serif" font-size="10.00">_frontend.h</text>
</a>
</g>
</g>
<!-- Node19&#45;&gt;Node20 -->
<g id="edge28" class="edge">
<title>Node19&#45;&gt;Node20</title>
<path fill="none" stroke="midnightblue" d="M831.61,-366.1C804.44,-356.42 766.03,-342.74 737.36,-332.52"/>
<polygon fill="midnightblue" stroke="midnightblue" points="830.48,-369.42 841.07,-369.48 832.83,-362.82 830.48,-369.42"/>
</g>
<!-- Node21 -->
<g id="node21" class="node">
<title>Node21</title>
<g id="a_node21"><a xlink:href="member__frontend_8h.html" target="_top" xlink:title=" ">
<polygon fill="white" stroke="black" points="855,-168.5 855,-198.5 975,-198.5 975,-168.5 855,-168.5"/>
<text text-anchor="start" x="863" y="-186.5" font-family="Helvetica,sans-Serif" font-size="10.00">src/node/rpc/member</text>
<text text-anchor="middle" x="915" y="-175.5" font-family="Helvetica,sans-Serif" font-size="10.00">_frontend.h</text>
</a>
</g>
</g>
<!-- Node19&#45;&gt;Node21 -->
<g id="edge32" class="edge">
<title>Node19&#45;&gt;Node21</title>
<path fill="none" stroke="midnightblue" d="M910.38,-365.77C926.74,-358.93 943.49,-348.54 953,-333 979.94,-288.96 944.23,-226.39 925.35,-198.66"/>
<polygon fill="midnightblue" stroke="midnightblue" points="908.95,-362.57 900.85,-369.4 911.44,-369.11 908.95,-362.57"/>
</g>
<!-- Node22 -->
<g id="node22" class="node">
<title>Node22</title>
<g id="a_node22"><a xlink:href="node__frontend_8h.html" target="_top" xlink:title=" ">
<polygon fill="white" stroke="black" points="786,-308 786,-327 944,-327 944,-308 786,-308"/>
<text text-anchor="middle" x="865" y="-315" font-family="Helvetica,sans-Serif" font-size="10.00">src/node/rpc/node_frontend.h</text>
</a>
</g>
</g>
<!-- Node19&#45;&gt;Node22 -->
<g id="edge34" class="edge">
<title>Node19&#45;&gt;Node22</title>
<path fill="none" stroke="midnightblue" d="M865,-359.32C865,-348.5 865,-335.4 865,-327.01"/>
<polygon fill="midnightblue" stroke="midnightblue" points="861.5,-359.48 865,-369.48 868.5,-359.48 861.5,-359.48"/>
</g>
<!-- Node23 -->
<g id="node23" class="node">
<title>Node23</title>
<g id="a_node23"><a xlink:href="user__frontend_8h.html" target="_top" xlink:title=" ">
<polygon fill="white" stroke="black" points="886.5,-112.5 886.5,-131.5 1041.5,-131.5 1041.5,-112.5 886.5,-112.5"/>
<text text-anchor="middle" x="964" y="-119.5" font-family="Helvetica,sans-Serif" font-size="10.00">src/node/rpc/user_frontend.h</text>
</a>
</g>
</g>
<!-- Node19&#45;&gt;Node23 -->
<g id="edge37" class="edge">
<title>Node19&#45;&gt;Node23</title>
<path fill="none" stroke="midnightblue" d="M921.67,-366.29C940.23,-359.61 959.12,-349.2 971,-333 1014.52,-273.69 999.27,-239.96 984,-168 981.16,-154.62 974.06,-140.39 969.13,-131.59"/>
<polygon fill="midnightblue" stroke="midnightblue" points="920.44,-363.01 912.03,-369.45 922.62,-369.66 920.44,-363.01"/>
</g>
<!-- Node20&#45;&gt;Node9 -->
<g id="edge29" class="edge">
<title>Node20&#45;&gt;Node9</title>
<path fill="none" stroke="midnightblue" d="M732.81,-296.58C744.08,-288.48 755.57,-278.14 763,-266 802.49,-201.51 802.45,-104.98 801.43,-75.72"/>
<polygon fill="midnightblue" stroke="midnightblue" points="730.63,-293.83 724.31,-302.33 734.56,-299.62 730.63,-293.83"/>
</g>
<!-- Node20&#45;&gt;Node11 -->
<g id="edge30" class="edge">
<title>Node20&#45;&gt;Node11</title>
<path fill="none" stroke="midnightblue" d="M644.98,-299.27C606.01,-286.6 554.72,-269.93 524.18,-260.01"/>
<polygon fill="midnightblue" stroke="midnightblue" points="644.01,-302.63 654.6,-302.4 646.17,-295.98 644.01,-302.63"/>
</g>
<!-- Node21&#45;&gt;Node9 -->
<g id="edge33" class="edge">
<title>Node21&#45;&gt;Node9</title>
<path fill="none" stroke="midnightblue" d="M893.71,-160.93C868.37,-135.25 827.26,-93.61 809.56,-75.67"/>
<polygon fill="midnightblue" stroke="midnightblue" points="891.51,-163.68 901.02,-168.34 896.49,-158.76 891.51,-163.68"/>
</g>
<!-- Node22&#45;&gt;Node9 -->
<g id="edge35" class="edge">
<title>Node22&#45;&gt;Node9</title>
<path fill="none" stroke="midnightblue" d="M860.29,-298.16C847.48,-248.21 812.33,-111.17 803.19,-75.55"/>
<polygon fill="midnightblue" stroke="midnightblue" points="856.92,-299.09 862.8,-307.91 863.7,-297.36 856.92,-299.09"/>
</g>
<!-- Node22&#45;&gt;Node17 -->
<g id="edge36" class="edge">
<title>Node22&#45;&gt;Node17</title>
<path fill="none" stroke="midnightblue" d="M832.47,-304.35C802.97,-293.33 759.51,-277.09 728.55,-265.53"/>
<polygon fill="midnightblue" stroke="midnightblue" points="831.3,-307.65 841.89,-307.87 833.75,-301.09 831.3,-307.65"/>
</g>
<!-- Node23&#45;&gt;Node9 -->
<g id="edge38" class="edge">
<title>Node23&#45;&gt;Node9</title>
<path fill="none" stroke="midnightblue" d="M928.3,-109.17C897.6,-99 854.08,-84.59 826.71,-75.52"/>
<polygon fill="midnightblue" stroke="midnightblue" points="927.58,-112.62 938.17,-112.44 929.78,-105.98 927.58,-112.62"/>
</g>
</g>
</svg>
        <g id="navigator" transform="translate(0 0)" fill="#404254">
                <rect fill="#f2f5e9" fill-opacity="0.5" stroke="#606060" stroke-width=".5" x="0" y="0" width="60" height="60"/>
                <use id="zoomplus" xlink:href="#zoomPlus" x="17" y="9" onmousedown="handleZoom(evt,'in')"/>
                <use id="zoomminus" xlink:href="#zoomMin" x="42" y="9" onmousedown="handleZoom(evt,'out')"/>
                <use id="reset" xlink:href="#resetDef" x="30" y="36" onmousedown="handleReset()"/>
                <g id="arrowUp" xlink:href="#dirArrow" transform="translate(30 24)" onmousedown="handlePan(0,-1)">
                  <use xlink:href="#rim" fill="#404040">
                        <set attributeName="fill" to="#808080" begin="arrowUp.mouseover" end="arrowUp.mouseout"/>
                  </use>
                  <path fill="none" stroke="white" stroke-width="1.5" d="M0,-3.0v7 M-2.5,-0.5L0,-3.0L2.5,-0.5"/>
                </g>
                <g id="arrowRight" xlink:href="#dirArrow" transform="rotate(90) translate(36 -43)" onmousedown="handlePan(1,0)">
                  <use xlink:href="#rim" fill="#404040">
                        <set attributeName="fill" to="#808080" begin="arrowRight.mouseover" end="arrowRight.mouseout"/>
                  </use>
                  <path fill="none" stroke="white" stroke-width="1.5" d="M0,-3.0v7 M-2.5,-0.5L0,-3.0L2.5,-0.5"/>
                </g>
                <g id="arrowDown" xlink:href="#dirArrow" transform="rotate(180) translate(-30 -48)" onmousedown="handlePan(0,1)">
                  <use xlink:href="#rim" fill="#404040">
                        <set attributeName="fill" to="#808080" begin="arrowDown.mouseover" end="arrowDown.mouseout"/>
                  </use>
                  <path fill="none" stroke="white" stroke-width="1.5" d="M0,-3.0v7 M-2.5,-0.5L0,-3.0L2.5,-0.5"/>
                </g>
                <g id="arrowLeft" xlink:href="#dirArrow" transform="rotate(270) translate(-36 17)" onmousedown="handlePan(-1,0)">
                  <use xlink:href="#rim" fill="#404040">
                        <set attributeName="fill" to="#808080" begin="arrowLeft.mouseover" end="arrowLeft.mouseout"/>
                  </use>
                  <path fill="none" stroke="white" stroke-width="1.5" d="M0,-3.0v7 M-2.5,-0.5L0,-3.0L2.5,-0.5"/>
                </g>
        </g>
        <svg viewBox="0 0 15 15" width="100%" height="30px" preserveAspectRatio="xMaxYMin meet">
         <g id="arrow_out" transform="scale(0.3 0.3)">
          <a xlink:href="rpc__context__impl_8h__dep__incl_org.svg" target="_base">
           <rect id="button" ry="5" rx="5" y="6" x="6" height="38" width="38"
                fill="#f2f5e9" fill-opacity="0.5" stroke="#606060" stroke-width="1.0"/>
           <path id="arrow"
             d="M 11.500037,31.436501 C 11.940474,20.09759 22.043105,11.32322 32.158766,21.979434 L 37.068811,17.246167 C 37.068811,17.246167 37.088388,32 37.088388,32 L 22.160133,31.978069 C 22.160133,31.978069 26.997745,27.140456 26.997745,27.140456 C 18.528582,18.264221 13.291696,25.230495 11.500037,31.436501 z"
             style="fill:#404040;"/>
          </a>
         </g>
        </svg>
</svg>
