<?xml version="1.0" encoding="UTF-8" standalone="no"?>
<!DOCTYPE svg PUBLIC "-//W3C//DTD SVG 1.1//EN"
 "http://www.w3.org/Graphics/SVG/1.1/DTD/svg11.dtd">
<!-- Generated by graphviz version 2.43.0 (0)
 -->
<!-- Title: include/ccf/indexing/strategies/seqnos_by_key_in_memory.h Pages: 1 -->
<svg width="1774pt" height="565pt"
 viewBox="0.00 0.00 1774.39 565.00" xmlns="http://www.w3.org/2000/svg" xmlns:xlink="http://www.w3.org/1999/xlink">
<g id="graph0" class="graph" transform="scale(1 1) rotate(0) translate(4 561)">
<title>include/ccf/indexing/strategies/seqnos_by_key_in_memory.h</title>
<polygon fill="white" stroke="transparent" points="-4,4 -4,-561 1770.39,-561 1770.39,4 -4,4"/>
<!-- Node1 -->
<g id="node1" class="node">
<title>Node1</title>
<g id="a_node1"><a xlink:title=" ">
<polygon fill="#bfbfbf" stroke="black" points="668.5,-515.5 668.5,-556.5 791.5,-556.5 791.5,-515.5 668.5,-515.5"/>
<text text-anchor="start" x="676.5" y="-544.5" font-family="Helvetica,sans-Serif" font-size="10.00">include/ccf/indexing</text>
<text text-anchor="start" x="676.5" y="-533.5" font-family="Helvetica,sans-Serif" font-size="10.00">/strategies/seqnos_by</text>
<text text-anchor="middle" x="730" y="-522.5" font-family="Helvetica,sans-Serif" font-size="10.00">_key_in_memory.h</text>
</a>
</g>
</g>
<!-- Node2 -->
<g id="node2" class="node">
<title>Node2</title>
<g id="a_node2"><a xlink:href="visit__each__entry__in__map_8h.html" target="_top" xlink:title=" ">
<polygon fill="white" stroke="black" points="440,-448.5 440,-478.5 590,-478.5 590,-448.5 440,-448.5"/>
<text text-anchor="start" x="448" y="-466.5" font-family="Helvetica,sans-Serif" font-size="10.00">ccf/indexing/strategies</text>
<text text-anchor="middle" x="515" y="-455.5" font-family="Helvetica,sans-Serif" font-size="10.00">/visit_each_entry_in_map.h</text>
</a>
</g>
</g>
<!-- Node1&#45;&gt;Node2 -->
<g id="edge1" class="edge">
<title>Node1&#45;&gt;Node2</title>
<path fill="none" stroke="midnightblue" d="M670.4,-515.46C638.21,-504.9 598.83,-491.99 567.76,-481.8"/>
<polygon fill="midnightblue" stroke="midnightblue" points="568.58,-478.39 557.99,-478.6 566.4,-485.04 568.58,-478.39"/>
</g>
<!-- Node43 -->
<g id="node43" class="node">
<title>Node43</title>
<g id="a_node43"><a xlink:href="locking_8h.html" target="_top" xlink:title=" ">
<polygon fill="white" stroke="black" points="682,-454 682,-473 778,-473 778,-454 682,-454"/>
<text text-anchor="middle" x="730" y="-461" font-family="Helvetica,sans-Serif" font-size="10.00">ccf/pal/locking.h</text>
</a>
</g>
</g>
<!-- Node1&#45;&gt;Node43 -->
<g id="edge70" class="edge">
<title>Node1&#45;&gt;Node43</title>
<path fill="none" stroke="midnightblue" d="M730,-515.36C730,-505.3 730,-493.1 730,-483.18"/>
<polygon fill="midnightblue" stroke="midnightblue" points="733.5,-483.17 730,-473.17 726.5,-483.17 733.5,-483.17"/>
</g>
<!-- Node45 -->
<g id="node45" class="node">
<title>Node45</title>
<g id="a_node45"><a xlink:href="seq__no__collection_8h.html" target="_top" xlink:title=" ">
<polygon fill="white" stroke="black" points="871,-280.5 871,-299.5 1001,-299.5 1001,-280.5 871,-280.5"/>
<text text-anchor="middle" x="936" y="-287.5" font-family="Helvetica,sans-Serif" font-size="10.00">ccf/seq_no_collection.h</text>
</a>
</g>
</g>
<!-- Node1&#45;&gt;Node45 -->
<g id="edge72" class="edge">
<title>Node1&#45;&gt;Node45</title>
<path fill="none" stroke="midnightblue" d="M751.2,-515.38C762.21,-504.89 775.69,-491.59 787,-479 841.21,-418.7 899.14,-341.38 923.78,-307.81"/>
<polygon fill="midnightblue" stroke="midnightblue" points="926.75,-309.69 929.82,-299.55 921.09,-305.56 926.75,-309.69"/>
</g>
<!-- Node3 -->
<g id="node3" class="node">
<title>Node3</title>
<g id="a_node3"><a xlink:href="byte__vector_8h.html" target="_top" xlink:title=" ">
<polygon fill="white" stroke="black" points="268,-280.5 268,-299.5 368,-299.5 368,-280.5 268,-280.5"/>
<text text-anchor="middle" x="318" y="-287.5" font-family="Helvetica,sans-Serif" font-size="10.00">ccf/byte_vector.h</text>
</a>
</g>
</g>
<!-- Node2&#45;&gt;Node3 -->
<g id="edge2" class="edge">
<title>Node2&#45;&gt;Node3</title>
<path fill="none" stroke="midnightblue" d="M492.58,-448.4C477.77,-438.75 458.18,-425.33 442,-412 400.05,-377.44 355.54,-331.38 332.99,-307.28"/>
<polygon fill="midnightblue" stroke="midnightblue" points="335.34,-304.66 325.96,-299.72 330.21,-309.43 335.34,-304.66"/>
</g>
<!-- Node10 -->
<g id="node10" class="node">
<title>Node10</title>
<g id="a_node10"><a xlink:href="strategy_8h.html" target="_top" xlink:title=" ">
<polygon fill="white" stroke="black" points="451.5,-392.5 451.5,-411.5 578.5,-411.5 578.5,-392.5 451.5,-392.5"/>
<text text-anchor="middle" x="515" y="-399.5" font-family="Helvetica,sans-Serif" font-size="10.00">ccf/indexing/strategy.h</text>
</a>
</g>
</g>
<!-- Node2&#45;&gt;Node10 -->
<g id="edge9" class="edge">
<title>Node2&#45;&gt;Node10</title>
<path fill="none" stroke="midnightblue" d="M515,-448.4C515,-440.47 515,-430.46 515,-421.86"/>
<polygon fill="midnightblue" stroke="midnightblue" points="518.5,-421.66 515,-411.66 511.5,-421.66 518.5,-421.66"/>
</g>
<!-- Node4 -->
<g id="node4" class="node">
<title>Node4</title>
<g id="a_node4"><a xlink:href="siphash_8h.html" target="_top" xlink:title=" ">
<polygon fill="white" stroke="black" points="232.5,-224.5 232.5,-243.5 327.5,-243.5 327.5,-224.5 232.5,-224.5"/>
<text text-anchor="middle" x="280" y="-231.5" font-family="Helvetica,sans-Serif" font-size="10.00">ccf/ds/siphash.h</text>
</a>
</g>
</g>
<!-- Node3&#45;&gt;Node4 -->
<g id="edge3" class="edge">
<title>Node3&#45;&gt;Node4</title>
<path fill="none" stroke="midnightblue" d="M311.73,-280.08C306.36,-272.46 298.48,-261.26 291.92,-251.94"/>
<polygon fill="midnightblue" stroke="midnightblue" points="294.78,-249.91 286.16,-243.75 289.05,-253.94 294.78,-249.91"/>
</g>
<!-- Node8 -->
<g id="node8" class="node">
<title>Node8</title>
<g id="a_node8"><a xlink:title=" ">
<polygon fill="white" stroke="#bfbfbf" points="859.5,-56.5 859.5,-75.5 938.5,-75.5 938.5,-56.5 859.5,-56.5"/>
<text text-anchor="middle" x="899" y="-63.5" font-family="Helvetica,sans-Serif" font-size="10.00">fmt/format.h</text>
</a>
</g>
</g>
<!-- Node3&#45;&gt;Node8 -->
<g id="edge7" class="edge">
<title>Node3&#45;&gt;Node8</title>
<path fill="none" stroke="midnightblue" d="M321.58,-280.23C332.72,-253.06 366.27,-171.86 371,-168 463.27,-92.73 516.05,-134.38 633,-112 708.2,-97.61 795.82,-83.25 849.34,-74.75"/>
<polygon fill="midnightblue" stroke="midnightblue" points="849.92,-78.2 859.25,-73.18 848.82,-71.29 849.92,-78.2"/>
</g>
<!-- Node9 -->
<g id="node9" class="node">
<title>Node9</title>
<g id="a_node9"><a xlink:title=" ">
<polygon fill="white" stroke="#bfbfbf" points="27.5,-224.5 27.5,-243.5 176.5,-243.5 176.5,-224.5 27.5,-224.5"/>
<text text-anchor="middle" x="102" y="-231.5" font-family="Helvetica,sans-Serif" font-size="10.00">small_vector/SmallVector.h</text>
</a>
</g>
</g>
<!-- Node3&#45;&gt;Node9 -->
<g id="edge8" class="edge">
<title>Node3&#45;&gt;Node9</title>
<path fill="none" stroke="midnightblue" d="M283.77,-280.44C246.49,-271.12 186.73,-256.18 145.99,-246"/>
<polygon fill="midnightblue" stroke="midnightblue" points="146.62,-242.55 136.07,-243.52 144.92,-249.34 146.62,-242.55"/>
</g>
<!-- Node5 -->
<g id="node5" class="node">
<title>Node5</title>
<g id="a_node5"><a xlink:title=" ">
<polygon fill="white" stroke="#bfbfbf" points="232.5,-168.5 232.5,-187.5 285.5,-187.5 285.5,-168.5 232.5,-168.5"/>
<text text-anchor="middle" x="259" y="-175.5" font-family="Helvetica,sans-Serif" font-size="10.00">cstddef</text>
</a>
</g>
</g>
<!-- Node4&#45;&gt;Node5 -->
<g id="edge4" class="edge">
<title>Node4&#45;&gt;Node5</title>
<path fill="none" stroke="midnightblue" d="M276.53,-224.08C273.69,-216.77 269.57,-206.18 266.04,-197.1"/>
<polygon fill="midnightblue" stroke="midnightblue" points="269.29,-195.8 262.4,-187.75 262.77,-198.34 269.29,-195.8"/>
</g>
<!-- Node6 -->
<g id="node6" class="node">
<title>Node6</title>
<g id="a_node6"><a xlink:title=" ">
<polygon fill="white" stroke="#bfbfbf" points="380,-168.5 380,-187.5 430,-187.5 430,-168.5 380,-168.5"/>
<text text-anchor="middle" x="405" y="-175.5" font-family="Helvetica,sans-Serif" font-size="10.00">cstdint</text>
</a>
</g>
</g>
<!-- Node4&#45;&gt;Node6 -->
<g id="edge5" class="edge">
<title>Node4&#45;&gt;Node6</title>
<path fill="none" stroke="midnightblue" d="M299.81,-224.44C320.29,-215.6 352.48,-201.69 375.86,-191.59"/>
<polygon fill="midnightblue" stroke="midnightblue" points="377.49,-194.7 385.29,-187.52 374.72,-188.27 377.49,-194.7"/>
</g>
<!-- Node7 -->
<g id="node7" class="node">
<title>Node7</title>
<g id="a_node7"><a xlink:title=" ">
<polygon fill="white" stroke="#bfbfbf" points="610.5,-0.5 610.5,-19.5 657.5,-19.5 657.5,-0.5 610.5,-0.5"/>
<text text-anchor="middle" x="634" y="-7.5" font-family="Helvetica,sans-Serif" font-size="10.00">vector</text>
</a>
</g>
</g>
<!-- Node4&#45;&gt;Node7 -->
<g id="edge6" class="edge">
<title>Node4&#45;&gt;Node7</title>
<path fill="none" stroke="midnightblue" d="M282.64,-224.39C292.75,-192.04 329.81,-78.49 359,-56 396.21,-27.33 535.2,-16.26 600.15,-12.59"/>
<polygon fill="midnightblue" stroke="midnightblue" points="600.49,-16.08 610.28,-12.04 600.11,-9.09 600.49,-16.08"/>
</g>
<!-- Node11 -->
<g id="node11" class="node">
<title>Node11</title>
<g id="a_node11"><a xlink:href="read__only__store_8h.html" target="_top" xlink:title=" ">
<polygon fill="white" stroke="black" points="687,-336.5 687,-355.5 823,-355.5 823,-336.5 687,-336.5"/>
<text text-anchor="middle" x="755" y="-343.5" font-family="Helvetica,sans-Serif" font-size="10.00">ccf/kv/read_only_store.h</text>
</a>
</g>
</g>
<!-- Node10&#45;&gt;Node11 -->
<g id="edge10" class="edge">
<title>Node10&#45;&gt;Node11</title>
<path fill="none" stroke="midnightblue" d="M553.03,-392.44C594.81,-383.04 661.98,-367.93 707.27,-357.74"/>
<polygon fill="midnightblue" stroke="midnightblue" points="708.16,-361.13 717.15,-355.52 706.62,-354.3 708.16,-361.13"/>
</g>
<!-- Node25 -->
<g id="node25" class="node">
<title>Node25</title>
<g id="a_node25"><a xlink:title=" ">
<polygon fill="white" stroke="#bfbfbf" points="650,-112.5 650,-131.5 706,-131.5 706,-112.5 650,-112.5"/>
<text text-anchor="middle" x="678" y="-119.5" font-family="Helvetica,sans-Serif" font-size="10.00">optional</text>
</a>
</g>
</g>
<!-- Node10&#45;&gt;Node25 -->
<g id="edge68" class="edge">
<title>Node10&#45;&gt;Node25</title>
<path fill="none" stroke="midnightblue" d="M506.83,-392.38C491.07,-374.81 458,-332.94 458,-291 458,-291 458,-291 458,-233 458,-152.71 576.69,-131.02 639.71,-125.16"/>
<polygon fill="midnightblue" stroke="midnightblue" points="640.02,-128.65 649.69,-124.33 639.43,-121.68 640.02,-128.65"/>
</g>
<!-- Node31 -->
<g id="node31" class="node">
<title>Node31</title>
<g id="a_node31"><a xlink:title=" ">
<polygon fill="white" stroke="#bfbfbf" points="280,-0.5 280,-19.5 324,-19.5 324,-0.5 280,-0.5"/>
<text text-anchor="middle" x="302" y="-7.5" font-family="Helvetica,sans-Serif" font-size="10.00">string</text>
</a>
</g>
</g>
<!-- Node10&#45;&gt;Node31 -->
<g id="edge69" class="edge">
<title>Node10&#45;&gt;Node31</title>
<path fill="none" stroke="midnightblue" d="M451.33,-400.63C313.55,-398.1 0,-382.31 0,-291 0,-291 0,-291 0,-121 0,-64.11 191.6,-28.06 269.58,-15.74"/>
<polygon fill="midnightblue" stroke="midnightblue" points="270.45,-19.15 279.79,-14.16 269.38,-12.23 270.45,-19.15"/>
</g>
<!-- Node39 -->
<g id="node39" class="node">
<title>Node39</title>
<g id="a_node39"><a xlink:href="tx__id_8h.html" target="_top" xlink:title=" ">
<polygon fill="white" stroke="black" points="627.5,-224.5 627.5,-243.5 694.5,-243.5 694.5,-224.5 627.5,-224.5"/>
<text text-anchor="middle" x="661" y="-231.5" font-family="Helvetica,sans-Serif" font-size="10.00">ccf/tx_id.h</text>
</a>
</g>
</g>
<!-- Node10&#45;&gt;Node39 -->
<g id="edge67" class="edge">
<title>Node10&#45;&gt;Node39</title>
<path fill="none" stroke="midnightblue" d="M522.85,-392.08C546.33,-365.38 616.26,-285.87 646.64,-251.32"/>
<polygon fill="midnightblue" stroke="midnightblue" points="649.49,-253.39 653.46,-243.57 644.23,-248.77 649.49,-253.39"/>
</g>
<!-- Node12 -->
<g id="node12" class="node">
<title>Node12</title>
<g id="a_node12"><a xlink:href="tx_8h.html" target="_top" xlink:title=" ">
<polygon fill="white" stroke="black" points="761.5,-280.5 761.5,-299.5 814.5,-299.5 814.5,-280.5 761.5,-280.5"/>
<text text-anchor="middle" x="788" y="-287.5" font-family="Helvetica,sans-Serif" font-size="10.00">ccf/tx.h</text>
</a>
</g>
</g>
<!-- Node11&#45;&gt;Node12 -->
<g id="edge11" class="edge">
<title>Node11&#45;&gt;Node12</title>
<path fill="none" stroke="midnightblue" d="M760.45,-336.08C765.01,-328.61 771.67,-317.72 777.29,-308.52"/>
<polygon fill="midnightblue" stroke="midnightblue" points="780.42,-310.11 782.65,-299.75 774.45,-306.46 780.42,-310.11"/>
</g>
<!-- Node11&#45;&gt;Node39 -->
<g id="edge65" class="edge">
<title>Node11&#45;&gt;Node39</title>
<path fill="none" stroke="midnightblue" d="M747.62,-336.37C731.97,-318.05 695.22,-275.05 674.98,-251.36"/>
<polygon fill="midnightblue" stroke="midnightblue" points="677.5,-248.92 668.34,-243.59 672.18,-253.47 677.5,-248.92"/>
</g>
<!-- Node42 -->
<g id="node42" class="node">
<title>Node42</title>
<g id="a_node42"><a xlink:title=" ">
<polygon fill="white" stroke="#bfbfbf" points="1657,-224.5 1657,-243.5 1715,-243.5 1715,-224.5 1657,-224.5"/>
<text text-anchor="middle" x="1686" y="-231.5" font-family="Helvetica,sans-Serif" font-size="10.00">memory</text>
</a>
</g>
</g>
<!-- Node11&#45;&gt;Node42 -->
<g id="edge66" class="edge">
<title>Node11&#45;&gt;Node42</title>
<path fill="none" stroke="midnightblue" d="M767.24,-336.49C790.78,-320.31 841.83,-286.15 862,-280 1028.19,-229.32 1470.64,-265.87 1643,-244 1644.28,-243.84 1645.57,-243.66 1646.88,-243.46"/>
<polygon fill="midnightblue" stroke="midnightblue" points="1647.7,-246.87 1656.96,-241.74 1646.51,-239.98 1647.7,-246.87"/>
</g>
<!-- Node13 -->
<g id="node13" class="node">
<title>Node13</title>
<g id="a_node13"><a xlink:href="ccf__assert_8h.html" target="_top" xlink:title=" ">
<polygon fill="white" stroke="black" points="1117,-224.5 1117,-243.5 1209,-243.5 1209,-224.5 1117,-224.5"/>
<text text-anchor="middle" x="1163" y="-231.5" font-family="Helvetica,sans-Serif" font-size="10.00">ccf/ccf_assert.h</text>
</a>
</g>
</g>
<!-- Node12&#45;&gt;Node13 -->
<g id="edge12" class="edge">
<title>Node12&#45;&gt;Node13</title>
<path fill="none" stroke="midnightblue" d="M814.84,-282.78C819.55,-281.78 824.41,-280.81 829,-280 926.08,-262.84 1040.05,-248.77 1106.62,-241.16"/>
<polygon fill="midnightblue" stroke="midnightblue" points="1107.35,-244.6 1116.89,-240 1106.56,-237.65 1107.35,-244.6"/>
</g>
<!-- Node20 -->
<g id="node20" class="node">
<title>Node20</title>
<g id="a_node20"><a xlink:title=" ">
<polygon fill="white" stroke="#bfbfbf" points="1690,-56.5 1690,-75.5 1728,-75.5 1728,-56.5 1690,-56.5"/>
<text text-anchor="middle" x="1709" y="-63.5" font-family="Helvetica,sans-Serif" font-size="10.00">map</text>
</a>
</g>
</g>
<!-- Node12&#45;&gt;Node20 -->
<g id="edge61" class="edge">
<title>Node12&#45;&gt;Node20</title>
<path fill="none" stroke="midnightblue" d="M814.56,-281.32C816.73,-280.83 818.9,-280.38 821,-280 995.36,-248.57 1042.93,-271.2 1218,-244 1445.6,-208.64 1579.8,-311.61 1724,-132 1734.84,-118.5 1727.9,-98.6 1720.26,-84.38"/>
<polygon fill="midnightblue" stroke="midnightblue" points="1723.16,-82.42 1715.06,-75.59 1717.14,-85.98 1723.16,-82.42"/>
</g>
<!-- Node12&#45;&gt;Node25 -->
<g id="edge63" class="edge">
<title>Node12&#45;&gt;Node25</title>
<path fill="none" stroke="midnightblue" d="M784.04,-280.36C774.46,-259.91 748.73,-207.29 720,-168 712.45,-157.67 702.77,-147.16 694.61,-138.9"/>
<polygon fill="midnightblue" stroke="midnightblue" points="696.94,-136.28 687.37,-131.74 692.02,-141.26 696.94,-136.28"/>
</g>
<!-- Node28 -->
<g id="node28" class="node">
<title>Node28</title>
<g id="a_node28"><a xlink:href="sha256__hash_8h.html" target="_top" xlink:title=" ">
<polygon fill="white" stroke="black" points="915,-224.5 915,-243.5 1055,-243.5 1055,-224.5 915,-224.5"/>
<text text-anchor="middle" x="985" y="-231.5" font-family="Helvetica,sans-Serif" font-size="10.00">ccf/crypto/sha256_hash.h</text>
</a>
</g>
</g>
<!-- Node12&#45;&gt;Node28 -->
<g id="edge30" class="edge">
<title>Node12&#45;&gt;Node28</title>
<path fill="none" stroke="midnightblue" d="M814.57,-281.72C847.73,-272.63 904.82,-256.98 943.7,-246.32"/>
<polygon fill="midnightblue" stroke="midnightblue" points="944.94,-249.61 953.66,-243.59 943.09,-242.86 944.94,-249.61"/>
</g>
<!-- Node12&#45;&gt;Node31 -->
<g id="edge64" class="edge">
<title>Node12&#45;&gt;Node31</title>
<path fill="none" stroke="midnightblue" d="M761.21,-288.62C654.72,-286.9 265.13,-278.27 223,-244 199.65,-225.01 204,-209.1 204,-179 204,-179 204,-179 204,-121 204,-77.38 247.49,-43.06 276.53,-25.01"/>
<polygon fill="midnightblue" stroke="midnightblue" points="278.58,-27.86 285.38,-19.73 275,-21.85 278.58,-27.86"/>
</g>
<!-- Node12&#45;&gt;Node39 -->
<g id="edge51" class="edge">
<title>Node12&#45;&gt;Node39</title>
<path fill="none" stroke="midnightblue" d="M767.88,-280.44C746.98,-271.56 714.07,-257.56 690.28,-247.45"/>
<polygon fill="midnightblue" stroke="midnightblue" points="691.6,-244.21 681.03,-243.52 688.86,-250.65 691.6,-244.21"/>
</g>
<!-- Node41 -->
<g id="node41" class="node">
<title>Node41</title>
<g id="a_node41"><a xlink:title=" ">
<polygon fill="white" stroke="#bfbfbf" points="794,-224.5 794,-243.5 826,-243.5 826,-224.5 794,-224.5"/>
<text text-anchor="middle" x="810" y="-231.5" font-family="Helvetica,sans-Serif" font-size="10.00">list</text>
</a>
</g>
</g>
<!-- Node12&#45;&gt;Node41 -->
<g id="edge60" class="edge">
<title>Node12&#45;&gt;Node41</title>
<path fill="none" stroke="midnightblue" d="M791.63,-280.08C794.61,-272.77 798.93,-262.18 802.62,-253.1"/>
<polygon fill="midnightblue" stroke="midnightblue" points="805.9,-254.33 806.43,-243.75 799.42,-251.69 805.9,-254.33"/>
</g>
<!-- Node12&#45;&gt;Node42 -->
<g id="edge62" class="edge">
<title>Node12&#45;&gt;Node42</title>
<path fill="none" stroke="midnightblue" d="M814.79,-282.43C819.5,-281.47 824.38,-280.61 829,-280 1188.07,-233 1283.71,-289.24 1643,-244 1644.28,-243.84 1645.57,-243.66 1646.88,-243.47"/>
<polygon fill="midnightblue" stroke="midnightblue" points="1647.7,-246.88 1656.96,-241.74 1646.52,-239.98 1647.7,-246.88"/>
</g>
<!-- Node14 -->
<g id="node14" class="node">
<title>Node14</title>
<g id="a_node14"><a xlink:href="logger_8h.html" target="_top" xlink:title=" ">
<polygon fill="white" stroke="black" points="1162.5,-168.5 1162.5,-187.5 1249.5,-187.5 1249.5,-168.5 1162.5,-168.5"/>
<text text-anchor="middle" x="1206" y="-175.5" font-family="Helvetica,sans-Serif" font-size="10.00">ccf/ds/logger.h</text>
</a>
</g>
</g>
<!-- Node13&#45;&gt;Node14 -->
<g id="edge13" class="edge">
<title>Node13&#45;&gt;Node14</title>
<path fill="none" stroke="midnightblue" d="M1170.1,-224.08C1176.24,-216.38 1185.27,-205.03 1192.74,-195.65"/>
<polygon fill="midnightblue" stroke="midnightblue" points="1195.54,-197.75 1199.03,-187.75 1190.06,-193.39 1195.54,-197.75"/>
</g>
<!-- Node14&#45;&gt;Node8 -->
<g id="edge24" class="edge">
<title>Node14&#45;&gt;Node8</title>
<path fill="none" stroke="midnightblue" d="M1215.59,-168.08C1228.93,-154.61 1249.86,-128.88 1235,-112 1193.25,-64.58 1015.5,-85.19 953,-76 951.7,-75.81 950.39,-75.61 949.07,-75.41"/>
<polygon fill="midnightblue" stroke="midnightblue" points="949.2,-71.89 938.78,-73.81 948.13,-78.81 949.2,-71.89"/>
</g>
<!-- Node15 -->
<g id="node15" class="node">
<title>Node15</title>
<g id="a_node15"><a xlink:href="enum__formatter_8h.html" target="_top" xlink:title=" ">
<polygon fill="white" stroke="black" points="1090,-112.5 1090,-131.5 1226,-131.5 1226,-112.5 1090,-112.5"/>
<text text-anchor="middle" x="1158" y="-119.5" font-family="Helvetica,sans-Serif" font-size="10.00">ccf/ds/enum_formatter.h</text>
</a>
</g>
</g>
<!-- Node14&#45;&gt;Node15 -->
<g id="edge14" class="edge">
<title>Node14&#45;&gt;Node15</title>
<path fill="none" stroke="midnightblue" d="M1198.07,-168.08C1191.15,-160.3 1180.93,-148.8 1172.55,-139.37"/>
<polygon fill="midnightblue" stroke="midnightblue" points="1175.04,-136.9 1165.78,-131.75 1169.81,-141.55 1175.04,-136.9"/>
</g>
<!-- Node16 -->
<g id="node16" class="node">
<title>Node16</title>
<g id="a_node16"><a xlink:href="thread__ids_8h.html" target="_top" xlink:title=" ">
<polygon fill="white" stroke="black" points="1607,-112.5 1607,-131.5 1715,-131.5 1715,-112.5 1607,-112.5"/>
<text text-anchor="middle" x="1661" y="-119.5" font-family="Helvetica,sans-Serif" font-size="10.00">ccf/ds/thread_ids.h</text>
</a>
</g>
</g>
<!-- Node14&#45;&gt;Node16 -->
<g id="edge16" class="edge">
<title>Node14&#45;&gt;Node16</title>
<path fill="none" stroke="midnightblue" d="M1249.55,-172.4C1320.19,-164.85 1464.37,-149.07 1596.8,-132.13"/>
<polygon fill="midnightblue" stroke="midnightblue" points="1597.24,-135.6 1606.72,-130.85 1596.35,-128.65 1597.24,-135.6"/>
</g>
<!-- Node22 -->
<g id="node22" class="node">
<title>Node22</title>
<g id="a_node22"><a xlink:title=" ">
<polygon fill="white" stroke="#bfbfbf" points="1282.5,-112.5 1282.5,-131.5 1361.5,-131.5 1361.5,-112.5 1282.5,-112.5"/>
<text text-anchor="middle" x="1322" y="-119.5" font-family="Helvetica,sans-Serif" font-size="10.00">fmt/chrono.h</text>
</a>
</g>
</g>
<!-- Node14&#45;&gt;Node22 -->
<g id="edge23" class="edge">
<title>Node14&#45;&gt;Node22</title>
<path fill="none" stroke="midnightblue" d="M1224.38,-168.44C1243.22,-159.68 1272.73,-145.94 1294.38,-135.86"/>
<polygon fill="midnightblue" stroke="midnightblue" points="1296.12,-138.91 1303.71,-131.52 1293.16,-132.56 1296.12,-138.91"/>
</g>
<!-- Node23 -->
<g id="node23" class="node">
<title>Node23</title>
<g id="a_node23"><a xlink:title=" ">
<polygon fill="white" stroke="#bfbfbf" points="1379,-112.5 1379,-131.5 1439,-131.5 1439,-112.5 1379,-112.5"/>
<text text-anchor="middle" x="1409" y="-119.5" font-family="Helvetica,sans-Serif" font-size="10.00">iostream</text>
</a>
</g>
</g>
<!-- Node14&#45;&gt;Node23 -->
<g id="edge25" class="edge">
<title>Node14&#45;&gt;Node23</title>
<path fill="none" stroke="midnightblue" d="M1238.17,-168.44C1273.67,-159 1330.87,-143.78 1369.18,-133.59"/>
<polygon fill="midnightblue" stroke="midnightblue" points="1370.21,-136.94 1378.97,-130.99 1368.41,-130.18 1370.21,-136.94"/>
</g>
<!-- Node24 -->
<g id="node24" class="node">
<title>Node24</title>
<g id="a_node24"><a xlink:title=" ">
<polygon fill="white" stroke="#bfbfbf" points="717,-56.5 717,-75.5 827,-75.5 827,-56.5 717,-56.5"/>
<text text-anchor="middle" x="772" y="-63.5" font-family="Helvetica,sans-Serif" font-size="10.00">nlohmann/json.hpp</text>
</a>
</g>
</g>
<!-- Node14&#45;&gt;Node24 -->
<g id="edge26" class="edge">
<title>Node14&#45;&gt;Node24</title>
<path fill="none" stroke="midnightblue" d="M1162.47,-175.63C1076.21,-172.29 886.98,-161.71 830,-132 809.12,-121.11 792.19,-99.43 782.12,-84.1"/>
<polygon fill="midnightblue" stroke="midnightblue" points="785.03,-82.16 776.77,-75.54 779.1,-85.87 785.03,-82.16"/>
</g>
<!-- Node14&#45;&gt;Node25 -->
<g id="edge27" class="edge">
<title>Node14&#45;&gt;Node25</title>
<path fill="none" stroke="midnightblue" d="M1162.42,-172.8C1082.31,-165.03 906.27,-147.79 758,-132 744.4,-130.55 729.51,-128.9 716.3,-127.4"/>
<polygon fill="midnightblue" stroke="midnightblue" points="716.46,-123.9 706.13,-126.25 715.67,-130.85 716.46,-123.9"/>
</g>
<!-- Node26 -->
<g id="node26" class="node">
<title>Node26</title>
<g id="a_node26"><a xlink:title=" ">
<polygon fill="white" stroke="#bfbfbf" points="978,-112.5 978,-131.5 1034,-131.5 1034,-112.5 978,-112.5"/>
<text text-anchor="middle" x="1006" y="-119.5" font-family="Helvetica,sans-Serif" font-size="10.00">sstream</text>
</a>
</g>
</g>
<!-- Node14&#45;&gt;Node26 -->
<g id="edge28" class="edge">
<title>Node14&#45;&gt;Node26</title>
<path fill="none" stroke="midnightblue" d="M1174.31,-168.44C1139.07,-158.93 1082.16,-143.56 1044.41,-133.37"/>
<polygon fill="midnightblue" stroke="midnightblue" points="1044.88,-129.87 1034.31,-130.64 1043.05,-136.63 1044.88,-129.87"/>
</g>
<!-- Node27 -->
<g id="node27" class="node">
<title>Node27</title>
<g id="a_node27"><a xlink:title=" ">
<polygon fill="white" stroke="#bfbfbf" points="1436.5,-0.5 1436.5,-19.5 1505.5,-19.5 1505.5,-0.5 1436.5,-0.5"/>
<text text-anchor="middle" x="1471" y="-7.5" font-family="Helvetica,sans-Serif" font-size="10.00">type_traits</text>
</a>
</g>
</g>
<!-- Node14&#45;&gt;Node27 -->
<g id="edge29" class="edge">
<title>Node14&#45;&gt;Node27</title>
<path fill="none" stroke="midnightblue" d="M1249.64,-176.1C1367.97,-173.27 1688.5,-162.8 1724,-132 1749.88,-109.54 1759.12,-82.17 1737,-56 1709.18,-23.08 1583.87,-14.23 1515.63,-11.86"/>
<polygon fill="midnightblue" stroke="midnightblue" points="1515.7,-8.36 1505.59,-11.55 1515.48,-15.36 1515.7,-8.36"/>
</g>
<!-- Node15&#45;&gt;Node8 -->
<g id="edge15" class="edge">
<title>Node15&#45;&gt;Node8</title>
<path fill="none" stroke="midnightblue" d="M1116.96,-112.44C1071.28,-102.92 997.48,-87.53 948.61,-77.34"/>
<polygon fill="midnightblue" stroke="midnightblue" points="949.08,-73.87 938.57,-75.25 947.65,-80.72 949.08,-73.87"/>
</g>
<!-- Node16&#45;&gt;Node8 -->
<g id="edge17" class="edge">
<title>Node16&#45;&gt;Node8</title>
<path fill="none" stroke="midnightblue" d="M1606.74,-112.96C1603.79,-112.61 1600.86,-112.29 1598,-112 1326.9,-84.71 1257.58,-98.02 986,-76 973.94,-75.02 960.96,-73.78 948.8,-72.53"/>
<polygon fill="midnightblue" stroke="midnightblue" points="949.12,-69.05 938.81,-71.49 948.39,-76.01 949.12,-69.05"/>
</g>
<!-- Node17 -->
<g id="node17" class="node">
<title>Node17</title>
<g id="a_node17"><a xlink:title=" ">
<polygon fill="white" stroke="#bfbfbf" points="1378,-56.5 1378,-75.5 1464,-75.5 1464,-56.5 1378,-56.5"/>
<text text-anchor="middle" x="1421" y="-63.5" font-family="Helvetica,sans-Serif" font-size="10.00">fmt/ostream.h</text>
</a>
</g>
</g>
<!-- Node16&#45;&gt;Node17 -->
<g id="edge18" class="edge">
<title>Node16&#45;&gt;Node17</title>
<path fill="none" stroke="midnightblue" d="M1622.97,-112.44C1581.19,-103.04 1514.02,-87.93 1468.73,-77.74"/>
<polygon fill="midnightblue" stroke="midnightblue" points="1469.38,-74.3 1458.85,-75.52 1467.84,-81.13 1469.38,-74.3"/>
</g>
<!-- Node18 -->
<g id="node18" class="node">
<title>Node18</title>
<g id="a_node18"><a xlink:title=" ">
<polygon fill="white" stroke="#bfbfbf" points="1482.5,-56.5 1482.5,-75.5 1543.5,-75.5 1543.5,-56.5 1482.5,-56.5"/>
<text text-anchor="middle" x="1513" y="-63.5" font-family="Helvetica,sans-Serif" font-size="10.00">fmt/std.h</text>
</a>
</g>
</g>
<!-- Node16&#45;&gt;Node18 -->
<g id="edge19" class="edge">
<title>Node16&#45;&gt;Node18</title>
<path fill="none" stroke="midnightblue" d="M1637.55,-112.44C1612.87,-103.44 1573.81,-89.19 1546.02,-79.05"/>
<polygon fill="midnightblue" stroke="midnightblue" points="1546.94,-75.66 1536.34,-75.52 1544.54,-82.23 1546.94,-75.66"/>
</g>
<!-- Node19 -->
<g id="node19" class="node">
<title>Node19</title>
<g id="a_node19"><a xlink:title=" ">
<polygon fill="white" stroke="#bfbfbf" points="1562,-56.5 1562,-75.5 1606,-75.5 1606,-56.5 1562,-56.5"/>
<text text-anchor="middle" x="1584" y="-63.5" font-family="Helvetica,sans-Serif" font-size="10.00">limits</text>
</a>
</g>
</g>
<!-- Node16&#45;&gt;Node19 -->
<g id="edge20" class="edge">
<title>Node16&#45;&gt;Node19</title>
<path fill="none" stroke="midnightblue" d="M1648.63,-112.32C1636.84,-104.06 1618.87,-91.45 1604.86,-81.63"/>
<polygon fill="midnightblue" stroke="midnightblue" points="1606.54,-78.53 1596.34,-75.65 1602.52,-84.26 1606.54,-78.53"/>
</g>
<!-- Node16&#45;&gt;Node20 -->
<g id="edge21" class="edge">
<title>Node16&#45;&gt;Node20</title>
<path fill="none" stroke="midnightblue" d="M1668.93,-112.08C1675.85,-104.3 1686.07,-92.8 1694.45,-83.37"/>
<polygon fill="midnightblue" stroke="midnightblue" points="1697.19,-85.55 1701.22,-75.75 1691.96,-80.9 1697.19,-85.55"/>
</g>
<!-- Node21 -->
<g id="node21" class="node">
<title>Node21</title>
<g id="a_node21"><a xlink:title=" ">
<polygon fill="white" stroke="#bfbfbf" points="1624,-56.5 1624,-75.5 1672,-75.5 1672,-56.5 1624,-56.5"/>
<text text-anchor="middle" x="1648" y="-63.5" font-family="Helvetica,sans-Serif" font-size="10.00">thread</text>
</a>
</g>
</g>
<!-- Node16&#45;&gt;Node21 -->
<g id="edge22" class="edge">
<title>Node16&#45;&gt;Node21</title>
<path fill="none" stroke="midnightblue" d="M1658.85,-112.08C1657.13,-104.93 1654.65,-94.64 1652.5,-85.69"/>
<polygon fill="midnightblue" stroke="midnightblue" points="1655.85,-84.65 1650.11,-75.75 1649.04,-86.29 1655.85,-84.65"/>
</g>
<!-- Node28&#45;&gt;Node8 -->
<g id="edge50" class="edge">
<title>Node28&#45;&gt;Node8</title>
<path fill="none" stroke="midnightblue" d="M995.03,-224.49C1018.13,-203.86 1071.01,-150.1 1043,-112 1036.87,-103.66 983.39,-88.46 943.38,-78.05"/>
<polygon fill="midnightblue" stroke="midnightblue" points="944.09,-74.62 933.54,-75.51 942.35,-81.4 944.09,-74.62"/>
</g>
<!-- Node29 -->
<g id="node29" class="node">
<title>Node29</title>
<g id="a_node29"><a xlink:href="json_8h.html" target="_top" xlink:title=" ">
<polygon fill="white" stroke="black" points="814.5,-168.5 814.5,-187.5 891.5,-187.5 891.5,-168.5 814.5,-168.5"/>
<text text-anchor="middle" x="853" y="-175.5" font-family="Helvetica,sans-Serif" font-size="10.00">ccf/ds/json.h</text>
</a>
</g>
</g>
<!-- Node28&#45;&gt;Node29 -->
<g id="edge31" class="edge">
<title>Node28&#45;&gt;Node29</title>
<path fill="none" stroke="midnightblue" d="M964.08,-224.44C942.26,-215.52 907.85,-201.44 883.11,-191.32"/>
<polygon fill="midnightblue" stroke="midnightblue" points="884.4,-188.06 873.82,-187.52 881.75,-194.54 884.4,-188.06"/>
</g>
<!-- Node35 -->
<g id="node35" class="node">
<title>Node35</title>
<g id="a_node35"><a xlink:title=" ">
<polygon fill="white" stroke="#bfbfbf" points="1679,-0.5 1679,-19.5 1721,-19.5 1721,-0.5 1679,-0.5"/>
<text text-anchor="middle" x="1700" y="-7.5" font-family="Helvetica,sans-Serif" font-size="10.00">array</text>
</a>
</g>
</g>
<!-- Node28&#45;&gt;Node35 -->
<g id="edge48" class="edge">
<title>Node28&#45;&gt;Node35</title>
<path fill="none" stroke="midnightblue" d="M1055.23,-225.94C1238.9,-207.16 1721.08,-155.83 1746,-132 1770.62,-108.45 1770.72,-86.72 1756,-56 1749.75,-42.95 1737.66,-32.49 1726.32,-24.95"/>
<polygon fill="midnightblue" stroke="midnightblue" points="1727.85,-21.79 1717.5,-19.54 1724.19,-27.75 1727.85,-21.79"/>
</g>
<!-- Node38 -->
<g id="node38" class="node">
<title>Node38</title>
<g id="a_node38"><a xlink:title=" ">
<polygon fill="white" stroke="#bfbfbf" points="965,-168.5 965,-187.5 1005,-187.5 1005,-168.5 965,-168.5"/>
<text text-anchor="middle" x="985" y="-175.5" font-family="Helvetica,sans-Serif" font-size="10.00">span</text>
</a>
</g>
</g>
<!-- Node28&#45;&gt;Node38 -->
<g id="edge49" class="edge">
<title>Node28&#45;&gt;Node38</title>
<path fill="none" stroke="midnightblue" d="M985,-224.08C985,-217.01 985,-206.86 985,-197.99"/>
<polygon fill="midnightblue" stroke="midnightblue" points="988.5,-197.75 985,-187.75 981.5,-197.75 988.5,-197.75"/>
</g>
<!-- Node29&#45;&gt;Node8 -->
<g id="edge46" class="edge">
<title>Node29&#45;&gt;Node8</title>
<path fill="none" stroke="midnightblue" d="M845.41,-168.22C835.28,-155.38 819.74,-130.95 830,-112 837.75,-97.7 852.23,-87.22 865.94,-79.99"/>
<polygon fill="midnightblue" stroke="midnightblue" points="867.74,-83.01 875.21,-75.5 864.69,-76.71 867.74,-83.01"/>
</g>
<!-- Node29&#45;&gt;Node26 -->
<g id="edge47" class="edge">
<title>Node29&#45;&gt;Node26</title>
<path fill="none" stroke="midnightblue" d="M877.24,-168.44C902.87,-159.4 943.49,-145.06 972.24,-134.92"/>
<polygon fill="midnightblue" stroke="midnightblue" points="973.61,-138.15 981.87,-131.52 971.28,-131.54 973.61,-138.15"/>
</g>
<!-- Node30 -->
<g id="node30" class="node">
<title>Node30</title>
<g id="a_node30"><a xlink:href="include_2ccf_2crypto_2base64_8h.html" target="_top" xlink:title=" ">
<polygon fill="white" stroke="black" points="368,-56.5 368,-75.5 480,-75.5 480,-56.5 368,-56.5"/>
<text text-anchor="middle" x="424" y="-63.5" font-family="Helvetica,sans-Serif" font-size="10.00">ccf/crypto/base64.h</text>
</a>
</g>
</g>
<!-- Node29&#45;&gt;Node30 -->
<g id="edge32" class="edge">
<title>Node29&#45;&gt;Node30</title>
<path fill="none" stroke="midnightblue" d="M834.92,-168.44C797.85,-150.91 716.56,-112.48 715,-112 639.79,-89 549.88,-77.39 490.1,-71.79"/>
<polygon fill="midnightblue" stroke="midnightblue" points="490.31,-68.29 480.03,-70.88 489.68,-75.27 490.31,-68.29"/>
</g>
<!-- Node32 -->
<g id="node32" class="node">
<title>Node32</title>
<g id="a_node32"><a xlink:href="include_2ccf_2ds_2json__schema_8h.html" target="_top" xlink:title=" ">
<polygon fill="white" stroke="black" points="838.5,-112.5 838.5,-131.5 959.5,-131.5 959.5,-112.5 838.5,-112.5"/>
<text text-anchor="middle" x="899" y="-119.5" font-family="Helvetica,sans-Serif" font-size="10.00">ccf/ds/json_schema.h</text>
</a>
</g>
</g>
<!-- Node29&#45;&gt;Node32 -->
<g id="edge35" class="edge">
<title>Node29&#45;&gt;Node32</title>
<path fill="none" stroke="midnightblue" d="M860.6,-168.08C867.23,-160.3 877.02,-148.8 885.06,-139.37"/>
<polygon fill="midnightblue" stroke="midnightblue" points="887.73,-141.63 891.55,-131.75 882.4,-137.09 887.73,-141.63"/>
</g>
<!-- Node30&#45;&gt;Node7 -->
<g id="edge34" class="edge">
<title>Node30&#45;&gt;Node7</title>
<path fill="none" stroke="midnightblue" d="M457.28,-56.44C496.45,-46.37 561.14,-29.74 600.44,-19.63"/>
<polygon fill="midnightblue" stroke="midnightblue" points="601.52,-22.97 610.33,-17.09 599.77,-16.19 601.52,-22.97"/>
</g>
<!-- Node30&#45;&gt;Node31 -->
<g id="edge33" class="edge">
<title>Node30&#45;&gt;Node31</title>
<path fill="none" stroke="midnightblue" d="M404.67,-56.44C384.68,-47.6 353.26,-33.69 330.44,-23.59"/>
<polygon fill="midnightblue" stroke="midnightblue" points="331.8,-20.36 321.24,-19.52 328.97,-26.76 331.8,-20.36"/>
</g>
<!-- Node32&#45;&gt;Node8 -->
<g id="edge44" class="edge">
<title>Node32&#45;&gt;Node8</title>
<path fill="none" stroke="midnightblue" d="M899,-112.08C899,-105.01 899,-94.86 899,-85.99"/>
<polygon fill="midnightblue" stroke="midnightblue" points="902.5,-85.75 899,-75.75 895.5,-85.75 902.5,-85.75"/>
</g>
<!-- Node32&#45;&gt;Node24 -->
<g id="edge45" class="edge">
<title>Node32&#45;&gt;Node24</title>
<path fill="none" stroke="midnightblue" d="M878.88,-112.44C857.98,-103.56 825.07,-89.56 801.28,-79.45"/>
<polygon fill="midnightblue" stroke="midnightblue" points="802.6,-76.21 792.03,-75.52 799.86,-82.65 802.6,-76.21"/>
</g>
<!-- Node33 -->
<g id="node33" class="node">
<title>Node33</title>
<g id="a_node33"><a xlink:href="nonstd_8h.html" target="_top" xlink:title=" ">
<polygon fill="white" stroke="black" points="995,-56.5 995,-75.5 1085,-75.5 1085,-56.5 995,-56.5"/>
<text text-anchor="middle" x="1040" y="-63.5" font-family="Helvetica,sans-Serif" font-size="10.00">ccf/ds/nonstd.h</text>
</a>
</g>
</g>
<!-- Node32&#45;&gt;Node33 -->
<g id="edge36" class="edge">
<title>Node32&#45;&gt;Node33</title>
<path fill="none" stroke="midnightblue" d="M921.34,-112.44C944.75,-103.48 981.74,-89.31 1008.19,-79.18"/>
<polygon fill="midnightblue" stroke="midnightblue" points="1009.68,-82.36 1017.76,-75.52 1007.17,-75.82 1009.68,-82.36"/>
</g>
<!-- Node33&#45;&gt;Node7 -->
<g id="edge43" class="edge">
<title>Node33&#45;&gt;Node7</title>
<path fill="none" stroke="midnightblue" d="M994.93,-57.95C990.23,-57.27 985.52,-56.61 981,-56 842.65,-37.47 806.25,-45.44 669,-20 668.54,-19.91 668.07,-19.83 667.6,-19.73"/>
<polygon fill="midnightblue" stroke="midnightblue" points="668.14,-16.27 657.62,-17.54 666.64,-23.11 668.14,-16.27"/>
</g>
<!-- Node33&#45;&gt;Node27 -->
<g id="edge42" class="edge">
<title>Node33&#45;&gt;Node27</title>
<path fill="none" stroke="midnightblue" d="M1085.31,-59.32C1168.32,-48.92 1343.82,-26.93 1426.34,-16.59"/>
<polygon fill="midnightblue" stroke="midnightblue" points="1426.92,-20.05 1436.41,-15.33 1426.05,-13.1 1426.92,-20.05"/>
</g>
<!-- Node33&#45;&gt;Node31 -->
<g id="edge40" class="edge">
<title>Node33&#45;&gt;Node31</title>
<path fill="none" stroke="midnightblue" d="M994.63,-60.31C979.78,-58.84 963.19,-57.27 948,-56 712.56,-36.29 428.34,-18.61 334.09,-12.92"/>
<polygon fill="midnightblue" stroke="midnightblue" points="334.24,-9.42 324.05,-12.31 333.82,-16.41 334.24,-9.42"/>
</g>
<!-- Node34 -->
<g id="node34" class="node">
<title>Node34</title>
<g id="a_node34"><a xlink:title=" ">
<polygon fill="white" stroke="#bfbfbf" points="1045,-0.5 1045,-19.5 1109,-19.5 1109,-0.5 1045,-0.5"/>
<text text-anchor="middle" x="1077" y="-7.5" font-family="Helvetica,sans-Serif" font-size="10.00">algorithm</text>
</a>
</g>
</g>
<!-- Node33&#45;&gt;Node34 -->
<g id="edge37" class="edge">
<title>Node33&#45;&gt;Node34</title>
<path fill="none" stroke="midnightblue" d="M1046.11,-56.08C1051.28,-48.53 1058.85,-37.49 1065.19,-28.23"/>
<polygon fill="midnightblue" stroke="midnightblue" points="1068.24,-29.98 1071,-19.75 1062.46,-26.02 1068.24,-29.98"/>
</g>
<!-- Node33&#45;&gt;Node35 -->
<g id="edge38" class="edge">
<title>Node33&#45;&gt;Node35</title>
<path fill="none" stroke="midnightblue" d="M1085.1,-61.31C1210.59,-51.04 1561.57,-22.33 1668.61,-13.57"/>
<polygon fill="midnightblue" stroke="midnightblue" points="1669.08,-17.04 1678.76,-12.74 1668.51,-10.07 1669.08,-17.04"/>
</g>
<!-- Node36 -->
<g id="node36" class="node">
<title>Node36</title>
<g id="a_node36"><a xlink:title=" ">
<polygon fill="white" stroke="#bfbfbf" points="977.5,-0.5 977.5,-19.5 1026.5,-19.5 1026.5,-0.5 977.5,-0.5"/>
<text text-anchor="middle" x="1002" y="-7.5" font-family="Helvetica,sans-Serif" font-size="10.00">cctype</text>
</a>
</g>
</g>
<!-- Node33&#45;&gt;Node36 -->
<g id="edge39" class="edge">
<title>Node33&#45;&gt;Node36</title>
<path fill="none" stroke="midnightblue" d="M1033.73,-56.08C1028.36,-48.46 1020.48,-37.26 1013.92,-27.94"/>
<polygon fill="midnightblue" stroke="midnightblue" points="1016.78,-25.91 1008.16,-19.75 1011.05,-29.94 1016.78,-25.91"/>
</g>
<!-- Node37 -->
<g id="node37" class="node">
<title>Node37</title>
<g id="a_node37"><a xlink:title=" ">
<polygon fill="white" stroke="#bfbfbf" points="678.5,-0.5 678.5,-19.5 751.5,-19.5 751.5,-0.5 678.5,-0.5"/>
<text text-anchor="middle" x="715" y="-7.5" font-family="Helvetica,sans-Serif" font-size="10.00">string_view</text>
</a>
</g>
</g>
<!-- Node33&#45;&gt;Node37 -->
<g id="edge41" class="edge">
<title>Node33&#45;&gt;Node37</title>
<path fill="none" stroke="midnightblue" d="M994.81,-57.49C933.35,-47.28 823.95,-29.1 761.71,-18.76"/>
<polygon fill="midnightblue" stroke="midnightblue" points="762.21,-15.3 751.77,-17.11 761.06,-22.2 762.21,-15.3"/>
</g>
<!-- Node39&#45;&gt;Node6 -->
<g id="edge54" class="edge">
<title>Node39&#45;&gt;Node6</title>
<path fill="none" stroke="midnightblue" d="M627.27,-225.88C578.72,-215.64 489.58,-196.84 440.22,-186.43"/>
<polygon fill="midnightblue" stroke="midnightblue" points="440.82,-182.98 430.32,-184.34 439.38,-189.83 440.82,-182.98"/>
</g>
<!-- Node39&#45;&gt;Node8 -->
<g id="edge55" class="edge">
<title>Node39&#45;&gt;Node8</title>
<path fill="none" stroke="midnightblue" d="M664.71,-224.33C669.6,-211.62 676.82,-187.34 670,-168 660.68,-141.57 622.96,-133.45 641,-112 644.35,-108.01 775.28,-86.65 849.3,-74.85"/>
<polygon fill="midnightblue" stroke="midnightblue" points="850.02,-78.28 859.35,-73.25 848.92,-71.36 850.02,-78.28"/>
</g>
<!-- Node39&#45;&gt;Node24 -->
<g id="edge56" class="edge">
<title>Node39&#45;&gt;Node24</title>
<path fill="none" stroke="midnightblue" d="M636.53,-224.44C620.43,-217.38 600.62,-205.63 591,-188 579.36,-166.68 599.19,-120.58 608,-112 634.08,-86.62 673.06,-75.25 706.47,-70.28"/>
<polygon fill="midnightblue" stroke="midnightblue" points="707.19,-73.71 716.64,-68.93 706.27,-66.77 707.19,-73.71"/>
</g>
<!-- Node39&#45;&gt;Node25 -->
<g id="edge57" class="edge">
<title>Node39&#45;&gt;Node25</title>
<path fill="none" stroke="midnightblue" d="M673.5,-224.3C683.87,-216.25 697.89,-203.24 704,-188 710.54,-171.68 701.39,-153.06 692.2,-139.94"/>
<polygon fill="midnightblue" stroke="midnightblue" points="694.86,-137.66 686.01,-131.83 689.29,-141.91 694.86,-137.66"/>
</g>
<!-- Node39&#45;&gt;Node29 -->
<g id="edge52" class="edge">
<title>Node39&#45;&gt;Node29</title>
<path fill="none" stroke="midnightblue" d="M691.42,-224.44C724.28,-215.2 776.78,-200.44 812.97,-190.26"/>
<polygon fill="midnightblue" stroke="midnightblue" points="814.04,-193.59 822.72,-187.52 812.15,-186.85 814.04,-193.59"/>
</g>
<!-- Node39&#45;&gt;Node31 -->
<g id="edge58" class="edge">
<title>Node39&#45;&gt;Node31</title>
<path fill="none" stroke="midnightblue" d="M637.72,-224.37C584.67,-204.01 452.22,-149.12 359,-76 341.37,-62.17 324.92,-42.36 314.26,-28.26"/>
<polygon fill="midnightblue" stroke="midnightblue" points="316.89,-25.92 308.15,-19.93 311.25,-30.06 316.89,-25.92"/>
</g>
<!-- Node39&#45;&gt;Node37 -->
<g id="edge59" class="edge">
<title>Node39&#45;&gt;Node37</title>
<path fill="none" stroke="midnightblue" d="M632.63,-224.49C615.25,-217.65 594.4,-206.13 584,-188 575.2,-172.67 581.46,-132.19 593,-112 615.8,-72.11 660.82,-41.26 689.34,-24.65"/>
<polygon fill="midnightblue" stroke="midnightblue" points="691.34,-27.54 698.32,-19.57 687.89,-21.44 691.34,-27.54"/>
</g>
<!-- Node40 -->
<g id="node40" class="node">
<title>Node40</title>
<g id="a_node40"><a xlink:title=" ">
<polygon fill="white" stroke="#bfbfbf" points="600.5,-168.5 600.5,-187.5 661.5,-187.5 661.5,-168.5 600.5,-168.5"/>
<text text-anchor="middle" x="631" y="-175.5" font-family="Helvetica,sans-Serif" font-size="10.00">charconv</text>
</a>
</g>
</g>
<!-- Node39&#45;&gt;Node40 -->
<g id="edge53" class="edge">
<title>Node39&#45;&gt;Node40</title>
<path fill="none" stroke="midnightblue" d="M656.05,-224.08C651.9,-216.61 645.85,-205.72 640.73,-196.52"/>
<polygon fill="midnightblue" stroke="midnightblue" points="643.78,-194.79 635.86,-187.75 637.66,-198.19 643.78,-194.79"/>
</g>
<!-- Node44 -->
<g id="node44" class="node">
<title>Node44</title>
<g id="a_node44"><a xlink:title=" ">
<polygon fill="white" stroke="#bfbfbf" points="706,-392.5 706,-411.5 754,-411.5 754,-392.5 706,-392.5"/>
<text text-anchor="middle" x="730" y="-399.5" font-family="Helvetica,sans-Serif" font-size="10.00">mutex</text>
</a>
</g>
</g>
<!-- Node43&#45;&gt;Node44 -->
<g id="edge71" class="edge">
<title>Node43&#45;&gt;Node44</title>
<path fill="none" stroke="midnightblue" d="M730,-453.98C730,-445.58 730,-432.48 730,-421.66"/>
<polygon fill="midnightblue" stroke="midnightblue" points="733.5,-421.51 730,-411.51 726.5,-421.51 733.5,-421.51"/>
</g>
<!-- Node45&#45;&gt;Node39 -->
<g id="edge77" class="edge">
<title>Node45&#45;&gt;Node39</title>
<path fill="none" stroke="midnightblue" d="M892.43,-280.44C841.03,-270.35 756.09,-253.67 704.65,-243.57"/>
<polygon fill="midnightblue" stroke="midnightblue" points="705.32,-240.14 694.83,-241.64 703.97,-247.01 705.32,-240.14"/>
</g>
<!-- Node46 -->
<g id="node46" class="node">
<title>Node46</title>
<g id="a_node46"><a xlink:href="contiguous__set_8h.html" target="_top" xlink:title=" ">
<polygon fill="white" stroke="black" points="1457.5,-112.5 1457.5,-131.5 1588.5,-131.5 1588.5,-112.5 1457.5,-112.5"/>
<text text-anchor="middle" x="1523" y="-119.5" font-family="Helvetica,sans-Serif" font-size="10.00">ccf/ds/contiguous_set.h</text>
</a>
</g>
</g>
<!-- Node45&#45;&gt;Node46 -->
<g id="edge73" class="edge">
<title>Node45&#45;&gt;Node46</title>
<path fill="none" stroke="midnightblue" d="M1001.12,-287.69C1185.48,-283.66 1699.32,-270.13 1724,-244 1775.12,-189.87 1650.76,-151.35 1575.45,-133.75"/>
<polygon fill="midnightblue" stroke="midnightblue" points="1576.15,-130.32 1565.63,-131.5 1574.6,-137.14 1576.15,-130.32"/>
</g>
<!-- Node46&#45;&gt;Node7 -->
<g id="edge76" class="edge">
<title>Node46&#45;&gt;Node7</title>
<path fill="none" stroke="midnightblue" d="M1457.17,-112.94C1454.07,-112.61 1451,-112.3 1448,-112 1243.04,-91.73 1183.87,-133.14 986,-76 967.66,-70.71 966.2,-61.76 948,-56 828.8,-18.29 791.78,-43.61 669,-20 668.54,-19.91 668.07,-19.82 667.61,-19.73"/>
<polygon fill="midnightblue" stroke="midnightblue" points="668.16,-16.26 657.63,-17.5 666.63,-23.09 668.16,-16.26"/>
</g>
<!-- Node46&#45;&gt;Node8 -->
<g id="edge74" class="edge">
<title>Node46&#45;&gt;Node8</title>
<path fill="none" stroke="midnightblue" d="M1457.17,-112.92C1454.07,-112.6 1451,-112.29 1448,-112 1228.43,-90.85 1172.02,-102.16 953,-76 951.7,-75.84 950.38,-75.68 949.05,-75.51"/>
<polygon fill="midnightblue" stroke="midnightblue" points="949.14,-71.99 938.75,-74.05 948.16,-78.92 949.14,-71.99"/>
</g>
<!-- Node47 -->
<g id="node47" class="node">
<title>Node47</title>
<g id="a_node47"><a xlink:title=" ">
<polygon fill="white" stroke="#bfbfbf" points="1304,-56.5 1304,-75.5 1360,-75.5 1360,-56.5 1304,-56.5"/>
<text text-anchor="middle" x="1332" y="-63.5" font-family="Helvetica,sans-Serif" font-size="10.00">numeric</text>
</a>
</g>
</g>
<!-- Node46&#45;&gt;Node47 -->
<g id="edge75" class="edge">
<title>Node46&#45;&gt;Node47</title>
<path fill="none" stroke="midnightblue" d="M1492.74,-112.44C1459.47,-103.04 1405.97,-87.91 1369.93,-77.72"/>
<polygon fill="midnightblue" stroke="midnightblue" points="1370.83,-74.34 1360.25,-74.99 1368.93,-81.08 1370.83,-74.34"/>
</g>
</g>
</svg>
