<?xml version="1.0" encoding="UTF-8" standalone="no"?>
<!DOCTYPE svg PUBLIC "-//W3C//DTD SVG 1.1//EN"
 "http://www.w3.org/Graphics/SVG/1.1/DTD/svg11.dtd">
<!-- Generated by graphviz version 2.43.0 (0)
 -->
<!-- Title: include/ccf/endpoints/authentication/sig_auth.h Pages: 1 -->
<svg width="1924pt" height="475pt"
 viewBox="0.00 0.00 1923.50 475.00" xmlns="http://www.w3.org/2000/svg" xmlns:xlink="http://www.w3.org/1999/xlink">
<g id="graph0" class="graph" transform="scale(1 1) rotate(0) translate(4 471)">
<title>include/ccf/endpoints/authentication/sig_auth.h</title>
<polygon fill="white" stroke="transparent" points="-4,4 -4,-471 1919.5,-471 1919.5,4 -4,4"/>
<!-- Node1 -->
<g id="node1" class="node">
<title>Node1</title>
<g id="a_node1"><a xlink:title=" ">
<polygon fill="#bfbfbf" stroke="black" points="1600.5,-436.5 1600.5,-466.5 1743.5,-466.5 1743.5,-436.5 1600.5,-436.5"/>
<text text-anchor="start" x="1608.5" y="-454.5" font-family="Helvetica,sans-Serif" font-size="10.00">include/ccf/endpoints</text>
<text text-anchor="middle" x="1672" y="-443.5" font-family="Helvetica,sans-Serif" font-size="10.00">/authentication/sig_auth.h</text>
</a>
</g>
</g>
<!-- Node2 -->
<g id="node2" class="node">
<title>Node2</title>
<g id="a_node2"><a xlink:href="common__auth__policies_8h.html" target="_top" xlink:title=" ">
<polygon fill="white" stroke="black" points="810.5,-369.5 810.5,-399.5 925.5,-399.5 925.5,-369.5 810.5,-369.5"/>
<text text-anchor="start" x="818.5" y="-387.5" font-family="Helvetica,sans-Serif" font-size="10.00">include/ccf/common</text>
<text text-anchor="middle" x="868" y="-376.5" font-family="Helvetica,sans-Serif" font-size="10.00">_auth_policies.h</text>
</a>
</g>
</g>
<!-- Node1&#45;&gt;Node2 -->
<g id="edge1" class="edge">
<title>Node1&#45;&gt;Node2</title>
<path fill="none" stroke="midnightblue" d="M1589.85,-443.86C1426.84,-430.68 1066.12,-401.52 925.61,-390.16"/>
<polygon fill="midnightblue" stroke="midnightblue" points="1590.05,-447.39 1600.3,-444.7 1590.61,-440.41 1590.05,-447.39"/>
</g>
<!-- Node23 -->
<g id="node23" class="node">
<title>Node23</title>
<g id="a_node23"><a xlink:href="request__authn__identity_8h.html" target="_top" xlink:title=" ">
<polygon fill="white" stroke="black" points="1602,-369.5 1602,-399.5 1742,-399.5 1742,-369.5 1602,-369.5"/>
<text text-anchor="start" x="1610" y="-387.5" font-family="Helvetica,sans-Serif" font-size="10.00">src/apps/js_v8/tmpl</text>
<text text-anchor="middle" x="1672" y="-376.5" font-family="Helvetica,sans-Serif" font-size="10.00">/request_authn_identity.h</text>
</a>
</g>
</g>
<!-- Node1&#45;&gt;Node23 -->
<g id="edge28" class="edge">
<title>Node1&#45;&gt;Node23</title>
<path fill="none" stroke="midnightblue" d="M1672,-426.11C1672,-417.15 1672,-407.32 1672,-399.58"/>
<polygon fill="midnightblue" stroke="midnightblue" points="1668.5,-426.4 1672,-436.4 1675.5,-426.4 1668.5,-426.4"/>
</g>
<!-- Node26 -->
<g id="node26" class="node">
<title>Node26</title>
<g id="a_node26"><a xlink:href="sig__auth_8cpp.html" target="_top" xlink:title=" ">
<polygon fill="white" stroke="black" points="1760.5,-369.5 1760.5,-399.5 1915.5,-399.5 1915.5,-369.5 1760.5,-369.5"/>
<text text-anchor="start" x="1768.5" y="-387.5" font-family="Helvetica,sans-Serif" font-size="10.00">src/endpoints/authentication</text>
<text text-anchor="middle" x="1838" y="-376.5" font-family="Helvetica,sans-Serif" font-size="10.00">/sig_auth.cpp</text>
</a>
</g>
</g>
<!-- Node1&#45;&gt;Node26 -->
<g id="edge31" class="edge">
<title>Node1&#45;&gt;Node26</title>
<path fill="none" stroke="midnightblue" d="M1717.51,-432.68C1744.13,-422.26 1777.27,-409.28 1802.05,-399.58"/>
<polygon fill="midnightblue" stroke="midnightblue" points="1716.05,-429.49 1708.02,-436.4 1718.61,-436.01 1716.05,-429.49"/>
</g>
<!-- Node3 -->
<g id="node3" class="node">
<title>Node3</title>
<g id="a_node3"><a xlink:href="logging_8cpp.html" target="_top" xlink:title=" ">
<polygon fill="white" stroke="black" points="1322.5,-302.5 1322.5,-332.5 1445.5,-332.5 1445.5,-302.5 1322.5,-302.5"/>
<text text-anchor="start" x="1330.5" y="-320.5" font-family="Helvetica,sans-Serif" font-size="10.00">samples/apps/logging</text>
<text text-anchor="middle" x="1384" y="-309.5" font-family="Helvetica,sans-Serif" font-size="10.00">/logging.cpp</text>
</a>
</g>
</g>
<!-- Node2&#45;&gt;Node3 -->
<g id="edge2" class="edge">
<title>Node2&#45;&gt;Node3</title>
<path fill="none" stroke="midnightblue" d="M935.8,-377.3C1022.39,-369.01 1176.76,-353.02 1308,-333 1312.65,-332.29 1317.44,-331.5 1322.26,-330.68"/>
<polygon fill="midnightblue" stroke="midnightblue" points="935.46,-373.81 925.84,-378.24 936.13,-380.78 935.46,-373.81"/>
</g>
<!-- Node4 -->
<g id="node4" class="node">
<title>Node4</title>
<g id="a_node4"><a xlink:href="nobuiltins_8cpp.html" target="_top" xlink:title=" ">
<polygon fill="white" stroke="black" points="1463.5,-302.5 1463.5,-332.5 1598.5,-332.5 1598.5,-302.5 1463.5,-302.5"/>
<text text-anchor="start" x="1471.5" y="-320.5" font-family="Helvetica,sans-Serif" font-size="10.00">samples/apps/nobuiltins</text>
<text text-anchor="middle" x="1531" y="-309.5" font-family="Helvetica,sans-Serif" font-size="10.00">/nobuiltins.cpp</text>
</a>
</g>
</g>
<!-- Node2&#45;&gt;Node4 -->
<g id="edge3" class="edge">
<title>Node2&#45;&gt;Node4</title>
<path fill="none" stroke="midnightblue" d="M935.84,-379.87C1045.25,-373.51 1267.29,-358.56 1454,-333 1457.1,-332.58 1460.26,-332.11 1463.46,-331.62"/>
<polygon fill="midnightblue" stroke="midnightblue" points="935.39,-376.39 925.6,-380.46 935.79,-383.38 935.39,-376.39"/>
</g>
<!-- Node5 -->
<g id="node5" class="node">
<title>Node5</title>
<g id="a_node5"><a xlink:href="executor__auth__policy_8h.html" target="_top" xlink:title=" ">
<polygon fill="white" stroke="black" points="0,-302.5 0,-332.5 148,-332.5 148,-302.5 0,-302.5"/>
<text text-anchor="start" x="8" y="-320.5" font-family="Helvetica,sans-Serif" font-size="10.00">src/apps/external_executor</text>
<text text-anchor="middle" x="74" y="-309.5" font-family="Helvetica,sans-Serif" font-size="10.00">/executor_auth_policy.h</text>
</a>
</g>
</g>
<!-- Node2&#45;&gt;Node5 -->
<g id="edge4" class="edge">
<title>Node2&#45;&gt;Node5</title>
<path fill="none" stroke="midnightblue" d="M799.9,-380.71C673.74,-375.09 395.25,-360.5 162,-333 157.54,-332.47 152.96,-331.88 148.35,-331.24"/>
<polygon fill="midnightblue" stroke="midnightblue" points="800.03,-384.22 810.18,-381.17 800.34,-377.23 800.03,-384.22"/>
</g>
<!-- Node6 -->
<g id="node6" class="node">
<title>Node6</title>
<g id="a_node6"><a xlink:href="external__executor_8cpp.html" target="_top" xlink:title=" ">
<polygon fill="white" stroke="black" points="23,-235.5 23,-265.5 171,-265.5 171,-235.5 23,-235.5"/>
<text text-anchor="start" x="31" y="-253.5" font-family="Helvetica,sans-Serif" font-size="10.00">src/apps/external_executor</text>
<text text-anchor="middle" x="97" y="-242.5" font-family="Helvetica,sans-Serif" font-size="10.00">/external_executor.cpp</text>
</a>
</g>
</g>
<!-- Node2&#45;&gt;Node6 -->
<g id="edge6" class="edge">
<title>Node2&#45;&gt;Node6</title>
<path fill="none" stroke="midnightblue" d="M800.15,-383.61C651.84,-383.02 303.4,-376.84 195,-333 192.6,-332.03 141.42,-288.99 114,-265.86"/>
<polygon fill="midnightblue" stroke="midnightblue" points="800.46,-387.11 810.47,-383.64 800.49,-380.11 800.46,-387.11"/>
</g>
<!-- Node7 -->
<g id="node7" class="node">
<title>Node7</title>
<g id="a_node7"><a xlink:href="js__generic_2named__auth__policies_8h.html" target="_top" xlink:title=" ">
<polygon fill="white" stroke="black" points="204,-302.5 204,-332.5 336,-332.5 336,-302.5 204,-302.5"/>
<text text-anchor="start" x="212" y="-320.5" font-family="Helvetica,sans-Serif" font-size="10.00">src/apps/js_generic</text>
<text text-anchor="middle" x="270" y="-309.5" font-family="Helvetica,sans-Serif" font-size="10.00">/named_auth_policies.h</text>
</a>
</g>
</g>
<!-- Node2&#45;&gt;Node7 -->
<g id="edge7" class="edge">
<title>Node2&#45;&gt;Node7</title>
<path fill="none" stroke="midnightblue" d="M799.86,-378.99C699.8,-371.9 507.4,-356.49 345,-333 342.11,-332.58 339.17,-332.13 336.2,-331.65"/>
<polygon fill="midnightblue" stroke="midnightblue" points="799.91,-382.5 810.13,-379.71 800.4,-375.52 799.91,-382.5"/>
</g>
<!-- Node9 -->
<g id="node9" class="node">
<title>Node9</title>
<g id="a_node9"><a xlink:href="js__v8_2named__auth__policies_8h.html" target="_top" xlink:title=" ">
<polygon fill="white" stroke="black" points="354,-302.5 354,-332.5 476,-332.5 476,-302.5 354,-302.5"/>
<text text-anchor="start" x="362" y="-320.5" font-family="Helvetica,sans-Serif" font-size="10.00">src/apps/js_v8/named</text>
<text text-anchor="middle" x="415" y="-309.5" font-family="Helvetica,sans-Serif" font-size="10.00">_auth_policies.h</text>
</a>
</g>
</g>
<!-- Node2&#45;&gt;Node9 -->
<g id="edge9" class="edge">
<title>Node2&#45;&gt;Node9</title>
<path fill="none" stroke="midnightblue" d="M800.37,-376.1C723.66,-367.35 594.96,-351.61 485,-333 482.06,-332.5 479.06,-331.97 476.03,-331.42"/>
<polygon fill="midnightblue" stroke="midnightblue" points="800.05,-379.58 810.38,-377.23 800.84,-372.63 800.05,-379.58"/>
</g>
<!-- Node11 -->
<g id="node11" class="node">
<title>Node11</title>
<g id="a_node11"><a xlink:href="tpcc_8cpp.html" target="_top" xlink:title=" ">
<polygon fill="white" stroke="black" points="494.5,-308 494.5,-327 639.5,-327 639.5,-308 494.5,-308"/>
<text text-anchor="middle" x="567" y="-315" font-family="Helvetica,sans-Serif" font-size="10.00">src/apps/tpcc/app/tpcc.cpp</text>
</a>
</g>
</g>
<!-- Node2&#45;&gt;Node11 -->
<g id="edge11" class="edge">
<title>Node2&#45;&gt;Node11</title>
<path fill="none" stroke="midnightblue" d="M800.24,-368.87C740.66,-356 655.96,-337.71 606.72,-327.08"/>
<polygon fill="midnightblue" stroke="midnightblue" points="799.81,-372.35 810.32,-371.04 801.28,-365.51 799.81,-372.35"/>
</g>
<!-- Node12 -->
<g id="node12" class="node">
<title>Node12</title>
<g id="a_node12"><a xlink:href="common__endpoint__registry_8cpp.html" target="_top" xlink:title=" ">
<polygon fill="white" stroke="black" points="658,-302.5 658,-332.5 786,-332.5 786,-302.5 658,-302.5"/>
<text text-anchor="start" x="666" y="-320.5" font-family="Helvetica,sans-Serif" font-size="10.00">src/endpoints/common</text>
<text text-anchor="middle" x="722" y="-309.5" font-family="Helvetica,sans-Serif" font-size="10.00">_endpoint_registry.cpp</text>
</a>
</g>
</g>
<!-- Node2&#45;&gt;Node12 -->
<g id="edge12" class="edge">
<title>Node2&#45;&gt;Node12</title>
<path fill="none" stroke="midnightblue" d="M827.05,-365.27C803.8,-354.92 775.13,-342.15 753.62,-332.58"/>
<polygon fill="midnightblue" stroke="midnightblue" points="825.76,-368.53 836.32,-369.4 828.61,-362.13 825.76,-368.53"/>
</g>
<!-- Node13 -->
<g id="node13" class="node">
<title>Node13</title>
<g id="a_node13"><a xlink:href="endpoint__registry_8cpp.html" target="_top" xlink:title=" ">
<polygon fill="white" stroke="black" points="804,-302.5 804,-332.5 932,-332.5 932,-302.5 804,-302.5"/>
<text text-anchor="start" x="812" y="-320.5" font-family="Helvetica,sans-Serif" font-size="10.00">src/endpoints/endpoint</text>
<text text-anchor="middle" x="868" y="-309.5" font-family="Helvetica,sans-Serif" font-size="10.00">_registry.cpp</text>
</a>
</g>
</g>
<!-- Node2&#45;&gt;Node13 -->
<g id="edge13" class="edge">
<title>Node2&#45;&gt;Node13</title>
<path fill="none" stroke="midnightblue" d="M868,-359.11C868,-350.15 868,-340.32 868,-332.58"/>
<polygon fill="midnightblue" stroke="midnightblue" points="864.5,-359.4 868,-369.4 871.5,-359.4 864.5,-359.4"/>
</g>
<!-- Node14 -->
<g id="node14" class="node">
<title>Node14</title>
<g id="a_node14"><a xlink:href="acme__challenge__frontend_8h.html" target="_top" xlink:title=" ">
<polygon fill="white" stroke="black" points="950,-302.5 950,-332.5 1090,-332.5 1090,-302.5 950,-302.5"/>
<text text-anchor="start" x="958" y="-320.5" font-family="Helvetica,sans-Serif" font-size="10.00">src/node/acme_challenge</text>
<text text-anchor="middle" x="1020" y="-309.5" font-family="Helvetica,sans-Serif" font-size="10.00">_frontend.h</text>
</a>
</g>
</g>
<!-- Node2&#45;&gt;Node14 -->
<g id="edge14" class="edge">
<title>Node2&#45;&gt;Node14</title>
<path fill="none" stroke="midnightblue" d="M910.31,-365.41C934.58,-355.03 964.59,-342.2 987.08,-332.58"/>
<polygon fill="midnightblue" stroke="midnightblue" points="908.8,-362.25 900.98,-369.4 911.55,-368.68 908.8,-362.25"/>
</g>
<!-- Node20 -->
<g id="node20" class="node">
<title>Node20</title>
<g id="a_node20"><a xlink:href="member__frontend_8h.html" target="_top" xlink:title=" ">
<polygon fill="white" stroke="black" points="1284,-168.5 1284,-198.5 1404,-198.5 1404,-168.5 1284,-168.5"/>
<text text-anchor="start" x="1292" y="-186.5" font-family="Helvetica,sans-Serif" font-size="10.00">src/node/rpc/member</text>
<text text-anchor="middle" x="1344" y="-175.5" font-family="Helvetica,sans-Serif" font-size="10.00">_frontend.h</text>
</a>
</g>
</g>
<!-- Node2&#45;&gt;Node20 -->
<g id="edge22" class="edge">
<title>Node2&#45;&gt;Node20</title>
<path fill="none" stroke="midnightblue" d="M936.02,-382.87C1037.55,-380.66 1222.42,-371.31 1275,-333 1320.49,-299.85 1336.89,-229.15 1341.99,-198.81"/>
<polygon fill="midnightblue" stroke="midnightblue" points="935.79,-379.38 925.87,-383.08 935.94,-386.37 935.79,-379.38"/>
</g>
<!-- Node21 -->
<g id="node21" class="node">
<title>Node21</title>
<g id="a_node21"><a xlink:href="node__frontend_8h.html" target="_top" xlink:title=" ">
<polygon fill="white" stroke="black" points="1108,-308 1108,-327 1266,-327 1266,-308 1108,-308"/>
<text text-anchor="middle" x="1187" y="-315" font-family="Helvetica,sans-Serif" font-size="10.00">src/node/rpc/node_frontend.h</text>
</a>
</g>
</g>
<!-- Node2&#45;&gt;Node21 -->
<g id="edge24" class="edge">
<title>Node2&#45;&gt;Node21</title>
<path fill="none" stroke="midnightblue" d="M935.67,-369.71C998.99,-356.81 1091.59,-337.94 1144.93,-327.07"/>
<polygon fill="midnightblue" stroke="midnightblue" points="934.87,-366.3 925.77,-371.73 936.27,-373.16 934.87,-366.3"/>
</g>
<!-- Node5&#45;&gt;Node6 -->
<g id="edge5" class="edge">
<title>Node5&#45;&gt;Node6</title>
<path fill="none" stroke="midnightblue" d="M82.42,-292.7C85.65,-283.59 89.22,-273.49 92.02,-265.58"/>
<polygon fill="midnightblue" stroke="midnightblue" points="79.03,-291.8 78.99,-302.4 85.63,-294.14 79.03,-291.8"/>
</g>
<!-- Node8 -->
<g id="node8" class="node">
<title>Node8</title>
<g id="a_node8"><a xlink:href="js__generic__base_8cpp.html" target="_top" xlink:title=" ">
<polygon fill="white" stroke="black" points="211,-235.5 211,-265.5 329,-265.5 329,-235.5 211,-235.5"/>
<text text-anchor="start" x="219" y="-253.5" font-family="Helvetica,sans-Serif" font-size="10.00">src/apps/js_generic</text>
<text text-anchor="middle" x="270" y="-242.5" font-family="Helvetica,sans-Serif" font-size="10.00">/js_generic_base.cpp</text>
</a>
</g>
</g>
<!-- Node7&#45;&gt;Node8 -->
<g id="edge8" class="edge">
<title>Node7&#45;&gt;Node8</title>
<path fill="none" stroke="midnightblue" d="M270,-292.11C270,-283.15 270,-273.32 270,-265.58"/>
<polygon fill="midnightblue" stroke="midnightblue" points="266.5,-292.4 270,-302.4 273.5,-292.4 266.5,-292.4"/>
</g>
<!-- Node10 -->
<g id="node10" class="node">
<title>Node10</title>
<g id="a_node10"><a xlink:href="js__v8__base_8cpp.html" target="_top" xlink:title=" ">
<polygon fill="white" stroke="black" points="358,-235.5 358,-265.5 472,-265.5 472,-235.5 358,-235.5"/>
<text text-anchor="start" x="366" y="-253.5" font-family="Helvetica,sans-Serif" font-size="10.00">src/apps/js_v8/js_v8</text>
<text text-anchor="middle" x="415" y="-242.5" font-family="Helvetica,sans-Serif" font-size="10.00">_base.cpp</text>
</a>
</g>
</g>
<!-- Node9&#45;&gt;Node10 -->
<g id="edge10" class="edge">
<title>Node9&#45;&gt;Node10</title>
<path fill="none" stroke="midnightblue" d="M415,-292.11C415,-283.15 415,-273.32 415,-265.58"/>
<polygon fill="midnightblue" stroke="midnightblue" points="411.5,-292.4 415,-302.4 418.5,-292.4 411.5,-292.4"/>
</g>
<!-- Node15 -->
<g id="node15" class="node">
<title>Node15</title>
<g id="a_node15"><a xlink:href="src_2enclave_2enclave_8h.html" target="_top" xlink:title=" ">
<polygon fill="white" stroke="black" points="1157,-56.5 1157,-75.5 1279,-75.5 1279,-56.5 1157,-56.5"/>
<text text-anchor="middle" x="1218" y="-63.5" font-family="Helvetica,sans-Serif" font-size="10.00">src/enclave/enclave.h</text>
</a>
</g>
</g>
<!-- Node14&#45;&gt;Node15 -->
<g id="edge15" class="edge">
<title>Node14&#45;&gt;Node15</title>
<path fill="none" stroke="midnightblue" d="M962.79,-298.03C948.28,-290.47 934.42,-280.09 926,-266 918.93,-254.17 921.06,-247.86 926,-235 952.43,-166.27 973.85,-149.87 1037,-112 1073.38,-90.19 1119.92,-78.91 1156.7,-73.11"/>
<polygon fill="midnightblue" stroke="midnightblue" points="961.34,-301.22 971.88,-302.38 964.37,-294.91 961.34,-301.22"/>
</g>
<!-- Node17 -->
<g id="node17" class="node">
<title>Node17</title>
<g id="a_node17"><a xlink:href="ccf__acme__client_8h.html" target="_top" xlink:title=" ">
<polygon fill="white" stroke="black" points="935.5,-241 935.5,-260 1084.5,-260 1084.5,-241 935.5,-241"/>
<text text-anchor="middle" x="1010" y="-248" font-family="Helvetica,sans-Serif" font-size="10.00">src/node/ccf_acme_client.h</text>
</a>
</g>
</g>
<!-- Node14&#45;&gt;Node17 -->
<g id="edge17" class="edge">
<title>Node14&#45;&gt;Node17</title>
<path fill="none" stroke="midnightblue" d="M1016.27,-292.25C1014.54,-281.02 1012.6,-268.38 1011.34,-260.19"/>
<polygon fill="midnightblue" stroke="midnightblue" points="1012.85,-293.04 1017.83,-302.4 1019.77,-291.98 1012.85,-293.04"/>
</g>
<!-- Node16 -->
<g id="node16" class="node">
<title>Node16</title>
<g id="a_node16"><a xlink:href="enclave_2main_8cpp.html" target="_top" xlink:title=" ">
<polygon fill="white" stroke="black" points="1158,-0.5 1158,-19.5 1278,-19.5 1278,-0.5 1158,-0.5"/>
<text text-anchor="middle" x="1218" y="-7.5" font-family="Helvetica,sans-Serif" font-size="10.00">src/enclave/main.cpp</text>
</a>
</g>
</g>
<!-- Node15&#45;&gt;Node16 -->
<g id="edge16" class="edge">
<title>Node15&#45;&gt;Node16</title>
<path fill="none" stroke="midnightblue" d="M1218,-45.8C1218,-36.91 1218,-26.78 1218,-19.75"/>
<polygon fill="midnightblue" stroke="midnightblue" points="1214.5,-46.08 1218,-56.08 1221.5,-46.08 1214.5,-46.08"/>
</g>
<!-- Node18 -->
<g id="node18" class="node">
<title>Node18</title>
<g id="a_node18"><a xlink:href="node__state_8h.html" target="_top" xlink:title=" ">
<polygon fill="white" stroke="black" points="1079,-174 1079,-193 1203,-193 1203,-174 1079,-174"/>
<text text-anchor="middle" x="1141" y="-181" font-family="Helvetica,sans-Serif" font-size="10.00">src/node/node_state.h</text>
</a>
</g>
</g>
<!-- Node17&#45;&gt;Node18 -->
<g id="edge18" class="edge">
<title>Node17&#45;&gt;Node18</title>
<path fill="none" stroke="midnightblue" d="M1036.66,-236.27C1062.6,-223.4 1101.28,-204.21 1123.53,-193.17"/>
<polygon fill="midnightblue" stroke="midnightblue" points="1034.8,-233.29 1027.4,-240.87 1037.91,-239.56 1034.8,-233.29"/>
</g>
<!-- Node18&#45;&gt;Node15 -->
<g id="edge19" class="edge">
<title>Node18&#45;&gt;Node15</title>
<path fill="none" stroke="midnightblue" d="M1163.11,-168.03C1175.3,-159.01 1189.79,-146.39 1199,-132 1210.54,-113.98 1215.27,-88.73 1217.05,-75.64"/>
<polygon fill="midnightblue" stroke="midnightblue" points="1160.89,-165.31 1154.74,-173.94 1164.93,-171.03 1160.89,-165.31"/>
</g>
<!-- Node19 -->
<g id="node19" class="node">
<title>Node19</title>
<g id="a_node19"><a xlink:href="gov__effects_8h.html" target="_top" xlink:title=" ">
<polygon fill="white" stroke="black" points="1046,-112.5 1046,-131.5 1190,-131.5 1190,-112.5 1046,-112.5"/>
<text text-anchor="middle" x="1118" y="-119.5" font-family="Helvetica,sans-Serif" font-size="10.00">src/node/rpc/gov_effects.h</text>
</a>
</g>
</g>
<!-- Node18&#45;&gt;Node19 -->
<g id="edge20" class="edge">
<title>Node18&#45;&gt;Node19</title>
<path fill="none" stroke="midnightblue" d="M1134.04,-164.5C1129.81,-153.55 1124.6,-140.07 1121.29,-131.51"/>
<polygon fill="midnightblue" stroke="midnightblue" points="1130.83,-165.91 1137.7,-173.98 1137.36,-163.39 1130.83,-165.91"/>
</g>
<!-- Node19&#45;&gt;Node15 -->
<g id="edge21" class="edge">
<title>Node19&#45;&gt;Node15</title>
<path fill="none" stroke="midnightblue" d="M1143.09,-107.45C1161.55,-97.48 1186.1,-84.23 1201.97,-75.65"/>
<polygon fill="midnightblue" stroke="midnightblue" points="1141.2,-104.49 1134.07,-112.32 1144.53,-110.65 1141.2,-104.49"/>
</g>
<!-- Node20&#45;&gt;Node15 -->
<g id="edge23" class="edge">
<title>Node20&#45;&gt;Node15</title>
<path fill="none" stroke="midnightblue" d="M1321.92,-160.93C1307.34,-146.83 1287.73,-128.1 1270,-112 1255.86,-99.16 1239.08,-84.79 1228.49,-75.82"/>
<polygon fill="midnightblue" stroke="midnightblue" points="1319.84,-163.79 1329.45,-168.25 1324.71,-158.77 1319.84,-163.79"/>
</g>
<!-- Node21&#45;&gt;Node15 -->
<g id="edge25" class="edge">
<title>Node21&#45;&gt;Node15</title>
<path fill="none" stroke="midnightblue" d="M1207.94,-301.41C1218.51,-292.46 1230.28,-280.11 1236,-266 1263.89,-197.2 1232.57,-104.37 1221.55,-75.76"/>
<polygon fill="midnightblue" stroke="midnightblue" points="1205.51,-298.87 1199.86,-307.83 1209.86,-304.35 1205.51,-298.87"/>
</g>
<!-- Node22 -->
<g id="node22" class="node">
<title>Node22</title>
<g id="a_node22"><a xlink:href="jwt__key__auto__refresh_8h.html" target="_top" xlink:title=" ">
<polygon fill="white" stroke="black" points="1102.5,-235.5 1102.5,-265.5 1227.5,-265.5 1227.5,-235.5 1102.5,-235.5"/>
<text text-anchor="start" x="1110.5" y="-253.5" font-family="Helvetica,sans-Serif" font-size="10.00">src/node/jwt_key_auto</text>
<text text-anchor="middle" x="1165" y="-242.5" font-family="Helvetica,sans-Serif" font-size="10.00">_refresh.h</text>
</a>
</g>
</g>
<!-- Node21&#45;&gt;Node22 -->
<g id="edge26" class="edge">
<title>Node21&#45;&gt;Node22</title>
<path fill="none" stroke="midnightblue" d="M1180.76,-298.06C1177.27,-287.75 1172.99,-275.1 1169.77,-265.59"/>
<polygon fill="midnightblue" stroke="midnightblue" points="1177.51,-299.38 1184.03,-307.73 1184.14,-297.14 1177.51,-299.38"/>
</g>
<!-- Node22&#45;&gt;Node18 -->
<g id="edge27" class="edge">
<title>Node22&#45;&gt;Node18</title>
<path fill="none" stroke="midnightblue" d="M1156.3,-225.94C1152.09,-214.54 1147.29,-201.55 1144.21,-193.19"/>
<polygon fill="midnightblue" stroke="midnightblue" points="1153.05,-227.23 1159.79,-235.4 1159.61,-224.8 1153.05,-227.23"/>
</g>
<!-- Node24 -->
<g id="node24" class="node">
<title>Node24</title>
<g id="a_node24"><a xlink:href="request_8cpp.html" target="_top" xlink:title=" ">
<polygon fill="white" stroke="black" points="1616.5,-302.5 1616.5,-332.5 1727.5,-332.5 1727.5,-302.5 1616.5,-302.5"/>
<text text-anchor="start" x="1624.5" y="-320.5" font-family="Helvetica,sans-Serif" font-size="10.00">src/apps/js_v8/tmpl</text>
<text text-anchor="middle" x="1672" y="-309.5" font-family="Helvetica,sans-Serif" font-size="10.00">/request.cpp</text>
</a>
</g>
</g>
<!-- Node23&#45;&gt;Node24 -->
<g id="edge29" class="edge">
<title>Node23&#45;&gt;Node24</title>
<path fill="none" stroke="midnightblue" d="M1672,-359.11C1672,-350.15 1672,-340.32 1672,-332.58"/>
<polygon fill="midnightblue" stroke="midnightblue" points="1668.5,-359.4 1672,-369.4 1675.5,-359.4 1668.5,-359.4"/>
</g>
<!-- Node25 -->
<g id="node25" class="node">
<title>Node25</title>
<g id="a_node25"><a xlink:href="request__authn__identity_8cpp.html" target="_top" xlink:title=" ">
<polygon fill="white" stroke="black" points="1745.5,-302.5 1745.5,-332.5 1896.5,-332.5 1896.5,-302.5 1745.5,-302.5"/>
<text text-anchor="start" x="1753.5" y="-320.5" font-family="Helvetica,sans-Serif" font-size="10.00">src/apps/js_v8/tmpl</text>
<text text-anchor="middle" x="1821" y="-309.5" font-family="Helvetica,sans-Serif" font-size="10.00">/request_authn_identity.cpp</text>
</a>
</g>
</g>
<!-- Node23&#45;&gt;Node25 -->
<g id="edge30" class="edge">
<title>Node23&#45;&gt;Node25</title>
<path fill="none" stroke="midnightblue" d="M1713.79,-365.27C1737.52,-354.92 1766.78,-342.15 1788.73,-332.58"/>
<polygon fill="midnightblue" stroke="midnightblue" points="1712.1,-362.19 1704.33,-369.4 1714.9,-368.61 1712.1,-362.19"/>
</g>
</g>
</svg>
